%TF.GenerationSoftware,KiCad,Pcbnew,8.0.9-8.0.9-0~ubuntu20.04.1*%
%TF.CreationDate,2025-10-08T18:06:47-03:00*%
%TF.ProjectId,power board,706f7765-7220-4626-9f61-72642e6b6963,rev?*%
%TF.SameCoordinates,Original*%
%TF.FileFunction,Soldermask,Top*%
%TF.FilePolarity,Negative*%
%FSLAX46Y46*%
G04 Gerber Fmt 4.6, Leading zero omitted, Abs format (unit mm)*
G04 Created by KiCad (PCBNEW 8.0.9-8.0.9-0~ubuntu20.04.1) date 2025-10-08 18:06:47*
%MOMM*%
%LPD*%
G01*
G04 APERTURE LIST*
G04 Aperture macros list*
%AMRoundRect*
0 Rectangle with rounded corners*
0 $1 Rounding radius*
0 $2 $3 $4 $5 $6 $7 $8 $9 X,Y pos of 4 corners*
0 Add a 4 corners polygon primitive as box body*
4,1,4,$2,$3,$4,$5,$6,$7,$8,$9,$2,$3,0*
0 Add four circle primitives for the rounded corners*
1,1,$1+$1,$2,$3*
1,1,$1+$1,$4,$5*
1,1,$1+$1,$6,$7*
1,1,$1+$1,$8,$9*
0 Add four rect primitives between the rounded corners*
20,1,$1+$1,$2,$3,$4,$5,0*
20,1,$1+$1,$4,$5,$6,$7,0*
20,1,$1+$1,$6,$7,$8,$9,0*
20,1,$1+$1,$8,$9,$2,$3,0*%
G04 Aperture macros list end*
%ADD10RoundRect,0.250001X1.399999X-1.099999X1.399999X1.099999X-1.399999X1.099999X-1.399999X-1.099999X0*%
%ADD11O,3.300000X2.700000*%
%ADD12RoundRect,0.250000X0.475000X-0.337500X0.475000X0.337500X-0.475000X0.337500X-0.475000X-0.337500X0*%
%ADD13RoundRect,0.250001X-1.399999X1.099999X-1.399999X-1.099999X1.399999X-1.099999X1.399999X1.099999X0*%
%ADD14R,2.000000X4.000000*%
%ADD15C,3.500000*%
%ADD16C,1.600000*%
%ADD17RoundRect,0.250000X-1.000000X1.950000X-1.000000X-1.950000X1.000000X-1.950000X1.000000X1.950000X0*%
%ADD18RoundRect,0.250000X-0.475000X0.337500X-0.475000X-0.337500X0.475000X-0.337500X0.475000X0.337500X0*%
%ADD19RoundRect,0.250000X-0.450000X0.350000X-0.450000X-0.350000X0.450000X-0.350000X0.450000X0.350000X0*%
%ADD20RoundRect,0.250000X0.450000X-0.325000X0.450000X0.325000X-0.450000X0.325000X-0.450000X-0.325000X0*%
%ADD21RoundRect,0.250000X0.300000X-2.050000X0.300000X2.050000X-0.300000X2.050000X-0.300000X-2.050000X0*%
%ADD22RoundRect,0.250002X5.149998X-4.449998X5.149998X4.449998X-5.149998X4.449998X-5.149998X-4.449998X0*%
%ADD23R,2.540000X2.540000*%
%ADD24C,2.540000*%
%ADD25RoundRect,0.250000X-0.325000X-0.450000X0.325000X-0.450000X0.325000X0.450000X-0.325000X0.450000X0*%
%ADD26RoundRect,0.250000X0.450000X-0.350000X0.450000X0.350000X-0.450000X0.350000X-0.450000X-0.350000X0*%
G04 APERTURE END LIST*
D10*
%TO.C,J4*%
X131497000Y-54279800D03*
D11*
X136997000Y-54279800D03*
%TD*%
D12*
%TO.C,C5*%
X108534200Y-100642000D03*
X108534200Y-98567000D03*
%TD*%
D13*
%TO.C,J1*%
X73101200Y-78714600D03*
D11*
X73101200Y-82914600D03*
X67601200Y-78714600D03*
X67601200Y-82914600D03*
%TD*%
D14*
%TO.C,L2*%
X84663400Y-105223200D03*
X88163400Y-105223200D03*
X88163400Y-96723200D03*
X84663400Y-96723200D03*
%TD*%
D15*
%TO.C,U2*%
X88923600Y-73560200D03*
X118895600Y-89562200D03*
D16*
X84161100Y-72985700D03*
X84161100Y-90133700D03*
X123658100Y-90133700D03*
X123658100Y-72985700D03*
%TD*%
D17*
%TO.C,C3*%
X118922800Y-99301100D03*
X118922800Y-107701100D03*
%TD*%
D18*
%TO.C,C1*%
X86715600Y-115421500D03*
X86715600Y-117496500D03*
%TD*%
D12*
%TO.C,C6*%
X109804200Y-117340200D03*
X109804200Y-115265200D03*
%TD*%
D10*
%TO.C,J3*%
X131166800Y-83278400D03*
D11*
X131166800Y-79078400D03*
X136666800Y-83278400D03*
X136666800Y-79078400D03*
%TD*%
D19*
%TO.C,R2*%
X108518200Y-107736400D03*
X108518200Y-109736400D03*
%TD*%
%TO.C,R3*%
X108483400Y-102542500D03*
X108483400Y-104542500D03*
%TD*%
D20*
%TO.C,D1*%
X110744000Y-100613100D03*
X110744000Y-98563100D03*
%TD*%
D14*
%TO.C,L1*%
X96296600Y-123384200D03*
X99796600Y-123384200D03*
X99796600Y-114884200D03*
X96296600Y-114884200D03*
%TD*%
D10*
%TO.C,J2*%
X130658800Y-114029600D03*
D11*
X130658800Y-109829600D03*
X130658800Y-105629600D03*
X136158800Y-114029600D03*
X136158800Y-109829600D03*
X136158800Y-105629600D03*
%TD*%
D18*
%TO.C,C4*%
X110744000Y-102533300D03*
X110744000Y-104608300D03*
%TD*%
D21*
%TO.C,U3*%
X96828400Y-109758700D03*
X98528400Y-109758700D03*
X100228400Y-109758700D03*
D22*
X100228400Y-100608700D03*
D21*
X101928400Y-109758700D03*
X103628400Y-109758700D03*
%TD*%
D23*
%TO.C,U1*%
X83388200Y-45821600D03*
D24*
X83388200Y-63601600D03*
X124028200Y-63601600D03*
X124028200Y-45821600D03*
%TD*%
D18*
%TO.C,C8*%
X92151200Y-109804200D03*
X92151200Y-111879200D03*
%TD*%
D17*
%TO.C,C7*%
X118948200Y-112982200D03*
X118948200Y-121382200D03*
%TD*%
D25*
%TO.C,D2*%
X90126600Y-113838900D03*
X92176600Y-113838900D03*
%TD*%
D26*
%TO.C,R1*%
X110728000Y-109743000D03*
X110728000Y-107743000D03*
%TD*%
D17*
%TO.C,C2*%
X79806800Y-113744200D03*
X79806800Y-122144200D03*
%TD*%
M02*
