%TF.GenerationSoftware,KiCad,Pcbnew,8.0.9-8.0.9-0~ubuntu20.04.1*%
%TF.CreationDate,2025-10-08T18:06:46-03:00*%
%TF.ProjectId,power board,706f7765-7220-4626-9f61-72642e6b6963,rev?*%
%TF.SameCoordinates,Original*%
%TF.FileFunction,Copper,L2,Bot*%
%TF.FilePolarity,Positive*%
%FSLAX46Y46*%
G04 Gerber Fmt 4.6, Leading zero omitted, Abs format (unit mm)*
G04 Created by KiCad (PCBNEW 8.0.9-8.0.9-0~ubuntu20.04.1) date 2025-10-08 18:06:46*
%MOMM*%
%LPD*%
G01*
G04 APERTURE LIST*
G04 Aperture macros list*
%AMRoundRect*
0 Rectangle with rounded corners*
0 $1 Rounding radius*
0 $2 $3 $4 $5 $6 $7 $8 $9 X,Y pos of 4 corners*
0 Add a 4 corners polygon primitive as box body*
4,1,4,$2,$3,$4,$5,$6,$7,$8,$9,$2,$3,0*
0 Add four circle primitives for the rounded corners*
1,1,$1+$1,$2,$3*
1,1,$1+$1,$4,$5*
1,1,$1+$1,$6,$7*
1,1,$1+$1,$8,$9*
0 Add four rect primitives between the rounded corners*
20,1,$1+$1,$2,$3,$4,$5,0*
20,1,$1+$1,$4,$5,$6,$7,0*
20,1,$1+$1,$6,$7,$8,$9,0*
20,1,$1+$1,$8,$9,$2,$3,0*%
G04 Aperture macros list end*
%TA.AperFunction,ComponentPad*%
%ADD10RoundRect,0.250001X1.399999X-1.099999X1.399999X1.099999X-1.399999X1.099999X-1.399999X-1.099999X0*%
%TD*%
%TA.AperFunction,ComponentPad*%
%ADD11O,3.300000X2.700000*%
%TD*%
%TA.AperFunction,ComponentPad*%
%ADD12RoundRect,0.250001X-1.399999X1.099999X-1.399999X-1.099999X1.399999X-1.099999X1.399999X1.099999X0*%
%TD*%
%TA.AperFunction,WasherPad*%
%ADD13C,3.500000*%
%TD*%
%TA.AperFunction,ComponentPad*%
%ADD14C,1.600000*%
%TD*%
%TA.AperFunction,ComponentPad*%
%ADD15R,2.540000X2.540000*%
%TD*%
%TA.AperFunction,ComponentPad*%
%ADD16C,2.540000*%
%TD*%
%TA.AperFunction,ViaPad*%
%ADD17C,0.600000*%
%TD*%
%TA.AperFunction,Conductor*%
%ADD18C,1.000000*%
%TD*%
G04 APERTURE END LIST*
D10*
%TO.P,J4,1,Pin_1*%
%TO.N,GND*%
X131497000Y-54279800D03*
D11*
%TO.P,J4,2,Pin_2*%
%TO.N,5V*%
X136997000Y-54279800D03*
%TD*%
D12*
%TO.P,J1,1,Pin_1*%
%TO.N,+12V*%
X73101200Y-78714600D03*
D11*
%TO.P,J1,2,Pin_2*%
%TO.N,GND*%
X73101200Y-82914600D03*
%TO.P,J1,3,Pin_3*%
%TO.N,+12V*%
X67601200Y-78714600D03*
%TO.P,J1,4,Pin_4*%
%TO.N,GND*%
X67601200Y-82914600D03*
%TD*%
D13*
%TO.P,U2,*%
%TO.N,*%
X88923600Y-73560200D03*
X118895600Y-89562200D03*
D14*
%TO.P,U2,1,Vin*%
%TO.N,+12V*%
X84161100Y-72985700D03*
%TO.P,U2,2,GND*%
%TO.N,GND*%
X84161100Y-90133700D03*
%TO.P,U2,3,Vout*%
%TO.N,15V*%
X123658100Y-90133700D03*
%TO.P,U2,4,GND*%
%TO.N,GND*%
X123658100Y-72985700D03*
%TD*%
D10*
%TO.P,J3,1,Pin_1*%
%TO.N,15V*%
X131166800Y-83278400D03*
D11*
%TO.P,J3,2,Pin_2*%
%TO.N,GND*%
X131166800Y-79078400D03*
%TO.P,J3,3,Pin_3*%
%TO.N,15V*%
X136666800Y-83278400D03*
%TO.P,J3,4,Pin_4*%
%TO.N,GND*%
X136666800Y-79078400D03*
%TD*%
D10*
%TO.P,J2,1,Pin_1*%
%TO.N,-15V_sym*%
X130658800Y-114029600D03*
D11*
%TO.P,J2,2,Pin_2*%
%TO.N,GND*%
X130658800Y-109829600D03*
%TO.P,J2,3,Pin_3*%
%TO.N,+15V_sym*%
X130658800Y-105629600D03*
%TO.P,J2,4,Pin_4*%
%TO.N,-15V_sym*%
X136158800Y-114029600D03*
%TO.P,J2,5,Pin_5*%
%TO.N,GND*%
X136158800Y-109829600D03*
%TO.P,J2,6,Pin_6*%
%TO.N,+15V_sym*%
X136158800Y-105629600D03*
%TD*%
D15*
%TO.P,U1,1,Vin*%
%TO.N,+12V*%
X83388200Y-45821600D03*
D16*
%TO.P,U1,2,GND*%
%TO.N,GND*%
X83388200Y-63601600D03*
%TO.P,U1,3,GND*%
X124028200Y-63601600D03*
%TO.P,U1,4,Vout*%
%TO.N,5V*%
X124028200Y-45821600D03*
%TD*%
D17*
%TO.N,GND*%
X95148400Y-108127800D03*
X70434200Y-85013800D03*
%TO.N,Net-(D1-A)*%
X92176600Y-100914200D03*
X107010200Y-98602800D03*
%TD*%
D18*
%TO.N,Net-(D1-A)*%
X97891600Y-100914200D02*
X100203000Y-98602800D01*
X92176600Y-100914200D02*
X97891600Y-100914200D01*
X100203000Y-98602800D02*
X107010200Y-98602800D01*
%TD*%
%TA.AperFunction,Conductor*%
%TO.N,GND*%
G36*
X140425239Y-43623985D02*
G01*
X140470994Y-43676789D01*
X140482200Y-43728300D01*
X140482200Y-127899500D01*
X140462515Y-127966539D01*
X140409711Y-128012294D01*
X140358200Y-128023500D01*
X63807000Y-128023500D01*
X63739961Y-128003815D01*
X63694206Y-127951011D01*
X63683000Y-127899500D01*
X63683000Y-112879584D01*
X128508300Y-112879584D01*
X128508300Y-115179615D01*
X128518800Y-115282395D01*
X128518801Y-115282396D01*
X128573986Y-115448935D01*
X128573987Y-115448937D01*
X128666086Y-115598251D01*
X128666089Y-115598255D01*
X128790144Y-115722310D01*
X128790148Y-115722313D01*
X128939462Y-115814412D01*
X128939464Y-115814413D01*
X128939466Y-115814414D01*
X129106003Y-115869599D01*
X129208792Y-115880100D01*
X129208797Y-115880100D01*
X132108803Y-115880100D01*
X132108808Y-115880100D01*
X132211597Y-115869599D01*
X132378134Y-115814414D01*
X132527455Y-115722311D01*
X132651511Y-115598255D01*
X132743614Y-115448934D01*
X132798799Y-115282397D01*
X132809300Y-115179608D01*
X132809300Y-113908311D01*
X134008300Y-113908311D01*
X134008300Y-114150888D01*
X134039961Y-114391385D01*
X134102747Y-114625704D01*
X134195573Y-114849805D01*
X134195576Y-114849812D01*
X134316864Y-115059889D01*
X134316866Y-115059892D01*
X134316867Y-115059893D01*
X134464533Y-115252336D01*
X134464539Y-115252343D01*
X134636056Y-115423860D01*
X134636063Y-115423866D01*
X134749121Y-115510618D01*
X134828511Y-115571536D01*
X135038588Y-115692824D01*
X135262700Y-115785654D01*
X135497011Y-115848438D01*
X135657740Y-115869598D01*
X135737511Y-115880100D01*
X135737512Y-115880100D01*
X136580089Y-115880100D01*
X136659852Y-115869599D01*
X136820589Y-115848438D01*
X137054900Y-115785654D01*
X137279012Y-115692824D01*
X137489089Y-115571536D01*
X137681538Y-115423865D01*
X137853065Y-115252338D01*
X138000736Y-115059889D01*
X138122024Y-114849812D01*
X138214854Y-114625700D01*
X138277638Y-114391389D01*
X138309300Y-114150888D01*
X138309300Y-113908312D01*
X138277638Y-113667811D01*
X138214854Y-113433500D01*
X138122024Y-113209388D01*
X138000736Y-112999311D01*
X137908873Y-112879592D01*
X137853066Y-112806863D01*
X137853060Y-112806856D01*
X137681543Y-112635339D01*
X137681536Y-112635333D01*
X137489093Y-112487667D01*
X137489092Y-112487666D01*
X137489089Y-112487664D01*
X137279012Y-112366376D01*
X137279005Y-112366373D01*
X137054904Y-112273547D01*
X136820585Y-112210761D01*
X136580089Y-112179100D01*
X136580088Y-112179100D01*
X135737512Y-112179100D01*
X135737511Y-112179100D01*
X135497014Y-112210761D01*
X135262695Y-112273547D01*
X135038594Y-112366373D01*
X135038585Y-112366377D01*
X134828506Y-112487667D01*
X134636063Y-112635333D01*
X134636056Y-112635339D01*
X134464539Y-112806856D01*
X134464533Y-112806863D01*
X134316867Y-112999306D01*
X134195577Y-113209385D01*
X134195573Y-113209394D01*
X134102747Y-113433495D01*
X134039961Y-113667814D01*
X134008300Y-113908311D01*
X132809300Y-113908311D01*
X132809300Y-112879592D01*
X132798799Y-112776803D01*
X132743614Y-112610266D01*
X132667993Y-112487667D01*
X132651513Y-112460948D01*
X132651510Y-112460944D01*
X132527455Y-112336889D01*
X132527451Y-112336886D01*
X132378137Y-112244787D01*
X132378135Y-112244786D01*
X132294865Y-112217193D01*
X132211597Y-112189601D01*
X132211595Y-112189600D01*
X132108815Y-112179100D01*
X132108808Y-112179100D01*
X129208792Y-112179100D01*
X129208784Y-112179100D01*
X129106004Y-112189600D01*
X129106003Y-112189601D01*
X128939464Y-112244786D01*
X128939462Y-112244787D01*
X128790148Y-112336886D01*
X128790144Y-112336889D01*
X128666089Y-112460944D01*
X128666086Y-112460948D01*
X128573987Y-112610262D01*
X128573986Y-112610264D01*
X128518801Y-112776803D01*
X128518800Y-112776804D01*
X128508300Y-112879584D01*
X63683000Y-112879584D01*
X63683000Y-109579600D01*
X128525750Y-109579600D01*
X130004679Y-109579600D01*
X129985701Y-109625418D01*
X129958800Y-109760656D01*
X129958800Y-109898544D01*
X129985701Y-110033782D01*
X130004679Y-110079600D01*
X128525750Y-110079600D01*
X128540453Y-110191287D01*
X128603221Y-110425539D01*
X128696020Y-110649578D01*
X128696027Y-110649593D01*
X128817280Y-110859609D01*
X128964910Y-111052005D01*
X128964916Y-111052012D01*
X129136387Y-111223483D01*
X129136394Y-111223489D01*
X129328790Y-111371119D01*
X129538806Y-111492372D01*
X129538821Y-111492379D01*
X129762860Y-111585178D01*
X129997112Y-111647946D01*
X130237535Y-111679598D01*
X130237552Y-111679600D01*
X130408800Y-111679600D01*
X130408800Y-110483720D01*
X130454618Y-110502699D01*
X130589856Y-110529600D01*
X130727744Y-110529600D01*
X130862982Y-110502699D01*
X130908800Y-110483720D01*
X130908800Y-111679600D01*
X131080048Y-111679600D01*
X131080064Y-111679598D01*
X131320487Y-111647946D01*
X131554739Y-111585178D01*
X131778778Y-111492379D01*
X131778793Y-111492372D01*
X131988809Y-111371119D01*
X132181205Y-111223489D01*
X132181212Y-111223483D01*
X132352683Y-111052012D01*
X132352689Y-111052005D01*
X132500319Y-110859609D01*
X132621572Y-110649593D01*
X132621579Y-110649578D01*
X132714378Y-110425539D01*
X132777146Y-110191287D01*
X132791850Y-110079600D01*
X131312921Y-110079600D01*
X131331899Y-110033782D01*
X131358800Y-109898544D01*
X131358800Y-109760656D01*
X131331899Y-109625418D01*
X131312921Y-109579600D01*
X132791849Y-109579600D01*
X134025750Y-109579600D01*
X135504679Y-109579600D01*
X135485701Y-109625418D01*
X135458800Y-109760656D01*
X135458800Y-109898544D01*
X135485701Y-110033782D01*
X135504679Y-110079600D01*
X134025750Y-110079600D01*
X134040453Y-110191287D01*
X134103221Y-110425539D01*
X134196020Y-110649578D01*
X134196027Y-110649593D01*
X134317280Y-110859609D01*
X134464910Y-111052005D01*
X134464916Y-111052012D01*
X134636387Y-111223483D01*
X134636394Y-111223489D01*
X134828790Y-111371119D01*
X135038806Y-111492372D01*
X135038821Y-111492379D01*
X135262860Y-111585178D01*
X135497112Y-111647946D01*
X135737535Y-111679598D01*
X135737552Y-111679600D01*
X135908800Y-111679600D01*
X135908800Y-110483720D01*
X135954618Y-110502699D01*
X136089856Y-110529600D01*
X136227744Y-110529600D01*
X136362982Y-110502699D01*
X136408800Y-110483720D01*
X136408800Y-111679600D01*
X136580048Y-111679600D01*
X136580064Y-111679598D01*
X136820487Y-111647946D01*
X137054739Y-111585178D01*
X137278778Y-111492379D01*
X137278793Y-111492372D01*
X137488809Y-111371119D01*
X137681205Y-111223489D01*
X137681212Y-111223483D01*
X137852683Y-111052012D01*
X137852689Y-111052005D01*
X138000319Y-110859609D01*
X138121572Y-110649593D01*
X138121579Y-110649578D01*
X138214378Y-110425539D01*
X138277146Y-110191287D01*
X138291850Y-110079600D01*
X136812921Y-110079600D01*
X136831899Y-110033782D01*
X136858800Y-109898544D01*
X136858800Y-109760656D01*
X136831899Y-109625418D01*
X136812921Y-109579600D01*
X138291849Y-109579600D01*
X138277146Y-109467912D01*
X138214378Y-109233660D01*
X138121579Y-109009621D01*
X138121572Y-109009606D01*
X138000319Y-108799590D01*
X137852689Y-108607194D01*
X137852683Y-108607187D01*
X137681212Y-108435716D01*
X137681205Y-108435710D01*
X137488809Y-108288080D01*
X137278793Y-108166827D01*
X137278778Y-108166820D01*
X137054739Y-108074021D01*
X136820487Y-108011253D01*
X136580064Y-107979601D01*
X136580048Y-107979600D01*
X136408800Y-107979600D01*
X136408800Y-109175479D01*
X136362982Y-109156501D01*
X136227744Y-109129600D01*
X136089856Y-109129600D01*
X135954618Y-109156501D01*
X135908800Y-109175479D01*
X135908800Y-107979600D01*
X135737552Y-107979600D01*
X135737535Y-107979601D01*
X135497112Y-108011253D01*
X135262860Y-108074021D01*
X135038821Y-108166820D01*
X135038806Y-108166827D01*
X134828790Y-108288080D01*
X134636394Y-108435710D01*
X134636387Y-108435716D01*
X134464916Y-108607187D01*
X134464910Y-108607194D01*
X134317280Y-108799590D01*
X134196027Y-109009606D01*
X134196020Y-109009621D01*
X134103221Y-109233660D01*
X134040453Y-109467912D01*
X134025750Y-109579600D01*
X132791849Y-109579600D01*
X132777146Y-109467912D01*
X132714378Y-109233660D01*
X132621579Y-109009621D01*
X132621572Y-109009606D01*
X132500319Y-108799590D01*
X132352689Y-108607194D01*
X132352683Y-108607187D01*
X132181212Y-108435716D01*
X132181205Y-108435710D01*
X131988809Y-108288080D01*
X131778793Y-108166827D01*
X131778778Y-108166820D01*
X131554739Y-108074021D01*
X131320487Y-108011253D01*
X131080064Y-107979601D01*
X131080048Y-107979600D01*
X130908800Y-107979600D01*
X130908800Y-109175479D01*
X130862982Y-109156501D01*
X130727744Y-109129600D01*
X130589856Y-109129600D01*
X130454618Y-109156501D01*
X130408800Y-109175479D01*
X130408800Y-107979600D01*
X130237552Y-107979600D01*
X130237535Y-107979601D01*
X129997112Y-108011253D01*
X129762860Y-108074021D01*
X129538821Y-108166820D01*
X129538806Y-108166827D01*
X129328790Y-108288080D01*
X129136394Y-108435710D01*
X129136387Y-108435716D01*
X128964916Y-108607187D01*
X128964910Y-108607194D01*
X128817280Y-108799590D01*
X128696027Y-109009606D01*
X128696020Y-109009621D01*
X128603221Y-109233660D01*
X128540453Y-109467912D01*
X128525750Y-109579600D01*
X63683000Y-109579600D01*
X63683000Y-105508311D01*
X128508300Y-105508311D01*
X128508300Y-105750888D01*
X128539961Y-105991385D01*
X128602747Y-106225704D01*
X128695573Y-106449805D01*
X128695576Y-106449812D01*
X128816864Y-106659889D01*
X128816866Y-106659892D01*
X128816867Y-106659893D01*
X128964533Y-106852336D01*
X128964539Y-106852343D01*
X129136056Y-107023860D01*
X129136062Y-107023865D01*
X129328511Y-107171536D01*
X129538588Y-107292824D01*
X129762700Y-107385654D01*
X129997011Y-107448438D01*
X130177386Y-107472184D01*
X130237511Y-107480100D01*
X130237512Y-107480100D01*
X131080089Y-107480100D01*
X131128188Y-107473767D01*
X131320589Y-107448438D01*
X131554900Y-107385654D01*
X131779012Y-107292824D01*
X131989089Y-107171536D01*
X132181538Y-107023865D01*
X132353065Y-106852338D01*
X132500736Y-106659889D01*
X132622024Y-106449812D01*
X132714854Y-106225700D01*
X132777638Y-105991389D01*
X132809300Y-105750888D01*
X132809300Y-105508312D01*
X132809300Y-105508311D01*
X134008300Y-105508311D01*
X134008300Y-105750888D01*
X134039961Y-105991385D01*
X134102747Y-106225704D01*
X134195573Y-106449805D01*
X134195576Y-106449812D01*
X134316864Y-106659889D01*
X134316866Y-106659892D01*
X134316867Y-106659893D01*
X134464533Y-106852336D01*
X134464539Y-106852343D01*
X134636056Y-107023860D01*
X134636062Y-107023865D01*
X134828511Y-107171536D01*
X135038588Y-107292824D01*
X135262700Y-107385654D01*
X135497011Y-107448438D01*
X135677386Y-107472184D01*
X135737511Y-107480100D01*
X135737512Y-107480100D01*
X136580089Y-107480100D01*
X136628188Y-107473767D01*
X136820589Y-107448438D01*
X137054900Y-107385654D01*
X137279012Y-107292824D01*
X137489089Y-107171536D01*
X137681538Y-107023865D01*
X137853065Y-106852338D01*
X138000736Y-106659889D01*
X138122024Y-106449812D01*
X138214854Y-106225700D01*
X138277638Y-105991389D01*
X138309300Y-105750888D01*
X138309300Y-105508312D01*
X138277638Y-105267811D01*
X138214854Y-105033500D01*
X138122024Y-104809388D01*
X138000736Y-104599311D01*
X137853065Y-104406862D01*
X137853060Y-104406856D01*
X137681543Y-104235339D01*
X137681536Y-104235333D01*
X137489093Y-104087667D01*
X137489092Y-104087666D01*
X137489089Y-104087664D01*
X137279012Y-103966376D01*
X137279005Y-103966373D01*
X137054904Y-103873547D01*
X136820585Y-103810761D01*
X136580089Y-103779100D01*
X136580088Y-103779100D01*
X135737512Y-103779100D01*
X135737511Y-103779100D01*
X135497014Y-103810761D01*
X135262695Y-103873547D01*
X135038594Y-103966373D01*
X135038585Y-103966377D01*
X134828506Y-104087667D01*
X134636063Y-104235333D01*
X134636056Y-104235339D01*
X134464539Y-104406856D01*
X134464533Y-104406863D01*
X134316867Y-104599306D01*
X134195577Y-104809385D01*
X134195573Y-104809394D01*
X134102747Y-105033495D01*
X134039961Y-105267814D01*
X134008300Y-105508311D01*
X132809300Y-105508311D01*
X132777638Y-105267811D01*
X132714854Y-105033500D01*
X132622024Y-104809388D01*
X132500736Y-104599311D01*
X132353065Y-104406862D01*
X132353060Y-104406856D01*
X132181543Y-104235339D01*
X132181536Y-104235333D01*
X131989093Y-104087667D01*
X131989092Y-104087666D01*
X131989089Y-104087664D01*
X131779012Y-103966376D01*
X131779005Y-103966373D01*
X131554904Y-103873547D01*
X131320585Y-103810761D01*
X131080089Y-103779100D01*
X131080088Y-103779100D01*
X130237512Y-103779100D01*
X130237511Y-103779100D01*
X129997014Y-103810761D01*
X129762695Y-103873547D01*
X129538594Y-103966373D01*
X129538585Y-103966377D01*
X129328506Y-104087667D01*
X129136063Y-104235333D01*
X129136056Y-104235339D01*
X128964539Y-104406856D01*
X128964533Y-104406863D01*
X128816867Y-104599306D01*
X128695577Y-104809385D01*
X128695573Y-104809394D01*
X128602747Y-105033495D01*
X128539961Y-105267814D01*
X128508300Y-105508311D01*
X63683000Y-105508311D01*
X63683000Y-101090800D01*
X68479759Y-101090800D01*
X68499510Y-101467671D01*
X68558547Y-101840413D01*
X68573301Y-101895475D01*
X68656223Y-102204947D01*
X68791467Y-102557268D01*
X68962799Y-102893525D01*
X69168335Y-103210023D01*
X69168337Y-103210025D01*
X69405835Y-103503311D01*
X69672689Y-103770165D01*
X69672693Y-103770168D01*
X69965976Y-104007664D01*
X70089170Y-104087667D01*
X70282479Y-104213203D01*
X70618735Y-104384534D01*
X70971057Y-104519778D01*
X71335587Y-104617453D01*
X71708329Y-104676490D01*
X72064355Y-104695148D01*
X72085199Y-104696241D01*
X72085200Y-104696241D01*
X72085201Y-104696241D01*
X72104952Y-104695205D01*
X72462071Y-104676490D01*
X72834813Y-104617453D01*
X73199343Y-104519778D01*
X73551665Y-104384534D01*
X73887921Y-104213203D01*
X74204425Y-104007663D01*
X74497711Y-103770165D01*
X74764565Y-103503311D01*
X75002063Y-103210025D01*
X75207603Y-102893521D01*
X75378934Y-102557265D01*
X75514178Y-102204943D01*
X75611853Y-101840413D01*
X75670890Y-101467671D01*
X75690641Y-101090800D01*
X75686550Y-101012743D01*
X91176099Y-101012743D01*
X91214547Y-101206029D01*
X91214550Y-101206039D01*
X91289964Y-101388107D01*
X91289971Y-101388120D01*
X91399460Y-101551981D01*
X91399463Y-101551985D01*
X91538814Y-101691336D01*
X91538818Y-101691339D01*
X91702679Y-101800828D01*
X91702692Y-101800835D01*
X91884760Y-101876249D01*
X91884765Y-101876251D01*
X91884769Y-101876251D01*
X91884770Y-101876252D01*
X92078056Y-101914700D01*
X92078059Y-101914700D01*
X97990142Y-101914700D01*
X98009470Y-101910855D01*
X98086788Y-101895475D01*
X98183436Y-101876251D01*
X98269956Y-101840413D01*
X98365514Y-101800832D01*
X98529382Y-101691339D01*
X98668739Y-101551982D01*
X98668740Y-101551979D01*
X98675806Y-101544914D01*
X98675808Y-101544910D01*
X100581101Y-99639619D01*
X100642424Y-99606134D01*
X100668782Y-99603300D01*
X107108743Y-99603300D01*
X107238782Y-99577432D01*
X107302035Y-99564851D01*
X107484114Y-99489432D01*
X107647982Y-99379939D01*
X107787339Y-99240582D01*
X107896832Y-99076714D01*
X107972251Y-98894635D01*
X108010700Y-98701341D01*
X108010700Y-98504259D01*
X108010700Y-98504256D01*
X107972252Y-98310970D01*
X107972251Y-98310969D01*
X107972251Y-98310965D01*
X107915492Y-98173935D01*
X107896835Y-98128892D01*
X107896828Y-98128879D01*
X107787339Y-97965018D01*
X107787336Y-97965014D01*
X107647985Y-97825663D01*
X107647981Y-97825660D01*
X107484120Y-97716171D01*
X107484107Y-97716164D01*
X107302039Y-97640750D01*
X107302029Y-97640747D01*
X107108743Y-97602300D01*
X107108741Y-97602300D01*
X100104459Y-97602300D01*
X100104455Y-97602300D01*
X100007812Y-97621524D01*
X99911171Y-97640747D01*
X99911163Y-97640749D01*
X99860290Y-97661822D01*
X99729082Y-97716169D01*
X99565219Y-97825659D01*
X99495540Y-97895338D01*
X99425861Y-97965018D01*
X99425858Y-97965021D01*
X97513499Y-99877381D01*
X97452176Y-99910866D01*
X97425818Y-99913700D01*
X92078057Y-99913700D01*
X91884770Y-99952147D01*
X91884760Y-99952150D01*
X91702692Y-100027564D01*
X91702679Y-100027571D01*
X91538818Y-100137060D01*
X91538814Y-100137063D01*
X91399463Y-100276414D01*
X91399460Y-100276418D01*
X91289971Y-100440279D01*
X91289964Y-100440292D01*
X91214550Y-100622360D01*
X91214547Y-100622370D01*
X91176100Y-100815656D01*
X91176100Y-100815659D01*
X91176100Y-101012741D01*
X91176100Y-101012743D01*
X91176099Y-101012743D01*
X75686550Y-101012743D01*
X75670890Y-100713929D01*
X75611853Y-100341187D01*
X75514178Y-99976657D01*
X75378934Y-99624335D01*
X75207603Y-99288080D01*
X75207600Y-99288075D01*
X75002064Y-98971576D01*
X74764568Y-98678293D01*
X74764565Y-98678289D01*
X74497711Y-98411435D01*
X74204425Y-98173937D01*
X74204423Y-98173935D01*
X73887925Y-97968399D01*
X73551668Y-97797067D01*
X73199347Y-97661823D01*
X72834814Y-97564147D01*
X72834807Y-97564146D01*
X72462072Y-97505110D01*
X72085201Y-97485359D01*
X72085199Y-97485359D01*
X71708327Y-97505110D01*
X71335592Y-97564146D01*
X71335585Y-97564147D01*
X70971052Y-97661823D01*
X70618731Y-97797067D01*
X70282475Y-97968399D01*
X69965976Y-98173935D01*
X69672693Y-98411431D01*
X69672685Y-98411438D01*
X69405838Y-98678285D01*
X69405831Y-98678293D01*
X69168335Y-98971576D01*
X68962799Y-99288075D01*
X68791467Y-99624331D01*
X68656223Y-99976652D01*
X68558547Y-100341185D01*
X68558546Y-100341192D01*
X68499510Y-100713927D01*
X68483850Y-101012741D01*
X68479759Y-101090800D01*
X63683000Y-101090800D01*
X63683000Y-94387599D01*
X130557359Y-94387599D01*
X130557359Y-94387600D01*
X130577110Y-94764472D01*
X130636146Y-95137207D01*
X130636147Y-95137214D01*
X130733823Y-95501747D01*
X130869067Y-95854068D01*
X131040399Y-96190325D01*
X131245935Y-96506823D01*
X131245937Y-96506825D01*
X131483435Y-96800111D01*
X131750289Y-97066965D01*
X131750293Y-97066968D01*
X132043576Y-97304464D01*
X132352544Y-97505110D01*
X132360079Y-97510003D01*
X132696335Y-97681334D01*
X133048657Y-97816578D01*
X133413187Y-97914253D01*
X133785929Y-97973290D01*
X134141955Y-97991948D01*
X134162799Y-97993041D01*
X134162800Y-97993041D01*
X134162801Y-97993041D01*
X134182552Y-97992005D01*
X134539671Y-97973290D01*
X134912413Y-97914253D01*
X135276943Y-97816578D01*
X135629265Y-97681334D01*
X135965521Y-97510003D01*
X136282025Y-97304463D01*
X136575311Y-97066965D01*
X136842165Y-96800111D01*
X137079663Y-96506825D01*
X137285203Y-96190321D01*
X137456534Y-95854065D01*
X137591778Y-95501743D01*
X137689453Y-95137213D01*
X137748490Y-94764471D01*
X137768241Y-94387600D01*
X137748490Y-94010729D01*
X137689453Y-93637987D01*
X137591778Y-93273457D01*
X137456534Y-92921135D01*
X137285203Y-92584880D01*
X137079663Y-92268375D01*
X136842165Y-91975089D01*
X136575311Y-91708235D01*
X136498272Y-91645850D01*
X136282023Y-91470735D01*
X135965525Y-91265199D01*
X135629268Y-91093867D01*
X135276947Y-90958623D01*
X134912414Y-90860947D01*
X134912407Y-90860946D01*
X134539672Y-90801910D01*
X134162801Y-90782159D01*
X134162799Y-90782159D01*
X133785927Y-90801910D01*
X133413192Y-90860946D01*
X133413185Y-90860947D01*
X133048652Y-90958623D01*
X132696331Y-91093867D01*
X132360075Y-91265199D01*
X132043576Y-91470735D01*
X131750293Y-91708231D01*
X131750285Y-91708238D01*
X131483438Y-91975085D01*
X131483431Y-91975093D01*
X131245935Y-92268376D01*
X131040399Y-92584875D01*
X130869067Y-92921131D01*
X130733823Y-93273452D01*
X130636147Y-93637985D01*
X130636146Y-93637992D01*
X130577110Y-94010727D01*
X130557359Y-94387599D01*
X63683000Y-94387599D01*
X63683000Y-90133697D01*
X82856134Y-90133697D01*
X82856134Y-90133702D01*
X82875958Y-90360299D01*
X82875960Y-90360310D01*
X82934830Y-90580017D01*
X82934835Y-90580031D01*
X83030963Y-90786178D01*
X83082074Y-90859172D01*
X83761100Y-90180146D01*
X83761100Y-90186361D01*
X83788359Y-90288094D01*
X83841020Y-90379306D01*
X83915494Y-90453780D01*
X84006706Y-90506441D01*
X84108439Y-90533700D01*
X84114653Y-90533700D01*
X83435626Y-91212725D01*
X83508613Y-91263832D01*
X83508621Y-91263836D01*
X83714768Y-91359964D01*
X83714782Y-91359969D01*
X83934489Y-91418839D01*
X83934500Y-91418841D01*
X84161098Y-91438666D01*
X84161102Y-91438666D01*
X84387699Y-91418841D01*
X84387710Y-91418839D01*
X84607417Y-91359969D01*
X84607431Y-91359964D01*
X84813578Y-91263836D01*
X84886571Y-91212724D01*
X84207547Y-90533700D01*
X84213761Y-90533700D01*
X84315494Y-90506441D01*
X84406706Y-90453780D01*
X84481180Y-90379306D01*
X84533841Y-90288094D01*
X84561100Y-90186361D01*
X84561100Y-90180147D01*
X85240124Y-90859171D01*
X85291236Y-90786178D01*
X85387364Y-90580031D01*
X85387369Y-90580017D01*
X85446239Y-90360310D01*
X85446241Y-90360299D01*
X85466066Y-90133702D01*
X85466066Y-90133697D01*
X85446241Y-89907100D01*
X85446239Y-89907089D01*
X85387369Y-89687382D01*
X85387364Y-89687368D01*
X85328993Y-89562192D01*
X116640271Y-89562192D01*
X116640271Y-89562207D01*
X116659564Y-89856563D01*
X116659565Y-89856573D01*
X116659566Y-89856580D01*
X116714688Y-90133702D01*
X116717118Y-90145916D01*
X116717121Y-90145930D01*
X116811949Y-90425280D01*
X116942425Y-90689860D01*
X116942429Y-90689867D01*
X117106325Y-90935155D01*
X117300841Y-91156958D01*
X117522644Y-91351474D01*
X117653136Y-91438666D01*
X117767935Y-91515372D01*
X118032523Y-91645852D01*
X118311878Y-91740681D01*
X118601220Y-91798234D01*
X118629488Y-91800086D01*
X118895593Y-91817529D01*
X118895600Y-91817529D01*
X118895607Y-91817529D01*
X119131275Y-91802081D01*
X119189980Y-91798234D01*
X119479322Y-91740681D01*
X119758677Y-91645852D01*
X120023265Y-91515372D01*
X120268557Y-91351473D01*
X120490358Y-91156958D01*
X120684873Y-90935157D01*
X120848772Y-90689865D01*
X120979252Y-90425277D01*
X121074081Y-90145922D01*
X121076512Y-90133698D01*
X122352632Y-90133698D01*
X122352632Y-90133701D01*
X122372464Y-90360386D01*
X122372466Y-90360397D01*
X122431358Y-90580188D01*
X122431361Y-90580197D01*
X122527531Y-90786432D01*
X122527532Y-90786434D01*
X122658054Y-90972841D01*
X122818958Y-91133745D01*
X122818961Y-91133747D01*
X123005366Y-91264268D01*
X123211604Y-91360439D01*
X123431408Y-91419335D01*
X123593330Y-91433501D01*
X123658098Y-91439168D01*
X123658100Y-91439168D01*
X123658102Y-91439168D01*
X123714773Y-91434209D01*
X123884792Y-91419335D01*
X124104596Y-91360439D01*
X124310834Y-91264268D01*
X124497239Y-91133747D01*
X124658147Y-90972839D01*
X124788668Y-90786434D01*
X124884839Y-90580196D01*
X124943735Y-90360392D01*
X124963568Y-90133700D01*
X124943735Y-89907008D01*
X124884839Y-89687204D01*
X124788668Y-89480966D01*
X124658147Y-89294561D01*
X124658145Y-89294558D01*
X124497241Y-89133654D01*
X124310834Y-89003132D01*
X124310832Y-89003131D01*
X124104597Y-88906961D01*
X124104588Y-88906958D01*
X123884797Y-88848066D01*
X123884793Y-88848065D01*
X123884792Y-88848065D01*
X123884791Y-88848064D01*
X123884786Y-88848064D01*
X123658102Y-88828232D01*
X123658098Y-88828232D01*
X123431413Y-88848064D01*
X123431402Y-88848066D01*
X123211611Y-88906958D01*
X123211602Y-88906961D01*
X123005367Y-89003131D01*
X123005365Y-89003132D01*
X122818958Y-89133654D01*
X122658054Y-89294558D01*
X122527532Y-89480965D01*
X122527531Y-89480967D01*
X122431361Y-89687202D01*
X122431358Y-89687211D01*
X122372466Y-89907002D01*
X122372464Y-89907013D01*
X122352632Y-90133698D01*
X121076512Y-90133698D01*
X121131634Y-89856580D01*
X121136644Y-89780146D01*
X121150929Y-89562207D01*
X121150929Y-89562192D01*
X121131635Y-89267836D01*
X121131634Y-89267820D01*
X121074081Y-88978478D01*
X120979252Y-88699123D01*
X120848772Y-88434536D01*
X120684873Y-88189243D01*
X120642255Y-88140647D01*
X120490358Y-87967441D01*
X120268555Y-87772925D01*
X120023267Y-87609029D01*
X120023260Y-87609025D01*
X119758680Y-87478549D01*
X119479330Y-87383721D01*
X119479324Y-87383719D01*
X119479322Y-87383719D01*
X119189980Y-87326166D01*
X119189973Y-87326165D01*
X119189963Y-87326164D01*
X118895607Y-87306871D01*
X118895593Y-87306871D01*
X118601236Y-87326164D01*
X118601224Y-87326165D01*
X118601220Y-87326166D01*
X118601212Y-87326167D01*
X118601209Y-87326168D01*
X118311883Y-87383718D01*
X118311869Y-87383721D01*
X118032519Y-87478549D01*
X117767934Y-87609028D01*
X117522641Y-87772928D01*
X117300841Y-87967441D01*
X117106328Y-88189241D01*
X116942428Y-88434534D01*
X116811949Y-88699119D01*
X116717121Y-88978469D01*
X116717118Y-88978483D01*
X116659568Y-89267809D01*
X116659564Y-89267836D01*
X116640271Y-89562192D01*
X85328993Y-89562192D01*
X85291236Y-89481221D01*
X85291232Y-89481213D01*
X85240125Y-89408226D01*
X84561100Y-90087251D01*
X84561100Y-90081039D01*
X84533841Y-89979306D01*
X84481180Y-89888094D01*
X84406706Y-89813620D01*
X84315494Y-89760959D01*
X84213761Y-89733700D01*
X84207545Y-89733700D01*
X84886572Y-89054674D01*
X84813578Y-89003563D01*
X84607431Y-88907435D01*
X84607417Y-88907430D01*
X84387710Y-88848560D01*
X84387699Y-88848558D01*
X84161102Y-88828734D01*
X84161098Y-88828734D01*
X83934500Y-88848558D01*
X83934489Y-88848560D01*
X83714782Y-88907430D01*
X83714773Y-88907434D01*
X83508616Y-89003566D01*
X83508612Y-89003568D01*
X83435626Y-89054673D01*
X83435626Y-89054674D01*
X84114653Y-89733700D01*
X84108439Y-89733700D01*
X84006706Y-89760959D01*
X83915494Y-89813620D01*
X83841020Y-89888094D01*
X83788359Y-89979306D01*
X83761100Y-90081039D01*
X83761100Y-90087252D01*
X83082074Y-89408226D01*
X83082073Y-89408226D01*
X83030968Y-89481212D01*
X83030966Y-89481216D01*
X82934834Y-89687373D01*
X82934830Y-89687382D01*
X82875960Y-89907089D01*
X82875958Y-89907100D01*
X82856134Y-90133697D01*
X63683000Y-90133697D01*
X63683000Y-82664600D01*
X65468150Y-82664600D01*
X66947079Y-82664600D01*
X66928101Y-82710418D01*
X66901200Y-82845656D01*
X66901200Y-82983544D01*
X66928101Y-83118782D01*
X66947079Y-83164600D01*
X65468150Y-83164600D01*
X65482853Y-83276287D01*
X65545621Y-83510539D01*
X65638420Y-83734578D01*
X65638427Y-83734593D01*
X65759680Y-83944609D01*
X65907310Y-84137005D01*
X65907316Y-84137012D01*
X66078787Y-84308483D01*
X66078794Y-84308489D01*
X66271190Y-84456119D01*
X66481206Y-84577372D01*
X66481221Y-84577379D01*
X66705260Y-84670178D01*
X66939512Y-84732946D01*
X67179935Y-84764598D01*
X67179952Y-84764600D01*
X67351200Y-84764600D01*
X67351200Y-83568720D01*
X67397018Y-83587699D01*
X67532256Y-83614600D01*
X67670144Y-83614600D01*
X67805382Y-83587699D01*
X67851200Y-83568720D01*
X67851200Y-84764600D01*
X68022448Y-84764600D01*
X68022464Y-84764598D01*
X68262887Y-84732946D01*
X68497139Y-84670178D01*
X68721178Y-84577379D01*
X68721193Y-84577372D01*
X68931209Y-84456119D01*
X69123605Y-84308489D01*
X69123612Y-84308483D01*
X69295083Y-84137012D01*
X69295089Y-84137005D01*
X69442719Y-83944609D01*
X69563972Y-83734593D01*
X69563979Y-83734578D01*
X69656778Y-83510539D01*
X69719546Y-83276287D01*
X69734250Y-83164600D01*
X68255321Y-83164600D01*
X68274299Y-83118782D01*
X68301200Y-82983544D01*
X68301200Y-82845656D01*
X68274299Y-82710418D01*
X68255321Y-82664600D01*
X69734249Y-82664600D01*
X70968150Y-82664600D01*
X72447079Y-82664600D01*
X72428101Y-82710418D01*
X72401200Y-82845656D01*
X72401200Y-82983544D01*
X72428101Y-83118782D01*
X72447079Y-83164600D01*
X70968150Y-83164600D01*
X70982853Y-83276287D01*
X71045621Y-83510539D01*
X71138420Y-83734578D01*
X71138427Y-83734593D01*
X71259680Y-83944609D01*
X71407310Y-84137005D01*
X71407316Y-84137012D01*
X71578787Y-84308483D01*
X71578794Y-84308489D01*
X71771190Y-84456119D01*
X71981206Y-84577372D01*
X71981221Y-84577379D01*
X72205260Y-84670178D01*
X72439512Y-84732946D01*
X72679935Y-84764598D01*
X72679952Y-84764600D01*
X72851200Y-84764600D01*
X72851200Y-83568720D01*
X72897018Y-83587699D01*
X73032256Y-83614600D01*
X73170144Y-83614600D01*
X73305382Y-83587699D01*
X73351200Y-83568720D01*
X73351200Y-84764600D01*
X73522448Y-84764600D01*
X73522464Y-84764598D01*
X73762887Y-84732946D01*
X73997139Y-84670178D01*
X74221178Y-84577379D01*
X74221193Y-84577372D01*
X74431209Y-84456119D01*
X74623605Y-84308489D01*
X74623612Y-84308483D01*
X74795083Y-84137012D01*
X74795089Y-84137005D01*
X74942719Y-83944609D01*
X75063972Y-83734593D01*
X75063979Y-83734578D01*
X75156778Y-83510539D01*
X75219546Y-83276287D01*
X75234250Y-83164600D01*
X73755321Y-83164600D01*
X73774299Y-83118782D01*
X73801200Y-82983544D01*
X73801200Y-82845656D01*
X73774299Y-82710418D01*
X73755321Y-82664600D01*
X75234249Y-82664600D01*
X75219546Y-82552912D01*
X75156778Y-82318660D01*
X75077964Y-82128384D01*
X129016300Y-82128384D01*
X129016300Y-84428415D01*
X129026800Y-84531195D01*
X129026801Y-84531196D01*
X129081986Y-84697735D01*
X129081987Y-84697737D01*
X129174086Y-84847051D01*
X129174089Y-84847055D01*
X129298144Y-84971110D01*
X129298148Y-84971113D01*
X129447462Y-85063212D01*
X129447464Y-85063213D01*
X129447466Y-85063214D01*
X129614003Y-85118399D01*
X129716792Y-85128900D01*
X129716797Y-85128900D01*
X132616803Y-85128900D01*
X132616808Y-85128900D01*
X132719597Y-85118399D01*
X132886134Y-85063214D01*
X133035455Y-84971111D01*
X133159511Y-84847055D01*
X133251614Y-84697734D01*
X133306799Y-84531197D01*
X133317300Y-84428408D01*
X133317300Y-83157111D01*
X134516300Y-83157111D01*
X134516300Y-83399688D01*
X134547961Y-83640185D01*
X134610747Y-83874504D01*
X134639786Y-83944609D01*
X134703576Y-84098612D01*
X134824864Y-84308689D01*
X134824866Y-84308692D01*
X134824867Y-84308693D01*
X134972533Y-84501136D01*
X134972539Y-84501143D01*
X135144056Y-84672660D01*
X135144063Y-84672666D01*
X135222622Y-84732946D01*
X135336511Y-84820336D01*
X135546588Y-84941624D01*
X135770700Y-85034454D01*
X136005011Y-85097238D01*
X136165740Y-85118398D01*
X136245511Y-85128900D01*
X136245512Y-85128900D01*
X137088089Y-85128900D01*
X137167852Y-85118399D01*
X137328589Y-85097238D01*
X137562900Y-85034454D01*
X137787012Y-84941624D01*
X137997089Y-84820336D01*
X138189538Y-84672665D01*
X138361065Y-84501138D01*
X138508736Y-84308689D01*
X138630024Y-84098612D01*
X138722854Y-83874500D01*
X138785638Y-83640189D01*
X138817300Y-83399688D01*
X138817300Y-83157112D01*
X138785638Y-82916611D01*
X138722854Y-82682300D01*
X138630024Y-82458188D01*
X138508736Y-82248111D01*
X138416873Y-82128392D01*
X138361066Y-82055663D01*
X138361060Y-82055656D01*
X138189543Y-81884139D01*
X138189536Y-81884133D01*
X137997093Y-81736467D01*
X137997092Y-81736466D01*
X137997089Y-81736464D01*
X137787012Y-81615176D01*
X137787005Y-81615173D01*
X137562904Y-81522347D01*
X137328585Y-81459561D01*
X137088089Y-81427900D01*
X137088088Y-81427900D01*
X136245512Y-81427900D01*
X136245511Y-81427900D01*
X136005014Y-81459561D01*
X135770695Y-81522347D01*
X135546594Y-81615173D01*
X135546585Y-81615177D01*
X135336506Y-81736467D01*
X135144063Y-81884133D01*
X135144056Y-81884139D01*
X134972539Y-82055656D01*
X134972533Y-82055663D01*
X134824867Y-82248106D01*
X134703577Y-82458185D01*
X134703573Y-82458194D01*
X134610747Y-82682295D01*
X134547961Y-82916614D01*
X134516300Y-83157111D01*
X133317300Y-83157111D01*
X133317300Y-82128392D01*
X133306799Y-82025603D01*
X133251614Y-81859066D01*
X133175993Y-81736467D01*
X133159513Y-81709748D01*
X133159510Y-81709744D01*
X133035455Y-81585689D01*
X133035451Y-81585686D01*
X132886137Y-81493587D01*
X132886135Y-81493586D01*
X132802865Y-81465993D01*
X132719597Y-81438401D01*
X132719595Y-81438400D01*
X132616815Y-81427900D01*
X132616808Y-81427900D01*
X129716792Y-81427900D01*
X129716784Y-81427900D01*
X129614004Y-81438400D01*
X129614003Y-81438401D01*
X129447464Y-81493586D01*
X129447462Y-81493587D01*
X129298148Y-81585686D01*
X129298144Y-81585689D01*
X129174089Y-81709744D01*
X129174086Y-81709748D01*
X129081987Y-81859062D01*
X129081986Y-81859064D01*
X129026801Y-82025603D01*
X129026800Y-82025604D01*
X129016300Y-82128384D01*
X75077964Y-82128384D01*
X75063979Y-82094621D01*
X75063972Y-82094606D01*
X74942719Y-81884590D01*
X74795089Y-81692194D01*
X74795083Y-81692187D01*
X74623612Y-81520716D01*
X74623605Y-81520710D01*
X74431209Y-81373080D01*
X74221193Y-81251827D01*
X74221178Y-81251820D01*
X73997139Y-81159021D01*
X73762887Y-81096253D01*
X73522464Y-81064601D01*
X73522448Y-81064600D01*
X73351200Y-81064600D01*
X73351200Y-82260479D01*
X73305382Y-82241501D01*
X73170144Y-82214600D01*
X73032256Y-82214600D01*
X72897018Y-82241501D01*
X72851200Y-82260479D01*
X72851200Y-81064600D01*
X72679952Y-81064600D01*
X72679935Y-81064601D01*
X72439512Y-81096253D01*
X72205260Y-81159021D01*
X71981221Y-81251820D01*
X71981206Y-81251827D01*
X71771190Y-81373080D01*
X71578794Y-81520710D01*
X71578787Y-81520716D01*
X71407316Y-81692187D01*
X71407310Y-81692194D01*
X71259680Y-81884590D01*
X71138427Y-82094606D01*
X71138420Y-82094621D01*
X71045621Y-82318660D01*
X70982853Y-82552912D01*
X70968150Y-82664600D01*
X69734249Y-82664600D01*
X69719546Y-82552912D01*
X69656778Y-82318660D01*
X69563979Y-82094621D01*
X69563972Y-82094606D01*
X69442719Y-81884590D01*
X69295089Y-81692194D01*
X69295083Y-81692187D01*
X69123612Y-81520716D01*
X69123605Y-81520710D01*
X68931209Y-81373080D01*
X68721193Y-81251827D01*
X68721178Y-81251820D01*
X68497139Y-81159021D01*
X68262887Y-81096253D01*
X68022464Y-81064601D01*
X68022448Y-81064600D01*
X67851200Y-81064600D01*
X67851200Y-82260479D01*
X67805382Y-82241501D01*
X67670144Y-82214600D01*
X67532256Y-82214600D01*
X67397018Y-82241501D01*
X67351200Y-82260479D01*
X67351200Y-81064600D01*
X67179952Y-81064600D01*
X67179935Y-81064601D01*
X66939512Y-81096253D01*
X66705260Y-81159021D01*
X66481221Y-81251820D01*
X66481206Y-81251827D01*
X66271190Y-81373080D01*
X66078794Y-81520710D01*
X66078787Y-81520716D01*
X65907316Y-81692187D01*
X65907310Y-81692194D01*
X65759680Y-81884590D01*
X65638427Y-82094606D01*
X65638420Y-82094621D01*
X65545621Y-82318660D01*
X65482853Y-82552912D01*
X65468150Y-82664600D01*
X63683000Y-82664600D01*
X63683000Y-78593311D01*
X65450700Y-78593311D01*
X65450700Y-78835888D01*
X65482361Y-79076385D01*
X65545147Y-79310704D01*
X65633756Y-79524624D01*
X65637976Y-79534812D01*
X65759264Y-79744889D01*
X65759266Y-79744892D01*
X65759267Y-79744893D01*
X65906933Y-79937336D01*
X65906939Y-79937343D01*
X66078456Y-80108860D01*
X66078463Y-80108866D01*
X66191521Y-80195618D01*
X66270911Y-80256536D01*
X66480988Y-80377824D01*
X66705100Y-80470654D01*
X66939411Y-80533438D01*
X67100140Y-80554598D01*
X67179911Y-80565100D01*
X67179912Y-80565100D01*
X68022489Y-80565100D01*
X68102252Y-80554599D01*
X68262989Y-80533438D01*
X68497300Y-80470654D01*
X68721412Y-80377824D01*
X68931489Y-80256536D01*
X69123938Y-80108865D01*
X69295465Y-79937338D01*
X69443136Y-79744889D01*
X69564424Y-79534812D01*
X69657254Y-79310700D01*
X69720038Y-79076389D01*
X69751700Y-78835888D01*
X69751700Y-78593312D01*
X69720038Y-78352811D01*
X69657254Y-78118500D01*
X69564424Y-77894388D01*
X69443136Y-77684311D01*
X69351273Y-77564592D01*
X69351267Y-77564584D01*
X70950700Y-77564584D01*
X70950700Y-79864615D01*
X70961200Y-79967395D01*
X70961201Y-79967396D01*
X71016386Y-80133935D01*
X71016387Y-80133937D01*
X71108486Y-80283251D01*
X71108489Y-80283255D01*
X71232544Y-80407310D01*
X71232548Y-80407313D01*
X71381862Y-80499412D01*
X71381864Y-80499413D01*
X71381866Y-80499414D01*
X71548403Y-80554599D01*
X71651192Y-80565100D01*
X71651197Y-80565100D01*
X74551203Y-80565100D01*
X74551208Y-80565100D01*
X74653997Y-80554599D01*
X74820534Y-80499414D01*
X74969855Y-80407311D01*
X75093911Y-80283255D01*
X75186014Y-80133934D01*
X75241199Y-79967397D01*
X75251700Y-79864608D01*
X75251700Y-78828400D01*
X129033750Y-78828400D01*
X130512679Y-78828400D01*
X130493701Y-78874218D01*
X130466800Y-79009456D01*
X130466800Y-79147344D01*
X130493701Y-79282582D01*
X130512679Y-79328400D01*
X129033750Y-79328400D01*
X129048453Y-79440087D01*
X129111221Y-79674339D01*
X129204020Y-79898378D01*
X129204027Y-79898393D01*
X129325280Y-80108409D01*
X129472910Y-80300805D01*
X129472916Y-80300812D01*
X129644387Y-80472283D01*
X129644394Y-80472289D01*
X129836790Y-80619919D01*
X130046806Y-80741172D01*
X130046821Y-80741179D01*
X130270860Y-80833978D01*
X130505112Y-80896746D01*
X130745535Y-80928398D01*
X130745552Y-80928400D01*
X130916800Y-80928400D01*
X130916800Y-79732520D01*
X130962618Y-79751499D01*
X131097856Y-79778400D01*
X131235744Y-79778400D01*
X131370982Y-79751499D01*
X131416800Y-79732520D01*
X131416800Y-80928400D01*
X131588048Y-80928400D01*
X131588064Y-80928398D01*
X131828487Y-80896746D01*
X132062739Y-80833978D01*
X132286778Y-80741179D01*
X132286793Y-80741172D01*
X132496809Y-80619919D01*
X132689205Y-80472289D01*
X132689212Y-80472283D01*
X132860683Y-80300812D01*
X132860689Y-80300805D01*
X133008319Y-80108409D01*
X133129572Y-79898393D01*
X133129579Y-79898378D01*
X133222378Y-79674339D01*
X133285146Y-79440087D01*
X133299850Y-79328400D01*
X131820921Y-79328400D01*
X131839899Y-79282582D01*
X131866800Y-79147344D01*
X131866800Y-79009456D01*
X131839899Y-78874218D01*
X131820921Y-78828400D01*
X133299849Y-78828400D01*
X134533750Y-78828400D01*
X136012679Y-78828400D01*
X135993701Y-78874218D01*
X135966800Y-79009456D01*
X135966800Y-79147344D01*
X135993701Y-79282582D01*
X136012679Y-79328400D01*
X134533750Y-79328400D01*
X134548453Y-79440087D01*
X134611221Y-79674339D01*
X134704020Y-79898378D01*
X134704027Y-79898393D01*
X134825280Y-80108409D01*
X134972910Y-80300805D01*
X134972916Y-80300812D01*
X135144387Y-80472283D01*
X135144394Y-80472289D01*
X135336790Y-80619919D01*
X135546806Y-80741172D01*
X135546821Y-80741179D01*
X135770860Y-80833978D01*
X136005112Y-80896746D01*
X136245535Y-80928398D01*
X136245552Y-80928400D01*
X136416800Y-80928400D01*
X136416800Y-79732520D01*
X136462618Y-79751499D01*
X136597856Y-79778400D01*
X136735744Y-79778400D01*
X136870982Y-79751499D01*
X136916800Y-79732520D01*
X136916800Y-80928400D01*
X137088048Y-80928400D01*
X137088064Y-80928398D01*
X137328487Y-80896746D01*
X137562739Y-80833978D01*
X137786778Y-80741179D01*
X137786793Y-80741172D01*
X137996809Y-80619919D01*
X138189205Y-80472289D01*
X138189212Y-80472283D01*
X138360683Y-80300812D01*
X138360689Y-80300805D01*
X138508319Y-80108409D01*
X138629572Y-79898393D01*
X138629579Y-79898378D01*
X138722378Y-79674339D01*
X138785146Y-79440087D01*
X138799850Y-79328400D01*
X137320921Y-79328400D01*
X137339899Y-79282582D01*
X137366800Y-79147344D01*
X137366800Y-79009456D01*
X137339899Y-78874218D01*
X137320921Y-78828400D01*
X138799849Y-78828400D01*
X138785146Y-78716712D01*
X138722378Y-78482460D01*
X138629579Y-78258421D01*
X138629572Y-78258406D01*
X138508319Y-78048390D01*
X138360689Y-77855994D01*
X138360683Y-77855987D01*
X138189212Y-77684516D01*
X138189205Y-77684510D01*
X137996809Y-77536880D01*
X137786793Y-77415627D01*
X137786778Y-77415620D01*
X137562739Y-77322821D01*
X137328487Y-77260053D01*
X137088064Y-77228401D01*
X137088048Y-77228400D01*
X136916800Y-77228400D01*
X136916800Y-78424279D01*
X136870982Y-78405301D01*
X136735744Y-78378400D01*
X136597856Y-78378400D01*
X136462618Y-78405301D01*
X136416800Y-78424279D01*
X136416800Y-77228400D01*
X136245552Y-77228400D01*
X136245535Y-77228401D01*
X136005112Y-77260053D01*
X135770860Y-77322821D01*
X135546821Y-77415620D01*
X135546806Y-77415627D01*
X135336790Y-77536880D01*
X135144394Y-77684510D01*
X135144387Y-77684516D01*
X134972916Y-77855987D01*
X134972910Y-77855994D01*
X134825280Y-78048390D01*
X134704027Y-78258406D01*
X134704020Y-78258421D01*
X134611221Y-78482460D01*
X134548453Y-78716712D01*
X134533750Y-78828400D01*
X133299849Y-78828400D01*
X133285146Y-78716712D01*
X133222378Y-78482460D01*
X133129579Y-78258421D01*
X133129572Y-78258406D01*
X133008319Y-78048390D01*
X132860689Y-77855994D01*
X132860683Y-77855987D01*
X132689212Y-77684516D01*
X132689205Y-77684510D01*
X132496809Y-77536880D01*
X132286793Y-77415627D01*
X132286778Y-77415620D01*
X132062739Y-77322821D01*
X131828487Y-77260053D01*
X131588064Y-77228401D01*
X131588048Y-77228400D01*
X131416800Y-77228400D01*
X131416800Y-78424279D01*
X131370982Y-78405301D01*
X131235744Y-78378400D01*
X131097856Y-78378400D01*
X130962618Y-78405301D01*
X130916800Y-78424279D01*
X130916800Y-77228400D01*
X130745552Y-77228400D01*
X130745535Y-77228401D01*
X130505112Y-77260053D01*
X130270860Y-77322821D01*
X130046821Y-77415620D01*
X130046806Y-77415627D01*
X129836790Y-77536880D01*
X129644394Y-77684510D01*
X129644387Y-77684516D01*
X129472916Y-77855987D01*
X129472910Y-77855994D01*
X129325280Y-78048390D01*
X129204027Y-78258406D01*
X129204020Y-78258421D01*
X129111221Y-78482460D01*
X129048453Y-78716712D01*
X129033750Y-78828400D01*
X75251700Y-78828400D01*
X75251700Y-77564592D01*
X75241199Y-77461803D01*
X75186014Y-77295266D01*
X75164294Y-77260053D01*
X75093913Y-77145948D01*
X75093910Y-77145944D01*
X74969855Y-77021889D01*
X74969851Y-77021886D01*
X74820537Y-76929787D01*
X74820535Y-76929786D01*
X74737265Y-76902193D01*
X74653997Y-76874601D01*
X74653995Y-76874600D01*
X74551215Y-76864100D01*
X74551208Y-76864100D01*
X71651192Y-76864100D01*
X71651184Y-76864100D01*
X71548404Y-76874600D01*
X71548403Y-76874601D01*
X71381864Y-76929786D01*
X71381862Y-76929787D01*
X71232548Y-77021886D01*
X71232544Y-77021889D01*
X71108489Y-77145944D01*
X71108486Y-77145948D01*
X71016387Y-77295262D01*
X71016386Y-77295264D01*
X70961201Y-77461803D01*
X70961200Y-77461804D01*
X70950700Y-77564584D01*
X69351267Y-77564584D01*
X69295466Y-77491863D01*
X69295460Y-77491856D01*
X69123943Y-77320339D01*
X69123936Y-77320333D01*
X68931493Y-77172667D01*
X68931492Y-77172666D01*
X68931489Y-77172664D01*
X68721412Y-77051376D01*
X68721405Y-77051373D01*
X68497304Y-76958547D01*
X68262985Y-76895761D01*
X68022489Y-76864100D01*
X68022488Y-76864100D01*
X67179912Y-76864100D01*
X67179911Y-76864100D01*
X66939414Y-76895761D01*
X66705095Y-76958547D01*
X66480994Y-77051373D01*
X66480985Y-77051377D01*
X66270906Y-77172667D01*
X66078463Y-77320333D01*
X66078456Y-77320339D01*
X65906939Y-77491856D01*
X65906933Y-77491863D01*
X65759267Y-77684306D01*
X65637977Y-77894385D01*
X65637973Y-77894394D01*
X65545147Y-78118495D01*
X65482361Y-78352814D01*
X65450700Y-78593311D01*
X63683000Y-78593311D01*
X63683000Y-72985698D01*
X82855632Y-72985698D01*
X82855632Y-72985701D01*
X82875464Y-73212386D01*
X82875466Y-73212397D01*
X82934358Y-73432188D01*
X82934361Y-73432197D01*
X83030531Y-73638432D01*
X83030532Y-73638434D01*
X83161054Y-73824841D01*
X83321958Y-73985745D01*
X83321961Y-73985747D01*
X83508366Y-74116268D01*
X83714604Y-74212439D01*
X83934408Y-74271335D01*
X84096330Y-74285501D01*
X84161098Y-74291168D01*
X84161100Y-74291168D01*
X84161102Y-74291168D01*
X84217773Y-74286209D01*
X84387792Y-74271335D01*
X84607596Y-74212439D01*
X84813834Y-74116268D01*
X85000239Y-73985747D01*
X85161147Y-73824839D01*
X85291668Y-73638434D01*
X85328153Y-73560192D01*
X86668271Y-73560192D01*
X86668271Y-73560207D01*
X86687564Y-73854563D01*
X86687565Y-73854573D01*
X86687566Y-73854580D01*
X86739618Y-74116268D01*
X86745118Y-74143916D01*
X86745121Y-74143930D01*
X86839949Y-74423280D01*
X86970425Y-74687860D01*
X86970429Y-74687867D01*
X87134325Y-74933155D01*
X87328841Y-75154958D01*
X87550643Y-75349473D01*
X87795935Y-75513372D01*
X88060523Y-75643852D01*
X88339878Y-75738681D01*
X88629220Y-75796234D01*
X88657488Y-75798086D01*
X88923593Y-75815529D01*
X88923600Y-75815529D01*
X88923607Y-75815529D01*
X89159275Y-75800081D01*
X89217980Y-75796234D01*
X89507322Y-75738681D01*
X89786677Y-75643852D01*
X90051265Y-75513372D01*
X90296557Y-75349473D01*
X90518358Y-75154958D01*
X90712873Y-74933157D01*
X90876772Y-74687865D01*
X91007252Y-74423277D01*
X91102081Y-74143922D01*
X91159634Y-73854580D01*
X91173801Y-73638434D01*
X91178929Y-73560207D01*
X91178929Y-73560192D01*
X91159635Y-73265836D01*
X91159634Y-73265820D01*
X91103915Y-72985697D01*
X122353134Y-72985697D01*
X122353134Y-72985702D01*
X122372958Y-73212299D01*
X122372960Y-73212310D01*
X122431830Y-73432017D01*
X122431835Y-73432031D01*
X122527963Y-73638178D01*
X122579074Y-73711172D01*
X123258100Y-73032146D01*
X123258100Y-73038361D01*
X123285359Y-73140094D01*
X123338020Y-73231306D01*
X123412494Y-73305780D01*
X123503706Y-73358441D01*
X123605439Y-73385700D01*
X123611653Y-73385700D01*
X122932626Y-74064725D01*
X123005613Y-74115832D01*
X123005621Y-74115836D01*
X123211768Y-74211964D01*
X123211782Y-74211969D01*
X123431489Y-74270839D01*
X123431500Y-74270841D01*
X123658098Y-74290666D01*
X123658102Y-74290666D01*
X123884699Y-74270841D01*
X123884710Y-74270839D01*
X124104417Y-74211969D01*
X124104431Y-74211964D01*
X124310578Y-74115836D01*
X124383571Y-74064724D01*
X123704547Y-73385700D01*
X123710761Y-73385700D01*
X123812494Y-73358441D01*
X123903706Y-73305780D01*
X123978180Y-73231306D01*
X124030841Y-73140094D01*
X124058100Y-73038361D01*
X124058100Y-73032147D01*
X124737124Y-73711171D01*
X124788236Y-73638178D01*
X124884364Y-73432031D01*
X124884369Y-73432017D01*
X124943239Y-73212310D01*
X124943241Y-73212299D01*
X124963066Y-72985702D01*
X124963066Y-72985697D01*
X124943241Y-72759100D01*
X124943239Y-72759089D01*
X124884369Y-72539382D01*
X124884364Y-72539368D01*
X124788236Y-72333221D01*
X124788232Y-72333213D01*
X124737125Y-72260226D01*
X124058100Y-72939251D01*
X124058100Y-72933039D01*
X124030841Y-72831306D01*
X123978180Y-72740094D01*
X123903706Y-72665620D01*
X123812494Y-72612959D01*
X123710761Y-72585700D01*
X123704545Y-72585700D01*
X124383572Y-71906674D01*
X124310578Y-71855563D01*
X124104431Y-71759435D01*
X124104417Y-71759430D01*
X123884710Y-71700560D01*
X123884699Y-71700558D01*
X123658102Y-71680734D01*
X123658098Y-71680734D01*
X123431500Y-71700558D01*
X123431489Y-71700560D01*
X123211782Y-71759430D01*
X123211773Y-71759434D01*
X123005616Y-71855566D01*
X123005612Y-71855568D01*
X122932626Y-71906673D01*
X122932626Y-71906674D01*
X123611653Y-72585700D01*
X123605439Y-72585700D01*
X123503706Y-72612959D01*
X123412494Y-72665620D01*
X123338020Y-72740094D01*
X123285359Y-72831306D01*
X123258100Y-72933039D01*
X123258100Y-72939252D01*
X122579074Y-72260226D01*
X122579073Y-72260226D01*
X122527968Y-72333212D01*
X122527966Y-72333216D01*
X122431834Y-72539373D01*
X122431830Y-72539382D01*
X122372960Y-72759089D01*
X122372958Y-72759100D01*
X122353134Y-72985697D01*
X91103915Y-72985697D01*
X91102081Y-72976478D01*
X91007252Y-72697123D01*
X90876772Y-72432536D01*
X90712873Y-72187243D01*
X90536083Y-71985653D01*
X90518358Y-71965441D01*
X90296555Y-71770925D01*
X90051267Y-71607029D01*
X90051260Y-71607025D01*
X89786680Y-71476549D01*
X89507330Y-71381721D01*
X89507324Y-71381719D01*
X89507322Y-71381719D01*
X89217980Y-71324166D01*
X89217973Y-71324165D01*
X89217963Y-71324164D01*
X88923607Y-71304871D01*
X88923593Y-71304871D01*
X88629236Y-71324164D01*
X88629224Y-71324165D01*
X88629220Y-71324166D01*
X88629212Y-71324167D01*
X88629209Y-71324168D01*
X88339883Y-71381718D01*
X88339869Y-71381721D01*
X88060519Y-71476549D01*
X87795934Y-71607028D01*
X87550641Y-71770928D01*
X87328841Y-71965441D01*
X87134328Y-72187241D01*
X86970428Y-72432534D01*
X86839949Y-72697119D01*
X86745121Y-72976469D01*
X86745118Y-72976483D01*
X86687568Y-73265809D01*
X86687564Y-73265836D01*
X86668271Y-73560192D01*
X85328153Y-73560192D01*
X85387839Y-73432196D01*
X85446735Y-73212392D01*
X85466568Y-72985700D01*
X85465760Y-72976469D01*
X85446735Y-72759013D01*
X85446735Y-72759008D01*
X85387839Y-72539204D01*
X85291668Y-72332966D01*
X85161147Y-72146561D01*
X85161145Y-72146558D01*
X85000241Y-71985654D01*
X84813834Y-71855132D01*
X84813832Y-71855131D01*
X84607597Y-71758961D01*
X84607588Y-71758958D01*
X84387797Y-71700066D01*
X84387793Y-71700065D01*
X84387792Y-71700065D01*
X84387791Y-71700064D01*
X84387786Y-71700064D01*
X84161102Y-71680232D01*
X84161098Y-71680232D01*
X83934413Y-71700064D01*
X83934402Y-71700066D01*
X83714611Y-71758958D01*
X83714602Y-71758961D01*
X83508367Y-71855131D01*
X83508365Y-71855132D01*
X83321958Y-71985654D01*
X83161054Y-72146558D01*
X83030532Y-72332965D01*
X83030531Y-72332967D01*
X82934361Y-72539202D01*
X82934358Y-72539211D01*
X82875466Y-72759002D01*
X82875464Y-72759013D01*
X82855632Y-72985698D01*
X63683000Y-72985698D01*
X63683000Y-66368999D01*
X130379559Y-66368999D01*
X130379559Y-66369000D01*
X130399310Y-66745872D01*
X130458346Y-67118607D01*
X130458347Y-67118614D01*
X130556023Y-67483147D01*
X130691267Y-67835468D01*
X130862599Y-68171725D01*
X131068135Y-68488223D01*
X131068137Y-68488225D01*
X131305635Y-68781511D01*
X131572489Y-69048365D01*
X131572493Y-69048368D01*
X131865776Y-69285864D01*
X132182274Y-69491400D01*
X132182279Y-69491403D01*
X132518535Y-69662734D01*
X132870857Y-69797978D01*
X133235387Y-69895653D01*
X133608129Y-69954690D01*
X133964155Y-69973348D01*
X133984999Y-69974441D01*
X133985000Y-69974441D01*
X133985001Y-69974441D01*
X134004752Y-69973405D01*
X134361871Y-69954690D01*
X134734613Y-69895653D01*
X135099143Y-69797978D01*
X135451465Y-69662734D01*
X135787721Y-69491403D01*
X136104225Y-69285863D01*
X136397511Y-69048365D01*
X136664365Y-68781511D01*
X136901863Y-68488225D01*
X137107403Y-68171721D01*
X137278734Y-67835465D01*
X137413978Y-67483143D01*
X137511653Y-67118613D01*
X137570690Y-66745871D01*
X137590441Y-66369000D01*
X137570690Y-65992129D01*
X137511653Y-65619387D01*
X137413978Y-65254857D01*
X137278734Y-64902535D01*
X137107403Y-64566280D01*
X136901863Y-64249775D01*
X136664365Y-63956489D01*
X136397511Y-63689635D01*
X136288797Y-63601600D01*
X136104223Y-63452135D01*
X135787725Y-63246599D01*
X135451468Y-63075267D01*
X135099147Y-62940023D01*
X134734614Y-62842347D01*
X134734607Y-62842346D01*
X134361872Y-62783310D01*
X133985001Y-62763559D01*
X133984999Y-62763559D01*
X133608127Y-62783310D01*
X133235392Y-62842346D01*
X133235385Y-62842347D01*
X132870852Y-62940023D01*
X132518531Y-63075267D01*
X132182275Y-63246599D01*
X131865776Y-63452135D01*
X131572493Y-63689631D01*
X131572485Y-63689638D01*
X131305638Y-63956485D01*
X131305631Y-63956493D01*
X131068135Y-64249776D01*
X130862599Y-64566275D01*
X130691267Y-64902531D01*
X130556023Y-65254852D01*
X130458347Y-65619385D01*
X130458346Y-65619392D01*
X130399310Y-65992127D01*
X130379559Y-66368999D01*
X63683000Y-66368999D01*
X63683000Y-63601595D01*
X81613237Y-63601595D01*
X81613237Y-63601604D01*
X81633060Y-63866135D01*
X81633061Y-63866140D01*
X81692090Y-64124766D01*
X81692096Y-64124785D01*
X81789014Y-64371728D01*
X81789013Y-64371728D01*
X81921656Y-64601471D01*
X81971841Y-64664403D01*
X82905236Y-63731007D01*
X82922275Y-63794593D01*
X82988101Y-63908607D01*
X83081193Y-64001699D01*
X83195207Y-64067525D01*
X83258791Y-64084562D01*
X82324638Y-65018713D01*
X82500718Y-65138762D01*
X82500726Y-65138767D01*
X82739730Y-65253864D01*
X82739728Y-65253864D01*
X82993225Y-65332058D01*
X82993231Y-65332059D01*
X83255551Y-65371599D01*
X83255558Y-65371600D01*
X83520842Y-65371600D01*
X83520848Y-65371599D01*
X83783168Y-65332059D01*
X83783174Y-65332058D01*
X84036670Y-65253864D01*
X84275674Y-65138767D01*
X84275684Y-65138760D01*
X84451760Y-65018713D01*
X83517608Y-64084562D01*
X83581193Y-64067525D01*
X83695207Y-64001699D01*
X83788299Y-63908607D01*
X83854125Y-63794593D01*
X83871162Y-63731008D01*
X84804557Y-64664403D01*
X84854742Y-64601471D01*
X84987385Y-64371728D01*
X85084303Y-64124785D01*
X85084309Y-64124766D01*
X85143338Y-63866140D01*
X85143339Y-63866135D01*
X85163163Y-63601604D01*
X85163163Y-63601595D01*
X122253237Y-63601595D01*
X122253237Y-63601604D01*
X122273060Y-63866135D01*
X122273061Y-63866140D01*
X122332090Y-64124766D01*
X122332096Y-64124785D01*
X122429014Y-64371728D01*
X122429013Y-64371728D01*
X122561656Y-64601471D01*
X122611841Y-64664403D01*
X123545237Y-63731008D01*
X123562275Y-63794593D01*
X123628101Y-63908607D01*
X123721193Y-64001699D01*
X123835207Y-64067525D01*
X123898791Y-64084562D01*
X122964638Y-65018713D01*
X123140718Y-65138762D01*
X123140726Y-65138767D01*
X123379730Y-65253864D01*
X123379728Y-65253864D01*
X123633225Y-65332058D01*
X123633231Y-65332059D01*
X123895551Y-65371599D01*
X123895558Y-65371600D01*
X124160842Y-65371600D01*
X124160848Y-65371599D01*
X124423168Y-65332059D01*
X124423174Y-65332058D01*
X124676670Y-65253864D01*
X124915674Y-65138767D01*
X124915684Y-65138760D01*
X125091760Y-65018713D01*
X124157608Y-64084562D01*
X124221193Y-64067525D01*
X124335207Y-64001699D01*
X124428299Y-63908607D01*
X124494125Y-63794593D01*
X124511162Y-63731008D01*
X125444557Y-64664403D01*
X125494742Y-64601471D01*
X125627385Y-64371728D01*
X125724303Y-64124785D01*
X125724309Y-64124766D01*
X125783338Y-63866140D01*
X125783339Y-63866135D01*
X125803163Y-63601604D01*
X125803163Y-63601595D01*
X125783339Y-63337064D01*
X125783338Y-63337059D01*
X125724309Y-63078433D01*
X125724303Y-63078414D01*
X125627385Y-62831471D01*
X125627386Y-62831471D01*
X125494743Y-62601728D01*
X125444556Y-62538796D01*
X124511162Y-63472190D01*
X124494125Y-63408607D01*
X124428299Y-63294593D01*
X124335207Y-63201501D01*
X124221193Y-63135675D01*
X124157609Y-63118637D01*
X125091760Y-62184485D01*
X124915675Y-62064433D01*
X124915674Y-62064432D01*
X124676669Y-61949335D01*
X124676671Y-61949335D01*
X124423174Y-61871141D01*
X124423168Y-61871140D01*
X124160848Y-61831600D01*
X123895551Y-61831600D01*
X123633231Y-61871140D01*
X123633225Y-61871141D01*
X123379729Y-61949335D01*
X123140724Y-62064434D01*
X123140711Y-62064441D01*
X122964638Y-62184484D01*
X123898791Y-63118637D01*
X123835207Y-63135675D01*
X123721193Y-63201501D01*
X123628101Y-63294593D01*
X123562275Y-63408607D01*
X123545237Y-63472190D01*
X122611842Y-62538796D01*
X122561657Y-62601727D01*
X122429014Y-62831471D01*
X122332096Y-63078414D01*
X122332090Y-63078433D01*
X122273061Y-63337059D01*
X122273060Y-63337064D01*
X122253237Y-63601595D01*
X85163163Y-63601595D01*
X85143339Y-63337064D01*
X85143338Y-63337059D01*
X85084309Y-63078433D01*
X85084303Y-63078414D01*
X84987385Y-62831471D01*
X84987386Y-62831471D01*
X84854743Y-62601728D01*
X84804556Y-62538796D01*
X83871162Y-63472190D01*
X83854125Y-63408607D01*
X83788299Y-63294593D01*
X83695207Y-63201501D01*
X83581193Y-63135675D01*
X83517609Y-63118637D01*
X84451760Y-62184485D01*
X84275675Y-62064433D01*
X84275674Y-62064432D01*
X84036669Y-61949335D01*
X84036671Y-61949335D01*
X83783174Y-61871141D01*
X83783168Y-61871140D01*
X83520848Y-61831600D01*
X83255551Y-61831600D01*
X82993231Y-61871140D01*
X82993225Y-61871141D01*
X82739729Y-61949335D01*
X82500724Y-62064434D01*
X82500711Y-62064441D01*
X82324638Y-62184484D01*
X83258791Y-63118637D01*
X83195207Y-63135675D01*
X83081193Y-63201501D01*
X82988101Y-63294593D01*
X82922275Y-63408607D01*
X82905237Y-63472191D01*
X81971842Y-62538796D01*
X81921657Y-62601727D01*
X81789014Y-62831471D01*
X81692096Y-63078414D01*
X81692090Y-63078433D01*
X81633061Y-63337059D01*
X81633060Y-63337064D01*
X81613237Y-63601595D01*
X63683000Y-63601595D01*
X63683000Y-51257199D01*
X68249959Y-51257199D01*
X68249959Y-51257200D01*
X68269710Y-51634072D01*
X68328746Y-52006807D01*
X68328747Y-52006814D01*
X68426423Y-52371347D01*
X68561667Y-52723668D01*
X68732999Y-53059925D01*
X68938535Y-53376423D01*
X69005881Y-53459588D01*
X69176035Y-53669711D01*
X69442889Y-53936565D01*
X69442893Y-53936568D01*
X69736176Y-54174064D01*
X69792831Y-54210856D01*
X70052679Y-54379603D01*
X70388935Y-54550934D01*
X70741257Y-54686178D01*
X71105787Y-54783853D01*
X71478529Y-54842890D01*
X71834555Y-54861548D01*
X71855399Y-54862641D01*
X71855400Y-54862641D01*
X71855401Y-54862641D01*
X71875152Y-54861605D01*
X72232271Y-54842890D01*
X72605013Y-54783853D01*
X72969543Y-54686178D01*
X73321865Y-54550934D01*
X73658121Y-54379603D01*
X73974625Y-54174063D01*
X74267911Y-53936565D01*
X74534765Y-53669711D01*
X74772263Y-53376425D01*
X74932414Y-53129814D01*
X129347000Y-53129814D01*
X129347000Y-54029800D01*
X130842879Y-54029800D01*
X130823901Y-54075618D01*
X130797000Y-54210856D01*
X130797000Y-54348744D01*
X130823901Y-54483982D01*
X130842879Y-54529800D01*
X129347000Y-54529800D01*
X129347000Y-55429785D01*
X129357493Y-55532489D01*
X129357494Y-55532496D01*
X129412641Y-55698918D01*
X129412643Y-55698923D01*
X129504684Y-55848144D01*
X129628655Y-55972115D01*
X129777876Y-56064156D01*
X129777881Y-56064158D01*
X129944303Y-56119305D01*
X129944310Y-56119306D01*
X130047014Y-56129799D01*
X130047027Y-56129800D01*
X131247000Y-56129800D01*
X131247000Y-54933920D01*
X131292818Y-54952899D01*
X131428056Y-54979800D01*
X131565944Y-54979800D01*
X131701182Y-54952899D01*
X131747000Y-54933920D01*
X131747000Y-56129800D01*
X132946973Y-56129800D01*
X132946985Y-56129799D01*
X133049689Y-56119306D01*
X133049696Y-56119305D01*
X133216118Y-56064158D01*
X133216123Y-56064156D01*
X133365344Y-55972115D01*
X133489315Y-55848144D01*
X133581356Y-55698923D01*
X133581358Y-55698918D01*
X133636505Y-55532496D01*
X133636506Y-55532489D01*
X133646999Y-55429785D01*
X133647000Y-55429772D01*
X133647000Y-54529800D01*
X132151121Y-54529800D01*
X132170099Y-54483982D01*
X132197000Y-54348744D01*
X132197000Y-54210856D01*
X132186588Y-54158512D01*
X134846500Y-54158512D01*
X134846500Y-54401088D01*
X134878162Y-54641589D01*
X134909554Y-54758744D01*
X134940947Y-54875904D01*
X135033773Y-55100005D01*
X135033776Y-55100012D01*
X135155064Y-55310089D01*
X135155066Y-55310092D01*
X135155067Y-55310093D01*
X135302733Y-55502536D01*
X135302739Y-55502543D01*
X135474256Y-55674060D01*
X135474263Y-55674066D01*
X135587321Y-55760818D01*
X135666711Y-55821736D01*
X135876788Y-55943024D01*
X136100900Y-56035854D01*
X136335211Y-56098638D01*
X136492203Y-56119306D01*
X136575711Y-56130300D01*
X136575712Y-56130300D01*
X137418289Y-56130300D01*
X137466388Y-56123967D01*
X137658789Y-56098638D01*
X137893100Y-56035854D01*
X138117212Y-55943024D01*
X138327289Y-55821736D01*
X138519738Y-55674065D01*
X138691265Y-55502538D01*
X138838936Y-55310089D01*
X138960224Y-55100012D01*
X139053054Y-54875900D01*
X139115838Y-54641589D01*
X139147500Y-54401088D01*
X139147500Y-54158512D01*
X139115838Y-53918011D01*
X139053054Y-53683700D01*
X138960224Y-53459588D01*
X138838936Y-53249511D01*
X138778018Y-53170121D01*
X138691266Y-53057063D01*
X138691260Y-53057056D01*
X138519743Y-52885539D01*
X138519736Y-52885533D01*
X138327293Y-52737867D01*
X138327292Y-52737866D01*
X138327289Y-52737864D01*
X138117212Y-52616576D01*
X138046978Y-52587484D01*
X137893104Y-52523747D01*
X137658785Y-52460961D01*
X137418289Y-52429300D01*
X137418288Y-52429300D01*
X136575712Y-52429300D01*
X136575711Y-52429300D01*
X136335214Y-52460961D01*
X136100895Y-52523747D01*
X135876794Y-52616573D01*
X135876785Y-52616577D01*
X135666706Y-52737867D01*
X135474263Y-52885533D01*
X135474256Y-52885539D01*
X135302739Y-53057056D01*
X135302733Y-53057063D01*
X135155067Y-53249506D01*
X135033777Y-53459585D01*
X135033773Y-53459594D01*
X134940947Y-53683695D01*
X134878161Y-53918014D01*
X134874184Y-53948226D01*
X134846500Y-54158512D01*
X132186588Y-54158512D01*
X132170099Y-54075618D01*
X132151121Y-54029800D01*
X133647000Y-54029800D01*
X133647000Y-53129827D01*
X133646999Y-53129814D01*
X133636506Y-53027110D01*
X133636505Y-53027103D01*
X133581358Y-52860681D01*
X133581356Y-52860676D01*
X133489315Y-52711455D01*
X133365344Y-52587484D01*
X133216123Y-52495443D01*
X133216118Y-52495441D01*
X133049696Y-52440294D01*
X133049689Y-52440293D01*
X132946985Y-52429800D01*
X131747000Y-52429800D01*
X131747000Y-53625679D01*
X131701182Y-53606701D01*
X131565944Y-53579800D01*
X131428056Y-53579800D01*
X131292818Y-53606701D01*
X131247000Y-53625679D01*
X131247000Y-52429800D01*
X130047014Y-52429800D01*
X129944310Y-52440293D01*
X129944303Y-52440294D01*
X129777881Y-52495441D01*
X129777876Y-52495443D01*
X129628655Y-52587484D01*
X129504684Y-52711455D01*
X129412643Y-52860676D01*
X129412641Y-52860681D01*
X129357494Y-53027103D01*
X129357493Y-53027110D01*
X129347000Y-53129814D01*
X74932414Y-53129814D01*
X74977803Y-53059921D01*
X75149134Y-52723665D01*
X75284378Y-52371343D01*
X75382053Y-52006813D01*
X75441090Y-51634071D01*
X75460841Y-51257200D01*
X75441090Y-50880329D01*
X75382053Y-50507587D01*
X75284378Y-50143057D01*
X75149134Y-49790735D01*
X74977803Y-49454480D01*
X74772263Y-49137975D01*
X74534765Y-48844689D01*
X74267911Y-48577835D01*
X73974625Y-48340337D01*
X73974623Y-48340335D01*
X73658125Y-48134799D01*
X73321868Y-47963467D01*
X72969547Y-47828223D01*
X72605014Y-47730547D01*
X72605007Y-47730546D01*
X72232272Y-47671510D01*
X71855401Y-47651759D01*
X71855399Y-47651759D01*
X71478527Y-47671510D01*
X71105792Y-47730546D01*
X71105785Y-47730547D01*
X70741252Y-47828223D01*
X70388931Y-47963467D01*
X70052675Y-48134799D01*
X69736176Y-48340335D01*
X69442893Y-48577831D01*
X69442885Y-48577838D01*
X69176038Y-48844685D01*
X69176031Y-48844693D01*
X68938535Y-49137976D01*
X68732999Y-49454475D01*
X68561667Y-49790731D01*
X68426423Y-50143052D01*
X68328747Y-50507585D01*
X68328746Y-50507592D01*
X68269710Y-50880327D01*
X68249959Y-51257199D01*
X63683000Y-51257199D01*
X63683000Y-44503735D01*
X81617700Y-44503735D01*
X81617700Y-47139470D01*
X81617701Y-47139476D01*
X81624108Y-47199083D01*
X81674402Y-47333928D01*
X81674406Y-47333935D01*
X81760652Y-47449144D01*
X81760655Y-47449147D01*
X81875864Y-47535393D01*
X81875871Y-47535397D01*
X82010717Y-47585691D01*
X82010716Y-47585691D01*
X82017644Y-47586435D01*
X82070327Y-47592100D01*
X84706072Y-47592099D01*
X84765683Y-47585691D01*
X84900531Y-47535396D01*
X85015746Y-47449146D01*
X85101996Y-47333931D01*
X85152291Y-47199083D01*
X85158700Y-47139473D01*
X85158699Y-45821595D01*
X122252735Y-45821595D01*
X122252735Y-45821604D01*
X122272563Y-46086209D01*
X122272564Y-46086214D01*
X122331610Y-46344913D01*
X122331612Y-46344922D01*
X122331614Y-46344927D01*
X122428561Y-46591945D01*
X122561242Y-46821755D01*
X122726692Y-47029223D01*
X122921216Y-47209714D01*
X123140468Y-47359198D01*
X123379550Y-47474334D01*
X123633122Y-47552550D01*
X123633123Y-47552550D01*
X123633126Y-47552551D01*
X123895511Y-47592099D01*
X123895516Y-47592099D01*
X123895519Y-47592100D01*
X123895520Y-47592100D01*
X124160880Y-47592100D01*
X124160881Y-47592100D01*
X124160888Y-47592099D01*
X124423273Y-47552551D01*
X124423274Y-47552550D01*
X124423278Y-47552550D01*
X124676850Y-47474334D01*
X124915933Y-47359198D01*
X125135184Y-47209714D01*
X125329708Y-47029223D01*
X125495158Y-46821755D01*
X125627839Y-46591945D01*
X125724786Y-46344927D01*
X125783835Y-46086219D01*
X125803665Y-45821600D01*
X125783835Y-45556981D01*
X125724786Y-45298273D01*
X125627839Y-45051255D01*
X125495158Y-44821445D01*
X125329708Y-44613977D01*
X125135184Y-44433486D01*
X124915933Y-44284002D01*
X124915932Y-44284001D01*
X124915925Y-44283997D01*
X124676855Y-44168868D01*
X124676836Y-44168861D01*
X124423283Y-44090651D01*
X124423273Y-44090648D01*
X124160888Y-44051100D01*
X124160881Y-44051100D01*
X123895519Y-44051100D01*
X123895511Y-44051100D01*
X123633126Y-44090648D01*
X123633116Y-44090651D01*
X123379563Y-44168861D01*
X123379544Y-44168868D01*
X123140476Y-44283997D01*
X123140474Y-44283998D01*
X122921215Y-44433486D01*
X122726694Y-44613975D01*
X122726692Y-44613977D01*
X122561242Y-44821445D01*
X122428561Y-45051254D01*
X122331616Y-45298267D01*
X122331610Y-45298286D01*
X122272564Y-45556985D01*
X122272563Y-45556990D01*
X122252735Y-45821595D01*
X85158699Y-45821595D01*
X85158699Y-44503728D01*
X85152291Y-44444117D01*
X85101996Y-44309269D01*
X85101995Y-44309268D01*
X85101993Y-44309264D01*
X85015747Y-44194055D01*
X85015744Y-44194052D01*
X84900535Y-44107806D01*
X84900528Y-44107802D01*
X84765682Y-44057508D01*
X84765683Y-44057508D01*
X84706083Y-44051101D01*
X84706081Y-44051100D01*
X84706073Y-44051100D01*
X84706064Y-44051100D01*
X82070329Y-44051100D01*
X82070323Y-44051101D01*
X82010716Y-44057508D01*
X81875871Y-44107802D01*
X81875864Y-44107806D01*
X81760655Y-44194052D01*
X81760652Y-44194055D01*
X81674406Y-44309264D01*
X81674402Y-44309271D01*
X81624108Y-44444117D01*
X81617701Y-44503716D01*
X81617701Y-44503723D01*
X81617700Y-44503735D01*
X63683000Y-44503735D01*
X63683000Y-43728300D01*
X63702685Y-43661261D01*
X63755489Y-43615506D01*
X63807000Y-43604300D01*
X140358200Y-43604300D01*
X140425239Y-43623985D01*
G37*
%TD.AperFunction*%
%TD*%
M02*
