%TF.GenerationSoftware,KiCad,Pcbnew,8.0.9-8.0.9-0~ubuntu20.04.1*%
%TF.CreationDate,2025-10-08T18:06:46-03:00*%
%TF.ProjectId,power board,706f7765-7220-4626-9f61-72642e6b6963,rev?*%
%TF.SameCoordinates,Original*%
%TF.FileFunction,Copper,L1,Top*%
%TF.FilePolarity,Positive*%
%FSLAX46Y46*%
G04 Gerber Fmt 4.6, Leading zero omitted, Abs format (unit mm)*
G04 Created by KiCad (PCBNEW 8.0.9-8.0.9-0~ubuntu20.04.1) date 2025-10-08 18:06:46*
%MOMM*%
%LPD*%
G01*
G04 APERTURE LIST*
G04 Aperture macros list*
%AMRoundRect*
0 Rectangle with rounded corners*
0 $1 Rounding radius*
0 $2 $3 $4 $5 $6 $7 $8 $9 X,Y pos of 4 corners*
0 Add a 4 corners polygon primitive as box body*
4,1,4,$2,$3,$4,$5,$6,$7,$8,$9,$2,$3,0*
0 Add four circle primitives for the rounded corners*
1,1,$1+$1,$2,$3*
1,1,$1+$1,$4,$5*
1,1,$1+$1,$6,$7*
1,1,$1+$1,$8,$9*
0 Add four rect primitives between the rounded corners*
20,1,$1+$1,$2,$3,$4,$5,0*
20,1,$1+$1,$4,$5,$6,$7,0*
20,1,$1+$1,$6,$7,$8,$9,0*
20,1,$1+$1,$8,$9,$2,$3,0*%
G04 Aperture macros list end*
%TA.AperFunction,ComponentPad*%
%ADD10RoundRect,0.250001X1.399999X-1.099999X1.399999X1.099999X-1.399999X1.099999X-1.399999X-1.099999X0*%
%TD*%
%TA.AperFunction,ComponentPad*%
%ADD11O,3.300000X2.700000*%
%TD*%
%TA.AperFunction,SMDPad,CuDef*%
%ADD12RoundRect,0.250000X0.475000X-0.337500X0.475000X0.337500X-0.475000X0.337500X-0.475000X-0.337500X0*%
%TD*%
%TA.AperFunction,ComponentPad*%
%ADD13RoundRect,0.250001X-1.399999X1.099999X-1.399999X-1.099999X1.399999X-1.099999X1.399999X1.099999X0*%
%TD*%
%TA.AperFunction,SMDPad,CuDef*%
%ADD14R,2.000000X4.000000*%
%TD*%
%TA.AperFunction,WasherPad*%
%ADD15C,3.500000*%
%TD*%
%TA.AperFunction,ComponentPad*%
%ADD16C,1.600000*%
%TD*%
%TA.AperFunction,SMDPad,CuDef*%
%ADD17RoundRect,0.250000X-1.000000X1.950000X-1.000000X-1.950000X1.000000X-1.950000X1.000000X1.950000X0*%
%TD*%
%TA.AperFunction,SMDPad,CuDef*%
%ADD18RoundRect,0.250000X-0.475000X0.337500X-0.475000X-0.337500X0.475000X-0.337500X0.475000X0.337500X0*%
%TD*%
%TA.AperFunction,SMDPad,CuDef*%
%ADD19RoundRect,0.250000X-0.450000X0.350000X-0.450000X-0.350000X0.450000X-0.350000X0.450000X0.350000X0*%
%TD*%
%TA.AperFunction,SMDPad,CuDef*%
%ADD20RoundRect,0.250000X0.450000X-0.325000X0.450000X0.325000X-0.450000X0.325000X-0.450000X-0.325000X0*%
%TD*%
%TA.AperFunction,SMDPad,CuDef*%
%ADD21RoundRect,0.250000X0.300000X-2.050000X0.300000X2.050000X-0.300000X2.050000X-0.300000X-2.050000X0*%
%TD*%
%TA.AperFunction,SMDPad,CuDef*%
%ADD22RoundRect,0.250000X2.375000X-2.025000X2.375000X2.025000X-2.375000X2.025000X-2.375000X-2.025000X0*%
%TD*%
%TA.AperFunction,SMDPad,CuDef*%
%ADD23RoundRect,0.250002X5.149998X-4.449998X5.149998X4.449998X-5.149998X4.449998X-5.149998X-4.449998X0*%
%TD*%
%TA.AperFunction,ComponentPad*%
%ADD24R,2.540000X2.540000*%
%TD*%
%TA.AperFunction,ComponentPad*%
%ADD25C,2.540000*%
%TD*%
%TA.AperFunction,SMDPad,CuDef*%
%ADD26RoundRect,0.250000X-0.325000X-0.450000X0.325000X-0.450000X0.325000X0.450000X-0.325000X0.450000X0*%
%TD*%
%TA.AperFunction,SMDPad,CuDef*%
%ADD27RoundRect,0.250000X0.450000X-0.350000X0.450000X0.350000X-0.450000X0.350000X-0.450000X-0.350000X0*%
%TD*%
%TA.AperFunction,ViaPad*%
%ADD28C,0.600000*%
%TD*%
%TA.AperFunction,Conductor*%
%ADD29C,1.000000*%
%TD*%
G04 APERTURE END LIST*
D10*
%TO.P,J4,1,Pin_1*%
%TO.N,GND*%
X131497000Y-54279800D03*
D11*
%TO.P,J4,2,Pin_2*%
%TO.N,5V*%
X136997000Y-54279800D03*
%TD*%
D12*
%TO.P,C5,1*%
%TO.N,Net-(U3-SW)*%
X108534200Y-100642000D03*
%TO.P,C5,2*%
%TO.N,Net-(D1-A)*%
X108534200Y-98567000D03*
%TD*%
D13*
%TO.P,J1,1,Pin_1*%
%TO.N,+12V*%
X73101200Y-78714600D03*
D11*
%TO.P,J1,2,Pin_2*%
%TO.N,GND*%
X73101200Y-82914600D03*
%TO.P,J1,3,Pin_3*%
%TO.N,+12V*%
X67601200Y-78714600D03*
%TO.P,J1,4,Pin_4*%
%TO.N,GND*%
X67601200Y-82914600D03*
%TD*%
D14*
%TO.P,L2,1,1*%
%TO.N,+12V*%
X84663400Y-105223200D03*
%TO.P,L2,2,2*%
%TO.N,GND*%
X88163400Y-105223200D03*
%TO.P,L2,3,3*%
%TO.N,Net-(U3-SW)*%
X88163400Y-96723200D03*
%TO.P,L2,4,4*%
%TO.N,Net-(D1-A)*%
X84663400Y-96723200D03*
%TD*%
D15*
%TO.P,U2,*%
%TO.N,*%
X88923600Y-73560200D03*
X118895600Y-89562200D03*
D16*
%TO.P,U2,1,Vin*%
%TO.N,+12V*%
X84161100Y-72985700D03*
%TO.P,U2,2,GND*%
%TO.N,GND*%
X84161100Y-90133700D03*
%TO.P,U2,3,Vout*%
%TO.N,15V*%
X123658100Y-90133700D03*
%TO.P,U2,4,GND*%
%TO.N,GND*%
X123658100Y-72985700D03*
%TD*%
D17*
%TO.P,C3,1*%
%TO.N,+15V_sym*%
X118922800Y-99301100D03*
%TO.P,C3,2*%
%TO.N,GND*%
X118922800Y-107701100D03*
%TD*%
D18*
%TO.P,C1,1*%
%TO.N,+12V*%
X86715600Y-115421500D03*
%TO.P,C1,2*%
%TO.N,GND*%
X86715600Y-117496500D03*
%TD*%
D12*
%TO.P,C6,1*%
%TO.N,-15V_sym*%
X109804200Y-117340200D03*
%TO.P,C6,2*%
%TO.N,GND*%
X109804200Y-115265200D03*
%TD*%
D10*
%TO.P,J3,1,Pin_1*%
%TO.N,15V*%
X131166800Y-83278400D03*
D11*
%TO.P,J3,2,Pin_2*%
%TO.N,GND*%
X131166800Y-79078400D03*
%TO.P,J3,3,Pin_3*%
%TO.N,15V*%
X136666800Y-83278400D03*
%TO.P,J3,4,Pin_4*%
%TO.N,GND*%
X136666800Y-79078400D03*
%TD*%
D19*
%TO.P,R2,1*%
%TO.N,Net-(R2-Pad1)*%
X108518200Y-107736400D03*
%TO.P,R2,2*%
%TO.N,Net-(U3-FB)*%
X108518200Y-109736400D03*
%TD*%
%TO.P,R3,1*%
%TO.N,+15V_sym*%
X108483400Y-102542500D03*
%TO.P,R3,2*%
%TO.N,Net-(R2-Pad1)*%
X108483400Y-104542500D03*
%TD*%
D20*
%TO.P,D1,1,K*%
%TO.N,+15V_sym*%
X110744000Y-100613100D03*
%TO.P,D1,2,A*%
%TO.N,Net-(D1-A)*%
X110744000Y-98563100D03*
%TD*%
D14*
%TO.P,L1,1,1*%
%TO.N,+12V*%
X96296600Y-123384200D03*
%TO.P,L1,2,2*%
%TO.N,-15V_sym*%
X99796600Y-123384200D03*
%TO.P,L1,3,3*%
%TO.N,Net-(U3-SW)*%
X99796600Y-114884200D03*
%TO.P,L1,4,4*%
%TO.N,Net-(D2-A)*%
X96296600Y-114884200D03*
%TD*%
D10*
%TO.P,J2,1,Pin_1*%
%TO.N,-15V_sym*%
X130658800Y-114029600D03*
D11*
%TO.P,J2,2,Pin_2*%
%TO.N,GND*%
X130658800Y-109829600D03*
%TO.P,J2,3,Pin_3*%
%TO.N,+15V_sym*%
X130658800Y-105629600D03*
%TO.P,J2,4,Pin_4*%
%TO.N,-15V_sym*%
X136158800Y-114029600D03*
%TO.P,J2,5,Pin_5*%
%TO.N,GND*%
X136158800Y-109829600D03*
%TO.P,J2,6,Pin_6*%
%TO.N,+15V_sym*%
X136158800Y-105629600D03*
%TD*%
D18*
%TO.P,C4,1*%
%TO.N,+15V_sym*%
X110744000Y-102533300D03*
%TO.P,C4,2*%
%TO.N,GND*%
X110744000Y-104608300D03*
%TD*%
D21*
%TO.P,U3,1,GND*%
%TO.N,GND*%
X96828400Y-109758700D03*
%TO.P,U3,2,EN*%
%TO.N,unconnected-(U3-EN-Pad2)*%
X98528400Y-109758700D03*
%TO.P,U3,3,SW*%
%TO.N,Net-(U3-SW)*%
X100228400Y-109758700D03*
D22*
X97453400Y-103033700D03*
X103003400Y-103033700D03*
D23*
X100228400Y-100608700D03*
D22*
X97453400Y-98183700D03*
X103003400Y-98183700D03*
D21*
%TO.P,U3,4,VIN*%
%TO.N,+12V*%
X101928400Y-109758700D03*
%TO.P,U3,5,FB*%
%TO.N,Net-(U3-FB)*%
X103628400Y-109758700D03*
%TD*%
D24*
%TO.P,U1,1,Vin*%
%TO.N,+12V*%
X83388200Y-45821600D03*
D25*
%TO.P,U1,2,GND*%
%TO.N,GND*%
X83388200Y-63601600D03*
%TO.P,U1,3,GND*%
X124028200Y-63601600D03*
%TO.P,U1,4,Vout*%
%TO.N,5V*%
X124028200Y-45821600D03*
%TD*%
D18*
%TO.P,C8,1*%
%TO.N,Net-(D1-A)*%
X92151200Y-109804200D03*
%TO.P,C8,2*%
%TO.N,Net-(D2-A)*%
X92151200Y-111879200D03*
%TD*%
D17*
%TO.P,C7,1*%
%TO.N,-15V_sym*%
X118948200Y-112982200D03*
%TO.P,C7,2*%
%TO.N,GND*%
X118948200Y-121382200D03*
%TD*%
D26*
%TO.P,D2,1,K*%
%TO.N,GND*%
X90126600Y-113838900D03*
%TO.P,D2,2,A*%
%TO.N,Net-(D2-A)*%
X92176600Y-113838900D03*
%TD*%
D27*
%TO.P,R1,1*%
%TO.N,Net-(U3-FB)*%
X110728000Y-109743000D03*
%TO.P,R1,2*%
%TO.N,GND*%
X110728000Y-107743000D03*
%TD*%
D17*
%TO.P,C2,1*%
%TO.N,+12V*%
X79806800Y-113744200D03*
%TO.P,C2,2*%
%TO.N,GND*%
X79806800Y-122144200D03*
%TD*%
D28*
%TO.N,GND*%
X95148400Y-108127800D03*
X70434200Y-85013800D03*
%TO.N,Net-(D1-A)*%
X92176600Y-100914200D03*
X107010200Y-98602800D03*
%TD*%
D29*
%TO.N,+12V*%
X84404200Y-112014000D02*
X85979000Y-113588800D01*
X84663400Y-105223200D02*
X84663400Y-108887600D01*
X101928400Y-112541700D02*
X101928400Y-109758700D01*
X86715600Y-114325400D02*
X86715600Y-115421500D01*
X101928400Y-116752400D02*
X101928400Y-112541700D01*
X96296600Y-123384200D02*
X96296600Y-122384200D01*
X84663400Y-108887600D02*
X79806800Y-113744200D01*
X67601200Y-78714600D02*
X73101200Y-78714600D01*
X78028800Y-78914800D02*
X78130400Y-79016400D01*
X78079600Y-112017000D02*
X78079600Y-78965600D01*
X73101200Y-78714600D02*
X78432200Y-78714600D01*
X95774400Y-123384200D02*
X85979000Y-113588800D01*
X81537000Y-112014000D02*
X79806800Y-113744200D01*
X78079600Y-78965600D02*
X78028800Y-78914800D01*
X78130400Y-79016400D02*
X78432200Y-78714600D01*
X78028800Y-51181000D02*
X78028800Y-78914800D01*
X96296600Y-122384200D02*
X101928400Y-116752400D01*
X79806800Y-113744200D02*
X78079600Y-112017000D01*
X84480400Y-112014000D02*
X81537000Y-112014000D01*
X81537000Y-112014000D02*
X84404200Y-112014000D01*
X85979000Y-113588800D02*
X86715600Y-114325400D01*
X78432200Y-78714600D02*
X84161100Y-72985700D01*
X83388200Y-45821600D02*
X78028800Y-51181000D01*
X96296600Y-123384200D02*
X95774400Y-123384200D01*
%TO.N,-15V_sym*%
X106807000Y-124202100D02*
X100614500Y-124202100D01*
X100614500Y-124202100D02*
X99796600Y-123384200D01*
X109804200Y-121204900D02*
X106807000Y-124202100D01*
X114590200Y-117340200D02*
X118948200Y-112982200D01*
X118948200Y-112982200D02*
X119986600Y-114020600D01*
X109804200Y-117340200D02*
X109804200Y-121204900D01*
X119986600Y-114020600D02*
X130649800Y-114020600D01*
X136158800Y-114029600D02*
X130658800Y-114029600D01*
X109804200Y-117340200D02*
X114590200Y-117340200D01*
X130649800Y-114020600D02*
X130658800Y-114029600D01*
%TO.N,+15V_sym*%
X115690600Y-102533300D02*
X118922800Y-99301100D01*
X110744000Y-102533300D02*
X110744000Y-100613100D01*
X125251300Y-105629600D02*
X130658800Y-105629600D01*
X136158800Y-105629600D02*
X130658800Y-105629600D01*
X110744000Y-102533300D02*
X108492600Y-102533300D01*
X110744000Y-102533300D02*
X115690600Y-102533300D01*
X118922800Y-99301100D02*
X125251300Y-105629600D01*
X108492600Y-102533300D02*
X108483400Y-102542500D01*
%TO.N,15V*%
X123658100Y-90133700D02*
X130513400Y-83278400D01*
X130513400Y-83278400D02*
X131166800Y-83278400D01*
X131166800Y-83278400D02*
X136666800Y-83278400D01*
%TO.N,5V*%
X128538800Y-45821600D02*
X136997000Y-54279800D01*
X124028200Y-45821600D02*
X128538800Y-45821600D01*
%TO.N,Net-(D1-A)*%
X92176600Y-100914200D02*
X88292200Y-100914200D01*
X110744000Y-98563100D02*
X108538100Y-98563100D01*
X84663400Y-97285400D02*
X84663400Y-96723200D01*
X88292200Y-100914200D02*
X84663400Y-97285400D01*
X92176600Y-100914200D02*
X92176600Y-109778800D01*
X92176600Y-109778800D02*
X92151200Y-109804200D01*
X108498400Y-98602800D02*
X108534200Y-98567000D01*
X107010200Y-98602800D02*
X108498400Y-98602800D01*
X108538100Y-98563100D02*
X108534200Y-98567000D01*
%TO.N,Net-(U3-SW)*%
X88163400Y-96723200D02*
X95992900Y-96723200D01*
X108534200Y-100642000D02*
X105395100Y-100642000D01*
X105395100Y-100642000D02*
X103003400Y-103033700D01*
X100228400Y-109758700D02*
X100228400Y-100608700D01*
X95992900Y-96723200D02*
X97453400Y-98183700D01*
X100022000Y-100402300D02*
X100228400Y-100608700D01*
X96274800Y-104212300D02*
X97453400Y-103033700D01*
X100228400Y-114956868D02*
X100304600Y-115033068D01*
X103330900Y-103361200D02*
X103003400Y-103033700D01*
X97291832Y-98345268D02*
X97453400Y-98183700D01*
X100228400Y-109758700D02*
X100228400Y-114956868D01*
X103274000Y-97913100D02*
X103003400Y-98183700D01*
%TO.N,Net-(D2-A)*%
X92176600Y-111904600D02*
X92151200Y-111879200D01*
X92176600Y-113838900D02*
X92176600Y-111904600D01*
X93221900Y-114884200D02*
X92176600Y-113838900D01*
X92125800Y-113889700D02*
X92176600Y-113838900D01*
X96296600Y-114884200D02*
X93221900Y-114884200D01*
%TO.N,Net-(U3-FB)*%
X110728000Y-109743000D02*
X108524800Y-109743000D01*
X108518200Y-109736400D02*
X103650700Y-109736400D01*
X110686600Y-109784400D02*
X110728000Y-109743000D01*
X103650700Y-109736400D02*
X103628400Y-109758700D01*
%TO.N,Net-(R2-Pad1)*%
X108518200Y-104577300D02*
X108483400Y-104542500D01*
X108518200Y-107736400D02*
X108518200Y-104577300D01*
%TD*%
%TA.AperFunction,Conductor*%
%TO.N,GND*%
G36*
X94270939Y-97743385D02*
G01*
X94316694Y-97796189D01*
X94327900Y-97847700D01*
X94327900Y-105108701D01*
X94327901Y-105108718D01*
X94338400Y-105211496D01*
X94338401Y-105211499D01*
X94390449Y-105368568D01*
X94393586Y-105378034D01*
X94485688Y-105527356D01*
X94609744Y-105651412D01*
X94759066Y-105743514D01*
X94925603Y-105798699D01*
X95010325Y-105807354D01*
X95017633Y-105809199D01*
X95022065Y-105809199D01*
X95034680Y-105809842D01*
X95041832Y-105810573D01*
X95049784Y-105809199D01*
X99103900Y-105809199D01*
X99170939Y-105828884D01*
X99216694Y-105881688D01*
X99227900Y-105933199D01*
X99227900Y-106878730D01*
X99208215Y-106945769D01*
X99155411Y-106991524D01*
X99086253Y-107001468D01*
X99064897Y-106996436D01*
X98981199Y-106968701D01*
X98981195Y-106968700D01*
X98878410Y-106958200D01*
X98178398Y-106958200D01*
X98178380Y-106958201D01*
X98075603Y-106968700D01*
X98075600Y-106968701D01*
X97909068Y-107023885D01*
X97909063Y-107023887D01*
X97828020Y-107073875D01*
X97759744Y-107115988D01*
X97759743Y-107115988D01*
X97759730Y-107115997D01*
X97754887Y-107119826D01*
X97690087Y-107145956D01*
X97621447Y-107132904D01*
X97601083Y-107119814D01*
X97596746Y-107116384D01*
X97447524Y-107024343D01*
X97447519Y-107024341D01*
X97281097Y-106969194D01*
X97281090Y-106969193D01*
X97178386Y-106958700D01*
X97078400Y-106958700D01*
X97078400Y-109634700D01*
X97058715Y-109701739D01*
X97005911Y-109747494D01*
X96954400Y-109758700D01*
X96828400Y-109758700D01*
X96828400Y-109884700D01*
X96808715Y-109951739D01*
X96755911Y-109997494D01*
X96704400Y-110008700D01*
X95778401Y-110008700D01*
X95778401Y-111858686D01*
X95788894Y-111961397D01*
X95844041Y-112127819D01*
X95844045Y-112127828D01*
X95885233Y-112194604D01*
X95903673Y-112261996D01*
X95882750Y-112328660D01*
X95829108Y-112373429D01*
X95779694Y-112383700D01*
X95248729Y-112383700D01*
X95248723Y-112383701D01*
X95189116Y-112390108D01*
X95054271Y-112440402D01*
X95054264Y-112440406D01*
X94939055Y-112526652D01*
X94939052Y-112526655D01*
X94852806Y-112641864D01*
X94852802Y-112641871D01*
X94802508Y-112776717D01*
X94796101Y-112836316D01*
X94796101Y-112836323D01*
X94796100Y-112836335D01*
X94796100Y-113759700D01*
X94776415Y-113826739D01*
X94723611Y-113872494D01*
X94672100Y-113883700D01*
X93687683Y-113883700D01*
X93620644Y-113864015D01*
X93600002Y-113847381D01*
X93288418Y-113535797D01*
X93254933Y-113474474D01*
X93252099Y-113448116D01*
X93252099Y-113338898D01*
X93252098Y-113338881D01*
X93241599Y-113236103D01*
X93241598Y-113236100D01*
X93232748Y-113209394D01*
X93186414Y-113069566D01*
X93186413Y-113069564D01*
X93184142Y-113062711D01*
X93185964Y-113062107D01*
X93177100Y-113022102D01*
X93177100Y-112778530D01*
X93196785Y-112711491D01*
X93213419Y-112690849D01*
X93218912Y-112685356D01*
X93311014Y-112536034D01*
X93366199Y-112369497D01*
X93376700Y-112266709D01*
X93376699Y-111491692D01*
X93366199Y-111388903D01*
X93311014Y-111222366D01*
X93218912Y-111073044D01*
X93094856Y-110948988D01*
X93092019Y-110947238D01*
X93090483Y-110945530D01*
X93089189Y-110944507D01*
X93089363Y-110944285D01*
X93045296Y-110895294D01*
X93034072Y-110826332D01*
X93061913Y-110762249D01*
X93092017Y-110736162D01*
X93094856Y-110734412D01*
X93218912Y-110610356D01*
X93311014Y-110461034D01*
X93366199Y-110294497D01*
X93376700Y-110191709D01*
X93376699Y-109416692D01*
X93369170Y-109342992D01*
X93366199Y-109313903D01*
X93366198Y-109313900D01*
X93331526Y-109209268D01*
X93311014Y-109147366D01*
X93218912Y-108998044D01*
X93213419Y-108992551D01*
X93179934Y-108931228D01*
X93177100Y-108904870D01*
X93177100Y-107658713D01*
X95778400Y-107658713D01*
X95778400Y-109508700D01*
X96578400Y-109508700D01*
X96578400Y-106958699D01*
X96478428Y-106958700D01*
X96478412Y-106958701D01*
X96375702Y-106969194D01*
X96209280Y-107024341D01*
X96209275Y-107024343D01*
X96060054Y-107116384D01*
X95936084Y-107240354D01*
X95844043Y-107389575D01*
X95844041Y-107389580D01*
X95788894Y-107556002D01*
X95788893Y-107556009D01*
X95778400Y-107658713D01*
X93177100Y-107658713D01*
X93177100Y-100815656D01*
X93138652Y-100622370D01*
X93138651Y-100622369D01*
X93138651Y-100622365D01*
X93075001Y-100468699D01*
X93063235Y-100440292D01*
X93063228Y-100440279D01*
X92953739Y-100276418D01*
X92953736Y-100276414D01*
X92814385Y-100137063D01*
X92814381Y-100137060D01*
X92650520Y-100027571D01*
X92650507Y-100027564D01*
X92468439Y-99952150D01*
X92468429Y-99952147D01*
X92275143Y-99913700D01*
X92275141Y-99913700D01*
X88757982Y-99913700D01*
X88690943Y-99894015D01*
X88670301Y-99877381D01*
X88228300Y-99435380D01*
X88194815Y-99374057D01*
X88199799Y-99304365D01*
X88241671Y-99248432D01*
X88307135Y-99224015D01*
X88315981Y-99223699D01*
X89211271Y-99223699D01*
X89211272Y-99223699D01*
X89270883Y-99217291D01*
X89405731Y-99166996D01*
X89520946Y-99080746D01*
X89607196Y-98965531D01*
X89657491Y-98830683D01*
X89663900Y-98771073D01*
X89663900Y-97847700D01*
X89683585Y-97780661D01*
X89736389Y-97734906D01*
X89787900Y-97723700D01*
X94203900Y-97723700D01*
X94270939Y-97743385D01*
G37*
%TD.AperFunction*%
%TA.AperFunction,Conductor*%
G36*
X140425239Y-43623985D02*
G01*
X140470994Y-43676789D01*
X140482200Y-43728300D01*
X140482200Y-127899500D01*
X140462515Y-127966539D01*
X140409711Y-128012294D01*
X140358200Y-128023500D01*
X63807000Y-128023500D01*
X63739961Y-128003815D01*
X63694206Y-127951011D01*
X63683000Y-127899500D01*
X63683000Y-124144186D01*
X78056801Y-124144186D01*
X78067294Y-124246897D01*
X78122441Y-124413319D01*
X78122443Y-124413324D01*
X78214484Y-124562545D01*
X78338454Y-124686515D01*
X78487675Y-124778556D01*
X78487680Y-124778558D01*
X78654102Y-124833705D01*
X78654109Y-124833706D01*
X78756819Y-124844199D01*
X79556799Y-124844199D01*
X80056800Y-124844199D01*
X80856772Y-124844199D01*
X80856786Y-124844198D01*
X80959497Y-124833705D01*
X81125919Y-124778558D01*
X81125924Y-124778556D01*
X81275145Y-124686515D01*
X81399115Y-124562545D01*
X81491156Y-124413324D01*
X81491158Y-124413319D01*
X81546305Y-124246897D01*
X81546306Y-124246890D01*
X81556799Y-124144186D01*
X81556800Y-124144173D01*
X81556800Y-122394200D01*
X80056800Y-122394200D01*
X80056800Y-124844199D01*
X79556799Y-124844199D01*
X79556800Y-124844198D01*
X79556800Y-122394200D01*
X78056801Y-122394200D01*
X78056801Y-124144186D01*
X63683000Y-124144186D01*
X63683000Y-120144213D01*
X78056800Y-120144213D01*
X78056800Y-121894200D01*
X79556800Y-121894200D01*
X80056800Y-121894200D01*
X81556799Y-121894200D01*
X81556799Y-120144228D01*
X81556798Y-120144213D01*
X81546305Y-120041502D01*
X81491158Y-119875080D01*
X81491156Y-119875075D01*
X81399115Y-119725854D01*
X81275145Y-119601884D01*
X81125924Y-119509843D01*
X81125919Y-119509841D01*
X80959497Y-119454694D01*
X80959490Y-119454693D01*
X80856786Y-119444200D01*
X80056800Y-119444200D01*
X80056800Y-121894200D01*
X79556800Y-121894200D01*
X79556800Y-119444200D01*
X78756828Y-119444200D01*
X78756812Y-119444201D01*
X78654102Y-119454694D01*
X78487680Y-119509841D01*
X78487675Y-119509843D01*
X78338454Y-119601884D01*
X78214484Y-119725854D01*
X78122443Y-119875075D01*
X78122441Y-119875080D01*
X78067294Y-120041502D01*
X78067293Y-120041509D01*
X78056800Y-120144213D01*
X63683000Y-120144213D01*
X63683000Y-117883986D01*
X85490601Y-117883986D01*
X85501094Y-117986697D01*
X85556241Y-118153119D01*
X85556243Y-118153124D01*
X85648284Y-118302345D01*
X85772254Y-118426315D01*
X85921475Y-118518356D01*
X85921480Y-118518358D01*
X86087902Y-118573505D01*
X86087909Y-118573506D01*
X86190619Y-118583999D01*
X86465599Y-118583999D01*
X86965600Y-118583999D01*
X87240572Y-118583999D01*
X87240586Y-118583998D01*
X87343297Y-118573505D01*
X87509719Y-118518358D01*
X87509724Y-118518356D01*
X87658945Y-118426315D01*
X87782915Y-118302345D01*
X87874956Y-118153124D01*
X87874958Y-118153119D01*
X87930105Y-117986697D01*
X87930106Y-117986690D01*
X87940599Y-117883986D01*
X87940600Y-117883973D01*
X87940600Y-117746500D01*
X86965600Y-117746500D01*
X86965600Y-118583999D01*
X86465599Y-118583999D01*
X86465600Y-118583998D01*
X86465600Y-117746500D01*
X85490601Y-117746500D01*
X85490601Y-117883986D01*
X63683000Y-117883986D01*
X63683000Y-101090799D01*
X68479759Y-101090799D01*
X68479759Y-101090800D01*
X68499510Y-101467672D01*
X68558546Y-101840407D01*
X68558547Y-101840413D01*
X68611947Y-102039704D01*
X68656223Y-102204947D01*
X68791467Y-102557268D01*
X68962799Y-102893525D01*
X69168335Y-103210023D01*
X69290720Y-103361156D01*
X69405835Y-103503311D01*
X69672689Y-103770165D01*
X69672693Y-103770168D01*
X69965976Y-104007664D01*
X70282474Y-104213200D01*
X70282479Y-104213203D01*
X70618735Y-104384534D01*
X70971057Y-104519778D01*
X71335587Y-104617453D01*
X71708329Y-104676490D01*
X72064355Y-104695148D01*
X72085199Y-104696241D01*
X72085200Y-104696241D01*
X72085201Y-104696241D01*
X72104952Y-104695205D01*
X72462071Y-104676490D01*
X72834813Y-104617453D01*
X73199343Y-104519778D01*
X73551665Y-104384534D01*
X73887921Y-104213203D01*
X74204425Y-104007663D01*
X74497711Y-103770165D01*
X74764565Y-103503311D01*
X75002063Y-103210025D01*
X75207603Y-102893521D01*
X75378934Y-102557265D01*
X75514178Y-102204943D01*
X75611853Y-101840413D01*
X75670890Y-101467671D01*
X75690641Y-101090800D01*
X75670890Y-100713929D01*
X75611853Y-100341187D01*
X75514178Y-99976657D01*
X75378934Y-99624335D01*
X75207603Y-99288080D01*
X75207600Y-99288075D01*
X75002064Y-98971576D01*
X74764568Y-98678293D01*
X74764565Y-98678289D01*
X74497711Y-98411435D01*
X74464292Y-98384373D01*
X74204423Y-98173935D01*
X73887925Y-97968399D01*
X73551668Y-97797067D01*
X73199347Y-97661823D01*
X72834814Y-97564147D01*
X72834807Y-97564146D01*
X72462072Y-97505110D01*
X72085201Y-97485359D01*
X72085199Y-97485359D01*
X71708327Y-97505110D01*
X71335592Y-97564146D01*
X71335585Y-97564147D01*
X70971052Y-97661823D01*
X70618731Y-97797067D01*
X70282475Y-97968399D01*
X69965976Y-98173935D01*
X69672693Y-98411431D01*
X69672685Y-98411438D01*
X69405838Y-98678285D01*
X69405831Y-98678293D01*
X69168335Y-98971576D01*
X68962799Y-99288075D01*
X68791467Y-99624331D01*
X68656223Y-99976652D01*
X68558547Y-100341185D01*
X68558546Y-100341192D01*
X68499510Y-100713927D01*
X68479759Y-101090799D01*
X63683000Y-101090799D01*
X63683000Y-82664600D01*
X65468150Y-82664600D01*
X66947079Y-82664600D01*
X66928101Y-82710418D01*
X66901200Y-82845656D01*
X66901200Y-82983544D01*
X66928101Y-83118782D01*
X66947079Y-83164600D01*
X65468150Y-83164600D01*
X65482853Y-83276287D01*
X65545621Y-83510539D01*
X65638420Y-83734578D01*
X65638427Y-83734593D01*
X65759680Y-83944609D01*
X65907310Y-84137005D01*
X65907316Y-84137012D01*
X66078787Y-84308483D01*
X66078794Y-84308489D01*
X66271190Y-84456119D01*
X66481206Y-84577372D01*
X66481221Y-84577379D01*
X66705260Y-84670178D01*
X66939512Y-84732946D01*
X67179935Y-84764598D01*
X67179952Y-84764600D01*
X67351200Y-84764600D01*
X67351200Y-83568720D01*
X67397018Y-83587699D01*
X67532256Y-83614600D01*
X67670144Y-83614600D01*
X67805382Y-83587699D01*
X67851200Y-83568720D01*
X67851200Y-84764600D01*
X68022448Y-84764600D01*
X68022464Y-84764598D01*
X68262887Y-84732946D01*
X68497139Y-84670178D01*
X68721178Y-84577379D01*
X68721193Y-84577372D01*
X68931209Y-84456119D01*
X69123605Y-84308489D01*
X69123612Y-84308483D01*
X69295083Y-84137012D01*
X69295089Y-84137005D01*
X69442719Y-83944609D01*
X69563972Y-83734593D01*
X69563979Y-83734578D01*
X69656778Y-83510539D01*
X69719546Y-83276287D01*
X69734250Y-83164600D01*
X68255321Y-83164600D01*
X68274299Y-83118782D01*
X68301200Y-82983544D01*
X68301200Y-82845656D01*
X68274299Y-82710418D01*
X68255321Y-82664600D01*
X69734249Y-82664600D01*
X70968150Y-82664600D01*
X72447079Y-82664600D01*
X72428101Y-82710418D01*
X72401200Y-82845656D01*
X72401200Y-82983544D01*
X72428101Y-83118782D01*
X72447079Y-83164600D01*
X70968150Y-83164600D01*
X70982853Y-83276287D01*
X71045621Y-83510539D01*
X71138420Y-83734578D01*
X71138427Y-83734593D01*
X71259680Y-83944609D01*
X71407310Y-84137005D01*
X71407316Y-84137012D01*
X71578787Y-84308483D01*
X71578794Y-84308489D01*
X71771190Y-84456119D01*
X71981206Y-84577372D01*
X71981221Y-84577379D01*
X72205260Y-84670178D01*
X72439512Y-84732946D01*
X72679935Y-84764598D01*
X72679952Y-84764600D01*
X72851200Y-84764600D01*
X72851200Y-83568720D01*
X72897018Y-83587699D01*
X73032256Y-83614600D01*
X73170144Y-83614600D01*
X73305382Y-83587699D01*
X73351200Y-83568720D01*
X73351200Y-84764600D01*
X73522448Y-84764600D01*
X73522464Y-84764598D01*
X73762887Y-84732946D01*
X73997139Y-84670178D01*
X74221178Y-84577379D01*
X74221193Y-84577372D01*
X74431209Y-84456119D01*
X74623605Y-84308489D01*
X74623612Y-84308483D01*
X74795083Y-84137012D01*
X74795089Y-84137005D01*
X74942719Y-83944609D01*
X75063972Y-83734593D01*
X75063979Y-83734578D01*
X75156778Y-83510539D01*
X75219546Y-83276287D01*
X75234250Y-83164600D01*
X73755321Y-83164600D01*
X73774299Y-83118782D01*
X73801200Y-82983544D01*
X73801200Y-82845656D01*
X73774299Y-82710418D01*
X73755321Y-82664600D01*
X75234249Y-82664600D01*
X75219546Y-82552912D01*
X75156778Y-82318660D01*
X75063979Y-82094621D01*
X75063972Y-82094606D01*
X74942719Y-81884590D01*
X74795089Y-81692194D01*
X74795083Y-81692187D01*
X74623612Y-81520716D01*
X74623605Y-81520710D01*
X74431209Y-81373080D01*
X74221193Y-81251827D01*
X74221178Y-81251820D01*
X73997139Y-81159021D01*
X73762887Y-81096253D01*
X73522464Y-81064601D01*
X73522448Y-81064600D01*
X73351200Y-81064600D01*
X73351200Y-82260479D01*
X73305382Y-82241501D01*
X73170144Y-82214600D01*
X73032256Y-82214600D01*
X72897018Y-82241501D01*
X72851200Y-82260479D01*
X72851200Y-81064600D01*
X72679952Y-81064600D01*
X72679935Y-81064601D01*
X72439512Y-81096253D01*
X72205260Y-81159021D01*
X71981221Y-81251820D01*
X71981206Y-81251827D01*
X71771190Y-81373080D01*
X71578794Y-81520710D01*
X71578787Y-81520716D01*
X71407316Y-81692187D01*
X71407310Y-81692194D01*
X71259680Y-81884590D01*
X71138427Y-82094606D01*
X71138420Y-82094621D01*
X71045621Y-82318660D01*
X70982853Y-82552912D01*
X70968150Y-82664600D01*
X69734249Y-82664600D01*
X69719546Y-82552912D01*
X69656778Y-82318660D01*
X69563979Y-82094621D01*
X69563972Y-82094606D01*
X69442719Y-81884590D01*
X69295089Y-81692194D01*
X69295083Y-81692187D01*
X69123612Y-81520716D01*
X69123605Y-81520710D01*
X68931209Y-81373080D01*
X68721193Y-81251827D01*
X68721178Y-81251820D01*
X68497139Y-81159021D01*
X68262887Y-81096253D01*
X68022464Y-81064601D01*
X68022448Y-81064600D01*
X67851200Y-81064600D01*
X67851200Y-82260479D01*
X67805382Y-82241501D01*
X67670144Y-82214600D01*
X67532256Y-82214600D01*
X67397018Y-82241501D01*
X67351200Y-82260479D01*
X67351200Y-81064600D01*
X67179952Y-81064600D01*
X67179935Y-81064601D01*
X66939512Y-81096253D01*
X66705260Y-81159021D01*
X66481221Y-81251820D01*
X66481206Y-81251827D01*
X66271190Y-81373080D01*
X66078794Y-81520710D01*
X66078787Y-81520716D01*
X65907316Y-81692187D01*
X65907310Y-81692194D01*
X65759680Y-81884590D01*
X65638427Y-82094606D01*
X65638420Y-82094621D01*
X65545621Y-82318660D01*
X65482853Y-82552912D01*
X65468150Y-82664600D01*
X63683000Y-82664600D01*
X63683000Y-78593311D01*
X65450700Y-78593311D01*
X65450700Y-78835888D01*
X65482361Y-79076385D01*
X65545147Y-79310704D01*
X65600900Y-79445302D01*
X65637976Y-79534812D01*
X65759264Y-79744889D01*
X65759266Y-79744892D01*
X65759267Y-79744893D01*
X65906933Y-79937336D01*
X65906939Y-79937343D01*
X66078456Y-80108860D01*
X66078463Y-80108866D01*
X66191521Y-80195618D01*
X66270911Y-80256536D01*
X66480988Y-80377824D01*
X66705100Y-80470654D01*
X66939411Y-80533438D01*
X67100140Y-80554598D01*
X67179911Y-80565100D01*
X67179912Y-80565100D01*
X68022489Y-80565100D01*
X68102252Y-80554599D01*
X68262989Y-80533438D01*
X68497300Y-80470654D01*
X68721412Y-80377824D01*
X68931489Y-80256536D01*
X69123938Y-80108865D01*
X69295465Y-79937338D01*
X69428768Y-79763614D01*
X69485196Y-79722411D01*
X69527144Y-79715100D01*
X70826700Y-79715100D01*
X70893739Y-79734785D01*
X70939494Y-79787589D01*
X70950700Y-79839100D01*
X70950700Y-79864615D01*
X70961200Y-79967395D01*
X70961201Y-79967396D01*
X71016386Y-80133935D01*
X71016387Y-80133937D01*
X71108486Y-80283251D01*
X71108489Y-80283255D01*
X71232544Y-80407310D01*
X71232548Y-80407313D01*
X71381862Y-80499412D01*
X71381864Y-80499413D01*
X71381866Y-80499414D01*
X71548403Y-80554599D01*
X71651192Y-80565100D01*
X71651197Y-80565100D01*
X74551203Y-80565100D01*
X74551208Y-80565100D01*
X74653997Y-80554599D01*
X74820534Y-80499414D01*
X74969855Y-80407311D01*
X75093911Y-80283255D01*
X75186014Y-80133934D01*
X75241199Y-79967397D01*
X75251700Y-79864608D01*
X75251700Y-79839100D01*
X75271385Y-79772061D01*
X75324189Y-79726306D01*
X75375700Y-79715100D01*
X76955100Y-79715100D01*
X77022139Y-79734785D01*
X77067894Y-79787589D01*
X77079100Y-79839100D01*
X77079100Y-112115544D01*
X77110529Y-112273547D01*
X77117546Y-112308828D01*
X77117549Y-112308837D01*
X77192964Y-112490907D01*
X77192971Y-112490920D01*
X77302459Y-112654780D01*
X77302460Y-112654781D01*
X77302461Y-112654782D01*
X77441818Y-112794139D01*
X77441819Y-112794139D01*
X77448886Y-112801206D01*
X77448885Y-112801206D01*
X77448889Y-112801209D01*
X78019981Y-113372301D01*
X78053466Y-113433624D01*
X78056300Y-113459982D01*
X78056300Y-115744201D01*
X78056301Y-115744218D01*
X78066800Y-115846996D01*
X78066801Y-115846999D01*
X78091596Y-115921824D01*
X78121986Y-116013534D01*
X78214088Y-116162856D01*
X78338144Y-116286912D01*
X78487466Y-116379014D01*
X78654003Y-116434199D01*
X78756791Y-116444700D01*
X80856808Y-116444699D01*
X80959597Y-116434199D01*
X81126134Y-116379014D01*
X81275456Y-116286912D01*
X81399512Y-116162856D01*
X81491614Y-116013534D01*
X81546799Y-115846997D01*
X81557300Y-115744209D01*
X81557299Y-113459982D01*
X81576984Y-113392944D01*
X81593618Y-113372302D01*
X81915102Y-113050819D01*
X81976425Y-113017334D01*
X82002783Y-113014500D01*
X83938418Y-113014500D01*
X84005457Y-113034185D01*
X84026098Y-113050818D01*
X84734979Y-113759700D01*
X85348284Y-114373005D01*
X85348290Y-114373010D01*
X85556712Y-114581433D01*
X85590197Y-114642756D01*
X85585213Y-114712448D01*
X85574572Y-114734207D01*
X85555786Y-114764665D01*
X85528193Y-114847934D01*
X85500601Y-114931203D01*
X85500601Y-114931204D01*
X85500600Y-114931204D01*
X85490100Y-115033983D01*
X85490100Y-115809001D01*
X85490101Y-115809019D01*
X85500600Y-115911796D01*
X85500601Y-115911799D01*
X85534312Y-116013531D01*
X85555786Y-116078334D01*
X85647888Y-116227656D01*
X85771944Y-116351712D01*
X85775228Y-116353737D01*
X85775253Y-116353753D01*
X85777045Y-116355746D01*
X85777611Y-116356193D01*
X85777534Y-116356289D01*
X85821979Y-116405699D01*
X85833203Y-116474661D01*
X85805361Y-116538744D01*
X85775265Y-116564826D01*
X85772260Y-116566679D01*
X85772255Y-116566683D01*
X85648284Y-116690654D01*
X85556243Y-116839875D01*
X85556241Y-116839880D01*
X85501094Y-117006302D01*
X85501093Y-117006309D01*
X85490600Y-117109013D01*
X85490600Y-117246500D01*
X87940599Y-117246500D01*
X87948156Y-117238942D01*
X87960284Y-117197642D01*
X88013088Y-117151887D01*
X88082246Y-117141943D01*
X88145802Y-117170968D01*
X88152278Y-117176998D01*
X91647298Y-120672019D01*
X94759781Y-123784502D01*
X94793266Y-123845825D01*
X94796100Y-123872183D01*
X94796100Y-125432070D01*
X94796101Y-125432076D01*
X94802508Y-125491683D01*
X94852802Y-125626528D01*
X94852806Y-125626535D01*
X94939052Y-125741744D01*
X94939055Y-125741747D01*
X95054264Y-125827993D01*
X95054271Y-125827997D01*
X95189117Y-125878291D01*
X95189116Y-125878291D01*
X95196044Y-125879035D01*
X95248727Y-125884700D01*
X97344472Y-125884699D01*
X97404083Y-125878291D01*
X97538931Y-125827996D01*
X97654146Y-125741746D01*
X97740396Y-125626531D01*
X97790691Y-125491683D01*
X97797100Y-125432073D01*
X97797099Y-122349980D01*
X97816784Y-122282942D01*
X97833413Y-122262305D01*
X98084421Y-122011297D01*
X98145742Y-121977814D01*
X98215434Y-121982798D01*
X98271367Y-122024670D01*
X98295784Y-122090134D01*
X98296100Y-122098980D01*
X98296100Y-125432070D01*
X98296101Y-125432076D01*
X98302508Y-125491683D01*
X98352802Y-125626528D01*
X98352806Y-125626535D01*
X98439052Y-125741744D01*
X98439055Y-125741747D01*
X98554264Y-125827993D01*
X98554271Y-125827997D01*
X98689117Y-125878291D01*
X98689116Y-125878291D01*
X98696044Y-125879035D01*
X98748727Y-125884700D01*
X100844472Y-125884699D01*
X100904083Y-125878291D01*
X101038931Y-125827996D01*
X101154146Y-125741746D01*
X101240396Y-125626531D01*
X101290691Y-125491683D01*
X101297100Y-125432073D01*
X101297100Y-125326600D01*
X101316785Y-125259561D01*
X101369589Y-125213806D01*
X101421100Y-125202600D01*
X106905542Y-125202600D01*
X106924870Y-125198755D01*
X107002188Y-125183375D01*
X107098836Y-125164151D01*
X107152165Y-125142061D01*
X107280914Y-125088732D01*
X107444782Y-124979239D01*
X107584139Y-124839882D01*
X107584140Y-124839879D01*
X107591206Y-124832814D01*
X107591209Y-124832810D01*
X109041833Y-123382186D01*
X117198201Y-123382186D01*
X117208694Y-123484897D01*
X117263841Y-123651319D01*
X117263843Y-123651324D01*
X117355884Y-123800545D01*
X117479854Y-123924515D01*
X117629075Y-124016556D01*
X117629080Y-124016558D01*
X117795502Y-124071705D01*
X117795509Y-124071706D01*
X117898219Y-124082199D01*
X118698199Y-124082199D01*
X119198200Y-124082199D01*
X119998172Y-124082199D01*
X119998186Y-124082198D01*
X120100897Y-124071705D01*
X120267319Y-124016558D01*
X120267324Y-124016556D01*
X120416545Y-123924515D01*
X120540515Y-123800545D01*
X120632556Y-123651324D01*
X120632558Y-123651319D01*
X120687705Y-123484897D01*
X120687706Y-123484890D01*
X120698199Y-123382186D01*
X120698200Y-123382173D01*
X120698200Y-121632200D01*
X119198200Y-121632200D01*
X119198200Y-124082199D01*
X118698199Y-124082199D01*
X118698200Y-124082198D01*
X118698200Y-121632200D01*
X117198201Y-121632200D01*
X117198201Y-123382186D01*
X109041833Y-123382186D01*
X110441978Y-121982041D01*
X110441982Y-121982039D01*
X110581339Y-121842682D01*
X110690832Y-121678814D01*
X110766251Y-121496735D01*
X110798158Y-121336329D01*
X110804700Y-121303443D01*
X110804700Y-119382213D01*
X117198200Y-119382213D01*
X117198200Y-121132200D01*
X118698200Y-121132200D01*
X119198200Y-121132200D01*
X120698199Y-121132200D01*
X120698199Y-119382228D01*
X120698198Y-119382213D01*
X120687705Y-119279502D01*
X120632558Y-119113080D01*
X120632556Y-119113075D01*
X120540515Y-118963854D01*
X120416545Y-118839884D01*
X120267324Y-118747843D01*
X120267319Y-118747841D01*
X120100897Y-118692694D01*
X120100890Y-118692693D01*
X119998186Y-118682200D01*
X119198200Y-118682200D01*
X119198200Y-121132200D01*
X118698200Y-121132200D01*
X118698200Y-118682200D01*
X117898228Y-118682200D01*
X117898212Y-118682201D01*
X117795502Y-118692694D01*
X117629080Y-118747841D01*
X117629075Y-118747843D01*
X117479854Y-118839884D01*
X117355884Y-118963854D01*
X117263843Y-119113075D01*
X117263841Y-119113080D01*
X117208694Y-119279502D01*
X117208693Y-119279509D01*
X117198200Y-119382213D01*
X110804700Y-119382213D01*
X110804700Y-118464700D01*
X110824385Y-118397661D01*
X110877189Y-118351906D01*
X110928700Y-118340700D01*
X114688742Y-118340700D01*
X114708070Y-118336855D01*
X114785388Y-118321475D01*
X114882036Y-118302251D01*
X114935365Y-118280161D01*
X115064114Y-118226832D01*
X115227982Y-118117339D01*
X115367339Y-117977982D01*
X115367339Y-117977980D01*
X115377547Y-117967773D01*
X115377548Y-117967770D01*
X117649475Y-115695844D01*
X117710796Y-115662361D01*
X117776154Y-115665820D01*
X117795403Y-115672199D01*
X117898191Y-115682700D01*
X119998208Y-115682699D01*
X120100997Y-115672199D01*
X120267534Y-115617014D01*
X120416856Y-115524912D01*
X120540912Y-115400856D01*
X120633014Y-115251534D01*
X120681207Y-115106094D01*
X120720980Y-115048651D01*
X120785495Y-115021828D01*
X120798913Y-115021100D01*
X128384300Y-115021100D01*
X128451339Y-115040785D01*
X128497094Y-115093589D01*
X128508300Y-115145100D01*
X128508300Y-115179615D01*
X128518800Y-115282395D01*
X128518801Y-115282396D01*
X128573986Y-115448935D01*
X128573987Y-115448937D01*
X128666086Y-115598251D01*
X128666089Y-115598255D01*
X128790144Y-115722310D01*
X128790148Y-115722313D01*
X128939462Y-115814412D01*
X128939464Y-115814413D01*
X128939466Y-115814414D01*
X129106003Y-115869599D01*
X129208792Y-115880100D01*
X129208797Y-115880100D01*
X132108803Y-115880100D01*
X132108808Y-115880100D01*
X132211597Y-115869599D01*
X132378134Y-115814414D01*
X132527455Y-115722311D01*
X132651511Y-115598255D01*
X132743614Y-115448934D01*
X132798799Y-115282397D01*
X132809300Y-115179608D01*
X132809300Y-115154100D01*
X132828985Y-115087061D01*
X132881789Y-115041306D01*
X132933300Y-115030100D01*
X134232856Y-115030100D01*
X134299895Y-115049785D01*
X134331232Y-115078614D01*
X134464533Y-115252336D01*
X134464539Y-115252343D01*
X134636056Y-115423860D01*
X134636063Y-115423866D01*
X134749121Y-115510618D01*
X134828511Y-115571536D01*
X135038588Y-115692824D01*
X135262700Y-115785654D01*
X135497011Y-115848438D01*
X135657740Y-115869598D01*
X135737511Y-115880100D01*
X135737512Y-115880100D01*
X136580089Y-115880100D01*
X136659852Y-115869599D01*
X136820589Y-115848438D01*
X137054900Y-115785654D01*
X137279012Y-115692824D01*
X137489089Y-115571536D01*
X137681538Y-115423865D01*
X137853065Y-115252338D01*
X138000736Y-115059889D01*
X138122024Y-114849812D01*
X138214854Y-114625700D01*
X138277638Y-114391389D01*
X138309300Y-114150888D01*
X138309300Y-113908312D01*
X138277638Y-113667811D01*
X138214854Y-113433500D01*
X138122024Y-113209388D01*
X138000736Y-112999311D01*
X137908873Y-112879592D01*
X137853066Y-112806863D01*
X137853060Y-112806856D01*
X137681543Y-112635339D01*
X137681536Y-112635333D01*
X137489093Y-112487667D01*
X137489092Y-112487666D01*
X137489089Y-112487664D01*
X137279012Y-112366376D01*
X137279005Y-112366373D01*
X137054904Y-112273547D01*
X136820585Y-112210761D01*
X136580089Y-112179100D01*
X136580088Y-112179100D01*
X135737512Y-112179100D01*
X135737511Y-112179100D01*
X135497014Y-112210761D01*
X135262695Y-112273547D01*
X135038594Y-112366373D01*
X135038585Y-112366377D01*
X134828506Y-112487667D01*
X134636063Y-112635333D01*
X134636056Y-112635339D01*
X134464539Y-112806856D01*
X134464533Y-112806863D01*
X134331232Y-112980586D01*
X134274804Y-113021789D01*
X134232856Y-113029100D01*
X132933300Y-113029100D01*
X132866261Y-113009415D01*
X132820506Y-112956611D01*
X132809300Y-112905100D01*
X132809300Y-112879597D01*
X132809299Y-112879584D01*
X132804879Y-112836323D01*
X132798799Y-112776803D01*
X132743614Y-112610266D01*
X132724255Y-112578881D01*
X132651513Y-112460948D01*
X132651510Y-112460944D01*
X132527455Y-112336889D01*
X132527451Y-112336886D01*
X132378137Y-112244787D01*
X132378135Y-112244786D01*
X132294865Y-112217193D01*
X132211597Y-112189601D01*
X132211595Y-112189600D01*
X132108815Y-112179100D01*
X132108808Y-112179100D01*
X129208792Y-112179100D01*
X129208784Y-112179100D01*
X129106004Y-112189600D01*
X129106003Y-112189601D01*
X128939464Y-112244786D01*
X128939462Y-112244787D01*
X128790148Y-112336886D01*
X128790144Y-112336889D01*
X128666089Y-112460944D01*
X128666086Y-112460948D01*
X128573987Y-112610262D01*
X128573986Y-112610264D01*
X128518801Y-112776803D01*
X128518800Y-112776804D01*
X128508300Y-112879584D01*
X128508300Y-112896100D01*
X128488615Y-112963139D01*
X128435811Y-113008894D01*
X128384300Y-113020100D01*
X120822700Y-113020100D01*
X120755661Y-113000415D01*
X120709906Y-112947611D01*
X120698700Y-112896100D01*
X120698699Y-110982198D01*
X120698698Y-110982181D01*
X120688199Y-110879403D01*
X120688198Y-110879400D01*
X120680800Y-110857074D01*
X120633014Y-110712866D01*
X120540912Y-110563544D01*
X120416856Y-110439488D01*
X120416855Y-110439487D01*
X120413158Y-110437207D01*
X120366433Y-110385259D01*
X120355210Y-110316297D01*
X120383053Y-110252215D01*
X120390573Y-110243986D01*
X120515117Y-110119442D01*
X120607156Y-109970224D01*
X120607158Y-109970219D01*
X120662305Y-109803797D01*
X120662306Y-109803790D01*
X120672799Y-109701086D01*
X120672800Y-109701073D01*
X120672800Y-109579600D01*
X128525750Y-109579600D01*
X130004679Y-109579600D01*
X129985701Y-109625418D01*
X129958800Y-109760656D01*
X129958800Y-109898544D01*
X129985701Y-110033782D01*
X130004679Y-110079600D01*
X128525750Y-110079600D01*
X128540453Y-110191287D01*
X128603221Y-110425539D01*
X128696020Y-110649578D01*
X128696027Y-110649593D01*
X128817280Y-110859609D01*
X128964910Y-111052005D01*
X128964916Y-111052012D01*
X129136387Y-111223483D01*
X129136394Y-111223489D01*
X129328790Y-111371119D01*
X129538806Y-111492372D01*
X129538821Y-111492379D01*
X129762860Y-111585178D01*
X129997112Y-111647946D01*
X130237535Y-111679598D01*
X130237552Y-111679600D01*
X130408800Y-111679600D01*
X130408800Y-110483720D01*
X130454618Y-110502699D01*
X130589856Y-110529600D01*
X130727744Y-110529600D01*
X130862982Y-110502699D01*
X130908800Y-110483720D01*
X130908800Y-111679600D01*
X131080048Y-111679600D01*
X131080064Y-111679598D01*
X131320487Y-111647946D01*
X131554739Y-111585178D01*
X131778778Y-111492379D01*
X131778793Y-111492372D01*
X131988809Y-111371119D01*
X132181205Y-111223489D01*
X132181212Y-111223483D01*
X132352683Y-111052012D01*
X132352689Y-111052005D01*
X132500319Y-110859609D01*
X132621572Y-110649593D01*
X132621579Y-110649578D01*
X132714378Y-110425539D01*
X132777146Y-110191287D01*
X132791850Y-110079600D01*
X131312921Y-110079600D01*
X131331899Y-110033782D01*
X131358800Y-109898544D01*
X131358800Y-109760656D01*
X131331899Y-109625418D01*
X131312921Y-109579600D01*
X132791849Y-109579600D01*
X134025750Y-109579600D01*
X135504679Y-109579600D01*
X135485701Y-109625418D01*
X135458800Y-109760656D01*
X135458800Y-109898544D01*
X135485701Y-110033782D01*
X135504679Y-110079600D01*
X134025750Y-110079600D01*
X134040453Y-110191287D01*
X134103221Y-110425539D01*
X134196020Y-110649578D01*
X134196027Y-110649593D01*
X134317280Y-110859609D01*
X134464910Y-111052005D01*
X134464916Y-111052012D01*
X134636387Y-111223483D01*
X134636394Y-111223489D01*
X134828790Y-111371119D01*
X135038806Y-111492372D01*
X135038821Y-111492379D01*
X135262860Y-111585178D01*
X135497112Y-111647946D01*
X135737535Y-111679598D01*
X135737552Y-111679600D01*
X135908800Y-111679600D01*
X135908800Y-110483720D01*
X135954618Y-110502699D01*
X136089856Y-110529600D01*
X136227744Y-110529600D01*
X136362982Y-110502699D01*
X136408800Y-110483720D01*
X136408800Y-111679600D01*
X136580048Y-111679600D01*
X136580064Y-111679598D01*
X136820487Y-111647946D01*
X137054739Y-111585178D01*
X137278778Y-111492379D01*
X137278793Y-111492372D01*
X137488809Y-111371119D01*
X137681205Y-111223489D01*
X137681212Y-111223483D01*
X137852683Y-111052012D01*
X137852689Y-111052005D01*
X138000319Y-110859609D01*
X138121572Y-110649593D01*
X138121579Y-110649578D01*
X138214378Y-110425539D01*
X138277146Y-110191287D01*
X138291850Y-110079600D01*
X136812921Y-110079600D01*
X136831899Y-110033782D01*
X136858800Y-109898544D01*
X136858800Y-109760656D01*
X136831899Y-109625418D01*
X136812921Y-109579600D01*
X138291849Y-109579600D01*
X138277146Y-109467912D01*
X138214378Y-109233660D01*
X138121579Y-109009621D01*
X138121572Y-109009606D01*
X138000319Y-108799590D01*
X137852689Y-108607194D01*
X137852683Y-108607187D01*
X137681212Y-108435716D01*
X137681205Y-108435710D01*
X137488809Y-108288080D01*
X137278793Y-108166827D01*
X137278778Y-108166820D01*
X137054739Y-108074021D01*
X136820487Y-108011253D01*
X136580064Y-107979601D01*
X136580048Y-107979600D01*
X136408800Y-107979600D01*
X136408800Y-109175479D01*
X136362982Y-109156501D01*
X136227744Y-109129600D01*
X136089856Y-109129600D01*
X135954618Y-109156501D01*
X135908800Y-109175479D01*
X135908800Y-107979600D01*
X135737552Y-107979600D01*
X135737535Y-107979601D01*
X135497112Y-108011253D01*
X135262860Y-108074021D01*
X135038821Y-108166820D01*
X135038806Y-108166827D01*
X134828790Y-108288080D01*
X134636394Y-108435710D01*
X134636387Y-108435716D01*
X134464916Y-108607187D01*
X134464910Y-108607194D01*
X134317280Y-108799590D01*
X134196027Y-109009606D01*
X134196020Y-109009621D01*
X134103221Y-109233660D01*
X134040453Y-109467912D01*
X134025750Y-109579600D01*
X132791849Y-109579600D01*
X132777146Y-109467912D01*
X132714378Y-109233660D01*
X132621579Y-109009621D01*
X132621572Y-109009606D01*
X132500319Y-108799590D01*
X132352689Y-108607194D01*
X132352683Y-108607187D01*
X132181212Y-108435716D01*
X132181205Y-108435710D01*
X131988809Y-108288080D01*
X131778793Y-108166827D01*
X131778778Y-108166820D01*
X131554739Y-108074021D01*
X131320487Y-108011253D01*
X131080064Y-107979601D01*
X131080048Y-107979600D01*
X130908800Y-107979600D01*
X130908800Y-109175479D01*
X130862982Y-109156501D01*
X130727744Y-109129600D01*
X130589856Y-109129600D01*
X130454618Y-109156501D01*
X130408800Y-109175479D01*
X130408800Y-107979600D01*
X130237552Y-107979600D01*
X130237535Y-107979601D01*
X129997112Y-108011253D01*
X129762860Y-108074021D01*
X129538821Y-108166820D01*
X129538806Y-108166827D01*
X129328790Y-108288080D01*
X129136394Y-108435710D01*
X129136387Y-108435716D01*
X128964916Y-108607187D01*
X128964910Y-108607194D01*
X128817280Y-108799590D01*
X128696027Y-109009606D01*
X128696020Y-109009621D01*
X128603221Y-109233660D01*
X128540453Y-109467912D01*
X128525750Y-109579600D01*
X120672800Y-109579600D01*
X120672800Y-107951100D01*
X117172801Y-107951100D01*
X117172801Y-109701086D01*
X117183294Y-109803797D01*
X117238441Y-109970219D01*
X117238443Y-109970224D01*
X117330484Y-110119445D01*
X117454455Y-110243416D01*
X117454457Y-110243417D01*
X117457765Y-110245458D01*
X117459557Y-110247451D01*
X117460123Y-110247898D01*
X117460046Y-110247994D01*
X117504491Y-110297404D01*
X117515715Y-110366366D01*
X117487873Y-110430449D01*
X117480353Y-110438679D01*
X117355487Y-110563545D01*
X117263387Y-110712863D01*
X117263385Y-110712868D01*
X117247117Y-110761961D01*
X117208201Y-110879403D01*
X117208201Y-110879404D01*
X117208200Y-110879404D01*
X117197700Y-110982183D01*
X117197700Y-113266416D01*
X117178015Y-113333455D01*
X117161381Y-113354097D01*
X116364591Y-114150888D01*
X114943944Y-115571536D01*
X114212099Y-116303381D01*
X114150776Y-116336866D01*
X114124418Y-116339700D01*
X110902223Y-116339700D01*
X110835184Y-116320015D01*
X110789429Y-116267211D01*
X110779485Y-116198053D01*
X110808510Y-116134497D01*
X110814542Y-116128019D01*
X110871515Y-116071045D01*
X110963556Y-115921824D01*
X110963558Y-115921819D01*
X111018705Y-115755397D01*
X111018706Y-115755390D01*
X111029199Y-115652686D01*
X111029200Y-115652673D01*
X111029200Y-115515200D01*
X108579201Y-115515200D01*
X108579201Y-115652686D01*
X108589694Y-115755397D01*
X108644841Y-115921819D01*
X108644843Y-115921824D01*
X108736884Y-116071045D01*
X108860855Y-116195016D01*
X108860859Y-116195019D01*
X108863856Y-116196868D01*
X108865479Y-116198672D01*
X108866523Y-116199498D01*
X108866381Y-116199676D01*
X108910581Y-116248816D01*
X108921802Y-116317779D01*
X108893959Y-116381861D01*
X108863861Y-116407941D01*
X108860549Y-116409983D01*
X108860543Y-116409988D01*
X108736489Y-116534042D01*
X108644387Y-116683363D01*
X108644386Y-116683366D01*
X108589201Y-116849903D01*
X108589201Y-116849904D01*
X108589200Y-116849904D01*
X108578700Y-116952683D01*
X108578700Y-117727701D01*
X108578701Y-117727719D01*
X108589200Y-117830496D01*
X108589201Y-117830499D01*
X108634688Y-117967767D01*
X108644386Y-117997034D01*
X108718590Y-118117339D01*
X108736489Y-118146357D01*
X108767381Y-118177249D01*
X108800866Y-118238572D01*
X108803700Y-118264930D01*
X108803700Y-120739118D01*
X108784015Y-120806157D01*
X108767381Y-120826799D01*
X106428899Y-123165281D01*
X106367576Y-123198766D01*
X106341218Y-123201600D01*
X101421099Y-123201600D01*
X101354060Y-123181915D01*
X101308305Y-123129111D01*
X101297099Y-123077600D01*
X101297099Y-121336329D01*
X101297098Y-121336323D01*
X101290691Y-121276716D01*
X101240397Y-121141871D01*
X101240393Y-121141864D01*
X101154147Y-121026655D01*
X101154144Y-121026652D01*
X101038935Y-120940406D01*
X101038928Y-120940402D01*
X100904082Y-120890108D01*
X100904083Y-120890108D01*
X100844483Y-120883701D01*
X100844481Y-120883700D01*
X100844473Y-120883700D01*
X100844465Y-120883700D01*
X99511381Y-120883700D01*
X99444342Y-120864015D01*
X99398587Y-120811211D01*
X99388643Y-120742053D01*
X99417668Y-120678497D01*
X99423700Y-120672019D01*
X100982644Y-119113075D01*
X102566178Y-117529541D01*
X102566182Y-117529539D01*
X102705539Y-117390182D01*
X102815032Y-117226314D01*
X102849979Y-117141943D01*
X102868361Y-117097566D01*
X102868361Y-117097565D01*
X102890451Y-117044236D01*
X102912762Y-116932072D01*
X102928900Y-116850941D01*
X102928900Y-114877713D01*
X108579200Y-114877713D01*
X108579200Y-115015200D01*
X109554200Y-115015200D01*
X110054200Y-115015200D01*
X111029199Y-115015200D01*
X111029199Y-114877728D01*
X111029198Y-114877713D01*
X111018705Y-114775002D01*
X110963558Y-114608580D01*
X110963556Y-114608575D01*
X110871515Y-114459354D01*
X110747545Y-114335384D01*
X110598324Y-114243343D01*
X110598319Y-114243341D01*
X110431897Y-114188194D01*
X110431890Y-114188193D01*
X110329186Y-114177700D01*
X110054200Y-114177700D01*
X110054200Y-115015200D01*
X109554200Y-115015200D01*
X109554200Y-114177700D01*
X109279229Y-114177700D01*
X109279212Y-114177701D01*
X109176502Y-114188194D01*
X109010080Y-114243341D01*
X109010075Y-114243343D01*
X108860854Y-114335384D01*
X108736884Y-114459354D01*
X108644843Y-114608575D01*
X108644841Y-114608580D01*
X108589694Y-114775002D01*
X108589693Y-114775009D01*
X108579200Y-114877713D01*
X102928900Y-114877713D01*
X102928900Y-112638669D01*
X102948585Y-112571630D01*
X103001389Y-112525875D01*
X103070547Y-112515931D01*
X103091892Y-112520960D01*
X103175603Y-112548699D01*
X103278391Y-112559200D01*
X103978408Y-112559199D01*
X103978416Y-112559198D01*
X103978419Y-112559198D01*
X104034702Y-112553448D01*
X104081197Y-112548699D01*
X104247734Y-112493514D01*
X104397056Y-112401412D01*
X104521112Y-112277356D01*
X104613214Y-112128034D01*
X104668399Y-111961497D01*
X104678900Y-111858709D01*
X104678900Y-110860900D01*
X104698585Y-110793861D01*
X104751389Y-110748106D01*
X104802900Y-110736900D01*
X107658068Y-110736900D01*
X107723163Y-110755360D01*
X107748866Y-110771214D01*
X107915403Y-110826399D01*
X108018191Y-110836900D01*
X109018208Y-110836899D01*
X109018216Y-110836898D01*
X109018219Y-110836898D01*
X109074502Y-110831148D01*
X109120997Y-110826399D01*
X109287534Y-110771214D01*
X109302536Y-110761961D01*
X109367632Y-110743500D01*
X109867868Y-110743500D01*
X109932963Y-110761960D01*
X109958666Y-110777814D01*
X110125203Y-110832999D01*
X110227991Y-110843500D01*
X111228008Y-110843499D01*
X111228016Y-110843498D01*
X111228019Y-110843498D01*
X111292628Y-110836898D01*
X111330797Y-110832999D01*
X111497334Y-110777814D01*
X111646656Y-110685712D01*
X111770712Y-110561656D01*
X111862814Y-110412334D01*
X111917999Y-110245797D01*
X111928500Y-110143009D01*
X111928499Y-109342992D01*
X111917999Y-109240203D01*
X111862814Y-109073666D01*
X111770712Y-108924344D01*
X111676695Y-108830327D01*
X111643210Y-108769004D01*
X111648194Y-108699312D01*
X111676695Y-108654964D01*
X111770317Y-108561342D01*
X111862356Y-108412124D01*
X111862358Y-108412119D01*
X111917505Y-108245697D01*
X111917506Y-108245690D01*
X111927999Y-108142986D01*
X111928000Y-108142973D01*
X111928000Y-107993000D01*
X110852000Y-107993000D01*
X110784961Y-107973315D01*
X110739206Y-107920511D01*
X110728000Y-107869000D01*
X110728000Y-107743000D01*
X110602000Y-107743000D01*
X110534961Y-107723315D01*
X110489206Y-107670511D01*
X110478000Y-107619000D01*
X110478000Y-107493000D01*
X110978000Y-107493000D01*
X111927999Y-107493000D01*
X111927999Y-107343028D01*
X111927998Y-107343013D01*
X111917505Y-107240302D01*
X111862358Y-107073880D01*
X111862356Y-107073875D01*
X111770315Y-106924654D01*
X111646345Y-106800684D01*
X111497124Y-106708643D01*
X111497119Y-106708641D01*
X111330697Y-106653494D01*
X111330690Y-106653493D01*
X111227986Y-106643000D01*
X110978000Y-106643000D01*
X110978000Y-107493000D01*
X110478000Y-107493000D01*
X110478000Y-106643000D01*
X110228029Y-106643000D01*
X110228012Y-106643001D01*
X110125302Y-106653494D01*
X109958880Y-106708641D01*
X109958875Y-106708643D01*
X109809657Y-106800682D01*
X109730381Y-106879958D01*
X109669057Y-106913442D01*
X109599366Y-106908458D01*
X109543432Y-106866586D01*
X109519016Y-106801121D01*
X109518700Y-106792276D01*
X109518700Y-105701113D01*
X117172800Y-105701113D01*
X117172800Y-107451100D01*
X118672800Y-107451100D01*
X119172800Y-107451100D01*
X120672799Y-107451100D01*
X120672799Y-105701128D01*
X120672798Y-105701113D01*
X120662305Y-105598402D01*
X120607158Y-105431980D01*
X120607156Y-105431975D01*
X120515115Y-105282754D01*
X120391145Y-105158784D01*
X120241924Y-105066743D01*
X120241919Y-105066741D01*
X120075497Y-105011594D01*
X120075490Y-105011593D01*
X119972786Y-105001100D01*
X119172800Y-105001100D01*
X119172800Y-107451100D01*
X118672800Y-107451100D01*
X118672800Y-105001100D01*
X117872828Y-105001100D01*
X117872812Y-105001101D01*
X117770102Y-105011594D01*
X117603680Y-105066741D01*
X117603675Y-105066743D01*
X117454454Y-105158784D01*
X117330484Y-105282754D01*
X117238443Y-105431975D01*
X117238441Y-105431980D01*
X117183294Y-105598402D01*
X117183293Y-105598409D01*
X117172800Y-105701113D01*
X109518700Y-105701113D01*
X109518700Y-105555523D01*
X109538385Y-105488484D01*
X109591189Y-105442729D01*
X109660347Y-105432785D01*
X109723903Y-105461810D01*
X109730381Y-105467842D01*
X109800654Y-105538115D01*
X109949875Y-105630156D01*
X109949880Y-105630158D01*
X110116302Y-105685305D01*
X110116309Y-105685306D01*
X110219019Y-105695799D01*
X110493999Y-105695799D01*
X110994000Y-105695799D01*
X111268972Y-105695799D01*
X111268986Y-105695798D01*
X111371697Y-105685305D01*
X111538119Y-105630158D01*
X111538124Y-105630156D01*
X111687345Y-105538115D01*
X111811315Y-105414145D01*
X111903356Y-105264924D01*
X111903358Y-105264919D01*
X111958505Y-105098497D01*
X111958506Y-105098490D01*
X111968999Y-104995786D01*
X111969000Y-104995773D01*
X111969000Y-104858300D01*
X110994000Y-104858300D01*
X110994000Y-105695799D01*
X110493999Y-105695799D01*
X110494000Y-105695798D01*
X110494000Y-104732300D01*
X110513685Y-104665261D01*
X110566489Y-104619506D01*
X110618000Y-104608300D01*
X110744000Y-104608300D01*
X110744000Y-104482300D01*
X110763685Y-104415261D01*
X110816489Y-104369506D01*
X110868000Y-104358300D01*
X111968999Y-104358300D01*
X111968999Y-104220828D01*
X111968998Y-104220813D01*
X111958505Y-104118102D01*
X111903358Y-103951680D01*
X111903356Y-103951675D01*
X111811315Y-103802454D01*
X111754342Y-103745481D01*
X111720857Y-103684158D01*
X111725841Y-103614466D01*
X111767713Y-103558533D01*
X111833177Y-103534116D01*
X111842023Y-103533800D01*
X115789142Y-103533800D01*
X115808470Y-103529955D01*
X115885788Y-103514575D01*
X115982436Y-103495351D01*
X116035765Y-103473261D01*
X116164514Y-103419932D01*
X116328382Y-103310439D01*
X116467739Y-103171082D01*
X116467740Y-103171079D01*
X116474806Y-103164014D01*
X116474809Y-103164010D01*
X117624074Y-102014744D01*
X117685395Y-101981261D01*
X117750755Y-101984720D01*
X117770003Y-101991099D01*
X117872791Y-102001600D01*
X119972808Y-102001599D01*
X120075597Y-101991099D01*
X120094841Y-101984721D01*
X120164666Y-101982318D01*
X120221526Y-102014746D01*
X124613515Y-106406737D01*
X124613519Y-106406740D01*
X124777379Y-106516228D01*
X124777385Y-106516231D01*
X124777386Y-106516232D01*
X124959465Y-106591652D01*
X125152755Y-106630100D01*
X125152758Y-106630101D01*
X125152760Y-106630101D01*
X125355955Y-106630101D01*
X125355975Y-106630100D01*
X128732856Y-106630100D01*
X128799895Y-106649785D01*
X128831232Y-106678614D01*
X128964533Y-106852336D01*
X128964539Y-106852343D01*
X129136056Y-107023860D01*
X129136063Y-107023866D01*
X129136682Y-107024341D01*
X129328511Y-107171536D01*
X129538588Y-107292824D01*
X129762700Y-107385654D01*
X129997011Y-107448438D01*
X130177386Y-107472184D01*
X130237511Y-107480100D01*
X130237512Y-107480100D01*
X131080089Y-107480100D01*
X131128188Y-107473767D01*
X131320589Y-107448438D01*
X131554900Y-107385654D01*
X131779012Y-107292824D01*
X131989089Y-107171536D01*
X132181538Y-107023865D01*
X132353065Y-106852338D01*
X132486368Y-106678614D01*
X132542796Y-106637411D01*
X132584744Y-106630100D01*
X134232856Y-106630100D01*
X134299895Y-106649785D01*
X134331232Y-106678614D01*
X134464533Y-106852336D01*
X134464539Y-106852343D01*
X134636056Y-107023860D01*
X134636063Y-107023866D01*
X134636682Y-107024341D01*
X134828511Y-107171536D01*
X135038588Y-107292824D01*
X135262700Y-107385654D01*
X135497011Y-107448438D01*
X135677386Y-107472184D01*
X135737511Y-107480100D01*
X135737512Y-107480100D01*
X136580089Y-107480100D01*
X136628188Y-107473767D01*
X136820589Y-107448438D01*
X137054900Y-107385654D01*
X137279012Y-107292824D01*
X137489089Y-107171536D01*
X137681538Y-107023865D01*
X137853065Y-106852338D01*
X138000736Y-106659889D01*
X138122024Y-106449812D01*
X138214854Y-106225700D01*
X138277638Y-105991389D01*
X138309300Y-105750888D01*
X138309300Y-105508312D01*
X138304677Y-105473200D01*
X138277638Y-105267814D01*
X138277638Y-105267811D01*
X138214854Y-105033500D01*
X138122024Y-104809388D01*
X138000736Y-104599311D01*
X137939707Y-104519776D01*
X137853066Y-104406863D01*
X137853060Y-104406856D01*
X137681543Y-104235339D01*
X137681536Y-104235333D01*
X137489093Y-104087667D01*
X137489092Y-104087666D01*
X137489089Y-104087664D01*
X137279012Y-103966376D01*
X137243521Y-103951675D01*
X137054904Y-103873547D01*
X136820585Y-103810761D01*
X136580089Y-103779100D01*
X136580088Y-103779100D01*
X135737512Y-103779100D01*
X135737511Y-103779100D01*
X135497014Y-103810761D01*
X135262695Y-103873547D01*
X135038594Y-103966373D01*
X135038585Y-103966377D01*
X134828506Y-104087667D01*
X134636063Y-104235333D01*
X134636056Y-104235339D01*
X134464539Y-104406856D01*
X134464533Y-104406863D01*
X134331232Y-104580586D01*
X134274804Y-104621789D01*
X134232856Y-104629100D01*
X132584744Y-104629100D01*
X132517705Y-104609415D01*
X132486368Y-104580586D01*
X132353066Y-104406863D01*
X132353060Y-104406856D01*
X132181543Y-104235339D01*
X132181536Y-104235333D01*
X131989093Y-104087667D01*
X131989092Y-104087666D01*
X131989089Y-104087664D01*
X131779012Y-103966376D01*
X131743521Y-103951675D01*
X131554904Y-103873547D01*
X131320585Y-103810761D01*
X131080089Y-103779100D01*
X131080088Y-103779100D01*
X130237512Y-103779100D01*
X130237511Y-103779100D01*
X129997014Y-103810761D01*
X129762695Y-103873547D01*
X129538594Y-103966373D01*
X129538585Y-103966377D01*
X129328506Y-104087667D01*
X129136063Y-104235333D01*
X129136056Y-104235339D01*
X128964539Y-104406856D01*
X128964533Y-104406863D01*
X128831232Y-104580586D01*
X128774804Y-104621789D01*
X128732856Y-104629100D01*
X125717083Y-104629100D01*
X125650044Y-104609415D01*
X125629402Y-104592781D01*
X120709618Y-99672997D01*
X120676133Y-99611674D01*
X120673299Y-99585316D01*
X120673299Y-97301098D01*
X120673298Y-97301081D01*
X120662799Y-97198303D01*
X120662798Y-97198300D01*
X120607614Y-97031766D01*
X120515512Y-96882444D01*
X120391456Y-96758388D01*
X120242134Y-96666286D01*
X120075597Y-96611101D01*
X120075595Y-96611100D01*
X119972810Y-96600600D01*
X117872798Y-96600600D01*
X117872781Y-96600601D01*
X117770003Y-96611100D01*
X117770000Y-96611101D01*
X117603468Y-96666285D01*
X117603463Y-96666287D01*
X117454142Y-96758389D01*
X117330089Y-96882442D01*
X117237987Y-97031763D01*
X117237985Y-97031768D01*
X117226322Y-97066965D01*
X117182801Y-97198303D01*
X117182801Y-97198304D01*
X117182800Y-97198304D01*
X117172300Y-97301083D01*
X117172300Y-99585317D01*
X117152615Y-99652356D01*
X117135981Y-99672998D01*
X115312499Y-101496481D01*
X115251176Y-101529966D01*
X115224818Y-101532800D01*
X111931142Y-101532800D01*
X111864103Y-101513115D01*
X111818348Y-101460311D01*
X111808404Y-101391153D01*
X111825603Y-101343704D01*
X111878810Y-101257440D01*
X111878814Y-101257434D01*
X111933999Y-101090897D01*
X111944500Y-100988109D01*
X111944499Y-100238092D01*
X111933999Y-100135303D01*
X111878814Y-99968766D01*
X111786712Y-99819444D01*
X111662656Y-99695388D01*
X111659819Y-99693638D01*
X111658283Y-99691930D01*
X111656989Y-99690907D01*
X111657163Y-99690685D01*
X111613096Y-99641694D01*
X111601872Y-99572732D01*
X111629713Y-99508649D01*
X111659817Y-99482562D01*
X111662656Y-99480812D01*
X111786712Y-99356756D01*
X111878814Y-99207434D01*
X111933999Y-99040897D01*
X111944500Y-98938109D01*
X111944499Y-98188092D01*
X111933999Y-98085303D01*
X111878814Y-97918766D01*
X111786712Y-97769444D01*
X111662656Y-97645388D01*
X111530941Y-97564146D01*
X111513336Y-97553287D01*
X111513331Y-97553285D01*
X111487378Y-97544685D01*
X111346797Y-97498101D01*
X111346795Y-97498100D01*
X111244010Y-97487600D01*
X110243998Y-97487600D01*
X110243980Y-97487601D01*
X110141203Y-97498100D01*
X110141200Y-97498101D01*
X109967810Y-97555558D01*
X109967204Y-97553731D01*
X109927202Y-97562600D01*
X109392743Y-97562600D01*
X109335696Y-97546421D01*
X109335082Y-97547740D01*
X109328536Y-97544687D01*
X109328534Y-97544686D01*
X109161997Y-97489501D01*
X109161995Y-97489500D01*
X109059210Y-97479000D01*
X108009198Y-97479000D01*
X108009180Y-97479001D01*
X107906403Y-97489500D01*
X107906400Y-97489501D01*
X107739868Y-97544685D01*
X107739859Y-97544689D01*
X107676388Y-97583839D01*
X107611292Y-97602300D01*
X106911657Y-97602300D01*
X106718370Y-97640747D01*
X106718360Y-97640750D01*
X106536292Y-97716164D01*
X106536279Y-97716171D01*
X106372418Y-97825660D01*
X106372414Y-97825663D01*
X106340580Y-97857498D01*
X106279257Y-97890983D01*
X106209565Y-97885999D01*
X106153632Y-97844127D01*
X106129215Y-97778663D01*
X106128899Y-97769817D01*
X106128899Y-96108698D01*
X106128898Y-96108681D01*
X106118399Y-96005903D01*
X106118398Y-96005900D01*
X106063214Y-95839366D01*
X105971112Y-95690044D01*
X105847056Y-95565988D01*
X105697734Y-95473886D01*
X105531197Y-95418701D01*
X105531195Y-95418700D01*
X105428416Y-95408200D01*
X105428409Y-95408200D01*
X105428407Y-95408200D01*
X99878414Y-95408200D01*
X99878409Y-95408200D01*
X95028398Y-95408200D01*
X95028381Y-95408201D01*
X94925603Y-95418700D01*
X94925600Y-95418701D01*
X94759068Y-95473885D01*
X94759063Y-95473887D01*
X94609742Y-95565989D01*
X94489351Y-95686381D01*
X94428028Y-95719866D01*
X94401670Y-95722700D01*
X89787899Y-95722700D01*
X89720860Y-95703015D01*
X89675105Y-95650211D01*
X89663899Y-95598700D01*
X89663899Y-94675329D01*
X89663898Y-94675323D01*
X89663897Y-94675316D01*
X89657491Y-94615717D01*
X89607196Y-94480869D01*
X89607195Y-94480868D01*
X89607193Y-94480864D01*
X89537374Y-94387599D01*
X130557359Y-94387599D01*
X130557359Y-94387600D01*
X130577110Y-94764472D01*
X130636146Y-95137207D01*
X130636147Y-95137214D01*
X130733823Y-95501747D01*
X130869067Y-95854068D01*
X131040399Y-96190325D01*
X131245935Y-96506823D01*
X131393737Y-96689343D01*
X131483435Y-96800111D01*
X131750289Y-97066965D01*
X131750293Y-97066968D01*
X132043576Y-97304464D01*
X132352544Y-97505110D01*
X132360079Y-97510003D01*
X132696335Y-97681334D01*
X133048657Y-97816578D01*
X133413187Y-97914253D01*
X133785929Y-97973290D01*
X134141955Y-97991948D01*
X134162799Y-97993041D01*
X134162800Y-97993041D01*
X134162801Y-97993041D01*
X134182552Y-97992005D01*
X134539671Y-97973290D01*
X134912413Y-97914253D01*
X135276943Y-97816578D01*
X135629265Y-97681334D01*
X135965521Y-97510003D01*
X136282025Y-97304463D01*
X136575311Y-97066965D01*
X136842165Y-96800111D01*
X137079663Y-96506825D01*
X137285203Y-96190321D01*
X137456534Y-95854065D01*
X137591778Y-95501743D01*
X137689453Y-95137213D01*
X137748490Y-94764471D01*
X137768241Y-94387600D01*
X137748490Y-94010729D01*
X137689453Y-93637987D01*
X137591778Y-93273457D01*
X137456534Y-92921135D01*
X137285203Y-92584880D01*
X137079663Y-92268375D01*
X136842165Y-91975089D01*
X136575311Y-91708235D01*
X136498272Y-91645850D01*
X136282023Y-91470735D01*
X135965525Y-91265199D01*
X135629268Y-91093867D01*
X135276947Y-90958623D01*
X134912414Y-90860947D01*
X134912407Y-90860946D01*
X134539672Y-90801910D01*
X134162801Y-90782159D01*
X134162799Y-90782159D01*
X133785927Y-90801910D01*
X133413192Y-90860946D01*
X133413185Y-90860947D01*
X133048652Y-90958623D01*
X132696331Y-91093867D01*
X132360075Y-91265199D01*
X132043576Y-91470735D01*
X131750293Y-91708231D01*
X131750285Y-91708238D01*
X131483438Y-91975085D01*
X131483431Y-91975093D01*
X131245935Y-92268376D01*
X131040399Y-92584875D01*
X130869067Y-92921131D01*
X130733823Y-93273452D01*
X130636147Y-93637985D01*
X130636146Y-93637992D01*
X130577110Y-94010727D01*
X130557359Y-94387599D01*
X89537374Y-94387599D01*
X89520947Y-94365655D01*
X89520944Y-94365652D01*
X89405735Y-94279406D01*
X89405728Y-94279402D01*
X89270882Y-94229108D01*
X89270883Y-94229108D01*
X89211283Y-94222701D01*
X89211281Y-94222700D01*
X89211273Y-94222700D01*
X89211264Y-94222700D01*
X87115529Y-94222700D01*
X87115523Y-94222701D01*
X87055916Y-94229108D01*
X86921071Y-94279402D01*
X86921064Y-94279406D01*
X86805855Y-94365652D01*
X86805852Y-94365655D01*
X86719606Y-94480864D01*
X86719602Y-94480871D01*
X86669308Y-94615717D01*
X86662901Y-94675316D01*
X86662901Y-94675323D01*
X86662900Y-94675335D01*
X86662900Y-97570618D01*
X86643215Y-97637657D01*
X86590411Y-97683412D01*
X86521253Y-97693356D01*
X86457697Y-97664331D01*
X86451219Y-97658299D01*
X86200218Y-97407298D01*
X86166733Y-97345975D01*
X86163899Y-97319617D01*
X86163899Y-94675329D01*
X86163898Y-94675323D01*
X86163897Y-94675316D01*
X86157491Y-94615717D01*
X86107196Y-94480869D01*
X86107195Y-94480868D01*
X86107193Y-94480864D01*
X86020947Y-94365655D01*
X86020944Y-94365652D01*
X85905735Y-94279406D01*
X85905728Y-94279402D01*
X85770882Y-94229108D01*
X85770883Y-94229108D01*
X85711283Y-94222701D01*
X85711281Y-94222700D01*
X85711273Y-94222700D01*
X85711264Y-94222700D01*
X83615529Y-94222700D01*
X83615523Y-94222701D01*
X83555916Y-94229108D01*
X83421071Y-94279402D01*
X83421064Y-94279406D01*
X83305855Y-94365652D01*
X83305852Y-94365655D01*
X83219606Y-94480864D01*
X83219602Y-94480871D01*
X83169308Y-94615717D01*
X83162901Y-94675316D01*
X83162901Y-94675323D01*
X83162900Y-94675335D01*
X83162900Y-98771070D01*
X83162901Y-98771076D01*
X83169308Y-98830683D01*
X83219602Y-98965528D01*
X83219606Y-98965535D01*
X83305852Y-99080744D01*
X83305855Y-99080747D01*
X83421064Y-99166993D01*
X83421071Y-99166997D01*
X83555917Y-99217291D01*
X83555916Y-99217291D01*
X83562844Y-99218035D01*
X83615527Y-99223700D01*
X85135417Y-99223699D01*
X85202456Y-99243384D01*
X85223098Y-99260018D01*
X87511935Y-101548855D01*
X87511964Y-101548886D01*
X87654417Y-101691339D01*
X87703065Y-101723844D01*
X87818286Y-101800832D01*
X87913844Y-101840413D01*
X88000364Y-101876251D01*
X88097012Y-101895475D01*
X88145335Y-101905087D01*
X88193658Y-101914700D01*
X88193659Y-101914700D01*
X88193660Y-101914700D01*
X88390740Y-101914700D01*
X91052100Y-101914700D01*
X91119139Y-101934385D01*
X91164894Y-101987189D01*
X91176100Y-102038700D01*
X91176100Y-108854070D01*
X91156415Y-108921109D01*
X91139781Y-108941751D01*
X91083489Y-108998042D01*
X90991387Y-109147363D01*
X90991386Y-109147366D01*
X90936201Y-109313903D01*
X90936201Y-109313904D01*
X90936200Y-109313904D01*
X90925700Y-109416683D01*
X90925700Y-110191701D01*
X90925701Y-110191719D01*
X90936200Y-110294496D01*
X90936201Y-110294499D01*
X90975247Y-110412331D01*
X90991386Y-110461034D01*
X91053450Y-110561657D01*
X91083489Y-110610357D01*
X91207546Y-110734414D01*
X91210382Y-110736163D01*
X91211917Y-110737870D01*
X91213211Y-110738893D01*
X91213036Y-110739114D01*
X91257105Y-110788111D01*
X91268326Y-110857074D01*
X91240482Y-110921156D01*
X91210382Y-110947237D01*
X91207546Y-110948985D01*
X91083489Y-111073042D01*
X90991387Y-111222363D01*
X90991386Y-111222366D01*
X90936201Y-111388903D01*
X90936201Y-111388904D01*
X90936200Y-111388904D01*
X90925700Y-111491683D01*
X90925700Y-112266701D01*
X90925701Y-112266719D01*
X90936200Y-112369496D01*
X90936201Y-112369499D01*
X90985979Y-112519717D01*
X90991386Y-112536034D01*
X91019989Y-112582408D01*
X91038429Y-112649799D01*
X91017506Y-112716462D01*
X90963864Y-112761232D01*
X90894534Y-112769893D01*
X90849354Y-112753042D01*
X90770728Y-112704545D01*
X90770719Y-112704541D01*
X90604297Y-112649394D01*
X90604290Y-112649393D01*
X90501586Y-112638900D01*
X90376600Y-112638900D01*
X90376600Y-115038899D01*
X90501572Y-115038899D01*
X90501586Y-115038898D01*
X90604297Y-115028405D01*
X90770719Y-114973258D01*
X90770724Y-114973256D01*
X90919945Y-114881215D01*
X91043918Y-114757242D01*
X91045765Y-114754248D01*
X91047569Y-114752624D01*
X91048398Y-114751577D01*
X91048576Y-114751718D01*
X91097710Y-114707521D01*
X91166673Y-114696296D01*
X91230756Y-114724136D01*
X91256843Y-114754241D01*
X91258888Y-114757556D01*
X91382944Y-114881612D01*
X91532266Y-114973714D01*
X91698803Y-115028899D01*
X91801591Y-115039400D01*
X91910817Y-115039399D01*
X91977856Y-115059083D01*
X91998497Y-115075717D01*
X92444760Y-115521981D01*
X92444761Y-115521982D01*
X92521030Y-115598251D01*
X92584119Y-115661340D01*
X92747979Y-115770828D01*
X92747986Y-115770832D01*
X92853203Y-115814414D01*
X92930064Y-115846251D01*
X93123354Y-115884699D01*
X93123357Y-115884700D01*
X93123359Y-115884700D01*
X94672101Y-115884700D01*
X94739140Y-115904385D01*
X94784895Y-115957189D01*
X94796101Y-116008700D01*
X94796101Y-116932071D01*
X94802508Y-116991683D01*
X94852802Y-117126528D01*
X94852806Y-117126535D01*
X94939052Y-117241744D01*
X94939055Y-117241747D01*
X95054264Y-117327993D01*
X95054271Y-117327997D01*
X95189117Y-117378291D01*
X95189116Y-117378291D01*
X95196044Y-117379035D01*
X95248727Y-117384700D01*
X97344472Y-117384699D01*
X97404083Y-117378291D01*
X97538931Y-117327996D01*
X97654146Y-117241746D01*
X97740396Y-117126531D01*
X97790691Y-116991683D01*
X97797100Y-116932073D01*
X97797099Y-112836328D01*
X97790886Y-112778530D01*
X97790691Y-112776716D01*
X97756616Y-112685357D01*
X97743700Y-112650729D01*
X97738717Y-112581040D01*
X97772202Y-112519717D01*
X97833525Y-112486232D01*
X97903217Y-112491216D01*
X97907319Y-112492934D01*
X97909062Y-112493511D01*
X97909066Y-112493514D01*
X98075603Y-112548699D01*
X98178391Y-112559200D01*
X98205043Y-112559199D01*
X98272080Y-112578881D01*
X98317837Y-112631684D01*
X98327782Y-112700842D01*
X98321226Y-112726531D01*
X98302509Y-112776714D01*
X98302508Y-112776716D01*
X98296101Y-112836316D01*
X98296101Y-112836323D01*
X98296100Y-112836335D01*
X98296100Y-116932070D01*
X98296101Y-116932071D01*
X98302508Y-116991683D01*
X98352802Y-117126528D01*
X98352806Y-117126535D01*
X98439052Y-117241744D01*
X98439055Y-117241747D01*
X98554264Y-117327993D01*
X98554271Y-117327997D01*
X98689117Y-117378291D01*
X98689116Y-117378291D01*
X98696044Y-117379035D01*
X98748727Y-117384700D01*
X99581817Y-117384699D01*
X99648856Y-117404383D01*
X99694611Y-117457187D01*
X99704555Y-117526346D01*
X99675530Y-117589902D01*
X99669498Y-117596380D01*
X96418497Y-120847381D01*
X96357174Y-120880866D01*
X96330816Y-120883700D01*
X95248729Y-120883700D01*
X95248723Y-120883701D01*
X95189116Y-120890108D01*
X95054271Y-120940402D01*
X95054264Y-120940406D01*
X94963718Y-121008190D01*
X94898254Y-121032608D01*
X94829981Y-121017757D01*
X94801726Y-120996605D01*
X88144006Y-114338886D01*
X89051601Y-114338886D01*
X89062094Y-114441597D01*
X89117241Y-114608019D01*
X89117243Y-114608024D01*
X89209284Y-114757245D01*
X89333254Y-114881215D01*
X89482475Y-114973256D01*
X89482480Y-114973258D01*
X89648902Y-115028405D01*
X89648909Y-115028406D01*
X89751619Y-115038899D01*
X89876599Y-115038899D01*
X89876600Y-115038898D01*
X89876600Y-114088900D01*
X89051601Y-114088900D01*
X89051601Y-114338886D01*
X88144006Y-114338886D01*
X87499809Y-113694689D01*
X87499807Y-113694686D01*
X87353381Y-113548260D01*
X87144034Y-113338913D01*
X89051600Y-113338913D01*
X89051600Y-113588900D01*
X89876600Y-113588900D01*
X89876600Y-112638900D01*
X89751627Y-112638900D01*
X89751612Y-112638901D01*
X89648902Y-112649394D01*
X89482480Y-112704541D01*
X89482475Y-112704543D01*
X89333254Y-112796584D01*
X89209284Y-112920554D01*
X89117243Y-113069775D01*
X89117241Y-113069780D01*
X89062094Y-113236202D01*
X89062093Y-113236209D01*
X89051600Y-113338913D01*
X87144034Y-113338913D01*
X86763210Y-112958090D01*
X86763208Y-112958087D01*
X86082477Y-112277356D01*
X85399905Y-111594785D01*
X85373025Y-111554556D01*
X85367032Y-111540086D01*
X85266013Y-111388900D01*
X85257539Y-111376217D01*
X85118185Y-111236863D01*
X85118181Y-111236860D01*
X84954320Y-111127371D01*
X84954307Y-111127364D01*
X84772239Y-111051950D01*
X84772229Y-111051947D01*
X84578943Y-111013500D01*
X84578941Y-111013500D01*
X84502741Y-111013500D01*
X84251783Y-111013500D01*
X84184744Y-110993815D01*
X84138989Y-110941011D01*
X84129045Y-110871853D01*
X84158070Y-110808297D01*
X84164102Y-110801819D01*
X85440537Y-109525384D01*
X85440540Y-109525381D01*
X85550032Y-109361514D01*
X85625452Y-109179435D01*
X85663901Y-108986140D01*
X85663901Y-108789059D01*
X85663901Y-108783949D01*
X85663900Y-108783923D01*
X85663900Y-107840176D01*
X85683585Y-107773137D01*
X85736389Y-107727382D01*
X85763535Y-107719936D01*
X85763332Y-107719076D01*
X85770879Y-107717292D01*
X85770881Y-107717291D01*
X85770883Y-107717291D01*
X85905731Y-107666996D01*
X86020946Y-107580746D01*
X86107196Y-107465531D01*
X86157491Y-107330683D01*
X86163900Y-107271073D01*
X86163900Y-107271044D01*
X86663400Y-107271044D01*
X86669801Y-107330572D01*
X86669803Y-107330579D01*
X86720045Y-107465286D01*
X86720049Y-107465293D01*
X86806209Y-107580387D01*
X86806212Y-107580390D01*
X86921306Y-107666550D01*
X86921313Y-107666554D01*
X87056020Y-107716796D01*
X87056027Y-107716798D01*
X87115555Y-107723199D01*
X87115572Y-107723200D01*
X87913400Y-107723200D01*
X88413400Y-107723200D01*
X89211228Y-107723200D01*
X89211244Y-107723199D01*
X89270772Y-107716798D01*
X89270779Y-107716796D01*
X89405486Y-107666554D01*
X89405493Y-107666550D01*
X89520587Y-107580390D01*
X89520590Y-107580387D01*
X89606750Y-107465293D01*
X89606754Y-107465286D01*
X89656996Y-107330579D01*
X89656998Y-107330572D01*
X89663399Y-107271044D01*
X89663400Y-107271027D01*
X89663400Y-105473200D01*
X88413400Y-105473200D01*
X88413400Y-107723200D01*
X87913400Y-107723200D01*
X87913400Y-105473200D01*
X86663400Y-105473200D01*
X86663400Y-107271044D01*
X86163900Y-107271044D01*
X86163899Y-103175355D01*
X86663400Y-103175355D01*
X86663400Y-104973200D01*
X87913400Y-104973200D01*
X88413400Y-104973200D01*
X89663400Y-104973200D01*
X89663400Y-103175372D01*
X89663399Y-103175355D01*
X89656998Y-103115827D01*
X89656996Y-103115820D01*
X89606754Y-102981113D01*
X89606750Y-102981106D01*
X89520590Y-102866012D01*
X89520587Y-102866009D01*
X89405493Y-102779849D01*
X89405486Y-102779845D01*
X89270779Y-102729603D01*
X89270772Y-102729601D01*
X89211244Y-102723200D01*
X88413400Y-102723200D01*
X88413400Y-104973200D01*
X87913400Y-104973200D01*
X87913400Y-102723200D01*
X87115555Y-102723200D01*
X87056027Y-102729601D01*
X87056020Y-102729603D01*
X86921313Y-102779845D01*
X86921306Y-102779849D01*
X86806212Y-102866009D01*
X86806209Y-102866012D01*
X86720049Y-102981106D01*
X86720045Y-102981113D01*
X86669803Y-103115820D01*
X86669801Y-103115827D01*
X86663400Y-103175355D01*
X86163899Y-103175355D01*
X86163899Y-103175328D01*
X86157491Y-103115717D01*
X86107284Y-102981106D01*
X86107197Y-102980871D01*
X86107193Y-102980864D01*
X86020947Y-102865655D01*
X86020944Y-102865652D01*
X85905735Y-102779406D01*
X85905728Y-102779402D01*
X85770882Y-102729108D01*
X85770883Y-102729108D01*
X85711283Y-102722701D01*
X85711281Y-102722700D01*
X85711273Y-102722700D01*
X85711264Y-102722700D01*
X83615529Y-102722700D01*
X83615523Y-102722701D01*
X83555916Y-102729108D01*
X83421071Y-102779402D01*
X83421064Y-102779406D01*
X83305855Y-102865652D01*
X83305852Y-102865655D01*
X83219606Y-102980864D01*
X83219602Y-102980871D01*
X83169308Y-103115717D01*
X83164117Y-103164006D01*
X83162901Y-103175323D01*
X83162900Y-103175335D01*
X83162900Y-107271070D01*
X83162901Y-107271076D01*
X83169308Y-107330683D01*
X83219602Y-107465528D01*
X83219606Y-107465535D01*
X83305852Y-107580744D01*
X83305855Y-107580747D01*
X83421064Y-107666993D01*
X83421071Y-107666997D01*
X83555917Y-107717291D01*
X83563462Y-107719074D01*
X83562923Y-107721351D01*
X83616687Y-107743608D01*
X83656547Y-107800993D01*
X83662900Y-107840175D01*
X83662900Y-108421817D01*
X83643215Y-108488856D01*
X83626581Y-108509498D01*
X81105525Y-111030553D01*
X81044202Y-111064038D01*
X80978841Y-111060578D01*
X80967768Y-111056908D01*
X80959598Y-111054201D01*
X80959591Y-111054200D01*
X80856816Y-111043700D01*
X80856809Y-111043700D01*
X79204100Y-111043700D01*
X79137061Y-111024015D01*
X79091306Y-110971211D01*
X79080100Y-110919700D01*
X79080100Y-90133697D01*
X82856134Y-90133697D01*
X82856134Y-90133702D01*
X82875958Y-90360299D01*
X82875960Y-90360310D01*
X82934830Y-90580017D01*
X82934835Y-90580031D01*
X83030963Y-90786178D01*
X83082074Y-90859172D01*
X83761100Y-90180146D01*
X83761100Y-90186361D01*
X83788359Y-90288094D01*
X83841020Y-90379306D01*
X83915494Y-90453780D01*
X84006706Y-90506441D01*
X84108439Y-90533700D01*
X84114653Y-90533700D01*
X83435626Y-91212725D01*
X83508613Y-91263832D01*
X83508621Y-91263836D01*
X83714768Y-91359964D01*
X83714782Y-91359969D01*
X83934489Y-91418839D01*
X83934500Y-91418841D01*
X84161098Y-91438666D01*
X84161102Y-91438666D01*
X84387699Y-91418841D01*
X84387710Y-91418839D01*
X84607417Y-91359969D01*
X84607431Y-91359964D01*
X84813578Y-91263836D01*
X84886571Y-91212724D01*
X84207547Y-90533700D01*
X84213761Y-90533700D01*
X84315494Y-90506441D01*
X84406706Y-90453780D01*
X84481180Y-90379306D01*
X84533841Y-90288094D01*
X84561100Y-90186361D01*
X84561100Y-90180147D01*
X85240124Y-90859171D01*
X85291236Y-90786178D01*
X85387364Y-90580031D01*
X85387369Y-90580017D01*
X85446239Y-90360310D01*
X85446241Y-90360299D01*
X85466066Y-90133702D01*
X85466066Y-90133697D01*
X85446241Y-89907100D01*
X85446239Y-89907089D01*
X85387369Y-89687382D01*
X85387364Y-89687368D01*
X85328993Y-89562192D01*
X116640271Y-89562192D01*
X116640271Y-89562207D01*
X116659564Y-89856563D01*
X116659565Y-89856573D01*
X116659566Y-89856580D01*
X116714688Y-90133702D01*
X116717118Y-90145916D01*
X116717121Y-90145930D01*
X116811949Y-90425280D01*
X116942425Y-90689860D01*
X116942429Y-90689867D01*
X117106325Y-90935155D01*
X117300841Y-91156958D01*
X117522644Y-91351474D01*
X117653136Y-91438666D01*
X117767935Y-91515372D01*
X118032523Y-91645852D01*
X118311878Y-91740681D01*
X118601220Y-91798234D01*
X118629488Y-91800086D01*
X118895593Y-91817529D01*
X118895600Y-91817529D01*
X118895607Y-91817529D01*
X119131275Y-91802081D01*
X119189980Y-91798234D01*
X119479322Y-91740681D01*
X119758677Y-91645852D01*
X120023265Y-91515372D01*
X120268557Y-91351473D01*
X120490358Y-91156958D01*
X120684873Y-90935157D01*
X120848772Y-90689865D01*
X120979252Y-90425277D01*
X121074081Y-90145922D01*
X121076512Y-90133698D01*
X122352632Y-90133698D01*
X122352632Y-90133701D01*
X122372464Y-90360386D01*
X122372466Y-90360397D01*
X122431358Y-90580188D01*
X122431361Y-90580197D01*
X122527531Y-90786432D01*
X122527532Y-90786434D01*
X122658054Y-90972841D01*
X122818958Y-91133745D01*
X122818961Y-91133747D01*
X123005366Y-91264268D01*
X123211604Y-91360439D01*
X123431408Y-91419335D01*
X123593330Y-91433501D01*
X123658098Y-91439168D01*
X123658100Y-91439168D01*
X123658102Y-91439168D01*
X123714773Y-91434209D01*
X123884792Y-91419335D01*
X124104596Y-91360439D01*
X124310834Y-91264268D01*
X124497239Y-91133747D01*
X124658147Y-90972839D01*
X124788668Y-90786434D01*
X124884839Y-90580196D01*
X124943735Y-90360392D01*
X124949140Y-90298604D01*
X124974592Y-90233537D01*
X124984979Y-90221739D01*
X130041501Y-85165219D01*
X130102824Y-85131734D01*
X130129182Y-85128900D01*
X132616803Y-85128900D01*
X132616808Y-85128900D01*
X132719597Y-85118399D01*
X132886134Y-85063214D01*
X133035455Y-84971111D01*
X133159511Y-84847055D01*
X133251614Y-84697734D01*
X133306799Y-84531197D01*
X133317300Y-84428408D01*
X133317300Y-84402900D01*
X133336985Y-84335861D01*
X133389789Y-84290106D01*
X133441300Y-84278900D01*
X134740856Y-84278900D01*
X134807895Y-84298585D01*
X134839232Y-84327414D01*
X134972533Y-84501136D01*
X134972539Y-84501143D01*
X135144056Y-84672660D01*
X135144063Y-84672666D01*
X135222622Y-84732946D01*
X135336511Y-84820336D01*
X135546588Y-84941624D01*
X135770700Y-85034454D01*
X136005011Y-85097238D01*
X136165740Y-85118398D01*
X136245511Y-85128900D01*
X136245512Y-85128900D01*
X137088089Y-85128900D01*
X137167852Y-85118399D01*
X137328589Y-85097238D01*
X137562900Y-85034454D01*
X137787012Y-84941624D01*
X137997089Y-84820336D01*
X138189538Y-84672665D01*
X138361065Y-84501138D01*
X138508736Y-84308689D01*
X138630024Y-84098612D01*
X138722854Y-83874500D01*
X138785638Y-83640189D01*
X138817300Y-83399688D01*
X138817300Y-83157112D01*
X138785638Y-82916611D01*
X138722854Y-82682300D01*
X138630024Y-82458188D01*
X138508736Y-82248111D01*
X138416873Y-82128392D01*
X138361066Y-82055663D01*
X138361060Y-82055656D01*
X138189543Y-81884139D01*
X138189536Y-81884133D01*
X137997093Y-81736467D01*
X137997092Y-81736466D01*
X137997089Y-81736464D01*
X137787012Y-81615176D01*
X137787005Y-81615173D01*
X137562904Y-81522347D01*
X137328585Y-81459561D01*
X137088089Y-81427900D01*
X137088088Y-81427900D01*
X136245512Y-81427900D01*
X136245511Y-81427900D01*
X136005014Y-81459561D01*
X135770695Y-81522347D01*
X135546594Y-81615173D01*
X135546585Y-81615177D01*
X135336506Y-81736467D01*
X135144063Y-81884133D01*
X135144056Y-81884139D01*
X134972539Y-82055656D01*
X134972533Y-82055663D01*
X134839232Y-82229386D01*
X134782804Y-82270589D01*
X134740856Y-82277900D01*
X133441300Y-82277900D01*
X133374261Y-82258215D01*
X133328506Y-82205411D01*
X133317300Y-82153900D01*
X133317300Y-82128397D01*
X133317299Y-82128384D01*
X133306799Y-82025604D01*
X133306799Y-82025603D01*
X133251614Y-81859066D01*
X133175993Y-81736467D01*
X133159513Y-81709748D01*
X133159510Y-81709744D01*
X133035455Y-81585689D01*
X133035451Y-81585686D01*
X132886137Y-81493587D01*
X132886135Y-81493586D01*
X132802865Y-81465993D01*
X132719597Y-81438401D01*
X132719595Y-81438400D01*
X132616815Y-81427900D01*
X132616808Y-81427900D01*
X129716792Y-81427900D01*
X129716784Y-81427900D01*
X129614004Y-81438400D01*
X129614003Y-81438401D01*
X129447464Y-81493586D01*
X129447462Y-81493587D01*
X129298148Y-81585686D01*
X129298144Y-81585689D01*
X129174089Y-81709744D01*
X129174086Y-81709748D01*
X129081987Y-81859062D01*
X129081986Y-81859064D01*
X129026801Y-82025603D01*
X129026800Y-82025604D01*
X129016300Y-82128384D01*
X129016300Y-83309217D01*
X128996615Y-83376256D01*
X128979981Y-83396898D01*
X123570067Y-88806811D01*
X123508744Y-88840296D01*
X123493196Y-88842658D01*
X123431411Y-88848064D01*
X123431402Y-88848066D01*
X123211611Y-88906958D01*
X123211602Y-88906961D01*
X123005367Y-89003131D01*
X123005365Y-89003132D01*
X122818958Y-89133654D01*
X122658054Y-89294558D01*
X122527532Y-89480965D01*
X122527531Y-89480967D01*
X122431361Y-89687202D01*
X122431358Y-89687211D01*
X122372466Y-89907002D01*
X122372464Y-89907013D01*
X122352632Y-90133698D01*
X121076512Y-90133698D01*
X121131634Y-89856580D01*
X121136644Y-89780146D01*
X121150929Y-89562207D01*
X121150929Y-89562192D01*
X121131635Y-89267836D01*
X121131634Y-89267820D01*
X121074081Y-88978478D01*
X120979252Y-88699123D01*
X120848772Y-88434536D01*
X120684873Y-88189243D01*
X120642255Y-88140647D01*
X120490358Y-87967441D01*
X120268555Y-87772925D01*
X120023267Y-87609029D01*
X120023260Y-87609025D01*
X119758680Y-87478549D01*
X119479330Y-87383721D01*
X119479324Y-87383719D01*
X119479322Y-87383719D01*
X119189980Y-87326166D01*
X119189973Y-87326165D01*
X119189963Y-87326164D01*
X118895607Y-87306871D01*
X118895593Y-87306871D01*
X118601236Y-87326164D01*
X118601224Y-87326165D01*
X118601220Y-87326166D01*
X118601212Y-87326167D01*
X118601209Y-87326168D01*
X118311883Y-87383718D01*
X118311869Y-87383721D01*
X118032519Y-87478549D01*
X117767934Y-87609028D01*
X117522641Y-87772928D01*
X117300841Y-87967441D01*
X117106328Y-88189241D01*
X116942428Y-88434534D01*
X116811949Y-88699119D01*
X116717121Y-88978469D01*
X116717118Y-88978483D01*
X116659568Y-89267809D01*
X116659564Y-89267836D01*
X116640271Y-89562192D01*
X85328993Y-89562192D01*
X85291236Y-89481221D01*
X85291232Y-89481213D01*
X85240125Y-89408226D01*
X84561100Y-90087251D01*
X84561100Y-90081039D01*
X84533841Y-89979306D01*
X84481180Y-89888094D01*
X84406706Y-89813620D01*
X84315494Y-89760959D01*
X84213761Y-89733700D01*
X84207545Y-89733700D01*
X84886572Y-89054674D01*
X84813578Y-89003563D01*
X84607431Y-88907435D01*
X84607417Y-88907430D01*
X84387710Y-88848560D01*
X84387699Y-88848558D01*
X84161102Y-88828734D01*
X84161098Y-88828734D01*
X83934500Y-88848558D01*
X83934489Y-88848560D01*
X83714782Y-88907430D01*
X83714773Y-88907434D01*
X83508616Y-89003566D01*
X83508612Y-89003568D01*
X83435626Y-89054673D01*
X83435626Y-89054674D01*
X84114653Y-89733700D01*
X84108439Y-89733700D01*
X84006706Y-89760959D01*
X83915494Y-89813620D01*
X83841020Y-89888094D01*
X83788359Y-89979306D01*
X83761100Y-90081039D01*
X83761100Y-90087252D01*
X83082074Y-89408226D01*
X83082073Y-89408226D01*
X83030968Y-89481212D01*
X83030966Y-89481216D01*
X82934834Y-89687373D01*
X82934830Y-89687382D01*
X82875960Y-89907089D01*
X82875958Y-89907100D01*
X82856134Y-90133697D01*
X79080100Y-90133697D01*
X79080100Y-79532983D01*
X79099785Y-79465944D01*
X79116419Y-79445302D01*
X79156949Y-79404771D01*
X79209340Y-79352381D01*
X79209340Y-79352379D01*
X79216401Y-79345319D01*
X79216407Y-79345312D01*
X79733319Y-78828400D01*
X129033750Y-78828400D01*
X130512679Y-78828400D01*
X130493701Y-78874218D01*
X130466800Y-79009456D01*
X130466800Y-79147344D01*
X130493701Y-79282582D01*
X130512679Y-79328400D01*
X129033750Y-79328400D01*
X129048453Y-79440087D01*
X129111221Y-79674339D01*
X129204020Y-79898378D01*
X129204027Y-79898393D01*
X129325280Y-80108409D01*
X129472910Y-80300805D01*
X129472916Y-80300812D01*
X129644387Y-80472283D01*
X129644394Y-80472289D01*
X129836790Y-80619919D01*
X130046806Y-80741172D01*
X130046821Y-80741179D01*
X130270860Y-80833978D01*
X130505112Y-80896746D01*
X130745535Y-80928398D01*
X130745552Y-80928400D01*
X130916800Y-80928400D01*
X130916800Y-79732520D01*
X130962618Y-79751499D01*
X131097856Y-79778400D01*
X131235744Y-79778400D01*
X131370982Y-79751499D01*
X131416800Y-79732520D01*
X131416800Y-80928400D01*
X131588048Y-80928400D01*
X131588064Y-80928398D01*
X131828487Y-80896746D01*
X132062739Y-80833978D01*
X132286778Y-80741179D01*
X132286793Y-80741172D01*
X132496809Y-80619919D01*
X132689205Y-80472289D01*
X132689212Y-80472283D01*
X132860683Y-80300812D01*
X132860689Y-80300805D01*
X133008319Y-80108409D01*
X133129572Y-79898393D01*
X133129579Y-79898378D01*
X133222378Y-79674339D01*
X133285146Y-79440087D01*
X133299850Y-79328400D01*
X131820921Y-79328400D01*
X131839899Y-79282582D01*
X131866800Y-79147344D01*
X131866800Y-79009456D01*
X131839899Y-78874218D01*
X131820921Y-78828400D01*
X133299849Y-78828400D01*
X134533750Y-78828400D01*
X136012679Y-78828400D01*
X135993701Y-78874218D01*
X135966800Y-79009456D01*
X135966800Y-79147344D01*
X135993701Y-79282582D01*
X136012679Y-79328400D01*
X134533750Y-79328400D01*
X134548453Y-79440087D01*
X134611221Y-79674339D01*
X134704020Y-79898378D01*
X134704027Y-79898393D01*
X134825280Y-80108409D01*
X134972910Y-80300805D01*
X134972916Y-80300812D01*
X135144387Y-80472283D01*
X135144394Y-80472289D01*
X135336790Y-80619919D01*
X135546806Y-80741172D01*
X135546821Y-80741179D01*
X135770860Y-80833978D01*
X136005112Y-80896746D01*
X136245535Y-80928398D01*
X136245552Y-80928400D01*
X136416800Y-80928400D01*
X136416800Y-79732520D01*
X136462618Y-79751499D01*
X136597856Y-79778400D01*
X136735744Y-79778400D01*
X136870982Y-79751499D01*
X136916800Y-79732520D01*
X136916800Y-80928400D01*
X137088048Y-80928400D01*
X137088064Y-80928398D01*
X137328487Y-80896746D01*
X137562739Y-80833978D01*
X137786778Y-80741179D01*
X137786793Y-80741172D01*
X137996809Y-80619919D01*
X138189205Y-80472289D01*
X138189212Y-80472283D01*
X138360683Y-80300812D01*
X138360689Y-80300805D01*
X138508319Y-80108409D01*
X138629572Y-79898393D01*
X138629579Y-79898378D01*
X138722378Y-79674339D01*
X138785146Y-79440087D01*
X138799850Y-79328400D01*
X137320921Y-79328400D01*
X137339899Y-79282582D01*
X137366800Y-79147344D01*
X137366800Y-79009456D01*
X137339899Y-78874218D01*
X137320921Y-78828400D01*
X138799849Y-78828400D01*
X138785146Y-78716712D01*
X138722378Y-78482460D01*
X138629579Y-78258421D01*
X138629572Y-78258406D01*
X138508319Y-78048390D01*
X138360689Y-77855994D01*
X138360683Y-77855987D01*
X138189212Y-77684516D01*
X138189205Y-77684510D01*
X137996809Y-77536880D01*
X137786793Y-77415627D01*
X137786778Y-77415620D01*
X137562739Y-77322821D01*
X137328487Y-77260053D01*
X137088064Y-77228401D01*
X137088048Y-77228400D01*
X136916800Y-77228400D01*
X136916800Y-78424279D01*
X136870982Y-78405301D01*
X136735744Y-78378400D01*
X136597856Y-78378400D01*
X136462618Y-78405301D01*
X136416800Y-78424279D01*
X136416800Y-77228400D01*
X136245552Y-77228400D01*
X136245535Y-77228401D01*
X136005112Y-77260053D01*
X135770860Y-77322821D01*
X135546821Y-77415620D01*
X135546806Y-77415627D01*
X135336790Y-77536880D01*
X135144394Y-77684510D01*
X135144387Y-77684516D01*
X134972916Y-77855987D01*
X134972910Y-77855994D01*
X134825280Y-78048390D01*
X134704027Y-78258406D01*
X134704020Y-78258421D01*
X134611221Y-78482460D01*
X134548453Y-78716712D01*
X134533750Y-78828400D01*
X133299849Y-78828400D01*
X133285146Y-78716712D01*
X133222378Y-78482460D01*
X133129579Y-78258421D01*
X133129572Y-78258406D01*
X133008319Y-78048390D01*
X132860689Y-77855994D01*
X132860683Y-77855987D01*
X132689212Y-77684516D01*
X132689205Y-77684510D01*
X132496809Y-77536880D01*
X132286793Y-77415627D01*
X132286778Y-77415620D01*
X132062739Y-77322821D01*
X131828487Y-77260053D01*
X131588064Y-77228401D01*
X131588048Y-77228400D01*
X131416800Y-77228400D01*
X131416800Y-78424279D01*
X131370982Y-78405301D01*
X131235744Y-78378400D01*
X131097856Y-78378400D01*
X130962618Y-78405301D01*
X130916800Y-78424279D01*
X130916800Y-77228400D01*
X130745552Y-77228400D01*
X130745535Y-77228401D01*
X130505112Y-77260053D01*
X130270860Y-77322821D01*
X130046821Y-77415620D01*
X130046806Y-77415627D01*
X129836790Y-77536880D01*
X129644394Y-77684510D01*
X129644387Y-77684516D01*
X129472916Y-77855987D01*
X129472910Y-77855994D01*
X129325280Y-78048390D01*
X129204027Y-78258406D01*
X129204020Y-78258421D01*
X129111221Y-78482460D01*
X129048453Y-78716712D01*
X129033750Y-78828400D01*
X79733319Y-78828400D01*
X84249133Y-74312585D01*
X84310454Y-74279102D01*
X84325998Y-74276741D01*
X84387792Y-74271335D01*
X84607596Y-74212439D01*
X84813834Y-74116268D01*
X85000239Y-73985747D01*
X85161147Y-73824839D01*
X85291668Y-73638434D01*
X85328153Y-73560192D01*
X86668271Y-73560192D01*
X86668271Y-73560207D01*
X86687564Y-73854563D01*
X86687565Y-73854573D01*
X86687566Y-73854580D01*
X86739618Y-74116268D01*
X86745118Y-74143916D01*
X86745121Y-74143930D01*
X86839949Y-74423280D01*
X86970425Y-74687860D01*
X86970429Y-74687867D01*
X87134325Y-74933155D01*
X87328841Y-75154958D01*
X87550643Y-75349473D01*
X87795935Y-75513372D01*
X88060523Y-75643852D01*
X88339878Y-75738681D01*
X88629220Y-75796234D01*
X88657488Y-75798086D01*
X88923593Y-75815529D01*
X88923600Y-75815529D01*
X88923607Y-75815529D01*
X89159275Y-75800081D01*
X89217980Y-75796234D01*
X89507322Y-75738681D01*
X89786677Y-75643852D01*
X90051265Y-75513372D01*
X90296557Y-75349473D01*
X90518358Y-75154958D01*
X90712873Y-74933157D01*
X90876772Y-74687865D01*
X91007252Y-74423277D01*
X91102081Y-74143922D01*
X91159634Y-73854580D01*
X91173801Y-73638434D01*
X91178929Y-73560207D01*
X91178929Y-73560192D01*
X91159635Y-73265836D01*
X91159634Y-73265820D01*
X91103915Y-72985697D01*
X122353134Y-72985697D01*
X122353134Y-72985702D01*
X122372958Y-73212299D01*
X122372960Y-73212310D01*
X122431830Y-73432017D01*
X122431835Y-73432031D01*
X122527963Y-73638178D01*
X122579074Y-73711172D01*
X123258100Y-73032146D01*
X123258100Y-73038361D01*
X123285359Y-73140094D01*
X123338020Y-73231306D01*
X123412494Y-73305780D01*
X123503706Y-73358441D01*
X123605439Y-73385700D01*
X123611653Y-73385700D01*
X122932626Y-74064725D01*
X123005613Y-74115832D01*
X123005621Y-74115836D01*
X123211768Y-74211964D01*
X123211782Y-74211969D01*
X123431489Y-74270839D01*
X123431500Y-74270841D01*
X123658098Y-74290666D01*
X123658102Y-74290666D01*
X123884699Y-74270841D01*
X123884710Y-74270839D01*
X124104417Y-74211969D01*
X124104431Y-74211964D01*
X124310578Y-74115836D01*
X124383571Y-74064724D01*
X123704547Y-73385700D01*
X123710761Y-73385700D01*
X123812494Y-73358441D01*
X123903706Y-73305780D01*
X123978180Y-73231306D01*
X124030841Y-73140094D01*
X124058100Y-73038361D01*
X124058100Y-73032147D01*
X124737124Y-73711171D01*
X124788236Y-73638178D01*
X124884364Y-73432031D01*
X124884369Y-73432017D01*
X124943239Y-73212310D01*
X124943241Y-73212299D01*
X124963066Y-72985702D01*
X124963066Y-72985697D01*
X124943241Y-72759100D01*
X124943239Y-72759089D01*
X124884369Y-72539382D01*
X124884364Y-72539368D01*
X124788236Y-72333221D01*
X124788232Y-72333213D01*
X124737125Y-72260226D01*
X124058100Y-72939251D01*
X124058100Y-72933039D01*
X124030841Y-72831306D01*
X123978180Y-72740094D01*
X123903706Y-72665620D01*
X123812494Y-72612959D01*
X123710761Y-72585700D01*
X123704545Y-72585700D01*
X124383572Y-71906674D01*
X124310578Y-71855563D01*
X124104431Y-71759435D01*
X124104417Y-71759430D01*
X123884710Y-71700560D01*
X123884699Y-71700558D01*
X123658102Y-71680734D01*
X123658098Y-71680734D01*
X123431500Y-71700558D01*
X123431489Y-71700560D01*
X123211782Y-71759430D01*
X123211773Y-71759434D01*
X123005616Y-71855566D01*
X123005612Y-71855568D01*
X122932626Y-71906673D01*
X122932626Y-71906674D01*
X123611653Y-72585700D01*
X123605439Y-72585700D01*
X123503706Y-72612959D01*
X123412494Y-72665620D01*
X123338020Y-72740094D01*
X123285359Y-72831306D01*
X123258100Y-72933039D01*
X123258100Y-72939252D01*
X122579074Y-72260226D01*
X122579073Y-72260226D01*
X122527968Y-72333212D01*
X122527966Y-72333216D01*
X122431834Y-72539373D01*
X122431830Y-72539382D01*
X122372960Y-72759089D01*
X122372958Y-72759100D01*
X122353134Y-72985697D01*
X91103915Y-72985697D01*
X91102081Y-72976478D01*
X91007252Y-72697123D01*
X90876772Y-72432536D01*
X90712873Y-72187243D01*
X90536083Y-71985653D01*
X90518358Y-71965441D01*
X90296555Y-71770925D01*
X90051267Y-71607029D01*
X90051260Y-71607025D01*
X89786680Y-71476549D01*
X89507330Y-71381721D01*
X89507324Y-71381719D01*
X89507322Y-71381719D01*
X89217980Y-71324166D01*
X89217973Y-71324165D01*
X89217963Y-71324164D01*
X88923607Y-71304871D01*
X88923593Y-71304871D01*
X88629236Y-71324164D01*
X88629224Y-71324165D01*
X88629220Y-71324166D01*
X88629212Y-71324167D01*
X88629209Y-71324168D01*
X88339883Y-71381718D01*
X88339869Y-71381721D01*
X88060519Y-71476549D01*
X87795934Y-71607028D01*
X87550641Y-71770928D01*
X87328841Y-71965441D01*
X87134328Y-72187241D01*
X86970428Y-72432534D01*
X86839949Y-72697119D01*
X86745121Y-72976469D01*
X86745118Y-72976483D01*
X86687568Y-73265809D01*
X86687564Y-73265836D01*
X86668271Y-73560192D01*
X85328153Y-73560192D01*
X85387839Y-73432196D01*
X85446735Y-73212392D01*
X85466568Y-72985700D01*
X85465760Y-72976469D01*
X85453060Y-72831306D01*
X85446735Y-72759008D01*
X85387839Y-72539204D01*
X85291668Y-72332966D01*
X85161147Y-72146561D01*
X85161145Y-72146558D01*
X85000241Y-71985654D01*
X84813834Y-71855132D01*
X84813832Y-71855131D01*
X84607597Y-71758961D01*
X84607588Y-71758958D01*
X84387797Y-71700066D01*
X84387793Y-71700065D01*
X84387792Y-71700065D01*
X84387791Y-71700064D01*
X84387786Y-71700064D01*
X84161102Y-71680232D01*
X84161098Y-71680232D01*
X83934413Y-71700064D01*
X83934402Y-71700066D01*
X83714611Y-71758958D01*
X83714602Y-71758961D01*
X83508367Y-71855131D01*
X83508365Y-71855132D01*
X83321958Y-71985654D01*
X83161054Y-72146558D01*
X83030532Y-72332965D01*
X83030531Y-72332967D01*
X82934361Y-72539202D01*
X82934358Y-72539211D01*
X82875466Y-72759002D01*
X82875464Y-72759011D01*
X82870058Y-72820796D01*
X82844604Y-72885864D01*
X82834211Y-72897667D01*
X79240981Y-76490898D01*
X79179658Y-76524383D01*
X79109966Y-76519399D01*
X79054033Y-76477527D01*
X79029616Y-76412063D01*
X79029300Y-76403217D01*
X79029300Y-66368999D01*
X130379559Y-66368999D01*
X130379559Y-66369000D01*
X130399310Y-66745872D01*
X130458346Y-67118607D01*
X130458347Y-67118614D01*
X130556023Y-67483147D01*
X130691267Y-67835468D01*
X130862599Y-68171725D01*
X131068135Y-68488223D01*
X131068137Y-68488225D01*
X131305635Y-68781511D01*
X131572489Y-69048365D01*
X131572493Y-69048368D01*
X131865776Y-69285864D01*
X132182274Y-69491400D01*
X132182279Y-69491403D01*
X132518535Y-69662734D01*
X132870857Y-69797978D01*
X133235387Y-69895653D01*
X133608129Y-69954690D01*
X133964155Y-69973348D01*
X133984999Y-69974441D01*
X133985000Y-69974441D01*
X133985001Y-69974441D01*
X134004752Y-69973405D01*
X134361871Y-69954690D01*
X134734613Y-69895653D01*
X135099143Y-69797978D01*
X135451465Y-69662734D01*
X135787721Y-69491403D01*
X136104225Y-69285863D01*
X136397511Y-69048365D01*
X136664365Y-68781511D01*
X136901863Y-68488225D01*
X137107403Y-68171721D01*
X137278734Y-67835465D01*
X137413978Y-67483143D01*
X137511653Y-67118613D01*
X137570690Y-66745871D01*
X137590441Y-66369000D01*
X137570690Y-65992129D01*
X137511653Y-65619387D01*
X137413978Y-65254857D01*
X137278734Y-64902535D01*
X137107403Y-64566280D01*
X136901863Y-64249775D01*
X136664365Y-63956489D01*
X136397511Y-63689635D01*
X136288797Y-63601600D01*
X136104223Y-63452135D01*
X135787725Y-63246599D01*
X135451468Y-63075267D01*
X135099147Y-62940023D01*
X134734614Y-62842347D01*
X134734607Y-62842346D01*
X134361872Y-62783310D01*
X133985001Y-62763559D01*
X133984999Y-62763559D01*
X133608127Y-62783310D01*
X133235392Y-62842346D01*
X133235385Y-62842347D01*
X132870852Y-62940023D01*
X132518531Y-63075267D01*
X132182275Y-63246599D01*
X131865776Y-63452135D01*
X131572493Y-63689631D01*
X131572485Y-63689638D01*
X131305638Y-63956485D01*
X131305631Y-63956493D01*
X131068135Y-64249776D01*
X130862599Y-64566275D01*
X130691267Y-64902531D01*
X130556023Y-65254852D01*
X130458347Y-65619385D01*
X130458346Y-65619392D01*
X130399310Y-65992127D01*
X130379559Y-66368999D01*
X79029300Y-66368999D01*
X79029300Y-63601595D01*
X81613237Y-63601595D01*
X81613237Y-63601604D01*
X81633060Y-63866135D01*
X81633061Y-63866140D01*
X81692090Y-64124766D01*
X81692096Y-64124785D01*
X81789014Y-64371728D01*
X81789013Y-64371728D01*
X81921656Y-64601471D01*
X81971841Y-64664403D01*
X82905236Y-63731007D01*
X82922275Y-63794593D01*
X82988101Y-63908607D01*
X83081193Y-64001699D01*
X83195207Y-64067525D01*
X83258791Y-64084562D01*
X82324638Y-65018713D01*
X82500718Y-65138762D01*
X82500726Y-65138767D01*
X82739730Y-65253864D01*
X82739728Y-65253864D01*
X82993225Y-65332058D01*
X82993231Y-65332059D01*
X83255551Y-65371599D01*
X83255558Y-65371600D01*
X83520842Y-65371600D01*
X83520848Y-65371599D01*
X83783168Y-65332059D01*
X83783174Y-65332058D01*
X84036670Y-65253864D01*
X84275674Y-65138767D01*
X84275684Y-65138760D01*
X84451760Y-65018713D01*
X83517608Y-64084562D01*
X83581193Y-64067525D01*
X83695207Y-64001699D01*
X83788299Y-63908607D01*
X83854125Y-63794593D01*
X83871162Y-63731008D01*
X84804557Y-64664403D01*
X84854742Y-64601471D01*
X84987385Y-64371728D01*
X85084303Y-64124785D01*
X85084309Y-64124766D01*
X85143338Y-63866140D01*
X85143339Y-63866135D01*
X85163163Y-63601604D01*
X85163163Y-63601595D01*
X122253237Y-63601595D01*
X122253237Y-63601604D01*
X122273060Y-63866135D01*
X122273061Y-63866140D01*
X122332090Y-64124766D01*
X122332096Y-64124785D01*
X122429014Y-64371728D01*
X122429013Y-64371728D01*
X122561656Y-64601471D01*
X122611841Y-64664403D01*
X123545237Y-63731008D01*
X123562275Y-63794593D01*
X123628101Y-63908607D01*
X123721193Y-64001699D01*
X123835207Y-64067525D01*
X123898791Y-64084562D01*
X122964638Y-65018713D01*
X123140718Y-65138762D01*
X123140726Y-65138767D01*
X123379730Y-65253864D01*
X123379728Y-65253864D01*
X123633225Y-65332058D01*
X123633231Y-65332059D01*
X123895551Y-65371599D01*
X123895558Y-65371600D01*
X124160842Y-65371600D01*
X124160848Y-65371599D01*
X124423168Y-65332059D01*
X124423174Y-65332058D01*
X124676670Y-65253864D01*
X124915674Y-65138767D01*
X124915684Y-65138760D01*
X125091760Y-65018713D01*
X124157608Y-64084562D01*
X124221193Y-64067525D01*
X124335207Y-64001699D01*
X124428299Y-63908607D01*
X124494125Y-63794593D01*
X124511162Y-63731008D01*
X125444557Y-64664403D01*
X125494742Y-64601471D01*
X125627385Y-64371728D01*
X125724303Y-64124785D01*
X125724309Y-64124766D01*
X125783338Y-63866140D01*
X125783339Y-63866135D01*
X125803163Y-63601604D01*
X125803163Y-63601595D01*
X125783339Y-63337064D01*
X125783338Y-63337059D01*
X125724309Y-63078433D01*
X125724303Y-63078414D01*
X125627385Y-62831471D01*
X125627386Y-62831471D01*
X125494743Y-62601728D01*
X125444556Y-62538796D01*
X124511162Y-63472190D01*
X124494125Y-63408607D01*
X124428299Y-63294593D01*
X124335207Y-63201501D01*
X124221193Y-63135675D01*
X124157609Y-63118637D01*
X125091760Y-62184485D01*
X124915675Y-62064433D01*
X124915674Y-62064432D01*
X124676669Y-61949335D01*
X124676671Y-61949335D01*
X124423174Y-61871141D01*
X124423168Y-61871140D01*
X124160848Y-61831600D01*
X123895551Y-61831600D01*
X123633231Y-61871140D01*
X123633225Y-61871141D01*
X123379729Y-61949335D01*
X123140724Y-62064434D01*
X123140711Y-62064441D01*
X122964638Y-62184484D01*
X123898791Y-63118637D01*
X123835207Y-63135675D01*
X123721193Y-63201501D01*
X123628101Y-63294593D01*
X123562275Y-63408607D01*
X123545237Y-63472190D01*
X122611842Y-62538796D01*
X122561657Y-62601727D01*
X122429014Y-62831471D01*
X122332096Y-63078414D01*
X122332090Y-63078433D01*
X122273061Y-63337059D01*
X122273060Y-63337064D01*
X122253237Y-63601595D01*
X85163163Y-63601595D01*
X85143339Y-63337064D01*
X85143338Y-63337059D01*
X85084309Y-63078433D01*
X85084303Y-63078414D01*
X84987385Y-62831471D01*
X84987386Y-62831471D01*
X84854743Y-62601728D01*
X84804556Y-62538796D01*
X83871162Y-63472190D01*
X83854125Y-63408607D01*
X83788299Y-63294593D01*
X83695207Y-63201501D01*
X83581193Y-63135675D01*
X83517609Y-63118637D01*
X84451760Y-62184485D01*
X84275675Y-62064433D01*
X84275674Y-62064432D01*
X84036669Y-61949335D01*
X84036671Y-61949335D01*
X83783174Y-61871141D01*
X83783168Y-61871140D01*
X83520848Y-61831600D01*
X83255551Y-61831600D01*
X82993231Y-61871140D01*
X82993225Y-61871141D01*
X82739729Y-61949335D01*
X82500724Y-62064434D01*
X82500711Y-62064441D01*
X82324638Y-62184484D01*
X83258791Y-63118637D01*
X83195207Y-63135675D01*
X83081193Y-63201501D01*
X82988101Y-63294593D01*
X82922275Y-63408607D01*
X82905237Y-63472191D01*
X81971842Y-62538796D01*
X81921657Y-62601727D01*
X81789014Y-62831471D01*
X81692096Y-63078414D01*
X81692090Y-63078433D01*
X81633061Y-63337059D01*
X81633060Y-63337064D01*
X81613237Y-63601595D01*
X79029300Y-63601595D01*
X79029300Y-53129814D01*
X129347000Y-53129814D01*
X129347000Y-54029800D01*
X130842879Y-54029800D01*
X130823901Y-54075618D01*
X130797000Y-54210856D01*
X130797000Y-54348744D01*
X130823901Y-54483982D01*
X130842879Y-54529800D01*
X129347000Y-54529800D01*
X129347000Y-55429785D01*
X129357493Y-55532489D01*
X129357494Y-55532496D01*
X129412641Y-55698918D01*
X129412643Y-55698923D01*
X129504684Y-55848144D01*
X129628655Y-55972115D01*
X129777876Y-56064156D01*
X129777881Y-56064158D01*
X129944303Y-56119305D01*
X129944310Y-56119306D01*
X130047014Y-56129799D01*
X130047027Y-56129800D01*
X131247000Y-56129800D01*
X131247000Y-54933920D01*
X131292818Y-54952899D01*
X131428056Y-54979800D01*
X131565944Y-54979800D01*
X131701182Y-54952899D01*
X131747000Y-54933920D01*
X131747000Y-56129800D01*
X132946973Y-56129800D01*
X132946985Y-56129799D01*
X133049689Y-56119306D01*
X133049696Y-56119305D01*
X133216118Y-56064158D01*
X133216123Y-56064156D01*
X133365344Y-55972115D01*
X133489315Y-55848144D01*
X133581356Y-55698923D01*
X133581358Y-55698918D01*
X133636505Y-55532496D01*
X133636506Y-55532489D01*
X133646999Y-55429785D01*
X133647000Y-55429772D01*
X133647000Y-54529800D01*
X132151121Y-54529800D01*
X132170099Y-54483982D01*
X132197000Y-54348744D01*
X132197000Y-54210856D01*
X132170099Y-54075618D01*
X132151121Y-54029800D01*
X133647000Y-54029800D01*
X133647000Y-53129827D01*
X133646999Y-53129814D01*
X133636506Y-53027110D01*
X133636505Y-53027103D01*
X133581358Y-52860681D01*
X133581356Y-52860676D01*
X133489315Y-52711455D01*
X133365344Y-52587484D01*
X133216123Y-52495443D01*
X133216118Y-52495441D01*
X133049696Y-52440294D01*
X133049689Y-52440293D01*
X132946985Y-52429800D01*
X131747000Y-52429800D01*
X131747000Y-53625679D01*
X131701182Y-53606701D01*
X131565944Y-53579800D01*
X131428056Y-53579800D01*
X131292818Y-53606701D01*
X131247000Y-53625679D01*
X131247000Y-52429800D01*
X130047014Y-52429800D01*
X129944310Y-52440293D01*
X129944303Y-52440294D01*
X129777881Y-52495441D01*
X129777876Y-52495443D01*
X129628655Y-52587484D01*
X129504684Y-52711455D01*
X129412643Y-52860676D01*
X129412641Y-52860681D01*
X129357494Y-53027103D01*
X129357493Y-53027110D01*
X129347000Y-53129814D01*
X79029300Y-53129814D01*
X79029300Y-51646781D01*
X79048985Y-51579742D01*
X79065614Y-51559105D01*
X82996301Y-47628417D01*
X83057624Y-47594933D01*
X83083982Y-47592099D01*
X84706071Y-47592099D01*
X84706072Y-47592099D01*
X84765683Y-47585691D01*
X84900531Y-47535396D01*
X85015746Y-47449146D01*
X85101996Y-47333931D01*
X85152291Y-47199083D01*
X85158700Y-47139473D01*
X85158699Y-45821595D01*
X122252735Y-45821595D01*
X122252735Y-45821604D01*
X122272563Y-46086209D01*
X122272564Y-46086214D01*
X122331610Y-46344913D01*
X122331612Y-46344922D01*
X122331614Y-46344927D01*
X122428561Y-46591945D01*
X122561242Y-46821755D01*
X122726692Y-47029223D01*
X122921216Y-47209714D01*
X123140468Y-47359198D01*
X123379550Y-47474334D01*
X123633122Y-47552550D01*
X123633123Y-47552550D01*
X123633126Y-47552551D01*
X123895511Y-47592099D01*
X123895516Y-47592099D01*
X123895519Y-47592100D01*
X123895520Y-47592100D01*
X124160880Y-47592100D01*
X124160881Y-47592100D01*
X124160888Y-47592099D01*
X124423273Y-47552551D01*
X124423274Y-47552550D01*
X124423278Y-47552550D01*
X124676850Y-47474334D01*
X124915933Y-47359198D01*
X125135184Y-47209714D01*
X125329708Y-47029223D01*
X125457651Y-46868786D01*
X125514839Y-46828647D01*
X125554598Y-46822100D01*
X128073018Y-46822100D01*
X128140057Y-46841785D01*
X128160699Y-46858419D01*
X134899839Y-53597559D01*
X134933324Y-53658882D01*
X134931933Y-53717333D01*
X134878161Y-53918012D01*
X134857413Y-54075618D01*
X134846500Y-54158512D01*
X134846500Y-54401088D01*
X134878162Y-54641589D01*
X134909554Y-54758744D01*
X134940947Y-54875904D01*
X135033773Y-55100005D01*
X135033776Y-55100012D01*
X135155064Y-55310089D01*
X135155066Y-55310092D01*
X135155067Y-55310093D01*
X135302733Y-55502536D01*
X135302739Y-55502543D01*
X135474256Y-55674060D01*
X135474263Y-55674066D01*
X135587321Y-55760818D01*
X135666711Y-55821736D01*
X135876788Y-55943024D01*
X136100900Y-56035854D01*
X136335211Y-56098638D01*
X136492203Y-56119306D01*
X136575711Y-56130300D01*
X136575712Y-56130300D01*
X137418289Y-56130300D01*
X137466388Y-56123967D01*
X137658789Y-56098638D01*
X137893100Y-56035854D01*
X138117212Y-55943024D01*
X138327289Y-55821736D01*
X138519738Y-55674065D01*
X138691265Y-55502538D01*
X138838936Y-55310089D01*
X138960224Y-55100012D01*
X139053054Y-54875900D01*
X139115838Y-54641589D01*
X139147500Y-54401088D01*
X139147500Y-54158512D01*
X139115838Y-53918011D01*
X139053054Y-53683700D01*
X138960224Y-53459588D01*
X138838936Y-53249511D01*
X138778018Y-53170121D01*
X138691266Y-53057063D01*
X138691260Y-53057056D01*
X138519743Y-52885539D01*
X138519736Y-52885533D01*
X138327293Y-52737867D01*
X138327292Y-52737866D01*
X138327289Y-52737864D01*
X138117212Y-52616576D01*
X138046978Y-52587484D01*
X137893104Y-52523747D01*
X137658785Y-52460961D01*
X137418289Y-52429300D01*
X137418288Y-52429300D01*
X136612782Y-52429300D01*
X136545743Y-52409615D01*
X136525101Y-52392981D01*
X129320279Y-45188159D01*
X129320259Y-45188137D01*
X129176585Y-45044463D01*
X129176581Y-45044460D01*
X129012720Y-44934971D01*
X129012711Y-44934966D01*
X128940115Y-44904896D01*
X128883965Y-44881638D01*
X128830636Y-44859549D01*
X128830632Y-44859548D01*
X128830628Y-44859546D01*
X128733988Y-44840324D01*
X128637344Y-44821100D01*
X128637341Y-44821100D01*
X125554598Y-44821100D01*
X125487559Y-44801415D01*
X125457651Y-44774413D01*
X125329708Y-44613977D01*
X125135184Y-44433486D01*
X124915933Y-44284002D01*
X124915932Y-44284001D01*
X124915925Y-44283997D01*
X124676855Y-44168868D01*
X124676836Y-44168861D01*
X124423283Y-44090651D01*
X124423273Y-44090648D01*
X124160888Y-44051100D01*
X124160881Y-44051100D01*
X123895519Y-44051100D01*
X123895511Y-44051100D01*
X123633126Y-44090648D01*
X123633116Y-44090651D01*
X123379563Y-44168861D01*
X123379544Y-44168868D01*
X123140476Y-44283997D01*
X123140474Y-44283998D01*
X122921215Y-44433486D01*
X122726694Y-44613975D01*
X122726692Y-44613977D01*
X122561242Y-44821445D01*
X122428561Y-45051254D01*
X122331616Y-45298267D01*
X122331610Y-45298286D01*
X122272564Y-45556985D01*
X122272563Y-45556990D01*
X122252735Y-45821595D01*
X85158699Y-45821595D01*
X85158699Y-44503728D01*
X85152291Y-44444117D01*
X85101996Y-44309269D01*
X85101995Y-44309268D01*
X85101993Y-44309264D01*
X85015747Y-44194055D01*
X85015744Y-44194052D01*
X84900535Y-44107806D01*
X84900528Y-44107802D01*
X84765682Y-44057508D01*
X84765683Y-44057508D01*
X84706083Y-44051101D01*
X84706081Y-44051100D01*
X84706073Y-44051100D01*
X84706064Y-44051100D01*
X82070329Y-44051100D01*
X82070323Y-44051101D01*
X82010716Y-44057508D01*
X81875871Y-44107802D01*
X81875864Y-44107806D01*
X81760655Y-44194052D01*
X81760652Y-44194055D01*
X81674406Y-44309264D01*
X81674402Y-44309271D01*
X81624108Y-44444117D01*
X81617701Y-44503716D01*
X81617701Y-44503723D01*
X81617700Y-44503735D01*
X81617700Y-46125817D01*
X81598015Y-46192856D01*
X81581381Y-46213498D01*
X77391021Y-50403858D01*
X77391018Y-50403861D01*
X77321338Y-50473540D01*
X77251659Y-50543219D01*
X77142171Y-50707079D01*
X77142164Y-50707092D01*
X77066750Y-50889160D01*
X77066747Y-50889170D01*
X77028300Y-51082456D01*
X77028300Y-77590100D01*
X77008615Y-77657139D01*
X76955811Y-77702894D01*
X76904300Y-77714100D01*
X75375700Y-77714100D01*
X75308661Y-77694415D01*
X75262906Y-77641611D01*
X75251700Y-77590100D01*
X75251700Y-77564597D01*
X75251699Y-77564584D01*
X75241199Y-77461804D01*
X75241199Y-77461803D01*
X75186014Y-77295266D01*
X75164294Y-77260053D01*
X75093913Y-77145948D01*
X75093910Y-77145944D01*
X74969855Y-77021889D01*
X74969851Y-77021886D01*
X74820537Y-76929787D01*
X74820535Y-76929786D01*
X74737265Y-76902193D01*
X74653997Y-76874601D01*
X74653995Y-76874600D01*
X74551215Y-76864100D01*
X74551208Y-76864100D01*
X71651192Y-76864100D01*
X71651184Y-76864100D01*
X71548404Y-76874600D01*
X71548403Y-76874601D01*
X71381864Y-76929786D01*
X71381862Y-76929787D01*
X71232548Y-77021886D01*
X71232544Y-77021889D01*
X71108489Y-77145944D01*
X71108486Y-77145948D01*
X71016387Y-77295262D01*
X71016386Y-77295264D01*
X70961201Y-77461803D01*
X70961200Y-77461804D01*
X70950700Y-77564584D01*
X70950700Y-77590100D01*
X70931015Y-77657139D01*
X70878211Y-77702894D01*
X70826700Y-77714100D01*
X69527144Y-77714100D01*
X69460105Y-77694415D01*
X69428768Y-77665586D01*
X69295466Y-77491863D01*
X69295460Y-77491856D01*
X69123943Y-77320339D01*
X69123936Y-77320333D01*
X68931493Y-77172667D01*
X68931492Y-77172666D01*
X68931489Y-77172664D01*
X68721412Y-77051376D01*
X68721405Y-77051373D01*
X68497304Y-76958547D01*
X68262985Y-76895761D01*
X68022489Y-76864100D01*
X68022488Y-76864100D01*
X67179912Y-76864100D01*
X67179911Y-76864100D01*
X66939414Y-76895761D01*
X66705095Y-76958547D01*
X66480994Y-77051373D01*
X66480985Y-77051377D01*
X66270906Y-77172667D01*
X66078463Y-77320333D01*
X66078456Y-77320339D01*
X65906939Y-77491856D01*
X65906933Y-77491863D01*
X65759267Y-77684306D01*
X65759264Y-77684310D01*
X65759264Y-77684311D01*
X65748535Y-77702894D01*
X65637977Y-77894385D01*
X65637973Y-77894394D01*
X65545147Y-78118495D01*
X65482361Y-78352814D01*
X65450700Y-78593311D01*
X63683000Y-78593311D01*
X63683000Y-51257199D01*
X68249959Y-51257199D01*
X68249959Y-51257200D01*
X68269710Y-51634072D01*
X68328746Y-52006807D01*
X68328747Y-52006814D01*
X68426423Y-52371347D01*
X68561667Y-52723668D01*
X68732999Y-53059925D01*
X68938535Y-53376423D01*
X69125011Y-53606701D01*
X69176035Y-53669711D01*
X69442889Y-53936565D01*
X69442893Y-53936568D01*
X69736176Y-54174064D01*
X69792831Y-54210856D01*
X70052679Y-54379603D01*
X70388935Y-54550934D01*
X70741257Y-54686178D01*
X71105787Y-54783853D01*
X71478529Y-54842890D01*
X71834555Y-54861548D01*
X71855399Y-54862641D01*
X71855400Y-54862641D01*
X71855401Y-54862641D01*
X71875152Y-54861605D01*
X72232271Y-54842890D01*
X72605013Y-54783853D01*
X72969543Y-54686178D01*
X73321865Y-54550934D01*
X73658121Y-54379603D01*
X73974625Y-54174063D01*
X74267911Y-53936565D01*
X74534765Y-53669711D01*
X74772263Y-53376425D01*
X74977803Y-53059921D01*
X75149134Y-52723665D01*
X75284378Y-52371343D01*
X75382053Y-52006813D01*
X75441090Y-51634071D01*
X75460841Y-51257200D01*
X75441090Y-50880329D01*
X75382053Y-50507587D01*
X75284378Y-50143057D01*
X75149134Y-49790735D01*
X74977803Y-49454480D01*
X74772263Y-49137975D01*
X74534765Y-48844689D01*
X74267911Y-48577835D01*
X73974625Y-48340337D01*
X73974623Y-48340335D01*
X73658125Y-48134799D01*
X73321868Y-47963467D01*
X72969547Y-47828223D01*
X72605014Y-47730547D01*
X72605007Y-47730546D01*
X72232272Y-47671510D01*
X71855401Y-47651759D01*
X71855399Y-47651759D01*
X71478527Y-47671510D01*
X71105792Y-47730546D01*
X71105785Y-47730547D01*
X70741252Y-47828223D01*
X70388931Y-47963467D01*
X70052675Y-48134799D01*
X69736176Y-48340335D01*
X69442893Y-48577831D01*
X69442885Y-48577838D01*
X69176038Y-48844685D01*
X69176031Y-48844693D01*
X68938535Y-49137976D01*
X68732999Y-49454475D01*
X68561667Y-49790731D01*
X68426423Y-50143052D01*
X68328747Y-50507585D01*
X68328746Y-50507592D01*
X68269710Y-50880327D01*
X68249959Y-51257199D01*
X63683000Y-51257199D01*
X63683000Y-43728300D01*
X63702685Y-43661261D01*
X63755489Y-43615506D01*
X63807000Y-43604300D01*
X140358200Y-43604300D01*
X140425239Y-43623985D01*
G37*
%TD.AperFunction*%
%TD*%
M02*
