%TF.GenerationSoftware,KiCad,Pcbnew,8.0.9-8.0.9-0~ubuntu20.04.1*%
%TF.CreationDate,2025-10-30T08:55:14-03:00*%
%TF.ProjectId,Controle,436f6e74-726f-46c6-952e-6b696361645f,rev?*%
%TF.SameCoordinates,Original*%
%TF.FileFunction,Paste,Top*%
%TF.FilePolarity,Positive*%
%FSLAX46Y46*%
G04 Gerber Fmt 4.6, Leading zero omitted, Abs format (unit mm)*
G04 Created by KiCad (PCBNEW 8.0.9-8.0.9-0~ubuntu20.04.1) date 2025-10-30 08:55:14*
%MOMM*%
%LPD*%
G01*
G04 APERTURE LIST*
G04 Aperture macros list*
%AMRoundRect*
0 Rectangle with rounded corners*
0 $1 Rounding radius*
0 $2 $3 $4 $5 $6 $7 $8 $9 X,Y pos of 4 corners*
0 Add a 4 corners polygon primitive as box body*
4,1,4,$2,$3,$4,$5,$6,$7,$8,$9,$2,$3,0*
0 Add four circle primitives for the rounded corners*
1,1,$1+$1,$2,$3*
1,1,$1+$1,$4,$5*
1,1,$1+$1,$6,$7*
1,1,$1+$1,$8,$9*
0 Add four rect primitives between the rounded corners*
20,1,$1+$1,$2,$3,$4,$5,0*
20,1,$1+$1,$4,$5,$6,$7,0*
20,1,$1+$1,$6,$7,$8,$9,0*
20,1,$1+$1,$8,$9,$2,$3,0*%
G04 Aperture macros list end*
%ADD10RoundRect,0.250000X0.475000X-0.337500X0.475000X0.337500X-0.475000X0.337500X-0.475000X-0.337500X0*%
%ADD11RoundRect,0.250000X0.450000X-0.350000X0.450000X0.350000X-0.450000X0.350000X-0.450000X-0.350000X0*%
%ADD12RoundRect,0.250000X-0.450000X0.350000X-0.450000X-0.350000X0.450000X-0.350000X0.450000X0.350000X0*%
%ADD13RoundRect,0.250000X-0.337500X-0.475000X0.337500X-0.475000X0.337500X0.475000X-0.337500X0.475000X0*%
%ADD14RoundRect,0.250000X0.337500X0.475000X-0.337500X0.475000X-0.337500X-0.475000X0.337500X-0.475000X0*%
%ADD15RoundRect,0.250000X0.350000X0.450000X-0.350000X0.450000X-0.350000X-0.450000X0.350000X-0.450000X0*%
%ADD16RoundRect,0.250000X-0.475000X0.337500X-0.475000X-0.337500X0.475000X-0.337500X0.475000X0.337500X0*%
%ADD17RoundRect,0.250000X-0.350000X-0.450000X0.350000X-0.450000X0.350000X0.450000X-0.350000X0.450000X0*%
%ADD18RoundRect,0.250001X-1.074999X0.462499X-1.074999X-0.462499X1.074999X-0.462499X1.074999X0.462499X0*%
%ADD19RoundRect,0.250000X-1.100000X0.412500X-1.100000X-0.412500X1.100000X-0.412500X1.100000X0.412500X0*%
%ADD20RoundRect,0.250000X1.100000X-0.412500X1.100000X0.412500X-1.100000X0.412500X-1.100000X-0.412500X0*%
%ADD21RoundRect,0.250001X-0.462499X-1.074999X0.462499X-1.074999X0.462499X1.074999X-0.462499X1.074999X0*%
%ADD22RoundRect,0.250001X1.074999X-0.462499X1.074999X0.462499X-1.074999X0.462499X-1.074999X-0.462499X0*%
G04 APERTURE END LIST*
D10*
%TO.C,C1*%
X111829350Y-115301200D03*
X111829350Y-113226200D03*
%TD*%
%TO.C,C13*%
X143531524Y-109295077D03*
X143531524Y-107220077D03*
%TD*%
D11*
%TO.C,R29*%
X154687199Y-128777200D03*
X154687199Y-126777200D03*
%TD*%
%TO.C,R42*%
X138441364Y-117262477D03*
X138441364Y-115262477D03*
%TD*%
D10*
%TO.C,C9*%
X133371524Y-109295077D03*
X133371524Y-107220077D03*
%TD*%
D11*
%TO.C,R21*%
X137716666Y-128757200D03*
X137716666Y-126757200D03*
%TD*%
D12*
%TO.C,R15*%
X125473867Y-130287800D03*
X125473867Y-132287800D03*
%TD*%
D13*
%TO.C,C30*%
X137475800Y-56818399D03*
X139550800Y-56818399D03*
%TD*%
D14*
%TO.C,C6*%
X149898100Y-146243000D03*
X147823100Y-146243000D03*
%TD*%
D12*
%TO.C,R64*%
X170567200Y-62104200D03*
X170567200Y-64104200D03*
%TD*%
D15*
%TO.C,R28*%
X146806600Y-125643600D03*
X144806600Y-125643600D03*
%TD*%
D16*
%TO.C,C16*%
X46686400Y-45425800D03*
X46686400Y-47500800D03*
%TD*%
D11*
%TO.C,R82*%
X49580800Y-64576200D03*
X49580800Y-62576200D03*
%TD*%
D17*
%TO.C,R6*%
X112479000Y-120457400D03*
X114479000Y-120457400D03*
%TD*%
D11*
%TO.C,R17*%
X137716667Y-143955800D03*
X137716667Y-141955800D03*
%TD*%
D17*
%TO.C,R48*%
X126219601Y-56271601D03*
X128219601Y-56271601D03*
%TD*%
D12*
%TO.C,R7*%
X108503334Y-130393600D03*
X108503334Y-132393600D03*
%TD*%
D17*
%TO.C,R61*%
X93155201Y-54659400D03*
X95155201Y-54659400D03*
%TD*%
D12*
%TO.C,R32*%
X159414933Y-134081801D03*
X159414933Y-136081801D03*
%TD*%
D14*
%TO.C,C27*%
X151535700Y-68934199D03*
X149460700Y-68934199D03*
%TD*%
D13*
%TO.C,C21*%
X105177201Y-56818400D03*
X107252201Y-56818400D03*
%TD*%
D12*
%TO.C,R27*%
X154712599Y-133390600D03*
X154712599Y-135390600D03*
%TD*%
D17*
%TO.C,R56*%
X105169401Y-54659400D03*
X107169401Y-54659400D03*
%TD*%
D13*
%TO.C,C37*%
X48850200Y-56818399D03*
X50925200Y-56818399D03*
%TD*%
D11*
%TO.C,R73*%
X138206400Y-64576200D03*
X138206400Y-62576200D03*
%TD*%
%TO.C,R87*%
X61722000Y-64525400D03*
X61722000Y-62525400D03*
%TD*%
D14*
%TO.C,C19*%
X128210201Y-68743001D03*
X126135201Y-68743001D03*
%TD*%
D17*
%TO.C,R84*%
X48842400Y-54659399D03*
X50842400Y-54659399D03*
%TD*%
D10*
%TO.C,C12*%
X140991524Y-109295077D03*
X140991524Y-107220077D03*
%TD*%
D11*
%TO.C,R59*%
X93893601Y-64576201D03*
X93893601Y-62576201D03*
%TD*%
D17*
%TO.C,R75*%
X137468000Y-54659399D03*
X139468000Y-54659399D03*
%TD*%
D14*
%TO.C,C29*%
X139521500Y-68934199D03*
X137446500Y-68934199D03*
%TD*%
D15*
%TO.C,R81*%
X50842400Y-71016999D03*
X48842400Y-71016999D03*
%TD*%
D14*
%TO.C,C15*%
X75388400Y-51217000D03*
X73313400Y-51217000D03*
%TD*%
D18*
%TO.C,F3*%
X46330800Y-117877700D03*
X46330800Y-120852700D03*
%TD*%
D12*
%TO.C,R50*%
X126254401Y-62104201D03*
X126254401Y-64104201D03*
%TD*%
D15*
%TO.C,R51*%
X128210201Y-71003601D03*
X126210201Y-71003601D03*
%TD*%
D18*
%TO.C,F1*%
X45071400Y-68393200D03*
X45071400Y-71368200D03*
%TD*%
D11*
%TO.C,R18*%
X139682467Y-143962200D03*
X139682467Y-141962200D03*
%TD*%
D10*
%TO.C,C11*%
X138451524Y-109295077D03*
X138451524Y-107220077D03*
%TD*%
D17*
%TO.C,R76*%
X81906800Y-56271600D03*
X83906800Y-56271600D03*
%TD*%
D14*
%TO.C,C7*%
X166868633Y-146146800D03*
X164793633Y-146146800D03*
%TD*%
D15*
%TO.C,R45*%
X94387600Y-90688600D03*
X92387600Y-90688600D03*
%TD*%
D10*
%TO.C,C3*%
X77650300Y-128575800D03*
X77650300Y-126500800D03*
%TD*%
D11*
%TO.C,R49*%
X123308001Y-64078801D03*
X123308001Y-62078801D03*
%TD*%
D12*
%TO.C,R19*%
X137742066Y-133370600D03*
X137742066Y-135370600D03*
%TD*%
D11*
%TO.C,R25*%
X154687200Y-143975800D03*
X154687200Y-141975800D03*
%TD*%
D15*
%TO.C,R38*%
X167653933Y-125522000D03*
X165653933Y-125522000D03*
%TD*%
D14*
%TO.C,C24*%
X164014000Y-51217000D03*
X161939000Y-51217000D03*
%TD*%
D15*
%TO.C,R53*%
X107169401Y-71017000D03*
X105169401Y-71017000D03*
%TD*%
D17*
%TO.C,R3*%
X115028400Y-108468600D03*
X117028400Y-108468600D03*
%TD*%
D10*
%TO.C,C33*%
X168603680Y-107080180D03*
X168603680Y-105005180D03*
%TD*%
D11*
%TO.C,R68*%
X150347600Y-64525400D03*
X150347600Y-62525400D03*
%TD*%
D15*
%TO.C,R67*%
X151482200Y-71016999D03*
X149482200Y-71016999D03*
%TD*%
D14*
%TO.C,C26*%
X172523000Y-68743000D03*
X170448000Y-68743000D03*
%TD*%
D11*
%TO.C,R41*%
X135901364Y-117262477D03*
X135901364Y-115262477D03*
%TD*%
%TO.C,R26*%
X156653000Y-143982200D03*
X156653000Y-141982200D03*
%TD*%
D14*
%TO.C,C14*%
X94413000Y-88148600D03*
X92338000Y-88148600D03*
%TD*%
D15*
%TO.C,R20*%
X129836067Y-125623600D03*
X127836067Y-125623600D03*
%TD*%
D14*
%TO.C,C38*%
X62910100Y-68934199D03*
X60835100Y-68934199D03*
%TD*%
D11*
%TO.C,R39*%
X130821364Y-117262477D03*
X130821364Y-115262477D03*
%TD*%
D12*
%TO.C,R24*%
X142444400Y-134178001D03*
X142444400Y-136178001D03*
%TD*%
D15*
%TO.C,R46*%
X94387600Y-93228600D03*
X92387600Y-93228600D03*
%TD*%
D11*
%TO.C,R40*%
X133361364Y-117262477D03*
X133361364Y-115262477D03*
%TD*%
D19*
%TO.C,C32*%
X34624120Y-91856820D03*
X34624120Y-94981820D03*
%TD*%
D16*
%TO.C,C31*%
X37519720Y-92407220D03*
X37519720Y-94482220D03*
%TD*%
D14*
%TO.C,C4*%
X115957034Y-146328800D03*
X113882034Y-146328800D03*
%TD*%
D10*
%TO.C,C10*%
X135911524Y-109295077D03*
X135911524Y-107220077D03*
%TD*%
D15*
%TO.C,R58*%
X95155201Y-71017000D03*
X93155201Y-71017000D03*
%TD*%
D12*
%TO.C,R35*%
X171683132Y-133294400D03*
X171683132Y-135294400D03*
%TD*%
D11*
%TO.C,R13*%
X120746133Y-128863000D03*
X120746133Y-126863000D03*
%TD*%
D15*
%TO.C,R79*%
X83897400Y-71003600D03*
X81897400Y-71003600D03*
%TD*%
D12*
%TO.C,R78*%
X81941600Y-62104200D03*
X81941600Y-64104200D03*
%TD*%
D17*
%TO.C,R70*%
X149482200Y-54659399D03*
X151482200Y-54659399D03*
%TD*%
D11*
%TO.C,R44*%
X143521364Y-117262477D03*
X143521364Y-115262477D03*
%TD*%
D12*
%TO.C,R16*%
X125473867Y-134158001D03*
X125473867Y-136158001D03*
%TD*%
D15*
%TO.C,R65*%
X172523000Y-71003600D03*
X170523000Y-71003600D03*
%TD*%
D13*
%TO.C,C28*%
X149490000Y-56818399D03*
X151565000Y-56818399D03*
%TD*%
D10*
%TO.C,C8*%
X130831524Y-109295077D03*
X130831524Y-107220077D03*
%TD*%
D15*
%TO.C,R72*%
X139468000Y-71016999D03*
X137468000Y-71016999D03*
%TD*%
D11*
%TO.C,R33*%
X171657733Y-143879600D03*
X171657733Y-141879600D03*
%TD*%
%TO.C,R54*%
X106034801Y-64525401D03*
X106034801Y-62525401D03*
%TD*%
D15*
%TO.C,R30*%
X150683400Y-125618200D03*
X148683400Y-125618200D03*
%TD*%
D11*
%TO.C,R63*%
X167620800Y-64078800D03*
X167620800Y-62078800D03*
%TD*%
D16*
%TO.C,C25*%
X135312000Y-45425800D03*
X135312000Y-47500800D03*
%TD*%
D20*
%TO.C,C34*%
X171499280Y-107630580D03*
X171499280Y-104505580D03*
%TD*%
D17*
%TO.C,R89*%
X60856600Y-54659399D03*
X62856600Y-54659399D03*
%TD*%
%TO.C,R47*%
X92387600Y-95794000D03*
X94387600Y-95794000D03*
%TD*%
D21*
%TO.C,F4*%
X35231900Y-40563800D03*
X38206900Y-40563800D03*
%TD*%
D15*
%TO.C,R86*%
X62856600Y-71016999D03*
X60856600Y-71016999D03*
%TD*%
D12*
%TO.C,R31*%
X159414933Y-130211600D03*
X159414933Y-132211600D03*
%TD*%
D14*
%TO.C,C20*%
X107222901Y-68934200D03*
X105147901Y-68934200D03*
%TD*%
D10*
%TO.C,C2*%
X48007200Y-128606900D03*
X48007200Y-126531900D03*
%TD*%
D11*
%TO.C,R9*%
X120746134Y-144061600D03*
X120746134Y-142061600D03*
%TD*%
D12*
%TO.C,R8*%
X108503334Y-134263801D03*
X108503334Y-136263801D03*
%TD*%
D15*
%TO.C,R12*%
X112865534Y-125729400D03*
X110865534Y-125729400D03*
%TD*%
D22*
%TO.C,F2*%
X46280000Y-134467100D03*
X46280000Y-131492100D03*
%TD*%
D12*
%TO.C,R23*%
X142444400Y-130307800D03*
X142444400Y-132307800D03*
%TD*%
D11*
%TO.C,R77*%
X78995200Y-64078800D03*
X78995200Y-62078800D03*
%TD*%
D13*
%TO.C,C39*%
X60864400Y-56818399D03*
X62939400Y-56818399D03*
%TD*%
D14*
%TO.C,C17*%
X119701201Y-51217001D03*
X117626201Y-51217001D03*
%TD*%
D13*
%TO.C,C23*%
X93163001Y-56818400D03*
X95238001Y-56818400D03*
%TD*%
D16*
%TO.C,C18*%
X90999201Y-45425801D03*
X90999201Y-47500801D03*
%TD*%
D15*
%TO.C,R14*%
X116742334Y-125704000D03*
X114742334Y-125704000D03*
%TD*%
D11*
%TO.C,R34*%
X173623533Y-143886000D03*
X173623533Y-141886000D03*
%TD*%
D15*
%TO.C,R22*%
X133712867Y-125598200D03*
X131712867Y-125598200D03*
%TD*%
D14*
%TO.C,C36*%
X50895900Y-68934199D03*
X48820900Y-68934199D03*
%TD*%
%TO.C,C35*%
X83897400Y-68743000D03*
X81822400Y-68743000D03*
%TD*%
%TO.C,C5*%
X132927567Y-146223000D03*
X130852567Y-146223000D03*
%TD*%
D11*
%TO.C,R37*%
X171657732Y-128681000D03*
X171657732Y-126681000D03*
%TD*%
D17*
%TO.C,R62*%
X170532400Y-56271600D03*
X172532400Y-56271600D03*
%TD*%
D11*
%TO.C,R43*%
X140981364Y-117262477D03*
X140981364Y-115262477D03*
%TD*%
D15*
%TO.C,R36*%
X163777133Y-125547400D03*
X161777133Y-125547400D03*
%TD*%
D14*
%TO.C,C22*%
X95208701Y-68934200D03*
X93133701Y-68934200D03*
%TD*%
D11*
%TO.C,R10*%
X122711934Y-144068000D03*
X122711934Y-142068000D03*
%TD*%
D12*
%TO.C,R11*%
X120771533Y-133476400D03*
X120771533Y-135476400D03*
%TD*%
M02*
