%TF.GenerationSoftware,KiCad,Pcbnew,8.0.9-8.0.9-0~ubuntu20.04.1*%
%TF.CreationDate,2025-10-30T08:55:15-03:00*%
%TF.ProjectId,Controle,436f6e74-726f-46c6-952e-6b696361645f,rev?*%
%TF.SameCoordinates,Original*%
%TF.FileFunction,Soldermask,Bot*%
%TF.FilePolarity,Negative*%
%FSLAX46Y46*%
G04 Gerber Fmt 4.6, Leading zero omitted, Abs format (unit mm)*
G04 Created by KiCad (PCBNEW 8.0.9-8.0.9-0~ubuntu20.04.1) date 2025-10-30 08:55:15*
%MOMM*%
%LPD*%
G01*
G04 APERTURE LIST*
G04 Aperture macros list*
%AMRoundRect*
0 Rectangle with rounded corners*
0 $1 Rounding radius*
0 $2 $3 $4 $5 $6 $7 $8 $9 X,Y pos of 4 corners*
0 Add a 4 corners polygon primitive as box body*
4,1,4,$2,$3,$4,$5,$6,$7,$8,$9,$2,$3,0*
0 Add four circle primitives for the rounded corners*
1,1,$1+$1,$2,$3*
1,1,$1+$1,$4,$5*
1,1,$1+$1,$6,$7*
1,1,$1+$1,$8,$9*
0 Add four rect primitives between the rounded corners*
20,1,$1+$1,$2,$3,$4,$5,0*
20,1,$1+$1,$4,$5,$6,$7,0*
20,1,$1+$1,$6,$7,$8,$9,0*
20,1,$1+$1,$8,$9,$2,$3,0*%
G04 Aperture macros list end*
%ADD10R,1.600000X1.600000*%
%ADD11O,1.600000X1.600000*%
%ADD12R,1.500000X1.050000*%
%ADD13O,1.500000X1.050000*%
%ADD14R,1.700000X1.700000*%
%ADD15O,1.700000X1.700000*%
%ADD16RoundRect,0.250000X-0.620000X-0.845000X0.620000X-0.845000X0.620000X0.845000X-0.620000X0.845000X0*%
%ADD17O,1.740000X2.190000*%
%ADD18C,0.800000*%
%ADD19C,6.400000*%
%ADD20R,1.200000X2.000000*%
%ADD21O,1.200000X2.000000*%
%ADD22RoundRect,0.250000X0.620000X0.845000X-0.620000X0.845000X-0.620000X-0.845000X0.620000X-0.845000X0*%
%ADD23C,2.800000*%
%ADD24O,2.800000X2.800000*%
%ADD25RoundRect,0.250000X-0.600000X0.600000X-0.600000X-0.600000X0.600000X-0.600000X0.600000X0.600000X0*%
%ADD26C,1.700000*%
%ADD27RoundRect,0.250001X-1.399999X1.099999X-1.399999X-1.099999X1.399999X-1.099999X1.399999X1.099999X0*%
%ADD28O,3.300000X2.700000*%
%ADD29R,2.100000X2.100000*%
%ADD30C,2.100000*%
%ADD31C,2.200000*%
%ADD32RoundRect,0.250001X1.099999X1.399999X-1.099999X1.399999X-1.099999X-1.399999X1.099999X-1.399999X0*%
%ADD33O,2.700000X3.300000*%
%ADD34RoundRect,0.250001X-1.099999X-1.399999X1.099999X-1.399999X1.099999X1.399999X-1.099999X1.399999X0*%
%ADD35C,2.400000*%
%ADD36O,2.400000X2.400000*%
G04 APERTURE END LIST*
D10*
%TO.C,U14*%
X105184401Y-66663600D03*
D11*
X107724401Y-66663600D03*
X110264401Y-66663600D03*
X110264401Y-59043600D03*
X107724401Y-59043600D03*
X105184401Y-59043600D03*
%TD*%
D12*
%TO.C,Q2*%
X98002200Y-61644400D03*
D13*
X98002200Y-62914400D03*
X98002200Y-64184400D03*
%TD*%
D10*
%TO.C,U12*%
X93864401Y-51715001D03*
D11*
X96404401Y-51715001D03*
X98944401Y-51715001D03*
X101484401Y-51715001D03*
X104024401Y-51715001D03*
X106564401Y-51715001D03*
X109104401Y-51715001D03*
X109104401Y-44095001D03*
X106564401Y-44095001D03*
X104024401Y-44095001D03*
X101484401Y-44095001D03*
X98944401Y-44095001D03*
X96404401Y-44095001D03*
X93864401Y-44095001D03*
%TD*%
D14*
%TO.C,U8*%
X98524700Y-88159500D03*
D15*
X98524700Y-90699500D03*
X98524700Y-93239500D03*
X98524700Y-95779500D03*
D14*
X115914700Y-90699500D03*
D15*
X115914700Y-93239500D03*
%TD*%
D16*
%TO.C,J5*%
X99087900Y-152418700D03*
D17*
X101627900Y-152418700D03*
%TD*%
D14*
%TO.C,J13*%
X74575600Y-44028800D03*
D15*
X74575600Y-46568800D03*
%TD*%
D10*
%TO.C,U9*%
X78233200Y-51725000D03*
D11*
X80773200Y-51725000D03*
X83313200Y-51725000D03*
X85853200Y-51725000D03*
X85853200Y-44105000D03*
X83313200Y-44105000D03*
X80773200Y-44105000D03*
X78233200Y-44105000D03*
%TD*%
D10*
%TO.C,U10*%
X49551600Y-51715000D03*
D11*
X52091600Y-51715000D03*
X54631600Y-51715000D03*
X57171600Y-51715000D03*
X59711600Y-51715000D03*
X62251600Y-51715000D03*
X64791600Y-51715000D03*
X64791600Y-44095000D03*
X62251600Y-44095000D03*
X59711600Y-44095000D03*
X57171600Y-44095000D03*
X54631600Y-44095000D03*
X52091600Y-44095000D03*
X49551600Y-44095000D03*
%TD*%
D14*
%TO.C,J16*%
X118888401Y-44028801D03*
D15*
X118888401Y-46568801D03*
%TD*%
D18*
%TO.C,H3*%
X36347400Y-59969400D03*
X37050344Y-58272344D03*
X37050344Y-61666456D03*
X38747400Y-57569400D03*
D19*
X38747400Y-59969400D03*
D18*
X38747400Y-62369400D03*
X40444456Y-58272344D03*
X40444456Y-61666456D03*
X41147400Y-59969400D03*
%TD*%
D10*
%TO.C,U7*%
X169447933Y-143424400D03*
D11*
X169447933Y-140884400D03*
X169447933Y-138344400D03*
X169447933Y-135804400D03*
X169447933Y-133264400D03*
X169447933Y-130724400D03*
X169447933Y-128184400D03*
X161827933Y-128184400D03*
X161827933Y-130724400D03*
X161827933Y-133264400D03*
X161827933Y-135804400D03*
X161827933Y-138344400D03*
X161827933Y-140884400D03*
X161827933Y-143424400D03*
%TD*%
D10*
%TO.C,U20*%
X137483000Y-66663599D03*
D11*
X140023000Y-66663599D03*
X142563000Y-66663599D03*
X142563000Y-59043599D03*
X140023000Y-59043599D03*
X137483000Y-59043599D03*
%TD*%
D12*
%TO.C,Q4*%
X142314999Y-61644399D03*
D13*
X142314999Y-62914399D03*
X142314999Y-64184399D03*
%TD*%
D20*
%TO.C,U22*%
X125756600Y-112227800D03*
D21*
X128296600Y-112227800D03*
X130836600Y-112227800D03*
X133376600Y-112227800D03*
X135916600Y-112227800D03*
X138456600Y-112227800D03*
X140996600Y-112227800D03*
X143536600Y-112227800D03*
X146076600Y-112227800D03*
X148616600Y-112227800D03*
X151156600Y-112227800D03*
X153696600Y-112227800D03*
X156236600Y-112227800D03*
X158776600Y-112227800D03*
X161316600Y-112227800D03*
X163856600Y-112227800D03*
X166396600Y-112227800D03*
X168936600Y-112227800D03*
X171476600Y-112227800D03*
X171473880Y-86831480D03*
X168933880Y-86831480D03*
X166396600Y-86827800D03*
X163856600Y-86827800D03*
X161316600Y-86827800D03*
X158776600Y-86827800D03*
X156236600Y-86827800D03*
X153696600Y-86827800D03*
X151156600Y-86827800D03*
X148616600Y-86827800D03*
X146076600Y-86827800D03*
X143536600Y-86827800D03*
X140996600Y-86827800D03*
X138456600Y-86827800D03*
X135916600Y-86827800D03*
X133376600Y-86827800D03*
X130836600Y-86827800D03*
X128296600Y-86827800D03*
X125756600Y-86827800D03*
%TD*%
D10*
%TO.C,U1*%
X122109025Y-110674975D03*
D11*
X119569025Y-110674975D03*
X117029025Y-110674975D03*
X114489025Y-110674975D03*
X114489025Y-118294975D03*
X117029025Y-118294975D03*
X119569025Y-118294975D03*
X122109025Y-118294975D03*
%TD*%
D10*
%TO.C,U11*%
X122546001Y-51725001D03*
D11*
X125086001Y-51725001D03*
X127626001Y-51725001D03*
X130166001Y-51725001D03*
X130166001Y-44105001D03*
X127626001Y-44105001D03*
X125086001Y-44105001D03*
X122546001Y-44105001D03*
%TD*%
D22*
%TO.C,J8*%
X151080401Y-151043600D03*
D17*
X148540401Y-151043600D03*
X146000401Y-151043600D03*
%TD*%
D10*
%TO.C,U17*%
X138177200Y-51715000D03*
D11*
X140717200Y-51715000D03*
X143257200Y-51715000D03*
X145797200Y-51715000D03*
X148337200Y-51715000D03*
X150877200Y-51715000D03*
X153417200Y-51715000D03*
X153417200Y-44095000D03*
X150877200Y-44095000D03*
X148337200Y-44095000D03*
X145797200Y-44095000D03*
X143257200Y-44095000D03*
X140717200Y-44095000D03*
X138177200Y-44095000D03*
%TD*%
D10*
%TO.C,U4*%
X118536334Y-143606400D03*
D11*
X118536334Y-141066400D03*
X118536334Y-138526400D03*
X118536334Y-135986400D03*
X118536334Y-133446400D03*
X118536334Y-130906400D03*
X118536334Y-128366400D03*
X110916334Y-128366400D03*
X110916334Y-130906400D03*
X110916334Y-133446400D03*
X110916334Y-135986400D03*
X110916334Y-138526400D03*
X110916334Y-141066400D03*
X110916334Y-143606400D03*
%TD*%
D23*
%TO.C,R4*%
X91163100Y-152455700D03*
D24*
X91163100Y-147375700D03*
%TD*%
D10*
%TO.C,U5*%
X135506867Y-143500600D03*
D11*
X135506867Y-140960600D03*
X135506867Y-138420600D03*
X135506867Y-135880600D03*
X135506867Y-133340600D03*
X135506867Y-130800600D03*
X135506867Y-128260600D03*
X127886867Y-128260600D03*
X127886867Y-130800600D03*
X127886867Y-133340600D03*
X127886867Y-135880600D03*
X127886867Y-138420600D03*
X127886867Y-140960600D03*
X127886867Y-143500600D03*
%TD*%
D18*
%TO.C,H1*%
X167627600Y-80264000D03*
X168330544Y-78566944D03*
X168330544Y-81961056D03*
X170027600Y-77864000D03*
D19*
X170027600Y-80264000D03*
D18*
X170027600Y-82664000D03*
X171724656Y-78566944D03*
X171724656Y-81961056D03*
X172427600Y-80264000D03*
%TD*%
D20*
%TO.C,U21*%
X80366800Y-87259600D03*
D21*
X77826800Y-87259600D03*
X75286800Y-87259600D03*
X72746800Y-87259600D03*
X70206800Y-87259600D03*
X67666800Y-87259600D03*
X65126800Y-87259600D03*
X62586800Y-87259600D03*
X60046800Y-87259600D03*
X57506800Y-87259600D03*
X54966800Y-87259600D03*
X52426800Y-87259600D03*
X49886800Y-87259600D03*
X47346800Y-87259600D03*
X44806800Y-87259600D03*
X42266800Y-87259600D03*
X39726800Y-87259600D03*
X37186800Y-87259600D03*
X34646800Y-87259600D03*
X34649520Y-112655920D03*
X37189520Y-112655920D03*
X39726800Y-112659600D03*
X42266800Y-112659600D03*
X44806800Y-112659600D03*
X47346800Y-112659600D03*
X49886800Y-112659600D03*
X52426800Y-112659600D03*
X54966800Y-112659600D03*
X57506800Y-112659600D03*
X60046800Y-112659600D03*
X62586800Y-112659600D03*
X65126800Y-112659600D03*
X67666800Y-112659600D03*
X70206800Y-112659600D03*
X72746800Y-112659600D03*
X75286800Y-112659600D03*
X77826800Y-112659600D03*
X80366800Y-112659600D03*
%TD*%
D22*
%TO.C,J9*%
X168050934Y-150947400D03*
D17*
X165510934Y-150947400D03*
X162970934Y-150947400D03*
%TD*%
D14*
%TO.C,J17*%
X114799001Y-44003401D03*
D15*
X114799001Y-46543401D03*
%TD*%
D12*
%TO.C,Q5*%
X53689399Y-61644399D03*
D13*
X53689399Y-62914399D03*
X53689399Y-64184399D03*
%TD*%
D25*
%TO.C,J15*%
X118024801Y-35723001D03*
D26*
X118024801Y-38263001D03*
X115484801Y-35723001D03*
X115484801Y-38263001D03*
X112944801Y-35723001D03*
X112944801Y-38263001D03*
X110404801Y-35723001D03*
X110404801Y-38263001D03*
X107864801Y-35723001D03*
X107864801Y-38263001D03*
X105324801Y-35723001D03*
X105324801Y-38263001D03*
X102784801Y-35723001D03*
X102784801Y-38263001D03*
%TD*%
D10*
%TO.C,U24*%
X48857400Y-66663599D03*
D11*
X51397400Y-66663599D03*
X53937400Y-66663599D03*
X53937400Y-59043599D03*
X51397400Y-59043599D03*
X48857400Y-59043599D03*
%TD*%
D22*
%TO.C,J21*%
X52785120Y-81227320D03*
D17*
X50245120Y-81227320D03*
X47705120Y-81227320D03*
X45165120Y-81227320D03*
%TD*%
D25*
%TO.C,J18*%
X162337600Y-35723000D03*
D26*
X162337600Y-38263000D03*
X159797600Y-35723000D03*
X159797600Y-38263000D03*
X157257600Y-35723000D03*
X157257600Y-38263000D03*
X154717600Y-35723000D03*
X154717600Y-38263000D03*
X152177600Y-35723000D03*
X152177600Y-38263000D03*
X149637600Y-35723000D03*
X149637600Y-38263000D03*
X147097600Y-35723000D03*
X147097600Y-38263000D03*
%TD*%
D10*
%TO.C,U25*%
X60871600Y-66663599D03*
D11*
X63411600Y-66663599D03*
X65951600Y-66663599D03*
X65951600Y-59043599D03*
X63411600Y-59043599D03*
X60871600Y-59043599D03*
%TD*%
D27*
%TO.C,J2*%
X41079800Y-119416000D03*
D28*
X41079800Y-123616000D03*
X41079800Y-127816000D03*
X35579800Y-119416000D03*
X35579800Y-123616000D03*
X35579800Y-127816000D03*
%TD*%
D10*
%TO.C,U18*%
X172506500Y-58630450D03*
D11*
X169966500Y-58630450D03*
X167426500Y-58630450D03*
X167426500Y-66250450D03*
X169966500Y-66250450D03*
X172506500Y-66250450D03*
%TD*%
D29*
%TO.C,U2*%
X54941400Y-141463200D03*
D30*
X70181400Y-141463200D03*
D31*
X70181400Y-121143200D03*
X62561400Y-121143200D03*
X54941400Y-121143200D03*
%TD*%
D12*
%TO.C,Q6*%
X65703599Y-61644399D03*
D13*
X65703599Y-62914399D03*
X65703599Y-64184399D03*
%TD*%
D32*
%TO.C,J10*%
X104394000Y-108471600D03*
D33*
X104394000Y-102971600D03*
%TD*%
D34*
%TO.C,J3*%
X35246200Y-45085000D03*
D33*
X39446200Y-45085000D03*
X35246200Y-50585000D03*
X39446200Y-50585000D03*
%TD*%
D12*
%TO.C,Q3*%
X154329199Y-61644399D03*
D13*
X154329199Y-62914399D03*
X154329199Y-64184399D03*
%TD*%
D10*
%TO.C,U16*%
X166858800Y-51725000D03*
D11*
X169398800Y-51725000D03*
X171938800Y-51725000D03*
X174478800Y-51725000D03*
X174478800Y-44105000D03*
X171938800Y-44105000D03*
X169398800Y-44105000D03*
X166858800Y-44105000D03*
%TD*%
D12*
%TO.C,Q1*%
X110016400Y-61644400D03*
D13*
X110016400Y-62914400D03*
X110016400Y-64184400D03*
%TD*%
D14*
%TO.C,J19*%
X163201200Y-44028800D03*
D15*
X163201200Y-46568800D03*
%TD*%
D10*
%TO.C,U13*%
X128193701Y-58630451D03*
D11*
X125653701Y-58630451D03*
X123113701Y-58630451D03*
X123113701Y-66250451D03*
X125653701Y-66250451D03*
X128193701Y-66250451D03*
%TD*%
D35*
%TO.C,R2*%
X54382600Y-148346600D03*
D36*
X54382600Y-153426600D03*
%TD*%
D10*
%TO.C,U23*%
X83880900Y-58630450D03*
D11*
X81340900Y-58630450D03*
X78800900Y-58630450D03*
X78800900Y-66250450D03*
X81340900Y-66250450D03*
X83880900Y-66250450D03*
%TD*%
D10*
%TO.C,U15*%
X93170201Y-66663600D03*
D11*
X95710201Y-66663600D03*
X98250201Y-66663600D03*
X98250201Y-59043600D03*
X95710201Y-59043600D03*
X93170201Y-59043600D03*
%TD*%
D16*
%TO.C,J4*%
X69495600Y-152258200D03*
D17*
X72035600Y-152258200D03*
%TD*%
D10*
%TO.C,U19*%
X149497200Y-66663599D03*
D11*
X152037200Y-66663599D03*
X154577200Y-66663599D03*
X154577200Y-59043599D03*
X152037200Y-59043599D03*
X149497200Y-59043599D03*
%TD*%
D32*
%TO.C,J11*%
X95097600Y-108573200D03*
D33*
X95097600Y-103073200D03*
%TD*%
D23*
%TO.C,R1*%
X61570800Y-152295200D03*
D24*
X61570800Y-147215200D03*
%TD*%
D14*
%TO.C,J20*%
X159111800Y-44003400D03*
D15*
X159111800Y-46543400D03*
%TD*%
D10*
%TO.C,U6*%
X152477400Y-143520600D03*
D11*
X152477400Y-140980600D03*
X152477400Y-138440600D03*
X152477400Y-135900600D03*
X152477400Y-133360600D03*
X152477400Y-130820600D03*
X152477400Y-128280600D03*
X144857400Y-128280600D03*
X144857400Y-130820600D03*
X144857400Y-133360600D03*
X144857400Y-135900600D03*
X144857400Y-138440600D03*
X144857400Y-140980600D03*
X144857400Y-143520600D03*
%TD*%
D25*
%TO.C,J12*%
X73712000Y-35723000D03*
D26*
X73712000Y-38263000D03*
X71172000Y-35723000D03*
X71172000Y-38263000D03*
X68632000Y-35723000D03*
X68632000Y-38263000D03*
X66092000Y-35723000D03*
X66092000Y-38263000D03*
X63552000Y-35723000D03*
X63552000Y-38263000D03*
X61012000Y-35723000D03*
X61012000Y-38263000D03*
X58472000Y-35723000D03*
X58472000Y-38263000D03*
%TD*%
D22*
%TO.C,J7*%
X134109868Y-151023600D03*
D17*
X131569868Y-151023600D03*
X129029868Y-151023600D03*
%TD*%
D29*
%TO.C,U3*%
X84533700Y-141623700D03*
D30*
X99773700Y-141623700D03*
D31*
X99773700Y-121303700D03*
X92153700Y-121303700D03*
X84533700Y-121303700D03*
%TD*%
D27*
%TO.C,J1*%
X40335200Y-68367800D03*
D28*
X40335200Y-72567800D03*
X34835200Y-68367800D03*
X34835200Y-72567800D03*
%TD*%
D14*
%TO.C,J14*%
X70486200Y-44003400D03*
D15*
X70486200Y-46543400D03*
%TD*%
D22*
%TO.C,J6*%
X117139335Y-151129400D03*
D17*
X114599335Y-151129400D03*
X112059335Y-151129400D03*
%TD*%
D35*
%TO.C,R5*%
X83974900Y-148507100D03*
D36*
X83974900Y-153587100D03*
%TD*%
D16*
%TO.C,J22*%
X153338280Y-118260080D03*
D17*
X155878280Y-118260080D03*
X158418280Y-118260080D03*
X160958280Y-118260080D03*
%TD*%
D18*
%TO.C,H2*%
X37224000Y-144373600D03*
X37926944Y-142676544D03*
X37926944Y-146070656D03*
X39624000Y-141973600D03*
D19*
X39624000Y-144373600D03*
D18*
X39624000Y-146773600D03*
X41321056Y-142676544D03*
X41321056Y-146070656D03*
X42024000Y-144373600D03*
%TD*%
M02*
