M48
; DRILL file {KiCad 8.0.9-8.0.9-0~ubuntu20.04.1} date 2025-10-30T08:55:16-0300
; FORMAT={-:-/ absolute / inch / decimal}
; #@! TF.CreationDate,2025-10-30T08:55:16-03:00
; #@! TF.GenerationSoftware,Kicad,Pcbnew,8.0.9-8.0.9-0~ubuntu20.04.1
; #@! TF.FileFunction,Plated,1,2,PTH
FMAT,2
INCH
; #@! TA.AperFunction,Plated,PTH,ViaDrill
T1C0.0118
; #@! TA.AperFunction,Plated,PTH,ComponentDrill
T2C0.0197
; #@! TA.AperFunction,Plated,PTH,ComponentDrill
T3C0.0295
; #@! TA.AperFunction,Plated,PTH,ComponentDrill
T4C0.0315
; #@! TA.AperFunction,Plated,PTH,ComponentDrill
T5C0.0394
; #@! TA.AperFunction,Plated,PTH,ComponentDrill
T6C0.0433
; #@! TA.AperFunction,Plated,PTH,ComponentDrill
T7C0.0469
; #@! TA.AperFunction,Plated,PTH,ComponentDrill
T8C0.0472
; #@! TA.AperFunction,Plated,PTH,ComponentDrill
T9C0.0551
; #@! TA.AperFunction,Plated,PTH,ComponentDrill
T10C0.1260
%
G90
G05
T1
X1.5042Y-1.597
X2.0017Y-2.7959
X2.4747Y-2.7959
X2.968Y-2.0164
X3.7463Y-2.7959
X3.7463Y-2.7959
X4.2193Y-2.7959
X4.2193Y-2.7959
X4.2721Y-5.1338
X4.4283Y-4.7424
X4.7126Y-2.0164
X4.7538Y-5.5909
X4.8312Y-5.672
X4.9403Y-5.1296
X5.4222Y-5.5891
X5.4909Y-2.7959
X5.4909Y-2.7959
X5.4993Y-5.6678
X5.6084Y-5.1304
X5.9639Y-2.7959
X5.9639Y-2.7959
X6.0903Y-5.5899
X6.1674Y-5.6686
X6.2765Y-5.1266
X6.4572Y-2.015
X6.7584Y-5.5861
X6.8356Y-5.6648
T2
X1.431Y-2.361
X1.4587Y-2.2942
X1.4587Y-2.4278
X1.4655Y-5.684
X1.4932Y-5.6172
X1.4932Y-5.7508
X1.5255Y-2.2665
X1.5255Y-2.4555
X1.56Y-5.5895
X1.56Y-5.7785
X1.5923Y-2.2942
X1.5923Y-2.4278
X1.62Y-2.361
X1.6268Y-5.6172
X1.6268Y-5.7508
X1.6545Y-5.684
X6.5995Y-3.16
X6.6272Y-3.0932
X6.6272Y-3.2268
X6.694Y-3.0655
X6.694Y-3.2545
X6.7608Y-3.0932
X6.7608Y-3.2268
X6.7885Y-3.16
T3
X2.1138Y-2.4269
X2.1138Y-2.4769
X2.1138Y-2.5269
X2.5868Y-2.4269
X2.5868Y-2.4769
X2.5868Y-2.5269
X3.8584Y-2.4269
X3.8584Y-2.4769
X3.8584Y-2.5269
X4.3314Y-2.4269
X4.3314Y-2.4769
X4.3314Y-2.5269
X5.603Y-2.4269
X5.603Y-2.4769
X5.603Y-2.5269
X6.076Y-2.4269
X6.076Y-2.4769
X6.076Y-2.5269
T4
X1.364Y-3.4354
X1.3642Y-4.4353
X1.464Y-3.4354
X1.4642Y-4.4353
X1.564Y-3.4354
X1.564Y-4.4354
X1.664Y-3.4354
X1.664Y-4.4354
X1.764Y-3.4354
X1.764Y-4.4354
X1.864Y-3.4354
X1.864Y-4.4354
X1.9235Y-2.3246
X1.9235Y-2.6246
X1.9509Y-1.736
X1.9509Y-2.036
X1.964Y-3.4354
X1.964Y-4.4354
X2.0235Y-2.3246
X2.0235Y-2.6246
X2.0509Y-1.736
X2.0509Y-2.036
X2.064Y-3.4354
X2.064Y-4.4354
X2.1235Y-2.3246
X2.1235Y-2.6246
X2.1509Y-1.736
X2.1509Y-2.036
X2.164Y-3.4354
X2.164Y-4.4354
X2.2509Y-1.736
X2.2509Y-2.036
X2.264Y-3.4354
X2.264Y-4.4354
X2.3509Y-1.736
X2.3509Y-2.036
X2.364Y-3.4354
X2.364Y-4.4354
X2.3965Y-2.3246
X2.3965Y-2.6246
X2.4509Y-1.736
X2.4509Y-2.036
X2.464Y-3.4354
X2.464Y-4.4354
X2.4965Y-2.3246
X2.4965Y-2.6246
X2.5509Y-1.736
X2.5509Y-2.036
X2.564Y-3.4354
X2.564Y-4.4354
X2.5965Y-2.3246
X2.5965Y-2.6246
X2.664Y-3.4354
X2.664Y-4.4354
X2.764Y-3.4354
X2.764Y-4.4354
X2.864Y-3.4354
X2.864Y-4.4354
X2.964Y-3.4354
X2.964Y-4.4354
X3.064Y-3.4354
X3.064Y-4.4354
X3.08Y-1.7364
X3.08Y-2.0364
X3.1024Y-2.3083
X3.1024Y-2.6083
X3.164Y-3.4354
X3.164Y-4.4354
X3.18Y-1.7364
X3.18Y-2.0364
X3.2024Y-2.3083
X3.2024Y-2.6083
X3.28Y-1.7364
X3.28Y-2.0364
X3.3024Y-2.3083
X3.3024Y-2.6083
X3.38Y-1.7364
X3.38Y-2.0364
X3.6681Y-2.3246
X3.6681Y-2.6246
X3.6954Y-1.736
X3.6954Y-2.036
X3.7681Y-2.3246
X3.7681Y-2.6246
X3.7954Y-1.736
X3.7954Y-2.036
X3.8681Y-2.3246
X3.8681Y-2.6246
X3.8954Y-1.736
X3.8954Y-2.036
X3.9954Y-1.736
X3.9954Y-2.036
X4.0954Y-1.736
X4.0954Y-2.036
X4.1411Y-2.3246
X4.1411Y-2.6246
X4.1954Y-1.736
X4.1954Y-2.036
X4.2411Y-2.3246
X4.2411Y-2.6246
X4.2954Y-1.736
X4.2954Y-2.036
X4.3411Y-2.3246
X4.3411Y-2.6246
X4.3668Y-5.0538
X4.3668Y-5.1538
X4.3668Y-5.2538
X4.3668Y-5.3538
X4.3668Y-5.4538
X4.3668Y-5.5538
X4.3668Y-5.6538
X4.5074Y-4.3573
X4.5074Y-4.6573
X4.6074Y-4.3573
X4.6074Y-4.6573
X4.6668Y-5.0538
X4.6668Y-5.1538
X4.6668Y-5.2538
X4.6668Y-5.3538
X4.6668Y-5.4538
X4.6668Y-5.5538
X4.6668Y-5.6538
X4.7074Y-4.3573
X4.7074Y-4.6573
X4.8074Y-4.3573
X4.8074Y-4.6573
X4.8246Y-1.7364
X4.8246Y-2.0364
X4.847Y-2.3083
X4.847Y-2.6083
X4.9246Y-1.7364
X4.9246Y-2.0364
X4.947Y-2.3083
X4.947Y-2.6083
X4.951Y-3.4184
X4.951Y-4.4184
X5.0246Y-1.7364
X5.0246Y-2.0364
X5.0349Y-5.0496
X5.0349Y-5.1496
X5.0349Y-5.2496
X5.0349Y-5.3496
X5.0349Y-5.4496
X5.0349Y-5.5496
X5.0349Y-5.6496
X5.047Y-2.3083
X5.047Y-2.6083
X5.051Y-3.4184
X5.051Y-4.4184
X5.1246Y-1.7364
X5.1246Y-2.0364
X5.151Y-3.4184
X5.151Y-4.4184
X5.251Y-3.4184
X5.251Y-4.4184
X5.3349Y-5.0496
X5.3349Y-5.1496
X5.3349Y-5.2496
X5.3349Y-5.3496
X5.3349Y-5.4496
X5.3349Y-5.5496
X5.3349Y-5.6496
X5.351Y-3.4184
X5.351Y-4.4184
X5.4127Y-2.3246
X5.4127Y-2.6246
X5.44Y-1.736
X5.44Y-2.036
X5.451Y-3.4184
X5.451Y-4.4184
X5.5127Y-2.3246
X5.5127Y-2.6246
X5.54Y-1.736
X5.54Y-2.036
X5.551Y-3.4184
X5.551Y-4.4184
X5.6127Y-2.3246
X5.6127Y-2.6246
X5.64Y-1.736
X5.64Y-2.036
X5.651Y-3.4184
X5.651Y-4.4184
X5.703Y-5.0504
X5.703Y-5.1504
X5.703Y-5.2504
X5.703Y-5.3504
X5.703Y-5.4504
X5.703Y-5.5504
X5.703Y-5.6504
X5.74Y-1.736
X5.74Y-2.036
X5.751Y-3.4184
X5.751Y-4.4184
X5.84Y-1.736
X5.84Y-2.036
X5.851Y-3.4184
X5.851Y-4.4184
X5.8857Y-2.3246
X5.8857Y-2.6246
X5.94Y-1.736
X5.94Y-2.036
X5.951Y-3.4184
X5.951Y-4.4184
X5.9857Y-2.3246
X5.9857Y-2.6246
X6.003Y-5.0504
X6.003Y-5.1504
X6.003Y-5.2504
X6.003Y-5.3504
X6.003Y-5.4504
X6.003Y-5.5504
X6.003Y-5.6504
X6.04Y-1.736
X6.04Y-2.036
X6.051Y-3.4184
X6.051Y-4.4184
X6.0857Y-2.3246
X6.0857Y-2.6246
X6.151Y-3.4184
X6.151Y-4.4184
X6.251Y-3.4184
X6.251Y-4.4184
X6.351Y-3.4184
X6.351Y-4.4184
X6.3712Y-5.0466
X6.3712Y-5.1466
X6.3712Y-5.2466
X6.3712Y-5.3466
X6.3712Y-5.4466
X6.3712Y-5.5466
X6.3712Y-5.6466
X6.451Y-3.4184
X6.451Y-4.4184
X6.551Y-3.4184
X6.551Y-4.4184
X6.5692Y-1.7364
X6.5692Y-2.0364
X6.5916Y-2.3083
X6.5916Y-2.6083
X6.6509Y-3.4186
X6.651Y-4.4184
X6.6692Y-1.7364
X6.6692Y-2.0364
X6.6712Y-5.0466
X6.6712Y-5.1466
X6.6712Y-5.2466
X6.6712Y-5.3466
X6.6712Y-5.4466
X6.6712Y-5.5466
X6.6712Y-5.6466
X6.6916Y-2.3083
X6.6916Y-2.6083
X6.7509Y-3.4186
X6.751Y-4.4184
X6.7692Y-1.7364
X6.7692Y-2.0364
X6.7916Y-2.3083
X6.7916Y-2.6083
X6.8692Y-1.7364
X6.8692Y-2.0364
T5
X2.302Y-1.4064
X2.302Y-1.5064
X2.402Y-1.4064
X2.402Y-1.5064
X2.502Y-1.4064
X2.502Y-1.5064
X2.602Y-1.4064
X2.602Y-1.5064
X2.702Y-1.4064
X2.702Y-1.5064
X2.775Y-1.7324
X2.775Y-1.8324
X2.802Y-1.4064
X2.802Y-1.5064
X2.902Y-1.4064
X2.902Y-1.5064
X2.936Y-1.7334
X2.936Y-1.8334
X3.8789Y-3.4708
X3.8789Y-3.5708
X3.8789Y-3.6708
X3.8789Y-3.7708
X4.0466Y-1.4064
X4.0466Y-1.5064
X4.1466Y-1.4064
X4.1466Y-1.5064
X4.2466Y-1.4064
X4.2466Y-1.5064
X4.3466Y-1.4064
X4.3466Y-1.5064
X4.4466Y-1.4064
X4.4466Y-1.5064
X4.5196Y-1.7324
X4.5196Y-1.8324
X4.5466Y-1.4064
X4.5466Y-1.5064
X4.5636Y-3.5708
X4.5636Y-3.6708
X4.6466Y-1.4064
X4.6466Y-1.5064
X4.6806Y-1.7334
X4.6806Y-1.8334
X5.7912Y-1.4064
X5.7912Y-1.5064
X5.8912Y-1.4064
X5.8912Y-1.5064
X5.9912Y-1.4064
X5.9912Y-1.5064
X6.0912Y-1.4064
X6.0912Y-1.5064
X6.1912Y-1.4064
X6.1912Y-1.5064
X6.2642Y-1.7324
X6.2642Y-1.8324
X6.2912Y-1.4064
X6.2912Y-1.5064
X6.3912Y-1.4064
X6.3912Y-1.5064
X6.4252Y-1.7334
X6.4252Y-1.8334
T6
X2.163Y-5.5694
X2.763Y-5.5694
X3.3281Y-5.5757
X3.9281Y-5.5757
T7
X1.7782Y-3.1979
X1.8782Y-3.1979
X1.9782Y-3.1979
X2.0782Y-3.1979
X2.736Y-5.9944
X2.836Y-5.9944
X3.9011Y-6.0007
X4.0011Y-6.0007
X4.4118Y-5.95
X4.5118Y-5.95
X4.6118Y-5.95
X5.0799Y-5.9458
X5.1799Y-5.9458
X5.2799Y-5.9458
X5.748Y-5.9466
X5.848Y-5.9466
X5.948Y-5.9466
X6.0369Y-4.6559
X6.1369Y-4.6559
X6.2369Y-4.6559
X6.3369Y-4.6559
X6.4162Y-5.9428
X6.5162Y-5.9428
X6.6162Y-5.9428
T8
X2.141Y-5.8404
X2.141Y-6.0404
X2.163Y-4.7694
X2.463Y-4.7694
X2.763Y-4.7694
X3.3061Y-5.8467
X3.3061Y-6.0467
X3.3281Y-4.7757
X3.6281Y-4.7757
X3.9281Y-4.7757
T9
X1.3715Y-2.6916
X1.3715Y-2.857
X1.3876Y-1.775
X1.3876Y-1.9915
X1.4008Y-4.7014
X1.4008Y-4.8668
X1.4008Y-5.0321
X1.553Y-1.775
X1.553Y-1.9915
X1.588Y-2.6916
X1.588Y-2.857
X1.6173Y-4.7014
X1.6173Y-4.8668
X1.6173Y-5.0321
X2.424Y-5.7959
X2.424Y-5.9959
X3.5891Y-5.8022
X3.5891Y-6.0022
X3.744Y-4.058
X3.744Y-4.2745
X4.11Y-4.054
X4.11Y-4.2705
T10
X1.5255Y-2.361
X1.56Y-5.684
X6.694Y-3.16
M30
