%TF.GenerationSoftware,KiCad,Pcbnew,8.0.9-8.0.9-0~ubuntu20.04.1*%
%TF.CreationDate,2025-10-01T14:57:02-03:00*%
%TF.ProjectId,board,626f6172-642e-46b6-9963-61645f706362,rev?*%
%TF.SameCoordinates,Original*%
%TF.FileFunction,Soldermask,Bot*%
%TF.FilePolarity,Negative*%
%FSLAX46Y46*%
G04 Gerber Fmt 4.6, Leading zero omitted, Abs format (unit mm)*
G04 Created by KiCad (PCBNEW 8.0.9-8.0.9-0~ubuntu20.04.1) date 2025-10-01 14:57:02*
%MOMM*%
%LPD*%
G01*
G04 APERTURE LIST*
G04 Aperture macros list*
%AMRoundRect*
0 Rectangle with rounded corners*
0 $1 Rounding radius*
0 $2 $3 $4 $5 $6 $7 $8 $9 X,Y pos of 4 corners*
0 Add a 4 corners polygon primitive as box body*
4,1,4,$2,$3,$4,$5,$6,$7,$8,$9,$2,$3,0*
0 Add four circle primitives for the rounded corners*
1,1,$1+$1,$2,$3*
1,1,$1+$1,$4,$5*
1,1,$1+$1,$6,$7*
1,1,$1+$1,$8,$9*
0 Add four rect primitives between the rounded corners*
20,1,$1+$1,$2,$3,$4,$5,0*
20,1,$1+$1,$4,$5,$6,$7,0*
20,1,$1+$1,$6,$7,$8,$9,0*
20,1,$1+$1,$8,$9,$2,$3,0*%
G04 Aperture macros list end*
%ADD10C,1.600000*%
%ADD11O,1.600000X1.600000*%
%ADD12C,2.000000*%
%ADD13R,1.600000X1.600000*%
%ADD14RoundRect,0.250000X0.845000X-0.620000X0.845000X0.620000X-0.845000X0.620000X-0.845000X-0.620000X0*%
%ADD15O,2.190000X1.740000*%
%ADD16C,1.800000*%
%ADD17R,1.700000X1.700000*%
%ADD18O,1.700000X1.700000*%
%ADD19RoundRect,0.250000X-0.845000X0.620000X-0.845000X-0.620000X0.845000X-0.620000X0.845000X0.620000X0*%
%ADD20R,2.100000X2.100000*%
%ADD21C,2.100000*%
%ADD22C,2.200000*%
%ADD23C,1.270000*%
%ADD24R,1.200000X2.000000*%
%ADD25O,1.200000X2.000000*%
%ADD26RoundRect,0.250001X1.099999X1.399999X-1.099999X1.399999X-1.099999X-1.399999X1.099999X-1.399999X0*%
%ADD27O,2.700000X3.300000*%
%ADD28RoundRect,0.250000X0.600000X0.600000X-0.600000X0.600000X-0.600000X-0.600000X0.600000X-0.600000X0*%
%ADD29C,1.700000*%
%ADD30RoundRect,0.250001X-1.399999X1.099999X-1.399999X-1.099999X1.399999X-1.099999X1.399999X1.099999X0*%
%ADD31O,3.300000X2.700000*%
%ADD32R,2.000000X1.200000*%
%ADD33O,2.000000X1.200000*%
%ADD34RoundRect,0.250001X-1.099999X-1.399999X1.099999X-1.399999X1.099999X1.399999X-1.099999X1.399999X0*%
G04 APERTURE END LIST*
D10*
%TO.C,R17*%
X75438000Y-90799920D03*
D11*
X83058000Y-90799920D03*
%TD*%
D12*
%TO.C,C24*%
X136965200Y-145420920D03*
X136965200Y-137920920D03*
%TD*%
%TO.C,C26*%
X156208400Y-151088521D03*
X156208400Y-158588521D03*
%TD*%
D10*
%TO.C,R25*%
X75438000Y-93812360D03*
D11*
X83058000Y-93812360D03*
%TD*%
D12*
%TO.C,C17*%
X137146800Y-102946920D03*
X137146800Y-95446920D03*
%TD*%
D10*
%TO.C,R2*%
X48316500Y-44319719D03*
D11*
X40696500Y-44319719D03*
%TD*%
D13*
%TO.C,U4*%
X92327000Y-59847320D03*
D11*
X89787000Y-59847320D03*
X87247000Y-59847320D03*
X84707000Y-59847320D03*
X82167000Y-59847320D03*
X79627000Y-59847320D03*
X77087000Y-59847320D03*
X77087000Y-67467320D03*
X79627000Y-67467320D03*
X82167000Y-67467320D03*
X84707000Y-67467320D03*
X87247000Y-67467320D03*
X89787000Y-67467320D03*
X92327000Y-67467320D03*
%TD*%
D12*
%TO.C,C32*%
X137066000Y-73634720D03*
X137066000Y-66134720D03*
%TD*%
%TO.C,C31*%
X156481600Y-66140521D03*
X156481600Y-73640521D03*
%TD*%
D10*
%TO.C,R20*%
X47000700Y-82060520D03*
D11*
X39380700Y-82060520D03*
%TD*%
D12*
%TO.C,C9*%
X34524300Y-75945320D03*
X34524300Y-68445320D03*
%TD*%
D14*
%TO.C,J7*%
X27823700Y-78428320D03*
D15*
X27823700Y-75888320D03*
X27823700Y-73348320D03*
%TD*%
D16*
%TO.C,RV4*%
X160051400Y-22794200D03*
X158651400Y-30294200D03*
%TD*%
D10*
%TO.C,R7*%
X56881300Y-60814320D03*
D11*
X49261300Y-60814320D03*
%TD*%
D12*
%TO.C,C37*%
X71780400Y-122088600D03*
X71780400Y-114588600D03*
%TD*%
%TO.C,C12*%
X97071800Y-106431080D03*
X104571800Y-106431080D03*
%TD*%
D10*
%TO.C,R15*%
X75438000Y-87787480D03*
D11*
X83058000Y-87787480D03*
%TD*%
D10*
%TO.C,R40*%
X56881300Y-124476720D03*
D11*
X49261300Y-124476720D03*
%TD*%
D12*
%TO.C,C22*%
X136914400Y-132136721D03*
X136914400Y-124636721D03*
%TD*%
D17*
%TO.C,J17*%
X173728200Y-66105920D03*
D18*
X173728200Y-68645920D03*
%TD*%
D10*
%TO.C,R27*%
X48316500Y-86761319D03*
D11*
X40696500Y-86761319D03*
%TD*%
D10*
%TO.C,R46*%
X132300800Y-116184920D03*
D11*
X132300800Y-108564920D03*
%TD*%
D13*
%TO.C,U12*%
X161628600Y-132730121D03*
D11*
X161628600Y-135270121D03*
X161628600Y-137810121D03*
X161628600Y-140350121D03*
X161628600Y-142890121D03*
X161628600Y-145430121D03*
X161628600Y-147970121D03*
X169248600Y-147970121D03*
X169248600Y-145430121D03*
X169248600Y-142890121D03*
X169248600Y-140350121D03*
X169248600Y-137810121D03*
X169248600Y-135270121D03*
X169248600Y-132730121D03*
%TD*%
D13*
%TO.C,U22*%
X141302400Y-39679521D03*
D11*
X141302400Y-42219521D03*
X141302400Y-44759521D03*
X148922400Y-44759521D03*
X148922400Y-42219521D03*
X148922400Y-39679521D03*
%TD*%
D10*
%TO.C,R13*%
X101848300Y-55349620D03*
D11*
X109468300Y-55349620D03*
%TD*%
D12*
%TO.C,C29*%
X137238400Y-60472920D03*
X137238400Y-52972920D03*
%TD*%
D10*
%TO.C,R56*%
X132392400Y-73710920D03*
D11*
X132392400Y-66090920D03*
%TD*%
D16*
%TO.C,RV2*%
X33997300Y-28375920D03*
X32597300Y-35875920D03*
%TD*%
D10*
%TO.C,R53*%
X132615600Y-60583720D03*
D11*
X132615600Y-52963720D03*
%TD*%
D10*
%TO.C,R14*%
X75438000Y-84775040D03*
D11*
X83058000Y-84775040D03*
%TD*%
D10*
%TO.C,R28*%
X47000700Y-103281320D03*
D11*
X39380700Y-103281320D03*
%TD*%
D13*
%TO.C,U5*%
X39045500Y-76030720D03*
D11*
X41585500Y-76030720D03*
X44125500Y-76030720D03*
X46665500Y-76030720D03*
X49205500Y-76030720D03*
X51745500Y-76030720D03*
X54285500Y-76030720D03*
X54285500Y-68410720D03*
X51745500Y-68410720D03*
X49205500Y-68410720D03*
X46665500Y-68410720D03*
X44125500Y-68410720D03*
X41585500Y-68410720D03*
X39045500Y-68410720D03*
%TD*%
D12*
%TO.C,C2*%
X84086700Y-55298820D03*
X91586700Y-55298820D03*
%TD*%
D10*
%TO.C,R36*%
X47000700Y-124502120D03*
D11*
X39380700Y-124502120D03*
%TD*%
D10*
%TO.C,R38*%
X58044700Y-118472320D03*
D11*
X58044700Y-110852320D03*
%TD*%
D12*
%TO.C,C13*%
X34524300Y-118386920D03*
X34524300Y-110886920D03*
%TD*%
D10*
%TO.C,R30*%
X58044700Y-97251520D03*
D11*
X58044700Y-89631520D03*
%TD*%
D12*
%TO.C,C34*%
X153060400Y-39649400D03*
X153060400Y-47149400D03*
%TD*%
D13*
%TO.C,U6*%
X39045500Y-97251520D03*
D11*
X41585500Y-97251520D03*
X44125500Y-97251520D03*
X46665500Y-97251520D03*
X49205500Y-97251520D03*
X51745500Y-97251520D03*
X54285500Y-97251520D03*
X54285500Y-89631520D03*
X51745500Y-89631520D03*
X49205500Y-89631520D03*
X46665500Y-89631520D03*
X44125500Y-89631520D03*
X41585500Y-89631520D03*
X39045500Y-89631520D03*
%TD*%
D10*
%TO.C,R23*%
X51745500Y-78850120D03*
D11*
X59365500Y-78850120D03*
%TD*%
D10*
%TO.C,R37*%
X49261300Y-121301720D03*
D11*
X41641300Y-121301720D03*
%TD*%
D10*
%TO.C,R50*%
X157529200Y-137922120D03*
D11*
X157529200Y-145542120D03*
%TD*%
D13*
%TO.C,U16*%
X161901800Y-47782121D03*
D11*
X161901800Y-50322121D03*
X161901800Y-52862121D03*
X161901800Y-55402121D03*
X161901800Y-57942121D03*
X161901800Y-60482121D03*
X161901800Y-63022121D03*
X169521800Y-63022121D03*
X169521800Y-60482121D03*
X169521800Y-57942121D03*
X169521800Y-55402121D03*
X169521800Y-52862121D03*
X169521800Y-50322121D03*
X169521800Y-47782121D03*
%TD*%
D10*
%TO.C,R6*%
X51745500Y-57629320D03*
D11*
X59365500Y-57629320D03*
%TD*%
D10*
%TO.C,R42*%
X157660000Y-82163921D03*
D11*
X157660000Y-89783921D03*
%TD*%
D12*
%TO.C,C7*%
X98270600Y-59856520D03*
X98270600Y-67356520D03*
%TD*%
D10*
%TO.C,R10*%
X73095500Y-55349620D03*
D11*
X80715500Y-55349620D03*
%TD*%
D12*
%TO.C,C16*%
X152968800Y-82123400D03*
X152968800Y-89623400D03*
%TD*%
%TO.C,C4*%
X97071800Y-84343240D03*
X104571800Y-84343240D03*
%TD*%
%TO.C,C6*%
X97071800Y-78821280D03*
X104571800Y-78821280D03*
%TD*%
D13*
%TO.C,U7*%
X39045500Y-118472320D03*
D11*
X41585500Y-118472320D03*
X44125500Y-118472320D03*
X46665500Y-118472320D03*
X49205500Y-118472320D03*
X51745500Y-118472320D03*
X54285500Y-118472320D03*
X54285500Y-110852320D03*
X51745500Y-110852320D03*
X49205500Y-110852320D03*
X46665500Y-110852320D03*
X44125500Y-110852320D03*
X41585500Y-110852320D03*
X39045500Y-110852320D03*
%TD*%
D12*
%TO.C,C36*%
X82397600Y-122291800D03*
X82397600Y-114791800D03*
%TD*%
%TO.C,C11*%
X34524300Y-97166120D03*
X34524300Y-89666120D03*
%TD*%
D19*
%TO.C,J2*%
X73480600Y-18181320D03*
D15*
X73480600Y-20721320D03*
%TD*%
D10*
%TO.C,R21*%
X49261300Y-78860120D03*
D11*
X41641300Y-78860120D03*
%TD*%
D16*
%TO.C,RV1*%
X49239400Y-135010200D03*
X47839400Y-142510200D03*
%TD*%
D13*
%TO.C,U11*%
X148861600Y-116108721D03*
D11*
X148861600Y-113568721D03*
X148861600Y-111028721D03*
X141241600Y-111028721D03*
X141241600Y-113568721D03*
X141241600Y-116108721D03*
%TD*%
D10*
%TO.C,R19*%
X48316500Y-65540519D03*
D11*
X40696500Y-65540519D03*
%TD*%
D20*
%TO.C,U2*%
X88766000Y-26461720D03*
D21*
X73526000Y-26461720D03*
D22*
X73526000Y-46781720D03*
X81146000Y-46781720D03*
X88766000Y-46781720D03*
%TD*%
D12*
%TO.C,C14*%
X161834800Y-83738720D03*
X169334800Y-83738720D03*
%TD*%
D17*
%TO.C,J12*%
X173636600Y-104724120D03*
D18*
X173636600Y-102184120D03*
%TD*%
D17*
%TO.C,J18*%
X173728200Y-62250120D03*
D18*
X173728200Y-59710120D03*
%TD*%
D10*
%TO.C,R8*%
X84752800Y-17851120D03*
D11*
X92372800Y-17851120D03*
%TD*%
D10*
%TO.C,R22*%
X58044700Y-76030720D03*
D11*
X58044700Y-68410720D03*
%TD*%
D10*
%TO.C,R11*%
X113505600Y-17851120D03*
D11*
X121125600Y-17851120D03*
%TD*%
D10*
%TO.C,R41*%
X132473200Y-89773521D03*
D11*
X132473200Y-82153521D03*
%TD*%
D12*
%TO.C,C15*%
X137096000Y-89662721D03*
X137096000Y-82162721D03*
%TD*%
%TO.C,C5*%
X97071800Y-89865200D03*
X104571800Y-89865200D03*
%TD*%
D10*
%TO.C,R5*%
X58044700Y-54809920D03*
D11*
X58044700Y-47189920D03*
%TD*%
D16*
%TO.C,RV3*%
X60904400Y-35926720D03*
X62304400Y-28426720D03*
%TD*%
D10*
%TO.C,R3*%
X47000700Y-60839720D03*
D11*
X39380700Y-60839720D03*
%TD*%
D12*
%TO.C,C27*%
X136792800Y-158582720D03*
X136792800Y-151082720D03*
%TD*%
D10*
%TO.C,R44*%
X157710800Y-95448120D03*
D11*
X157710800Y-103068120D03*
%TD*%
D12*
%TO.C,C3*%
X112839500Y-55298820D03*
X120339500Y-55298820D03*
%TD*%
D23*
%TO.C,F1*%
X38989000Y-129108200D03*
X44089000Y-130708200D03*
%TD*%
D13*
%TO.C,U14*%
X141080000Y-137911720D03*
D11*
X141080000Y-140451720D03*
X141080000Y-142991720D03*
X148700000Y-142991720D03*
X148700000Y-140451720D03*
X148700000Y-137911720D03*
%TD*%
D23*
%TO.C,F2*%
X38503000Y-28371520D03*
X36903000Y-33471520D03*
%TD*%
D10*
%TO.C,R51*%
X151661800Y-150952321D03*
D11*
X151661800Y-158572321D03*
%TD*%
D13*
%TO.C,U13*%
X141029200Y-124627521D03*
D11*
X141029200Y-127167521D03*
X141029200Y-129707521D03*
X148649200Y-129707521D03*
X148649200Y-127167521D03*
X148649200Y-124627521D03*
%TD*%
D13*
%TO.C,U15*%
X148680000Y-158582721D03*
D11*
X148680000Y-156042721D03*
X148680000Y-153502721D03*
X141060000Y-153502721D03*
X141060000Y-156042721D03*
X141060000Y-158582721D03*
%TD*%
D13*
%TO.C,U20*%
X141353200Y-52963720D03*
D11*
X141353200Y-55503720D03*
X141353200Y-58043720D03*
X148973200Y-58043720D03*
X148973200Y-55503720D03*
X148973200Y-52963720D03*
%TD*%
D24*
%TO.C,U19*%
X112689640Y-129895600D03*
D25*
X110149640Y-129895600D03*
X107609640Y-129895600D03*
X105069640Y-129895600D03*
X102529640Y-129895600D03*
X99989640Y-129895600D03*
X97449640Y-129895600D03*
X94909640Y-129895600D03*
X92369640Y-129895600D03*
X89829640Y-129895600D03*
X87289640Y-129895600D03*
X84749640Y-129895600D03*
X82209640Y-129895600D03*
X79669640Y-129895600D03*
X77129640Y-129895600D03*
X74589640Y-129895600D03*
X72049640Y-129895600D03*
X69509640Y-129895600D03*
X66969640Y-129895600D03*
X66972360Y-155291920D03*
X69512360Y-155291920D03*
X72049640Y-155295600D03*
X74589640Y-155295600D03*
X77129640Y-155295600D03*
X79669640Y-155295600D03*
X82209640Y-155295600D03*
X84749640Y-155295600D03*
X87289640Y-155295600D03*
X89829640Y-155295600D03*
X92369640Y-155295600D03*
X94909640Y-155295600D03*
X97449640Y-155295600D03*
X99989640Y-155295600D03*
X102529640Y-155295600D03*
X105069640Y-155295600D03*
X107609640Y-155295600D03*
X110149640Y-155295600D03*
X112689640Y-155295600D03*
%TD*%
D13*
%TO.C,U1*%
X39045500Y-54809920D03*
D11*
X41585500Y-54809920D03*
X44125500Y-54809920D03*
X46665500Y-54809920D03*
X49205500Y-54809920D03*
X51745500Y-54809920D03*
X54285500Y-54809920D03*
X54285500Y-47189920D03*
X51745500Y-47189920D03*
X49205500Y-47189920D03*
X46665500Y-47189920D03*
X44125500Y-47189920D03*
X41585500Y-47189920D03*
X39045500Y-47189920D03*
%TD*%
D10*
%TO.C,R55*%
X151935000Y-66004321D03*
D11*
X151935000Y-73624321D03*
%TD*%
D10*
%TO.C,R54*%
X157802400Y-52974120D03*
D11*
X157802400Y-60594120D03*
%TD*%
D19*
%TO.C,J3*%
X102233400Y-18181320D03*
D15*
X102233400Y-20721320D03*
%TD*%
D14*
%TO.C,J9*%
X27823700Y-120869920D03*
D15*
X27823700Y-118329920D03*
X27823700Y-115789920D03*
%TD*%
D10*
%TO.C,R48*%
X157478400Y-124637921D03*
D11*
X157478400Y-132257921D03*
%TD*%
D13*
%TO.C,U21*%
X148953200Y-73634721D03*
D11*
X148953200Y-71094721D03*
X148953200Y-68554721D03*
X141333200Y-68554721D03*
X141333200Y-71094721D03*
X141333200Y-73634721D03*
%TD*%
D12*
%TO.C,C21*%
X161653200Y-126212720D03*
X169153200Y-126212720D03*
%TD*%
%TO.C,C20*%
X136974400Y-116108720D03*
X136974400Y-108608720D03*
%TD*%
D10*
%TO.C,R4*%
X49261300Y-57639320D03*
D11*
X41641300Y-57639320D03*
%TD*%
D10*
%TO.C,R32*%
X56881300Y-103255920D03*
D11*
X49261300Y-103255920D03*
%TD*%
D17*
%TO.C,J11*%
X173636600Y-108579920D03*
D18*
X173636600Y-111119920D03*
%TD*%
D10*
%TO.C,R35*%
X48316500Y-107982119D03*
D11*
X40696500Y-107982119D03*
%TD*%
D12*
%TO.C,C8*%
X97071800Y-95387160D03*
X104571800Y-95387160D03*
%TD*%
D23*
%TO.C,F3*%
X57818500Y-28422320D03*
X56218500Y-33522320D03*
%TD*%
D13*
%TO.C,U8*%
X161810200Y-90256121D03*
D11*
X161810200Y-92796121D03*
X161810200Y-95336121D03*
X161810200Y-97876121D03*
X161810200Y-100416121D03*
X161810200Y-102956121D03*
X161810200Y-105496121D03*
X169430200Y-105496121D03*
X169430200Y-102956121D03*
X169430200Y-100416121D03*
X169430200Y-97876121D03*
X169430200Y-95336121D03*
X169430200Y-92796121D03*
X169430200Y-90256121D03*
%TD*%
D10*
%TO.C,R12*%
X113531000Y-20924520D03*
D11*
X121151000Y-20924520D03*
%TD*%
D12*
%TO.C,C35*%
X62082900Y-129511500D03*
X54582900Y-129511500D03*
%TD*%
D26*
%TO.C,J6*%
X153755200Y-28168600D03*
D27*
X149555200Y-28168600D03*
X153755200Y-22668600D03*
X149555200Y-22668600D03*
%TD*%
D10*
%TO.C,R9*%
X84778200Y-20924520D03*
D11*
X92398200Y-20924520D03*
%TD*%
D10*
%TO.C,R57*%
X132564800Y-47299521D03*
D11*
X132564800Y-39679521D03*
%TD*%
D10*
%TO.C,R29*%
X49261300Y-100080920D03*
D11*
X41641300Y-100080920D03*
%TD*%
D10*
%TO.C,R1*%
X58222500Y-44319719D03*
D11*
X50602500Y-44319719D03*
%TD*%
D28*
%TO.C,J10*%
X181942400Y-107843320D03*
D29*
X179402400Y-107843320D03*
X181942400Y-105303320D03*
X179402400Y-105303320D03*
X181942400Y-102763320D03*
X179402400Y-102763320D03*
X181942400Y-100223320D03*
X179402400Y-100223320D03*
X181942400Y-97683320D03*
X179402400Y-97683320D03*
X181942400Y-95143320D03*
X179402400Y-95143320D03*
X181942400Y-92603320D03*
X179402400Y-92603320D03*
%TD*%
D12*
%TO.C,C1*%
X34524300Y-54724520D03*
X34524300Y-47224520D03*
%TD*%
D14*
%TO.C,J1*%
X27823700Y-57207520D03*
D15*
X27823700Y-54667520D03*
X27823700Y-52127520D03*
%TD*%
D30*
%TO.C,J4*%
X43153400Y-135644200D03*
D31*
X43153400Y-139844200D03*
X37653400Y-135644200D03*
X37653400Y-139844200D03*
%TD*%
D12*
%TO.C,C18*%
X153113400Y-95431920D03*
X153113400Y-102931920D03*
%TD*%
D10*
%TO.C,R31*%
X51745500Y-100070920D03*
D11*
X59365500Y-100070920D03*
%TD*%
D10*
%TO.C,R45*%
X151843400Y-108478321D03*
D11*
X151843400Y-116098321D03*
%TD*%
D12*
%TO.C,C30*%
X153205000Y-52957920D03*
X153205000Y-60457920D03*
%TD*%
D28*
%TO.C,J13*%
X181760800Y-150317320D03*
D29*
X179220800Y-150317320D03*
X181760800Y-147777320D03*
X179220800Y-147777320D03*
X181760800Y-145237320D03*
X179220800Y-145237320D03*
X181760800Y-142697320D03*
X179220800Y-142697320D03*
X181760800Y-140157320D03*
X179220800Y-140157320D03*
X181760800Y-137617320D03*
X179220800Y-137617320D03*
X181760800Y-135077320D03*
X179220800Y-135077320D03*
%TD*%
D12*
%TO.C,C28*%
X161926400Y-41264720D03*
X169426400Y-41264720D03*
%TD*%
D10*
%TO.C,R39*%
X51745500Y-121291720D03*
D11*
X59365500Y-121291720D03*
%TD*%
D30*
%TO.C,J19*%
X49173200Y-148522000D03*
D31*
X49173200Y-152722000D03*
X43673200Y-148522000D03*
X43673200Y-152722000D03*
%TD*%
D12*
%TO.C,C23*%
X152787200Y-124597400D03*
X152787200Y-132097400D03*
%TD*%
D10*
%TO.C,R16*%
X75438000Y-81762600D03*
D11*
X83058000Y-81762600D03*
%TD*%
D10*
%TO.C,R18*%
X58222500Y-65540519D03*
D11*
X50602500Y-65540519D03*
%TD*%
D12*
%TO.C,C33*%
X137187600Y-47188721D03*
X137187600Y-39688721D03*
%TD*%
D32*
%TO.C,U17*%
X87757000Y-76530200D03*
D33*
X87757000Y-79070200D03*
X87757000Y-81610200D03*
X87757000Y-84150200D03*
X87757000Y-86690200D03*
X87757000Y-89230200D03*
X87757000Y-91770200D03*
X87757000Y-94310200D03*
X87757000Y-96850200D03*
X87757000Y-99390200D03*
X87757000Y-101930200D03*
X87757000Y-104470200D03*
X87757000Y-107010200D03*
X87757000Y-109550200D03*
X87757000Y-112090200D03*
X87757000Y-114630200D03*
X87757000Y-117170200D03*
X87757000Y-119710200D03*
X87757000Y-122250200D03*
X113153320Y-122247480D03*
X113153320Y-119707480D03*
X113157000Y-117170200D03*
X113157000Y-114630200D03*
X113157000Y-112090200D03*
X113157000Y-109550200D03*
X113157000Y-107010200D03*
X113157000Y-104470200D03*
X113157000Y-101930200D03*
X113157000Y-99390200D03*
X113157000Y-96850200D03*
X113157000Y-94310200D03*
X113157000Y-91770200D03*
X113157000Y-89230200D03*
X113157000Y-86690200D03*
X113157000Y-84150200D03*
X113157000Y-81610200D03*
X113157000Y-79070200D03*
X113157000Y-76530200D03*
%TD*%
D10*
%TO.C,R58*%
X157751600Y-39689921D03*
D11*
X157751600Y-47309921D03*
%TD*%
D10*
%TO.C,R34*%
X58222500Y-107982119D03*
D11*
X50602500Y-107982119D03*
%TD*%
D17*
%TO.C,J14*%
X173455000Y-151053920D03*
D18*
X173455000Y-153593920D03*
%TD*%
D12*
%TO.C,C25*%
X152931800Y-137905920D03*
X152931800Y-145405920D03*
%TD*%
D10*
%TO.C,R52*%
X132119200Y-158658920D03*
D11*
X132119200Y-151038920D03*
%TD*%
D12*
%TO.C,C19*%
X156390000Y-108614521D03*
X156390000Y-116114521D03*
%TD*%
D13*
%TO.C,U10*%
X141261600Y-95437720D03*
D11*
X141261600Y-97977720D03*
X141261600Y-100517720D03*
X148881600Y-100517720D03*
X148881600Y-97977720D03*
X148881600Y-95437720D03*
%TD*%
D17*
%TO.C,J15*%
X173455000Y-147198120D03*
D18*
X173455000Y-144658120D03*
%TD*%
D13*
%TO.C,U9*%
X141210800Y-82153521D03*
D11*
X141210800Y-84693521D03*
X141210800Y-87233521D03*
X148830800Y-87233521D03*
X148830800Y-84693521D03*
X148830800Y-82153521D03*
%TD*%
D10*
%TO.C,R49*%
X132342400Y-145531720D03*
D11*
X132342400Y-137911720D03*
%TD*%
D23*
%TO.C,F4*%
X153773400Y-33973600D03*
X148673400Y-32373600D03*
%TD*%
D34*
%TO.C,J5*%
X43155000Y-28410720D03*
D27*
X47355000Y-28410720D03*
X51555000Y-28410720D03*
X43155000Y-33910720D03*
X47355000Y-33910720D03*
X51555000Y-33910720D03*
%TD*%
D14*
%TO.C,J8*%
X27823700Y-99649120D03*
D15*
X27823700Y-97109120D03*
X27823700Y-94569120D03*
%TD*%
D10*
%TO.C,R43*%
X132524000Y-103057720D03*
D11*
X132524000Y-95437720D03*
%TD*%
D12*
%TO.C,C10*%
X97071800Y-100909120D03*
X104571800Y-100909120D03*
%TD*%
D10*
%TO.C,R47*%
X132291600Y-132247521D03*
D11*
X132291600Y-124627521D03*
%TD*%
D20*
%TO.C,U3*%
X117518800Y-26461720D03*
D21*
X102278800Y-26461720D03*
D22*
X102278800Y-46781720D03*
X109898800Y-46781720D03*
X117518800Y-46781720D03*
%TD*%
D17*
%TO.C,U18*%
X62041300Y-135277300D03*
D18*
X59501300Y-135277300D03*
X56961300Y-135277300D03*
X54421300Y-135277300D03*
D17*
X59501300Y-152667300D03*
D18*
X56961300Y-152667300D03*
%TD*%
D10*
%TO.C,R26*%
X58222500Y-86761319D03*
D11*
X50602500Y-86761319D03*
%TD*%
D10*
%TO.C,R24*%
X56881300Y-82035120D03*
D11*
X49261300Y-82035120D03*
%TD*%
D28*
%TO.C,J16*%
X182034000Y-65369320D03*
D29*
X179494000Y-65369320D03*
X182034000Y-62829320D03*
X179494000Y-62829320D03*
X182034000Y-60289320D03*
X179494000Y-60289320D03*
X182034000Y-57749320D03*
X179494000Y-57749320D03*
X182034000Y-55209320D03*
X179494000Y-55209320D03*
X182034000Y-52669320D03*
X179494000Y-52669320D03*
X182034000Y-50129320D03*
X179494000Y-50129320D03*
%TD*%
D10*
%TO.C,R33*%
X75438000Y-96824800D03*
D11*
X83058000Y-96824800D03*
%TD*%
M02*
