%TF.GenerationSoftware,KiCad,Pcbnew,8.0.9-8.0.9-0~ubuntu20.04.1*%
%TF.CreationDate,2025-10-14T08:35:39-03:00*%
%TF.ProjectId,Alimenta__o,416c696d-656e-4746-91e7-e36f2e6b6963,rev?*%
%TF.SameCoordinates,Original*%
%TF.FileFunction,Copper,L2,Bot*%
%TF.FilePolarity,Positive*%
%FSLAX46Y46*%
G04 Gerber Fmt 4.6, Leading zero omitted, Abs format (unit mm)*
G04 Created by KiCad (PCBNEW 8.0.9-8.0.9-0~ubuntu20.04.1) date 2025-10-14 08:35:39*
%MOMM*%
%LPD*%
G01*
G04 APERTURE LIST*
G04 Aperture macros list*
%AMRoundRect*
0 Rectangle with rounded corners*
0 $1 Rounding radius*
0 $2 $3 $4 $5 $6 $7 $8 $9 X,Y pos of 4 corners*
0 Add a 4 corners polygon primitive as box body*
4,1,4,$2,$3,$4,$5,$6,$7,$8,$9,$2,$3,0*
0 Add four circle primitives for the rounded corners*
1,1,$1+$1,$2,$3*
1,1,$1+$1,$4,$5*
1,1,$1+$1,$6,$7*
1,1,$1+$1,$8,$9*
0 Add four rect primitives between the rounded corners*
20,1,$1+$1,$2,$3,$4,$5,0*
20,1,$1+$1,$4,$5,$6,$7,0*
20,1,$1+$1,$6,$7,$8,$9,0*
20,1,$1+$1,$8,$9,$2,$3,0*%
G04 Aperture macros list end*
%TA.AperFunction,ComponentPad*%
%ADD10R,1.700000X1.700000*%
%TD*%
%TA.AperFunction,ComponentPad*%
%ADD11C,1.600000*%
%TD*%
%TA.AperFunction,ComponentPad*%
%ADD12RoundRect,0.250001X-1.399999X1.099999X-1.399999X-1.099999X1.399999X-1.099999X1.399999X1.099999X0*%
%TD*%
%TA.AperFunction,ComponentPad*%
%ADD13O,3.300000X2.700000*%
%TD*%
%TA.AperFunction,ComponentPad*%
%ADD14R,2.540000X2.540000*%
%TD*%
%TA.AperFunction,ComponentPad*%
%ADD15C,2.540000*%
%TD*%
%TA.AperFunction,ComponentPad*%
%ADD16RoundRect,0.250001X1.399999X-1.099999X1.399999X1.099999X-1.399999X1.099999X-1.399999X-1.099999X0*%
%TD*%
%TA.AperFunction,ViaPad*%
%ADD17C,0.600000*%
%TD*%
%TA.AperFunction,Conductor*%
%ADD18C,1.000000*%
%TD*%
G04 APERTURE END LIST*
D10*
%TO.P,J12,1,Pin_1*%
%TO.N,GND*%
X110871000Y-82804000D03*
%TD*%
D11*
%TO.P,U2,1,Vin*%
%TO.N,+12V*%
X71374000Y-65659000D03*
%TO.P,U2,2,GND*%
%TO.N,GND*%
X71374000Y-82807000D03*
%TO.P,U2,3,Vout*%
%TO.N,15V*%
X110871000Y-65659000D03*
%TO.P,U2,4,GND*%
%TO.N,GND*%
X110871000Y-82807000D03*
%TD*%
D10*
%TO.P,J11,1,Pin_1*%
%TO.N,15V*%
X110871000Y-65659000D03*
%TD*%
%TO.P,J10,1,Pin_1*%
%TO.N,GND*%
X71374000Y-82804000D03*
%TD*%
%TO.P,J9,1,Pin_1*%
%TO.N,+12V*%
X71374000Y-65659000D03*
%TD*%
%TO.P,J8,1,Pin_1*%
%TO.N,GND*%
X111856450Y-61417200D03*
%TD*%
D12*
%TO.P,J1,1,Pin_1*%
%TO.N,+12V*%
X64489400Y-75776400D03*
D13*
%TO.P,J1,2,Pin_2*%
%TO.N,GND*%
X64489400Y-79976400D03*
%TO.P,J1,3,Pin_3*%
%TO.N,+12V*%
X58989400Y-75776400D03*
%TO.P,J1,4,Pin_4*%
%TO.N,GND*%
X58989400Y-79976400D03*
%TD*%
D10*
%TO.P,J17,1,Pin_1*%
%TO.N,+15V_sym*%
X115849800Y-90295700D03*
%TD*%
D14*
%TO.P,U1,1,Vin*%
%TO.N,+12V*%
X71216450Y-43611800D03*
D15*
%TO.P,U1,2,GND*%
%TO.N,GND*%
X71216450Y-61391800D03*
%TO.P,U1,3,GND*%
X111856450Y-61391800D03*
%TO.P,U1,4,Vout*%
%TO.N,5V*%
X111856450Y-43611800D03*
%TD*%
D10*
%TO.P,J16,1,Pin_1*%
%TO.N,GND*%
X115849800Y-103275100D03*
%TD*%
%TO.P,J5,1,Pin_1*%
%TO.N,+12V*%
X71216450Y-43611800D03*
%TD*%
D16*
%TO.P,J3,1,Pin_1*%
%TO.N,15V*%
X120980200Y-76920200D03*
D13*
%TO.P,J3,2,Pin_2*%
%TO.N,GND*%
X120980200Y-72720200D03*
%TO.P,J3,3,Pin_3*%
%TO.N,15V*%
X126480200Y-76920200D03*
%TO.P,J3,4,Pin_4*%
%TO.N,GND*%
X126480200Y-72720200D03*
%TD*%
D10*
%TO.P,J6,1,Pin_1*%
%TO.N,GND*%
X71216450Y-61645800D03*
%TD*%
D16*
%TO.P,J2,1,Pin_1*%
%TO.N,-15V_sym*%
X120980200Y-107366600D03*
D13*
%TO.P,J2,2,Pin_2*%
%TO.N,GND*%
X120980200Y-103166600D03*
%TO.P,J2,3,Pin_3*%
%TO.N,+15V_sym*%
X120980200Y-98966600D03*
%TO.P,J2,4,Pin_4*%
%TO.N,-15V_sym*%
X126480200Y-107366600D03*
%TO.P,J2,5,Pin_5*%
%TO.N,GND*%
X126480200Y-103166600D03*
%TO.P,J2,6,Pin_6*%
%TO.N,+15V_sym*%
X126480200Y-98966600D03*
%TD*%
D10*
%TO.P,J13,1,Pin_1*%
%TO.N,+12V*%
X71247400Y-87146100D03*
%TD*%
%TO.P,J7,1,Pin_1*%
%TO.N,5V*%
X111856450Y-43561000D03*
%TD*%
%TO.P,J14,1,Pin_1*%
%TO.N,GND*%
X71069600Y-116305300D03*
%TD*%
%TO.P,J15,1,Pin_1*%
%TO.N,-15V_sym*%
X115849800Y-116254500D03*
%TD*%
D16*
%TO.P,J4,1,Pin_1*%
%TO.N,GND*%
X120980200Y-50131400D03*
D13*
%TO.P,J4,2,Pin_2*%
%TO.N,5V*%
X126480200Y-50131400D03*
%TD*%
D17*
%TO.N,+12V*%
X86962800Y-84902900D03*
X76269400Y-69027900D03*
X99231000Y-66843500D03*
X86773750Y-62306200D03*
X99231000Y-66843500D03*
X87623600Y-105907400D03*
X76269400Y-69027900D03*
X76930200Y-90032400D03*
X99041950Y-44246800D03*
X99891800Y-87848000D03*
X86962800Y-84902900D03*
X76080350Y-46431200D03*
%TO.N,/Conversor 12 to 15V - Sim\u00E9trico/SEPIC_XL6010/L_out*%
X99779400Y-103316600D03*
X100533200Y-108204000D03*
%TD*%
D18*
%TO.N,+12V*%
X71216450Y-43611800D02*
X71216450Y-44277350D01*
X71216450Y-44277350D02*
X67995800Y-47498000D01*
X67995800Y-53517800D02*
X64489400Y-57024200D01*
X67995800Y-47498000D02*
X67995800Y-53517800D01*
X64489400Y-57024200D02*
X64489400Y-72543600D01*
X64489400Y-75776400D02*
X64489400Y-72543600D01*
X64489400Y-72543600D02*
X71374000Y-65659000D01*
X64489400Y-75776400D02*
X58989400Y-75776400D01*
X71247400Y-87146100D02*
X68122800Y-84021500D01*
X68122800Y-84021500D02*
X68122800Y-79409800D01*
X68122800Y-79409800D02*
X64489400Y-75776400D01*
X87623600Y-105907400D02*
X87623600Y-97578700D01*
X71374000Y-65659000D02*
X72900500Y-65659000D01*
X80077300Y-90032400D02*
X76930200Y-90032400D01*
X99041950Y-44246800D02*
X78264750Y-44246800D01*
X72900500Y-65659000D02*
X76269400Y-69027900D01*
X78453800Y-66843500D02*
X76269400Y-69027900D01*
X78264750Y-44246800D02*
X76080350Y-46431200D01*
X99891800Y-87848000D02*
X79114600Y-87848000D01*
X71247400Y-87146100D02*
X74043900Y-87146100D01*
X87249000Y-76377800D02*
X80213200Y-69342000D01*
X78511400Y-46431200D02*
X76080350Y-46431200D01*
X71216450Y-43611800D02*
X73260950Y-43611800D01*
X80213200Y-69342000D02*
X76555600Y-69342000D01*
X86773750Y-54693550D02*
X78511400Y-46431200D01*
X73260950Y-43611800D02*
X76080350Y-46431200D01*
X87249000Y-85217000D02*
X87249000Y-76377800D01*
X79114600Y-87848000D02*
X76930200Y-90032400D01*
X87623600Y-97578700D02*
X80077300Y-90032400D01*
X99231000Y-66843500D02*
X78453800Y-66843500D01*
X74043900Y-87146100D02*
X76930200Y-90032400D01*
X86773750Y-62306200D02*
X86773750Y-54693550D01*
%TO.N,/Conversor 12 to 15V - Sim\u00E9trico/SEPIC_XL6010/L_out*%
X100533200Y-108204000D02*
X101244400Y-107492800D01*
X101244400Y-107492800D02*
X101244400Y-104781600D01*
X101244400Y-104781600D02*
X99779400Y-103316600D01*
%TD*%
%TA.AperFunction,Conductor*%
%TO.N,GND*%
G36*
X129433539Y-41419185D02*
G01*
X129479294Y-41471989D01*
X129490500Y-41523500D01*
X129490500Y-120274500D01*
X129470815Y-120341539D01*
X129418011Y-120387294D01*
X129366500Y-120398500D01*
X55615500Y-120398500D01*
X55548461Y-120378815D01*
X55502706Y-120326011D01*
X55491500Y-120274500D01*
X55491500Y-115407455D01*
X69719600Y-115407455D01*
X69719600Y-116055300D01*
X70636588Y-116055300D01*
X70603675Y-116112307D01*
X70569600Y-116239474D01*
X70569600Y-116371126D01*
X70603675Y-116498293D01*
X70636588Y-116555300D01*
X69719600Y-116555300D01*
X69719600Y-117203144D01*
X69726001Y-117262672D01*
X69726003Y-117262679D01*
X69776245Y-117397386D01*
X69776249Y-117397393D01*
X69862409Y-117512487D01*
X69862412Y-117512490D01*
X69977506Y-117598650D01*
X69977513Y-117598654D01*
X70112220Y-117648896D01*
X70112227Y-117648898D01*
X70171755Y-117655299D01*
X70171772Y-117655300D01*
X70819600Y-117655300D01*
X70819600Y-116738312D01*
X70876607Y-116771225D01*
X71003774Y-116805300D01*
X71135426Y-116805300D01*
X71262593Y-116771225D01*
X71319600Y-116738312D01*
X71319600Y-117655300D01*
X71967428Y-117655300D01*
X71967444Y-117655299D01*
X72026972Y-117648898D01*
X72026979Y-117648896D01*
X72161686Y-117598654D01*
X72161693Y-117598650D01*
X72276787Y-117512490D01*
X72276790Y-117512487D01*
X72362950Y-117397393D01*
X72362954Y-117397386D01*
X72413196Y-117262679D01*
X72413198Y-117262672D01*
X72419599Y-117203144D01*
X72419600Y-117203127D01*
X72419600Y-116555300D01*
X71502612Y-116555300D01*
X71535525Y-116498293D01*
X71569600Y-116371126D01*
X71569600Y-116239474D01*
X71535525Y-116112307D01*
X71502612Y-116055300D01*
X72419600Y-116055300D01*
X72419600Y-115407472D01*
X72419599Y-115407455D01*
X72414134Y-115356635D01*
X114499300Y-115356635D01*
X114499300Y-117152370D01*
X114499301Y-117152376D01*
X114505708Y-117211983D01*
X114556002Y-117346828D01*
X114556006Y-117346835D01*
X114642252Y-117462044D01*
X114642255Y-117462047D01*
X114757464Y-117548293D01*
X114757471Y-117548297D01*
X114892317Y-117598591D01*
X114892316Y-117598591D01*
X114899244Y-117599335D01*
X114951927Y-117605000D01*
X116747672Y-117604999D01*
X116807283Y-117598591D01*
X116942131Y-117548296D01*
X117057346Y-117462046D01*
X117143596Y-117346831D01*
X117193891Y-117211983D01*
X117200300Y-117152373D01*
X117200299Y-115356628D01*
X117193891Y-115297017D01*
X117143596Y-115162169D01*
X117143595Y-115162168D01*
X117143593Y-115162164D01*
X117057347Y-115046955D01*
X117057344Y-115046952D01*
X116942135Y-114960706D01*
X116942128Y-114960702D01*
X116807282Y-114910408D01*
X116807283Y-114910408D01*
X116747683Y-114904001D01*
X116747681Y-114904000D01*
X116747673Y-114904000D01*
X116747664Y-114904000D01*
X114951929Y-114904000D01*
X114951923Y-114904001D01*
X114892316Y-114910408D01*
X114757471Y-114960702D01*
X114757464Y-114960706D01*
X114642255Y-115046952D01*
X114642252Y-115046955D01*
X114556006Y-115162164D01*
X114556002Y-115162171D01*
X114505708Y-115297017D01*
X114500236Y-115347920D01*
X114499301Y-115356623D01*
X114499300Y-115356635D01*
X72414134Y-115356635D01*
X72413198Y-115347927D01*
X72413196Y-115347920D01*
X72362954Y-115213213D01*
X72362950Y-115213206D01*
X72276790Y-115098112D01*
X72276787Y-115098109D01*
X72161693Y-115011949D01*
X72161686Y-115011945D01*
X72026979Y-114961703D01*
X72026972Y-114961701D01*
X71967444Y-114955300D01*
X71319600Y-114955300D01*
X71319600Y-115872288D01*
X71262593Y-115839375D01*
X71135426Y-115805300D01*
X71003774Y-115805300D01*
X70876607Y-115839375D01*
X70819600Y-115872288D01*
X70819600Y-114955300D01*
X70171755Y-114955300D01*
X70112227Y-114961701D01*
X70112220Y-114961703D01*
X69977513Y-115011945D01*
X69977506Y-115011949D01*
X69862412Y-115098109D01*
X69862409Y-115098112D01*
X69776249Y-115213206D01*
X69776245Y-115213213D01*
X69726003Y-115347920D01*
X69726001Y-115347927D01*
X69719600Y-115407455D01*
X55491500Y-115407455D01*
X55491500Y-112898998D01*
X60985390Y-112898998D01*
X60985390Y-112899001D01*
X61005804Y-113184433D01*
X61066628Y-113464037D01*
X61166635Y-113732166D01*
X61303770Y-113983309D01*
X61303775Y-113983317D01*
X61475254Y-114212387D01*
X61475270Y-114212405D01*
X61677594Y-114414729D01*
X61677612Y-114414745D01*
X61906682Y-114586224D01*
X61906690Y-114586229D01*
X62157833Y-114723364D01*
X62157832Y-114723364D01*
X62157836Y-114723365D01*
X62157839Y-114723367D01*
X62425954Y-114823369D01*
X62425960Y-114823370D01*
X62425962Y-114823371D01*
X62705566Y-114884195D01*
X62705568Y-114884195D01*
X62705572Y-114884196D01*
X62959220Y-114902337D01*
X62990999Y-114904610D01*
X62991000Y-114904610D01*
X62991001Y-114904610D01*
X63019595Y-114902564D01*
X63276428Y-114884196D01*
X63556046Y-114823369D01*
X63824161Y-114723367D01*
X64075315Y-114586226D01*
X64304395Y-114414739D01*
X64506739Y-114212395D01*
X64678226Y-113983315D01*
X64815367Y-113732161D01*
X64915369Y-113464046D01*
X64976196Y-113184428D01*
X64996610Y-112899000D01*
X64976196Y-112613572D01*
X64915369Y-112333954D01*
X64815367Y-112065839D01*
X64735025Y-111918705D01*
X64678229Y-111814690D01*
X64678224Y-111814682D01*
X64506745Y-111585612D01*
X64506729Y-111585594D01*
X64304405Y-111383270D01*
X64304387Y-111383254D01*
X64075317Y-111211775D01*
X64075309Y-111211770D01*
X63824166Y-111074635D01*
X63824167Y-111074635D01*
X63716915Y-111034632D01*
X63556046Y-110974631D01*
X63556043Y-110974630D01*
X63556037Y-110974628D01*
X63276433Y-110913804D01*
X62991001Y-110893390D01*
X62990999Y-110893390D01*
X62705566Y-110913804D01*
X62425962Y-110974628D01*
X62157833Y-111074635D01*
X61906690Y-111211770D01*
X61906682Y-111211775D01*
X61677612Y-111383254D01*
X61677594Y-111383270D01*
X61475270Y-111585594D01*
X61475254Y-111585612D01*
X61303775Y-111814682D01*
X61303770Y-111814690D01*
X61166635Y-112065833D01*
X61066628Y-112333962D01*
X61005804Y-112613566D01*
X60985390Y-112898998D01*
X55491500Y-112898998D01*
X55491500Y-79726400D01*
X56856350Y-79726400D01*
X58335279Y-79726400D01*
X58316301Y-79772218D01*
X58289400Y-79907456D01*
X58289400Y-80045344D01*
X58316301Y-80180582D01*
X58335279Y-80226400D01*
X56856350Y-80226400D01*
X56871053Y-80338087D01*
X56933821Y-80572339D01*
X57026620Y-80796378D01*
X57026627Y-80796393D01*
X57147880Y-81006409D01*
X57295510Y-81198805D01*
X57295516Y-81198812D01*
X57466987Y-81370283D01*
X57466994Y-81370289D01*
X57659390Y-81517919D01*
X57869406Y-81639172D01*
X57869421Y-81639179D01*
X58093460Y-81731978D01*
X58327712Y-81794746D01*
X58568135Y-81826398D01*
X58568152Y-81826400D01*
X58739400Y-81826400D01*
X58739400Y-80630520D01*
X58785218Y-80649499D01*
X58920456Y-80676400D01*
X59058344Y-80676400D01*
X59193582Y-80649499D01*
X59239400Y-80630520D01*
X59239400Y-81826400D01*
X59410648Y-81826400D01*
X59410664Y-81826398D01*
X59651087Y-81794746D01*
X59885339Y-81731978D01*
X60109378Y-81639179D01*
X60109393Y-81639172D01*
X60319409Y-81517919D01*
X60511805Y-81370289D01*
X60511812Y-81370283D01*
X60683283Y-81198812D01*
X60683289Y-81198805D01*
X60830919Y-81006409D01*
X60952172Y-80796393D01*
X60952179Y-80796378D01*
X61044978Y-80572339D01*
X61107746Y-80338087D01*
X61122450Y-80226400D01*
X59643521Y-80226400D01*
X59662499Y-80180582D01*
X59689400Y-80045344D01*
X59689400Y-79907456D01*
X59662499Y-79772218D01*
X59643521Y-79726400D01*
X61122449Y-79726400D01*
X61107746Y-79614712D01*
X61044978Y-79380460D01*
X60952179Y-79156421D01*
X60952172Y-79156406D01*
X60830919Y-78946390D01*
X60683289Y-78753994D01*
X60683283Y-78753987D01*
X60511812Y-78582516D01*
X60511805Y-78582510D01*
X60319409Y-78434880D01*
X60109393Y-78313627D01*
X60109378Y-78313620D01*
X59885339Y-78220821D01*
X59651087Y-78158053D01*
X59410664Y-78126401D01*
X59410648Y-78126400D01*
X59239400Y-78126400D01*
X59239400Y-79322279D01*
X59193582Y-79303301D01*
X59058344Y-79276400D01*
X58920456Y-79276400D01*
X58785218Y-79303301D01*
X58739400Y-79322279D01*
X58739400Y-78126400D01*
X58568152Y-78126400D01*
X58568135Y-78126401D01*
X58327712Y-78158053D01*
X58093460Y-78220821D01*
X57869421Y-78313620D01*
X57869406Y-78313627D01*
X57659390Y-78434880D01*
X57466994Y-78582510D01*
X57466987Y-78582516D01*
X57295516Y-78753987D01*
X57295510Y-78753994D01*
X57147880Y-78946390D01*
X57026627Y-79156406D01*
X57026620Y-79156421D01*
X56933821Y-79380460D01*
X56871053Y-79614712D01*
X56856350Y-79726400D01*
X55491500Y-79726400D01*
X55491500Y-75655111D01*
X56838900Y-75655111D01*
X56838900Y-75897688D01*
X56870561Y-76138185D01*
X56933347Y-76372504D01*
X57010354Y-76558414D01*
X57026176Y-76596612D01*
X57147464Y-76806689D01*
X57147466Y-76806692D01*
X57147467Y-76806693D01*
X57295133Y-76999136D01*
X57295139Y-76999143D01*
X57466656Y-77170660D01*
X57466663Y-77170666D01*
X57579721Y-77257418D01*
X57659111Y-77318336D01*
X57869188Y-77439624D01*
X58093300Y-77532454D01*
X58327611Y-77595238D01*
X58488340Y-77616398D01*
X58568111Y-77626900D01*
X58568112Y-77626900D01*
X59410689Y-77626900D01*
X59490452Y-77616399D01*
X59651189Y-77595238D01*
X59885500Y-77532454D01*
X60109612Y-77439624D01*
X60319689Y-77318336D01*
X60512138Y-77170665D01*
X60683665Y-76999138D01*
X60816968Y-76825414D01*
X60873396Y-76784211D01*
X60915344Y-76776900D01*
X62214900Y-76776900D01*
X62281939Y-76796585D01*
X62327694Y-76849389D01*
X62338900Y-76900900D01*
X62338900Y-76926415D01*
X62349400Y-77029195D01*
X62349401Y-77029196D01*
X62404586Y-77195735D01*
X62404587Y-77195737D01*
X62496686Y-77345051D01*
X62496689Y-77345055D01*
X62620744Y-77469110D01*
X62620748Y-77469113D01*
X62770062Y-77561212D01*
X62770064Y-77561213D01*
X62770066Y-77561214D01*
X62936603Y-77616399D01*
X63039392Y-77626900D01*
X64873618Y-77626900D01*
X64940657Y-77646585D01*
X64961299Y-77663219D01*
X65244082Y-77946002D01*
X65277567Y-78007325D01*
X65272583Y-78077017D01*
X65230711Y-78132950D01*
X65165247Y-78157367D01*
X65140216Y-78156622D01*
X64910665Y-78126401D01*
X64910648Y-78126400D01*
X64739400Y-78126400D01*
X64739400Y-79322279D01*
X64693582Y-79303301D01*
X64558344Y-79276400D01*
X64420456Y-79276400D01*
X64285218Y-79303301D01*
X64239400Y-79322279D01*
X64239400Y-78126400D01*
X64068152Y-78126400D01*
X64068135Y-78126401D01*
X63827712Y-78158053D01*
X63593460Y-78220821D01*
X63369421Y-78313620D01*
X63369406Y-78313627D01*
X63159390Y-78434880D01*
X62966994Y-78582510D01*
X62966987Y-78582516D01*
X62795516Y-78753987D01*
X62795510Y-78753994D01*
X62647880Y-78946390D01*
X62526627Y-79156406D01*
X62526620Y-79156421D01*
X62433821Y-79380460D01*
X62371053Y-79614712D01*
X62356350Y-79726400D01*
X63835279Y-79726400D01*
X63816301Y-79772218D01*
X63789400Y-79907456D01*
X63789400Y-80045344D01*
X63816301Y-80180582D01*
X63835279Y-80226400D01*
X62356350Y-80226400D01*
X62371053Y-80338087D01*
X62433821Y-80572339D01*
X62526620Y-80796378D01*
X62526627Y-80796393D01*
X62647880Y-81006409D01*
X62795510Y-81198805D01*
X62795516Y-81198812D01*
X62966987Y-81370283D01*
X62966994Y-81370289D01*
X63159390Y-81517919D01*
X63369406Y-81639172D01*
X63369421Y-81639179D01*
X63593460Y-81731978D01*
X63827712Y-81794746D01*
X64068135Y-81826398D01*
X64068152Y-81826400D01*
X64239400Y-81826400D01*
X64239400Y-80630520D01*
X64285218Y-80649499D01*
X64420456Y-80676400D01*
X64558344Y-80676400D01*
X64693582Y-80649499D01*
X64739400Y-80630520D01*
X64739400Y-81826400D01*
X64910648Y-81826400D01*
X64910664Y-81826398D01*
X65151087Y-81794746D01*
X65385339Y-81731978D01*
X65609378Y-81639179D01*
X65609393Y-81639172D01*
X65819409Y-81517919D01*
X66011805Y-81370289D01*
X66011812Y-81370283D01*
X66183283Y-81198812D01*
X66183289Y-81198805D01*
X66330919Y-81006409D01*
X66452172Y-80796393D01*
X66452179Y-80796378D01*
X66544978Y-80572339D01*
X66607746Y-80338087D01*
X66622450Y-80226400D01*
X65143521Y-80226400D01*
X65162499Y-80180582D01*
X65189400Y-80045344D01*
X65189400Y-79907456D01*
X65162499Y-79772218D01*
X65143521Y-79726400D01*
X66622449Y-79726400D01*
X66609177Y-79625583D01*
X66619943Y-79556548D01*
X66666323Y-79504292D01*
X66733592Y-79485407D01*
X66800392Y-79505888D01*
X66819797Y-79521717D01*
X67085981Y-79787901D01*
X67119466Y-79849224D01*
X67122300Y-79875582D01*
X67122300Y-84120041D01*
X67122300Y-84120043D01*
X67122299Y-84120043D01*
X67160747Y-84313329D01*
X67160750Y-84313339D01*
X67236164Y-84495407D01*
X67236171Y-84495420D01*
X67345659Y-84659280D01*
X67345660Y-84659281D01*
X67345661Y-84659282D01*
X67485018Y-84798639D01*
X67485019Y-84798639D01*
X67492086Y-84805706D01*
X67492085Y-84805706D01*
X67492089Y-84805709D01*
X69860581Y-87174202D01*
X69894066Y-87235525D01*
X69896900Y-87261883D01*
X69896900Y-88043970D01*
X69896901Y-88043976D01*
X69903308Y-88103583D01*
X69953602Y-88238428D01*
X69953606Y-88238435D01*
X70039852Y-88353644D01*
X70039855Y-88353647D01*
X70155064Y-88439893D01*
X70155071Y-88439897D01*
X70289917Y-88490191D01*
X70289916Y-88490191D01*
X70296844Y-88490935D01*
X70349527Y-88496600D01*
X72145272Y-88496599D01*
X72204883Y-88490191D01*
X72339731Y-88439896D01*
X72454946Y-88353646D01*
X72541196Y-88238431D01*
X72545360Y-88227265D01*
X72587229Y-88171334D01*
X72652693Y-88146916D01*
X72661541Y-88146600D01*
X73578118Y-88146600D01*
X73645157Y-88166285D01*
X73665799Y-88182919D01*
X76292415Y-90809537D01*
X76292419Y-90809540D01*
X76456279Y-90919028D01*
X76456285Y-90919031D01*
X76456286Y-90919032D01*
X76638365Y-90994452D01*
X76831655Y-91032900D01*
X76831658Y-91032901D01*
X76831660Y-91032901D01*
X77034855Y-91032901D01*
X77034875Y-91032900D01*
X79611518Y-91032900D01*
X79678557Y-91052585D01*
X79699199Y-91069219D01*
X86586781Y-97956801D01*
X86620266Y-98018124D01*
X86623100Y-98044482D01*
X86623100Y-106005941D01*
X86623100Y-106005943D01*
X86623099Y-106005943D01*
X86661547Y-106199229D01*
X86661550Y-106199239D01*
X86736964Y-106381307D01*
X86736971Y-106381320D01*
X86846460Y-106545181D01*
X86846463Y-106545185D01*
X86985814Y-106684536D01*
X86985818Y-106684539D01*
X87149679Y-106794028D01*
X87149692Y-106794035D01*
X87331760Y-106869449D01*
X87331765Y-106869451D01*
X87331769Y-106869451D01*
X87331770Y-106869452D01*
X87525056Y-106907900D01*
X87525059Y-106907900D01*
X87722143Y-106907900D01*
X87852182Y-106882032D01*
X87915435Y-106869451D01*
X88097514Y-106794032D01*
X88261382Y-106684539D01*
X88400739Y-106545182D01*
X88510232Y-106381314D01*
X88585651Y-106199235D01*
X88598232Y-106135982D01*
X88624100Y-106005943D01*
X88624100Y-103218055D01*
X98778900Y-103218055D01*
X98778900Y-103415144D01*
X98817347Y-103608428D01*
X98817349Y-103608436D01*
X98892767Y-103790510D01*
X98892772Y-103790520D01*
X99002260Y-103954380D01*
X99002263Y-103954384D01*
X100207581Y-105159701D01*
X100241066Y-105221024D01*
X100243900Y-105247382D01*
X100243900Y-107027017D01*
X100224215Y-107094056D01*
X100207581Y-107114698D01*
X99756063Y-107566215D01*
X99756060Y-107566219D01*
X99646572Y-107730079D01*
X99646567Y-107730089D01*
X99571149Y-107912163D01*
X99571147Y-107912171D01*
X99532700Y-108105455D01*
X99532700Y-108302544D01*
X99571147Y-108495828D01*
X99571149Y-108495836D01*
X99646567Y-108677910D01*
X99646572Y-108677920D01*
X99756060Y-108841780D01*
X99756063Y-108841784D01*
X99895415Y-108981136D01*
X99895419Y-108981139D01*
X100059279Y-109090627D01*
X100059283Y-109090629D01*
X100059286Y-109090631D01*
X100241364Y-109166051D01*
X100434655Y-109204499D01*
X100434658Y-109204500D01*
X100434660Y-109204500D01*
X100631742Y-109204500D01*
X100631743Y-109204499D01*
X100825036Y-109166051D01*
X101007114Y-109090631D01*
X101170981Y-108981139D01*
X102021540Y-108130581D01*
X102131032Y-107966714D01*
X102206452Y-107784635D01*
X102244900Y-107591340D01*
X102244900Y-107394259D01*
X102244900Y-106216584D01*
X118829700Y-106216584D01*
X118829700Y-108516615D01*
X118840200Y-108619395D01*
X118840201Y-108619396D01*
X118895386Y-108785935D01*
X118895387Y-108785937D01*
X118987486Y-108935251D01*
X118987489Y-108935255D01*
X119111544Y-109059310D01*
X119111548Y-109059313D01*
X119260862Y-109151412D01*
X119260864Y-109151413D01*
X119260866Y-109151414D01*
X119427403Y-109206599D01*
X119530192Y-109217100D01*
X119530197Y-109217100D01*
X122430203Y-109217100D01*
X122430208Y-109217100D01*
X122532997Y-109206599D01*
X122699534Y-109151414D01*
X122848855Y-109059311D01*
X122972911Y-108935255D01*
X123065014Y-108785934D01*
X123120199Y-108619397D01*
X123130700Y-108516608D01*
X123130700Y-107245311D01*
X124329700Y-107245311D01*
X124329700Y-107487888D01*
X124361361Y-107728385D01*
X124424147Y-107962704D01*
X124516973Y-108186805D01*
X124516976Y-108186812D01*
X124638264Y-108396889D01*
X124638266Y-108396892D01*
X124638267Y-108396893D01*
X124785933Y-108589336D01*
X124785939Y-108589343D01*
X124957456Y-108760860D01*
X124957463Y-108760866D01*
X125062913Y-108841780D01*
X125149911Y-108908536D01*
X125359988Y-109029824D01*
X125584100Y-109122654D01*
X125818411Y-109185438D01*
X125963204Y-109204500D01*
X126058911Y-109217100D01*
X126058912Y-109217100D01*
X126901489Y-109217100D01*
X126981252Y-109206599D01*
X127141989Y-109185438D01*
X127376300Y-109122654D01*
X127600412Y-109029824D01*
X127810489Y-108908536D01*
X128002938Y-108760865D01*
X128174465Y-108589338D01*
X128322136Y-108396889D01*
X128443424Y-108186812D01*
X128536254Y-107962700D01*
X128599038Y-107728389D01*
X128630700Y-107487888D01*
X128630700Y-107245312D01*
X128599038Y-107004811D01*
X128536254Y-106770500D01*
X128443424Y-106546388D01*
X128322136Y-106336311D01*
X128230273Y-106216592D01*
X128174466Y-106143863D01*
X128174460Y-106143856D01*
X128002943Y-105972339D01*
X128002936Y-105972333D01*
X127810493Y-105824667D01*
X127810492Y-105824666D01*
X127810489Y-105824664D01*
X127600412Y-105703376D01*
X127600405Y-105703373D01*
X127376304Y-105610547D01*
X127141985Y-105547761D01*
X126901489Y-105516100D01*
X126901488Y-105516100D01*
X126058912Y-105516100D01*
X126058911Y-105516100D01*
X125818414Y-105547761D01*
X125584095Y-105610547D01*
X125359994Y-105703373D01*
X125359985Y-105703377D01*
X125149906Y-105824667D01*
X124957463Y-105972333D01*
X124957456Y-105972339D01*
X124785939Y-106143856D01*
X124785933Y-106143863D01*
X124638267Y-106336306D01*
X124516977Y-106546385D01*
X124516973Y-106546394D01*
X124424147Y-106770495D01*
X124361361Y-107004814D01*
X124329700Y-107245311D01*
X123130700Y-107245311D01*
X123130700Y-106216592D01*
X123120199Y-106113803D01*
X123065014Y-105947266D01*
X122989393Y-105824667D01*
X122972913Y-105797948D01*
X122972910Y-105797944D01*
X122848855Y-105673889D01*
X122848851Y-105673886D01*
X122699537Y-105581787D01*
X122699535Y-105581786D01*
X122616265Y-105554193D01*
X122532997Y-105526601D01*
X122532995Y-105526600D01*
X122430215Y-105516100D01*
X122430208Y-105516100D01*
X119530192Y-105516100D01*
X119530184Y-105516100D01*
X119427404Y-105526600D01*
X119427403Y-105526601D01*
X119260864Y-105581786D01*
X119260862Y-105581787D01*
X119111548Y-105673886D01*
X119111544Y-105673889D01*
X118987489Y-105797944D01*
X118987486Y-105797948D01*
X118895387Y-105947262D01*
X118895386Y-105947264D01*
X118840201Y-106113803D01*
X118840200Y-106113804D01*
X118829700Y-106216584D01*
X102244900Y-106216584D01*
X102244900Y-104683059D01*
X102244900Y-104683056D01*
X102206452Y-104489770D01*
X102206451Y-104489769D01*
X102206451Y-104489765D01*
X102164715Y-104389005D01*
X102131035Y-104307692D01*
X102131028Y-104307679D01*
X102021539Y-104143818D01*
X102021536Y-104143814D01*
X101879086Y-104001364D01*
X101879055Y-104001335D01*
X100417184Y-102539463D01*
X100417180Y-102539460D01*
X100253320Y-102429972D01*
X100253310Y-102429967D01*
X100126053Y-102377255D01*
X114499800Y-102377255D01*
X114499800Y-103025100D01*
X115416788Y-103025100D01*
X115383875Y-103082107D01*
X115349800Y-103209274D01*
X115349800Y-103340926D01*
X115383875Y-103468093D01*
X115416788Y-103525100D01*
X114499800Y-103525100D01*
X114499800Y-104172944D01*
X114506201Y-104232472D01*
X114506203Y-104232479D01*
X114556445Y-104367186D01*
X114556449Y-104367193D01*
X114642609Y-104482287D01*
X114642612Y-104482290D01*
X114757706Y-104568450D01*
X114757713Y-104568454D01*
X114892420Y-104618696D01*
X114892427Y-104618698D01*
X114951955Y-104625099D01*
X114951972Y-104625100D01*
X115599800Y-104625100D01*
X115599800Y-103708112D01*
X115656807Y-103741025D01*
X115783974Y-103775100D01*
X115915626Y-103775100D01*
X116042793Y-103741025D01*
X116099800Y-103708112D01*
X116099800Y-104625100D01*
X116747628Y-104625100D01*
X116747644Y-104625099D01*
X116807172Y-104618698D01*
X116807179Y-104618696D01*
X116941886Y-104568454D01*
X116941893Y-104568450D01*
X117056987Y-104482290D01*
X117056990Y-104482287D01*
X117143150Y-104367193D01*
X117143154Y-104367186D01*
X117193396Y-104232479D01*
X117193398Y-104232472D01*
X117199799Y-104172944D01*
X117199800Y-104172927D01*
X117199800Y-103525100D01*
X116282812Y-103525100D01*
X116315725Y-103468093D01*
X116349800Y-103340926D01*
X116349800Y-103209274D01*
X116315725Y-103082107D01*
X116282812Y-103025100D01*
X117199800Y-103025100D01*
X117199800Y-102916600D01*
X118847150Y-102916600D01*
X120326079Y-102916600D01*
X120307101Y-102962418D01*
X120280200Y-103097656D01*
X120280200Y-103235544D01*
X120307101Y-103370782D01*
X120326079Y-103416600D01*
X118847150Y-103416600D01*
X118861853Y-103528287D01*
X118924621Y-103762539D01*
X119017420Y-103986578D01*
X119017427Y-103986593D01*
X119138680Y-104196609D01*
X119286310Y-104389005D01*
X119286316Y-104389012D01*
X119457787Y-104560483D01*
X119457794Y-104560489D01*
X119650190Y-104708119D01*
X119860206Y-104829372D01*
X119860221Y-104829379D01*
X120084260Y-104922178D01*
X120318512Y-104984946D01*
X120558935Y-105016598D01*
X120558952Y-105016600D01*
X120730200Y-105016600D01*
X120730200Y-103820720D01*
X120776018Y-103839699D01*
X120911256Y-103866600D01*
X121049144Y-103866600D01*
X121184382Y-103839699D01*
X121230200Y-103820720D01*
X121230200Y-105016600D01*
X121401448Y-105016600D01*
X121401464Y-105016598D01*
X121641887Y-104984946D01*
X121876139Y-104922178D01*
X122100178Y-104829379D01*
X122100193Y-104829372D01*
X122310209Y-104708119D01*
X122502605Y-104560489D01*
X122502612Y-104560483D01*
X122674083Y-104389012D01*
X122674089Y-104389005D01*
X122821719Y-104196609D01*
X122942972Y-103986593D01*
X122942979Y-103986578D01*
X123035778Y-103762539D01*
X123098546Y-103528287D01*
X123113250Y-103416600D01*
X121634321Y-103416600D01*
X121653299Y-103370782D01*
X121680200Y-103235544D01*
X121680200Y-103097656D01*
X121653299Y-102962418D01*
X121634321Y-102916600D01*
X123113249Y-102916600D01*
X124347150Y-102916600D01*
X125826079Y-102916600D01*
X125807101Y-102962418D01*
X125780200Y-103097656D01*
X125780200Y-103235544D01*
X125807101Y-103370782D01*
X125826079Y-103416600D01*
X124347150Y-103416600D01*
X124361853Y-103528287D01*
X124424621Y-103762539D01*
X124517420Y-103986578D01*
X124517427Y-103986593D01*
X124638680Y-104196609D01*
X124786310Y-104389005D01*
X124786316Y-104389012D01*
X124957787Y-104560483D01*
X124957794Y-104560489D01*
X125150190Y-104708119D01*
X125360206Y-104829372D01*
X125360221Y-104829379D01*
X125584260Y-104922178D01*
X125818512Y-104984946D01*
X126058935Y-105016598D01*
X126058952Y-105016600D01*
X126230200Y-105016600D01*
X126230200Y-103820720D01*
X126276018Y-103839699D01*
X126411256Y-103866600D01*
X126549144Y-103866600D01*
X126684382Y-103839699D01*
X126730200Y-103820720D01*
X126730200Y-105016600D01*
X126901448Y-105016600D01*
X126901464Y-105016598D01*
X127141887Y-104984946D01*
X127376139Y-104922178D01*
X127600178Y-104829379D01*
X127600193Y-104829372D01*
X127810209Y-104708119D01*
X128002605Y-104560489D01*
X128002612Y-104560483D01*
X128174083Y-104389012D01*
X128174089Y-104389005D01*
X128321719Y-104196609D01*
X128442972Y-103986593D01*
X128442979Y-103986578D01*
X128535778Y-103762539D01*
X128598546Y-103528287D01*
X128613250Y-103416600D01*
X127134321Y-103416600D01*
X127153299Y-103370782D01*
X127180200Y-103235544D01*
X127180200Y-103097656D01*
X127153299Y-102962418D01*
X127134321Y-102916600D01*
X128613249Y-102916600D01*
X128598546Y-102804912D01*
X128535778Y-102570660D01*
X128442979Y-102346621D01*
X128442972Y-102346606D01*
X128321719Y-102136590D01*
X128174089Y-101944194D01*
X128174083Y-101944187D01*
X128002612Y-101772716D01*
X128002605Y-101772710D01*
X127810209Y-101625080D01*
X127600193Y-101503827D01*
X127600178Y-101503820D01*
X127376139Y-101411021D01*
X127141887Y-101348253D01*
X126901464Y-101316601D01*
X126901448Y-101316600D01*
X126730200Y-101316600D01*
X126730200Y-102512479D01*
X126684382Y-102493501D01*
X126549144Y-102466600D01*
X126411256Y-102466600D01*
X126276018Y-102493501D01*
X126230200Y-102512479D01*
X126230200Y-101316600D01*
X126058952Y-101316600D01*
X126058935Y-101316601D01*
X125818512Y-101348253D01*
X125584260Y-101411021D01*
X125360221Y-101503820D01*
X125360206Y-101503827D01*
X125150190Y-101625080D01*
X124957794Y-101772710D01*
X124957787Y-101772716D01*
X124786316Y-101944187D01*
X124786310Y-101944194D01*
X124638680Y-102136590D01*
X124517427Y-102346606D01*
X124517420Y-102346621D01*
X124424621Y-102570660D01*
X124361853Y-102804912D01*
X124347150Y-102916600D01*
X123113249Y-102916600D01*
X123098546Y-102804912D01*
X123035778Y-102570660D01*
X122942979Y-102346621D01*
X122942972Y-102346606D01*
X122821719Y-102136590D01*
X122674089Y-101944194D01*
X122674083Y-101944187D01*
X122502612Y-101772716D01*
X122502605Y-101772710D01*
X122310209Y-101625080D01*
X122100193Y-101503827D01*
X122100178Y-101503820D01*
X121876139Y-101411021D01*
X121641887Y-101348253D01*
X121401464Y-101316601D01*
X121401448Y-101316600D01*
X121230200Y-101316600D01*
X121230200Y-102512479D01*
X121184382Y-102493501D01*
X121049144Y-102466600D01*
X120911256Y-102466600D01*
X120776018Y-102493501D01*
X120730200Y-102512479D01*
X120730200Y-101316600D01*
X120558952Y-101316600D01*
X120558935Y-101316601D01*
X120318512Y-101348253D01*
X120084260Y-101411021D01*
X119860221Y-101503820D01*
X119860206Y-101503827D01*
X119650190Y-101625080D01*
X119457794Y-101772710D01*
X119457787Y-101772716D01*
X119286316Y-101944187D01*
X119286310Y-101944194D01*
X119138680Y-102136590D01*
X119017427Y-102346606D01*
X119017420Y-102346621D01*
X118924621Y-102570660D01*
X118861853Y-102804912D01*
X118847150Y-102916600D01*
X117199800Y-102916600D01*
X117199800Y-102377272D01*
X117199799Y-102377255D01*
X117193398Y-102317727D01*
X117193396Y-102317720D01*
X117143154Y-102183013D01*
X117143150Y-102183006D01*
X117056990Y-102067912D01*
X117056987Y-102067909D01*
X116941893Y-101981749D01*
X116941886Y-101981745D01*
X116807179Y-101931503D01*
X116807172Y-101931501D01*
X116747644Y-101925100D01*
X116099800Y-101925100D01*
X116099800Y-102842088D01*
X116042793Y-102809175D01*
X115915626Y-102775100D01*
X115783974Y-102775100D01*
X115656807Y-102809175D01*
X115599800Y-102842088D01*
X115599800Y-101925100D01*
X114951955Y-101925100D01*
X114892427Y-101931501D01*
X114892420Y-101931503D01*
X114757713Y-101981745D01*
X114757706Y-101981749D01*
X114642612Y-102067909D01*
X114642609Y-102067912D01*
X114556449Y-102183006D01*
X114556445Y-102183013D01*
X114506203Y-102317720D01*
X114506201Y-102317727D01*
X114499800Y-102377255D01*
X100126053Y-102377255D01*
X100071236Y-102354549D01*
X100071228Y-102354547D01*
X99877943Y-102316100D01*
X99877940Y-102316100D01*
X99680860Y-102316100D01*
X99680857Y-102316100D01*
X99487571Y-102354547D01*
X99487563Y-102354549D01*
X99305489Y-102429967D01*
X99305479Y-102429972D01*
X99141619Y-102539460D01*
X99141615Y-102539463D01*
X99002263Y-102678815D01*
X99002260Y-102678819D01*
X98892772Y-102842679D01*
X98892767Y-102842689D01*
X98817349Y-103024763D01*
X98817347Y-103024771D01*
X98778900Y-103218055D01*
X88624100Y-103218055D01*
X88624100Y-98845311D01*
X118829700Y-98845311D01*
X118829700Y-99087888D01*
X118861361Y-99328385D01*
X118924147Y-99562704D01*
X119016973Y-99786805D01*
X119016976Y-99786812D01*
X119138264Y-99996889D01*
X119138266Y-99996892D01*
X119138267Y-99996893D01*
X119285933Y-100189336D01*
X119285939Y-100189343D01*
X119457456Y-100360860D01*
X119457462Y-100360865D01*
X119649911Y-100508536D01*
X119859988Y-100629824D01*
X120084100Y-100722654D01*
X120318411Y-100785438D01*
X120498786Y-100809184D01*
X120558911Y-100817100D01*
X120558912Y-100817100D01*
X121401489Y-100817100D01*
X121449588Y-100810767D01*
X121641989Y-100785438D01*
X121876300Y-100722654D01*
X122100412Y-100629824D01*
X122310489Y-100508536D01*
X122502938Y-100360865D01*
X122674465Y-100189338D01*
X122822136Y-99996889D01*
X122943424Y-99786812D01*
X123036254Y-99562700D01*
X123099038Y-99328389D01*
X123130700Y-99087888D01*
X123130700Y-98845312D01*
X123130700Y-98845311D01*
X124329700Y-98845311D01*
X124329700Y-99087888D01*
X124361361Y-99328385D01*
X124424147Y-99562704D01*
X124516973Y-99786805D01*
X124516976Y-99786812D01*
X124638264Y-99996889D01*
X124638266Y-99996892D01*
X124638267Y-99996893D01*
X124785933Y-100189336D01*
X124785939Y-100189343D01*
X124957456Y-100360860D01*
X124957462Y-100360865D01*
X125149911Y-100508536D01*
X125359988Y-100629824D01*
X125584100Y-100722654D01*
X125818411Y-100785438D01*
X125998786Y-100809184D01*
X126058911Y-100817100D01*
X126058912Y-100817100D01*
X126901489Y-100817100D01*
X126949588Y-100810767D01*
X127141989Y-100785438D01*
X127376300Y-100722654D01*
X127600412Y-100629824D01*
X127810489Y-100508536D01*
X128002938Y-100360865D01*
X128174465Y-100189338D01*
X128322136Y-99996889D01*
X128443424Y-99786812D01*
X128536254Y-99562700D01*
X128599038Y-99328389D01*
X128630700Y-99087888D01*
X128630700Y-98845312D01*
X128599038Y-98604811D01*
X128536254Y-98370500D01*
X128443424Y-98146388D01*
X128322136Y-97936311D01*
X128174465Y-97743862D01*
X128174460Y-97743856D01*
X128002943Y-97572339D01*
X128002936Y-97572333D01*
X127810493Y-97424667D01*
X127810492Y-97424666D01*
X127810489Y-97424664D01*
X127600412Y-97303376D01*
X127560539Y-97286860D01*
X127376304Y-97210547D01*
X127141985Y-97147761D01*
X126901489Y-97116100D01*
X126901488Y-97116100D01*
X126058912Y-97116100D01*
X126058911Y-97116100D01*
X125818414Y-97147761D01*
X125584095Y-97210547D01*
X125359994Y-97303373D01*
X125359985Y-97303377D01*
X125149906Y-97424667D01*
X124957463Y-97572333D01*
X124957456Y-97572339D01*
X124785939Y-97743856D01*
X124785933Y-97743863D01*
X124638267Y-97936306D01*
X124516977Y-98146385D01*
X124516973Y-98146394D01*
X124424147Y-98370495D01*
X124361361Y-98604814D01*
X124329700Y-98845311D01*
X123130700Y-98845311D01*
X123099038Y-98604811D01*
X123036254Y-98370500D01*
X122943424Y-98146388D01*
X122822136Y-97936311D01*
X122674465Y-97743862D01*
X122674460Y-97743856D01*
X122502943Y-97572339D01*
X122502936Y-97572333D01*
X122310493Y-97424667D01*
X122310492Y-97424666D01*
X122310489Y-97424664D01*
X122100412Y-97303376D01*
X122060539Y-97286860D01*
X121876304Y-97210547D01*
X121641985Y-97147761D01*
X121401489Y-97116100D01*
X121401488Y-97116100D01*
X120558912Y-97116100D01*
X120558911Y-97116100D01*
X120318414Y-97147761D01*
X120084095Y-97210547D01*
X119859994Y-97303373D01*
X119859985Y-97303377D01*
X119649906Y-97424667D01*
X119457463Y-97572333D01*
X119457456Y-97572339D01*
X119285939Y-97743856D01*
X119285933Y-97743863D01*
X119138267Y-97936306D01*
X119016977Y-98146385D01*
X119016973Y-98146394D01*
X118924147Y-98370495D01*
X118861361Y-98604814D01*
X118829700Y-98845311D01*
X88624100Y-98845311D01*
X88624100Y-97480156D01*
X88585652Y-97286870D01*
X88585651Y-97286869D01*
X88585651Y-97286865D01*
X88585649Y-97286860D01*
X88510235Y-97104792D01*
X88510228Y-97104779D01*
X88400739Y-96940918D01*
X88400736Y-96940914D01*
X88258286Y-96798464D01*
X88258255Y-96798435D01*
X80858779Y-89398959D01*
X80858759Y-89398937D01*
X80857657Y-89397835D01*
X114499300Y-89397835D01*
X114499300Y-91193570D01*
X114499301Y-91193576D01*
X114505708Y-91253183D01*
X114556002Y-91388028D01*
X114556006Y-91388035D01*
X114642252Y-91503244D01*
X114642255Y-91503247D01*
X114757464Y-91589493D01*
X114757471Y-91589497D01*
X114892317Y-91639791D01*
X114892316Y-91639791D01*
X114899244Y-91640535D01*
X114951927Y-91646200D01*
X116747672Y-91646199D01*
X116807283Y-91639791D01*
X116942131Y-91589496D01*
X117057346Y-91503246D01*
X117143596Y-91388031D01*
X117193891Y-91253183D01*
X117200300Y-91193573D01*
X117200299Y-89397828D01*
X117193891Y-89338217D01*
X117162950Y-89255261D01*
X117143597Y-89203371D01*
X117143593Y-89203364D01*
X117057347Y-89088155D01*
X117057344Y-89088152D01*
X116942135Y-89001906D01*
X116942128Y-89001902D01*
X116807282Y-88951608D01*
X116807283Y-88951608D01*
X116747683Y-88945201D01*
X116747681Y-88945200D01*
X116747673Y-88945200D01*
X116747664Y-88945200D01*
X114951929Y-88945200D01*
X114951923Y-88945201D01*
X114892316Y-88951608D01*
X114757471Y-89001902D01*
X114757464Y-89001906D01*
X114642255Y-89088152D01*
X114642252Y-89088155D01*
X114556006Y-89203364D01*
X114556002Y-89203371D01*
X114505708Y-89338217D01*
X114499301Y-89397816D01*
X114499301Y-89397823D01*
X114499300Y-89397835D01*
X80857657Y-89397835D01*
X80715085Y-89255263D01*
X80715081Y-89255260D01*
X80551220Y-89145771D01*
X80551211Y-89145766D01*
X80467983Y-89111292D01*
X80422465Y-89092438D01*
X80422464Y-89092437D01*
X80414314Y-89089062D01*
X80409484Y-89087061D01*
X80355080Y-89043222D01*
X80333014Y-88976928D01*
X80350292Y-88909229D01*
X80361280Y-88898998D01*
X119985390Y-88898998D01*
X119985390Y-88899001D01*
X120005804Y-89184433D01*
X120066628Y-89464037D01*
X120166635Y-89732166D01*
X120303770Y-89983309D01*
X120303775Y-89983317D01*
X120475254Y-90212387D01*
X120475270Y-90212405D01*
X120677594Y-90414729D01*
X120677612Y-90414745D01*
X120906682Y-90586224D01*
X120906690Y-90586229D01*
X121157833Y-90723364D01*
X121157832Y-90723364D01*
X121157836Y-90723365D01*
X121157839Y-90723367D01*
X121425954Y-90823369D01*
X121425960Y-90823370D01*
X121425962Y-90823371D01*
X121705566Y-90884195D01*
X121705568Y-90884195D01*
X121705572Y-90884196D01*
X121959220Y-90902337D01*
X121990999Y-90904610D01*
X121991000Y-90904610D01*
X121991001Y-90904610D01*
X122019595Y-90902564D01*
X122276428Y-90884196D01*
X122556046Y-90823369D01*
X122824161Y-90723367D01*
X123075315Y-90586226D01*
X123304395Y-90414739D01*
X123506739Y-90212395D01*
X123678226Y-89983315D01*
X123815367Y-89732161D01*
X123915369Y-89464046D01*
X123960787Y-89255261D01*
X123976195Y-89184433D01*
X123976195Y-89184432D01*
X123976196Y-89184428D01*
X123996610Y-88899000D01*
X123976196Y-88613572D01*
X123965256Y-88563283D01*
X123915371Y-88333962D01*
X123915370Y-88333960D01*
X123915369Y-88333954D01*
X123815367Y-88065839D01*
X123735025Y-87918705D01*
X123678229Y-87814690D01*
X123678224Y-87814682D01*
X123506745Y-87585612D01*
X123506729Y-87585594D01*
X123304405Y-87383270D01*
X123304387Y-87383254D01*
X123075317Y-87211775D01*
X123075309Y-87211770D01*
X122824166Y-87074635D01*
X122824167Y-87074635D01*
X122716915Y-87034632D01*
X122556046Y-86974631D01*
X122556043Y-86974630D01*
X122556037Y-86974628D01*
X122276433Y-86913804D01*
X121991001Y-86893390D01*
X121990999Y-86893390D01*
X121705566Y-86913804D01*
X121425962Y-86974628D01*
X121157833Y-87074635D01*
X120906690Y-87211770D01*
X120906682Y-87211775D01*
X120677612Y-87383254D01*
X120677594Y-87383270D01*
X120475270Y-87585594D01*
X120475254Y-87585612D01*
X120303775Y-87814682D01*
X120303770Y-87814690D01*
X120166635Y-88065833D01*
X120066628Y-88333962D01*
X120005804Y-88613566D01*
X119985390Y-88898998D01*
X80361280Y-88898998D01*
X80401428Y-88861617D01*
X80456935Y-88848500D01*
X99990343Y-88848500D01*
X100120382Y-88822632D01*
X100183635Y-88810051D01*
X100365714Y-88734632D01*
X100529582Y-88625139D01*
X100668939Y-88485782D01*
X100778432Y-88321914D01*
X100853851Y-88139835D01*
X100872920Y-88043970D01*
X100892300Y-87946543D01*
X100892300Y-87749456D01*
X100853852Y-87556170D01*
X100853851Y-87556169D01*
X100853851Y-87556165D01*
X100853849Y-87556160D01*
X100778435Y-87374092D01*
X100778428Y-87374079D01*
X100668939Y-87210218D01*
X100668936Y-87210214D01*
X100529585Y-87070863D01*
X100529581Y-87070860D01*
X100365720Y-86961371D01*
X100365707Y-86961364D01*
X100183639Y-86885950D01*
X100183629Y-86885947D01*
X99990343Y-86847500D01*
X99990341Y-86847500D01*
X79016059Y-86847500D01*
X79016055Y-86847500D01*
X78919412Y-86866724D01*
X78822767Y-86885947D01*
X78822761Y-86885949D01*
X78769434Y-86908037D01*
X78769434Y-86908038D01*
X78723915Y-86926892D01*
X78640689Y-86961366D01*
X78640679Y-86961371D01*
X78476819Y-87070859D01*
X78407140Y-87140538D01*
X78337461Y-87210218D01*
X78337458Y-87210221D01*
X77017880Y-88529798D01*
X76956557Y-88563283D01*
X76886865Y-88558299D01*
X76842520Y-88529799D01*
X74828108Y-86515388D01*
X74828106Y-86515385D01*
X74828106Y-86515386D01*
X74821039Y-86508319D01*
X74821039Y-86508318D01*
X74681682Y-86368961D01*
X74681681Y-86368960D01*
X74681680Y-86368959D01*
X74517820Y-86259471D01*
X74517811Y-86259466D01*
X74445215Y-86229396D01*
X74389065Y-86206138D01*
X74335736Y-86184049D01*
X74335732Y-86184048D01*
X74335728Y-86184046D01*
X74239088Y-86164824D01*
X74142444Y-86145600D01*
X74142441Y-86145600D01*
X72661541Y-86145600D01*
X72594502Y-86125915D01*
X72548747Y-86073111D01*
X72545369Y-86064959D01*
X72541196Y-86053769D01*
X72541193Y-86053765D01*
X72541193Y-86053764D01*
X72454947Y-85938555D01*
X72454944Y-85938552D01*
X72339735Y-85852306D01*
X72339728Y-85852302D01*
X72204882Y-85802008D01*
X72204883Y-85802008D01*
X72145283Y-85795601D01*
X72145281Y-85795600D01*
X72145273Y-85795600D01*
X72145265Y-85795600D01*
X71363183Y-85795600D01*
X71296144Y-85775915D01*
X71275502Y-85759281D01*
X69159619Y-83643398D01*
X69126134Y-83582075D01*
X69123300Y-83555717D01*
X69123300Y-81906155D01*
X70024000Y-81906155D01*
X70024000Y-82554000D01*
X70940988Y-82554000D01*
X70908075Y-82611007D01*
X70874000Y-82738174D01*
X70874000Y-82869826D01*
X70908075Y-82996993D01*
X70940988Y-83054000D01*
X70024000Y-83054000D01*
X70024000Y-83701844D01*
X70030401Y-83761372D01*
X70030403Y-83761379D01*
X70080645Y-83896086D01*
X70080649Y-83896093D01*
X70166809Y-84011187D01*
X70166812Y-84011190D01*
X70281906Y-84097350D01*
X70281913Y-84097354D01*
X70416620Y-84147596D01*
X70416627Y-84147598D01*
X70476155Y-84153999D01*
X70476172Y-84154000D01*
X71124000Y-84154000D01*
X71124000Y-83237012D01*
X71181007Y-83269925D01*
X71308174Y-83304000D01*
X71439826Y-83304000D01*
X71566993Y-83269925D01*
X71624000Y-83237012D01*
X71624000Y-84154000D01*
X72271828Y-84154000D01*
X72271844Y-84153999D01*
X72331372Y-84147598D01*
X72331379Y-84147596D01*
X72466086Y-84097354D01*
X72466093Y-84097350D01*
X72581187Y-84011190D01*
X72581190Y-84011187D01*
X72667350Y-83896093D01*
X72667354Y-83896086D01*
X72717596Y-83761379D01*
X72717598Y-83761372D01*
X72723999Y-83701844D01*
X72724000Y-83701827D01*
X72724000Y-83054000D01*
X71807012Y-83054000D01*
X71839925Y-82996993D01*
X71874000Y-82869826D01*
X71874000Y-82738174D01*
X71839925Y-82611007D01*
X71807012Y-82554000D01*
X72724000Y-82554000D01*
X72724000Y-81906172D01*
X72723999Y-81906155D01*
X72717598Y-81846627D01*
X72717596Y-81846620D01*
X72667354Y-81711913D01*
X72667350Y-81711906D01*
X72581190Y-81596812D01*
X72581187Y-81596809D01*
X72466093Y-81510649D01*
X72466086Y-81510645D01*
X72331379Y-81460403D01*
X72331372Y-81460401D01*
X72271844Y-81454000D01*
X71624000Y-81454000D01*
X71624000Y-82370988D01*
X71566993Y-82338075D01*
X71439826Y-82304000D01*
X71308174Y-82304000D01*
X71181007Y-82338075D01*
X71124000Y-82370988D01*
X71124000Y-81454000D01*
X70476155Y-81454000D01*
X70416627Y-81460401D01*
X70416620Y-81460403D01*
X70281913Y-81510645D01*
X70281906Y-81510649D01*
X70166812Y-81596809D01*
X70166809Y-81596812D01*
X70080649Y-81711906D01*
X70080645Y-81711913D01*
X70030403Y-81846620D01*
X70030401Y-81846627D01*
X70024000Y-81906155D01*
X69123300Y-81906155D01*
X69123300Y-79514475D01*
X69123301Y-79514454D01*
X69123301Y-79311257D01*
X69123300Y-79311255D01*
X69084853Y-79117972D01*
X69084852Y-79117965D01*
X69009432Y-78935886D01*
X69009431Y-78935885D01*
X69009428Y-78935879D01*
X68899940Y-78772019D01*
X68899937Y-78772015D01*
X66676219Y-76548297D01*
X66642734Y-76486974D01*
X66639900Y-76460616D01*
X66639900Y-74626397D01*
X66639899Y-74626384D01*
X66630925Y-74538546D01*
X66629399Y-74523603D01*
X66574214Y-74357066D01*
X66498593Y-74234467D01*
X66482113Y-74207748D01*
X66482110Y-74207744D01*
X66358055Y-74083689D01*
X66358051Y-74083686D01*
X66208737Y-73991587D01*
X66208735Y-73991586D01*
X66125465Y-73963993D01*
X66042197Y-73936401D01*
X66042195Y-73936400D01*
X65939415Y-73925900D01*
X65939408Y-73925900D01*
X65613900Y-73925900D01*
X65546861Y-73906215D01*
X65501106Y-73853411D01*
X65489900Y-73801900D01*
X65489900Y-73009382D01*
X65509585Y-72942343D01*
X65526219Y-72921701D01*
X71402102Y-67045818D01*
X71463425Y-67012333D01*
X71489783Y-67009499D01*
X72271871Y-67009499D01*
X72271872Y-67009499D01*
X72331483Y-67003091D01*
X72466331Y-66952796D01*
X72559343Y-66883166D01*
X72624804Y-66858750D01*
X72693077Y-66873601D01*
X72721333Y-66894753D01*
X75492261Y-69665681D01*
X75631619Y-69805039D01*
X75631620Y-69805040D01*
X75665453Y-69827646D01*
X75699666Y-69861858D01*
X75778460Y-69979781D01*
X75778463Y-69979785D01*
X75917814Y-70119136D01*
X75917818Y-70119139D01*
X76081679Y-70228628D01*
X76081692Y-70228635D01*
X76263760Y-70304049D01*
X76263765Y-70304051D01*
X76263769Y-70304051D01*
X76263770Y-70304052D01*
X76457056Y-70342500D01*
X76457059Y-70342500D01*
X79747418Y-70342500D01*
X79814457Y-70362185D01*
X79835099Y-70378819D01*
X86212181Y-76755901D01*
X86245666Y-76817224D01*
X86248500Y-76843582D01*
X86248500Y-84501218D01*
X86238184Y-84546412D01*
X86239310Y-84546806D01*
X86177433Y-84723637D01*
X86177430Y-84723650D01*
X86157235Y-84902896D01*
X86157235Y-84902903D01*
X86177430Y-85082149D01*
X86177433Y-85082162D01*
X86239311Y-85258995D01*
X86238184Y-85259389D01*
X86248500Y-85304580D01*
X86248500Y-85315541D01*
X86248500Y-85315543D01*
X86248499Y-85315543D01*
X86286947Y-85508829D01*
X86286950Y-85508839D01*
X86362364Y-85690907D01*
X86362371Y-85690920D01*
X86471860Y-85854781D01*
X86471863Y-85854785D01*
X86611214Y-85994136D01*
X86611218Y-85994139D01*
X86775079Y-86103628D01*
X86775092Y-86103635D01*
X86957160Y-86179049D01*
X86957165Y-86179051D01*
X86957169Y-86179051D01*
X86957170Y-86179052D01*
X87150456Y-86217500D01*
X87150459Y-86217500D01*
X87347543Y-86217500D01*
X87477582Y-86191632D01*
X87540835Y-86179051D01*
X87722914Y-86103632D01*
X87886782Y-85994139D01*
X88026139Y-85854782D01*
X88135632Y-85690914D01*
X88211051Y-85508835D01*
X88249500Y-85315541D01*
X88249500Y-81906155D01*
X109521000Y-81906155D01*
X109521000Y-82554000D01*
X110437988Y-82554000D01*
X110405075Y-82611007D01*
X110371000Y-82738174D01*
X110371000Y-82869826D01*
X110405075Y-82996993D01*
X110437988Y-83054000D01*
X109521000Y-83054000D01*
X109521000Y-83701844D01*
X109527401Y-83761372D01*
X109527403Y-83761379D01*
X109577645Y-83896086D01*
X109577649Y-83896093D01*
X109663809Y-84011187D01*
X109663812Y-84011190D01*
X109778906Y-84097350D01*
X109778913Y-84097354D01*
X109913620Y-84147596D01*
X109913627Y-84147598D01*
X109973155Y-84153999D01*
X109973172Y-84154000D01*
X110621000Y-84154000D01*
X110621000Y-83237012D01*
X110678007Y-83269925D01*
X110805174Y-83304000D01*
X110936826Y-83304000D01*
X111063993Y-83269925D01*
X111121000Y-83237012D01*
X111121000Y-84154000D01*
X111768828Y-84154000D01*
X111768844Y-84153999D01*
X111828372Y-84147598D01*
X111828379Y-84147596D01*
X111963086Y-84097354D01*
X111963093Y-84097350D01*
X112078187Y-84011190D01*
X112078190Y-84011187D01*
X112164350Y-83896093D01*
X112164354Y-83896086D01*
X112214596Y-83761379D01*
X112214598Y-83761372D01*
X112220999Y-83701844D01*
X112221000Y-83701827D01*
X112221000Y-83054000D01*
X111304012Y-83054000D01*
X111336925Y-82996993D01*
X111371000Y-82869826D01*
X111371000Y-82738174D01*
X111336925Y-82611007D01*
X111304012Y-82554000D01*
X112221000Y-82554000D01*
X112221000Y-81906172D01*
X112220999Y-81906155D01*
X112214598Y-81846627D01*
X112214596Y-81846620D01*
X112164354Y-81711913D01*
X112164350Y-81711906D01*
X112078190Y-81596812D01*
X112078187Y-81596809D01*
X111963093Y-81510649D01*
X111963086Y-81510645D01*
X111828379Y-81460403D01*
X111828372Y-81460401D01*
X111768844Y-81454000D01*
X111121000Y-81454000D01*
X111121000Y-82370988D01*
X111063993Y-82338075D01*
X110936826Y-82304000D01*
X110805174Y-82304000D01*
X110678007Y-82338075D01*
X110621000Y-82370988D01*
X110621000Y-81454000D01*
X109973155Y-81454000D01*
X109913627Y-81460401D01*
X109913620Y-81460403D01*
X109778913Y-81510645D01*
X109778906Y-81510649D01*
X109663812Y-81596809D01*
X109663809Y-81596812D01*
X109577649Y-81711906D01*
X109577645Y-81711913D01*
X109527403Y-81846620D01*
X109527401Y-81846627D01*
X109521000Y-81906155D01*
X88249500Y-81906155D01*
X88249500Y-76279259D01*
X88249500Y-76279256D01*
X88221439Y-76138189D01*
X88221427Y-76138127D01*
X88211051Y-76085964D01*
X88177311Y-76004510D01*
X88135632Y-75903886D01*
X88046301Y-75770192D01*
X88046296Y-75770184D01*
X118829700Y-75770184D01*
X118829700Y-78070215D01*
X118840200Y-78172995D01*
X118840201Y-78172996D01*
X118895386Y-78339535D01*
X118895387Y-78339537D01*
X118987486Y-78488851D01*
X118987489Y-78488855D01*
X119111544Y-78612910D01*
X119111548Y-78612913D01*
X119260862Y-78705012D01*
X119260864Y-78705013D01*
X119260866Y-78705014D01*
X119427403Y-78760199D01*
X119530192Y-78770700D01*
X119530197Y-78770700D01*
X122430203Y-78770700D01*
X122430208Y-78770700D01*
X122532997Y-78760199D01*
X122699534Y-78705014D01*
X122848855Y-78612911D01*
X122972911Y-78488855D01*
X123065014Y-78339534D01*
X123120199Y-78172997D01*
X123130700Y-78070208D01*
X123130700Y-76798911D01*
X124329700Y-76798911D01*
X124329700Y-77041488D01*
X124361361Y-77281985D01*
X124424147Y-77516304D01*
X124516973Y-77740405D01*
X124516976Y-77740412D01*
X124638264Y-77950489D01*
X124638266Y-77950492D01*
X124638267Y-77950493D01*
X124785933Y-78142936D01*
X124785939Y-78142943D01*
X124957456Y-78314460D01*
X124957463Y-78314466D01*
X125070521Y-78401218D01*
X125149911Y-78462136D01*
X125359988Y-78583424D01*
X125584100Y-78676254D01*
X125818411Y-78739038D01*
X125979140Y-78760198D01*
X126058911Y-78770700D01*
X126058912Y-78770700D01*
X126901489Y-78770700D01*
X126981252Y-78760199D01*
X127141989Y-78739038D01*
X127376300Y-78676254D01*
X127600412Y-78583424D01*
X127810489Y-78462136D01*
X128002938Y-78314465D01*
X128174465Y-78142938D01*
X128322136Y-77950489D01*
X128443424Y-77740412D01*
X128536254Y-77516300D01*
X128599038Y-77281989D01*
X128630700Y-77041488D01*
X128630700Y-76798912D01*
X128599038Y-76558411D01*
X128536254Y-76324100D01*
X128443424Y-76099988D01*
X128322136Y-75889911D01*
X128230273Y-75770192D01*
X128174466Y-75697463D01*
X128174460Y-75697456D01*
X128002943Y-75525939D01*
X128002936Y-75525933D01*
X127810493Y-75378267D01*
X127810492Y-75378266D01*
X127810489Y-75378264D01*
X127600412Y-75256976D01*
X127600405Y-75256973D01*
X127376304Y-75164147D01*
X127141985Y-75101361D01*
X126901489Y-75069700D01*
X126901488Y-75069700D01*
X126058912Y-75069700D01*
X126058911Y-75069700D01*
X125818414Y-75101361D01*
X125584095Y-75164147D01*
X125359994Y-75256973D01*
X125359985Y-75256977D01*
X125149906Y-75378267D01*
X124957463Y-75525933D01*
X124957456Y-75525939D01*
X124785939Y-75697456D01*
X124785933Y-75697463D01*
X124638267Y-75889906D01*
X124516977Y-76099985D01*
X124516973Y-76099994D01*
X124424147Y-76324095D01*
X124361361Y-76558414D01*
X124329700Y-76798911D01*
X123130700Y-76798911D01*
X123130700Y-75770192D01*
X123120199Y-75667403D01*
X123065014Y-75500866D01*
X122989393Y-75378267D01*
X122972913Y-75351548D01*
X122972910Y-75351544D01*
X122848855Y-75227489D01*
X122848851Y-75227486D01*
X122699537Y-75135387D01*
X122699535Y-75135386D01*
X122616265Y-75107793D01*
X122532997Y-75080201D01*
X122532995Y-75080200D01*
X122430215Y-75069700D01*
X122430208Y-75069700D01*
X119530192Y-75069700D01*
X119530184Y-75069700D01*
X119427404Y-75080200D01*
X119427403Y-75080201D01*
X119260864Y-75135386D01*
X119260862Y-75135387D01*
X119111548Y-75227486D01*
X119111544Y-75227489D01*
X118987489Y-75351544D01*
X118987486Y-75351548D01*
X118895387Y-75500862D01*
X118895386Y-75500864D01*
X118840201Y-75667403D01*
X118840200Y-75667404D01*
X118829700Y-75770184D01*
X88046296Y-75770184D01*
X88026139Y-75740017D01*
X87883686Y-75597564D01*
X87883655Y-75597535D01*
X84756320Y-72470200D01*
X118847150Y-72470200D01*
X120326079Y-72470200D01*
X120307101Y-72516018D01*
X120280200Y-72651256D01*
X120280200Y-72789144D01*
X120307101Y-72924382D01*
X120326079Y-72970200D01*
X118847150Y-72970200D01*
X118861853Y-73081887D01*
X118924621Y-73316139D01*
X119017420Y-73540178D01*
X119017427Y-73540193D01*
X119138680Y-73750209D01*
X119286310Y-73942605D01*
X119286316Y-73942612D01*
X119457787Y-74114083D01*
X119457794Y-74114089D01*
X119650190Y-74261719D01*
X119860206Y-74382972D01*
X119860221Y-74382979D01*
X120084260Y-74475778D01*
X120318512Y-74538546D01*
X120558935Y-74570198D01*
X120558952Y-74570200D01*
X120730200Y-74570200D01*
X120730200Y-73374320D01*
X120776018Y-73393299D01*
X120911256Y-73420200D01*
X121049144Y-73420200D01*
X121184382Y-73393299D01*
X121230200Y-73374320D01*
X121230200Y-74570200D01*
X121401448Y-74570200D01*
X121401464Y-74570198D01*
X121641887Y-74538546D01*
X121876139Y-74475778D01*
X122100178Y-74382979D01*
X122100193Y-74382972D01*
X122310209Y-74261719D01*
X122502605Y-74114089D01*
X122502612Y-74114083D01*
X122674083Y-73942612D01*
X122674089Y-73942605D01*
X122821719Y-73750209D01*
X122942972Y-73540193D01*
X122942979Y-73540178D01*
X123035778Y-73316139D01*
X123098546Y-73081887D01*
X123113250Y-72970200D01*
X121634321Y-72970200D01*
X121653299Y-72924382D01*
X121680200Y-72789144D01*
X121680200Y-72651256D01*
X121653299Y-72516018D01*
X121634321Y-72470200D01*
X123113249Y-72470200D01*
X124347150Y-72470200D01*
X125826079Y-72470200D01*
X125807101Y-72516018D01*
X125780200Y-72651256D01*
X125780200Y-72789144D01*
X125807101Y-72924382D01*
X125826079Y-72970200D01*
X124347150Y-72970200D01*
X124361853Y-73081887D01*
X124424621Y-73316139D01*
X124517420Y-73540178D01*
X124517427Y-73540193D01*
X124638680Y-73750209D01*
X124786310Y-73942605D01*
X124786316Y-73942612D01*
X124957787Y-74114083D01*
X124957794Y-74114089D01*
X125150190Y-74261719D01*
X125360206Y-74382972D01*
X125360221Y-74382979D01*
X125584260Y-74475778D01*
X125818512Y-74538546D01*
X126058935Y-74570198D01*
X126058952Y-74570200D01*
X126230200Y-74570200D01*
X126230200Y-73374320D01*
X126276018Y-73393299D01*
X126411256Y-73420200D01*
X126549144Y-73420200D01*
X126684382Y-73393299D01*
X126730200Y-73374320D01*
X126730200Y-74570200D01*
X126901448Y-74570200D01*
X126901464Y-74570198D01*
X127141887Y-74538546D01*
X127376139Y-74475778D01*
X127600178Y-74382979D01*
X127600193Y-74382972D01*
X127810209Y-74261719D01*
X128002605Y-74114089D01*
X128002612Y-74114083D01*
X128174083Y-73942612D01*
X128174089Y-73942605D01*
X128321719Y-73750209D01*
X128442972Y-73540193D01*
X128442979Y-73540178D01*
X128535778Y-73316139D01*
X128598546Y-73081887D01*
X128613250Y-72970200D01*
X127134321Y-72970200D01*
X127153299Y-72924382D01*
X127180200Y-72789144D01*
X127180200Y-72651256D01*
X127153299Y-72516018D01*
X127134321Y-72470200D01*
X128613249Y-72470200D01*
X128598546Y-72358512D01*
X128535778Y-72124260D01*
X128442979Y-71900221D01*
X128442972Y-71900206D01*
X128321719Y-71690190D01*
X128174089Y-71497794D01*
X128174083Y-71497787D01*
X128002612Y-71326316D01*
X128002605Y-71326310D01*
X127810209Y-71178680D01*
X127600193Y-71057427D01*
X127600178Y-71057420D01*
X127376139Y-70964621D01*
X127141887Y-70901853D01*
X126901464Y-70870201D01*
X126901448Y-70870200D01*
X126730200Y-70870200D01*
X126730200Y-72066079D01*
X126684382Y-72047101D01*
X126549144Y-72020200D01*
X126411256Y-72020200D01*
X126276018Y-72047101D01*
X126230200Y-72066079D01*
X126230200Y-70870200D01*
X126058952Y-70870200D01*
X126058935Y-70870201D01*
X125818512Y-70901853D01*
X125584260Y-70964621D01*
X125360221Y-71057420D01*
X125360206Y-71057427D01*
X125150190Y-71178680D01*
X124957794Y-71326310D01*
X124957787Y-71326316D01*
X124786316Y-71497787D01*
X124786310Y-71497794D01*
X124638680Y-71690190D01*
X124517427Y-71900206D01*
X124517420Y-71900221D01*
X124424621Y-72124260D01*
X124361853Y-72358512D01*
X124347150Y-72470200D01*
X123113249Y-72470200D01*
X123098546Y-72358512D01*
X123035778Y-72124260D01*
X122942979Y-71900221D01*
X122942972Y-71900206D01*
X122821719Y-71690190D01*
X122674089Y-71497794D01*
X122674083Y-71497787D01*
X122502612Y-71326316D01*
X122502605Y-71326310D01*
X122310209Y-71178680D01*
X122100193Y-71057427D01*
X122100178Y-71057420D01*
X121876139Y-70964621D01*
X121641887Y-70901853D01*
X121401464Y-70870201D01*
X121401448Y-70870200D01*
X121230200Y-70870200D01*
X121230200Y-72066079D01*
X121184382Y-72047101D01*
X121049144Y-72020200D01*
X120911256Y-72020200D01*
X120776018Y-72047101D01*
X120730200Y-72066079D01*
X120730200Y-70870200D01*
X120558952Y-70870200D01*
X120558935Y-70870201D01*
X120318512Y-70901853D01*
X120084260Y-70964621D01*
X119860221Y-71057420D01*
X119860206Y-71057427D01*
X119650190Y-71178680D01*
X119457794Y-71326310D01*
X119457787Y-71326316D01*
X119286316Y-71497787D01*
X119286310Y-71497794D01*
X119138680Y-71690190D01*
X119017427Y-71900206D01*
X119017420Y-71900221D01*
X118924621Y-72124260D01*
X118861853Y-72358512D01*
X118847150Y-72470200D01*
X84756320Y-72470200D01*
X80994679Y-68708559D01*
X80994659Y-68708537D01*
X80850985Y-68564863D01*
X80850981Y-68564860D01*
X80687120Y-68455371D01*
X80687107Y-68455364D01*
X80529589Y-68390119D01*
X80505037Y-68379949D01*
X80505029Y-68379947D01*
X80408388Y-68360724D01*
X80311744Y-68341500D01*
X80311741Y-68341500D01*
X78670082Y-68341500D01*
X78603043Y-68321815D01*
X78557288Y-68269011D01*
X78547344Y-68199853D01*
X78576369Y-68136297D01*
X78582401Y-68129819D01*
X78831901Y-67880319D01*
X78893224Y-67846834D01*
X78919582Y-67844000D01*
X99329543Y-67844000D01*
X99459582Y-67818132D01*
X99522835Y-67805551D01*
X99704914Y-67730132D01*
X99868782Y-67620639D01*
X100008139Y-67481282D01*
X100117632Y-67317414D01*
X100193051Y-67135335D01*
X100217518Y-67012333D01*
X100231500Y-66942043D01*
X100231500Y-66744956D01*
X100193052Y-66551670D01*
X100193051Y-66551669D01*
X100193051Y-66551665D01*
X100193049Y-66551660D01*
X100117635Y-66369592D01*
X100117628Y-66369579D01*
X100008139Y-66205718D01*
X100008136Y-66205714D01*
X99868785Y-66066363D01*
X99868781Y-66066360D01*
X99704920Y-65956871D01*
X99704907Y-65956864D01*
X99522839Y-65881450D01*
X99522829Y-65881447D01*
X99329543Y-65843000D01*
X99329541Y-65843000D01*
X78355259Y-65843000D01*
X78355255Y-65843000D01*
X78258612Y-65862224D01*
X78161970Y-65881447D01*
X78161962Y-65881449D01*
X78151723Y-65885691D01*
X78151720Y-65885692D01*
X77979892Y-65956864D01*
X77979879Y-65956871D01*
X77816019Y-66066359D01*
X77746340Y-66136038D01*
X77676661Y-66205718D01*
X77676658Y-66205721D01*
X76357080Y-67525298D01*
X76295757Y-67558783D01*
X76226065Y-67553799D01*
X76181718Y-67525298D01*
X73681979Y-65025559D01*
X73681959Y-65025537D01*
X73538285Y-64881863D01*
X73538281Y-64881860D01*
X73374420Y-64772371D01*
X73374411Y-64772366D01*
X73347297Y-64761135D01*
X109520500Y-64761135D01*
X109520500Y-66556870D01*
X109520501Y-66556876D01*
X109526908Y-66616483D01*
X109577202Y-66751328D01*
X109577206Y-66751335D01*
X109663452Y-66866544D01*
X109663455Y-66866547D01*
X109778664Y-66952793D01*
X109778671Y-66952797D01*
X109913517Y-67003091D01*
X109913516Y-67003091D01*
X109920444Y-67003835D01*
X109973127Y-67009500D01*
X111768872Y-67009499D01*
X111828483Y-67003091D01*
X111963331Y-66952796D01*
X112078546Y-66866546D01*
X112164796Y-66751331D01*
X112215091Y-66616483D01*
X112221500Y-66556873D01*
X112221499Y-64761128D01*
X112215091Y-64701517D01*
X112213387Y-64696949D01*
X112164797Y-64566671D01*
X112164793Y-64566664D01*
X112078547Y-64451455D01*
X112078544Y-64451452D01*
X111963335Y-64365206D01*
X111963328Y-64365202D01*
X111828482Y-64314908D01*
X111828483Y-64314908D01*
X111768883Y-64308501D01*
X111768881Y-64308500D01*
X111768873Y-64308500D01*
X111768864Y-64308500D01*
X109973129Y-64308500D01*
X109973123Y-64308501D01*
X109913516Y-64314908D01*
X109778671Y-64365202D01*
X109778664Y-64365206D01*
X109663455Y-64451452D01*
X109663452Y-64451455D01*
X109577206Y-64566664D01*
X109577202Y-64566671D01*
X109526908Y-64701517D01*
X109520501Y-64761116D01*
X109520501Y-64761123D01*
X109520500Y-64761135D01*
X73347297Y-64761135D01*
X73301815Y-64742296D01*
X73245665Y-64719038D01*
X73192336Y-64696949D01*
X73192332Y-64696948D01*
X73192328Y-64696946D01*
X73095688Y-64677724D01*
X72999044Y-64658500D01*
X72999041Y-64658500D01*
X72788141Y-64658500D01*
X72721102Y-64638815D01*
X72675347Y-64586011D01*
X72671969Y-64577859D01*
X72667796Y-64566669D01*
X72667793Y-64566665D01*
X72667793Y-64566664D01*
X72581547Y-64451455D01*
X72581544Y-64451452D01*
X72466335Y-64365206D01*
X72466328Y-64365202D01*
X72331482Y-64314908D01*
X72331483Y-64314908D01*
X72271883Y-64308501D01*
X72271881Y-64308500D01*
X72271873Y-64308500D01*
X72271864Y-64308500D01*
X70476129Y-64308500D01*
X70476123Y-64308501D01*
X70416516Y-64314908D01*
X70281671Y-64365202D01*
X70281664Y-64365206D01*
X70166455Y-64451452D01*
X70166452Y-64451455D01*
X70080206Y-64566664D01*
X70080202Y-64566671D01*
X70029908Y-64701517D01*
X70023501Y-64761116D01*
X70023501Y-64761123D01*
X70023500Y-64761135D01*
X70023500Y-65543216D01*
X70003815Y-65610255D01*
X69987181Y-65630897D01*
X65701581Y-69916497D01*
X65640258Y-69949982D01*
X65570566Y-69944998D01*
X65514633Y-69903126D01*
X65490216Y-69837662D01*
X65489900Y-69828816D01*
X65489900Y-61391795D01*
X69441487Y-61391795D01*
X69441487Y-61391804D01*
X69461310Y-61656335D01*
X69461311Y-61656340D01*
X69520340Y-61914966D01*
X69520346Y-61914985D01*
X69617264Y-62161928D01*
X69617263Y-62161928D01*
X69749906Y-62391671D01*
X69800091Y-62454603D01*
X70731724Y-61522971D01*
X70716450Y-61579974D01*
X70716450Y-61711626D01*
X70750525Y-61838793D01*
X70816351Y-61952807D01*
X70909443Y-62045899D01*
X70913539Y-62048263D01*
X70066193Y-62895608D01*
X70124358Y-62939151D01*
X70259073Y-62989397D01*
X70259077Y-62989398D01*
X70318605Y-62995799D01*
X70318622Y-62995800D01*
X70439456Y-62995800D01*
X70493257Y-63008080D01*
X70567980Y-63044064D01*
X70567978Y-63044064D01*
X70821475Y-63122258D01*
X70821481Y-63122259D01*
X71083801Y-63161799D01*
X71083808Y-63161800D01*
X71349092Y-63161800D01*
X71349098Y-63161799D01*
X71611418Y-63122259D01*
X71611424Y-63122258D01*
X71864920Y-63044064D01*
X71939643Y-63008080D01*
X71993444Y-62995800D01*
X72114278Y-62995800D01*
X72114294Y-62995799D01*
X72173822Y-62989398D01*
X72173826Y-62989397D01*
X72308540Y-62939151D01*
X72366704Y-62895608D01*
X71519360Y-62048264D01*
X71523457Y-62045899D01*
X71616549Y-61952807D01*
X71682375Y-61838793D01*
X71716450Y-61711626D01*
X71716450Y-61579974D01*
X71701176Y-61522972D01*
X72632807Y-62454603D01*
X72682992Y-62391671D01*
X72815635Y-62161928D01*
X72912553Y-61914985D01*
X72912559Y-61914966D01*
X72971588Y-61656340D01*
X72971589Y-61656335D01*
X72991413Y-61391804D01*
X72991413Y-61391795D01*
X72971589Y-61127264D01*
X72971588Y-61127259D01*
X72912559Y-60868633D01*
X72912553Y-60868614D01*
X72815635Y-60621671D01*
X72815636Y-60621671D01*
X72682993Y-60391928D01*
X72632806Y-60328996D01*
X71699412Y-61262390D01*
X71682375Y-61198807D01*
X71616549Y-61084793D01*
X71523457Y-60991701D01*
X71409443Y-60925875D01*
X71345859Y-60908837D01*
X72280010Y-59974685D01*
X72103925Y-59854633D01*
X72103924Y-59854632D01*
X71864919Y-59739535D01*
X71864921Y-59739535D01*
X71611424Y-59661341D01*
X71611418Y-59661340D01*
X71349098Y-59621800D01*
X71083801Y-59621800D01*
X70821481Y-59661340D01*
X70821475Y-59661341D01*
X70567979Y-59739535D01*
X70328974Y-59854634D01*
X70328961Y-59854641D01*
X70152888Y-59974684D01*
X71087041Y-60908837D01*
X71023457Y-60925875D01*
X70909443Y-60991701D01*
X70816351Y-61084793D01*
X70750525Y-61198807D01*
X70733487Y-61262391D01*
X69800092Y-60328996D01*
X69749907Y-60391927D01*
X69617264Y-60621671D01*
X69520346Y-60868614D01*
X69520340Y-60868633D01*
X69461311Y-61127259D01*
X69461310Y-61127264D01*
X69441487Y-61391795D01*
X65489900Y-61391795D01*
X65489900Y-57489982D01*
X65509585Y-57422943D01*
X65526219Y-57402301D01*
X68772936Y-54155585D01*
X68772936Y-54155584D01*
X68772939Y-54155582D01*
X68882432Y-53991714D01*
X68957851Y-53809635D01*
X68958392Y-53806918D01*
X68996300Y-53616341D01*
X68996300Y-53419260D01*
X68996300Y-47963781D01*
X69015985Y-47896742D01*
X69032614Y-47876105D01*
X71490101Y-45418617D01*
X71551424Y-45385133D01*
X71577782Y-45382299D01*
X72534321Y-45382299D01*
X72534322Y-45382299D01*
X72593933Y-45375891D01*
X72728781Y-45325596D01*
X72843996Y-45239346D01*
X72930246Y-45124131D01*
X72979117Y-44993099D01*
X73020987Y-44937166D01*
X73086451Y-44912748D01*
X73154725Y-44927599D01*
X73182980Y-44948751D01*
X75442568Y-47208339D01*
X75442568Y-47208340D01*
X75456237Y-47217472D01*
X75483393Y-47235617D01*
X75483395Y-47235619D01*
X75483396Y-47235619D01*
X75606436Y-47317832D01*
X75697473Y-47355540D01*
X75697474Y-47355541D01*
X75761851Y-47382207D01*
X75788515Y-47393252D01*
X75949739Y-47425321D01*
X75981807Y-47431699D01*
X75981808Y-47431700D01*
X75981809Y-47431700D01*
X75981810Y-47431700D01*
X76178890Y-47431700D01*
X78045618Y-47431700D01*
X78112657Y-47451385D01*
X78133299Y-47468019D01*
X85736931Y-55071651D01*
X85770416Y-55132974D01*
X85773250Y-55159332D01*
X85773250Y-62404741D01*
X85773250Y-62404743D01*
X85773249Y-62404743D01*
X85811697Y-62598029D01*
X85811700Y-62598039D01*
X85887114Y-62780107D01*
X85887121Y-62780120D01*
X85996610Y-62943981D01*
X85996613Y-62943985D01*
X86135964Y-63083336D01*
X86135968Y-63083339D01*
X86299829Y-63192828D01*
X86299842Y-63192835D01*
X86481910Y-63268249D01*
X86481915Y-63268251D01*
X86481919Y-63268251D01*
X86481920Y-63268252D01*
X86675206Y-63306700D01*
X86675209Y-63306700D01*
X86872293Y-63306700D01*
X87002332Y-63280832D01*
X87065585Y-63268251D01*
X87247664Y-63192832D01*
X87411532Y-63083339D01*
X87550889Y-62943982D01*
X87660382Y-62780114D01*
X87735801Y-62598035D01*
X87772260Y-62414745D01*
X87774250Y-62404743D01*
X87774250Y-61391795D01*
X110081487Y-61391795D01*
X110081487Y-61391804D01*
X110101310Y-61656335D01*
X110101311Y-61656340D01*
X110160340Y-61914966D01*
X110160346Y-61914985D01*
X110257264Y-62161928D01*
X110257263Y-62161928D01*
X110389906Y-62391671D01*
X110440091Y-62454603D01*
X111368119Y-61526576D01*
X111390525Y-61610193D01*
X111456351Y-61724207D01*
X111549443Y-61817299D01*
X111663457Y-61883125D01*
X111707008Y-61894794D01*
X110792888Y-62808913D01*
X110968968Y-62928962D01*
X110968976Y-62928967D01*
X111207980Y-63044064D01*
X111207978Y-63044064D01*
X111461475Y-63122258D01*
X111461481Y-63122259D01*
X111723801Y-63161799D01*
X111723808Y-63161800D01*
X111989092Y-63161800D01*
X111989098Y-63161799D01*
X112251418Y-63122259D01*
X112251424Y-63122258D01*
X112504920Y-63044064D01*
X112743924Y-62928967D01*
X112743934Y-62928960D01*
X112920010Y-62808913D01*
X112005891Y-61894794D01*
X112049443Y-61883125D01*
X112163457Y-61817299D01*
X112256549Y-61724207D01*
X112322375Y-61610193D01*
X112344780Y-61526576D01*
X113272807Y-62454603D01*
X113322992Y-62391671D01*
X113455635Y-62161928D01*
X113552553Y-61914985D01*
X113552559Y-61914966D01*
X113611588Y-61656340D01*
X113611589Y-61656335D01*
X113631413Y-61391804D01*
X113631413Y-61391795D01*
X113611589Y-61127264D01*
X113611588Y-61127259D01*
X113559490Y-60898998D01*
X119985390Y-60898998D01*
X119985390Y-60899001D01*
X120005804Y-61184433D01*
X120066628Y-61464037D01*
X120066630Y-61464043D01*
X120066631Y-61464046D01*
X120119485Y-61605753D01*
X120166635Y-61732166D01*
X120303770Y-61983309D01*
X120303775Y-61983317D01*
X120475254Y-62212387D01*
X120475270Y-62212405D01*
X120677594Y-62414729D01*
X120677612Y-62414745D01*
X120906682Y-62586224D01*
X120906690Y-62586229D01*
X121157833Y-62723364D01*
X121157832Y-62723364D01*
X121157836Y-62723365D01*
X121157839Y-62723367D01*
X121425954Y-62823369D01*
X121425960Y-62823370D01*
X121425962Y-62823371D01*
X121705566Y-62884195D01*
X121705568Y-62884195D01*
X121705572Y-62884196D01*
X121959220Y-62902337D01*
X121990999Y-62904610D01*
X121991000Y-62904610D01*
X121991001Y-62904610D01*
X122019595Y-62902564D01*
X122276428Y-62884196D01*
X122556046Y-62823369D01*
X122824161Y-62723367D01*
X123075315Y-62586226D01*
X123304395Y-62414739D01*
X123506739Y-62212395D01*
X123678226Y-61983315D01*
X123815367Y-61732161D01*
X123915369Y-61464046D01*
X123976196Y-61184428D01*
X123996610Y-60899000D01*
X123976196Y-60613572D01*
X123927980Y-60391928D01*
X123915371Y-60333962D01*
X123915370Y-60333960D01*
X123915369Y-60333954D01*
X123815367Y-60065839D01*
X123765592Y-59974684D01*
X123678229Y-59814690D01*
X123678224Y-59814682D01*
X123506745Y-59585612D01*
X123506729Y-59585594D01*
X123304405Y-59383270D01*
X123304387Y-59383254D01*
X123075317Y-59211775D01*
X123075309Y-59211770D01*
X122824166Y-59074635D01*
X122824167Y-59074635D01*
X122716915Y-59034632D01*
X122556046Y-58974631D01*
X122556043Y-58974630D01*
X122556037Y-58974628D01*
X122276433Y-58913804D01*
X121991001Y-58893390D01*
X121990999Y-58893390D01*
X121705566Y-58913804D01*
X121425962Y-58974628D01*
X121157833Y-59074635D01*
X120906690Y-59211770D01*
X120906682Y-59211775D01*
X120677612Y-59383254D01*
X120677594Y-59383270D01*
X120475270Y-59585594D01*
X120475254Y-59585612D01*
X120303775Y-59814682D01*
X120303770Y-59814690D01*
X120166635Y-60065833D01*
X120066628Y-60333962D01*
X120005804Y-60613566D01*
X119985390Y-60898998D01*
X113559490Y-60898998D01*
X113552559Y-60868633D01*
X113552553Y-60868614D01*
X113455635Y-60621671D01*
X113455636Y-60621671D01*
X113322993Y-60391928D01*
X113272806Y-60328996D01*
X112339412Y-61262390D01*
X112322375Y-61198807D01*
X112256549Y-61084793D01*
X112163457Y-60991701D01*
X112049443Y-60925875D01*
X111985859Y-60908837D01*
X112920010Y-59974685D01*
X112743925Y-59854633D01*
X112743924Y-59854632D01*
X112504919Y-59739535D01*
X112504921Y-59739535D01*
X112251424Y-59661341D01*
X112251418Y-59661340D01*
X111989098Y-59621800D01*
X111723801Y-59621800D01*
X111461481Y-59661340D01*
X111461475Y-59661341D01*
X111207979Y-59739535D01*
X110968974Y-59854634D01*
X110968961Y-59854641D01*
X110792888Y-59974684D01*
X111727041Y-60908837D01*
X111663457Y-60925875D01*
X111549443Y-60991701D01*
X111456351Y-61084793D01*
X111390525Y-61198807D01*
X111373487Y-61262390D01*
X110440092Y-60328996D01*
X110389907Y-60391927D01*
X110257264Y-60621671D01*
X110160346Y-60868614D01*
X110160340Y-60868633D01*
X110101311Y-61127259D01*
X110101310Y-61127264D01*
X110081487Y-61391795D01*
X87774250Y-61391795D01*
X87774250Y-54595006D01*
X87774249Y-54595004D01*
X87735802Y-54401721D01*
X87735801Y-54401714D01*
X87691573Y-54294939D01*
X87660382Y-54219636D01*
X87550889Y-54055768D01*
X87411532Y-53916411D01*
X87411531Y-53916410D01*
X82476534Y-48981414D01*
X118830200Y-48981414D01*
X118830200Y-49881400D01*
X120326079Y-49881400D01*
X120307101Y-49927218D01*
X120280200Y-50062456D01*
X120280200Y-50200344D01*
X120307101Y-50335582D01*
X120326079Y-50381400D01*
X118830200Y-50381400D01*
X118830200Y-51281385D01*
X118840693Y-51384089D01*
X118840694Y-51384096D01*
X118895841Y-51550518D01*
X118895843Y-51550523D01*
X118987884Y-51699744D01*
X119111855Y-51823715D01*
X119261076Y-51915756D01*
X119261081Y-51915758D01*
X119427503Y-51970905D01*
X119427510Y-51970906D01*
X119530214Y-51981399D01*
X119530227Y-51981400D01*
X120730200Y-51981400D01*
X120730200Y-50785520D01*
X120776018Y-50804499D01*
X120911256Y-50831400D01*
X121049144Y-50831400D01*
X121184382Y-50804499D01*
X121230200Y-50785520D01*
X121230200Y-51981400D01*
X122430173Y-51981400D01*
X122430185Y-51981399D01*
X122532889Y-51970906D01*
X122532896Y-51970905D01*
X122699318Y-51915758D01*
X122699323Y-51915756D01*
X122848544Y-51823715D01*
X122972515Y-51699744D01*
X123064556Y-51550523D01*
X123064558Y-51550518D01*
X123119705Y-51384096D01*
X123119706Y-51384089D01*
X123130199Y-51281385D01*
X123130200Y-51281372D01*
X123130200Y-50381400D01*
X121634321Y-50381400D01*
X121653299Y-50335582D01*
X121680200Y-50200344D01*
X121680200Y-50062456D01*
X121669788Y-50010111D01*
X124329700Y-50010111D01*
X124329700Y-50252688D01*
X124351032Y-50414729D01*
X124361362Y-50493189D01*
X124386291Y-50586224D01*
X124424147Y-50727504D01*
X124489051Y-50884195D01*
X124516976Y-50951612D01*
X124638264Y-51161689D01*
X124638266Y-51161692D01*
X124638267Y-51161693D01*
X124785933Y-51354136D01*
X124785939Y-51354143D01*
X124957456Y-51525660D01*
X124957463Y-51525666D01*
X125070521Y-51612418D01*
X125149911Y-51673336D01*
X125359988Y-51794624D01*
X125584100Y-51887454D01*
X125818411Y-51950238D01*
X125975403Y-51970906D01*
X126058911Y-51981900D01*
X126058912Y-51981900D01*
X126901489Y-51981900D01*
X126949588Y-51975567D01*
X127141989Y-51950238D01*
X127376300Y-51887454D01*
X127600412Y-51794624D01*
X127810489Y-51673336D01*
X128002938Y-51525665D01*
X128174465Y-51354138D01*
X128322136Y-51161689D01*
X128443424Y-50951612D01*
X128536254Y-50727500D01*
X128599038Y-50493189D01*
X128630700Y-50252688D01*
X128630700Y-50010112D01*
X128627172Y-49983317D01*
X128605990Y-49822418D01*
X128599038Y-49769611D01*
X128536254Y-49535300D01*
X128443424Y-49311188D01*
X128322136Y-49101111D01*
X128261218Y-49021721D01*
X128174466Y-48908663D01*
X128174460Y-48908656D01*
X128002943Y-48737139D01*
X128002936Y-48737133D01*
X127810493Y-48589467D01*
X127810492Y-48589466D01*
X127810489Y-48589464D01*
X127600412Y-48468176D01*
X127530178Y-48439084D01*
X127376304Y-48375347D01*
X127141985Y-48312561D01*
X126901489Y-48280900D01*
X126901488Y-48280900D01*
X126058912Y-48280900D01*
X126058911Y-48280900D01*
X125818414Y-48312561D01*
X125584095Y-48375347D01*
X125359994Y-48468173D01*
X125359985Y-48468177D01*
X125149906Y-48589467D01*
X124957463Y-48737133D01*
X124957456Y-48737139D01*
X124785939Y-48908656D01*
X124785933Y-48908663D01*
X124638267Y-49101106D01*
X124516977Y-49311185D01*
X124516973Y-49311194D01*
X124424147Y-49535295D01*
X124361361Y-49769614D01*
X124329700Y-50010111D01*
X121669788Y-50010111D01*
X121653299Y-49927218D01*
X121634321Y-49881400D01*
X123130200Y-49881400D01*
X123130200Y-48981427D01*
X123130199Y-48981414D01*
X123119706Y-48878710D01*
X123119705Y-48878703D01*
X123064558Y-48712281D01*
X123064556Y-48712276D01*
X122972515Y-48563055D01*
X122848544Y-48439084D01*
X122699323Y-48347043D01*
X122699318Y-48347041D01*
X122532896Y-48291894D01*
X122532889Y-48291893D01*
X122430185Y-48281400D01*
X121230200Y-48281400D01*
X121230200Y-49477279D01*
X121184382Y-49458301D01*
X121049144Y-49431400D01*
X120911256Y-49431400D01*
X120776018Y-49458301D01*
X120730200Y-49477279D01*
X120730200Y-48281400D01*
X119530214Y-48281400D01*
X119427510Y-48291893D01*
X119427503Y-48291894D01*
X119261081Y-48347041D01*
X119261076Y-48347043D01*
X119111855Y-48439084D01*
X118987884Y-48563055D01*
X118895843Y-48712276D01*
X118895841Y-48712281D01*
X118840694Y-48878703D01*
X118840693Y-48878710D01*
X118830200Y-48981414D01*
X82476534Y-48981414D01*
X79295608Y-45800488D01*
X79295606Y-45800485D01*
X79295606Y-45800486D01*
X79288539Y-45793419D01*
X79288539Y-45793418D01*
X79149182Y-45654061D01*
X79149181Y-45654060D01*
X79149180Y-45654059D01*
X78985320Y-45544571D01*
X78985311Y-45544566D01*
X78902083Y-45510092D01*
X78856565Y-45491238D01*
X78856564Y-45491237D01*
X78848414Y-45487862D01*
X78843584Y-45485861D01*
X78789180Y-45442022D01*
X78767114Y-45375728D01*
X78784392Y-45308029D01*
X78835528Y-45260417D01*
X78891035Y-45247300D01*
X99140493Y-45247300D01*
X99270532Y-45221432D01*
X99333785Y-45208851D01*
X99515864Y-45133432D01*
X99679732Y-45023939D01*
X99819089Y-44884582D01*
X99928582Y-44720714D01*
X100004001Y-44538635D01*
X100042450Y-44345341D01*
X100042450Y-44148259D01*
X100042450Y-44148256D01*
X100004002Y-43954970D01*
X100004001Y-43954969D01*
X100004001Y-43954965D01*
X100003999Y-43954960D01*
X99928585Y-43772892D01*
X99928578Y-43772879D01*
X99820945Y-43611795D01*
X110080985Y-43611795D01*
X110080985Y-43611804D01*
X110100813Y-43876409D01*
X110100814Y-43876414D01*
X110159860Y-44135113D01*
X110159862Y-44135122D01*
X110159864Y-44135127D01*
X110256811Y-44382145D01*
X110389492Y-44611955D01*
X110554942Y-44819423D01*
X110749466Y-44999914D01*
X110968718Y-45149398D01*
X111207800Y-45264534D01*
X111461372Y-45342750D01*
X111461373Y-45342750D01*
X111461376Y-45342751D01*
X111723761Y-45382299D01*
X111723766Y-45382299D01*
X111723769Y-45382300D01*
X111723770Y-45382300D01*
X111989130Y-45382300D01*
X111989131Y-45382300D01*
X111989138Y-45382299D01*
X112251523Y-45342751D01*
X112251524Y-45342750D01*
X112251528Y-45342750D01*
X112505100Y-45264534D01*
X112744183Y-45149398D01*
X112963434Y-44999914D01*
X113157958Y-44819423D01*
X113323408Y-44611955D01*
X113456089Y-44382145D01*
X113553036Y-44135127D01*
X113612085Y-43876419D01*
X113631915Y-43611800D01*
X113631706Y-43609014D01*
X113612086Y-43347190D01*
X113612085Y-43347185D01*
X113612085Y-43347181D01*
X113553036Y-43088473D01*
X113456089Y-42841455D01*
X113323408Y-42611645D01*
X113157958Y-42404177D01*
X112963434Y-42223686D01*
X112744183Y-42074202D01*
X112744182Y-42074201D01*
X112744175Y-42074197D01*
X112505105Y-41959068D01*
X112505086Y-41959061D01*
X112251533Y-41880851D01*
X112251523Y-41880848D01*
X111989138Y-41841300D01*
X111989131Y-41841300D01*
X111723769Y-41841300D01*
X111723761Y-41841300D01*
X111461376Y-41880848D01*
X111461366Y-41880851D01*
X111207813Y-41959061D01*
X111207794Y-41959068D01*
X110968726Y-42074197D01*
X110968724Y-42074198D01*
X110749465Y-42223686D01*
X110554944Y-42404175D01*
X110554942Y-42404177D01*
X110389492Y-42611645D01*
X110256811Y-42841454D01*
X110159866Y-43088467D01*
X110159860Y-43088486D01*
X110100814Y-43347185D01*
X110100813Y-43347190D01*
X110080985Y-43611795D01*
X99820945Y-43611795D01*
X99819089Y-43609018D01*
X99819086Y-43609014D01*
X99679735Y-43469663D01*
X99679731Y-43469660D01*
X99515870Y-43360171D01*
X99515857Y-43360164D01*
X99333789Y-43284750D01*
X99333779Y-43284747D01*
X99140493Y-43246300D01*
X99140491Y-43246300D01*
X78166209Y-43246300D01*
X78166205Y-43246300D01*
X78069562Y-43265524D01*
X77972917Y-43284747D01*
X77972911Y-43284749D01*
X77919584Y-43306837D01*
X77919584Y-43306838D01*
X77874065Y-43325692D01*
X77790839Y-43360166D01*
X77790829Y-43360171D01*
X77626969Y-43469659D01*
X77557290Y-43539338D01*
X77487611Y-43609018D01*
X77487608Y-43609021D01*
X76168030Y-44928598D01*
X76106707Y-44962083D01*
X76037015Y-44957099D01*
X75992670Y-44928599D01*
X74045158Y-42981088D01*
X74045156Y-42981085D01*
X74045156Y-42981086D01*
X74038089Y-42974019D01*
X74038089Y-42974018D01*
X73898732Y-42834661D01*
X73898731Y-42834660D01*
X73898730Y-42834659D01*
X73734870Y-42725171D01*
X73734857Y-42725164D01*
X73585084Y-42663127D01*
X73585083Y-42663127D01*
X73552786Y-42649749D01*
X73552778Y-42649747D01*
X73456138Y-42630524D01*
X73359494Y-42611300D01*
X73359491Y-42611300D01*
X73110949Y-42611300D01*
X73043910Y-42591615D01*
X72998155Y-42538811D01*
X72986949Y-42487300D01*
X72986949Y-42293929D01*
X72986948Y-42293923D01*
X72986947Y-42293916D01*
X72980541Y-42234317D01*
X72930246Y-42099469D01*
X72930245Y-42099468D01*
X72930243Y-42099464D01*
X72843997Y-41984255D01*
X72843994Y-41984252D01*
X72728785Y-41898006D01*
X72728778Y-41898002D01*
X72593932Y-41847708D01*
X72593933Y-41847708D01*
X72534333Y-41841301D01*
X72534331Y-41841300D01*
X72534323Y-41841300D01*
X72534314Y-41841300D01*
X69898579Y-41841300D01*
X69898573Y-41841301D01*
X69838966Y-41847708D01*
X69704121Y-41898002D01*
X69704114Y-41898006D01*
X69588905Y-41984252D01*
X69588902Y-41984255D01*
X69502656Y-42099464D01*
X69502652Y-42099471D01*
X69452358Y-42234317D01*
X69445951Y-42293916D01*
X69445951Y-42293923D01*
X69445950Y-42293935D01*
X69445950Y-44581567D01*
X69426265Y-44648606D01*
X69409631Y-44669248D01*
X67358021Y-46720858D01*
X67358018Y-46720861D01*
X67288338Y-46790540D01*
X67218659Y-46860219D01*
X67109171Y-47024080D01*
X67109164Y-47024093D01*
X67088231Y-47074633D01*
X67085304Y-47081700D01*
X67033749Y-47206164D01*
X67033316Y-47208338D01*
X66995300Y-47399456D01*
X66995300Y-53052017D01*
X66975615Y-53119056D01*
X66958981Y-53139698D01*
X63851620Y-56247059D01*
X63851618Y-56247061D01*
X63781938Y-56316740D01*
X63712259Y-56386419D01*
X63602771Y-56550279D01*
X63602764Y-56550292D01*
X63527350Y-56732360D01*
X63527347Y-56732370D01*
X63488900Y-56925656D01*
X63488900Y-73801900D01*
X63469215Y-73868939D01*
X63416411Y-73914694D01*
X63364900Y-73925900D01*
X63039384Y-73925900D01*
X62936604Y-73936400D01*
X62936603Y-73936401D01*
X62770064Y-73991586D01*
X62770062Y-73991587D01*
X62620748Y-74083686D01*
X62620744Y-74083689D01*
X62496689Y-74207744D01*
X62496686Y-74207748D01*
X62404587Y-74357062D01*
X62404586Y-74357064D01*
X62349401Y-74523603D01*
X62349400Y-74523604D01*
X62338900Y-74626384D01*
X62338900Y-74651900D01*
X62319215Y-74718939D01*
X62266411Y-74764694D01*
X62214900Y-74775900D01*
X60915344Y-74775900D01*
X60848305Y-74756215D01*
X60816968Y-74727386D01*
X60683666Y-74553663D01*
X60683660Y-74553656D01*
X60512143Y-74382139D01*
X60512136Y-74382133D01*
X60319693Y-74234467D01*
X60319692Y-74234466D01*
X60319689Y-74234464D01*
X60148061Y-74135374D01*
X60109614Y-74113177D01*
X60109605Y-74113173D01*
X59885504Y-74020347D01*
X59651185Y-73957561D01*
X59410689Y-73925900D01*
X59410688Y-73925900D01*
X58568112Y-73925900D01*
X58568111Y-73925900D01*
X58327614Y-73957561D01*
X58093295Y-74020347D01*
X57869194Y-74113173D01*
X57869185Y-74113177D01*
X57659106Y-74234467D01*
X57466663Y-74382133D01*
X57466656Y-74382139D01*
X57295139Y-74553656D01*
X57295133Y-74553663D01*
X57147467Y-74746106D01*
X57147464Y-74746110D01*
X57147464Y-74746111D01*
X57136735Y-74764694D01*
X57026177Y-74956185D01*
X57026173Y-74956194D01*
X56933347Y-75180295D01*
X56870561Y-75414614D01*
X56838900Y-75655111D01*
X55491500Y-75655111D01*
X55491500Y-48898998D01*
X60985390Y-48898998D01*
X60985390Y-48899001D01*
X61005804Y-49184433D01*
X61066628Y-49464037D01*
X61066630Y-49464043D01*
X61066631Y-49464046D01*
X61165847Y-49730054D01*
X61166635Y-49732166D01*
X61303770Y-49983309D01*
X61303775Y-49983317D01*
X61475254Y-50212387D01*
X61475270Y-50212405D01*
X61677594Y-50414729D01*
X61677612Y-50414745D01*
X61906682Y-50586224D01*
X61906690Y-50586229D01*
X62157833Y-50723364D01*
X62157832Y-50723364D01*
X62157836Y-50723365D01*
X62157839Y-50723367D01*
X62425954Y-50823369D01*
X62425960Y-50823370D01*
X62425962Y-50823371D01*
X62705566Y-50884195D01*
X62705568Y-50884195D01*
X62705572Y-50884196D01*
X62959220Y-50902337D01*
X62990999Y-50904610D01*
X62991000Y-50904610D01*
X62991001Y-50904610D01*
X63019595Y-50902564D01*
X63276428Y-50884196D01*
X63556046Y-50823369D01*
X63824161Y-50723367D01*
X64075315Y-50586226D01*
X64304395Y-50414739D01*
X64506739Y-50212395D01*
X64678226Y-49983315D01*
X64815367Y-49732161D01*
X64915369Y-49464046D01*
X64976196Y-49184428D01*
X64996610Y-48899000D01*
X64976196Y-48613572D01*
X64970952Y-48589467D01*
X64915371Y-48333962D01*
X64915370Y-48333960D01*
X64915369Y-48333954D01*
X64815367Y-48065839D01*
X64735025Y-47918705D01*
X64678229Y-47814690D01*
X64678224Y-47814682D01*
X64506745Y-47585612D01*
X64506729Y-47585594D01*
X64304405Y-47383270D01*
X64304387Y-47383254D01*
X64075317Y-47211775D01*
X64075309Y-47211770D01*
X63824166Y-47074635D01*
X63824167Y-47074635D01*
X63688658Y-47024093D01*
X63556046Y-46974631D01*
X63556043Y-46974630D01*
X63556037Y-46974628D01*
X63276433Y-46913804D01*
X62991001Y-46893390D01*
X62990999Y-46893390D01*
X62705566Y-46913804D01*
X62425962Y-46974628D01*
X62157833Y-47074635D01*
X61906690Y-47211770D01*
X61906682Y-47211775D01*
X61677612Y-47383254D01*
X61677594Y-47383270D01*
X61475270Y-47585594D01*
X61475254Y-47585612D01*
X61303775Y-47814682D01*
X61303770Y-47814690D01*
X61166635Y-48065833D01*
X61066628Y-48333962D01*
X61005804Y-48613566D01*
X60985390Y-48898998D01*
X55491500Y-48898998D01*
X55491500Y-41523500D01*
X55511185Y-41456461D01*
X55563989Y-41410706D01*
X55615500Y-41399500D01*
X129366500Y-41399500D01*
X129433539Y-41419185D01*
G37*
%TD.AperFunction*%
%TD*%
M02*
