%TF.GenerationSoftware,KiCad,Pcbnew,8.0.9-8.0.9-0~ubuntu20.04.1*%
%TF.CreationDate,2025-10-14T08:35:40-03:00*%
%TF.ProjectId,Alimenta__o,416c696d-656e-4746-91e7-e36f2e6b6963,rev?*%
%TF.SameCoordinates,Original*%
%TF.FileFunction,Legend,Top*%
%TF.FilePolarity,Positive*%
%FSLAX46Y46*%
G04 Gerber Fmt 4.6, Leading zero omitted, Abs format (unit mm)*
G04 Created by KiCad (PCBNEW 8.0.9-8.0.9-0~ubuntu20.04.1) date 2025-10-14 08:35:40*
%MOMM*%
%LPD*%
G01*
G04 APERTURE LIST*
%ADD10C,0.150000*%
%ADD11C,0.100000*%
%ADD12C,0.120000*%
G04 APERTURE END LIST*
D10*
X68085619Y-75158504D02*
X68895142Y-75158504D01*
X68895142Y-75158504D02*
X68990380Y-75110885D01*
X68990380Y-75110885D02*
X69038000Y-75063266D01*
X69038000Y-75063266D02*
X69085619Y-74968028D01*
X69085619Y-74968028D02*
X69085619Y-74777552D01*
X69085619Y-74777552D02*
X69038000Y-74682314D01*
X69038000Y-74682314D02*
X68990380Y-74634695D01*
X68990380Y-74634695D02*
X68895142Y-74587076D01*
X68895142Y-74587076D02*
X68085619Y-74587076D01*
X68180857Y-74158504D02*
X68133238Y-74110885D01*
X68133238Y-74110885D02*
X68085619Y-74015647D01*
X68085619Y-74015647D02*
X68085619Y-73777552D01*
X68085619Y-73777552D02*
X68133238Y-73682314D01*
X68133238Y-73682314D02*
X68180857Y-73634695D01*
X68180857Y-73634695D02*
X68276095Y-73587076D01*
X68276095Y-73587076D02*
X68371333Y-73587076D01*
X68371333Y-73587076D02*
X68514190Y-73634695D01*
X68514190Y-73634695D02*
X69085619Y-74206123D01*
X69085619Y-74206123D02*
X69085619Y-73587076D01*
X113595352Y-82868419D02*
X113785828Y-82868419D01*
X113785828Y-82868419D02*
X113881066Y-82916038D01*
X113881066Y-82916038D02*
X113976304Y-83011276D01*
X113976304Y-83011276D02*
X114023923Y-83201752D01*
X114023923Y-83201752D02*
X114023923Y-83535085D01*
X114023923Y-83535085D02*
X113976304Y-83725561D01*
X113976304Y-83725561D02*
X113881066Y-83820800D01*
X113881066Y-83820800D02*
X113785828Y-83868419D01*
X113785828Y-83868419D02*
X113595352Y-83868419D01*
X113595352Y-83868419D02*
X113500114Y-83820800D01*
X113500114Y-83820800D02*
X113404876Y-83725561D01*
X113404876Y-83725561D02*
X113357257Y-83535085D01*
X113357257Y-83535085D02*
X113357257Y-83201752D01*
X113357257Y-83201752D02*
X113404876Y-83011276D01*
X113404876Y-83011276D02*
X113500114Y-82916038D01*
X113500114Y-82916038D02*
X113595352Y-82868419D01*
X114452495Y-82868419D02*
X114452495Y-83677942D01*
X114452495Y-83677942D02*
X114500114Y-83773180D01*
X114500114Y-83773180D02*
X114547733Y-83820800D01*
X114547733Y-83820800D02*
X114642971Y-83868419D01*
X114642971Y-83868419D02*
X114833447Y-83868419D01*
X114833447Y-83868419D02*
X114928685Y-83820800D01*
X114928685Y-83820800D02*
X114976304Y-83773180D01*
X114976304Y-83773180D02*
X115023923Y-83677942D01*
X115023923Y-83677942D02*
X115023923Y-82868419D01*
X115357257Y-82868419D02*
X115928685Y-82868419D01*
X115642971Y-83868419D02*
X115642971Y-82868419D01*
X116262019Y-83487466D02*
X117023924Y-83487466D01*
X113696952Y-65418619D02*
X113887428Y-65418619D01*
X113887428Y-65418619D02*
X113982666Y-65466238D01*
X113982666Y-65466238D02*
X114077904Y-65561476D01*
X114077904Y-65561476D02*
X114125523Y-65751952D01*
X114125523Y-65751952D02*
X114125523Y-66085285D01*
X114125523Y-66085285D02*
X114077904Y-66275761D01*
X114077904Y-66275761D02*
X113982666Y-66371000D01*
X113982666Y-66371000D02*
X113887428Y-66418619D01*
X113887428Y-66418619D02*
X113696952Y-66418619D01*
X113696952Y-66418619D02*
X113601714Y-66371000D01*
X113601714Y-66371000D02*
X113506476Y-66275761D01*
X113506476Y-66275761D02*
X113458857Y-66085285D01*
X113458857Y-66085285D02*
X113458857Y-65751952D01*
X113458857Y-65751952D02*
X113506476Y-65561476D01*
X113506476Y-65561476D02*
X113601714Y-65466238D01*
X113601714Y-65466238D02*
X113696952Y-65418619D01*
X114554095Y-65418619D02*
X114554095Y-66228142D01*
X114554095Y-66228142D02*
X114601714Y-66323380D01*
X114601714Y-66323380D02*
X114649333Y-66371000D01*
X114649333Y-66371000D02*
X114744571Y-66418619D01*
X114744571Y-66418619D02*
X114935047Y-66418619D01*
X114935047Y-66418619D02*
X115030285Y-66371000D01*
X115030285Y-66371000D02*
X115077904Y-66323380D01*
X115077904Y-66323380D02*
X115125523Y-66228142D01*
X115125523Y-66228142D02*
X115125523Y-65418619D01*
X115458857Y-65418619D02*
X116030285Y-65418619D01*
X115744571Y-66418619D02*
X115744571Y-65418619D01*
X116363619Y-66037666D02*
X117125524Y-66037666D01*
X116744571Y-66418619D02*
X116744571Y-65656714D01*
X66903743Y-65961419D02*
X66903743Y-64961419D01*
X67379933Y-65961419D02*
X67379933Y-64961419D01*
X67379933Y-64961419D02*
X67951361Y-65961419D01*
X67951361Y-65961419D02*
X67951361Y-64961419D01*
X68427552Y-65580466D02*
X69189457Y-65580466D01*
X68808504Y-65961419D02*
X68808504Y-65199514D01*
X66929143Y-84706619D02*
X66929143Y-83706619D01*
X67405333Y-84706619D02*
X67405333Y-83706619D01*
X67405333Y-83706619D02*
X67976761Y-84706619D01*
X67976761Y-84706619D02*
X67976761Y-83706619D01*
X68452952Y-84325666D02*
X69214857Y-84325666D01*
X75100883Y-45165180D02*
X75053264Y-45212800D01*
X75053264Y-45212800D02*
X74910407Y-45260419D01*
X74910407Y-45260419D02*
X74815169Y-45260419D01*
X74815169Y-45260419D02*
X74672312Y-45212800D01*
X74672312Y-45212800D02*
X74577074Y-45117561D01*
X74577074Y-45117561D02*
X74529455Y-45022323D01*
X74529455Y-45022323D02*
X74481836Y-44831847D01*
X74481836Y-44831847D02*
X74481836Y-44688990D01*
X74481836Y-44688990D02*
X74529455Y-44498514D01*
X74529455Y-44498514D02*
X74577074Y-44403276D01*
X74577074Y-44403276D02*
X74672312Y-44308038D01*
X74672312Y-44308038D02*
X74815169Y-44260419D01*
X74815169Y-44260419D02*
X74910407Y-44260419D01*
X74910407Y-44260419D02*
X75053264Y-44308038D01*
X75053264Y-44308038D02*
X75100883Y-44355657D01*
X75481836Y-44355657D02*
X75529455Y-44308038D01*
X75529455Y-44308038D02*
X75624693Y-44260419D01*
X75624693Y-44260419D02*
X75862788Y-44260419D01*
X75862788Y-44260419D02*
X75958026Y-44308038D01*
X75958026Y-44308038D02*
X76005645Y-44355657D01*
X76005645Y-44355657D02*
X76053264Y-44450895D01*
X76053264Y-44450895D02*
X76053264Y-44546133D01*
X76053264Y-44546133D02*
X76005645Y-44688990D01*
X76005645Y-44688990D02*
X75434217Y-45260419D01*
X75434217Y-45260419D02*
X76053264Y-45260419D01*
X91533742Y-103051780D02*
X91486123Y-103099400D01*
X91486123Y-103099400D02*
X91343266Y-103147019D01*
X91343266Y-103147019D02*
X91248028Y-103147019D01*
X91248028Y-103147019D02*
X91105171Y-103099400D01*
X91105171Y-103099400D02*
X91009933Y-103004161D01*
X91009933Y-103004161D02*
X90962314Y-102908923D01*
X90962314Y-102908923D02*
X90914695Y-102718447D01*
X90914695Y-102718447D02*
X90914695Y-102575590D01*
X90914695Y-102575590D02*
X90962314Y-102385114D01*
X90962314Y-102385114D02*
X91009933Y-102289876D01*
X91009933Y-102289876D02*
X91105171Y-102194638D01*
X91105171Y-102194638D02*
X91248028Y-102147019D01*
X91248028Y-102147019D02*
X91343266Y-102147019D01*
X91343266Y-102147019D02*
X91486123Y-102194638D01*
X91486123Y-102194638D02*
X91533742Y-102242257D01*
X92486123Y-103147019D02*
X91914695Y-103147019D01*
X92200409Y-103147019D02*
X92200409Y-102147019D01*
X92200409Y-102147019D02*
X92105171Y-102289876D01*
X92105171Y-102289876D02*
X92009933Y-102385114D01*
X92009933Y-102385114D02*
X91914695Y-102432733D01*
X93343266Y-102147019D02*
X93152790Y-102147019D01*
X93152790Y-102147019D02*
X93057552Y-102194638D01*
X93057552Y-102194638D02*
X93009933Y-102242257D01*
X93009933Y-102242257D02*
X92914695Y-102385114D01*
X92914695Y-102385114D02*
X92867076Y-102575590D01*
X92867076Y-102575590D02*
X92867076Y-102956542D01*
X92867076Y-102956542D02*
X92914695Y-103051780D01*
X92914695Y-103051780D02*
X92962314Y-103099400D01*
X92962314Y-103099400D02*
X93057552Y-103147019D01*
X93057552Y-103147019D02*
X93248028Y-103147019D01*
X93248028Y-103147019D02*
X93343266Y-103099400D01*
X93343266Y-103099400D02*
X93390885Y-103051780D01*
X93390885Y-103051780D02*
X93438504Y-102956542D01*
X93438504Y-102956542D02*
X93438504Y-102718447D01*
X93438504Y-102718447D02*
X93390885Y-102623209D01*
X93390885Y-102623209D02*
X93343266Y-102575590D01*
X93343266Y-102575590D02*
X93248028Y-102527971D01*
X93248028Y-102527971D02*
X93057552Y-102527971D01*
X93057552Y-102527971D02*
X92962314Y-102575590D01*
X92962314Y-102575590D02*
X92914695Y-102623209D01*
X92914695Y-102623209D02*
X92867076Y-102718447D01*
X107498219Y-83050194D02*
X106498219Y-83050194D01*
X106498219Y-83050194D02*
X106498219Y-82812099D01*
X106498219Y-82812099D02*
X106545838Y-82669242D01*
X106545838Y-82669242D02*
X106641076Y-82574004D01*
X106641076Y-82574004D02*
X106736314Y-82526385D01*
X106736314Y-82526385D02*
X106926790Y-82478766D01*
X106926790Y-82478766D02*
X107069647Y-82478766D01*
X107069647Y-82478766D02*
X107260123Y-82526385D01*
X107260123Y-82526385D02*
X107355361Y-82574004D01*
X107355361Y-82574004D02*
X107450600Y-82669242D01*
X107450600Y-82669242D02*
X107498219Y-82812099D01*
X107498219Y-82812099D02*
X107498219Y-83050194D01*
X106498219Y-82145432D02*
X106498219Y-81526385D01*
X106498219Y-81526385D02*
X106879171Y-81859718D01*
X106879171Y-81859718D02*
X106879171Y-81716861D01*
X106879171Y-81716861D02*
X106926790Y-81621623D01*
X106926790Y-81621623D02*
X106974409Y-81574004D01*
X106974409Y-81574004D02*
X107069647Y-81526385D01*
X107069647Y-81526385D02*
X107307742Y-81526385D01*
X107307742Y-81526385D02*
X107402980Y-81574004D01*
X107402980Y-81574004D02*
X107450600Y-81621623D01*
X107450600Y-81621623D02*
X107498219Y-81716861D01*
X107498219Y-81716861D02*
X107498219Y-82002575D01*
X107498219Y-82002575D02*
X107450600Y-82097813D01*
X107450600Y-82097813D02*
X107402980Y-82145432D01*
X81160445Y-44057219D02*
X81160445Y-44866742D01*
X81160445Y-44866742D02*
X81208064Y-44961980D01*
X81208064Y-44961980D02*
X81255683Y-45009600D01*
X81255683Y-45009600D02*
X81350921Y-45057219D01*
X81350921Y-45057219D02*
X81541397Y-45057219D01*
X81541397Y-45057219D02*
X81636635Y-45009600D01*
X81636635Y-45009600D02*
X81684254Y-44961980D01*
X81684254Y-44961980D02*
X81731873Y-44866742D01*
X81731873Y-44866742D02*
X81731873Y-44057219D01*
X82112826Y-44057219D02*
X82731873Y-44057219D01*
X82731873Y-44057219D02*
X82398540Y-44438171D01*
X82398540Y-44438171D02*
X82541397Y-44438171D01*
X82541397Y-44438171D02*
X82636635Y-44485790D01*
X82636635Y-44485790D02*
X82684254Y-44533409D01*
X82684254Y-44533409D02*
X82731873Y-44628647D01*
X82731873Y-44628647D02*
X82731873Y-44866742D01*
X82731873Y-44866742D02*
X82684254Y-44961980D01*
X82684254Y-44961980D02*
X82636635Y-45009600D01*
X82636635Y-45009600D02*
X82541397Y-45057219D01*
X82541397Y-45057219D02*
X82255683Y-45057219D01*
X82255683Y-45057219D02*
X82160445Y-45009600D01*
X82160445Y-45009600D02*
X82112826Y-44961980D01*
X94092733Y-108665180D02*
X94045114Y-108712800D01*
X94045114Y-108712800D02*
X93902257Y-108760419D01*
X93902257Y-108760419D02*
X93807019Y-108760419D01*
X93807019Y-108760419D02*
X93664162Y-108712800D01*
X93664162Y-108712800D02*
X93568924Y-108617561D01*
X93568924Y-108617561D02*
X93521305Y-108522323D01*
X93521305Y-108522323D02*
X93473686Y-108331847D01*
X93473686Y-108331847D02*
X93473686Y-108188990D01*
X93473686Y-108188990D02*
X93521305Y-107998514D01*
X93521305Y-107998514D02*
X93568924Y-107903276D01*
X93568924Y-107903276D02*
X93664162Y-107808038D01*
X93664162Y-107808038D02*
X93807019Y-107760419D01*
X93807019Y-107760419D02*
X93902257Y-107760419D01*
X93902257Y-107760419D02*
X94045114Y-107808038D01*
X94045114Y-107808038D02*
X94092733Y-107855657D01*
X94949876Y-108093752D02*
X94949876Y-108760419D01*
X94711781Y-107712800D02*
X94473686Y-108427085D01*
X94473686Y-108427085D02*
X95092733Y-108427085D01*
X103496105Y-111476919D02*
X103496105Y-110476919D01*
X103496105Y-110476919D02*
X103734200Y-110476919D01*
X103734200Y-110476919D02*
X103877057Y-110524538D01*
X103877057Y-110524538D02*
X103972295Y-110619776D01*
X103972295Y-110619776D02*
X104019914Y-110715014D01*
X104019914Y-110715014D02*
X104067533Y-110905490D01*
X104067533Y-110905490D02*
X104067533Y-111048347D01*
X104067533Y-111048347D02*
X104019914Y-111238823D01*
X104019914Y-111238823D02*
X103972295Y-111334061D01*
X103972295Y-111334061D02*
X103877057Y-111429300D01*
X103877057Y-111429300D02*
X103734200Y-111476919D01*
X103734200Y-111476919D02*
X103496105Y-111476919D01*
X105019914Y-111476919D02*
X104448486Y-111476919D01*
X104734200Y-111476919D02*
X104734200Y-110476919D01*
X104734200Y-110476919D02*
X104638962Y-110619776D01*
X104638962Y-110619776D02*
X104543724Y-110715014D01*
X104543724Y-110715014D02*
X104448486Y-110762633D01*
X90924142Y-82020580D02*
X90876523Y-82068200D01*
X90876523Y-82068200D02*
X90733666Y-82115819D01*
X90733666Y-82115819D02*
X90638428Y-82115819D01*
X90638428Y-82115819D02*
X90495571Y-82068200D01*
X90495571Y-82068200D02*
X90400333Y-81972961D01*
X90400333Y-81972961D02*
X90352714Y-81877723D01*
X90352714Y-81877723D02*
X90305095Y-81687247D01*
X90305095Y-81687247D02*
X90305095Y-81544390D01*
X90305095Y-81544390D02*
X90352714Y-81353914D01*
X90352714Y-81353914D02*
X90400333Y-81258676D01*
X90400333Y-81258676D02*
X90495571Y-81163438D01*
X90495571Y-81163438D02*
X90638428Y-81115819D01*
X90638428Y-81115819D02*
X90733666Y-81115819D01*
X90733666Y-81115819D02*
X90876523Y-81163438D01*
X90876523Y-81163438D02*
X90924142Y-81211057D01*
X91876523Y-82115819D02*
X91305095Y-82115819D01*
X91590809Y-82115819D02*
X91590809Y-81115819D01*
X91590809Y-81115819D02*
X91495571Y-81258676D01*
X91495571Y-81258676D02*
X91400333Y-81353914D01*
X91400333Y-81353914D02*
X91305095Y-81401533D01*
X92828904Y-82115819D02*
X92257476Y-82115819D01*
X92543190Y-82115819D02*
X92543190Y-81115819D01*
X92543190Y-81115819D02*
X92447952Y-81258676D01*
X92447952Y-81258676D02*
X92352714Y-81353914D01*
X92352714Y-81353914D02*
X92257476Y-81401533D01*
X107309169Y-60453494D02*
X106309169Y-60453494D01*
X106309169Y-60453494D02*
X106309169Y-60215399D01*
X106309169Y-60215399D02*
X106356788Y-60072542D01*
X106356788Y-60072542D02*
X106452026Y-59977304D01*
X106452026Y-59977304D02*
X106547264Y-59929685D01*
X106547264Y-59929685D02*
X106737740Y-59882066D01*
X106737740Y-59882066D02*
X106880597Y-59882066D01*
X106880597Y-59882066D02*
X107071073Y-59929685D01*
X107071073Y-59929685D02*
X107166311Y-59977304D01*
X107166311Y-59977304D02*
X107261550Y-60072542D01*
X107261550Y-60072542D02*
X107309169Y-60215399D01*
X107309169Y-60215399D02*
X107309169Y-60453494D01*
X106404407Y-59501113D02*
X106356788Y-59453494D01*
X106356788Y-59453494D02*
X106309169Y-59358256D01*
X106309169Y-59358256D02*
X106309169Y-59120161D01*
X106309169Y-59120161D02*
X106356788Y-59024923D01*
X106356788Y-59024923D02*
X106404407Y-58977304D01*
X106404407Y-58977304D02*
X106499645Y-58929685D01*
X106499645Y-58929685D02*
X106594883Y-58929685D01*
X106594883Y-58929685D02*
X106737740Y-58977304D01*
X106737740Y-58977304D02*
X107309169Y-59548732D01*
X107309169Y-59548732D02*
X107309169Y-58929685D01*
X101820742Y-87913380D02*
X101773123Y-87961000D01*
X101773123Y-87961000D02*
X101630266Y-88008619D01*
X101630266Y-88008619D02*
X101535028Y-88008619D01*
X101535028Y-88008619D02*
X101392171Y-87961000D01*
X101392171Y-87961000D02*
X101296933Y-87865761D01*
X101296933Y-87865761D02*
X101249314Y-87770523D01*
X101249314Y-87770523D02*
X101201695Y-87580047D01*
X101201695Y-87580047D02*
X101201695Y-87437190D01*
X101201695Y-87437190D02*
X101249314Y-87246714D01*
X101249314Y-87246714D02*
X101296933Y-87151476D01*
X101296933Y-87151476D02*
X101392171Y-87056238D01*
X101392171Y-87056238D02*
X101535028Y-87008619D01*
X101535028Y-87008619D02*
X101630266Y-87008619D01*
X101630266Y-87008619D02*
X101773123Y-87056238D01*
X101773123Y-87056238D02*
X101820742Y-87103857D01*
X102773123Y-88008619D02*
X102201695Y-88008619D01*
X102487409Y-88008619D02*
X102487409Y-87008619D01*
X102487409Y-87008619D02*
X102392171Y-87151476D01*
X102392171Y-87151476D02*
X102296933Y-87246714D01*
X102296933Y-87246714D02*
X102201695Y-87294333D01*
X103106457Y-87008619D02*
X103773123Y-87008619D01*
X103773123Y-87008619D02*
X103344552Y-88008619D01*
X105957769Y-62625266D02*
X105481578Y-62958599D01*
X105957769Y-63196694D02*
X104957769Y-63196694D01*
X104957769Y-63196694D02*
X104957769Y-62815742D01*
X104957769Y-62815742D02*
X105005388Y-62720504D01*
X105005388Y-62720504D02*
X105053007Y-62672885D01*
X105053007Y-62672885D02*
X105148245Y-62625266D01*
X105148245Y-62625266D02*
X105291102Y-62625266D01*
X105291102Y-62625266D02*
X105386340Y-62672885D01*
X105386340Y-62672885D02*
X105433959Y-62720504D01*
X105433959Y-62720504D02*
X105481578Y-62815742D01*
X105481578Y-62815742D02*
X105481578Y-63196694D01*
X105957769Y-61672885D02*
X105957769Y-62244313D01*
X105957769Y-61958599D02*
X104957769Y-61958599D01*
X104957769Y-61958599D02*
X105100626Y-62053837D01*
X105100626Y-62053837D02*
X105195864Y-62149075D01*
X105195864Y-62149075D02*
X105243483Y-62244313D01*
D11*
X92619933Y-114400519D02*
X92143743Y-114400519D01*
X92143743Y-114400519D02*
X92143743Y-113400519D01*
X92905648Y-113495757D02*
X92953267Y-113448138D01*
X92953267Y-113448138D02*
X93048505Y-113400519D01*
X93048505Y-113400519D02*
X93286600Y-113400519D01*
X93286600Y-113400519D02*
X93381838Y-113448138D01*
X93381838Y-113448138D02*
X93429457Y-113495757D01*
X93429457Y-113495757D02*
X93477076Y-113590995D01*
X93477076Y-113590995D02*
X93477076Y-113686233D01*
X93477076Y-113686233D02*
X93429457Y-113829090D01*
X93429457Y-113829090D02*
X92858029Y-114400519D01*
X92858029Y-114400519D02*
X93477076Y-114400519D01*
X92504083Y-44669019D02*
X92027893Y-44669019D01*
X92027893Y-44669019D02*
X92027893Y-43669019D01*
X93361226Y-44669019D02*
X92789798Y-44669019D01*
X93075512Y-44669019D02*
X93075512Y-43669019D01*
X93075512Y-43669019D02*
X92980274Y-43811876D01*
X92980274Y-43811876D02*
X92885036Y-43907114D01*
X92885036Y-43907114D02*
X92789798Y-43954733D01*
D10*
X111949333Y-107165280D02*
X111901714Y-107212900D01*
X111901714Y-107212900D02*
X111758857Y-107260519D01*
X111758857Y-107260519D02*
X111663619Y-107260519D01*
X111663619Y-107260519D02*
X111520762Y-107212900D01*
X111520762Y-107212900D02*
X111425524Y-107117661D01*
X111425524Y-107117661D02*
X111377905Y-107022423D01*
X111377905Y-107022423D02*
X111330286Y-106831947D01*
X111330286Y-106831947D02*
X111330286Y-106689090D01*
X111330286Y-106689090D02*
X111377905Y-106498614D01*
X111377905Y-106498614D02*
X111425524Y-106403376D01*
X111425524Y-106403376D02*
X111520762Y-106308138D01*
X111520762Y-106308138D02*
X111663619Y-106260519D01*
X111663619Y-106260519D02*
X111758857Y-106260519D01*
X111758857Y-106260519D02*
X111901714Y-106308138D01*
X111901714Y-106308138D02*
X111949333Y-106355757D01*
X112282667Y-106260519D02*
X112949333Y-106260519D01*
X112949333Y-106260519D02*
X112520762Y-107260519D01*
X60804466Y-71438419D02*
X60804466Y-72152704D01*
X60804466Y-72152704D02*
X60756847Y-72295561D01*
X60756847Y-72295561D02*
X60661609Y-72390800D01*
X60661609Y-72390800D02*
X60518752Y-72438419D01*
X60518752Y-72438419D02*
X60423514Y-72438419D01*
X61804466Y-72438419D02*
X61233038Y-72438419D01*
X61518752Y-72438419D02*
X61518752Y-71438419D01*
X61518752Y-71438419D02*
X61423514Y-71581276D01*
X61423514Y-71581276D02*
X61328276Y-71676514D01*
X61328276Y-71676514D02*
X61233038Y-71724133D01*
X71823342Y-92434580D02*
X71775723Y-92482200D01*
X71775723Y-92482200D02*
X71632866Y-92529819D01*
X71632866Y-92529819D02*
X71537628Y-92529819D01*
X71537628Y-92529819D02*
X71394771Y-92482200D01*
X71394771Y-92482200D02*
X71299533Y-92386961D01*
X71299533Y-92386961D02*
X71251914Y-92291723D01*
X71251914Y-92291723D02*
X71204295Y-92101247D01*
X71204295Y-92101247D02*
X71204295Y-91958390D01*
X71204295Y-91958390D02*
X71251914Y-91767914D01*
X71251914Y-91767914D02*
X71299533Y-91672676D01*
X71299533Y-91672676D02*
X71394771Y-91577438D01*
X71394771Y-91577438D02*
X71537628Y-91529819D01*
X71537628Y-91529819D02*
X71632866Y-91529819D01*
X71632866Y-91529819D02*
X71775723Y-91577438D01*
X71775723Y-91577438D02*
X71823342Y-91625057D01*
X72775723Y-92529819D02*
X72204295Y-92529819D01*
X72490009Y-92529819D02*
X72490009Y-91529819D01*
X72490009Y-91529819D02*
X72394771Y-91672676D01*
X72394771Y-91672676D02*
X72299533Y-91767914D01*
X72299533Y-91767914D02*
X72204295Y-91815533D01*
X73632866Y-91863152D02*
X73632866Y-92529819D01*
X73394771Y-91482200D02*
X73156676Y-92196485D01*
X73156676Y-92196485D02*
X73775723Y-92196485D01*
X96002819Y-85298166D02*
X95526628Y-85631499D01*
X96002819Y-85869594D02*
X95002819Y-85869594D01*
X95002819Y-85869594D02*
X95002819Y-85488642D01*
X95002819Y-85488642D02*
X95050438Y-85393404D01*
X95050438Y-85393404D02*
X95098057Y-85345785D01*
X95098057Y-85345785D02*
X95193295Y-85298166D01*
X95193295Y-85298166D02*
X95336152Y-85298166D01*
X95336152Y-85298166D02*
X95431390Y-85345785D01*
X95431390Y-85345785D02*
X95479009Y-85393404D01*
X95479009Y-85393404D02*
X95526628Y-85488642D01*
X95526628Y-85488642D02*
X95526628Y-85869594D01*
X95002819Y-84441023D02*
X95002819Y-84631499D01*
X95002819Y-84631499D02*
X95050438Y-84726737D01*
X95050438Y-84726737D02*
X95098057Y-84774356D01*
X95098057Y-84774356D02*
X95240914Y-84869594D01*
X95240914Y-84869594D02*
X95431390Y-84917213D01*
X95431390Y-84917213D02*
X95812342Y-84917213D01*
X95812342Y-84917213D02*
X95907580Y-84869594D01*
X95907580Y-84869594D02*
X95955200Y-84821975D01*
X95955200Y-84821975D02*
X96002819Y-84726737D01*
X96002819Y-84726737D02*
X96002819Y-84536261D01*
X96002819Y-84536261D02*
X95955200Y-84441023D01*
X95955200Y-84441023D02*
X95907580Y-84393404D01*
X95907580Y-84393404D02*
X95812342Y-84345785D01*
X95812342Y-84345785D02*
X95574247Y-84345785D01*
X95574247Y-84345785D02*
X95479009Y-84393404D01*
X95479009Y-84393404D02*
X95431390Y-84441023D01*
X95431390Y-84441023D02*
X95383771Y-84536261D01*
X95383771Y-84536261D02*
X95383771Y-84726737D01*
X95383771Y-84726737D02*
X95431390Y-84821975D01*
X95431390Y-84821975D02*
X95479009Y-84869594D01*
X95479009Y-84869594D02*
X95574247Y-84917213D01*
D11*
X93353933Y-88270219D02*
X92877743Y-88270219D01*
X92877743Y-88270219D02*
X92877743Y-87270219D01*
X94115838Y-87603552D02*
X94115838Y-88270219D01*
X93877743Y-87222600D02*
X93639648Y-87936885D01*
X93639648Y-87936885D02*
X94258695Y-87936885D01*
D10*
X105630742Y-89919980D02*
X105583123Y-89967600D01*
X105583123Y-89967600D02*
X105440266Y-90015219D01*
X105440266Y-90015219D02*
X105345028Y-90015219D01*
X105345028Y-90015219D02*
X105202171Y-89967600D01*
X105202171Y-89967600D02*
X105106933Y-89872361D01*
X105106933Y-89872361D02*
X105059314Y-89777123D01*
X105059314Y-89777123D02*
X105011695Y-89586647D01*
X105011695Y-89586647D02*
X105011695Y-89443790D01*
X105011695Y-89443790D02*
X105059314Y-89253314D01*
X105059314Y-89253314D02*
X105106933Y-89158076D01*
X105106933Y-89158076D02*
X105202171Y-89062838D01*
X105202171Y-89062838D02*
X105345028Y-89015219D01*
X105345028Y-89015219D02*
X105440266Y-89015219D01*
X105440266Y-89015219D02*
X105583123Y-89062838D01*
X105583123Y-89062838D02*
X105630742Y-89110457D01*
X106583123Y-90015219D02*
X106011695Y-90015219D01*
X106297409Y-90015219D02*
X106297409Y-89015219D01*
X106297409Y-89015219D02*
X106202171Y-89158076D01*
X106202171Y-89158076D02*
X106106933Y-89253314D01*
X106106933Y-89253314D02*
X106011695Y-89300933D01*
X107154552Y-89443790D02*
X107059314Y-89396171D01*
X107059314Y-89396171D02*
X107011695Y-89348552D01*
X107011695Y-89348552D02*
X106964076Y-89253314D01*
X106964076Y-89253314D02*
X106964076Y-89205695D01*
X106964076Y-89205695D02*
X107011695Y-89110457D01*
X107011695Y-89110457D02*
X107059314Y-89062838D01*
X107059314Y-89062838D02*
X107154552Y-89015219D01*
X107154552Y-89015219D02*
X107345028Y-89015219D01*
X107345028Y-89015219D02*
X107440266Y-89062838D01*
X107440266Y-89062838D02*
X107487885Y-89110457D01*
X107487885Y-89110457D02*
X107535504Y-89205695D01*
X107535504Y-89205695D02*
X107535504Y-89253314D01*
X107535504Y-89253314D02*
X107487885Y-89348552D01*
X107487885Y-89348552D02*
X107440266Y-89396171D01*
X107440266Y-89396171D02*
X107345028Y-89443790D01*
X107345028Y-89443790D02*
X107154552Y-89443790D01*
X107154552Y-89443790D02*
X107059314Y-89491409D01*
X107059314Y-89491409D02*
X107011695Y-89539028D01*
X107011695Y-89539028D02*
X106964076Y-89634266D01*
X106964076Y-89634266D02*
X106964076Y-89824742D01*
X106964076Y-89824742D02*
X107011695Y-89919980D01*
X107011695Y-89919980D02*
X107059314Y-89967600D01*
X107059314Y-89967600D02*
X107154552Y-90015219D01*
X107154552Y-90015219D02*
X107345028Y-90015219D01*
X107345028Y-90015219D02*
X107440266Y-89967600D01*
X107440266Y-89967600D02*
X107487885Y-89919980D01*
X107487885Y-89919980D02*
X107535504Y-89824742D01*
X107535504Y-89824742D02*
X107535504Y-89634266D01*
X107535504Y-89634266D02*
X107487885Y-89539028D01*
X107487885Y-89539028D02*
X107440266Y-89491409D01*
X107440266Y-89491409D02*
X107345028Y-89443790D01*
X68004269Y-54220404D02*
X68813792Y-54220404D01*
X68813792Y-54220404D02*
X68909030Y-54172785D01*
X68909030Y-54172785D02*
X68956650Y-54125166D01*
X68956650Y-54125166D02*
X69004269Y-54029928D01*
X69004269Y-54029928D02*
X69004269Y-53839452D01*
X69004269Y-53839452D02*
X68956650Y-53744214D01*
X68956650Y-53744214D02*
X68909030Y-53696595D01*
X68909030Y-53696595D02*
X68813792Y-53648976D01*
X68813792Y-53648976D02*
X68004269Y-53648976D01*
X69004269Y-52648976D02*
X69004269Y-53220404D01*
X69004269Y-52934690D02*
X68004269Y-52934690D01*
X68004269Y-52934690D02*
X68147126Y-53029928D01*
X68147126Y-53029928D02*
X68242364Y-53125166D01*
X68242364Y-53125166D02*
X68289983Y-53220404D01*
X106146819Y-85221966D02*
X105670628Y-85555299D01*
X106146819Y-85793394D02*
X105146819Y-85793394D01*
X105146819Y-85793394D02*
X105146819Y-85412442D01*
X105146819Y-85412442D02*
X105194438Y-85317204D01*
X105194438Y-85317204D02*
X105242057Y-85269585D01*
X105242057Y-85269585D02*
X105337295Y-85221966D01*
X105337295Y-85221966D02*
X105480152Y-85221966D01*
X105480152Y-85221966D02*
X105575390Y-85269585D01*
X105575390Y-85269585D02*
X105623009Y-85317204D01*
X105623009Y-85317204D02*
X105670628Y-85412442D01*
X105670628Y-85412442D02*
X105670628Y-85793394D01*
X105480152Y-84364823D02*
X106146819Y-84364823D01*
X105099200Y-84602918D02*
X105813485Y-84841013D01*
X105813485Y-84841013D02*
X105813485Y-84221966D01*
X96663619Y-106302666D02*
X96187428Y-106635999D01*
X96663619Y-106874094D02*
X95663619Y-106874094D01*
X95663619Y-106874094D02*
X95663619Y-106493142D01*
X95663619Y-106493142D02*
X95711238Y-106397904D01*
X95711238Y-106397904D02*
X95758857Y-106350285D01*
X95758857Y-106350285D02*
X95854095Y-106302666D01*
X95854095Y-106302666D02*
X95996952Y-106302666D01*
X95996952Y-106302666D02*
X96092190Y-106350285D01*
X96092190Y-106350285D02*
X96139809Y-106397904D01*
X96139809Y-106397904D02*
X96187428Y-106493142D01*
X96187428Y-106493142D02*
X96187428Y-106874094D01*
X96663619Y-105826475D02*
X96663619Y-105635999D01*
X96663619Y-105635999D02*
X96616000Y-105540761D01*
X96616000Y-105540761D02*
X96568380Y-105493142D01*
X96568380Y-105493142D02*
X96425523Y-105397904D01*
X96425523Y-105397904D02*
X96235047Y-105350285D01*
X96235047Y-105350285D02*
X95854095Y-105350285D01*
X95854095Y-105350285D02*
X95758857Y-105397904D01*
X95758857Y-105397904D02*
X95711238Y-105445523D01*
X95711238Y-105445523D02*
X95663619Y-105540761D01*
X95663619Y-105540761D02*
X95663619Y-105731237D01*
X95663619Y-105731237D02*
X95711238Y-105826475D01*
X95711238Y-105826475D02*
X95758857Y-105874094D01*
X95758857Y-105874094D02*
X95854095Y-105921713D01*
X95854095Y-105921713D02*
X96092190Y-105921713D01*
X96092190Y-105921713D02*
X96187428Y-105874094D01*
X96187428Y-105874094D02*
X96235047Y-105826475D01*
X96235047Y-105826475D02*
X96282666Y-105731237D01*
X96282666Y-105731237D02*
X96282666Y-105540761D01*
X96282666Y-105540761D02*
X96235047Y-105445523D01*
X96235047Y-105445523D02*
X96187428Y-105397904D01*
X96187428Y-105397904D02*
X96092190Y-105350285D01*
X91610883Y-59363780D02*
X91563264Y-59411400D01*
X91563264Y-59411400D02*
X91420407Y-59459019D01*
X91420407Y-59459019D02*
X91325169Y-59459019D01*
X91325169Y-59459019D02*
X91182312Y-59411400D01*
X91182312Y-59411400D02*
X91087074Y-59316161D01*
X91087074Y-59316161D02*
X91039455Y-59220923D01*
X91039455Y-59220923D02*
X90991836Y-59030447D01*
X90991836Y-59030447D02*
X90991836Y-58887590D01*
X90991836Y-58887590D02*
X91039455Y-58697114D01*
X91039455Y-58697114D02*
X91087074Y-58601876D01*
X91087074Y-58601876D02*
X91182312Y-58506638D01*
X91182312Y-58506638D02*
X91325169Y-58459019D01*
X91325169Y-58459019D02*
X91420407Y-58459019D01*
X91420407Y-58459019D02*
X91563264Y-58506638D01*
X91563264Y-58506638D02*
X91610883Y-58554257D01*
X91944217Y-58459019D02*
X92563264Y-58459019D01*
X92563264Y-58459019D02*
X92229931Y-58839971D01*
X92229931Y-58839971D02*
X92372788Y-58839971D01*
X92372788Y-58839971D02*
X92468026Y-58887590D01*
X92468026Y-58887590D02*
X92515645Y-58935209D01*
X92515645Y-58935209D02*
X92563264Y-59030447D01*
X92563264Y-59030447D02*
X92563264Y-59268542D01*
X92563264Y-59268542D02*
X92515645Y-59363780D01*
X92515645Y-59363780D02*
X92468026Y-59411400D01*
X92468026Y-59411400D02*
X92372788Y-59459019D01*
X92372788Y-59459019D02*
X92087074Y-59459019D01*
X92087074Y-59459019D02*
X91991836Y-59411400D01*
X91991836Y-59411400D02*
X91944217Y-59363780D01*
X82010295Y-87658419D02*
X82010295Y-88467942D01*
X82010295Y-88467942D02*
X82057914Y-88563180D01*
X82057914Y-88563180D02*
X82105533Y-88610800D01*
X82105533Y-88610800D02*
X82200771Y-88658419D01*
X82200771Y-88658419D02*
X82391247Y-88658419D01*
X82391247Y-88658419D02*
X82486485Y-88610800D01*
X82486485Y-88610800D02*
X82534104Y-88563180D01*
X82534104Y-88563180D02*
X82581723Y-88467942D01*
X82581723Y-88467942D02*
X82581723Y-87658419D01*
X83534104Y-87658419D02*
X83057914Y-87658419D01*
X83057914Y-87658419D02*
X83010295Y-88134609D01*
X83010295Y-88134609D02*
X83057914Y-88086990D01*
X83057914Y-88086990D02*
X83153152Y-88039371D01*
X83153152Y-88039371D02*
X83391247Y-88039371D01*
X83391247Y-88039371D02*
X83486485Y-88086990D01*
X83486485Y-88086990D02*
X83534104Y-88134609D01*
X83534104Y-88134609D02*
X83581723Y-88229847D01*
X83581723Y-88229847D02*
X83581723Y-88467942D01*
X83581723Y-88467942D02*
X83534104Y-88563180D01*
X83534104Y-88563180D02*
X83486485Y-88610800D01*
X83486485Y-88610800D02*
X83391247Y-88658419D01*
X83391247Y-88658419D02*
X83153152Y-88658419D01*
X83153152Y-88658419D02*
X83057914Y-88610800D01*
X83057914Y-88610800D02*
X83010295Y-88563180D01*
X101057419Y-85327166D02*
X100581228Y-85660499D01*
X101057419Y-85898594D02*
X100057419Y-85898594D01*
X100057419Y-85898594D02*
X100057419Y-85517642D01*
X100057419Y-85517642D02*
X100105038Y-85422404D01*
X100105038Y-85422404D02*
X100152657Y-85374785D01*
X100152657Y-85374785D02*
X100247895Y-85327166D01*
X100247895Y-85327166D02*
X100390752Y-85327166D01*
X100390752Y-85327166D02*
X100485990Y-85374785D01*
X100485990Y-85374785D02*
X100533609Y-85422404D01*
X100533609Y-85422404D02*
X100581228Y-85517642D01*
X100581228Y-85517642D02*
X100581228Y-85898594D01*
X100057419Y-84422404D02*
X100057419Y-84898594D01*
X100057419Y-84898594D02*
X100533609Y-84946213D01*
X100533609Y-84946213D02*
X100485990Y-84898594D01*
X100485990Y-84898594D02*
X100438371Y-84803356D01*
X100438371Y-84803356D02*
X100438371Y-84565261D01*
X100438371Y-84565261D02*
X100485990Y-84470023D01*
X100485990Y-84470023D02*
X100533609Y-84422404D01*
X100533609Y-84422404D02*
X100628847Y-84374785D01*
X100628847Y-84374785D02*
X100866942Y-84374785D01*
X100866942Y-84374785D02*
X100962180Y-84422404D01*
X100962180Y-84422404D02*
X101009800Y-84470023D01*
X101009800Y-84470023D02*
X101057419Y-84565261D01*
X101057419Y-84565261D02*
X101057419Y-84803356D01*
X101057419Y-84803356D02*
X101009800Y-84898594D01*
X101009800Y-84898594D02*
X100962180Y-84946213D01*
D11*
X92693133Y-67265719D02*
X92216943Y-67265719D01*
X92216943Y-67265719D02*
X92216943Y-66265719D01*
X92931229Y-66265719D02*
X93550276Y-66265719D01*
X93550276Y-66265719D02*
X93216943Y-66646671D01*
X93216943Y-66646671D02*
X93359800Y-66646671D01*
X93359800Y-66646671D02*
X93455038Y-66694290D01*
X93455038Y-66694290D02*
X93502657Y-66741909D01*
X93502657Y-66741909D02*
X93550276Y-66837147D01*
X93550276Y-66837147D02*
X93550276Y-67075242D01*
X93550276Y-67075242D02*
X93502657Y-67170480D01*
X93502657Y-67170480D02*
X93455038Y-67218100D01*
X93455038Y-67218100D02*
X93359800Y-67265719D01*
X93359800Y-67265719D02*
X93074086Y-67265719D01*
X93074086Y-67265719D02*
X92978848Y-67218100D01*
X92978848Y-67218100D02*
X92931229Y-67170480D01*
D10*
X81349495Y-66653919D02*
X81349495Y-67463442D01*
X81349495Y-67463442D02*
X81397114Y-67558680D01*
X81397114Y-67558680D02*
X81444733Y-67606300D01*
X81444733Y-67606300D02*
X81539971Y-67653919D01*
X81539971Y-67653919D02*
X81730447Y-67653919D01*
X81730447Y-67653919D02*
X81825685Y-67606300D01*
X81825685Y-67606300D02*
X81873304Y-67558680D01*
X81873304Y-67558680D02*
X81920923Y-67463442D01*
X81920923Y-67463442D02*
X81920923Y-66653919D01*
X82825685Y-66987252D02*
X82825685Y-67653919D01*
X82587590Y-66606300D02*
X82349495Y-67320585D01*
X82349495Y-67320585D02*
X82968542Y-67320585D01*
X74813742Y-67761880D02*
X74766123Y-67809500D01*
X74766123Y-67809500D02*
X74623266Y-67857119D01*
X74623266Y-67857119D02*
X74528028Y-67857119D01*
X74528028Y-67857119D02*
X74385171Y-67809500D01*
X74385171Y-67809500D02*
X74289933Y-67714261D01*
X74289933Y-67714261D02*
X74242314Y-67619023D01*
X74242314Y-67619023D02*
X74194695Y-67428547D01*
X74194695Y-67428547D02*
X74194695Y-67285690D01*
X74194695Y-67285690D02*
X74242314Y-67095214D01*
X74242314Y-67095214D02*
X74289933Y-66999976D01*
X74289933Y-66999976D02*
X74385171Y-66904738D01*
X74385171Y-66904738D02*
X74528028Y-66857119D01*
X74528028Y-66857119D02*
X74623266Y-66857119D01*
X74623266Y-66857119D02*
X74766123Y-66904738D01*
X74766123Y-66904738D02*
X74813742Y-66952357D01*
X75766123Y-67857119D02*
X75194695Y-67857119D01*
X75480409Y-67857119D02*
X75480409Y-66857119D01*
X75480409Y-66857119D02*
X75385171Y-66999976D01*
X75385171Y-66999976D02*
X75289933Y-67095214D01*
X75289933Y-67095214D02*
X75194695Y-67142833D01*
X76385171Y-66857119D02*
X76480409Y-66857119D01*
X76480409Y-66857119D02*
X76575647Y-66904738D01*
X76575647Y-66904738D02*
X76623266Y-66952357D01*
X76623266Y-66952357D02*
X76670885Y-67047595D01*
X76670885Y-67047595D02*
X76718504Y-67238071D01*
X76718504Y-67238071D02*
X76718504Y-67476166D01*
X76718504Y-67476166D02*
X76670885Y-67666642D01*
X76670885Y-67666642D02*
X76623266Y-67761880D01*
X76623266Y-67761880D02*
X76575647Y-67809500D01*
X76575647Y-67809500D02*
X76480409Y-67857119D01*
X76480409Y-67857119D02*
X76385171Y-67857119D01*
X76385171Y-67857119D02*
X76289933Y-67809500D01*
X76289933Y-67809500D02*
X76242314Y-67761880D01*
X76242314Y-67761880D02*
X76194695Y-67666642D01*
X76194695Y-67666642D02*
X76147076Y-67476166D01*
X76147076Y-67476166D02*
X76147076Y-67238071D01*
X76147076Y-67238071D02*
X76194695Y-67047595D01*
X76194695Y-67047595D02*
X76242314Y-66952357D01*
X76242314Y-66952357D02*
X76289933Y-66904738D01*
X76289933Y-66904738D02*
X76385171Y-66857119D01*
X101974083Y-44301580D02*
X101926464Y-44349200D01*
X101926464Y-44349200D02*
X101783607Y-44396819D01*
X101783607Y-44396819D02*
X101688369Y-44396819D01*
X101688369Y-44396819D02*
X101545512Y-44349200D01*
X101545512Y-44349200D02*
X101450274Y-44253961D01*
X101450274Y-44253961D02*
X101402655Y-44158723D01*
X101402655Y-44158723D02*
X101355036Y-43968247D01*
X101355036Y-43968247D02*
X101355036Y-43825390D01*
X101355036Y-43825390D02*
X101402655Y-43634914D01*
X101402655Y-43634914D02*
X101450274Y-43539676D01*
X101450274Y-43539676D02*
X101545512Y-43444438D01*
X101545512Y-43444438D02*
X101688369Y-43396819D01*
X101688369Y-43396819D02*
X101783607Y-43396819D01*
X101783607Y-43396819D02*
X101926464Y-43444438D01*
X101926464Y-43444438D02*
X101974083Y-43492057D01*
X102831226Y-43396819D02*
X102640750Y-43396819D01*
X102640750Y-43396819D02*
X102545512Y-43444438D01*
X102545512Y-43444438D02*
X102497893Y-43492057D01*
X102497893Y-43492057D02*
X102402655Y-43634914D01*
X102402655Y-43634914D02*
X102355036Y-43825390D01*
X102355036Y-43825390D02*
X102355036Y-44206342D01*
X102355036Y-44206342D02*
X102402655Y-44301580D01*
X102402655Y-44301580D02*
X102450274Y-44349200D01*
X102450274Y-44349200D02*
X102545512Y-44396819D01*
X102545512Y-44396819D02*
X102735988Y-44396819D01*
X102735988Y-44396819D02*
X102831226Y-44349200D01*
X102831226Y-44349200D02*
X102878845Y-44301580D01*
X102878845Y-44301580D02*
X102926464Y-44206342D01*
X102926464Y-44206342D02*
X102926464Y-43968247D01*
X102926464Y-43968247D02*
X102878845Y-43873009D01*
X102878845Y-43873009D02*
X102831226Y-43825390D01*
X102831226Y-43825390D02*
X102735988Y-43777771D01*
X102735988Y-43777771D02*
X102545512Y-43777771D01*
X102545512Y-43777771D02*
X102450274Y-43825390D01*
X102450274Y-43825390D02*
X102402655Y-43873009D01*
X102402655Y-43873009D02*
X102355036Y-43968247D01*
X108159019Y-104054694D02*
X107159019Y-104054694D01*
X107159019Y-104054694D02*
X107159019Y-103816599D01*
X107159019Y-103816599D02*
X107206638Y-103673742D01*
X107206638Y-103673742D02*
X107301876Y-103578504D01*
X107301876Y-103578504D02*
X107397114Y-103530885D01*
X107397114Y-103530885D02*
X107587590Y-103483266D01*
X107587590Y-103483266D02*
X107730447Y-103483266D01*
X107730447Y-103483266D02*
X107920923Y-103530885D01*
X107920923Y-103530885D02*
X108016161Y-103578504D01*
X108016161Y-103578504D02*
X108111400Y-103673742D01*
X108111400Y-103673742D02*
X108159019Y-103816599D01*
X108159019Y-103816599D02*
X108159019Y-104054694D01*
X107492352Y-102626123D02*
X108159019Y-102626123D01*
X107111400Y-102864218D02*
X107825685Y-103102313D01*
X107825685Y-103102313D02*
X107825685Y-102483266D01*
X122753866Y-94391819D02*
X122753866Y-95106104D01*
X122753866Y-95106104D02*
X122706247Y-95248961D01*
X122706247Y-95248961D02*
X122611009Y-95344200D01*
X122611009Y-95344200D02*
X122468152Y-95391819D01*
X122468152Y-95391819D02*
X122372914Y-95391819D01*
X123182438Y-94487057D02*
X123230057Y-94439438D01*
X123230057Y-94439438D02*
X123325295Y-94391819D01*
X123325295Y-94391819D02*
X123563390Y-94391819D01*
X123563390Y-94391819D02*
X123658628Y-94439438D01*
X123658628Y-94439438D02*
X123706247Y-94487057D01*
X123706247Y-94487057D02*
X123753866Y-94582295D01*
X123753866Y-94582295D02*
X123753866Y-94677533D01*
X123753866Y-94677533D02*
X123706247Y-94820390D01*
X123706247Y-94820390D02*
X123134819Y-95391819D01*
X123134819Y-95391819D02*
X123753866Y-95391819D01*
X75474542Y-88766380D02*
X75426923Y-88814000D01*
X75426923Y-88814000D02*
X75284066Y-88861619D01*
X75284066Y-88861619D02*
X75188828Y-88861619D01*
X75188828Y-88861619D02*
X75045971Y-88814000D01*
X75045971Y-88814000D02*
X74950733Y-88718761D01*
X74950733Y-88718761D02*
X74903114Y-88623523D01*
X74903114Y-88623523D02*
X74855495Y-88433047D01*
X74855495Y-88433047D02*
X74855495Y-88290190D01*
X74855495Y-88290190D02*
X74903114Y-88099714D01*
X74903114Y-88099714D02*
X74950733Y-88004476D01*
X74950733Y-88004476D02*
X75045971Y-87909238D01*
X75045971Y-87909238D02*
X75188828Y-87861619D01*
X75188828Y-87861619D02*
X75284066Y-87861619D01*
X75284066Y-87861619D02*
X75426923Y-87909238D01*
X75426923Y-87909238D02*
X75474542Y-87956857D01*
X76426923Y-88861619D02*
X75855495Y-88861619D01*
X76141209Y-88861619D02*
X76141209Y-87861619D01*
X76141209Y-87861619D02*
X76045971Y-88004476D01*
X76045971Y-88004476D02*
X75950733Y-88099714D01*
X75950733Y-88099714D02*
X75855495Y-88147333D01*
X77331685Y-87861619D02*
X76855495Y-87861619D01*
X76855495Y-87861619D02*
X76807876Y-88337809D01*
X76807876Y-88337809D02*
X76855495Y-88290190D01*
X76855495Y-88290190D02*
X76950733Y-88242571D01*
X76950733Y-88242571D02*
X77188828Y-88242571D01*
X77188828Y-88242571D02*
X77284066Y-88290190D01*
X77284066Y-88290190D02*
X77331685Y-88337809D01*
X77331685Y-88337809D02*
X77379304Y-88433047D01*
X77379304Y-88433047D02*
X77379304Y-88671142D01*
X77379304Y-88671142D02*
X77331685Y-88766380D01*
X77331685Y-88766380D02*
X77284066Y-88814000D01*
X77284066Y-88814000D02*
X77188828Y-88861619D01*
X77188828Y-88861619D02*
X76950733Y-88861619D01*
X76950733Y-88861619D02*
X76855495Y-88814000D01*
X76855495Y-88814000D02*
X76807876Y-88766380D01*
X106807619Y-106226466D02*
X106331428Y-106559799D01*
X106807619Y-106797894D02*
X105807619Y-106797894D01*
X105807619Y-106797894D02*
X105807619Y-106416942D01*
X105807619Y-106416942D02*
X105855238Y-106321704D01*
X105855238Y-106321704D02*
X105902857Y-106274085D01*
X105902857Y-106274085D02*
X105998095Y-106226466D01*
X105998095Y-106226466D02*
X106140952Y-106226466D01*
X106140952Y-106226466D02*
X106236190Y-106274085D01*
X106236190Y-106274085D02*
X106283809Y-106321704D01*
X106283809Y-106321704D02*
X106331428Y-106416942D01*
X106331428Y-106416942D02*
X106331428Y-106797894D01*
X105807619Y-105893132D02*
X105807619Y-105226466D01*
X105807619Y-105226466D02*
X106807619Y-105655037D01*
X105834883Y-46274380D02*
X105787264Y-46322000D01*
X105787264Y-46322000D02*
X105644407Y-46369619D01*
X105644407Y-46369619D02*
X105549169Y-46369619D01*
X105549169Y-46369619D02*
X105406312Y-46322000D01*
X105406312Y-46322000D02*
X105311074Y-46226761D01*
X105311074Y-46226761D02*
X105263455Y-46131523D01*
X105263455Y-46131523D02*
X105215836Y-45941047D01*
X105215836Y-45941047D02*
X105215836Y-45798190D01*
X105215836Y-45798190D02*
X105263455Y-45607714D01*
X105263455Y-45607714D02*
X105311074Y-45512476D01*
X105311074Y-45512476D02*
X105406312Y-45417238D01*
X105406312Y-45417238D02*
X105549169Y-45369619D01*
X105549169Y-45369619D02*
X105644407Y-45369619D01*
X105644407Y-45369619D02*
X105787264Y-45417238D01*
X105787264Y-45417238D02*
X105834883Y-45464857D01*
X106406312Y-45798190D02*
X106311074Y-45750571D01*
X106311074Y-45750571D02*
X106263455Y-45702952D01*
X106263455Y-45702952D02*
X106215836Y-45607714D01*
X106215836Y-45607714D02*
X106215836Y-45560095D01*
X106215836Y-45560095D02*
X106263455Y-45464857D01*
X106263455Y-45464857D02*
X106311074Y-45417238D01*
X106311074Y-45417238D02*
X106406312Y-45369619D01*
X106406312Y-45369619D02*
X106596788Y-45369619D01*
X106596788Y-45369619D02*
X106692026Y-45417238D01*
X106692026Y-45417238D02*
X106739645Y-45464857D01*
X106739645Y-45464857D02*
X106787264Y-45560095D01*
X106787264Y-45560095D02*
X106787264Y-45607714D01*
X106787264Y-45607714D02*
X106739645Y-45702952D01*
X106739645Y-45702952D02*
X106692026Y-45750571D01*
X106692026Y-45750571D02*
X106596788Y-45798190D01*
X106596788Y-45798190D02*
X106406312Y-45798190D01*
X106406312Y-45798190D02*
X106311074Y-45845809D01*
X106311074Y-45845809D02*
X106263455Y-45893428D01*
X106263455Y-45893428D02*
X106215836Y-45988666D01*
X106215836Y-45988666D02*
X106215836Y-46179142D01*
X106215836Y-46179142D02*
X106263455Y-46274380D01*
X106263455Y-46274380D02*
X106311074Y-46322000D01*
X106311074Y-46322000D02*
X106406312Y-46369619D01*
X106406312Y-46369619D02*
X106596788Y-46369619D01*
X106596788Y-46369619D02*
X106692026Y-46322000D01*
X106692026Y-46322000D02*
X106739645Y-46274380D01*
X106739645Y-46274380D02*
X106787264Y-46179142D01*
X106787264Y-46179142D02*
X106787264Y-45988666D01*
X106787264Y-45988666D02*
X106739645Y-45893428D01*
X106739645Y-45893428D02*
X106692026Y-45845809D01*
X106692026Y-45845809D02*
X106596788Y-45798190D01*
X101718219Y-106331666D02*
X101242028Y-106664999D01*
X101718219Y-106903094D02*
X100718219Y-106903094D01*
X100718219Y-106903094D02*
X100718219Y-106522142D01*
X100718219Y-106522142D02*
X100765838Y-106426904D01*
X100765838Y-106426904D02*
X100813457Y-106379285D01*
X100813457Y-106379285D02*
X100908695Y-106331666D01*
X100908695Y-106331666D02*
X101051552Y-106331666D01*
X101051552Y-106331666D02*
X101146790Y-106379285D01*
X101146790Y-106379285D02*
X101194409Y-106426904D01*
X101194409Y-106426904D02*
X101242028Y-106522142D01*
X101242028Y-106522142D02*
X101242028Y-106903094D01*
X101146790Y-105760237D02*
X101099171Y-105855475D01*
X101099171Y-105855475D02*
X101051552Y-105903094D01*
X101051552Y-105903094D02*
X100956314Y-105950713D01*
X100956314Y-105950713D02*
X100908695Y-105950713D01*
X100908695Y-105950713D02*
X100813457Y-105903094D01*
X100813457Y-105903094D02*
X100765838Y-105855475D01*
X100765838Y-105855475D02*
X100718219Y-105760237D01*
X100718219Y-105760237D02*
X100718219Y-105569761D01*
X100718219Y-105569761D02*
X100765838Y-105474523D01*
X100765838Y-105474523D02*
X100813457Y-105426904D01*
X100813457Y-105426904D02*
X100908695Y-105379285D01*
X100908695Y-105379285D02*
X100956314Y-105379285D01*
X100956314Y-105379285D02*
X101051552Y-105426904D01*
X101051552Y-105426904D02*
X101099171Y-105474523D01*
X101099171Y-105474523D02*
X101146790Y-105569761D01*
X101146790Y-105569761D02*
X101146790Y-105760237D01*
X101146790Y-105760237D02*
X101194409Y-105855475D01*
X101194409Y-105855475D02*
X101242028Y-105903094D01*
X101242028Y-105903094D02*
X101337266Y-105950713D01*
X101337266Y-105950713D02*
X101527742Y-105950713D01*
X101527742Y-105950713D02*
X101622980Y-105903094D01*
X101622980Y-105903094D02*
X101670600Y-105855475D01*
X101670600Y-105855475D02*
X101718219Y-105760237D01*
X101718219Y-105760237D02*
X101718219Y-105569761D01*
X101718219Y-105569761D02*
X101670600Y-105474523D01*
X101670600Y-105474523D02*
X101622980Y-105426904D01*
X101622980Y-105426904D02*
X101527742Y-105379285D01*
X101527742Y-105379285D02*
X101337266Y-105379285D01*
X101337266Y-105379285D02*
X101242028Y-105426904D01*
X101242028Y-105426904D02*
X101194409Y-105474523D01*
X101194409Y-105474523D02*
X101146790Y-105569761D01*
X100868369Y-62730466D02*
X100392178Y-63063799D01*
X100868369Y-63301894D02*
X99868369Y-63301894D01*
X99868369Y-63301894D02*
X99868369Y-62920942D01*
X99868369Y-62920942D02*
X99915988Y-62825704D01*
X99915988Y-62825704D02*
X99963607Y-62778085D01*
X99963607Y-62778085D02*
X100058845Y-62730466D01*
X100058845Y-62730466D02*
X100201702Y-62730466D01*
X100201702Y-62730466D02*
X100296940Y-62778085D01*
X100296940Y-62778085D02*
X100344559Y-62825704D01*
X100344559Y-62825704D02*
X100392178Y-62920942D01*
X100392178Y-62920942D02*
X100392178Y-63301894D01*
X99963607Y-62349513D02*
X99915988Y-62301894D01*
X99915988Y-62301894D02*
X99868369Y-62206656D01*
X99868369Y-62206656D02*
X99868369Y-61968561D01*
X99868369Y-61968561D02*
X99915988Y-61873323D01*
X99915988Y-61873323D02*
X99963607Y-61825704D01*
X99963607Y-61825704D02*
X100058845Y-61778085D01*
X100058845Y-61778085D02*
X100154083Y-61778085D01*
X100154083Y-61778085D02*
X100296940Y-61825704D01*
X100296940Y-61825704D02*
X100868369Y-62397132D01*
X100868369Y-62397132D02*
X100868369Y-61778085D01*
X71925883Y-48848180D02*
X71878264Y-48895800D01*
X71878264Y-48895800D02*
X71735407Y-48943419D01*
X71735407Y-48943419D02*
X71640169Y-48943419D01*
X71640169Y-48943419D02*
X71497312Y-48895800D01*
X71497312Y-48895800D02*
X71402074Y-48800561D01*
X71402074Y-48800561D02*
X71354455Y-48705323D01*
X71354455Y-48705323D02*
X71306836Y-48514847D01*
X71306836Y-48514847D02*
X71306836Y-48371990D01*
X71306836Y-48371990D02*
X71354455Y-48181514D01*
X71354455Y-48181514D02*
X71402074Y-48086276D01*
X71402074Y-48086276D02*
X71497312Y-47991038D01*
X71497312Y-47991038D02*
X71640169Y-47943419D01*
X71640169Y-47943419D02*
X71735407Y-47943419D01*
X71735407Y-47943419D02*
X71878264Y-47991038D01*
X71878264Y-47991038D02*
X71925883Y-48038657D01*
X72878264Y-48943419D02*
X72306836Y-48943419D01*
X72592550Y-48943419D02*
X72592550Y-47943419D01*
X72592550Y-47943419D02*
X72497312Y-48086276D01*
X72497312Y-48086276D02*
X72402074Y-48181514D01*
X72402074Y-48181514D02*
X72306836Y-48229133D01*
X101160342Y-66907580D02*
X101112723Y-66955200D01*
X101112723Y-66955200D02*
X100969866Y-67002819D01*
X100969866Y-67002819D02*
X100874628Y-67002819D01*
X100874628Y-67002819D02*
X100731771Y-66955200D01*
X100731771Y-66955200D02*
X100636533Y-66859961D01*
X100636533Y-66859961D02*
X100588914Y-66764723D01*
X100588914Y-66764723D02*
X100541295Y-66574247D01*
X100541295Y-66574247D02*
X100541295Y-66431390D01*
X100541295Y-66431390D02*
X100588914Y-66240914D01*
X100588914Y-66240914D02*
X100636533Y-66145676D01*
X100636533Y-66145676D02*
X100731771Y-66050438D01*
X100731771Y-66050438D02*
X100874628Y-66002819D01*
X100874628Y-66002819D02*
X100969866Y-66002819D01*
X100969866Y-66002819D02*
X101112723Y-66050438D01*
X101112723Y-66050438D02*
X101160342Y-66098057D01*
X102112723Y-67002819D02*
X101541295Y-67002819D01*
X101827009Y-67002819D02*
X101827009Y-66002819D01*
X101827009Y-66002819D02*
X101731771Y-66145676D01*
X101731771Y-66145676D02*
X101636533Y-66240914D01*
X101636533Y-66240914D02*
X101541295Y-66288533D01*
X102493676Y-66098057D02*
X102541295Y-66050438D01*
X102541295Y-66050438D02*
X102636533Y-66002819D01*
X102636533Y-66002819D02*
X102874628Y-66002819D01*
X102874628Y-66002819D02*
X102969866Y-66050438D01*
X102969866Y-66050438D02*
X103017485Y-66098057D01*
X103017485Y-66098057D02*
X103065104Y-66193295D01*
X103065104Y-66193295D02*
X103065104Y-66288533D01*
X103065104Y-66288533D02*
X103017485Y-66431390D01*
X103017485Y-66431390D02*
X102446057Y-67002819D01*
X102446057Y-67002819D02*
X103065104Y-67002819D01*
X95813769Y-62701466D02*
X95337578Y-63034799D01*
X95813769Y-63272894D02*
X94813769Y-63272894D01*
X94813769Y-63272894D02*
X94813769Y-62891942D01*
X94813769Y-62891942D02*
X94861388Y-62796704D01*
X94861388Y-62796704D02*
X94909007Y-62749085D01*
X94909007Y-62749085D02*
X95004245Y-62701466D01*
X95004245Y-62701466D02*
X95147102Y-62701466D01*
X95147102Y-62701466D02*
X95242340Y-62749085D01*
X95242340Y-62749085D02*
X95289959Y-62796704D01*
X95289959Y-62796704D02*
X95337578Y-62891942D01*
X95337578Y-62891942D02*
X95337578Y-63272894D01*
X94813769Y-62368132D02*
X94813769Y-61749085D01*
X94813769Y-61749085D02*
X95194721Y-62082418D01*
X95194721Y-62082418D02*
X95194721Y-61939561D01*
X95194721Y-61939561D02*
X95242340Y-61844323D01*
X95242340Y-61844323D02*
X95289959Y-61796704D01*
X95289959Y-61796704D02*
X95385197Y-61749085D01*
X95385197Y-61749085D02*
X95623292Y-61749085D01*
X95623292Y-61749085D02*
X95718530Y-61796704D01*
X95718530Y-61796704D02*
X95766150Y-61844323D01*
X95766150Y-61844323D02*
X95813769Y-61939561D01*
X95813769Y-61939561D02*
X95813769Y-62225275D01*
X95813769Y-62225275D02*
X95766150Y-62320513D01*
X95766150Y-62320513D02*
X95718530Y-62368132D01*
X105173542Y-68914180D02*
X105125923Y-68961800D01*
X105125923Y-68961800D02*
X104983066Y-69009419D01*
X104983066Y-69009419D02*
X104887828Y-69009419D01*
X104887828Y-69009419D02*
X104744971Y-68961800D01*
X104744971Y-68961800D02*
X104649733Y-68866561D01*
X104649733Y-68866561D02*
X104602114Y-68771323D01*
X104602114Y-68771323D02*
X104554495Y-68580847D01*
X104554495Y-68580847D02*
X104554495Y-68437990D01*
X104554495Y-68437990D02*
X104602114Y-68247514D01*
X104602114Y-68247514D02*
X104649733Y-68152276D01*
X104649733Y-68152276D02*
X104744971Y-68057038D01*
X104744971Y-68057038D02*
X104887828Y-68009419D01*
X104887828Y-68009419D02*
X104983066Y-68009419D01*
X104983066Y-68009419D02*
X105125923Y-68057038D01*
X105125923Y-68057038D02*
X105173542Y-68104657D01*
X106125923Y-69009419D02*
X105554495Y-69009419D01*
X105840209Y-69009419D02*
X105840209Y-68009419D01*
X105840209Y-68009419D02*
X105744971Y-68152276D01*
X105744971Y-68152276D02*
X105649733Y-68247514D01*
X105649733Y-68247514D02*
X105554495Y-68295133D01*
X106459257Y-68009419D02*
X107078304Y-68009419D01*
X107078304Y-68009419D02*
X106744971Y-68390371D01*
X106744971Y-68390371D02*
X106887828Y-68390371D01*
X106887828Y-68390371D02*
X106983066Y-68437990D01*
X106983066Y-68437990D02*
X107030685Y-68485609D01*
X107030685Y-68485609D02*
X107078304Y-68580847D01*
X107078304Y-68580847D02*
X107078304Y-68818942D01*
X107078304Y-68818942D02*
X107030685Y-68914180D01*
X107030685Y-68914180D02*
X106983066Y-68961800D01*
X106983066Y-68961800D02*
X106887828Y-69009419D01*
X106887828Y-69009419D02*
X106602114Y-69009419D01*
X106602114Y-69009419D02*
X106506876Y-68961800D01*
X106506876Y-68961800D02*
X106459257Y-68914180D01*
X72114933Y-71444880D02*
X72067314Y-71492500D01*
X72067314Y-71492500D02*
X71924457Y-71540119D01*
X71924457Y-71540119D02*
X71829219Y-71540119D01*
X71829219Y-71540119D02*
X71686362Y-71492500D01*
X71686362Y-71492500D02*
X71591124Y-71397261D01*
X71591124Y-71397261D02*
X71543505Y-71302023D01*
X71543505Y-71302023D02*
X71495886Y-71111547D01*
X71495886Y-71111547D02*
X71495886Y-70968690D01*
X71495886Y-70968690D02*
X71543505Y-70778214D01*
X71543505Y-70778214D02*
X71591124Y-70682976D01*
X71591124Y-70682976D02*
X71686362Y-70587738D01*
X71686362Y-70587738D02*
X71829219Y-70540119D01*
X71829219Y-70540119D02*
X71924457Y-70540119D01*
X71924457Y-70540119D02*
X72067314Y-70587738D01*
X72067314Y-70587738D02*
X72114933Y-70635357D01*
X72591124Y-71540119D02*
X72781600Y-71540119D01*
X72781600Y-71540119D02*
X72876838Y-71492500D01*
X72876838Y-71492500D02*
X72924457Y-71444880D01*
X72924457Y-71444880D02*
X73019695Y-71302023D01*
X73019695Y-71302023D02*
X73067314Y-71111547D01*
X73067314Y-71111547D02*
X73067314Y-70730595D01*
X73067314Y-70730595D02*
X73019695Y-70635357D01*
X73019695Y-70635357D02*
X72972076Y-70587738D01*
X72972076Y-70587738D02*
X72876838Y-70540119D01*
X72876838Y-70540119D02*
X72686362Y-70540119D01*
X72686362Y-70540119D02*
X72591124Y-70587738D01*
X72591124Y-70587738D02*
X72543505Y-70635357D01*
X72543505Y-70635357D02*
X72495886Y-70730595D01*
X72495886Y-70730595D02*
X72495886Y-70968690D01*
X72495886Y-70968690D02*
X72543505Y-71063928D01*
X72543505Y-71063928D02*
X72591124Y-71111547D01*
X72591124Y-71111547D02*
X72686362Y-71159166D01*
X72686362Y-71159166D02*
X72876838Y-71159166D01*
X72876838Y-71159166D02*
X72972076Y-71111547D01*
X72972076Y-71111547D02*
X73019695Y-71063928D01*
X73019695Y-71063928D02*
X73067314Y-70968690D01*
X116985019Y-50464733D02*
X117699304Y-50464733D01*
X117699304Y-50464733D02*
X117842161Y-50512352D01*
X117842161Y-50512352D02*
X117937400Y-50607590D01*
X117937400Y-50607590D02*
X117985019Y-50750447D01*
X117985019Y-50750447D02*
X117985019Y-50845685D01*
X117318352Y-49559971D02*
X117985019Y-49559971D01*
X116937400Y-49798066D02*
X117651685Y-50036161D01*
X117651685Y-50036161D02*
X117651685Y-49417114D01*
X100261433Y-117452280D02*
X100213814Y-117499900D01*
X100213814Y-117499900D02*
X100070957Y-117547519D01*
X100070957Y-117547519D02*
X99975719Y-117547519D01*
X99975719Y-117547519D02*
X99832862Y-117499900D01*
X99832862Y-117499900D02*
X99737624Y-117404661D01*
X99737624Y-117404661D02*
X99690005Y-117309423D01*
X99690005Y-117309423D02*
X99642386Y-117118947D01*
X99642386Y-117118947D02*
X99642386Y-116976090D01*
X99642386Y-116976090D02*
X99690005Y-116785614D01*
X99690005Y-116785614D02*
X99737624Y-116690376D01*
X99737624Y-116690376D02*
X99832862Y-116595138D01*
X99832862Y-116595138D02*
X99975719Y-116547519D01*
X99975719Y-116547519D02*
X100070957Y-116547519D01*
X100070957Y-116547519D02*
X100213814Y-116595138D01*
X100213814Y-116595138D02*
X100261433Y-116642757D01*
X101166195Y-116547519D02*
X100690005Y-116547519D01*
X100690005Y-116547519D02*
X100642386Y-117023709D01*
X100642386Y-117023709D02*
X100690005Y-116976090D01*
X100690005Y-116976090D02*
X100785243Y-116928471D01*
X100785243Y-116928471D02*
X101023338Y-116928471D01*
X101023338Y-116928471D02*
X101118576Y-116976090D01*
X101118576Y-116976090D02*
X101166195Y-117023709D01*
X101166195Y-117023709D02*
X101213814Y-117118947D01*
X101213814Y-117118947D02*
X101213814Y-117357042D01*
X101213814Y-117357042D02*
X101166195Y-117452280D01*
X101166195Y-117452280D02*
X101118576Y-117499900D01*
X101118576Y-117499900D02*
X101023338Y-117547519D01*
X101023338Y-117547519D02*
X100785243Y-117547519D01*
X100785243Y-117547519D02*
X100690005Y-117499900D01*
X100690005Y-117499900D02*
X100642386Y-117452280D01*
D12*
%TO.C,J12*%
X109541000Y-81474000D02*
X110871000Y-81474000D01*
X109541000Y-82804000D02*
X109541000Y-81474000D01*
X109541000Y-84074000D02*
X109541000Y-84134000D01*
X109541000Y-84074000D02*
X112201000Y-84074000D01*
X109541000Y-84134000D02*
X112201000Y-84134000D01*
X112201000Y-84074000D02*
X112201000Y-84134000D01*
%TO.C,J11*%
X109541000Y-64329000D02*
X110871000Y-64329000D01*
X109541000Y-65659000D02*
X109541000Y-64329000D01*
X109541000Y-66929000D02*
X109541000Y-66989000D01*
X109541000Y-66929000D02*
X112201000Y-66929000D01*
X109541000Y-66989000D02*
X112201000Y-66989000D01*
X112201000Y-66929000D02*
X112201000Y-66989000D01*
%TO.C,J10*%
X70044000Y-81474000D02*
X71374000Y-81474000D01*
X70044000Y-82804000D02*
X70044000Y-81474000D01*
X70044000Y-84074000D02*
X70044000Y-84134000D01*
X70044000Y-84074000D02*
X72704000Y-84074000D01*
X70044000Y-84134000D02*
X72704000Y-84134000D01*
X72704000Y-84074000D02*
X72704000Y-84134000D01*
%TO.C,J9*%
X70044000Y-64329000D02*
X71374000Y-64329000D01*
X70044000Y-65659000D02*
X70044000Y-64329000D01*
X70044000Y-66929000D02*
X70044000Y-66989000D01*
X70044000Y-66929000D02*
X72704000Y-66929000D01*
X70044000Y-66989000D02*
X72704000Y-66989000D01*
X72704000Y-66929000D02*
X72704000Y-66989000D01*
%TO.C,C2*%
X73649202Y-47166200D02*
X73126698Y-47166200D01*
X73649202Y-45696200D02*
X73126698Y-45696200D01*
%TO.C,C16*%
X95287148Y-101870400D02*
X95809652Y-101870400D01*
X95287148Y-103340400D02*
X95809652Y-103340400D01*
%TO.C,D3*%
X106128600Y-83962100D02*
X106128600Y-80662100D01*
X106128600Y-83962100D02*
X99118600Y-83962100D01*
X106128600Y-80662100D02*
X99118600Y-80662100D01*
%TO.C,J8*%
X110526450Y-60087200D02*
X111856450Y-60087200D01*
X110526450Y-61417200D02*
X110526450Y-60087200D01*
X110526450Y-62687200D02*
X110526450Y-62747200D01*
X110526450Y-62687200D02*
X113186450Y-62687200D01*
X110526450Y-62747200D02*
X113186450Y-62747200D01*
X113186450Y-62687200D02*
X113186450Y-62747200D01*
%TO.C,U3*%
X79871950Y-56463200D02*
X80821950Y-56463200D01*
X90271950Y-56463200D02*
X89321950Y-56463200D01*
X79871950Y-55098200D02*
X79871950Y-56463200D01*
X90271950Y-55098200D02*
X90271950Y-56463200D01*
X80861950Y-59288200D02*
X80391950Y-59628200D01*
X80391950Y-58948200D01*
X80861950Y-59288200D01*
G36*
X80861950Y-59288200D02*
G01*
X80391950Y-59628200D01*
X80391950Y-58948200D01*
X80861950Y-59288200D01*
G37*
%TO.C,C4*%
X97641352Y-108937700D02*
X97118848Y-108937700D01*
X97641352Y-107467700D02*
X97118848Y-107467700D01*
%TO.C,D1*%
X103257800Y-112646700D02*
X103257800Y-109346700D01*
X103257800Y-112646700D02*
X96247800Y-112646700D01*
X103257800Y-109346700D02*
X96247800Y-109346700D01*
%TO.C,C11*%
X94626348Y-80865900D02*
X95148852Y-80865900D01*
X94626348Y-82335900D02*
X95148852Y-82335900D01*
%TO.C,D2*%
X105939550Y-61365400D02*
X105939550Y-58065400D01*
X105939550Y-61365400D02*
X98929550Y-61365400D01*
X105939550Y-58065400D02*
X98929550Y-58065400D01*
%TO.C,C17*%
X106249052Y-88303600D02*
X105726548Y-88303600D01*
X106249052Y-86833600D02*
X105726548Y-86833600D01*
%TO.C,R1*%
X103129814Y-63244400D02*
X102675686Y-63244400D01*
X103129814Y-61774400D02*
X102675686Y-61774400D01*
%TO.C,C7*%
X106862800Y-117587300D02*
X106862800Y-116587300D01*
X106362800Y-117087300D02*
X107362800Y-117087300D01*
X106077237Y-116347300D02*
X107862800Y-116347300D01*
X106077237Y-116347300D02*
X105012800Y-115282863D01*
X112668363Y-116347300D02*
X110882800Y-116347300D01*
X112668363Y-116347300D02*
X113732800Y-115282863D01*
X105012800Y-115282863D02*
X105012800Y-107627300D01*
X113732800Y-115282863D02*
X113732800Y-107627300D01*
X105012800Y-107627300D02*
X107862800Y-107627300D01*
X113732800Y-107627300D02*
X110882800Y-107627300D01*
%TO.C,J1*%
X67089400Y-72726400D02*
X64239400Y-72726400D01*
X66849400Y-72966400D02*
X57029400Y-72966400D01*
X57029400Y-72966400D02*
X57029400Y-76066400D01*
X67089400Y-75576400D02*
X67089400Y-72726400D01*
X57029400Y-76066400D02*
X55629400Y-76066400D01*
X55629400Y-76066400D02*
X55629400Y-77876400D01*
X66849400Y-77876400D02*
X66849400Y-72966400D01*
X66849400Y-77876400D02*
X66849400Y-82786400D01*
X57029400Y-79686400D02*
X55629400Y-79686400D01*
X55629400Y-79686400D02*
X55629400Y-77876400D01*
X66849400Y-82786400D02*
X57029400Y-82786400D01*
X57029400Y-82786400D02*
X57029400Y-79686400D01*
%TO.C,J17*%
X114519800Y-88965700D02*
X115849800Y-88965700D01*
X114519800Y-90295700D02*
X114519800Y-88965700D01*
X114519800Y-91565700D02*
X114519800Y-91625700D01*
X114519800Y-91565700D02*
X117179800Y-91565700D01*
X114519800Y-91625700D02*
X117179800Y-91625700D01*
X117179800Y-91565700D02*
X117179800Y-91625700D01*
%TO.C,C14*%
X77967000Y-91696800D02*
X77967000Y-92696800D01*
X78467000Y-92196800D02*
X77467000Y-92196800D01*
X78752563Y-92936800D02*
X76967000Y-92936800D01*
X78752563Y-92936800D02*
X79817000Y-94001237D01*
X72161437Y-92936800D02*
X73947000Y-92936800D01*
X72161437Y-92936800D02*
X71097000Y-94001237D01*
X79817000Y-94001237D02*
X79817000Y-101656800D01*
X71097000Y-94001237D02*
X71097000Y-101656800D01*
X79817000Y-101656800D02*
X76967000Y-101656800D01*
X71097000Y-101656800D02*
X73947000Y-101656800D01*
%TO.C,R6*%
X93158864Y-85866500D02*
X92704736Y-85866500D01*
X93158864Y-84396500D02*
X92704736Y-84396500D01*
%TO.C,C18*%
X111901400Y-89156800D02*
X111901400Y-90156800D01*
X112401400Y-89656800D02*
X111401400Y-89656800D01*
X112686963Y-90396800D02*
X110901400Y-90396800D01*
X112686963Y-90396800D02*
X113751400Y-91461237D01*
X106095837Y-90396800D02*
X107881400Y-90396800D01*
X106095837Y-90396800D02*
X105031400Y-91461237D01*
X113751400Y-91461237D02*
X113751400Y-99116800D01*
X105031400Y-91461237D02*
X105031400Y-99116800D01*
X113751400Y-99116800D02*
X110901400Y-99116800D01*
X105031400Y-99116800D02*
X107881400Y-99116800D01*
%TO.C,J16*%
X114519800Y-101945100D02*
X115849800Y-101945100D01*
X114519800Y-103275100D02*
X114519800Y-101945100D01*
X114519800Y-104545100D02*
X114519800Y-104605100D01*
X114519800Y-104545100D02*
X117179800Y-104545100D01*
X114519800Y-104605100D02*
X117179800Y-104605100D01*
X117179800Y-104545100D02*
X117179800Y-104605100D01*
%TO.C,R4*%
X103318864Y-85841100D02*
X102864736Y-85841100D01*
X103318864Y-84371100D02*
X102864736Y-84371100D01*
%TO.C,J5*%
X69886450Y-42281800D02*
X71216450Y-42281800D01*
X69886450Y-43611800D02*
X69886450Y-42281800D01*
X69886450Y-44881800D02*
X69886450Y-44941800D01*
X69886450Y-44881800D02*
X72546450Y-44881800D01*
X69886450Y-44941800D02*
X72546450Y-44941800D01*
X72546450Y-44881800D02*
X72546450Y-44941800D01*
%TO.C,R9*%
X93819664Y-106871000D02*
X93365536Y-106871000D01*
X93819664Y-105401000D02*
X93365536Y-105401000D01*
%TO.C,C3*%
X94437298Y-58269200D02*
X94959802Y-58269200D01*
X94437298Y-59739200D02*
X94959802Y-59739200D01*
%TO.C,U5*%
X80721800Y-100064400D02*
X81671800Y-100064400D01*
X91121800Y-100064400D02*
X90171800Y-100064400D01*
X80721800Y-98699400D02*
X80721800Y-100064400D01*
X91121800Y-98699400D02*
X91121800Y-100064400D01*
X81711800Y-102889400D02*
X81241800Y-103229400D01*
X81241800Y-102549400D01*
X81711800Y-102889400D01*
G36*
X81711800Y-102889400D02*
G01*
X81241800Y-103229400D01*
X81241800Y-102549400D01*
X81711800Y-102889400D01*
G37*
%TO.C,R5*%
X98264264Y-85866500D02*
X97810136Y-85866500D01*
X98264264Y-84396500D02*
X97810136Y-84396500D01*
%TO.C,J3*%
X118380200Y-79970200D02*
X121230200Y-79970200D01*
X118620200Y-79730200D02*
X128440200Y-79730200D01*
X128440200Y-79730200D02*
X128440200Y-76630200D01*
X118380200Y-77120200D02*
X118380200Y-79970200D01*
X128440200Y-76630200D02*
X129840200Y-76630200D01*
X129840200Y-76630200D02*
X129840200Y-74820200D01*
X118620200Y-74820200D02*
X118620200Y-79730200D01*
X118620200Y-74820200D02*
X118620200Y-69910200D01*
X128440200Y-73010200D02*
X129840200Y-73010200D01*
X129840200Y-73010200D02*
X129840200Y-74820200D01*
X118620200Y-69910200D02*
X128440200Y-69910200D01*
X128440200Y-69910200D02*
X128440200Y-73010200D01*
%TO.C,U4*%
X80061000Y-79059900D02*
X81011000Y-79059900D01*
X90461000Y-79059900D02*
X89511000Y-79059900D01*
X80061000Y-77694900D02*
X80061000Y-79059900D01*
X90461000Y-77694900D02*
X90461000Y-79059900D01*
X81051000Y-81884900D02*
X80581000Y-82224900D01*
X80581000Y-81544900D01*
X81051000Y-81884900D01*
G36*
X81051000Y-81884900D02*
G01*
X80581000Y-82224900D01*
X80581000Y-81544900D01*
X81051000Y-81884900D01*
G37*
%TO.C,C10*%
X73838252Y-69762900D02*
X73315748Y-69762900D01*
X73838252Y-68292900D02*
X73315748Y-68292900D01*
%TO.C,C6*%
X105399202Y-44702400D02*
X104876698Y-44702400D01*
X105399202Y-43232400D02*
X104876698Y-43232400D01*
%TO.C,D4*%
X106789400Y-104966600D02*
X106789400Y-101666600D01*
X106789400Y-104966600D02*
X99779400Y-104966600D01*
X106789400Y-101666600D02*
X99779400Y-101666600D01*
%TO.C,J6*%
X69886450Y-60315800D02*
X71216450Y-60315800D01*
X69886450Y-61645800D02*
X69886450Y-60315800D01*
X69886450Y-62915800D02*
X69886450Y-62975800D01*
X69886450Y-62915800D02*
X72546450Y-62915800D01*
X69886450Y-62975800D02*
X72546450Y-62975800D01*
X72546450Y-62915800D02*
X72546450Y-62975800D01*
%TO.C,J2*%
X118380200Y-110416600D02*
X121230200Y-110416600D01*
X118620200Y-110176600D02*
X128440200Y-110176600D01*
X128440200Y-110176600D02*
X128440200Y-104976600D01*
X118380200Y-107566600D02*
X118380200Y-110416600D01*
X128440200Y-104976600D02*
X129840200Y-104976600D01*
X129840200Y-104976600D02*
X129840200Y-103166600D01*
X118620200Y-103166600D02*
X118620200Y-110176600D01*
X118620200Y-103166600D02*
X118620200Y-96156600D01*
X128440200Y-101356600D02*
X129840200Y-101356600D01*
X129840200Y-101356600D02*
X129840200Y-103166600D01*
X118620200Y-96156600D02*
X128440200Y-96156600D01*
X128440200Y-96156600D02*
X128440200Y-101356600D01*
%TO.C,C15*%
X74499052Y-90767400D02*
X73976548Y-90767400D01*
X74499052Y-89297400D02*
X73976548Y-89297400D01*
%TO.C,R7*%
X103979664Y-106845600D02*
X103525536Y-106845600D01*
X103979664Y-105375600D02*
X103525536Y-105375600D01*
%TO.C,C8*%
X111051550Y-45555600D02*
X111051550Y-46555600D01*
X111551550Y-46055600D02*
X110551550Y-46055600D01*
X111837113Y-46795600D02*
X110051550Y-46795600D01*
X111837113Y-46795600D02*
X112901550Y-47860037D01*
X105245987Y-46795600D02*
X107031550Y-46795600D01*
X105245987Y-46795600D02*
X104181550Y-47860037D01*
X112901550Y-47860037D02*
X112901550Y-55515600D01*
X104181550Y-47860037D02*
X104181550Y-55515600D01*
X112901550Y-55515600D02*
X110051550Y-55515600D01*
X104181550Y-55515600D02*
X107031550Y-55515600D01*
%TO.C,J13*%
X69917400Y-85816100D02*
X71247400Y-85816100D01*
X69917400Y-87146100D02*
X69917400Y-85816100D01*
X69917400Y-88416100D02*
X69917400Y-88476100D01*
X69917400Y-88416100D02*
X72577400Y-88416100D01*
X69917400Y-88476100D02*
X72577400Y-88476100D01*
X72577400Y-88416100D02*
X72577400Y-88476100D01*
%TO.C,R8*%
X98925064Y-106871000D02*
X98470936Y-106871000D01*
X98925064Y-105401000D02*
X98470936Y-105401000D01*
%TO.C,R2*%
X98075214Y-63269800D02*
X97621086Y-63269800D01*
X98075214Y-61799800D02*
X97621086Y-61799800D01*
%TO.C,J7*%
X110526450Y-42231000D02*
X111856450Y-42231000D01*
X110526450Y-43561000D02*
X110526450Y-42231000D01*
X110526450Y-44831000D02*
X110526450Y-44891000D01*
X110526450Y-44831000D02*
X113186450Y-44831000D01*
X110526450Y-44891000D02*
X113186450Y-44891000D01*
X113186450Y-44831000D02*
X113186450Y-44891000D01*
%TO.C,C1*%
X77117150Y-48095600D02*
X77117150Y-49095600D01*
X77617150Y-48595600D02*
X76617150Y-48595600D01*
X77902713Y-49335600D02*
X76117150Y-49335600D01*
X77902713Y-49335600D02*
X78967150Y-50400037D01*
X71311587Y-49335600D02*
X73097150Y-49335600D01*
X71311587Y-49335600D02*
X70247150Y-50400037D01*
X78967150Y-50400037D02*
X78967150Y-58055600D01*
X70247150Y-50400037D02*
X70247150Y-58055600D01*
X78967150Y-58055600D02*
X76117150Y-58055600D01*
X70247150Y-58055600D02*
X73097150Y-58055600D01*
%TO.C,C12*%
X105588252Y-67299100D02*
X105065748Y-67299100D01*
X105588252Y-65829100D02*
X105065748Y-65829100D01*
%TO.C,J14*%
X69739600Y-114975300D02*
X71069600Y-114975300D01*
X69739600Y-116305300D02*
X69739600Y-114975300D01*
X69739600Y-117575300D02*
X69739600Y-117635300D01*
X69739600Y-117575300D02*
X72399600Y-117575300D01*
X69739600Y-117635300D02*
X72399600Y-117635300D01*
X72399600Y-117575300D02*
X72399600Y-117635300D01*
%TO.C,R3*%
X92969814Y-63269800D02*
X92515686Y-63269800D01*
X92969814Y-61799800D02*
X92515686Y-61799800D01*
%TO.C,C13*%
X111240600Y-68152300D02*
X111240600Y-69152300D01*
X111740600Y-68652300D02*
X110740600Y-68652300D01*
X112026163Y-69392300D02*
X110240600Y-69392300D01*
X112026163Y-69392300D02*
X113090600Y-70456737D01*
X105435037Y-69392300D02*
X107220600Y-69392300D01*
X105435037Y-69392300D02*
X104370600Y-70456737D01*
X113090600Y-70456737D02*
X113090600Y-78112300D01*
X104370600Y-70456737D02*
X104370600Y-78112300D01*
X113090600Y-78112300D02*
X110240600Y-78112300D01*
X104370600Y-78112300D02*
X107220600Y-78112300D01*
%TO.C,C9*%
X77306200Y-70692300D02*
X77306200Y-71692300D01*
X77806200Y-71192300D02*
X76806200Y-71192300D01*
X78091763Y-71932300D02*
X76306200Y-71932300D01*
X78091763Y-71932300D02*
X79156200Y-72996737D01*
X71500637Y-71932300D02*
X73286200Y-71932300D01*
X71500637Y-71932300D02*
X70436200Y-72996737D01*
X79156200Y-72996737D02*
X79156200Y-80652300D01*
X70436200Y-72996737D02*
X70436200Y-80652300D01*
X79156200Y-80652300D02*
X76306200Y-80652300D01*
X70436200Y-80652300D02*
X73286200Y-80652300D01*
%TO.C,J15*%
X114519800Y-114924500D02*
X115849800Y-114924500D01*
X114519800Y-116254500D02*
X114519800Y-114924500D01*
X114519800Y-117524500D02*
X114519800Y-117584500D01*
X114519800Y-117524500D02*
X117179800Y-117524500D01*
X114519800Y-117584500D02*
X117179800Y-117584500D01*
X117179800Y-117524500D02*
X117179800Y-117584500D01*
%TO.C,J4*%
X118380200Y-53181400D02*
X121230200Y-53181400D01*
X118620200Y-52941400D02*
X128440200Y-52941400D01*
X128440200Y-52941400D02*
X128440200Y-51941400D01*
X128440200Y-51941400D02*
X129840200Y-51941400D01*
X129840200Y-51941400D02*
X129840200Y-50131400D01*
X118380200Y-50331400D02*
X118380200Y-53181400D01*
X118620200Y-50131400D02*
X118620200Y-52941400D01*
X118620200Y-50131400D02*
X118620200Y-47321400D01*
X128440200Y-48321400D02*
X129840200Y-48321400D01*
X129840200Y-48321400D02*
X129840200Y-50131400D01*
X118620200Y-47321400D02*
X128440200Y-47321400D01*
X128440200Y-47321400D02*
X128440200Y-48321400D01*
%TO.C,C5*%
X103639652Y-117827700D02*
X103117148Y-117827700D01*
X103639652Y-116357700D02*
X103117148Y-116357700D01*
%TD*%
M02*
