%TF.GenerationSoftware,KiCad,Pcbnew,8.0.9-8.0.9-0~ubuntu20.04.1*%
%TF.CreationDate,2025-10-14T08:35:40-03:00*%
%TF.ProjectId,Alimenta__o,416c696d-656e-4746-91e7-e36f2e6b6963,rev?*%
%TF.SameCoordinates,Original*%
%TF.FileFunction,Paste,Top*%
%TF.FilePolarity,Positive*%
%FSLAX46Y46*%
G04 Gerber Fmt 4.6, Leading zero omitted, Abs format (unit mm)*
G04 Created by KiCad (PCBNEW 8.0.9-8.0.9-0~ubuntu20.04.1) date 2025-10-14 08:35:40*
%MOMM*%
%LPD*%
G01*
G04 APERTURE LIST*
G04 Aperture macros list*
%AMRoundRect*
0 Rectangle with rounded corners*
0 $1 Rounding radius*
0 $2 $3 $4 $5 $6 $7 $8 $9 X,Y pos of 4 corners*
0 Add a 4 corners polygon primitive as box body*
4,1,4,$2,$3,$4,$5,$6,$7,$8,$9,$2,$3,0*
0 Add four circle primitives for the rounded corners*
1,1,$1+$1,$2,$3*
1,1,$1+$1,$4,$5*
1,1,$1+$1,$6,$7*
1,1,$1+$1,$8,$9*
0 Add four rect primitives between the rounded corners*
20,1,$1+$1,$2,$3,$4,$5,0*
20,1,$1+$1,$4,$5,$6,$7,0*
20,1,$1+$1,$6,$7,$8,$9,0*
20,1,$1+$1,$8,$9,$2,$3,0*%
G04 Aperture macros list end*
%ADD10RoundRect,0.250000X0.337500X0.475000X-0.337500X0.475000X-0.337500X-0.475000X0.337500X-0.475000X0*%
%ADD11RoundRect,0.250000X-0.337500X-0.475000X0.337500X-0.475000X0.337500X0.475000X-0.337500X0.475000X0*%
%ADD12RoundRect,0.250000X1.500000X0.650000X-1.500000X0.650000X-1.500000X-0.650000X1.500000X-0.650000X0*%
%ADD13RoundRect,0.250000X0.300000X-2.050000X0.300000X2.050000X-0.300000X2.050000X-0.300000X-2.050000X0*%
%ADD14RoundRect,0.250000X2.375000X-2.025000X2.375000X2.025000X-2.375000X2.025000X-2.375000X-2.025000X0*%
%ADD15RoundRect,0.250000X0.350000X0.450000X-0.350000X0.450000X-0.350000X-0.450000X0.350000X-0.450000X0*%
%ADD16R,4.000000X2.000000*%
%ADD17R,2.000000X4.000000*%
%ADD18RoundRect,0.250000X1.000000X-1.950000X1.000000X1.950000X-1.000000X1.950000X-1.000000X-1.950000X0*%
%ADD19RoundRect,0.250000X-1.000000X1.950000X-1.000000X-1.950000X1.000000X-1.950000X1.000000X1.950000X0*%
G04 APERTURE END LIST*
D10*
%TO.C,C2*%
X74425450Y-46431200D03*
X72350450Y-46431200D03*
%TD*%
D11*
%TO.C,C16*%
X94510900Y-102605400D03*
X96585900Y-102605400D03*
%TD*%
D12*
%TO.C,D3*%
X104118600Y-82312100D03*
X99118600Y-82312100D03*
%TD*%
D13*
%TO.C,U3*%
X81671950Y-59288200D03*
X83371950Y-59288200D03*
X85071950Y-59288200D03*
D14*
X82296950Y-52563200D03*
X87846950Y-52563200D03*
X82296950Y-47713200D03*
X87846950Y-47713200D03*
D13*
X86771950Y-59288200D03*
X88471950Y-59288200D03*
%TD*%
D10*
%TO.C,C4*%
X98417600Y-108202700D03*
X96342600Y-108202700D03*
%TD*%
D12*
%TO.C,D1*%
X101247800Y-110996700D03*
X96247800Y-110996700D03*
%TD*%
D11*
%TO.C,C11*%
X93850100Y-81600900D03*
X95925100Y-81600900D03*
%TD*%
D12*
%TO.C,D2*%
X103929550Y-59715400D03*
X98929550Y-59715400D03*
%TD*%
D10*
%TO.C,C17*%
X107025300Y-87568600D03*
X104950300Y-87568600D03*
%TD*%
D15*
%TO.C,R1*%
X103902750Y-62509400D03*
X101902750Y-62509400D03*
%TD*%
D16*
%TO.C,L2*%
X81210500Y-111761300D03*
X81210500Y-115261300D03*
X89710500Y-115261300D03*
X89710500Y-111761300D03*
%TD*%
D17*
%TO.C,L1*%
X99046150Y-47208800D03*
X95546150Y-47208800D03*
X95546150Y-55708800D03*
X99046150Y-55708800D03*
%TD*%
D18*
%TO.C,C7*%
X109372800Y-115687300D03*
X109372800Y-108287300D03*
%TD*%
D19*
%TO.C,C14*%
X75457000Y-93596800D03*
X75457000Y-100996800D03*
%TD*%
D15*
%TO.C,R6*%
X93931800Y-85131500D03*
X91931800Y-85131500D03*
%TD*%
D17*
%TO.C,L4*%
X99896000Y-90810000D03*
X96396000Y-90810000D03*
X96396000Y-99310000D03*
X99896000Y-99310000D03*
%TD*%
D19*
%TO.C,C18*%
X109391400Y-91056800D03*
X109391400Y-98456800D03*
%TD*%
D15*
%TO.C,R4*%
X104091800Y-85106100D03*
X102091800Y-85106100D03*
%TD*%
%TO.C,R9*%
X94592600Y-106136000D03*
X92592600Y-106136000D03*
%TD*%
D11*
%TO.C,C3*%
X93661050Y-59004200D03*
X95736050Y-59004200D03*
%TD*%
D13*
%TO.C,U5*%
X82521800Y-102889400D03*
X84221800Y-102889400D03*
X85921800Y-102889400D03*
D14*
X83146800Y-96164400D03*
X88696800Y-96164400D03*
X83146800Y-91314400D03*
X88696800Y-91314400D03*
D13*
X87621800Y-102889400D03*
X89321800Y-102889400D03*
%TD*%
D15*
%TO.C,R5*%
X99037200Y-85131500D03*
X97037200Y-85131500D03*
%TD*%
D17*
%TO.C,L3*%
X99235200Y-69805500D03*
X95735200Y-69805500D03*
X95735200Y-78305500D03*
X99235200Y-78305500D03*
%TD*%
D13*
%TO.C,U4*%
X81861000Y-81884900D03*
X83561000Y-81884900D03*
X85261000Y-81884900D03*
D14*
X82486000Y-75159900D03*
X88036000Y-75159900D03*
X82486000Y-70309900D03*
X88036000Y-70309900D03*
D13*
X86961000Y-81884900D03*
X88661000Y-81884900D03*
%TD*%
D10*
%TO.C,C10*%
X74614500Y-69027900D03*
X72539500Y-69027900D03*
%TD*%
%TO.C,C6*%
X106175450Y-43967400D03*
X104100450Y-43967400D03*
%TD*%
D12*
%TO.C,D4*%
X104779400Y-103316600D03*
X99779400Y-103316600D03*
%TD*%
D10*
%TO.C,C15*%
X75275300Y-90032400D03*
X73200300Y-90032400D03*
%TD*%
D15*
%TO.C,R7*%
X104752600Y-106110600D03*
X102752600Y-106110600D03*
%TD*%
D19*
%TO.C,C8*%
X108541550Y-47455600D03*
X108541550Y-54855600D03*
%TD*%
D15*
%TO.C,R8*%
X99698000Y-106136000D03*
X97698000Y-106136000D03*
%TD*%
%TO.C,R2*%
X98848150Y-62534800D03*
X96848150Y-62534800D03*
%TD*%
D19*
%TO.C,C1*%
X74607150Y-49995600D03*
X74607150Y-57395600D03*
%TD*%
D10*
%TO.C,C12*%
X106364500Y-66564100D03*
X104289500Y-66564100D03*
%TD*%
D15*
%TO.C,R3*%
X93742750Y-62534800D03*
X91742750Y-62534800D03*
%TD*%
D19*
%TO.C,C13*%
X108730600Y-70052300D03*
X108730600Y-77452300D03*
%TD*%
%TO.C,C9*%
X74796200Y-72592300D03*
X74796200Y-79992300D03*
%TD*%
D10*
%TO.C,C5*%
X104415900Y-117092700D03*
X102340900Y-117092700D03*
%TD*%
M02*
