%TF.GenerationSoftware,KiCad,Pcbnew,8.0.9-8.0.9-0~ubuntu20.04.1*%
%TF.CreationDate,2025-10-30T08:53:55-03:00*%
%TF.ProjectId,Alimenta__o,416c696d-656e-4746-91e7-e36f2e6b6963,rev?*%
%TF.SameCoordinates,Original*%
%TF.FileFunction,Copper,L2,Bot*%
%TF.FilePolarity,Positive*%
%FSLAX46Y46*%
G04 Gerber Fmt 4.6, Leading zero omitted, Abs format (unit mm)*
G04 Created by KiCad (PCBNEW 8.0.9-8.0.9-0~ubuntu20.04.1) date 2025-10-30 08:53:55*
%MOMM*%
%LPD*%
G01*
G04 APERTURE LIST*
G04 Aperture macros list*
%AMRoundRect*
0 Rectangle with rounded corners*
0 $1 Rounding radius*
0 $2 $3 $4 $5 $6 $7 $8 $9 X,Y pos of 4 corners*
0 Add a 4 corners polygon primitive as box body*
4,1,4,$2,$3,$4,$5,$6,$7,$8,$9,$2,$3,0*
0 Add four circle primitives for the rounded corners*
1,1,$1+$1,$2,$3*
1,1,$1+$1,$4,$5*
1,1,$1+$1,$6,$7*
1,1,$1+$1,$8,$9*
0 Add four rect primitives between the rounded corners*
20,1,$1+$1,$2,$3,$4,$5,0*
20,1,$1+$1,$4,$5,$6,$7,0*
20,1,$1+$1,$6,$7,$8,$9,0*
20,1,$1+$1,$8,$9,$2,$3,0*%
G04 Aperture macros list end*
%TA.AperFunction,ComponentPad*%
%ADD10C,1.600000*%
%TD*%
%TA.AperFunction,ComponentPad*%
%ADD11C,0.800000*%
%TD*%
%TA.AperFunction,ComponentPad*%
%ADD12C,6.400000*%
%TD*%
%TA.AperFunction,ComponentPad*%
%ADD13RoundRect,0.250001X1.099999X1.399999X-1.099999X1.399999X-1.099999X-1.399999X1.099999X-1.399999X0*%
%TD*%
%TA.AperFunction,ComponentPad*%
%ADD14O,2.700000X3.300000*%
%TD*%
%TA.AperFunction,ComponentPad*%
%ADD15R,1.700000X1.700000*%
%TD*%
%TA.AperFunction,ComponentPad*%
%ADD16R,2.540000X2.540000*%
%TD*%
%TA.AperFunction,ComponentPad*%
%ADD17C,2.540000*%
%TD*%
%TA.AperFunction,ComponentPad*%
%ADD18RoundRect,0.250001X-1.099999X-1.399999X1.099999X-1.399999X1.099999X1.399999X-1.099999X1.399999X0*%
%TD*%
%TA.AperFunction,ViaPad*%
%ADD19C,0.600000*%
%TD*%
%TA.AperFunction,Conductor*%
%ADD20C,1.000000*%
%TD*%
G04 APERTURE END LIST*
D10*
%TO.P,U2,1,Vin*%
%TO.N,+12V*%
X99631700Y-54194300D03*
%TO.P,U2,2,GND*%
%TO.N,GND*%
X82483700Y-54194300D03*
%TO.P,U2,3,Vout*%
%TO.N,15V*%
X99631700Y-93691300D03*
%TO.P,U2,4,GND*%
%TO.N,GND*%
X82483700Y-93691300D03*
%TD*%
D11*
%TO.P,H4,1,1*%
%TO.N,GND*%
X102527400Y-104673400D03*
X103230344Y-102976344D03*
X103230344Y-106370456D03*
X104927400Y-102273400D03*
D12*
X104927400Y-104673400D03*
D11*
X104927400Y-107073400D03*
X106624456Y-102976344D03*
X106624456Y-106370456D03*
X107327400Y-104673400D03*
%TD*%
D13*
%TO.P,J1,1,Pin_1*%
%TO.N,+12V*%
X89514300Y-47309700D03*
D14*
%TO.P,J1,2,Pin_2*%
%TO.N,GND*%
X85314300Y-47309700D03*
%TO.P,J1,3,Pin_3*%
%TO.N,+12V*%
X89514300Y-41809700D03*
%TO.P,J1,4,Pin_4*%
%TO.N,GND*%
X85314300Y-41809700D03*
%TD*%
D15*
%TO.P,J17,1,Pin_1*%
%TO.N,+15V_sym*%
X74995000Y-98670100D03*
%TD*%
D11*
%TO.P,H2,1,1*%
%TO.N,GND*%
X112666744Y-45435856D03*
X113369688Y-43738800D03*
X113369688Y-47132912D03*
X115066744Y-43035856D03*
D12*
X115066744Y-45435856D03*
D11*
X115066744Y-47835856D03*
X116763800Y-43738800D03*
X116763800Y-47132912D03*
X117466744Y-45435856D03*
%TD*%
%TO.P,H3,1,1*%
%TO.N,GND*%
X73761600Y-104851200D03*
X74464544Y-103154144D03*
X74464544Y-106548256D03*
X76161600Y-102451200D03*
D12*
X76161600Y-104851200D03*
D11*
X76161600Y-107251200D03*
X77858656Y-103154144D03*
X77858656Y-106548256D03*
X78561600Y-104851200D03*
%TD*%
D16*
%TO.P,U1,1,Vin*%
%TO.N,+12V*%
X121678900Y-54036750D03*
D17*
%TO.P,U1,2,GND*%
%TO.N,GND*%
X103898900Y-54036750D03*
%TO.P,U1,3,GND*%
X103898900Y-94676750D03*
%TO.P,U1,4,Vout*%
%TO.N,5V*%
X121678900Y-94676750D03*
%TD*%
D15*
%TO.P,J16,1,Pin_1*%
%TO.N,GND*%
X62015600Y-98670100D03*
%TD*%
D11*
%TO.P,H1,1,1*%
%TO.N,GND*%
X49928744Y-45537456D03*
X50631688Y-43840400D03*
X50631688Y-47234512D03*
X52328744Y-43137456D03*
D12*
X52328744Y-45537456D03*
D11*
X52328744Y-47937456D03*
X54025800Y-43840400D03*
X54025800Y-47234512D03*
X54728744Y-45537456D03*
%TD*%
D18*
%TO.P,J3,1,Pin_1*%
%TO.N,15V*%
X88370500Y-103800500D03*
D14*
%TO.P,J3,2,Pin_2*%
%TO.N,GND*%
X92570500Y-103800500D03*
%TO.P,J3,3,Pin_3*%
%TO.N,15V*%
X88370500Y-109300500D03*
%TO.P,J3,4,Pin_4*%
%TO.N,GND*%
X92570500Y-109300500D03*
%TD*%
D18*
%TO.P,J2,1,Pin_1*%
%TO.N,-15V_sym*%
X57924100Y-103800500D03*
D14*
%TO.P,J2,2,Pin_2*%
%TO.N,GND*%
X62124100Y-103800500D03*
%TO.P,J2,3,Pin_3*%
%TO.N,+15V_sym*%
X66324100Y-103800500D03*
%TO.P,J2,4,Pin_4*%
%TO.N,-15V_sym*%
X57924100Y-109300500D03*
%TO.P,J2,5,Pin_5*%
%TO.N,GND*%
X62124100Y-109300500D03*
%TO.P,J2,6,Pin_6*%
%TO.N,+15V_sym*%
X66324100Y-109300500D03*
%TD*%
D15*
%TO.P,J13,1,Pin_1*%
%TO.N,+12V*%
X78144600Y-54067700D03*
%TD*%
%TO.P,J14,1,Pin_1*%
%TO.N,GND*%
X48985400Y-53889900D03*
%TD*%
%TO.P,J15,1,Pin_1*%
%TO.N,-15V_sym*%
X49036200Y-98670100D03*
%TD*%
D18*
%TO.P,J4,1,Pin_1*%
%TO.N,GND*%
X115159300Y-103800500D03*
D14*
%TO.P,J4,2,Pin_2*%
%TO.N,5V*%
X115159300Y-109300500D03*
%TD*%
D19*
%TO.N,+12V*%
X62399500Y-70443900D03*
X83405800Y-69781300D03*
X106002500Y-69592250D03*
%TO.N,/Conversor 12 to 15V - Sim\u00E9trico/SEPIC_XL6010/L_out*%
X57088000Y-81237900D03*
X61974100Y-82599700D03*
%TD*%
D20*
%TO.N,+12V*%
X117792700Y-50816100D02*
X111772900Y-50816100D01*
X92747100Y-47309700D02*
X99631700Y-54194300D01*
X111772900Y-50816100D02*
X108266500Y-47309700D01*
X85880900Y-50943100D02*
X89514300Y-47309700D01*
X89514300Y-47309700D02*
X92747100Y-47309700D01*
X83405800Y-69781300D02*
X98992800Y-54194300D01*
X121013350Y-54036750D02*
X117792700Y-50816100D01*
X62399500Y-69812800D02*
X78144600Y-54067700D01*
X62399500Y-70443900D02*
X62399500Y-69812800D01*
X78144600Y-54067700D02*
X81269200Y-50943100D01*
X121678900Y-54036750D02*
X121013350Y-54036750D01*
X81269200Y-50943100D02*
X85880900Y-50943100D01*
X98992800Y-54194300D02*
X99631700Y-54194300D01*
X89514300Y-47309700D02*
X89514300Y-41809700D01*
X106002500Y-69592250D02*
X121558000Y-54036750D01*
X121558000Y-54036750D02*
X121678900Y-54036750D01*
X108266500Y-47309700D02*
X92747100Y-47309700D01*
%TO.N,/Conversor 12 to 15V - Sim\u00E9trico/SEPIC_XL6010/L_out*%
X57730400Y-81880300D02*
X61254700Y-81880300D01*
X61254700Y-81880300D02*
X61974100Y-82599700D01*
X57088000Y-81237900D02*
X57730400Y-81880300D01*
%TD*%
%TA.AperFunction,Conductor*%
%TO.N,GND*%
G36*
X123714739Y-38289985D02*
G01*
X123760494Y-38342789D01*
X123771700Y-38394300D01*
X123771700Y-112145300D01*
X123752015Y-112212339D01*
X123699211Y-112258094D01*
X123647700Y-112269300D01*
X44896700Y-112269300D01*
X44829661Y-112249615D01*
X44783906Y-112196811D01*
X44772700Y-112145300D01*
X44772700Y-108270893D01*
X47756600Y-108270893D01*
X47756600Y-108270906D01*
X47775764Y-108502197D01*
X47775766Y-108502208D01*
X47832742Y-108727200D01*
X47925975Y-108939748D01*
X48052916Y-109134047D01*
X48052919Y-109134051D01*
X48052921Y-109134053D01*
X48210116Y-109304813D01*
X48210119Y-109304815D01*
X48210122Y-109304818D01*
X48393265Y-109447364D01*
X48393271Y-109447368D01*
X48393274Y-109447370D01*
X48597397Y-109557836D01*
X48711387Y-109596968D01*
X48816915Y-109633197D01*
X48816917Y-109633197D01*
X48816919Y-109633198D01*
X49045851Y-109671400D01*
X49045852Y-109671400D01*
X49277948Y-109671400D01*
X49277949Y-109671400D01*
X49506881Y-109633198D01*
X49726403Y-109557836D01*
X49930526Y-109447370D01*
X50113684Y-109304813D01*
X50270879Y-109134053D01*
X50397824Y-108939749D01*
X50424379Y-108879211D01*
X56073600Y-108879211D01*
X56073600Y-109721788D01*
X56105261Y-109962285D01*
X56168047Y-110196604D01*
X56260779Y-110420478D01*
X56260876Y-110420712D01*
X56382164Y-110630789D01*
X56382166Y-110630792D01*
X56382167Y-110630793D01*
X56529833Y-110823236D01*
X56529839Y-110823243D01*
X56701356Y-110994760D01*
X56701362Y-110994765D01*
X56893811Y-111142436D01*
X57103888Y-111263724D01*
X57328000Y-111356554D01*
X57562311Y-111419338D01*
X57742686Y-111443084D01*
X57802811Y-111451000D01*
X57802812Y-111451000D01*
X58045389Y-111451000D01*
X58093488Y-111444667D01*
X58285889Y-111419338D01*
X58520200Y-111356554D01*
X58744312Y-111263724D01*
X58954389Y-111142436D01*
X59146838Y-110994765D01*
X59318365Y-110823238D01*
X59466036Y-110630789D01*
X59587324Y-110420712D01*
X59680154Y-110196600D01*
X59742938Y-109962289D01*
X59774600Y-109721788D01*
X59774600Y-108879251D01*
X60274100Y-108879251D01*
X60274100Y-109050500D01*
X61469979Y-109050500D01*
X61451001Y-109096318D01*
X61424100Y-109231556D01*
X61424100Y-109369444D01*
X61451001Y-109504682D01*
X61469979Y-109550500D01*
X60274100Y-109550500D01*
X60274100Y-109721748D01*
X60274101Y-109721764D01*
X60305753Y-109962187D01*
X60368521Y-110196439D01*
X60461320Y-110420478D01*
X60461327Y-110420493D01*
X60582580Y-110630509D01*
X60730210Y-110822905D01*
X60730216Y-110822912D01*
X60901687Y-110994383D01*
X60901694Y-110994389D01*
X61094090Y-111142019D01*
X61304106Y-111263272D01*
X61304121Y-111263279D01*
X61528160Y-111356078D01*
X61762412Y-111418846D01*
X61874100Y-111433549D01*
X61874100Y-109954620D01*
X61919918Y-109973599D01*
X62055156Y-110000500D01*
X62193044Y-110000500D01*
X62328282Y-109973599D01*
X62374100Y-109954620D01*
X62374100Y-111433548D01*
X62485787Y-111418846D01*
X62720039Y-111356078D01*
X62944078Y-111263279D01*
X62944093Y-111263272D01*
X63154109Y-111142019D01*
X63346505Y-110994389D01*
X63346512Y-110994383D01*
X63517983Y-110822912D01*
X63517989Y-110822905D01*
X63665619Y-110630509D01*
X63786872Y-110420493D01*
X63786879Y-110420478D01*
X63879678Y-110196439D01*
X63942446Y-109962187D01*
X63974098Y-109721764D01*
X63974100Y-109721748D01*
X63974100Y-109550500D01*
X62778221Y-109550500D01*
X62797199Y-109504682D01*
X62824100Y-109369444D01*
X62824100Y-109231556D01*
X62797199Y-109096318D01*
X62778221Y-109050500D01*
X63974100Y-109050500D01*
X63974100Y-108879251D01*
X63974098Y-108879235D01*
X63974095Y-108879211D01*
X64473600Y-108879211D01*
X64473600Y-109721788D01*
X64505261Y-109962285D01*
X64568047Y-110196604D01*
X64660779Y-110420478D01*
X64660876Y-110420712D01*
X64782164Y-110630789D01*
X64782166Y-110630792D01*
X64782167Y-110630793D01*
X64929833Y-110823236D01*
X64929839Y-110823243D01*
X65101356Y-110994760D01*
X65101362Y-110994765D01*
X65293811Y-111142436D01*
X65503888Y-111263724D01*
X65728000Y-111356554D01*
X65962311Y-111419338D01*
X66142686Y-111443084D01*
X66202811Y-111451000D01*
X66202812Y-111451000D01*
X66445389Y-111451000D01*
X66493488Y-111444667D01*
X66685889Y-111419338D01*
X66920200Y-111356554D01*
X67144312Y-111263724D01*
X67354389Y-111142436D01*
X67546838Y-110994765D01*
X67718365Y-110823238D01*
X67866036Y-110630789D01*
X67987324Y-110420712D01*
X68080154Y-110196600D01*
X68142938Y-109962289D01*
X68174600Y-109721788D01*
X68174600Y-108879212D01*
X68174600Y-108879211D01*
X86520000Y-108879211D01*
X86520000Y-109721788D01*
X86551661Y-109962285D01*
X86614447Y-110196604D01*
X86707179Y-110420478D01*
X86707276Y-110420712D01*
X86828564Y-110630789D01*
X86828566Y-110630792D01*
X86828567Y-110630793D01*
X86976233Y-110823236D01*
X86976239Y-110823243D01*
X87147756Y-110994760D01*
X87147762Y-110994765D01*
X87340211Y-111142436D01*
X87550288Y-111263724D01*
X87774400Y-111356554D01*
X88008711Y-111419338D01*
X88189086Y-111443084D01*
X88249211Y-111451000D01*
X88249212Y-111451000D01*
X88491789Y-111451000D01*
X88539888Y-111444667D01*
X88732289Y-111419338D01*
X88966600Y-111356554D01*
X89190712Y-111263724D01*
X89400789Y-111142436D01*
X89593238Y-110994765D01*
X89764765Y-110823238D01*
X89912436Y-110630789D01*
X90033724Y-110420712D01*
X90126554Y-110196600D01*
X90189338Y-109962289D01*
X90221000Y-109721788D01*
X90221000Y-108879251D01*
X90720500Y-108879251D01*
X90720500Y-109050500D01*
X91916379Y-109050500D01*
X91897401Y-109096318D01*
X91870500Y-109231556D01*
X91870500Y-109369444D01*
X91897401Y-109504682D01*
X91916379Y-109550500D01*
X90720500Y-109550500D01*
X90720500Y-109721748D01*
X90720501Y-109721764D01*
X90752153Y-109962187D01*
X90814921Y-110196439D01*
X90907720Y-110420478D01*
X90907727Y-110420493D01*
X91028980Y-110630509D01*
X91176610Y-110822905D01*
X91176616Y-110822912D01*
X91348087Y-110994383D01*
X91348094Y-110994389D01*
X91540490Y-111142019D01*
X91750506Y-111263272D01*
X91750521Y-111263279D01*
X91974560Y-111356078D01*
X92208812Y-111418846D01*
X92320500Y-111433549D01*
X92320500Y-109954620D01*
X92366318Y-109973599D01*
X92501556Y-110000500D01*
X92639444Y-110000500D01*
X92774682Y-109973599D01*
X92820500Y-109954620D01*
X92820500Y-111433548D01*
X92932187Y-111418846D01*
X93166439Y-111356078D01*
X93390478Y-111263279D01*
X93390493Y-111263272D01*
X93600509Y-111142019D01*
X93792905Y-110994389D01*
X93792912Y-110994383D01*
X93964383Y-110822912D01*
X93964389Y-110822905D01*
X94112019Y-110630509D01*
X94233272Y-110420493D01*
X94233279Y-110420478D01*
X94326078Y-110196439D01*
X94388846Y-109962187D01*
X94420498Y-109721764D01*
X94420500Y-109721748D01*
X94420500Y-109550500D01*
X93224621Y-109550500D01*
X93243599Y-109504682D01*
X93270500Y-109369444D01*
X93270500Y-109231556D01*
X93243599Y-109096318D01*
X93224621Y-109050500D01*
X94420500Y-109050500D01*
X94420500Y-108879251D01*
X94420498Y-108879235D01*
X94420495Y-108879211D01*
X113308800Y-108879211D01*
X113308800Y-109721788D01*
X113340461Y-109962285D01*
X113403247Y-110196604D01*
X113495979Y-110420478D01*
X113496076Y-110420712D01*
X113617364Y-110630789D01*
X113617366Y-110630792D01*
X113617367Y-110630793D01*
X113765033Y-110823236D01*
X113765039Y-110823243D01*
X113936556Y-110994760D01*
X113936562Y-110994765D01*
X114129011Y-111142436D01*
X114339088Y-111263724D01*
X114563200Y-111356554D01*
X114797511Y-111419338D01*
X114977886Y-111443084D01*
X115038011Y-111451000D01*
X115038012Y-111451000D01*
X115280589Y-111451000D01*
X115328688Y-111444667D01*
X115521089Y-111419338D01*
X115755400Y-111356554D01*
X115979512Y-111263724D01*
X116189589Y-111142436D01*
X116382038Y-110994765D01*
X116553565Y-110823238D01*
X116701236Y-110630789D01*
X116822524Y-110420712D01*
X116915354Y-110196600D01*
X116978138Y-109962289D01*
X117009800Y-109721788D01*
X117009800Y-108879212D01*
X116978138Y-108638711D01*
X116915354Y-108404400D01*
X116822524Y-108180288D01*
X116701236Y-107970211D01*
X116553820Y-107778094D01*
X116553566Y-107777763D01*
X116553560Y-107777756D01*
X116382043Y-107606239D01*
X116382036Y-107606233D01*
X116189593Y-107458567D01*
X116189592Y-107458566D01*
X116189589Y-107458564D01*
X115979512Y-107337276D01*
X115979505Y-107337273D01*
X115755404Y-107244447D01*
X115521085Y-107181661D01*
X115280589Y-107150000D01*
X115280588Y-107150000D01*
X115038012Y-107150000D01*
X115038011Y-107150000D01*
X114797514Y-107181661D01*
X114563195Y-107244447D01*
X114339094Y-107337273D01*
X114339085Y-107337277D01*
X114129006Y-107458567D01*
X113936563Y-107606233D01*
X113936556Y-107606239D01*
X113765039Y-107777756D01*
X113765033Y-107777763D01*
X113617367Y-107970206D01*
X113496077Y-108180285D01*
X113496073Y-108180294D01*
X113403247Y-108404395D01*
X113340461Y-108638714D01*
X113308800Y-108879211D01*
X94420495Y-108879211D01*
X94388846Y-108638812D01*
X94326078Y-108404560D01*
X94233279Y-108180521D01*
X94233272Y-108180506D01*
X94112019Y-107970490D01*
X93964389Y-107778094D01*
X93964383Y-107778087D01*
X93792912Y-107606616D01*
X93792905Y-107606610D01*
X93600509Y-107458980D01*
X93390493Y-107337727D01*
X93390478Y-107337720D01*
X93166439Y-107244921D01*
X92932187Y-107182153D01*
X92820500Y-107167448D01*
X92820500Y-108646379D01*
X92774682Y-108627401D01*
X92639444Y-108600500D01*
X92501556Y-108600500D01*
X92366318Y-108627401D01*
X92320500Y-108646379D01*
X92320500Y-107167448D01*
X92320499Y-107167448D01*
X92208812Y-107182153D01*
X91974560Y-107244921D01*
X91750521Y-107337720D01*
X91750506Y-107337727D01*
X91540490Y-107458980D01*
X91348094Y-107606610D01*
X91348087Y-107606616D01*
X91176616Y-107778087D01*
X91176610Y-107778094D01*
X91028980Y-107970490D01*
X90907727Y-108180506D01*
X90907720Y-108180521D01*
X90814921Y-108404560D01*
X90752153Y-108638812D01*
X90720501Y-108879235D01*
X90720500Y-108879251D01*
X90221000Y-108879251D01*
X90221000Y-108879212D01*
X90189338Y-108638711D01*
X90126554Y-108404400D01*
X90033724Y-108180288D01*
X89912436Y-107970211D01*
X89765020Y-107778094D01*
X89764766Y-107777763D01*
X89764760Y-107777756D01*
X89593243Y-107606239D01*
X89593236Y-107606233D01*
X89400793Y-107458567D01*
X89400792Y-107458566D01*
X89400789Y-107458564D01*
X89190712Y-107337276D01*
X89190705Y-107337273D01*
X88966604Y-107244447D01*
X88732285Y-107181661D01*
X88491789Y-107150000D01*
X88491788Y-107150000D01*
X88249212Y-107150000D01*
X88249211Y-107150000D01*
X88008714Y-107181661D01*
X87774395Y-107244447D01*
X87550294Y-107337273D01*
X87550285Y-107337277D01*
X87340206Y-107458567D01*
X87147763Y-107606233D01*
X87147756Y-107606239D01*
X86976239Y-107777756D01*
X86976233Y-107777763D01*
X86828567Y-107970206D01*
X86707277Y-108180285D01*
X86707273Y-108180294D01*
X86614447Y-108404395D01*
X86551661Y-108638714D01*
X86520000Y-108879211D01*
X68174600Y-108879211D01*
X68142938Y-108638711D01*
X68080154Y-108404400D01*
X67987324Y-108180288D01*
X67866036Y-107970211D01*
X67718620Y-107778094D01*
X67718366Y-107777763D01*
X67718360Y-107777756D01*
X67546843Y-107606239D01*
X67546836Y-107606233D01*
X67354393Y-107458567D01*
X67354392Y-107458566D01*
X67354389Y-107458564D01*
X67144312Y-107337276D01*
X67144305Y-107337273D01*
X66920204Y-107244447D01*
X66685885Y-107181661D01*
X66445389Y-107150000D01*
X66445388Y-107150000D01*
X66202812Y-107150000D01*
X66202811Y-107150000D01*
X65962314Y-107181661D01*
X65727995Y-107244447D01*
X65503894Y-107337273D01*
X65503885Y-107337277D01*
X65293806Y-107458567D01*
X65101363Y-107606233D01*
X65101356Y-107606239D01*
X64929839Y-107777756D01*
X64929833Y-107777763D01*
X64782167Y-107970206D01*
X64660877Y-108180285D01*
X64660873Y-108180294D01*
X64568047Y-108404395D01*
X64505261Y-108638714D01*
X64473600Y-108879211D01*
X63974095Y-108879211D01*
X63942446Y-108638812D01*
X63879678Y-108404560D01*
X63786879Y-108180521D01*
X63786872Y-108180506D01*
X63665619Y-107970490D01*
X63517989Y-107778094D01*
X63517983Y-107778087D01*
X63346512Y-107606616D01*
X63346505Y-107606610D01*
X63154109Y-107458980D01*
X62944093Y-107337727D01*
X62944078Y-107337720D01*
X62720039Y-107244921D01*
X62485787Y-107182153D01*
X62374100Y-107167448D01*
X62374100Y-108646379D01*
X62328282Y-108627401D01*
X62193044Y-108600500D01*
X62055156Y-108600500D01*
X61919918Y-108627401D01*
X61874100Y-108646379D01*
X61874100Y-107167448D01*
X61874099Y-107167448D01*
X61762412Y-107182153D01*
X61528160Y-107244921D01*
X61304121Y-107337720D01*
X61304106Y-107337727D01*
X61094090Y-107458980D01*
X60901694Y-107606610D01*
X60901687Y-107606616D01*
X60730216Y-107778087D01*
X60730210Y-107778094D01*
X60582580Y-107970490D01*
X60461327Y-108180506D01*
X60461320Y-108180521D01*
X60368521Y-108404560D01*
X60305753Y-108638812D01*
X60274101Y-108879235D01*
X60274100Y-108879251D01*
X59774600Y-108879251D01*
X59774600Y-108879212D01*
X59742938Y-108638711D01*
X59680154Y-108404400D01*
X59587324Y-108180288D01*
X59466036Y-107970211D01*
X59318620Y-107778094D01*
X59318366Y-107777763D01*
X59318360Y-107777756D01*
X59146843Y-107606239D01*
X59146836Y-107606233D01*
X58954393Y-107458567D01*
X58954392Y-107458566D01*
X58954389Y-107458564D01*
X58744312Y-107337276D01*
X58744305Y-107337273D01*
X58520204Y-107244447D01*
X58285885Y-107181661D01*
X58045389Y-107150000D01*
X58045388Y-107150000D01*
X57802812Y-107150000D01*
X57802811Y-107150000D01*
X57562314Y-107181661D01*
X57327995Y-107244447D01*
X57103894Y-107337273D01*
X57103885Y-107337277D01*
X56893806Y-107458567D01*
X56701363Y-107606233D01*
X56701356Y-107606239D01*
X56529839Y-107777756D01*
X56529833Y-107777763D01*
X56382167Y-107970206D01*
X56260877Y-108180285D01*
X56260873Y-108180294D01*
X56168047Y-108404395D01*
X56105261Y-108638714D01*
X56073600Y-108879211D01*
X50424379Y-108879211D01*
X50491057Y-108727200D01*
X50548034Y-108502205D01*
X50548035Y-108502197D01*
X50567200Y-108270906D01*
X50567200Y-108270893D01*
X50548035Y-108039602D01*
X50548033Y-108039591D01*
X50491057Y-107814599D01*
X50397824Y-107602051D01*
X50270883Y-107407752D01*
X50270880Y-107407749D01*
X50270879Y-107407747D01*
X50113684Y-107236987D01*
X50113679Y-107236983D01*
X50113677Y-107236981D01*
X49930534Y-107094435D01*
X49930528Y-107094431D01*
X49726404Y-106983964D01*
X49726395Y-106983961D01*
X49506884Y-106908602D01*
X49335182Y-106879950D01*
X49277949Y-106870400D01*
X49045851Y-106870400D01*
X49000064Y-106878040D01*
X48816915Y-106908602D01*
X48597404Y-106983961D01*
X48597395Y-106983964D01*
X48393271Y-107094431D01*
X48393265Y-107094435D01*
X48210122Y-107236981D01*
X48210119Y-107236984D01*
X48052916Y-107407752D01*
X47925975Y-107602051D01*
X47832742Y-107814599D01*
X47775766Y-108039591D01*
X47775764Y-108039602D01*
X47756600Y-108270893D01*
X44772700Y-108270893D01*
X44772700Y-102350484D01*
X56073600Y-102350484D01*
X56073600Y-105250515D01*
X56084100Y-105353295D01*
X56084101Y-105353296D01*
X56139286Y-105519835D01*
X56139287Y-105519837D01*
X56231386Y-105669151D01*
X56231389Y-105669155D01*
X56355444Y-105793210D01*
X56355448Y-105793213D01*
X56504762Y-105885312D01*
X56504764Y-105885313D01*
X56504766Y-105885314D01*
X56671303Y-105940499D01*
X56774092Y-105951000D01*
X56774097Y-105951000D01*
X59074103Y-105951000D01*
X59074108Y-105951000D01*
X59176897Y-105940499D01*
X59343434Y-105885314D01*
X59492755Y-105793211D01*
X59616811Y-105669155D01*
X59708914Y-105519834D01*
X59764099Y-105353297D01*
X59774600Y-105250508D01*
X59774600Y-103379251D01*
X60274100Y-103379251D01*
X60274100Y-103550500D01*
X61469979Y-103550500D01*
X61451001Y-103596318D01*
X61424100Y-103731556D01*
X61424100Y-103869444D01*
X61451001Y-104004682D01*
X61469979Y-104050500D01*
X60274100Y-104050500D01*
X60274100Y-104221748D01*
X60274101Y-104221764D01*
X60305753Y-104462187D01*
X60368521Y-104696439D01*
X60461320Y-104920478D01*
X60461327Y-104920493D01*
X60582580Y-105130509D01*
X60730210Y-105322905D01*
X60730216Y-105322912D01*
X60901687Y-105494383D01*
X60901694Y-105494389D01*
X61094090Y-105642019D01*
X61304106Y-105763272D01*
X61304121Y-105763279D01*
X61528160Y-105856078D01*
X61762412Y-105918846D01*
X61874100Y-105933549D01*
X61874100Y-104454620D01*
X61919918Y-104473599D01*
X62055156Y-104500500D01*
X62193044Y-104500500D01*
X62328282Y-104473599D01*
X62374100Y-104454620D01*
X62374100Y-105933548D01*
X62485787Y-105918846D01*
X62720039Y-105856078D01*
X62944078Y-105763279D01*
X62944093Y-105763272D01*
X63154109Y-105642019D01*
X63346505Y-105494389D01*
X63346512Y-105494383D01*
X63517983Y-105322912D01*
X63517989Y-105322905D01*
X63665619Y-105130509D01*
X63786872Y-104920493D01*
X63786879Y-104920478D01*
X63879678Y-104696439D01*
X63942446Y-104462187D01*
X63974098Y-104221764D01*
X63974100Y-104221748D01*
X63974100Y-104050500D01*
X62778221Y-104050500D01*
X62797199Y-104004682D01*
X62824100Y-103869444D01*
X62824100Y-103731556D01*
X62797199Y-103596318D01*
X62778221Y-103550500D01*
X63974100Y-103550500D01*
X63974100Y-103379251D01*
X63974098Y-103379235D01*
X63974095Y-103379211D01*
X64473600Y-103379211D01*
X64473600Y-104221788D01*
X64505261Y-104462285D01*
X64568047Y-104696604D01*
X64579924Y-104725277D01*
X64660876Y-104920712D01*
X64782164Y-105130789D01*
X64782166Y-105130792D01*
X64782167Y-105130793D01*
X64929833Y-105323236D01*
X64929839Y-105323243D01*
X65101356Y-105494760D01*
X65101363Y-105494766D01*
X65214421Y-105581518D01*
X65293811Y-105642436D01*
X65503888Y-105763724D01*
X65728000Y-105856554D01*
X65962311Y-105919338D01*
X66119303Y-105940006D01*
X66202811Y-105951000D01*
X66202812Y-105951000D01*
X66445389Y-105951000D01*
X66525152Y-105940499D01*
X66685889Y-105919338D01*
X66920200Y-105856554D01*
X67144312Y-105763724D01*
X67354389Y-105642436D01*
X67546838Y-105494765D01*
X67718365Y-105323238D01*
X67866036Y-105130789D01*
X67987324Y-104920712D01*
X68016117Y-104851199D01*
X72456522Y-104851199D01*
X72456522Y-104851200D01*
X72476819Y-105238487D01*
X72537486Y-105621523D01*
X72537487Y-105621530D01*
X72637862Y-105996136D01*
X72776844Y-106358194D01*
X72952910Y-106703743D01*
X73164123Y-107028983D01*
X73164125Y-107028985D01*
X73372696Y-107286548D01*
X74867347Y-105791897D01*
X74941188Y-105893530D01*
X75119270Y-106071612D01*
X75220901Y-106145451D01*
X73726250Y-107640102D01*
X73983814Y-107848675D01*
X73983816Y-107848676D01*
X74309056Y-108059889D01*
X74654605Y-108235955D01*
X75016663Y-108374937D01*
X75391269Y-108475312D01*
X75391276Y-108475313D01*
X75774312Y-108535980D01*
X76161599Y-108556278D01*
X76161601Y-108556278D01*
X76548887Y-108535980D01*
X76931923Y-108475313D01*
X76931930Y-108475312D01*
X77306536Y-108374937D01*
X77668594Y-108235955D01*
X78014143Y-108059889D01*
X78339371Y-107848684D01*
X78339384Y-107848674D01*
X78596948Y-107640102D01*
X77102298Y-106145452D01*
X77203930Y-106071612D01*
X77382012Y-105893530D01*
X77455852Y-105791898D01*
X78950502Y-107286548D01*
X79159074Y-107028984D01*
X79159084Y-107028971D01*
X79370289Y-106703743D01*
X79546355Y-106358194D01*
X79685337Y-105996136D01*
X79785712Y-105621530D01*
X79785713Y-105621523D01*
X79846380Y-105238487D01*
X79866678Y-104851200D01*
X79866678Y-104851199D01*
X79846380Y-104463912D01*
X79785713Y-104080876D01*
X79785712Y-104080869D01*
X79685337Y-103706263D01*
X79546355Y-103344205D01*
X79370289Y-102998656D01*
X79159076Y-102673416D01*
X79159075Y-102673414D01*
X78950502Y-102415850D01*
X77455851Y-103910501D01*
X77382012Y-103808870D01*
X77203930Y-103630788D01*
X77102297Y-103556947D01*
X78308760Y-102350484D01*
X86520000Y-102350484D01*
X86520000Y-105250515D01*
X86530500Y-105353295D01*
X86530501Y-105353296D01*
X86585686Y-105519835D01*
X86585687Y-105519837D01*
X86677786Y-105669151D01*
X86677789Y-105669155D01*
X86801844Y-105793210D01*
X86801848Y-105793213D01*
X86951162Y-105885312D01*
X86951164Y-105885313D01*
X86951166Y-105885314D01*
X87117703Y-105940499D01*
X87220492Y-105951000D01*
X87220497Y-105951000D01*
X89520503Y-105951000D01*
X89520508Y-105951000D01*
X89623297Y-105940499D01*
X89789834Y-105885314D01*
X89939155Y-105793211D01*
X90063211Y-105669155D01*
X90155314Y-105519834D01*
X90210499Y-105353297D01*
X90221000Y-105250508D01*
X90221000Y-103379251D01*
X90720500Y-103379251D01*
X90720500Y-103550500D01*
X91916379Y-103550500D01*
X91897401Y-103596318D01*
X91870500Y-103731556D01*
X91870500Y-103869444D01*
X91897401Y-104004682D01*
X91916379Y-104050500D01*
X90720500Y-104050500D01*
X90720500Y-104221748D01*
X90720501Y-104221764D01*
X90752153Y-104462187D01*
X90814921Y-104696439D01*
X90907720Y-104920478D01*
X90907727Y-104920493D01*
X91028980Y-105130509D01*
X91176610Y-105322905D01*
X91176616Y-105322912D01*
X91348087Y-105494383D01*
X91348094Y-105494389D01*
X91540490Y-105642019D01*
X91750506Y-105763272D01*
X91750521Y-105763279D01*
X91974560Y-105856078D01*
X92208812Y-105918846D01*
X92320500Y-105933549D01*
X92320500Y-104454620D01*
X92366318Y-104473599D01*
X92501556Y-104500500D01*
X92639444Y-104500500D01*
X92774682Y-104473599D01*
X92820500Y-104454620D01*
X92820500Y-105933548D01*
X92932187Y-105918846D01*
X93166439Y-105856078D01*
X93390478Y-105763279D01*
X93390493Y-105763272D01*
X93600509Y-105642019D01*
X93792905Y-105494389D01*
X93792912Y-105494383D01*
X93964383Y-105322912D01*
X93964389Y-105322905D01*
X94112019Y-105130509D01*
X94233272Y-104920493D01*
X94233279Y-104920478D01*
X94326078Y-104696439D01*
X94332252Y-104673399D01*
X101222322Y-104673399D01*
X101222322Y-104673400D01*
X101242619Y-105060687D01*
X101303286Y-105443723D01*
X101303287Y-105443730D01*
X101403662Y-105818336D01*
X101542644Y-106180394D01*
X101718710Y-106525943D01*
X101929923Y-106851183D01*
X101929925Y-106851185D01*
X102138496Y-107108748D01*
X103633147Y-105614097D01*
X103706988Y-105715730D01*
X103885070Y-105893812D01*
X103986701Y-105967651D01*
X102492050Y-107462302D01*
X102749614Y-107670875D01*
X102749616Y-107670876D01*
X103074856Y-107882089D01*
X103420405Y-108058155D01*
X103782463Y-108197137D01*
X104157069Y-108297512D01*
X104157076Y-108297513D01*
X104540112Y-108358180D01*
X104927399Y-108378478D01*
X104927401Y-108378478D01*
X105314687Y-108358180D01*
X105697723Y-108297513D01*
X105697730Y-108297512D01*
X106072336Y-108197137D01*
X106434394Y-108058155D01*
X106779943Y-107882089D01*
X107105171Y-107670884D01*
X107105184Y-107670874D01*
X107362748Y-107462302D01*
X105868098Y-105967652D01*
X105969730Y-105893812D01*
X106147812Y-105715730D01*
X106221652Y-105614098D01*
X107716302Y-107108748D01*
X107924874Y-106851184D01*
X107924884Y-106851171D01*
X108136089Y-106525943D01*
X108312155Y-106180394D01*
X108451137Y-105818336D01*
X108551512Y-105443730D01*
X108551513Y-105443723D01*
X108612180Y-105060687D01*
X108632478Y-104673400D01*
X108632478Y-104673399D01*
X108612180Y-104286112D01*
X108551513Y-103903076D01*
X108551512Y-103903069D01*
X108451137Y-103528463D01*
X108312155Y-103166405D01*
X108136089Y-102820856D01*
X107924876Y-102495616D01*
X107924875Y-102495614D01*
X107807374Y-102350514D01*
X113309300Y-102350514D01*
X113309300Y-103550500D01*
X114505179Y-103550500D01*
X114486201Y-103596318D01*
X114459300Y-103731556D01*
X114459300Y-103869444D01*
X114486201Y-104004682D01*
X114505179Y-104050500D01*
X113309300Y-104050500D01*
X113309300Y-105250485D01*
X113319793Y-105353189D01*
X113319794Y-105353196D01*
X113374941Y-105519618D01*
X113374943Y-105519623D01*
X113466984Y-105668844D01*
X113590955Y-105792815D01*
X113740176Y-105884856D01*
X113740181Y-105884858D01*
X113906603Y-105940005D01*
X113906610Y-105940006D01*
X114009314Y-105950499D01*
X114009327Y-105950500D01*
X114909300Y-105950500D01*
X114909300Y-104454620D01*
X114955118Y-104473599D01*
X115090356Y-104500500D01*
X115228244Y-104500500D01*
X115363482Y-104473599D01*
X115409300Y-104454620D01*
X115409300Y-105950500D01*
X116309273Y-105950500D01*
X116309285Y-105950499D01*
X116411989Y-105940006D01*
X116411996Y-105940005D01*
X116578418Y-105884858D01*
X116578423Y-105884856D01*
X116727644Y-105792815D01*
X116851615Y-105668844D01*
X116943656Y-105519623D01*
X116943658Y-105519618D01*
X116998805Y-105353196D01*
X116998806Y-105353189D01*
X117009299Y-105250485D01*
X117009300Y-105250472D01*
X117009300Y-104050500D01*
X115813421Y-104050500D01*
X115832399Y-104004682D01*
X115859300Y-103869444D01*
X115859300Y-103731556D01*
X115832399Y-103596318D01*
X115813421Y-103550500D01*
X117009300Y-103550500D01*
X117009300Y-102350527D01*
X117009299Y-102350514D01*
X116998806Y-102247810D01*
X116998805Y-102247803D01*
X116943658Y-102081381D01*
X116943656Y-102081376D01*
X116851615Y-101932155D01*
X116727644Y-101808184D01*
X116578423Y-101716143D01*
X116578418Y-101716141D01*
X116411996Y-101660994D01*
X116411989Y-101660993D01*
X116309285Y-101650500D01*
X115409300Y-101650500D01*
X115409300Y-103146379D01*
X115363482Y-103127401D01*
X115228244Y-103100500D01*
X115090356Y-103100500D01*
X114955118Y-103127401D01*
X114909300Y-103146379D01*
X114909300Y-101650500D01*
X114009314Y-101650500D01*
X113906610Y-101660993D01*
X113906603Y-101660994D01*
X113740181Y-101716141D01*
X113740176Y-101716143D01*
X113590955Y-101808184D01*
X113466984Y-101932155D01*
X113374943Y-102081376D01*
X113374941Y-102081381D01*
X113319794Y-102247803D01*
X113319793Y-102247810D01*
X113309300Y-102350514D01*
X107807374Y-102350514D01*
X107716302Y-102238050D01*
X106221651Y-103732701D01*
X106147812Y-103631070D01*
X105969730Y-103452988D01*
X105868098Y-103379148D01*
X107362749Y-101884496D01*
X107105185Y-101675925D01*
X107105183Y-101675923D01*
X106779943Y-101464710D01*
X106434394Y-101288644D01*
X106072336Y-101149662D01*
X105697730Y-101049287D01*
X105697723Y-101049286D01*
X105314687Y-100988619D01*
X104927401Y-100968322D01*
X104927399Y-100968322D01*
X104540112Y-100988619D01*
X104157076Y-101049286D01*
X104157069Y-101049287D01*
X103782463Y-101149662D01*
X103420405Y-101288644D01*
X103074856Y-101464710D01*
X102749606Y-101675931D01*
X102492049Y-101884495D01*
X102492049Y-101884496D01*
X103986701Y-103379148D01*
X103885070Y-103452988D01*
X103706988Y-103631070D01*
X103633148Y-103732701D01*
X102138496Y-102238049D01*
X102138495Y-102238049D01*
X101929931Y-102495606D01*
X101718710Y-102820856D01*
X101542644Y-103166405D01*
X101403662Y-103528463D01*
X101303287Y-103903069D01*
X101303286Y-103903076D01*
X101242619Y-104286112D01*
X101222322Y-104673399D01*
X94332252Y-104673399D01*
X94388846Y-104462187D01*
X94420498Y-104221764D01*
X94420500Y-104221748D01*
X94420500Y-104050500D01*
X93224621Y-104050500D01*
X93243599Y-104004682D01*
X93270500Y-103869444D01*
X93270500Y-103731556D01*
X93243599Y-103596318D01*
X93224621Y-103550500D01*
X94420500Y-103550500D01*
X94420500Y-103379251D01*
X94420498Y-103379235D01*
X94388846Y-103138812D01*
X94326078Y-102904560D01*
X94233279Y-102680521D01*
X94233272Y-102680506D01*
X94112019Y-102470490D01*
X93964389Y-102278094D01*
X93964383Y-102278087D01*
X93792912Y-102106616D01*
X93792905Y-102106610D01*
X93600509Y-101958980D01*
X93390493Y-101837727D01*
X93390478Y-101837720D01*
X93166439Y-101744921D01*
X92932187Y-101682153D01*
X92820500Y-101667448D01*
X92820500Y-103146379D01*
X92774682Y-103127401D01*
X92639444Y-103100500D01*
X92501556Y-103100500D01*
X92366318Y-103127401D01*
X92320500Y-103146379D01*
X92320500Y-101667448D01*
X92320499Y-101667448D01*
X92208812Y-101682153D01*
X91974560Y-101744921D01*
X91750521Y-101837720D01*
X91750506Y-101837727D01*
X91540490Y-101958980D01*
X91348094Y-102106610D01*
X91348087Y-102106616D01*
X91176616Y-102278087D01*
X91176610Y-102278094D01*
X91028980Y-102470490D01*
X90907727Y-102680506D01*
X90907720Y-102680521D01*
X90814921Y-102904560D01*
X90752153Y-103138812D01*
X90720501Y-103379235D01*
X90720500Y-103379251D01*
X90221000Y-103379251D01*
X90221000Y-102350492D01*
X90210499Y-102247703D01*
X90155314Y-102081166D01*
X90143674Y-102062295D01*
X90063213Y-101931848D01*
X90063210Y-101931844D01*
X89939155Y-101807789D01*
X89939151Y-101807786D01*
X89789837Y-101715687D01*
X89789835Y-101715686D01*
X89688638Y-101682153D01*
X89623297Y-101660501D01*
X89623295Y-101660500D01*
X89520515Y-101650000D01*
X89520508Y-101650000D01*
X87220492Y-101650000D01*
X87220484Y-101650000D01*
X87117704Y-101660500D01*
X87117703Y-101660501D01*
X86951164Y-101715686D01*
X86951162Y-101715687D01*
X86801848Y-101807786D01*
X86801844Y-101807789D01*
X86677789Y-101931844D01*
X86677786Y-101931848D01*
X86585687Y-102081162D01*
X86585686Y-102081164D01*
X86530501Y-102247703D01*
X86530500Y-102247704D01*
X86520000Y-102350484D01*
X78308760Y-102350484D01*
X78596948Y-102062296D01*
X78339385Y-101853725D01*
X78339383Y-101853723D01*
X78014143Y-101642510D01*
X77668594Y-101466444D01*
X77306536Y-101327462D01*
X76931930Y-101227087D01*
X76931923Y-101227086D01*
X76548887Y-101166419D01*
X76161601Y-101146122D01*
X76161599Y-101146122D01*
X75774312Y-101166419D01*
X75391276Y-101227086D01*
X75391269Y-101227087D01*
X75016663Y-101327462D01*
X74654605Y-101466444D01*
X74309056Y-101642510D01*
X73983806Y-101853731D01*
X73726249Y-102062295D01*
X73726249Y-102062296D01*
X75220901Y-103556948D01*
X75119270Y-103630788D01*
X74941188Y-103808870D01*
X74867348Y-103910501D01*
X73372696Y-102415849D01*
X73372695Y-102415849D01*
X73164131Y-102673406D01*
X72952910Y-102998656D01*
X72776844Y-103344205D01*
X72637862Y-103706263D01*
X72537487Y-104080869D01*
X72537486Y-104080876D01*
X72476819Y-104463912D01*
X72456522Y-104851199D01*
X68016117Y-104851199D01*
X68080154Y-104696600D01*
X68142938Y-104462289D01*
X68174600Y-104221788D01*
X68174600Y-103379212D01*
X68142938Y-103138711D01*
X68080154Y-102904400D01*
X67987324Y-102680288D01*
X67866036Y-102470211D01*
X67805118Y-102390821D01*
X67718366Y-102277763D01*
X67718360Y-102277756D01*
X67546843Y-102106239D01*
X67546836Y-102106233D01*
X67354393Y-101958567D01*
X67354392Y-101958566D01*
X67354389Y-101958564D01*
X67144312Y-101837276D01*
X67074078Y-101808184D01*
X66920204Y-101744447D01*
X66685885Y-101681661D01*
X66445389Y-101650000D01*
X66445388Y-101650000D01*
X66202812Y-101650000D01*
X66202811Y-101650000D01*
X65962314Y-101681661D01*
X65727995Y-101744447D01*
X65503894Y-101837273D01*
X65503885Y-101837277D01*
X65293806Y-101958567D01*
X65101363Y-102106233D01*
X65101356Y-102106239D01*
X64929839Y-102277756D01*
X64929833Y-102277763D01*
X64782167Y-102470206D01*
X64660877Y-102680285D01*
X64660873Y-102680294D01*
X64568047Y-102904395D01*
X64505261Y-103138714D01*
X64473600Y-103379211D01*
X63974095Y-103379211D01*
X63942446Y-103138812D01*
X63879678Y-102904560D01*
X63786879Y-102680521D01*
X63786872Y-102680506D01*
X63665619Y-102470490D01*
X63517989Y-102278094D01*
X63517983Y-102278087D01*
X63346512Y-102106616D01*
X63346505Y-102106610D01*
X63154109Y-101958980D01*
X62944093Y-101837727D01*
X62944078Y-101837720D01*
X62720039Y-101744921D01*
X62485787Y-101682153D01*
X62374100Y-101667448D01*
X62374100Y-103146379D01*
X62328282Y-103127401D01*
X62193044Y-103100500D01*
X62055156Y-103100500D01*
X61919918Y-103127401D01*
X61874100Y-103146379D01*
X61874100Y-101667448D01*
X61874099Y-101667448D01*
X61762412Y-101682153D01*
X61528160Y-101744921D01*
X61304121Y-101837720D01*
X61304106Y-101837727D01*
X61094090Y-101958980D01*
X60901694Y-102106610D01*
X60901687Y-102106616D01*
X60730216Y-102278087D01*
X60730210Y-102278094D01*
X60582580Y-102470490D01*
X60461327Y-102680506D01*
X60461320Y-102680521D01*
X60368521Y-102904560D01*
X60305753Y-103138812D01*
X60274101Y-103379235D01*
X60274100Y-103379251D01*
X59774600Y-103379251D01*
X59774600Y-102350492D01*
X59764099Y-102247703D01*
X59708914Y-102081166D01*
X59697274Y-102062295D01*
X59616813Y-101931848D01*
X59616810Y-101931844D01*
X59492755Y-101807789D01*
X59492751Y-101807786D01*
X59343437Y-101715687D01*
X59343435Y-101715686D01*
X59242238Y-101682153D01*
X59176897Y-101660501D01*
X59176895Y-101660500D01*
X59074115Y-101650000D01*
X59074108Y-101650000D01*
X56774092Y-101650000D01*
X56774084Y-101650000D01*
X56671304Y-101660500D01*
X56671303Y-101660501D01*
X56504764Y-101715686D01*
X56504762Y-101715687D01*
X56355448Y-101807786D01*
X56355444Y-101807789D01*
X56231389Y-101931844D01*
X56231386Y-101931848D01*
X56139287Y-102081162D01*
X56139286Y-102081164D01*
X56084101Y-102247703D01*
X56084100Y-102247704D01*
X56073600Y-102350484D01*
X44772700Y-102350484D01*
X44772700Y-97772235D01*
X47685700Y-97772235D01*
X47685700Y-99567970D01*
X47685701Y-99567976D01*
X47692108Y-99627583D01*
X47742402Y-99762428D01*
X47742406Y-99762435D01*
X47828652Y-99877644D01*
X47828655Y-99877647D01*
X47943864Y-99963893D01*
X47943871Y-99963897D01*
X48078717Y-100014191D01*
X48078716Y-100014191D01*
X48085644Y-100014935D01*
X48138327Y-100020600D01*
X49934072Y-100020599D01*
X49993683Y-100014191D01*
X50128531Y-99963896D01*
X50243746Y-99877646D01*
X50329996Y-99762431D01*
X50380291Y-99627583D01*
X50386700Y-99567973D01*
X50386699Y-97772255D01*
X60665600Y-97772255D01*
X60665600Y-98420100D01*
X61582588Y-98420100D01*
X61549675Y-98477107D01*
X61515600Y-98604274D01*
X61515600Y-98735926D01*
X61549675Y-98863093D01*
X61582588Y-98920100D01*
X60665600Y-98920100D01*
X60665600Y-99567944D01*
X60672001Y-99627472D01*
X60672003Y-99627479D01*
X60722245Y-99762186D01*
X60722249Y-99762193D01*
X60808409Y-99877287D01*
X60808412Y-99877290D01*
X60923506Y-99963450D01*
X60923513Y-99963454D01*
X61058220Y-100013696D01*
X61058227Y-100013698D01*
X61117755Y-100020099D01*
X61117772Y-100020100D01*
X61765600Y-100020100D01*
X61765600Y-99103112D01*
X61822607Y-99136025D01*
X61949774Y-99170100D01*
X62081426Y-99170100D01*
X62208593Y-99136025D01*
X62265600Y-99103112D01*
X62265600Y-100020100D01*
X62913428Y-100020100D01*
X62913444Y-100020099D01*
X62972972Y-100013698D01*
X62972979Y-100013696D01*
X63107686Y-99963454D01*
X63107693Y-99963450D01*
X63222787Y-99877290D01*
X63222790Y-99877287D01*
X63308950Y-99762193D01*
X63308954Y-99762186D01*
X63359196Y-99627479D01*
X63359198Y-99627472D01*
X63365599Y-99567944D01*
X63365600Y-99567927D01*
X63365600Y-98920100D01*
X62448612Y-98920100D01*
X62481525Y-98863093D01*
X62515600Y-98735926D01*
X62515600Y-98604274D01*
X62481525Y-98477107D01*
X62448612Y-98420100D01*
X63365600Y-98420100D01*
X63365600Y-97772272D01*
X63365599Y-97772255D01*
X63365597Y-97772235D01*
X73644500Y-97772235D01*
X73644500Y-99567970D01*
X73644501Y-99567976D01*
X73650908Y-99627583D01*
X73701202Y-99762428D01*
X73701206Y-99762435D01*
X73787452Y-99877644D01*
X73787455Y-99877647D01*
X73902664Y-99963893D01*
X73902671Y-99963897D01*
X74037517Y-100014191D01*
X74037516Y-100014191D01*
X74044444Y-100014935D01*
X74097127Y-100020600D01*
X75892872Y-100020599D01*
X75952483Y-100014191D01*
X76087331Y-99963896D01*
X76202546Y-99877646D01*
X76288796Y-99762431D01*
X76339091Y-99627583D01*
X76345500Y-99567973D01*
X76345499Y-97772228D01*
X76339091Y-97712617D01*
X76288884Y-97578006D01*
X76288797Y-97577771D01*
X76288793Y-97577764D01*
X76202547Y-97462555D01*
X76202544Y-97462552D01*
X76087335Y-97376306D01*
X76087328Y-97376302D01*
X75952482Y-97326008D01*
X75952483Y-97326008D01*
X75892883Y-97319601D01*
X75892881Y-97319600D01*
X75892873Y-97319600D01*
X75892864Y-97319600D01*
X74097129Y-97319600D01*
X74097123Y-97319601D01*
X74037516Y-97326008D01*
X73902671Y-97376302D01*
X73902664Y-97376306D01*
X73787455Y-97462552D01*
X73787452Y-97462555D01*
X73701206Y-97577764D01*
X73701202Y-97577771D01*
X73650908Y-97712617D01*
X73644501Y-97772216D01*
X73644501Y-97772223D01*
X73644500Y-97772235D01*
X63365597Y-97772235D01*
X63359198Y-97712727D01*
X63359196Y-97712720D01*
X63308954Y-97578013D01*
X63308950Y-97578006D01*
X63222790Y-97462912D01*
X63222787Y-97462909D01*
X63107693Y-97376749D01*
X63107686Y-97376745D01*
X62972979Y-97326503D01*
X62972972Y-97326501D01*
X62913444Y-97320100D01*
X62265600Y-97320100D01*
X62265600Y-98237088D01*
X62208593Y-98204175D01*
X62081426Y-98170100D01*
X61949774Y-98170100D01*
X61822607Y-98204175D01*
X61765600Y-98237088D01*
X61765600Y-97320100D01*
X61117755Y-97320100D01*
X61058227Y-97326501D01*
X61058220Y-97326503D01*
X60923513Y-97376745D01*
X60923506Y-97376749D01*
X60808412Y-97462909D01*
X60808409Y-97462912D01*
X60722249Y-97578006D01*
X60722245Y-97578013D01*
X60672003Y-97712720D01*
X60672001Y-97712727D01*
X60665600Y-97772255D01*
X50386699Y-97772255D01*
X50386699Y-97772228D01*
X50380291Y-97712617D01*
X50330084Y-97578006D01*
X50329997Y-97577771D01*
X50329993Y-97577764D01*
X50243747Y-97462555D01*
X50243744Y-97462552D01*
X50128535Y-97376306D01*
X50128528Y-97376302D01*
X49993682Y-97326008D01*
X49993683Y-97326008D01*
X49934083Y-97319601D01*
X49934081Y-97319600D01*
X49934073Y-97319600D01*
X49934064Y-97319600D01*
X48138329Y-97319600D01*
X48138323Y-97319601D01*
X48078716Y-97326008D01*
X47943871Y-97376302D01*
X47943864Y-97376306D01*
X47828655Y-97462552D01*
X47828652Y-97462555D01*
X47742406Y-97577764D01*
X47742402Y-97577771D01*
X47692108Y-97712617D01*
X47685701Y-97772216D01*
X47685701Y-97772223D01*
X47685700Y-97772235D01*
X44772700Y-97772235D01*
X44772700Y-93691297D01*
X81178734Y-93691297D01*
X81178734Y-93691302D01*
X81198558Y-93917899D01*
X81198560Y-93917910D01*
X81257430Y-94137617D01*
X81257435Y-94137631D01*
X81353563Y-94343778D01*
X81404674Y-94416772D01*
X82083700Y-93737746D01*
X82083700Y-93743961D01*
X82110959Y-93845694D01*
X82163620Y-93936906D01*
X82238094Y-94011380D01*
X82329306Y-94064041D01*
X82431039Y-94091300D01*
X82437253Y-94091300D01*
X81758226Y-94770325D01*
X81831213Y-94821432D01*
X81831221Y-94821436D01*
X82037368Y-94917564D01*
X82037382Y-94917569D01*
X82257089Y-94976439D01*
X82257100Y-94976441D01*
X82483698Y-94996266D01*
X82483702Y-94996266D01*
X82710299Y-94976441D01*
X82710310Y-94976439D01*
X82930017Y-94917569D01*
X82930031Y-94917564D01*
X83136178Y-94821436D01*
X83209171Y-94770324D01*
X82530147Y-94091300D01*
X82536361Y-94091300D01*
X82638094Y-94064041D01*
X82729306Y-94011380D01*
X82803780Y-93936906D01*
X82856441Y-93845694D01*
X82883700Y-93743961D01*
X82883700Y-93737747D01*
X83562724Y-94416771D01*
X83613836Y-94343778D01*
X83709964Y-94137631D01*
X83709969Y-94137617D01*
X83768839Y-93917910D01*
X83768841Y-93917899D01*
X83788666Y-93691302D01*
X83788666Y-93691298D01*
X98326232Y-93691298D01*
X98326232Y-93691301D01*
X98346064Y-93917986D01*
X98346066Y-93917997D01*
X98404958Y-94137788D01*
X98404961Y-94137797D01*
X98501131Y-94344032D01*
X98501132Y-94344034D01*
X98631654Y-94530441D01*
X98792558Y-94691345D01*
X98792561Y-94691347D01*
X98978966Y-94821868D01*
X99185204Y-94918039D01*
X99405008Y-94976935D01*
X99566930Y-94991101D01*
X99631698Y-94996768D01*
X99631700Y-94996768D01*
X99631702Y-94996768D01*
X99688373Y-94991809D01*
X99858392Y-94976935D01*
X100078196Y-94918039D01*
X100284434Y-94821868D01*
X100470839Y-94691347D01*
X100485441Y-94676745D01*
X102123937Y-94676745D01*
X102123937Y-94676754D01*
X102143760Y-94941285D01*
X102143761Y-94941290D01*
X102202790Y-95199916D01*
X102202796Y-95199935D01*
X102299714Y-95446878D01*
X102299713Y-95446878D01*
X102432356Y-95676621D01*
X102482541Y-95739553D01*
X103415937Y-94806158D01*
X103432975Y-94869743D01*
X103498801Y-94983757D01*
X103591893Y-95076849D01*
X103705907Y-95142675D01*
X103769491Y-95159712D01*
X102835338Y-96093863D01*
X103011418Y-96213912D01*
X103011426Y-96213917D01*
X103250430Y-96329014D01*
X103250428Y-96329014D01*
X103503925Y-96407208D01*
X103503931Y-96407209D01*
X103766251Y-96446749D01*
X103766258Y-96446750D01*
X104031542Y-96446750D01*
X104031548Y-96446749D01*
X104293868Y-96407209D01*
X104293874Y-96407208D01*
X104547370Y-96329014D01*
X104786374Y-96213917D01*
X104786384Y-96213910D01*
X104962460Y-96093863D01*
X104028308Y-95159712D01*
X104091893Y-95142675D01*
X104205907Y-95076849D01*
X104298999Y-94983757D01*
X104364825Y-94869743D01*
X104381862Y-94806158D01*
X105315257Y-95739553D01*
X105365442Y-95676621D01*
X105498085Y-95446878D01*
X105595003Y-95199935D01*
X105595009Y-95199916D01*
X105654038Y-94941290D01*
X105654039Y-94941285D01*
X105673863Y-94676754D01*
X105673863Y-94676745D01*
X119903435Y-94676745D01*
X119903435Y-94676754D01*
X119923263Y-94941359D01*
X119923264Y-94941364D01*
X119982310Y-95200063D01*
X119982312Y-95200072D01*
X119982314Y-95200077D01*
X120079261Y-95447095D01*
X120211942Y-95676905D01*
X120377392Y-95884373D01*
X120571916Y-96064864D01*
X120791168Y-96214348D01*
X121030250Y-96329484D01*
X121283822Y-96407700D01*
X121283823Y-96407700D01*
X121283826Y-96407701D01*
X121546211Y-96447249D01*
X121546216Y-96447249D01*
X121546219Y-96447250D01*
X121546220Y-96447250D01*
X121811580Y-96447250D01*
X121811581Y-96447250D01*
X121811588Y-96447249D01*
X122073973Y-96407701D01*
X122073974Y-96407700D01*
X122073978Y-96407700D01*
X122327550Y-96329484D01*
X122566633Y-96214348D01*
X122785884Y-96064864D01*
X122980408Y-95884373D01*
X123145858Y-95676905D01*
X123278539Y-95447095D01*
X123375486Y-95200077D01*
X123434535Y-94941369D01*
X123434541Y-94941290D01*
X123454365Y-94676754D01*
X123454365Y-94676745D01*
X123434536Y-94412140D01*
X123434535Y-94412135D01*
X123434535Y-94412131D01*
X123375486Y-94153423D01*
X123278539Y-93906405D01*
X123145858Y-93676595D01*
X122980408Y-93469127D01*
X122785884Y-93288636D01*
X122743346Y-93259634D01*
X122566636Y-93139154D01*
X122566625Y-93139147D01*
X122327555Y-93024018D01*
X122327536Y-93024011D01*
X122073983Y-92945801D01*
X122073973Y-92945798D01*
X121811588Y-92906250D01*
X121811581Y-92906250D01*
X121546219Y-92906250D01*
X121546211Y-92906250D01*
X121283826Y-92945798D01*
X121283816Y-92945801D01*
X121030263Y-93024011D01*
X121030244Y-93024018D01*
X120791176Y-93139147D01*
X120791174Y-93139148D01*
X120791168Y-93139151D01*
X120791168Y-93139152D01*
X120790524Y-93139591D01*
X120571915Y-93288636D01*
X120377394Y-93469125D01*
X120377392Y-93469127D01*
X120211942Y-93676595D01*
X120079261Y-93906404D01*
X119982316Y-94153417D01*
X119982310Y-94153436D01*
X119923264Y-94412135D01*
X119923263Y-94412140D01*
X119903435Y-94676745D01*
X105673863Y-94676745D01*
X105654039Y-94412214D01*
X105654038Y-94412209D01*
X105595009Y-94153583D01*
X105595003Y-94153564D01*
X105498085Y-93906621D01*
X105498086Y-93906621D01*
X105365443Y-93676878D01*
X105315256Y-93613946D01*
X104381862Y-94547340D01*
X104364825Y-94483757D01*
X104298999Y-94369743D01*
X104205907Y-94276651D01*
X104091893Y-94210825D01*
X104028309Y-94193787D01*
X104962460Y-93259635D01*
X104786375Y-93139583D01*
X104786374Y-93139582D01*
X104547369Y-93024485D01*
X104547371Y-93024485D01*
X104293874Y-92946291D01*
X104293868Y-92946290D01*
X104031548Y-92906750D01*
X103766251Y-92906750D01*
X103503931Y-92946290D01*
X103503925Y-92946291D01*
X103250429Y-93024485D01*
X103011424Y-93139584D01*
X103011411Y-93139591D01*
X102835338Y-93259634D01*
X103769491Y-94193787D01*
X103705907Y-94210825D01*
X103591893Y-94276651D01*
X103498801Y-94369743D01*
X103432975Y-94483757D01*
X103415937Y-94547341D01*
X102482542Y-93613946D01*
X102432357Y-93676877D01*
X102299714Y-93906621D01*
X102202796Y-94153564D01*
X102202790Y-94153583D01*
X102143761Y-94412209D01*
X102143760Y-94412214D01*
X102123937Y-94676745D01*
X100485441Y-94676745D01*
X100631747Y-94530439D01*
X100762268Y-94344034D01*
X100858439Y-94137796D01*
X100917335Y-93917992D01*
X100937168Y-93691300D01*
X100935881Y-93676595D01*
X100917335Y-93464613D01*
X100917335Y-93464608D01*
X100858439Y-93244804D01*
X100762268Y-93038566D01*
X100631747Y-92852161D01*
X100631745Y-92852158D01*
X100470841Y-92691254D01*
X100284434Y-92560732D01*
X100284432Y-92560731D01*
X100078197Y-92464561D01*
X100078188Y-92464558D01*
X99858397Y-92405666D01*
X99858393Y-92405665D01*
X99858392Y-92405665D01*
X99858391Y-92405664D01*
X99858386Y-92405664D01*
X99631702Y-92385832D01*
X99631698Y-92385832D01*
X99405013Y-92405664D01*
X99405002Y-92405666D01*
X99185211Y-92464558D01*
X99185202Y-92464561D01*
X98978967Y-92560731D01*
X98978965Y-92560732D01*
X98792558Y-92691254D01*
X98631654Y-92852158D01*
X98501132Y-93038565D01*
X98501131Y-93038567D01*
X98404961Y-93244802D01*
X98404958Y-93244811D01*
X98346066Y-93464602D01*
X98346064Y-93464613D01*
X98326232Y-93691298D01*
X83788666Y-93691298D01*
X83788666Y-93691297D01*
X83768841Y-93464700D01*
X83768839Y-93464689D01*
X83709969Y-93244982D01*
X83709964Y-93244968D01*
X83613836Y-93038821D01*
X83613832Y-93038813D01*
X83562725Y-92965826D01*
X82883700Y-93644851D01*
X82883700Y-93638639D01*
X82856441Y-93536906D01*
X82803780Y-93445694D01*
X82729306Y-93371220D01*
X82638094Y-93318559D01*
X82536361Y-93291300D01*
X82530145Y-93291300D01*
X83209172Y-92612274D01*
X83136178Y-92561163D01*
X82930031Y-92465035D01*
X82930017Y-92465030D01*
X82710310Y-92406160D01*
X82710299Y-92406158D01*
X82483702Y-92386334D01*
X82483698Y-92386334D01*
X82257100Y-92406158D01*
X82257089Y-92406160D01*
X82037382Y-92465030D01*
X82037373Y-92465034D01*
X81831216Y-92561166D01*
X81831212Y-92561168D01*
X81758226Y-92612273D01*
X81758226Y-92612274D01*
X82437253Y-93291300D01*
X82431039Y-93291300D01*
X82329306Y-93318559D01*
X82238094Y-93371220D01*
X82163620Y-93445694D01*
X82110959Y-93536906D01*
X82083700Y-93638639D01*
X82083700Y-93644852D01*
X81404674Y-92965826D01*
X81404673Y-92965826D01*
X81353568Y-93038812D01*
X81353566Y-93038816D01*
X81257434Y-93244973D01*
X81257430Y-93244982D01*
X81198560Y-93464689D01*
X81198558Y-93464700D01*
X81178734Y-93691297D01*
X44772700Y-93691297D01*
X44772700Y-81139355D01*
X56087500Y-81139355D01*
X56087500Y-81336444D01*
X56125947Y-81529728D01*
X56125949Y-81529736D01*
X56201367Y-81711810D01*
X56201372Y-81711820D01*
X56310860Y-81875680D01*
X56310863Y-81875684D01*
X56950135Y-82514955D01*
X56950164Y-82514986D01*
X57092614Y-82657436D01*
X57092618Y-82657439D01*
X57256479Y-82766928D01*
X57256492Y-82766935D01*
X57385233Y-82820261D01*
X57428144Y-82838035D01*
X57438564Y-82842351D01*
X57535212Y-82861575D01*
X57583535Y-82871187D01*
X57631858Y-82880800D01*
X57631859Y-82880800D01*
X57631860Y-82880800D01*
X57828940Y-82880800D01*
X60788918Y-82880800D01*
X60855957Y-82900485D01*
X60876599Y-82917119D01*
X61336315Y-83376836D01*
X61336319Y-83376839D01*
X61500179Y-83486327D01*
X61500183Y-83486329D01*
X61500186Y-83486331D01*
X61682264Y-83561751D01*
X61875555Y-83600199D01*
X61875558Y-83600200D01*
X61875560Y-83600200D01*
X62072642Y-83600200D01*
X62072643Y-83600199D01*
X62265936Y-83561751D01*
X62448014Y-83486331D01*
X62611881Y-83376839D01*
X62751239Y-83237481D01*
X62860731Y-83073614D01*
X62936151Y-82891536D01*
X62974600Y-82698240D01*
X62974600Y-82501160D01*
X62974600Y-82501157D01*
X62974599Y-82501155D01*
X62936152Y-82307871D01*
X62936151Y-82307864D01*
X62860731Y-82125786D01*
X62860729Y-82125783D01*
X62860727Y-82125779D01*
X62751239Y-81961919D01*
X62751236Y-81961915D01*
X62036179Y-81246859D01*
X62036159Y-81246837D01*
X61892485Y-81103163D01*
X61892481Y-81103160D01*
X61728620Y-80993671D01*
X61728607Y-80993664D01*
X61583059Y-80933377D01*
X61583058Y-80933377D01*
X61546536Y-80918249D01*
X61546528Y-80918247D01*
X61449888Y-80899024D01*
X61353244Y-80879800D01*
X61353241Y-80879800D01*
X58196182Y-80879800D01*
X58129143Y-80860115D01*
X58108501Y-80843481D01*
X57725784Y-80460763D01*
X57725780Y-80460760D01*
X57561920Y-80351272D01*
X57561910Y-80351267D01*
X57379836Y-80275849D01*
X57379828Y-80275847D01*
X57186543Y-80237400D01*
X57186540Y-80237400D01*
X56989460Y-80237400D01*
X56989457Y-80237400D01*
X56796171Y-80275847D01*
X56796163Y-80275849D01*
X56614089Y-80351267D01*
X56614079Y-80351272D01*
X56450219Y-80460760D01*
X56450215Y-80460763D01*
X56310863Y-80600115D01*
X56310860Y-80600119D01*
X56201372Y-80763979D01*
X56201367Y-80763989D01*
X56125949Y-80946063D01*
X56125947Y-80946071D01*
X56087500Y-81139355D01*
X44772700Y-81139355D01*
X44772700Y-70542443D01*
X61398999Y-70542443D01*
X61437447Y-70735729D01*
X61437450Y-70735739D01*
X61512864Y-70917807D01*
X61512871Y-70917820D01*
X61622360Y-71081681D01*
X61622363Y-71081685D01*
X61761714Y-71221036D01*
X61761718Y-71221039D01*
X61925579Y-71330528D01*
X61925592Y-71330535D01*
X62107660Y-71405949D01*
X62107665Y-71405951D01*
X62107669Y-71405951D01*
X62107670Y-71405952D01*
X62300956Y-71444400D01*
X62300959Y-71444400D01*
X62498043Y-71444400D01*
X62628082Y-71418532D01*
X62691335Y-71405951D01*
X62873414Y-71330532D01*
X63037282Y-71221039D01*
X63176639Y-71081682D01*
X63286132Y-70917814D01*
X63361551Y-70735735D01*
X63396818Y-70558439D01*
X63400000Y-70542443D01*
X63400000Y-70278581D01*
X63419685Y-70211542D01*
X63436314Y-70190905D01*
X78172701Y-55454517D01*
X78234024Y-55421033D01*
X78260382Y-55418199D01*
X79042471Y-55418199D01*
X79042472Y-55418199D01*
X79102083Y-55411791D01*
X79236931Y-55361496D01*
X79352146Y-55275246D01*
X79438396Y-55160031D01*
X79488691Y-55025183D01*
X79495100Y-54965573D01*
X79495099Y-54194297D01*
X81178734Y-54194297D01*
X81178734Y-54194302D01*
X81198558Y-54420899D01*
X81198560Y-54420910D01*
X81257430Y-54640617D01*
X81257435Y-54640631D01*
X81353563Y-54846778D01*
X81404674Y-54919772D01*
X82083700Y-54240746D01*
X82083700Y-54246961D01*
X82110959Y-54348694D01*
X82163620Y-54439906D01*
X82238094Y-54514380D01*
X82329306Y-54567041D01*
X82431039Y-54594300D01*
X82437253Y-54594300D01*
X81758226Y-55273325D01*
X81831213Y-55324432D01*
X81831221Y-55324436D01*
X82037368Y-55420564D01*
X82037382Y-55420569D01*
X82257089Y-55479439D01*
X82257100Y-55479441D01*
X82483698Y-55499266D01*
X82483702Y-55499266D01*
X82710299Y-55479441D01*
X82710310Y-55479439D01*
X82930017Y-55420569D01*
X82930031Y-55420564D01*
X83136178Y-55324436D01*
X83209171Y-55273324D01*
X82530147Y-54594300D01*
X82536361Y-54594300D01*
X82638094Y-54567041D01*
X82729306Y-54514380D01*
X82803780Y-54439906D01*
X82856441Y-54348694D01*
X82883700Y-54246961D01*
X82883700Y-54240747D01*
X83562724Y-54919771D01*
X83613836Y-54846778D01*
X83709964Y-54640631D01*
X83709969Y-54640617D01*
X83768839Y-54420910D01*
X83768841Y-54420899D01*
X83788666Y-54194302D01*
X83788666Y-54194297D01*
X83768841Y-53967700D01*
X83768839Y-53967689D01*
X83709969Y-53747982D01*
X83709964Y-53747968D01*
X83613836Y-53541821D01*
X83613832Y-53541813D01*
X83562725Y-53468826D01*
X82883700Y-54147851D01*
X82883700Y-54141639D01*
X82856441Y-54039906D01*
X82803780Y-53948694D01*
X82729306Y-53874220D01*
X82638094Y-53821559D01*
X82536361Y-53794300D01*
X82530145Y-53794300D01*
X83209172Y-53115274D01*
X83136178Y-53064163D01*
X82930031Y-52968035D01*
X82930017Y-52968030D01*
X82710310Y-52909160D01*
X82710299Y-52909158D01*
X82483702Y-52889334D01*
X82483698Y-52889334D01*
X82257100Y-52909158D01*
X82257089Y-52909160D01*
X82037382Y-52968030D01*
X82037373Y-52968034D01*
X81831216Y-53064166D01*
X81831212Y-53064168D01*
X81758226Y-53115273D01*
X81758226Y-53115274D01*
X82437253Y-53794300D01*
X82431039Y-53794300D01*
X82329306Y-53821559D01*
X82238094Y-53874220D01*
X82163620Y-53948694D01*
X82110959Y-54039906D01*
X82083700Y-54141639D01*
X82083700Y-54147852D01*
X81404674Y-53468826D01*
X81404673Y-53468826D01*
X81353568Y-53541812D01*
X81353566Y-53541816D01*
X81257434Y-53747973D01*
X81257430Y-53747982D01*
X81198560Y-53967689D01*
X81198558Y-53967700D01*
X81178734Y-54194297D01*
X79495099Y-54194297D01*
X79495099Y-54183480D01*
X79514783Y-54116442D01*
X79531413Y-54095805D01*
X81647302Y-51979919D01*
X81708625Y-51946434D01*
X81734983Y-51943600D01*
X85979442Y-51943600D01*
X85998770Y-51939755D01*
X86076088Y-51924375D01*
X86172736Y-51905151D01*
X86226065Y-51883061D01*
X86354814Y-51829732D01*
X86518682Y-51720239D01*
X86658039Y-51580882D01*
X86658039Y-51580880D01*
X86668247Y-51570673D01*
X86668248Y-51570670D01*
X88742402Y-49496519D01*
X88803725Y-49463034D01*
X88830083Y-49460200D01*
X90664303Y-49460200D01*
X90664308Y-49460200D01*
X90767097Y-49449699D01*
X90933634Y-49394514D01*
X91082955Y-49302411D01*
X91207011Y-49178355D01*
X91299114Y-49029034D01*
X91354299Y-48862497D01*
X91364800Y-48759708D01*
X91364800Y-48434200D01*
X91384485Y-48367161D01*
X91437289Y-48321406D01*
X91488800Y-48310200D01*
X92281318Y-48310200D01*
X92348357Y-48329885D01*
X92368998Y-48346518D01*
X97809649Y-53787170D01*
X97843133Y-53848491D01*
X97838149Y-53918183D01*
X97809648Y-53962530D01*
X82628663Y-69143515D01*
X82628660Y-69143519D01*
X82519172Y-69307379D01*
X82519167Y-69307389D01*
X82443749Y-69489463D01*
X82443747Y-69489471D01*
X82405300Y-69682755D01*
X82405300Y-69879844D01*
X82443747Y-70073128D01*
X82443749Y-70073136D01*
X82519167Y-70255210D01*
X82519172Y-70255220D01*
X82628660Y-70419080D01*
X82628663Y-70419084D01*
X82768015Y-70558436D01*
X82768019Y-70558439D01*
X82931879Y-70667927D01*
X82931883Y-70667929D01*
X82931886Y-70667931D01*
X83113964Y-70743351D01*
X83307255Y-70781799D01*
X83307258Y-70781800D01*
X83307260Y-70781800D01*
X83504342Y-70781800D01*
X83504343Y-70781799D01*
X83697636Y-70743351D01*
X83879714Y-70667931D01*
X84043581Y-70558439D01*
X99131251Y-55470767D01*
X99192572Y-55437284D01*
X99251022Y-55438674D01*
X99405008Y-55479935D01*
X99566930Y-55494101D01*
X99631698Y-55499768D01*
X99631700Y-55499768D01*
X99631702Y-55499768D01*
X99688373Y-55494809D01*
X99858392Y-55479935D01*
X100078196Y-55421039D01*
X100284434Y-55324868D01*
X100470839Y-55194347D01*
X100631747Y-55033439D01*
X100762268Y-54847034D01*
X100858439Y-54640796D01*
X100917335Y-54420992D01*
X100937168Y-54194300D01*
X100936221Y-54183481D01*
X100923384Y-54036749D01*
X100923384Y-54036745D01*
X102123937Y-54036745D01*
X102123937Y-54036754D01*
X102143760Y-54301285D01*
X102143761Y-54301290D01*
X102202790Y-54559916D01*
X102202796Y-54559935D01*
X102299714Y-54806878D01*
X102299713Y-54806878D01*
X102432356Y-55036621D01*
X102482541Y-55099553D01*
X103415937Y-54166158D01*
X103432975Y-54229743D01*
X103498801Y-54343757D01*
X103591893Y-54436849D01*
X103705907Y-54502675D01*
X103769491Y-54519712D01*
X102835338Y-55453863D01*
X103011418Y-55573912D01*
X103011426Y-55573917D01*
X103250430Y-55689014D01*
X103250428Y-55689014D01*
X103503925Y-55767208D01*
X103503931Y-55767209D01*
X103766251Y-55806749D01*
X103766258Y-55806750D01*
X104031542Y-55806750D01*
X104031548Y-55806749D01*
X104293868Y-55767209D01*
X104293874Y-55767208D01*
X104547370Y-55689014D01*
X104786374Y-55573917D01*
X104786384Y-55573910D01*
X104962460Y-55453863D01*
X104028308Y-54519712D01*
X104091893Y-54502675D01*
X104205907Y-54436849D01*
X104298999Y-54343757D01*
X104364825Y-54229743D01*
X104381862Y-54166158D01*
X105315257Y-55099553D01*
X105365442Y-55036621D01*
X105498085Y-54806878D01*
X105595003Y-54559935D01*
X105595009Y-54559916D01*
X105654038Y-54301290D01*
X105654039Y-54301285D01*
X105673863Y-54036754D01*
X105673863Y-54036745D01*
X105654039Y-53772214D01*
X105654038Y-53772209D01*
X105595009Y-53513583D01*
X105595003Y-53513564D01*
X105498085Y-53266621D01*
X105498086Y-53266621D01*
X105365443Y-53036878D01*
X105315256Y-52973946D01*
X104381862Y-53907340D01*
X104364825Y-53843757D01*
X104298999Y-53729743D01*
X104205907Y-53636651D01*
X104091893Y-53570825D01*
X104028309Y-53553787D01*
X104962460Y-52619635D01*
X104786375Y-52499583D01*
X104786374Y-52499582D01*
X104547369Y-52384485D01*
X104547371Y-52384485D01*
X104293874Y-52306291D01*
X104293868Y-52306290D01*
X104031548Y-52266750D01*
X103766251Y-52266750D01*
X103503931Y-52306290D01*
X103503925Y-52306291D01*
X103250429Y-52384485D01*
X103011424Y-52499584D01*
X103011411Y-52499591D01*
X102835338Y-52619634D01*
X103769491Y-53553787D01*
X103705907Y-53570825D01*
X103591893Y-53636651D01*
X103498801Y-53729743D01*
X103432975Y-53843757D01*
X103415937Y-53907341D01*
X102482542Y-52973946D01*
X102432357Y-53036877D01*
X102299714Y-53266621D01*
X102202796Y-53513564D01*
X102202790Y-53513583D01*
X102143761Y-53772209D01*
X102143760Y-53772214D01*
X102123937Y-54036745D01*
X100923384Y-54036745D01*
X100917335Y-53967608D01*
X100870898Y-53794300D01*
X100858441Y-53747811D01*
X100858438Y-53747802D01*
X100834705Y-53696907D01*
X100762268Y-53541566D01*
X100631747Y-53355161D01*
X100631745Y-53355158D01*
X100470841Y-53194254D01*
X100284434Y-53063732D01*
X100284432Y-53063731D01*
X100078197Y-52967561D01*
X100078188Y-52967558D01*
X99858397Y-52908666D01*
X99858387Y-52908664D01*
X99796605Y-52903259D01*
X99731536Y-52877806D01*
X99719732Y-52867412D01*
X95374201Y-48521881D01*
X95340716Y-48460558D01*
X95345700Y-48390866D01*
X95387572Y-48334933D01*
X95453036Y-48310516D01*
X95461882Y-48310200D01*
X107800718Y-48310200D01*
X107867757Y-48329885D01*
X107888398Y-48346518D01*
X110995760Y-51453881D01*
X110995761Y-51453882D01*
X111135118Y-51593239D01*
X111298986Y-51702732D01*
X111405645Y-51746911D01*
X111481064Y-51778151D01*
X111674354Y-51816599D01*
X111674357Y-51816600D01*
X111674359Y-51816600D01*
X111871440Y-51816600D01*
X117326918Y-51816600D01*
X117393957Y-51836285D01*
X117414599Y-51852919D01*
X119783073Y-54221393D01*
X119816558Y-54282716D01*
X119811574Y-54352408D01*
X119783073Y-54396755D01*
X105225363Y-68954465D01*
X105225360Y-68954469D01*
X105115872Y-69118329D01*
X105115867Y-69118339D01*
X105040449Y-69300413D01*
X105040447Y-69300421D01*
X105002000Y-69493705D01*
X105002000Y-69690794D01*
X105040447Y-69884078D01*
X105040449Y-69884086D01*
X105115867Y-70066160D01*
X105115872Y-70066170D01*
X105225360Y-70230030D01*
X105225363Y-70230034D01*
X105364715Y-70369386D01*
X105364719Y-70369389D01*
X105528579Y-70478877D01*
X105528583Y-70478879D01*
X105528586Y-70478881D01*
X105710664Y-70554301D01*
X105903955Y-70592749D01*
X105903958Y-70592750D01*
X105903960Y-70592750D01*
X106101042Y-70592750D01*
X106101043Y-70592749D01*
X106294336Y-70554301D01*
X106476414Y-70478881D01*
X106640281Y-70369389D01*
X121166101Y-55843567D01*
X121227424Y-55810083D01*
X121253782Y-55807249D01*
X122996771Y-55807249D01*
X122996772Y-55807249D01*
X123056383Y-55800841D01*
X123191231Y-55750546D01*
X123306446Y-55664296D01*
X123392696Y-55549081D01*
X123442991Y-55414233D01*
X123449400Y-55354623D01*
X123449399Y-52718878D01*
X123442991Y-52659267D01*
X123428209Y-52619635D01*
X123392697Y-52524421D01*
X123392693Y-52524414D01*
X123306447Y-52409205D01*
X123306444Y-52409202D01*
X123191235Y-52322956D01*
X123191228Y-52322952D01*
X123056382Y-52272658D01*
X123056383Y-52272658D01*
X122996783Y-52266251D01*
X122996781Y-52266250D01*
X122996773Y-52266250D01*
X122996765Y-52266250D01*
X120709132Y-52266250D01*
X120642093Y-52246565D01*
X120621451Y-52229931D01*
X118574179Y-50182659D01*
X118574159Y-50182637D01*
X118430485Y-50038963D01*
X118430481Y-50038960D01*
X118266620Y-49929471D01*
X118266611Y-49929466D01*
X118194015Y-49899396D01*
X118137865Y-49876138D01*
X118084536Y-49854049D01*
X118084532Y-49854048D01*
X118084528Y-49854046D01*
X117987888Y-49834824D01*
X117891244Y-49815600D01*
X117891241Y-49815600D01*
X112238683Y-49815600D01*
X112171644Y-49795915D01*
X112151002Y-49779281D01*
X109050709Y-46678989D01*
X109050706Y-46678985D01*
X109050706Y-46678986D01*
X109043639Y-46671919D01*
X109043639Y-46671918D01*
X108904282Y-46532561D01*
X108904281Y-46532560D01*
X108904280Y-46532559D01*
X108740420Y-46423071D01*
X108740411Y-46423066D01*
X108667815Y-46392996D01*
X108611665Y-46369738D01*
X108558336Y-46347649D01*
X108558332Y-46347648D01*
X108558328Y-46347646D01*
X108461688Y-46328424D01*
X108365044Y-46309200D01*
X108365041Y-46309200D01*
X92845641Y-46309200D01*
X91488800Y-46309200D01*
X91421761Y-46289515D01*
X91376006Y-46236711D01*
X91364800Y-46185200D01*
X91364800Y-45859697D01*
X91364799Y-45859684D01*
X91354299Y-45756904D01*
X91354299Y-45756903D01*
X91299114Y-45590366D01*
X91281481Y-45561779D01*
X91207013Y-45441048D01*
X91207010Y-45441044D01*
X91201821Y-45435855D01*
X111361666Y-45435855D01*
X111361666Y-45435856D01*
X111381963Y-45823143D01*
X111442630Y-46206179D01*
X111442631Y-46206186D01*
X111543006Y-46580792D01*
X111681988Y-46942850D01*
X111858054Y-47288399D01*
X112069267Y-47613639D01*
X112069269Y-47613641D01*
X112277840Y-47871204D01*
X113772491Y-46376553D01*
X113846332Y-46478186D01*
X114024414Y-46656268D01*
X114126045Y-46730107D01*
X112631394Y-48224758D01*
X112888951Y-48433325D01*
X112888960Y-48433332D01*
X113214200Y-48644545D01*
X113559749Y-48820611D01*
X113921807Y-48959593D01*
X114296413Y-49059968D01*
X114296420Y-49059969D01*
X114679456Y-49120636D01*
X115066743Y-49140934D01*
X115066745Y-49140934D01*
X115454031Y-49120636D01*
X115837067Y-49059969D01*
X115837074Y-49059968D01*
X116211680Y-48959593D01*
X116573738Y-48820611D01*
X116919287Y-48644545D01*
X117244515Y-48433340D01*
X117244528Y-48433330D01*
X117502092Y-48224758D01*
X116007442Y-46730108D01*
X116109074Y-46656268D01*
X116287156Y-46478186D01*
X116360996Y-46376554D01*
X117855646Y-47871204D01*
X118064218Y-47613640D01*
X118064228Y-47613627D01*
X118275433Y-47288399D01*
X118451499Y-46942850D01*
X118590481Y-46580792D01*
X118690856Y-46206186D01*
X118690857Y-46206179D01*
X118751524Y-45823143D01*
X118771822Y-45435856D01*
X118771822Y-45435855D01*
X118751524Y-45048568D01*
X118690857Y-44665532D01*
X118690856Y-44665525D01*
X118590481Y-44290919D01*
X118451499Y-43928861D01*
X118275433Y-43583312D01*
X118064220Y-43258072D01*
X118064219Y-43258070D01*
X117855646Y-43000506D01*
X116360995Y-44495157D01*
X116287156Y-44393526D01*
X116109074Y-44215444D01*
X116007442Y-44141604D01*
X117502093Y-42646952D01*
X117244529Y-42438381D01*
X117244527Y-42438379D01*
X116919287Y-42227166D01*
X116573738Y-42051100D01*
X116211680Y-41912118D01*
X115938400Y-41838893D01*
X118927400Y-41838893D01*
X118927400Y-41838906D01*
X118946564Y-42070197D01*
X118946566Y-42070208D01*
X119003542Y-42295200D01*
X119096775Y-42507748D01*
X119223716Y-42702047D01*
X119223719Y-42702051D01*
X119223721Y-42702053D01*
X119380916Y-42872813D01*
X119380919Y-42872815D01*
X119380922Y-42872818D01*
X119564065Y-43015364D01*
X119564071Y-43015368D01*
X119564074Y-43015370D01*
X119768197Y-43125836D01*
X119882187Y-43164968D01*
X119987715Y-43201197D01*
X119987717Y-43201197D01*
X119987719Y-43201198D01*
X120216651Y-43239400D01*
X120216652Y-43239400D01*
X120448748Y-43239400D01*
X120448749Y-43239400D01*
X120677681Y-43201198D01*
X120897203Y-43125836D01*
X121101326Y-43015370D01*
X121120424Y-43000506D01*
X121211404Y-42929693D01*
X121284484Y-42872813D01*
X121441679Y-42702053D01*
X121568624Y-42507749D01*
X121661857Y-42295200D01*
X121718834Y-42070205D01*
X121718835Y-42070197D01*
X121738000Y-41838906D01*
X121738000Y-41838893D01*
X121718835Y-41607602D01*
X121718833Y-41607591D01*
X121661857Y-41382599D01*
X121568624Y-41170051D01*
X121441683Y-40975752D01*
X121441680Y-40975749D01*
X121441679Y-40975747D01*
X121284484Y-40804987D01*
X121284479Y-40804983D01*
X121284477Y-40804981D01*
X121101334Y-40662435D01*
X121101328Y-40662431D01*
X120897204Y-40551964D01*
X120897195Y-40551961D01*
X120677684Y-40476602D01*
X120505982Y-40447950D01*
X120448749Y-40438400D01*
X120216651Y-40438400D01*
X120170864Y-40446040D01*
X119987715Y-40476602D01*
X119768204Y-40551961D01*
X119768195Y-40551964D01*
X119564071Y-40662431D01*
X119564065Y-40662435D01*
X119380922Y-40804981D01*
X119380919Y-40804984D01*
X119223716Y-40975752D01*
X119096775Y-41170051D01*
X119003542Y-41382599D01*
X118946566Y-41607591D01*
X118946564Y-41607602D01*
X118927400Y-41838893D01*
X115938400Y-41838893D01*
X115837074Y-41811743D01*
X115837067Y-41811742D01*
X115454031Y-41751075D01*
X115066745Y-41730778D01*
X115066743Y-41730778D01*
X114679456Y-41751075D01*
X114296420Y-41811742D01*
X114296413Y-41811743D01*
X113921807Y-41912118D01*
X113559749Y-42051100D01*
X113214200Y-42227166D01*
X112888950Y-42438387D01*
X112631393Y-42646951D01*
X112631393Y-42646952D01*
X114126045Y-44141604D01*
X114024414Y-44215444D01*
X113846332Y-44393526D01*
X113772492Y-44495157D01*
X112277840Y-43000505D01*
X112277839Y-43000505D01*
X112069275Y-43258062D01*
X111858054Y-43583312D01*
X111681988Y-43928861D01*
X111543006Y-44290919D01*
X111442631Y-44665525D01*
X111442630Y-44665532D01*
X111381963Y-45048568D01*
X111361666Y-45435855D01*
X91201821Y-45435855D01*
X91082955Y-45316989D01*
X91082951Y-45316986D01*
X90933637Y-45224887D01*
X90933635Y-45224886D01*
X90832438Y-45191353D01*
X90767097Y-45169701D01*
X90767095Y-45169700D01*
X90664315Y-45159200D01*
X90664308Y-45159200D01*
X90638800Y-45159200D01*
X90571761Y-45139515D01*
X90526006Y-45086711D01*
X90514800Y-45035200D01*
X90514800Y-43735643D01*
X90534485Y-43668604D01*
X90563311Y-43637269D01*
X90737038Y-43503965D01*
X90908565Y-43332438D01*
X91056236Y-43139989D01*
X91177524Y-42929912D01*
X91270354Y-42705800D01*
X91333138Y-42471489D01*
X91364800Y-42230988D01*
X91364800Y-41388412D01*
X91333138Y-41147911D01*
X91270354Y-40913600D01*
X91177524Y-40689488D01*
X91056236Y-40479411D01*
X90908820Y-40287294D01*
X90908566Y-40286963D01*
X90908560Y-40286956D01*
X90737043Y-40115439D01*
X90737036Y-40115433D01*
X90544593Y-39967767D01*
X90544592Y-39967766D01*
X90544589Y-39967764D01*
X90334512Y-39846476D01*
X90334505Y-39846473D01*
X90110404Y-39753647D01*
X89876085Y-39690861D01*
X89635589Y-39659200D01*
X89635588Y-39659200D01*
X89393012Y-39659200D01*
X89393011Y-39659200D01*
X89152514Y-39690861D01*
X88918195Y-39753647D01*
X88694094Y-39846473D01*
X88694085Y-39846477D01*
X88484006Y-39967767D01*
X88291563Y-40115433D01*
X88291556Y-40115439D01*
X88120039Y-40286956D01*
X88120033Y-40286963D01*
X87972367Y-40479406D01*
X87851077Y-40689485D01*
X87851073Y-40689494D01*
X87758247Y-40913595D01*
X87695461Y-41147914D01*
X87663800Y-41388411D01*
X87663800Y-42230988D01*
X87695461Y-42471485D01*
X87758247Y-42705804D01*
X87827427Y-42872818D01*
X87851076Y-42929912D01*
X87972364Y-43139989D01*
X87972366Y-43139992D01*
X87972367Y-43139993D01*
X88120033Y-43332436D01*
X88120039Y-43332443D01*
X88291556Y-43503960D01*
X88291562Y-43503965D01*
X88465287Y-43637268D01*
X88506489Y-43693694D01*
X88513800Y-43735643D01*
X88513800Y-45035200D01*
X88494115Y-45102239D01*
X88441311Y-45147994D01*
X88389800Y-45159200D01*
X88364284Y-45159200D01*
X88261504Y-45169700D01*
X88261503Y-45169701D01*
X88094964Y-45224886D01*
X88094962Y-45224887D01*
X87945648Y-45316986D01*
X87945644Y-45316989D01*
X87821589Y-45441044D01*
X87821586Y-45441048D01*
X87729487Y-45590362D01*
X87729486Y-45590364D01*
X87674301Y-45756903D01*
X87674300Y-45756904D01*
X87663800Y-45859684D01*
X87663800Y-47693917D01*
X87644115Y-47760956D01*
X87627481Y-47781598D01*
X87344697Y-48064381D01*
X87283374Y-48097866D01*
X87213682Y-48092882D01*
X87157749Y-48051010D01*
X87133332Y-47985546D01*
X87134077Y-47960514D01*
X87164299Y-47730962D01*
X87164300Y-47730948D01*
X87164300Y-47559700D01*
X85968421Y-47559700D01*
X85987399Y-47513882D01*
X86014300Y-47378644D01*
X86014300Y-47240756D01*
X85987399Y-47105518D01*
X85968421Y-47059700D01*
X87164300Y-47059700D01*
X87164300Y-46888451D01*
X87164298Y-46888435D01*
X87132646Y-46648012D01*
X87069878Y-46413760D01*
X86977079Y-46189721D01*
X86977072Y-46189706D01*
X86855819Y-45979690D01*
X86708189Y-45787294D01*
X86708183Y-45787287D01*
X86536712Y-45615816D01*
X86536705Y-45615810D01*
X86344309Y-45468180D01*
X86134293Y-45346927D01*
X86134278Y-45346920D01*
X85910239Y-45254121D01*
X85675987Y-45191353D01*
X85564300Y-45176648D01*
X85564300Y-46655579D01*
X85518482Y-46636601D01*
X85383244Y-46609700D01*
X85245356Y-46609700D01*
X85110118Y-46636601D01*
X85064300Y-46655579D01*
X85064300Y-45176648D01*
X85064299Y-45176648D01*
X84952612Y-45191353D01*
X84718360Y-45254121D01*
X84494321Y-45346920D01*
X84494306Y-45346927D01*
X84284290Y-45468180D01*
X84091894Y-45615810D01*
X84091887Y-45615816D01*
X83920416Y-45787287D01*
X83920410Y-45787294D01*
X83772780Y-45979690D01*
X83651527Y-46189706D01*
X83651520Y-46189721D01*
X83558721Y-46413760D01*
X83495953Y-46648012D01*
X83464301Y-46888435D01*
X83464300Y-46888451D01*
X83464300Y-47059700D01*
X84660179Y-47059700D01*
X84641201Y-47105518D01*
X84614300Y-47240756D01*
X84614300Y-47378644D01*
X84641201Y-47513882D01*
X84660179Y-47559700D01*
X83464300Y-47559700D01*
X83464300Y-47730948D01*
X83464301Y-47730964D01*
X83495953Y-47971387D01*
X83558721Y-48205639D01*
X83651520Y-48429678D01*
X83651527Y-48429693D01*
X83772780Y-48639709D01*
X83920410Y-48832105D01*
X83920416Y-48832112D01*
X84091887Y-49003583D01*
X84091894Y-49003589D01*
X84284290Y-49151219D01*
X84494306Y-49272472D01*
X84494321Y-49272479D01*
X84718360Y-49365278D01*
X84952612Y-49428046D01*
X85064300Y-49442749D01*
X85064300Y-47963820D01*
X85110118Y-47982799D01*
X85245356Y-48009700D01*
X85383244Y-48009700D01*
X85518482Y-47982799D01*
X85564300Y-47963820D01*
X85564300Y-49442748D01*
X85665115Y-49429477D01*
X85734150Y-49440243D01*
X85786406Y-49486623D01*
X85805291Y-49553892D01*
X85784810Y-49620692D01*
X85768982Y-49640097D01*
X85646813Y-49762266D01*
X85502797Y-49906282D01*
X85441477Y-49939766D01*
X85415118Y-49942600D01*
X81170654Y-49942600D01*
X81138591Y-49948976D01*
X81138592Y-49948977D01*
X80977370Y-49981046D01*
X80977364Y-49981048D01*
X80795288Y-50056466D01*
X80795279Y-50056471D01*
X80631419Y-50165959D01*
X80631415Y-50165962D01*
X78116497Y-52680881D01*
X78055174Y-52714366D01*
X78028816Y-52717200D01*
X77246729Y-52717200D01*
X77246723Y-52717201D01*
X77187116Y-52723608D01*
X77052271Y-52773902D01*
X77052264Y-52773906D01*
X76937055Y-52860152D01*
X76937052Y-52860155D01*
X76850806Y-52975364D01*
X76850802Y-52975371D01*
X76800508Y-53110217D01*
X76794101Y-53169816D01*
X76794100Y-53169835D01*
X76794100Y-53951917D01*
X76774415Y-54018956D01*
X76757781Y-54039598D01*
X61761721Y-69035658D01*
X61761718Y-69035661D01*
X61692038Y-69105340D01*
X61622359Y-69175019D01*
X61512871Y-69338879D01*
X61512864Y-69338892D01*
X61437450Y-69520960D01*
X61437447Y-69520970D01*
X61399000Y-69714256D01*
X61399000Y-69714259D01*
X61399000Y-70542441D01*
X61399000Y-70542443D01*
X61398999Y-70542443D01*
X44772700Y-70542443D01*
X44772700Y-52992055D01*
X47635400Y-52992055D01*
X47635400Y-53639900D01*
X48552388Y-53639900D01*
X48519475Y-53696907D01*
X48485400Y-53824074D01*
X48485400Y-53955726D01*
X48519475Y-54082893D01*
X48552388Y-54139900D01*
X47635400Y-54139900D01*
X47635400Y-54787744D01*
X47641801Y-54847272D01*
X47641803Y-54847279D01*
X47692045Y-54981986D01*
X47692049Y-54981993D01*
X47778209Y-55097087D01*
X47778212Y-55097090D01*
X47893306Y-55183250D01*
X47893313Y-55183254D01*
X48028020Y-55233496D01*
X48028027Y-55233498D01*
X48087555Y-55239899D01*
X48087572Y-55239900D01*
X48735400Y-55239900D01*
X48735400Y-54322912D01*
X48792407Y-54355825D01*
X48919574Y-54389900D01*
X49051226Y-54389900D01*
X49178393Y-54355825D01*
X49235400Y-54322912D01*
X49235400Y-55239900D01*
X49883228Y-55239900D01*
X49883244Y-55239899D01*
X49942772Y-55233498D01*
X49942779Y-55233496D01*
X50077486Y-55183254D01*
X50077493Y-55183250D01*
X50192587Y-55097090D01*
X50192590Y-55097087D01*
X50278750Y-54981993D01*
X50278754Y-54981986D01*
X50328996Y-54847279D01*
X50328998Y-54847272D01*
X50335399Y-54787744D01*
X50335400Y-54787727D01*
X50335400Y-54139900D01*
X49418412Y-54139900D01*
X49451325Y-54082893D01*
X49485400Y-53955726D01*
X49485400Y-53824074D01*
X49451325Y-53696907D01*
X49418412Y-53639900D01*
X50335400Y-53639900D01*
X50335400Y-52992072D01*
X50335399Y-52992055D01*
X50328998Y-52932527D01*
X50328996Y-52932520D01*
X50278754Y-52797813D01*
X50278750Y-52797806D01*
X50192590Y-52682712D01*
X50192587Y-52682709D01*
X50077493Y-52596549D01*
X50077486Y-52596545D01*
X49942779Y-52546303D01*
X49942772Y-52546301D01*
X49883244Y-52539900D01*
X49235400Y-52539900D01*
X49235400Y-53456888D01*
X49178393Y-53423975D01*
X49051226Y-53389900D01*
X48919574Y-53389900D01*
X48792407Y-53423975D01*
X48735400Y-53456888D01*
X48735400Y-52539900D01*
X48087555Y-52539900D01*
X48028027Y-52546301D01*
X48028020Y-52546303D01*
X47893313Y-52596545D01*
X47893306Y-52596549D01*
X47778212Y-52682709D01*
X47778209Y-52682712D01*
X47692049Y-52797806D01*
X47692045Y-52797813D01*
X47641803Y-52932520D01*
X47641801Y-52932527D01*
X47635400Y-52992055D01*
X44772700Y-52992055D01*
X44772700Y-45537455D01*
X48623666Y-45537455D01*
X48623666Y-45537456D01*
X48643963Y-45924743D01*
X48704630Y-46307779D01*
X48704631Y-46307786D01*
X48805006Y-46682392D01*
X48943988Y-47044450D01*
X49120054Y-47389999D01*
X49331267Y-47715239D01*
X49331269Y-47715241D01*
X49539840Y-47972804D01*
X51034491Y-46478153D01*
X51108332Y-46579786D01*
X51286414Y-46757868D01*
X51388045Y-46831707D01*
X49893394Y-48326358D01*
X50150958Y-48534931D01*
X50150960Y-48534932D01*
X50476200Y-48746145D01*
X50821749Y-48922211D01*
X51183807Y-49061193D01*
X51558413Y-49161568D01*
X51558420Y-49161569D01*
X51941456Y-49222236D01*
X52328743Y-49242534D01*
X52328745Y-49242534D01*
X52716031Y-49222236D01*
X53099067Y-49161569D01*
X53099074Y-49161568D01*
X53473680Y-49061193D01*
X53835738Y-48922211D01*
X54181287Y-48746145D01*
X54506515Y-48534940D01*
X54506528Y-48534930D01*
X54764092Y-48326358D01*
X53269442Y-46831708D01*
X53371074Y-46757868D01*
X53549156Y-46579786D01*
X53622996Y-46478154D01*
X55117646Y-47972804D01*
X55326218Y-47715240D01*
X55326228Y-47715227D01*
X55537433Y-47389999D01*
X55713499Y-47044450D01*
X55852481Y-46682392D01*
X55952856Y-46307786D01*
X55952857Y-46307779D01*
X56013524Y-45924743D01*
X56033822Y-45537456D01*
X56033822Y-45537455D01*
X56013524Y-45150168D01*
X55952857Y-44767132D01*
X55952856Y-44767125D01*
X55852481Y-44392519D01*
X55713499Y-44030461D01*
X55537433Y-43684912D01*
X55326220Y-43359672D01*
X55326219Y-43359670D01*
X55117646Y-43102106D01*
X53622995Y-44596757D01*
X53549156Y-44495126D01*
X53371074Y-44317044D01*
X53269442Y-44243204D01*
X54764093Y-42748552D01*
X54506529Y-42539981D01*
X54506527Y-42539979D01*
X54181287Y-42328766D01*
X53835738Y-42152700D01*
X53473680Y-42013718D01*
X53099074Y-41913343D01*
X53099067Y-41913342D01*
X52716031Y-41852675D01*
X52328745Y-41832378D01*
X52328743Y-41832378D01*
X51941456Y-41852675D01*
X51558420Y-41913342D01*
X51558413Y-41913343D01*
X51183807Y-42013718D01*
X50821749Y-42152700D01*
X50476200Y-42328766D01*
X50150950Y-42539987D01*
X49893393Y-42748551D01*
X49893393Y-42748552D01*
X51388045Y-44243204D01*
X51286414Y-44317044D01*
X51108332Y-44495126D01*
X51034492Y-44596757D01*
X49539840Y-43102105D01*
X49539839Y-43102105D01*
X49331275Y-43359662D01*
X49120054Y-43684912D01*
X48943988Y-44030461D01*
X48805006Y-44392519D01*
X48704631Y-44767125D01*
X48704630Y-44767132D01*
X48643963Y-45150168D01*
X48623666Y-45537455D01*
X44772700Y-45537455D01*
X44772700Y-41388451D01*
X83464300Y-41388451D01*
X83464300Y-41559700D01*
X84660179Y-41559700D01*
X84641201Y-41605518D01*
X84614300Y-41740756D01*
X84614300Y-41878644D01*
X84641201Y-42013882D01*
X84660179Y-42059700D01*
X83464300Y-42059700D01*
X83464300Y-42230948D01*
X83464301Y-42230964D01*
X83495953Y-42471387D01*
X83558721Y-42705639D01*
X83651520Y-42929678D01*
X83651527Y-42929693D01*
X83772780Y-43139709D01*
X83920410Y-43332105D01*
X83920416Y-43332112D01*
X84091887Y-43503583D01*
X84091894Y-43503589D01*
X84284290Y-43651219D01*
X84494306Y-43772472D01*
X84494321Y-43772479D01*
X84718360Y-43865278D01*
X84952612Y-43928046D01*
X85064300Y-43942749D01*
X85064300Y-42463820D01*
X85110118Y-42482799D01*
X85245356Y-42509700D01*
X85383244Y-42509700D01*
X85518482Y-42482799D01*
X85564300Y-42463820D01*
X85564300Y-43942748D01*
X85675987Y-43928046D01*
X85910239Y-43865278D01*
X86134278Y-43772479D01*
X86134293Y-43772472D01*
X86344309Y-43651219D01*
X86536705Y-43503589D01*
X86536712Y-43503583D01*
X86708183Y-43332112D01*
X86708189Y-43332105D01*
X86855819Y-43139709D01*
X86977072Y-42929693D01*
X86977079Y-42929678D01*
X87069878Y-42705639D01*
X87132646Y-42471387D01*
X87164298Y-42230964D01*
X87164300Y-42230948D01*
X87164300Y-42059700D01*
X85968421Y-42059700D01*
X85987399Y-42013882D01*
X86014300Y-41878644D01*
X86014300Y-41740756D01*
X85987399Y-41605518D01*
X85968421Y-41559700D01*
X87164300Y-41559700D01*
X87164300Y-41388451D01*
X87164298Y-41388435D01*
X87132646Y-41148012D01*
X87069878Y-40913760D01*
X86977079Y-40689721D01*
X86977072Y-40689706D01*
X86855819Y-40479690D01*
X86708189Y-40287294D01*
X86708183Y-40287287D01*
X86536712Y-40115816D01*
X86536705Y-40115810D01*
X86344309Y-39968180D01*
X86134293Y-39846927D01*
X86134278Y-39846920D01*
X85910239Y-39754121D01*
X85675987Y-39691353D01*
X85564300Y-39676648D01*
X85564300Y-41155579D01*
X85518482Y-41136601D01*
X85383244Y-41109700D01*
X85245356Y-41109700D01*
X85110118Y-41136601D01*
X85064300Y-41155579D01*
X85064300Y-39676648D01*
X85064299Y-39676648D01*
X84952612Y-39691353D01*
X84718360Y-39754121D01*
X84494321Y-39846920D01*
X84494306Y-39846927D01*
X84284290Y-39968180D01*
X84091894Y-40115810D01*
X84091887Y-40115816D01*
X83920416Y-40287287D01*
X83920410Y-40287294D01*
X83772780Y-40479690D01*
X83651527Y-40689706D01*
X83651520Y-40689721D01*
X83558721Y-40913760D01*
X83495953Y-41148012D01*
X83464301Y-41388435D01*
X83464300Y-41388451D01*
X44772700Y-41388451D01*
X44772700Y-38394300D01*
X44792385Y-38327261D01*
X44845189Y-38281506D01*
X44896700Y-38270300D01*
X123647700Y-38270300D01*
X123714739Y-38289985D01*
G37*
%TD.AperFunction*%
%TD*%
M02*
