%TF.GenerationSoftware,KiCad,Pcbnew,8.0.9-8.0.9-0~ubuntu20.04.1*%
%TF.CreationDate,2025-10-30T08:53:55-03:00*%
%TF.ProjectId,Alimenta__o,416c696d-656e-4746-91e7-e36f2e6b6963,rev?*%
%TF.SameCoordinates,Original*%
%TF.FileFunction,Paste,Top*%
%TF.FilePolarity,Positive*%
%FSLAX46Y46*%
G04 Gerber Fmt 4.6, Leading zero omitted, Abs format (unit mm)*
G04 Created by KiCad (PCBNEW 8.0.9-8.0.9-0~ubuntu20.04.1) date 2025-10-30 08:53:55*
%MOMM*%
%LPD*%
G01*
G04 APERTURE LIST*
G04 Aperture macros list*
%AMRoundRect*
0 Rectangle with rounded corners*
0 $1 Rounding radius*
0 $2 $3 $4 $5 $6 $7 $8 $9 X,Y pos of 4 corners*
0 Add a 4 corners polygon primitive as box body*
4,1,4,$2,$3,$4,$5,$6,$7,$8,$9,$2,$3,0*
0 Add four circle primitives for the rounded corners*
1,1,$1+$1,$2,$3*
1,1,$1+$1,$4,$5*
1,1,$1+$1,$6,$7*
1,1,$1+$1,$8,$9*
0 Add four rect primitives between the rounded corners*
20,1,$1+$1,$2,$3,$4,$5,0*
20,1,$1+$1,$4,$5,$6,$7,0*
20,1,$1+$1,$6,$7,$8,$9,0*
20,1,$1+$1,$8,$9,$2,$3,0*%
G04 Aperture macros list end*
%ADD10RoundRect,0.250000X0.475000X-0.337500X0.475000X0.337500X-0.475000X0.337500X-0.475000X-0.337500X0*%
%ADD11RoundRect,0.250000X-0.475000X0.337500X-0.475000X-0.337500X0.475000X-0.337500X0.475000X0.337500X0*%
%ADD12RoundRect,0.250000X0.650000X-1.500000X0.650000X1.500000X-0.650000X1.500000X-0.650000X-1.500000X0*%
%ADD13RoundRect,0.250000X-2.050000X-0.300000X2.050000X-0.300000X2.050000X0.300000X-2.050000X0.300000X0*%
%ADD14RoundRect,0.250000X-2.025000X-2.375000X2.025000X-2.375000X2.025000X2.375000X-2.025000X2.375000X0*%
%ADD15RoundRect,0.250000X0.450000X-0.350000X0.450000X0.350000X-0.450000X0.350000X-0.450000X-0.350000X0*%
%ADD16R,2.000000X4.000000*%
%ADD17R,4.000000X2.000000*%
%ADD18RoundRect,0.250000X-1.950000X-1.000000X1.950000X-1.000000X1.950000X1.000000X-1.950000X1.000000X0*%
%ADD19RoundRect,0.250000X1.950000X1.000000X-1.950000X1.000000X-1.950000X-1.000000X1.950000X-1.000000X0*%
G04 APERTURE END LIST*
D10*
%TO.C,C2*%
X118859500Y-57245750D03*
X118859500Y-55170750D03*
%TD*%
D11*
%TO.C,C16*%
X62685300Y-77331200D03*
X62685300Y-79406200D03*
%TD*%
D12*
%TO.C,D3*%
X82978600Y-86938900D03*
X82978600Y-81938900D03*
%TD*%
D13*
%TO.C,U3*%
X106002500Y-64492250D03*
X106002500Y-66192250D03*
X106002500Y-67892250D03*
D14*
X112727500Y-65117250D03*
X112727500Y-70667250D03*
X117577500Y-65117250D03*
X117577500Y-70667250D03*
D13*
X106002500Y-69592250D03*
X106002500Y-71292250D03*
%TD*%
D10*
%TO.C,C4*%
X57088000Y-81237900D03*
X57088000Y-79162900D03*
%TD*%
D12*
%TO.C,D1*%
X54294000Y-84068100D03*
X54294000Y-79068100D03*
%TD*%
D11*
%TO.C,C11*%
X83689800Y-76670400D03*
X83689800Y-78745400D03*
%TD*%
D12*
%TO.C,D2*%
X105575300Y-86749850D03*
X105575300Y-81749850D03*
%TD*%
D10*
%TO.C,C17*%
X77722100Y-89845600D03*
X77722100Y-87770600D03*
%TD*%
D15*
%TO.C,R1*%
X102781300Y-86723050D03*
X102781300Y-84723050D03*
%TD*%
D16*
%TO.C,L2*%
X53529400Y-64030800D03*
X50029400Y-64030800D03*
X50029400Y-72530800D03*
X53529400Y-72530800D03*
%TD*%
D17*
%TO.C,L1*%
X118081900Y-81866450D03*
X118081900Y-78366450D03*
X109581900Y-78366450D03*
X109581900Y-81866450D03*
%TD*%
D18*
%TO.C,C7*%
X49603400Y-92193100D03*
X57003400Y-92193100D03*
%TD*%
D19*
%TO.C,C14*%
X71693900Y-58277300D03*
X64293900Y-58277300D03*
%TD*%
D15*
%TO.C,R6*%
X80159200Y-76752100D03*
X80159200Y-74752100D03*
%TD*%
D17*
%TO.C,L4*%
X74480700Y-82716300D03*
X74480700Y-79216300D03*
X65980700Y-79216300D03*
X65980700Y-82716300D03*
%TD*%
D19*
%TO.C,C18*%
X74233900Y-92211700D03*
X66833900Y-92211700D03*
%TD*%
D15*
%TO.C,R4*%
X80184600Y-86912100D03*
X80184600Y-84912100D03*
%TD*%
%TO.C,R9*%
X59154700Y-77412900D03*
X59154700Y-75412900D03*
%TD*%
D11*
%TO.C,C3*%
X106286500Y-76481350D03*
X106286500Y-78556350D03*
%TD*%
D13*
%TO.C,U5*%
X62401300Y-65342100D03*
X62401300Y-67042100D03*
X62401300Y-68742100D03*
D14*
X69126300Y-65967100D03*
X69126300Y-71517100D03*
X73976300Y-65967100D03*
X73976300Y-71517100D03*
D13*
X62401300Y-70442100D03*
X62401300Y-72142100D03*
%TD*%
D15*
%TO.C,R5*%
X80159200Y-81857500D03*
X80159200Y-79857500D03*
%TD*%
D17*
%TO.C,L3*%
X95485200Y-82055500D03*
X95485200Y-78555500D03*
X86985200Y-78555500D03*
X86985200Y-82055500D03*
%TD*%
D13*
%TO.C,U4*%
X83405800Y-64681300D03*
X83405800Y-66381300D03*
X83405800Y-68081300D03*
D14*
X90130800Y-65306300D03*
X90130800Y-70856300D03*
X94980800Y-65306300D03*
X94980800Y-70856300D03*
D13*
X83405800Y-69781300D03*
X83405800Y-71481300D03*
%TD*%
D10*
%TO.C,C10*%
X96262800Y-57434800D03*
X96262800Y-55359800D03*
%TD*%
%TO.C,C6*%
X121323300Y-88995750D03*
X121323300Y-86920750D03*
%TD*%
D12*
%TO.C,D4*%
X61974100Y-87599700D03*
X61974100Y-82599700D03*
%TD*%
D10*
%TO.C,C15*%
X75258300Y-58095600D03*
X75258300Y-56020600D03*
%TD*%
D15*
%TO.C,R7*%
X59180100Y-87572900D03*
X59180100Y-85572900D03*
%TD*%
D19*
%TO.C,C8*%
X117835100Y-91361850D03*
X110435100Y-91361850D03*
%TD*%
D15*
%TO.C,R8*%
X59154700Y-82518300D03*
X59154700Y-80518300D03*
%TD*%
%TO.C,R2*%
X102755900Y-81668450D03*
X102755900Y-79668450D03*
%TD*%
D19*
%TO.C,C1*%
X115295100Y-57427450D03*
X107895100Y-57427450D03*
%TD*%
D10*
%TO.C,C12*%
X98726600Y-89184800D03*
X98726600Y-87109800D03*
%TD*%
D15*
%TO.C,R3*%
X102755900Y-76563050D03*
X102755900Y-74563050D03*
%TD*%
D19*
%TO.C,C13*%
X95238400Y-91550900D03*
X87838400Y-91550900D03*
%TD*%
%TO.C,C9*%
X92698400Y-57616500D03*
X85298400Y-57616500D03*
%TD*%
D10*
%TO.C,C5*%
X48198000Y-87236200D03*
X48198000Y-85161200D03*
%TD*%
M02*
