M48
; DRILL file {KiCad 8.0.9-8.0.9-0~ubuntu20.04.1} date 2025-10-30T08:53:57-0300
; FORMAT={-:-/ absolute / inch / decimal}
; #@! TF.CreationDate,2025-10-30T08:53:57-03:00
; #@! TF.GenerationSoftware,Kicad,Pcbnew,8.0.9-8.0.9-0~ubuntu20.04.1
; #@! TF.FileFunction,Plated,1,2,PTH
FMAT,2
INCH
; #@! TA.AperFunction,Plated,PTH,ViaDrill
T1C0.0118
; #@! TA.AperFunction,Plated,PTH,ComponentDrill
T2C0.0197
; #@! TA.AperFunction,Plated,PTH,ComponentDrill
T3C0.0315
; #@! TA.AperFunction,Plated,PTH,ComponentDrill
T4C0.0394
; #@! TA.AperFunction,Plated,PTH,ComponentDrill
T5C0.0551
; #@! TA.AperFunction,Plated,PTH,ComponentDrill
T6C0.1260
%
G90
G05
T1
X2.2476Y-3.1983
X2.4399Y-3.252
X2.4567Y-2.7734
X3.2837Y-2.7473
X4.1733Y-2.7399
T2
X1.9657Y-1.7928
X1.9934Y-1.726
X1.9934Y-1.8596
X2.0602Y-1.6983
X2.0602Y-1.8873
X2.127Y-1.726
X2.127Y-1.8596
X2.1547Y-1.7928
X2.904Y-4.128
X2.9317Y-4.0612
X2.9317Y-4.1948
X2.9985Y-4.0335
X2.9985Y-4.2225
X3.0653Y-4.0612
X3.0653Y-4.1948
X3.093Y-4.128
X4.0365Y-4.121
X4.0642Y-4.0542
X4.0642Y-4.1878
X4.131Y-4.0265
X4.131Y-4.2155
X4.1978Y-4.0542
X4.1978Y-4.1878
X4.2255Y-4.121
X4.4357Y-1.7888
X4.4634Y-1.722
X4.4634Y-1.8556
X4.5302Y-1.6943
X4.5302Y-1.8833
X4.597Y-1.722
X4.597Y-1.8556
X4.6247Y-1.7888
T3
X3.2474Y-2.1336
X3.2474Y-3.6886
X3.9225Y-2.1336
X3.9225Y-3.6886
T4
X1.9286Y-2.1216
X1.9306Y-3.8846
X2.4416Y-3.8846
X2.9526Y-3.8846
X3.0766Y-2.1286
X4.0905Y-2.1274
X4.0905Y-3.7274
X4.7905Y-2.1274
X4.7905Y-3.7274
T5
X2.2805Y-4.0866
X2.2805Y-4.3032
X2.4458Y-4.0866
X2.4458Y-4.3032
X2.6112Y-4.0866
X2.6112Y-4.3032
X3.3588Y-1.6461
X3.3588Y-1.8626
X3.4792Y-4.0866
X3.4792Y-4.3032
X3.5242Y-1.6461
X3.5242Y-1.8626
X3.6445Y-4.0866
X3.6445Y-4.3032
X4.5338Y-4.0866
X4.5338Y-4.3032
T6
X2.0602Y-1.7928
X2.9985Y-4.128
X4.131Y-4.121
X4.5302Y-1.7888
M30
