%TF.GenerationSoftware,KiCad,Pcbnew,8.0.9-8.0.9-0~ubuntu20.04.1*%
%TF.CreationDate,2025-10-30T08:53:55-03:00*%
%TF.ProjectId,Alimenta__o,416c696d-656e-4746-91e7-e36f2e6b6963,rev?*%
%TF.SameCoordinates,Original*%
%TF.FileFunction,Copper,L1,Top*%
%TF.FilePolarity,Positive*%
%FSLAX46Y46*%
G04 Gerber Fmt 4.6, Leading zero omitted, Abs format (unit mm)*
G04 Created by KiCad (PCBNEW 8.0.9-8.0.9-0~ubuntu20.04.1) date 2025-10-30 08:53:55*
%MOMM*%
%LPD*%
G01*
G04 APERTURE LIST*
G04 Aperture macros list*
%AMRoundRect*
0 Rectangle with rounded corners*
0 $1 Rounding radius*
0 $2 $3 $4 $5 $6 $7 $8 $9 X,Y pos of 4 corners*
0 Add a 4 corners polygon primitive as box body*
4,1,4,$2,$3,$4,$5,$6,$7,$8,$9,$2,$3,0*
0 Add four circle primitives for the rounded corners*
1,1,$1+$1,$2,$3*
1,1,$1+$1,$4,$5*
1,1,$1+$1,$6,$7*
1,1,$1+$1,$8,$9*
0 Add four rect primitives between the rounded corners*
20,1,$1+$1,$2,$3,$4,$5,0*
20,1,$1+$1,$4,$5,$6,$7,0*
20,1,$1+$1,$6,$7,$8,$9,0*
20,1,$1+$1,$8,$9,$2,$3,0*%
G04 Aperture macros list end*
%TA.AperFunction,SMDPad,CuDef*%
%ADD10RoundRect,0.250000X0.475000X-0.337500X0.475000X0.337500X-0.475000X0.337500X-0.475000X-0.337500X0*%
%TD*%
%TA.AperFunction,SMDPad,CuDef*%
%ADD11RoundRect,0.250000X-0.475000X0.337500X-0.475000X-0.337500X0.475000X-0.337500X0.475000X0.337500X0*%
%TD*%
%TA.AperFunction,SMDPad,CuDef*%
%ADD12RoundRect,0.250000X0.650000X-1.500000X0.650000X1.500000X-0.650000X1.500000X-0.650000X-1.500000X0*%
%TD*%
%TA.AperFunction,SMDPad,CuDef*%
%ADD13RoundRect,0.250000X-2.050000X-0.300000X2.050000X-0.300000X2.050000X0.300000X-2.050000X0.300000X0*%
%TD*%
%TA.AperFunction,SMDPad,CuDef*%
%ADD14RoundRect,0.250000X-2.025000X-2.375000X2.025000X-2.375000X2.025000X2.375000X-2.025000X2.375000X0*%
%TD*%
%TA.AperFunction,SMDPad,CuDef*%
%ADD15RoundRect,0.250002X-4.449998X-5.149998X4.449998X-5.149998X4.449998X5.149998X-4.449998X5.149998X0*%
%TD*%
%TA.AperFunction,SMDPad,CuDef*%
%ADD16RoundRect,0.250000X0.450000X-0.350000X0.450000X0.350000X-0.450000X0.350000X-0.450000X-0.350000X0*%
%TD*%
%TA.AperFunction,ComponentPad*%
%ADD17C,1.600000*%
%TD*%
%TA.AperFunction,ComponentPad*%
%ADD18C,0.800000*%
%TD*%
%TA.AperFunction,ComponentPad*%
%ADD19C,6.400000*%
%TD*%
%TA.AperFunction,SMDPad,CuDef*%
%ADD20R,2.000000X4.000000*%
%TD*%
%TA.AperFunction,SMDPad,CuDef*%
%ADD21R,4.000000X2.000000*%
%TD*%
%TA.AperFunction,SMDPad,CuDef*%
%ADD22RoundRect,0.250000X-1.950000X-1.000000X1.950000X-1.000000X1.950000X1.000000X-1.950000X1.000000X0*%
%TD*%
%TA.AperFunction,ComponentPad*%
%ADD23RoundRect,0.250001X1.099999X1.399999X-1.099999X1.399999X-1.099999X-1.399999X1.099999X-1.399999X0*%
%TD*%
%TA.AperFunction,ComponentPad*%
%ADD24O,2.700000X3.300000*%
%TD*%
%TA.AperFunction,ComponentPad*%
%ADD25R,1.700000X1.700000*%
%TD*%
%TA.AperFunction,SMDPad,CuDef*%
%ADD26RoundRect,0.250000X1.950000X1.000000X-1.950000X1.000000X-1.950000X-1.000000X1.950000X-1.000000X0*%
%TD*%
%TA.AperFunction,ComponentPad*%
%ADD27R,2.540000X2.540000*%
%TD*%
%TA.AperFunction,ComponentPad*%
%ADD28C,2.540000*%
%TD*%
%TA.AperFunction,ComponentPad*%
%ADD29RoundRect,0.250001X-1.099999X-1.399999X1.099999X-1.399999X1.099999X1.399999X-1.099999X1.399999X0*%
%TD*%
%TA.AperFunction,ViaPad*%
%ADD30C,0.600000*%
%TD*%
%TA.AperFunction,Conductor*%
%ADD31C,1.000000*%
%TD*%
G04 APERTURE END LIST*
D10*
%TO.P,C2,1*%
%TO.N,+12V*%
X118859500Y-57245750D03*
%TO.P,C2,2*%
%TO.N,GND*%
X118859500Y-55170750D03*
%TD*%
D11*
%TO.P,C16,1*%
%TO.N,/Conversor 12 to 15V - Sim\u00E9trico/SEPIC_XL6010/SW*%
X62685300Y-77331200D03*
%TO.P,C16,2*%
%TO.N,/Conversor 12 to 15V - Sim\u00E9trico/SEPIC_XL6010/L_out*%
X62685300Y-79406200D03*
%TD*%
D12*
%TO.P,D3,1,K*%
%TO.N,15V*%
X82978600Y-86938900D03*
%TO.P,D3,2,A*%
%TO.N,/Conversor 12 to 15V/SEPIC_XL6012/L_out*%
X82978600Y-81938900D03*
%TD*%
D13*
%TO.P,U3,1,GND*%
%TO.N,GND*%
X106002500Y-64492250D03*
%TO.P,U3,2,EN*%
%TO.N,unconnected-(U3-EN-Pad2)*%
X106002500Y-66192250D03*
%TO.P,U3,3,SW*%
%TO.N,/Conversor 12 to 5V/SEPIC_XL6011/SW*%
X106002500Y-67892250D03*
D14*
X112727500Y-65117250D03*
X112727500Y-70667250D03*
D15*
X115152500Y-67892250D03*
D14*
X117577500Y-65117250D03*
X117577500Y-70667250D03*
D13*
%TO.P,U3,4,VIN*%
%TO.N,+12V*%
X106002500Y-69592250D03*
%TO.P,U3,5,FB*%
%TO.N,Net-(U3-FB)*%
X106002500Y-71292250D03*
%TD*%
D10*
%TO.P,C4,1*%
%TO.N,/Conversor 12 to 15V - Sim\u00E9trico/SEPIC_XL6010/L_out*%
X57088000Y-81237900D03*
%TO.P,C4,2*%
%TO.N,Net-(D1-A)*%
X57088000Y-79162900D03*
%TD*%
D12*
%TO.P,D1,1,K*%
%TO.N,GND*%
X54294000Y-84068100D03*
%TO.P,D1,2,A*%
%TO.N,Net-(D1-A)*%
X54294000Y-79068100D03*
%TD*%
D11*
%TO.P,C11,1*%
%TO.N,/Conversor 12 to 15V/SEPIC_XL6012/SW*%
X83689800Y-76670400D03*
%TO.P,C11,2*%
%TO.N,/Conversor 12 to 15V/SEPIC_XL6012/L_out*%
X83689800Y-78745400D03*
%TD*%
D12*
%TO.P,D2,1,K*%
%TO.N,5V*%
X105575300Y-86749850D03*
%TO.P,D2,2,A*%
%TO.N,/Conversor 12 to 5V/SEPIC_XL6011/L_out*%
X105575300Y-81749850D03*
%TD*%
D10*
%TO.P,C17,1*%
%TO.N,+15V_sym*%
X77722100Y-89845600D03*
%TO.P,C17,2*%
%TO.N,GND*%
X77722100Y-87770600D03*
%TD*%
D16*
%TO.P,R1,1*%
%TO.N,5V*%
X102781300Y-86723050D03*
%TO.P,R1,2*%
%TO.N,Net-(R1-Pad2)*%
X102781300Y-84723050D03*
%TD*%
D17*
%TO.P,U2,1,Vin*%
%TO.N,+12V*%
X99631700Y-54194300D03*
%TO.P,U2,2,GND*%
%TO.N,GND*%
X82483700Y-54194300D03*
%TO.P,U2,3,Vout*%
%TO.N,15V*%
X99631700Y-93691300D03*
%TO.P,U2,4,GND*%
%TO.N,GND*%
X82483700Y-93691300D03*
%TD*%
D18*
%TO.P,H4,1,1*%
%TO.N,GND*%
X102527400Y-104673400D03*
X103230344Y-102976344D03*
X103230344Y-106370456D03*
X104927400Y-102273400D03*
D19*
X104927400Y-104673400D03*
D18*
X104927400Y-107073400D03*
X106624456Y-102976344D03*
X106624456Y-106370456D03*
X107327400Y-104673400D03*
%TD*%
D20*
%TO.P,L2,1,1*%
%TO.N,+12V*%
X53529400Y-64030800D03*
%TO.P,L2,2,2*%
%TO.N,-15V_sym*%
X50029400Y-64030800D03*
%TO.P,L2,3,3*%
%TO.N,/Conversor 12 to 15V - Sim\u00E9trico/SEPIC_XL6010/SW*%
X50029400Y-72530800D03*
%TO.P,L2,4,4*%
%TO.N,Net-(D1-A)*%
X53529400Y-72530800D03*
%TD*%
D21*
%TO.P,L1,1,1*%
%TO.N,+12V*%
X118081900Y-81866450D03*
%TO.P,L1,2,2*%
%TO.N,GND*%
X118081900Y-78366450D03*
%TO.P,L1,3,3*%
%TO.N,/Conversor 12 to 5V/SEPIC_XL6011/SW*%
X109581900Y-78366450D03*
%TO.P,L1,4,4*%
%TO.N,/Conversor 12 to 5V/SEPIC_XL6011/L_out*%
X109581900Y-81866450D03*
%TD*%
D22*
%TO.P,C7,1*%
%TO.N,-15V_sym*%
X49603400Y-92193100D03*
%TO.P,C7,2*%
%TO.N,GND*%
X57003400Y-92193100D03*
%TD*%
D23*
%TO.P,J1,1,Pin_1*%
%TO.N,+12V*%
X89514300Y-47309700D03*
D24*
%TO.P,J1,2,Pin_2*%
%TO.N,GND*%
X85314300Y-47309700D03*
%TO.P,J1,3,Pin_3*%
%TO.N,+12V*%
X89514300Y-41809700D03*
%TO.P,J1,4,Pin_4*%
%TO.N,GND*%
X85314300Y-41809700D03*
%TD*%
D25*
%TO.P,J17,1,Pin_1*%
%TO.N,+15V_sym*%
X74995000Y-98670100D03*
%TD*%
D26*
%TO.P,C14,1*%
%TO.N,+12V*%
X71693900Y-58277300D03*
%TO.P,C14,2*%
%TO.N,GND*%
X64293900Y-58277300D03*
%TD*%
D18*
%TO.P,H2,1,1*%
%TO.N,GND*%
X112666744Y-45435856D03*
X113369688Y-43738800D03*
X113369688Y-47132912D03*
X115066744Y-43035856D03*
D19*
X115066744Y-45435856D03*
D18*
X115066744Y-47835856D03*
X116763800Y-43738800D03*
X116763800Y-47132912D03*
X117466744Y-45435856D03*
%TD*%
D16*
%TO.P,R6,1*%
%TO.N,Net-(U4-FB)*%
X80159200Y-76752100D03*
%TO.P,R6,2*%
%TO.N,GND*%
X80159200Y-74752100D03*
%TD*%
D21*
%TO.P,L4,1,1*%
%TO.N,+12V*%
X74480700Y-82716300D03*
%TO.P,L4,2,2*%
%TO.N,GND*%
X74480700Y-79216300D03*
%TO.P,L4,3,3*%
%TO.N,/Conversor 12 to 15V - Sim\u00E9trico/SEPIC_XL6010/SW*%
X65980700Y-79216300D03*
%TO.P,L4,4,4*%
%TO.N,/Conversor 12 to 15V - Sim\u00E9trico/SEPIC_XL6010/L_out*%
X65980700Y-82716300D03*
%TD*%
D18*
%TO.P,H3,1,1*%
%TO.N,GND*%
X73761600Y-104851200D03*
X74464544Y-103154144D03*
X74464544Y-106548256D03*
X76161600Y-102451200D03*
D19*
X76161600Y-104851200D03*
D18*
X76161600Y-107251200D03*
X77858656Y-103154144D03*
X77858656Y-106548256D03*
X78561600Y-104851200D03*
%TD*%
D26*
%TO.P,C18,1*%
%TO.N,+15V_sym*%
X74233900Y-92211700D03*
%TO.P,C18,2*%
%TO.N,GND*%
X66833900Y-92211700D03*
%TD*%
D27*
%TO.P,U1,1,Vin*%
%TO.N,+12V*%
X121678900Y-54036750D03*
D28*
%TO.P,U1,2,GND*%
%TO.N,GND*%
X103898900Y-54036750D03*
%TO.P,U1,3,GND*%
X103898900Y-94676750D03*
%TO.P,U1,4,Vout*%
%TO.N,5V*%
X121678900Y-94676750D03*
%TD*%
D25*
%TO.P,J16,1,Pin_1*%
%TO.N,GND*%
X62015600Y-98670100D03*
%TD*%
D16*
%TO.P,R4,1*%
%TO.N,15V*%
X80184600Y-86912100D03*
%TO.P,R4,2*%
%TO.N,Net-(R4-Pad2)*%
X80184600Y-84912100D03*
%TD*%
%TO.P,R9,1*%
%TO.N,Net-(U5-FB)*%
X59154700Y-77412900D03*
%TO.P,R9,2*%
%TO.N,GND*%
X59154700Y-75412900D03*
%TD*%
D11*
%TO.P,C3,1*%
%TO.N,/Conversor 12 to 5V/SEPIC_XL6011/SW*%
X106286500Y-76481350D03*
%TO.P,C3,2*%
%TO.N,/Conversor 12 to 5V/SEPIC_XL6011/L_out*%
X106286500Y-78556350D03*
%TD*%
D13*
%TO.P,U5,1,GND*%
%TO.N,GND*%
X62401300Y-65342100D03*
%TO.P,U5,2,EN*%
%TO.N,unconnected-(U5-EN-Pad2)*%
X62401300Y-67042100D03*
%TO.P,U5,3,SW*%
%TO.N,/Conversor 12 to 15V - Sim\u00E9trico/SEPIC_XL6010/SW*%
X62401300Y-68742100D03*
D14*
X69126300Y-65967100D03*
X69126300Y-71517100D03*
D15*
X71551300Y-68742100D03*
D14*
X73976300Y-65967100D03*
X73976300Y-71517100D03*
D13*
%TO.P,U5,4,VIN*%
%TO.N,+12V*%
X62401300Y-70442100D03*
%TO.P,U5,5,FB*%
%TO.N,Net-(U5-FB)*%
X62401300Y-72142100D03*
%TD*%
D16*
%TO.P,R5,1*%
%TO.N,Net-(R4-Pad2)*%
X80159200Y-81857500D03*
%TO.P,R5,2*%
%TO.N,Net-(U4-FB)*%
X80159200Y-79857500D03*
%TD*%
D18*
%TO.P,H1,1,1*%
%TO.N,GND*%
X49928744Y-45537456D03*
X50631688Y-43840400D03*
X50631688Y-47234512D03*
X52328744Y-43137456D03*
D19*
X52328744Y-45537456D03*
D18*
X52328744Y-47937456D03*
X54025800Y-43840400D03*
X54025800Y-47234512D03*
X54728744Y-45537456D03*
%TD*%
D29*
%TO.P,J3,1,Pin_1*%
%TO.N,15V*%
X88370500Y-103800500D03*
D24*
%TO.P,J3,2,Pin_2*%
%TO.N,GND*%
X92570500Y-103800500D03*
%TO.P,J3,3,Pin_3*%
%TO.N,15V*%
X88370500Y-109300500D03*
%TO.P,J3,4,Pin_4*%
%TO.N,GND*%
X92570500Y-109300500D03*
%TD*%
D21*
%TO.P,L3,1,1*%
%TO.N,+12V*%
X95485200Y-82055500D03*
%TO.P,L3,2,2*%
%TO.N,GND*%
X95485200Y-78555500D03*
%TO.P,L3,3,3*%
%TO.N,/Conversor 12 to 15V/SEPIC_XL6012/SW*%
X86985200Y-78555500D03*
%TO.P,L3,4,4*%
%TO.N,/Conversor 12 to 15V/SEPIC_XL6012/L_out*%
X86985200Y-82055500D03*
%TD*%
D13*
%TO.P,U4,1,GND*%
%TO.N,GND*%
X83405800Y-64681300D03*
%TO.P,U4,2,EN*%
%TO.N,unconnected-(U4-EN-Pad2)*%
X83405800Y-66381300D03*
%TO.P,U4,3,SW*%
%TO.N,/Conversor 12 to 15V/SEPIC_XL6012/SW*%
X83405800Y-68081300D03*
D14*
X90130800Y-65306300D03*
X90130800Y-70856300D03*
D15*
X92555800Y-68081300D03*
D14*
X94980800Y-65306300D03*
X94980800Y-70856300D03*
D13*
%TO.P,U4,4,VIN*%
%TO.N,+12V*%
X83405800Y-69781300D03*
%TO.P,U4,5,FB*%
%TO.N,Net-(U4-FB)*%
X83405800Y-71481300D03*
%TD*%
D10*
%TO.P,C10,1*%
%TO.N,+12V*%
X96262800Y-57434800D03*
%TO.P,C10,2*%
%TO.N,GND*%
X96262800Y-55359800D03*
%TD*%
%TO.P,C6,1*%
%TO.N,5V*%
X121323300Y-88995750D03*
%TO.P,C6,2*%
%TO.N,GND*%
X121323300Y-86920750D03*
%TD*%
D12*
%TO.P,D4,1,K*%
%TO.N,+15V_sym*%
X61974100Y-87599700D03*
%TO.P,D4,2,A*%
%TO.N,/Conversor 12 to 15V - Sim\u00E9trico/SEPIC_XL6010/L_out*%
X61974100Y-82599700D03*
%TD*%
D29*
%TO.P,J2,1,Pin_1*%
%TO.N,-15V_sym*%
X57924100Y-103800500D03*
D24*
%TO.P,J2,2,Pin_2*%
%TO.N,GND*%
X62124100Y-103800500D03*
%TO.P,J2,3,Pin_3*%
%TO.N,+15V_sym*%
X66324100Y-103800500D03*
%TO.P,J2,4,Pin_4*%
%TO.N,-15V_sym*%
X57924100Y-109300500D03*
%TO.P,J2,5,Pin_5*%
%TO.N,GND*%
X62124100Y-109300500D03*
%TO.P,J2,6,Pin_6*%
%TO.N,+15V_sym*%
X66324100Y-109300500D03*
%TD*%
D10*
%TO.P,C15,1*%
%TO.N,+12V*%
X75258300Y-58095600D03*
%TO.P,C15,2*%
%TO.N,GND*%
X75258300Y-56020600D03*
%TD*%
D16*
%TO.P,R7,1*%
%TO.N,+15V_sym*%
X59180100Y-87572900D03*
%TO.P,R7,2*%
%TO.N,Net-(R7-Pad2)*%
X59180100Y-85572900D03*
%TD*%
D26*
%TO.P,C8,1*%
%TO.N,5V*%
X117835100Y-91361850D03*
%TO.P,C8,2*%
%TO.N,GND*%
X110435100Y-91361850D03*
%TD*%
D25*
%TO.P,J13,1,Pin_1*%
%TO.N,+12V*%
X78144600Y-54067700D03*
%TD*%
D16*
%TO.P,R8,1*%
%TO.N,Net-(R7-Pad2)*%
X59154700Y-82518300D03*
%TO.P,R8,2*%
%TO.N,Net-(U5-FB)*%
X59154700Y-80518300D03*
%TD*%
%TO.P,R2,1*%
%TO.N,Net-(R1-Pad2)*%
X102755900Y-81668450D03*
%TO.P,R2,2*%
%TO.N,Net-(U3-FB)*%
X102755900Y-79668450D03*
%TD*%
D26*
%TO.P,C1,1*%
%TO.N,+12V*%
X115295100Y-57427450D03*
%TO.P,C1,2*%
%TO.N,GND*%
X107895100Y-57427450D03*
%TD*%
D10*
%TO.P,C12,1*%
%TO.N,15V*%
X98726600Y-89184800D03*
%TO.P,C12,2*%
%TO.N,GND*%
X98726600Y-87109800D03*
%TD*%
D25*
%TO.P,J14,1,Pin_1*%
%TO.N,GND*%
X48985400Y-53889900D03*
%TD*%
D16*
%TO.P,R3,1*%
%TO.N,Net-(U3-FB)*%
X102755900Y-76563050D03*
%TO.P,R3,2*%
%TO.N,GND*%
X102755900Y-74563050D03*
%TD*%
D26*
%TO.P,C13,1*%
%TO.N,15V*%
X95238400Y-91550900D03*
%TO.P,C13,2*%
%TO.N,GND*%
X87838400Y-91550900D03*
%TD*%
%TO.P,C9,1*%
%TO.N,+12V*%
X92698400Y-57616500D03*
%TO.P,C9,2*%
%TO.N,GND*%
X85298400Y-57616500D03*
%TD*%
D25*
%TO.P,J15,1,Pin_1*%
%TO.N,-15V_sym*%
X49036200Y-98670100D03*
%TD*%
D29*
%TO.P,J4,1,Pin_1*%
%TO.N,GND*%
X115159300Y-103800500D03*
D24*
%TO.P,J4,2,Pin_2*%
%TO.N,5V*%
X115159300Y-109300500D03*
%TD*%
D10*
%TO.P,C5,1*%
%TO.N,-15V_sym*%
X48198000Y-87236200D03*
%TO.P,C5,2*%
%TO.N,GND*%
X48198000Y-85161200D03*
%TD*%
D30*
%TO.N,+12V*%
X62399500Y-70443900D03*
X83405800Y-69781300D03*
X106002500Y-69592250D03*
%TO.N,/Conversor 12 to 15V - Sim\u00E9trico/SEPIC_XL6010/L_out*%
X57088000Y-81237900D03*
X61974100Y-82599700D03*
%TD*%
D31*
%TO.N,GND*%
X54294000Y-84068100D02*
X54294000Y-89483700D01*
X66815300Y-92193100D02*
X66833900Y-92211700D01*
X62142600Y-92193100D02*
X66815300Y-92193100D01*
X62015600Y-98670100D02*
X62015600Y-92320100D01*
X54294000Y-89483700D02*
X57003400Y-92193100D01*
X57003400Y-92193100D02*
X62142600Y-92193100D01*
X62015600Y-92320100D02*
X62142600Y-92193100D01*
%TO.N,+12V*%
X95485200Y-82055500D02*
X97373700Y-82055500D01*
X97081000Y-57434800D02*
X99631700Y-54884100D01*
X121221700Y-58359900D02*
X121221700Y-80305500D01*
X76265900Y-82716300D02*
X74480700Y-82716300D01*
X97081000Y-57434800D02*
X96262800Y-57434800D01*
X75258300Y-58095600D02*
X75983300Y-58095600D01*
X119660750Y-81866450D02*
X118081900Y-81866450D01*
X121678900Y-54959750D02*
X121678900Y-54036750D01*
X92698400Y-57616500D02*
X96081100Y-57616500D01*
X78144600Y-55934300D02*
X78144600Y-54067700D01*
X69356200Y-61586100D02*
X71693900Y-59248400D01*
X97373700Y-82055500D02*
X99149100Y-80280100D01*
X115295100Y-57427450D02*
X118677800Y-57427450D01*
X99149100Y-59502900D02*
X97081000Y-57434800D01*
X62399500Y-70443900D02*
X62401300Y-70442100D01*
X99631700Y-54884100D02*
X99631700Y-54194300D01*
X120107550Y-57245750D02*
X121221700Y-58359900D01*
X118677800Y-57427450D02*
X118859500Y-57245750D01*
X77686100Y-81296100D02*
X76265900Y-82716300D01*
X71693900Y-59248400D02*
X71693900Y-58277300D01*
X121221700Y-80305500D02*
X119660750Y-81866450D01*
X118859500Y-57245750D02*
X119392900Y-57245750D01*
X119392900Y-57245750D02*
X121678900Y-54959750D01*
X118859500Y-57245750D02*
X120107550Y-57245750D01*
X77686100Y-60523400D02*
X77686100Y-81296100D01*
X75983300Y-58095600D02*
X78144600Y-55934300D01*
X53529400Y-64030800D02*
X55974100Y-61586100D01*
X96081100Y-57616500D02*
X96262800Y-57434800D01*
X55974100Y-61586100D02*
X69356200Y-61586100D01*
X71693900Y-58277300D02*
X75076600Y-58277300D01*
X75258300Y-58095600D02*
X77686100Y-60523400D01*
X75076600Y-58277300D02*
X75258300Y-58095600D01*
X74484900Y-82712100D02*
X74480700Y-82716300D01*
X99149100Y-80280100D02*
X99149100Y-59502900D01*
%TO.N,-15V_sym*%
X57924100Y-109300500D02*
X57924100Y-103800500D01*
X49036200Y-98670100D02*
X49036200Y-92760300D01*
X49036200Y-92760300D02*
X49603400Y-92193100D01*
X48198000Y-90787700D02*
X49603400Y-92193100D01*
X48198000Y-87236200D02*
X48198000Y-90787700D01*
X50029400Y-64030800D02*
X46647300Y-67412900D01*
X52793700Y-98670100D02*
X57924100Y-103800500D01*
X46647300Y-67412900D02*
X46647300Y-89237000D01*
X49036200Y-98670100D02*
X52793700Y-98670100D01*
X46647300Y-89237000D02*
X49603400Y-92193100D01*
%TO.N,+15V_sym*%
X74995000Y-98670100D02*
X71454500Y-98670100D01*
X61947300Y-87572900D02*
X61974100Y-87599700D01*
X74995000Y-92972800D02*
X74233900Y-92211700D01*
X61974100Y-87599700D02*
X69621900Y-87599700D01*
X74995000Y-98670100D02*
X74995000Y-92972800D01*
X77722100Y-89845600D02*
X76600000Y-89845600D01*
X59180100Y-87572900D02*
X61947300Y-87572900D01*
X69621900Y-87599700D02*
X74233900Y-92211700D01*
X71454500Y-98670100D02*
X66324100Y-103800500D01*
X76600000Y-89845600D02*
X74233900Y-92211700D01*
X66324100Y-103800500D02*
X66324100Y-109300500D01*
%TO.N,5V*%
X121678900Y-94676750D02*
X121678900Y-103800500D01*
X118414800Y-91361850D02*
X121729700Y-94676750D01*
X121323300Y-94321150D02*
X121678900Y-94676750D01*
X121323300Y-88995750D02*
X121323300Y-94321150D01*
X117835100Y-91361850D02*
X118414800Y-91361850D01*
X116178900Y-109300500D02*
X115159300Y-109300500D01*
X121678900Y-103800500D02*
X116178900Y-109300500D01*
X105548500Y-86723050D02*
X105575300Y-86749850D01*
X117835100Y-91361850D02*
X113223100Y-86749850D01*
X113223100Y-86749850D02*
X105575300Y-86749850D01*
X102781300Y-86723050D02*
X105548500Y-86723050D01*
%TO.N,15V*%
X97491300Y-91550900D02*
X99631700Y-93691300D01*
X98726600Y-89184800D02*
X98726600Y-92786200D01*
X95238400Y-91550900D02*
X97491300Y-91550900D01*
X82951800Y-86912100D02*
X82978600Y-86938900D01*
X99631700Y-93691300D02*
X96304300Y-93691300D01*
X96304300Y-93691300D02*
X88370500Y-101625100D01*
X98726600Y-92786200D02*
X99631700Y-93691300D01*
X82978600Y-86938900D02*
X90626400Y-86938900D01*
X80184600Y-86912100D02*
X82951800Y-86912100D01*
X88370500Y-101625100D02*
X88370500Y-103800500D01*
X88370500Y-103800500D02*
X88370500Y-109300500D01*
X90626400Y-86938900D02*
X95238400Y-91550900D01*
%TO.N,Net-(D1-A)*%
X56993200Y-79068100D02*
X57088000Y-79162900D01*
X53529400Y-78303500D02*
X54294000Y-79068100D01*
X54294000Y-79068100D02*
X56993200Y-79068100D01*
X53529400Y-72530800D02*
X53529400Y-78303500D01*
%TO.N,Net-(U3-FB)*%
X103455900Y-76563050D02*
X102755900Y-76563050D01*
X106002500Y-71292250D02*
X106002500Y-74016450D01*
X102755900Y-76563050D02*
X102755900Y-79668450D01*
X106002500Y-74016450D02*
X103455900Y-76563050D01*
%TO.N,/Conversor 12 to 5V/SEPIC_XL6011/L_out*%
X105575300Y-81749850D02*
X105575300Y-79267550D01*
X105691900Y-81866450D02*
X105575300Y-81749850D01*
X109581900Y-81866450D02*
X105691900Y-81866450D01*
X105575300Y-79267550D02*
X106286500Y-78556350D01*
%TO.N,/Conversor 12 to 5V/SEPIC_XL6011/SW*%
X109581900Y-73812850D02*
X112727500Y-70667250D01*
X106286500Y-76481350D02*
X107696800Y-76481350D01*
X109581900Y-78366450D02*
X109581900Y-73812850D01*
X106002500Y-67892250D02*
X115152500Y-67892250D01*
X107696800Y-76481350D02*
X109581900Y-78366450D01*
%TO.N,/Conversor 12 to 15V - Sim\u00E9trico/SEPIC_XL6010/L_out*%
X57086700Y-81239200D02*
X57088000Y-81237900D01*
X61974100Y-80117400D02*
X62685300Y-79406200D01*
X62090700Y-82716300D02*
X61974100Y-82599700D01*
X61974100Y-80117400D02*
X61974100Y-82599700D01*
X65980700Y-82716300D02*
X62090700Y-82716300D01*
%TO.N,/Conversor 12 to 15V/SEPIC_XL6012/L_out*%
X83095200Y-82055500D02*
X82978600Y-81938900D01*
X82978600Y-79456600D02*
X83689800Y-78745400D01*
X82978600Y-81938900D02*
X82978600Y-79456600D01*
X86985200Y-82055500D02*
X83095200Y-82055500D01*
%TO.N,/Conversor 12 to 15V/SEPIC_XL6012/SW*%
X83689800Y-76670400D02*
X85100100Y-76670400D01*
X86985200Y-74001900D02*
X90130800Y-70856300D01*
X86985200Y-78555500D02*
X86985200Y-74001900D01*
X83405800Y-68081300D02*
X92555800Y-68081300D01*
X85100100Y-76670400D02*
X86985200Y-78555500D01*
%TO.N,/Conversor 12 to 15V - Sim\u00E9trico/SEPIC_XL6010/SW*%
X65980700Y-79216300D02*
X65980700Y-74662700D01*
X51735400Y-68742100D02*
X62401300Y-68742100D01*
X64095600Y-77331200D02*
X65980700Y-79216300D01*
X62685300Y-77331200D02*
X64095600Y-77331200D01*
X50029400Y-72530800D02*
X50029400Y-70448100D01*
X50029400Y-70448100D02*
X51735400Y-68742100D01*
X65980700Y-74662700D02*
X69126300Y-71517100D01*
X62401300Y-68742100D02*
X71551300Y-68742100D01*
%TO.N,Net-(R1-Pad2)*%
X102781300Y-84723050D02*
X102781300Y-81693850D01*
X102781300Y-81693850D02*
X102755900Y-81668450D01*
%TO.N,Net-(R4-Pad2)*%
X80184600Y-81882900D02*
X80159200Y-81857500D01*
X80184600Y-84912100D02*
X80184600Y-81882900D01*
%TO.N,Net-(U4-FB)*%
X80159200Y-76752100D02*
X80159200Y-79857500D01*
X83405800Y-74205500D02*
X80859200Y-76752100D01*
X83405800Y-71481300D02*
X83405800Y-74205500D01*
X80859200Y-76752100D02*
X80159200Y-76752100D01*
%TO.N,Net-(R7-Pad2)*%
X59180100Y-82543700D02*
X59154700Y-82518300D01*
X59180100Y-85572900D02*
X59180100Y-82543700D01*
%TO.N,Net-(U5-FB)*%
X59154700Y-80518300D02*
X59154700Y-77412900D01*
X59598300Y-77412900D02*
X59154700Y-77412900D01*
X62401300Y-74609900D02*
X59598300Y-77412900D01*
X62401300Y-72142100D02*
X62401300Y-74609900D01*
%TD*%
%TA.AperFunction,Conductor*%
%TO.N,GND*%
G36*
X123714739Y-38289985D02*
G01*
X123760494Y-38342789D01*
X123771700Y-38394300D01*
X123771700Y-112145300D01*
X123752015Y-112212339D01*
X123699211Y-112258094D01*
X123647700Y-112269300D01*
X44896700Y-112269300D01*
X44829661Y-112249615D01*
X44783906Y-112196811D01*
X44772700Y-112145300D01*
X44772700Y-108270893D01*
X47756600Y-108270893D01*
X47756600Y-108270906D01*
X47775764Y-108502197D01*
X47775766Y-108502208D01*
X47832742Y-108727200D01*
X47925975Y-108939748D01*
X48052916Y-109134047D01*
X48052919Y-109134051D01*
X48052921Y-109134053D01*
X48210116Y-109304813D01*
X48210119Y-109304815D01*
X48210122Y-109304818D01*
X48393265Y-109447364D01*
X48393271Y-109447368D01*
X48393274Y-109447370D01*
X48597397Y-109557836D01*
X48711387Y-109596968D01*
X48816915Y-109633197D01*
X48816917Y-109633197D01*
X48816919Y-109633198D01*
X49045851Y-109671400D01*
X49045852Y-109671400D01*
X49277948Y-109671400D01*
X49277949Y-109671400D01*
X49506881Y-109633198D01*
X49726403Y-109557836D01*
X49930526Y-109447370D01*
X50113684Y-109304813D01*
X50270879Y-109134053D01*
X50397824Y-108939749D01*
X50491057Y-108727200D01*
X50548034Y-108502205D01*
X50548035Y-108502197D01*
X50567200Y-108270906D01*
X50567200Y-108270893D01*
X50548035Y-108039602D01*
X50548033Y-108039591D01*
X50491057Y-107814599D01*
X50397824Y-107602051D01*
X50270883Y-107407752D01*
X50270880Y-107407749D01*
X50270879Y-107407747D01*
X50113684Y-107236987D01*
X50113679Y-107236983D01*
X50113677Y-107236981D01*
X49930534Y-107094435D01*
X49930528Y-107094431D01*
X49726404Y-106983964D01*
X49726395Y-106983961D01*
X49506884Y-106908602D01*
X49335182Y-106879950D01*
X49277949Y-106870400D01*
X49045851Y-106870400D01*
X49000064Y-106878040D01*
X48816915Y-106908602D01*
X48597404Y-106983961D01*
X48597395Y-106983964D01*
X48393271Y-107094431D01*
X48393265Y-107094435D01*
X48210122Y-107236981D01*
X48210119Y-107236984D01*
X48052916Y-107407752D01*
X47925975Y-107602051D01*
X47832742Y-107814599D01*
X47775766Y-108039591D01*
X47775764Y-108039602D01*
X47756600Y-108270893D01*
X44772700Y-108270893D01*
X44772700Y-89335543D01*
X45646799Y-89335543D01*
X45685247Y-89528829D01*
X45685250Y-89528839D01*
X45760664Y-89710907D01*
X45760671Y-89710920D01*
X45870159Y-89874780D01*
X45870160Y-89874781D01*
X45870161Y-89874782D01*
X46009518Y-90014139D01*
X46009519Y-90014139D01*
X46016586Y-90021206D01*
X46016585Y-90021206D01*
X46016589Y-90021209D01*
X46889753Y-90894373D01*
X46923238Y-90955696D01*
X46919779Y-91021054D01*
X46913402Y-91040297D01*
X46913400Y-91040309D01*
X46902900Y-91143083D01*
X46902900Y-93243101D01*
X46902901Y-93243118D01*
X46913400Y-93345896D01*
X46913401Y-93345899D01*
X46968585Y-93512431D01*
X46968587Y-93512436D01*
X46980060Y-93531036D01*
X47060688Y-93661756D01*
X47184744Y-93785812D01*
X47334066Y-93877914D01*
X47500603Y-93933099D01*
X47603391Y-93943600D01*
X47911700Y-93943599D01*
X47978739Y-93963283D01*
X48024494Y-94016087D01*
X48035700Y-94067599D01*
X48035700Y-97255958D01*
X48016015Y-97322997D01*
X47963211Y-97368752D01*
X47955047Y-97372134D01*
X47943869Y-97376304D01*
X47943864Y-97376306D01*
X47828655Y-97462552D01*
X47828652Y-97462555D01*
X47742406Y-97577764D01*
X47742402Y-97577771D01*
X47692108Y-97712617D01*
X47685701Y-97772216D01*
X47685701Y-97772223D01*
X47685700Y-97772235D01*
X47685700Y-99567970D01*
X47685701Y-99567976D01*
X47692108Y-99627583D01*
X47742402Y-99762428D01*
X47742406Y-99762435D01*
X47828652Y-99877644D01*
X47828655Y-99877647D01*
X47943864Y-99963893D01*
X47943871Y-99963897D01*
X48078717Y-100014191D01*
X48078716Y-100014191D01*
X48085644Y-100014935D01*
X48138327Y-100020600D01*
X49934072Y-100020599D01*
X49993683Y-100014191D01*
X50128531Y-99963896D01*
X50243746Y-99877646D01*
X50329996Y-99762431D01*
X50334160Y-99751265D01*
X50376029Y-99695334D01*
X50441493Y-99670916D01*
X50450341Y-99670600D01*
X52327918Y-99670600D01*
X52394957Y-99690285D01*
X52415599Y-99706919D01*
X56037281Y-103328601D01*
X56070766Y-103389924D01*
X56073600Y-103416282D01*
X56073600Y-105250515D01*
X56084100Y-105353295D01*
X56084101Y-105353296D01*
X56139286Y-105519835D01*
X56139287Y-105519837D01*
X56231386Y-105669151D01*
X56231389Y-105669155D01*
X56355444Y-105793210D01*
X56355448Y-105793213D01*
X56504762Y-105885312D01*
X56504764Y-105885313D01*
X56504766Y-105885314D01*
X56671303Y-105940499D01*
X56774092Y-105951000D01*
X56799600Y-105951000D01*
X56866639Y-105970685D01*
X56912394Y-106023489D01*
X56923600Y-106075000D01*
X56923600Y-107374555D01*
X56903915Y-107441594D01*
X56875087Y-107472931D01*
X56701356Y-107606239D01*
X56529839Y-107777756D01*
X56529833Y-107777763D01*
X56382167Y-107970206D01*
X56260877Y-108180285D01*
X56260873Y-108180294D01*
X56168047Y-108404395D01*
X56105261Y-108638714D01*
X56073600Y-108879211D01*
X56073600Y-109721788D01*
X56105261Y-109962285D01*
X56168047Y-110196604D01*
X56260779Y-110420478D01*
X56260876Y-110420712D01*
X56382164Y-110630789D01*
X56382166Y-110630792D01*
X56382167Y-110630793D01*
X56529833Y-110823236D01*
X56529839Y-110823243D01*
X56701356Y-110994760D01*
X56701362Y-110994765D01*
X56893811Y-111142436D01*
X57103888Y-111263724D01*
X57328000Y-111356554D01*
X57562311Y-111419338D01*
X57742686Y-111443084D01*
X57802811Y-111451000D01*
X57802812Y-111451000D01*
X58045389Y-111451000D01*
X58093488Y-111444667D01*
X58285889Y-111419338D01*
X58520200Y-111356554D01*
X58744312Y-111263724D01*
X58954389Y-111142436D01*
X59146838Y-110994765D01*
X59318365Y-110823238D01*
X59466036Y-110630789D01*
X59587324Y-110420712D01*
X59680154Y-110196600D01*
X59742938Y-109962289D01*
X59774600Y-109721788D01*
X59774600Y-108879251D01*
X60274100Y-108879251D01*
X60274100Y-109050500D01*
X61469979Y-109050500D01*
X61451001Y-109096318D01*
X61424100Y-109231556D01*
X61424100Y-109369444D01*
X61451001Y-109504682D01*
X61469979Y-109550500D01*
X60274100Y-109550500D01*
X60274100Y-109721748D01*
X60274101Y-109721764D01*
X60305753Y-109962187D01*
X60368521Y-110196439D01*
X60461320Y-110420478D01*
X60461327Y-110420493D01*
X60582580Y-110630509D01*
X60730210Y-110822905D01*
X60730216Y-110822912D01*
X60901687Y-110994383D01*
X60901694Y-110994389D01*
X61094090Y-111142019D01*
X61304106Y-111263272D01*
X61304121Y-111263279D01*
X61528160Y-111356078D01*
X61762412Y-111418846D01*
X61874100Y-111433549D01*
X61874100Y-109954620D01*
X61919918Y-109973599D01*
X62055156Y-110000500D01*
X62193044Y-110000500D01*
X62328282Y-109973599D01*
X62374100Y-109954620D01*
X62374100Y-111433548D01*
X62485787Y-111418846D01*
X62720039Y-111356078D01*
X62944078Y-111263279D01*
X62944093Y-111263272D01*
X63154109Y-111142019D01*
X63346505Y-110994389D01*
X63346512Y-110994383D01*
X63517983Y-110822912D01*
X63517989Y-110822905D01*
X63665619Y-110630509D01*
X63786872Y-110420493D01*
X63786879Y-110420478D01*
X63879678Y-110196439D01*
X63942446Y-109962187D01*
X63974098Y-109721764D01*
X63974100Y-109721748D01*
X63974100Y-109550500D01*
X62778221Y-109550500D01*
X62797199Y-109504682D01*
X62824100Y-109369444D01*
X62824100Y-109231556D01*
X62797199Y-109096318D01*
X62778221Y-109050500D01*
X63974100Y-109050500D01*
X63974100Y-108879251D01*
X63974098Y-108879235D01*
X63942446Y-108638812D01*
X63879678Y-108404560D01*
X63786879Y-108180521D01*
X63786872Y-108180506D01*
X63665619Y-107970490D01*
X63517989Y-107778094D01*
X63517983Y-107778087D01*
X63346512Y-107606616D01*
X63346505Y-107606610D01*
X63154109Y-107458980D01*
X62944093Y-107337727D01*
X62944078Y-107337720D01*
X62720039Y-107244921D01*
X62485787Y-107182153D01*
X62374100Y-107167448D01*
X62374100Y-108646379D01*
X62328282Y-108627401D01*
X62193044Y-108600500D01*
X62055156Y-108600500D01*
X61919918Y-108627401D01*
X61874100Y-108646379D01*
X61874100Y-107167448D01*
X61874099Y-107167448D01*
X61762412Y-107182153D01*
X61528160Y-107244921D01*
X61304121Y-107337720D01*
X61304106Y-107337727D01*
X61094090Y-107458980D01*
X60901694Y-107606610D01*
X60901687Y-107606616D01*
X60730216Y-107778087D01*
X60730210Y-107778094D01*
X60582580Y-107970490D01*
X60461327Y-108180506D01*
X60461320Y-108180521D01*
X60368521Y-108404560D01*
X60305753Y-108638812D01*
X60274101Y-108879235D01*
X60274100Y-108879251D01*
X59774600Y-108879251D01*
X59774600Y-108879212D01*
X59742938Y-108638711D01*
X59680154Y-108404400D01*
X59587324Y-108180288D01*
X59466036Y-107970211D01*
X59318620Y-107778094D01*
X59318366Y-107777763D01*
X59318360Y-107777756D01*
X59146843Y-107606239D01*
X58973113Y-107472931D01*
X58931911Y-107416503D01*
X58924600Y-107374555D01*
X58924600Y-106075000D01*
X58944285Y-106007961D01*
X58997089Y-105962206D01*
X59048600Y-105951000D01*
X59074103Y-105951000D01*
X59074108Y-105951000D01*
X59176897Y-105940499D01*
X59343434Y-105885314D01*
X59492755Y-105793211D01*
X59616811Y-105669155D01*
X59708914Y-105519834D01*
X59764099Y-105353297D01*
X59774600Y-105250508D01*
X59774600Y-103379251D01*
X60274100Y-103379251D01*
X60274100Y-103550500D01*
X61469979Y-103550500D01*
X61451001Y-103596318D01*
X61424100Y-103731556D01*
X61424100Y-103869444D01*
X61451001Y-104004682D01*
X61469979Y-104050500D01*
X60274100Y-104050500D01*
X60274100Y-104221748D01*
X60274101Y-104221764D01*
X60305753Y-104462187D01*
X60368521Y-104696439D01*
X60461320Y-104920478D01*
X60461327Y-104920493D01*
X60582580Y-105130509D01*
X60730210Y-105322905D01*
X60730216Y-105322912D01*
X60901687Y-105494383D01*
X60901694Y-105494389D01*
X61094090Y-105642019D01*
X61304106Y-105763272D01*
X61304121Y-105763279D01*
X61528160Y-105856078D01*
X61762412Y-105918846D01*
X61874100Y-105933549D01*
X61874100Y-104454620D01*
X61919918Y-104473599D01*
X62055156Y-104500500D01*
X62193044Y-104500500D01*
X62328282Y-104473599D01*
X62374100Y-104454620D01*
X62374100Y-105933548D01*
X62485787Y-105918846D01*
X62720039Y-105856078D01*
X62944078Y-105763279D01*
X62944093Y-105763272D01*
X63154109Y-105642019D01*
X63346505Y-105494389D01*
X63346512Y-105494383D01*
X63517983Y-105322912D01*
X63517989Y-105322905D01*
X63665619Y-105130509D01*
X63786872Y-104920493D01*
X63786879Y-104920478D01*
X63879678Y-104696439D01*
X63942446Y-104462187D01*
X63974098Y-104221764D01*
X63974100Y-104221748D01*
X63974100Y-104050500D01*
X62778221Y-104050500D01*
X62797199Y-104004682D01*
X62824100Y-103869444D01*
X62824100Y-103731556D01*
X62797199Y-103596318D01*
X62778221Y-103550500D01*
X63974100Y-103550500D01*
X63974100Y-103379251D01*
X63974098Y-103379235D01*
X63942446Y-103138812D01*
X63879678Y-102904560D01*
X63786879Y-102680521D01*
X63786872Y-102680506D01*
X63665619Y-102470490D01*
X63517989Y-102278094D01*
X63517983Y-102278087D01*
X63346512Y-102106616D01*
X63346505Y-102106610D01*
X63154109Y-101958980D01*
X62944093Y-101837727D01*
X62944078Y-101837720D01*
X62720039Y-101744921D01*
X62485787Y-101682153D01*
X62374100Y-101667448D01*
X62374100Y-103146379D01*
X62328282Y-103127401D01*
X62193044Y-103100500D01*
X62055156Y-103100500D01*
X61919918Y-103127401D01*
X61874100Y-103146379D01*
X61874100Y-101667448D01*
X61874099Y-101667448D01*
X61762412Y-101682153D01*
X61528160Y-101744921D01*
X61304121Y-101837720D01*
X61304106Y-101837727D01*
X61094090Y-101958980D01*
X60901694Y-102106610D01*
X60901687Y-102106616D01*
X60730216Y-102278087D01*
X60730210Y-102278094D01*
X60582580Y-102470490D01*
X60461327Y-102680506D01*
X60461320Y-102680521D01*
X60368521Y-102904560D01*
X60305753Y-103138812D01*
X60274101Y-103379235D01*
X60274100Y-103379251D01*
X59774600Y-103379251D01*
X59774600Y-102350492D01*
X59764099Y-102247703D01*
X59708914Y-102081166D01*
X59697274Y-102062295D01*
X59616813Y-101931848D01*
X59616810Y-101931844D01*
X59492755Y-101807789D01*
X59492751Y-101807786D01*
X59343437Y-101715687D01*
X59343435Y-101715686D01*
X59242238Y-101682153D01*
X59176897Y-101660501D01*
X59176895Y-101660500D01*
X59074115Y-101650000D01*
X59074108Y-101650000D01*
X57239883Y-101650000D01*
X57172844Y-101630315D01*
X57152202Y-101613681D01*
X53577909Y-98039389D01*
X53577906Y-98039385D01*
X53577906Y-98039386D01*
X53570839Y-98032319D01*
X53570839Y-98032318D01*
X53431482Y-97892961D01*
X53431481Y-97892960D01*
X53431480Y-97892959D01*
X53267620Y-97783471D01*
X53267611Y-97783466D01*
X53240545Y-97772255D01*
X60665600Y-97772255D01*
X60665600Y-98420100D01*
X61582588Y-98420100D01*
X61549675Y-98477107D01*
X61515600Y-98604274D01*
X61515600Y-98735926D01*
X61549675Y-98863093D01*
X61582588Y-98920100D01*
X60665600Y-98920100D01*
X60665600Y-99567944D01*
X60672001Y-99627472D01*
X60672003Y-99627479D01*
X60722245Y-99762186D01*
X60722249Y-99762193D01*
X60808409Y-99877287D01*
X60808412Y-99877290D01*
X60923506Y-99963450D01*
X60923513Y-99963454D01*
X61058220Y-100013696D01*
X61058227Y-100013698D01*
X61117755Y-100020099D01*
X61117772Y-100020100D01*
X61765600Y-100020100D01*
X61765600Y-99103112D01*
X61822607Y-99136025D01*
X61949774Y-99170100D01*
X62081426Y-99170100D01*
X62208593Y-99136025D01*
X62265600Y-99103112D01*
X62265600Y-100020100D01*
X62913428Y-100020100D01*
X62913444Y-100020099D01*
X62972972Y-100013698D01*
X62972979Y-100013696D01*
X63107686Y-99963454D01*
X63107693Y-99963450D01*
X63222787Y-99877290D01*
X63222790Y-99877287D01*
X63308950Y-99762193D01*
X63308954Y-99762186D01*
X63359196Y-99627479D01*
X63359198Y-99627472D01*
X63365599Y-99567944D01*
X63365600Y-99567927D01*
X63365600Y-98920100D01*
X62448612Y-98920100D01*
X62481525Y-98863093D01*
X62515600Y-98735926D01*
X62515600Y-98604274D01*
X62481525Y-98477107D01*
X62448612Y-98420100D01*
X63365600Y-98420100D01*
X63365600Y-97772272D01*
X63365599Y-97772255D01*
X63359198Y-97712727D01*
X63359196Y-97712720D01*
X63308954Y-97578013D01*
X63308950Y-97578006D01*
X63222790Y-97462912D01*
X63222787Y-97462909D01*
X63107693Y-97376749D01*
X63107686Y-97376745D01*
X62972979Y-97326503D01*
X62972972Y-97326501D01*
X62913444Y-97320100D01*
X62265600Y-97320100D01*
X62265600Y-98237088D01*
X62208593Y-98204175D01*
X62081426Y-98170100D01*
X61949774Y-98170100D01*
X61822607Y-98204175D01*
X61765600Y-98237088D01*
X61765600Y-97320100D01*
X61117755Y-97320100D01*
X61058227Y-97326501D01*
X61058220Y-97326503D01*
X60923513Y-97376745D01*
X60923506Y-97376749D01*
X60808412Y-97462909D01*
X60808409Y-97462912D01*
X60722249Y-97578006D01*
X60722245Y-97578013D01*
X60672003Y-97712720D01*
X60672001Y-97712727D01*
X60665600Y-97772255D01*
X53240545Y-97772255D01*
X53195015Y-97753396D01*
X53138865Y-97730138D01*
X53085536Y-97708049D01*
X53085532Y-97708048D01*
X53085528Y-97708046D01*
X52988888Y-97688824D01*
X52892244Y-97669600D01*
X52892241Y-97669600D01*
X50450341Y-97669600D01*
X50383302Y-97649915D01*
X50337547Y-97597111D01*
X50334169Y-97588959D01*
X50329996Y-97577769D01*
X50329993Y-97577765D01*
X50329993Y-97577764D01*
X50243747Y-97462555D01*
X50243744Y-97462552D01*
X50128535Y-97376306D01*
X50128532Y-97376305D01*
X50128531Y-97376304D01*
X50117361Y-97372138D01*
X50061431Y-97330266D01*
X50037016Y-97264801D01*
X50036700Y-97255958D01*
X50036700Y-94067599D01*
X50056385Y-94000560D01*
X50109189Y-93954805D01*
X50160700Y-93943599D01*
X51603402Y-93943599D01*
X51603408Y-93943599D01*
X51706197Y-93933099D01*
X51872734Y-93877914D01*
X52022056Y-93785812D01*
X52146112Y-93661756D01*
X52238214Y-93512434D01*
X52293399Y-93345897D01*
X52303900Y-93243109D01*
X52303900Y-93243086D01*
X54303401Y-93243086D01*
X54313894Y-93345797D01*
X54369041Y-93512219D01*
X54369043Y-93512224D01*
X54461084Y-93661445D01*
X54585054Y-93785415D01*
X54734275Y-93877456D01*
X54734280Y-93877458D01*
X54900702Y-93932605D01*
X54900709Y-93932606D01*
X55003419Y-93943099D01*
X56753399Y-93943099D01*
X57253400Y-93943099D01*
X59003372Y-93943099D01*
X59003386Y-93943098D01*
X59106097Y-93932605D01*
X59272519Y-93877458D01*
X59272524Y-93877456D01*
X59421745Y-93785415D01*
X59545715Y-93661445D01*
X59637756Y-93512224D01*
X59637758Y-93512219D01*
X59692905Y-93345797D01*
X59692906Y-93345790D01*
X59701499Y-93261686D01*
X64133901Y-93261686D01*
X64144394Y-93364397D01*
X64199541Y-93530819D01*
X64199543Y-93530824D01*
X64291584Y-93680045D01*
X64415554Y-93804015D01*
X64564775Y-93896056D01*
X64564780Y-93896058D01*
X64731202Y-93951205D01*
X64731209Y-93951206D01*
X64833919Y-93961699D01*
X66583899Y-93961699D01*
X67083900Y-93961699D01*
X68833872Y-93961699D01*
X68833886Y-93961698D01*
X68936597Y-93951205D01*
X69103019Y-93896058D01*
X69103024Y-93896056D01*
X69252245Y-93804015D01*
X69376215Y-93680045D01*
X69468256Y-93530824D01*
X69468258Y-93530819D01*
X69523405Y-93364397D01*
X69523406Y-93364390D01*
X69533899Y-93261686D01*
X69533900Y-93261673D01*
X69533900Y-92461700D01*
X67083900Y-92461700D01*
X67083900Y-93961699D01*
X66583899Y-93961699D01*
X66583900Y-93961698D01*
X66583900Y-92461700D01*
X64133901Y-92461700D01*
X64133901Y-93261686D01*
X59701499Y-93261686D01*
X59703399Y-93243086D01*
X59703400Y-93243073D01*
X59703400Y-92443100D01*
X57253400Y-92443100D01*
X57253400Y-93943099D01*
X56753399Y-93943099D01*
X56753400Y-93943098D01*
X56753400Y-92443100D01*
X54303401Y-92443100D01*
X54303401Y-93243086D01*
X52303900Y-93243086D01*
X52303899Y-91143113D01*
X54303400Y-91143113D01*
X54303400Y-91943100D01*
X56753400Y-91943100D01*
X57253400Y-91943100D01*
X59703399Y-91943100D01*
X59703399Y-91161713D01*
X64133900Y-91161713D01*
X64133900Y-91961700D01*
X66583900Y-91961700D01*
X67083900Y-91961700D01*
X69533899Y-91961700D01*
X69533899Y-91161728D01*
X69533898Y-91161713D01*
X69523405Y-91059002D01*
X69468258Y-90892580D01*
X69468256Y-90892575D01*
X69376215Y-90743354D01*
X69252245Y-90619384D01*
X69103024Y-90527343D01*
X69103019Y-90527341D01*
X68936597Y-90472194D01*
X68936590Y-90472193D01*
X68833886Y-90461700D01*
X67083900Y-90461700D01*
X67083900Y-91961700D01*
X66583900Y-91961700D01*
X66583900Y-90461700D01*
X64833928Y-90461700D01*
X64833912Y-90461701D01*
X64731202Y-90472194D01*
X64564780Y-90527341D01*
X64564775Y-90527343D01*
X64415554Y-90619384D01*
X64291584Y-90743354D01*
X64199543Y-90892575D01*
X64199541Y-90892580D01*
X64144394Y-91059002D01*
X64144393Y-91059009D01*
X64133900Y-91161713D01*
X59703399Y-91161713D01*
X59703399Y-91143128D01*
X59703398Y-91143113D01*
X59692905Y-91040402D01*
X59637758Y-90873980D01*
X59637756Y-90873975D01*
X59545715Y-90724754D01*
X59421745Y-90600784D01*
X59272524Y-90508743D01*
X59272519Y-90508741D01*
X59106097Y-90453594D01*
X59106090Y-90453593D01*
X59003386Y-90443100D01*
X57253400Y-90443100D01*
X57253400Y-91943100D01*
X56753400Y-91943100D01*
X56753400Y-90443100D01*
X55003428Y-90443100D01*
X55003412Y-90443101D01*
X54900702Y-90453594D01*
X54734280Y-90508741D01*
X54734275Y-90508743D01*
X54585054Y-90600784D01*
X54461084Y-90724754D01*
X54369043Y-90873975D01*
X54369041Y-90873980D01*
X54313894Y-91040402D01*
X54313893Y-91040409D01*
X54303400Y-91143113D01*
X52303899Y-91143113D01*
X52303899Y-91143092D01*
X52293399Y-91040303D01*
X52238214Y-90873766D01*
X52146112Y-90724444D01*
X52022056Y-90600388D01*
X51929288Y-90543169D01*
X51872736Y-90508287D01*
X51872731Y-90508285D01*
X51850393Y-90500883D01*
X51706197Y-90453101D01*
X51706195Y-90453100D01*
X51603416Y-90442600D01*
X51603409Y-90442600D01*
X49322500Y-90442600D01*
X49255461Y-90422915D01*
X49209706Y-90370111D01*
X49198500Y-90318600D01*
X49198500Y-88160930D01*
X49218185Y-88093891D01*
X49234819Y-88073249D01*
X49247107Y-88060961D01*
X49265712Y-88042356D01*
X49357814Y-87893034D01*
X49412999Y-87726497D01*
X49423500Y-87623709D01*
X49423499Y-86848692D01*
X49412999Y-86745903D01*
X49357814Y-86579366D01*
X49265712Y-86430044D01*
X49141656Y-86305988D01*
X49138342Y-86303943D01*
X49136546Y-86301948D01*
X49135989Y-86301507D01*
X49136064Y-86301411D01*
X49091618Y-86251997D01*
X49080397Y-86183034D01*
X49108240Y-86118952D01*
X49138348Y-86092865D01*
X49141342Y-86091018D01*
X49265315Y-85967045D01*
X49357356Y-85817824D01*
X49357358Y-85817819D01*
X49412505Y-85651397D01*
X49412506Y-85651390D01*
X49415909Y-85618086D01*
X52894001Y-85618086D01*
X52904494Y-85720797D01*
X52959641Y-85887219D01*
X52959643Y-85887224D01*
X53051684Y-86036445D01*
X53175654Y-86160415D01*
X53324875Y-86252456D01*
X53324880Y-86252458D01*
X53491302Y-86307605D01*
X53491309Y-86307606D01*
X53594019Y-86318099D01*
X54043999Y-86318099D01*
X54544000Y-86318099D01*
X54993972Y-86318099D01*
X54993986Y-86318098D01*
X55096697Y-86307605D01*
X55263119Y-86252458D01*
X55263124Y-86252456D01*
X55412345Y-86160415D01*
X55536315Y-86036445D01*
X55628356Y-85887224D01*
X55628358Y-85887219D01*
X55683505Y-85720797D01*
X55683506Y-85720790D01*
X55693999Y-85618086D01*
X55694000Y-85618073D01*
X55694000Y-84318100D01*
X54544000Y-84318100D01*
X54544000Y-86318099D01*
X54043999Y-86318099D01*
X54044000Y-86318098D01*
X54044000Y-84318100D01*
X52894001Y-84318100D01*
X52894001Y-85618086D01*
X49415909Y-85618086D01*
X49422999Y-85548686D01*
X49423000Y-85548673D01*
X49423000Y-85411200D01*
X48322000Y-85411200D01*
X48254961Y-85391515D01*
X48209206Y-85338711D01*
X48198000Y-85287200D01*
X48198000Y-85161200D01*
X48072000Y-85161200D01*
X48004961Y-85141515D01*
X47959206Y-85088711D01*
X47948000Y-85037200D01*
X47948000Y-84911200D01*
X48448000Y-84911200D01*
X49422999Y-84911200D01*
X49422999Y-84773728D01*
X49422998Y-84773713D01*
X49412505Y-84671002D01*
X49357358Y-84504580D01*
X49357356Y-84504575D01*
X49265315Y-84355354D01*
X49141345Y-84231384D01*
X48992124Y-84139343D01*
X48992119Y-84139341D01*
X48825697Y-84084194D01*
X48825690Y-84084193D01*
X48722986Y-84073700D01*
X48448000Y-84073700D01*
X48448000Y-84911200D01*
X47948000Y-84911200D01*
X47948000Y-84073700D01*
X47771800Y-84073700D01*
X47704761Y-84054015D01*
X47659006Y-84001211D01*
X47647800Y-83949700D01*
X47647800Y-82518113D01*
X52894000Y-82518113D01*
X52894000Y-83818100D01*
X54044000Y-83818100D01*
X54544000Y-83818100D01*
X55693999Y-83818100D01*
X55693999Y-82518128D01*
X55693998Y-82518113D01*
X55683505Y-82415402D01*
X55628358Y-82248980D01*
X55628356Y-82248975D01*
X55536315Y-82099754D01*
X55412345Y-81975784D01*
X55263124Y-81883743D01*
X55263119Y-81883741D01*
X55096697Y-81828594D01*
X55096690Y-81828593D01*
X54993986Y-81818100D01*
X54544000Y-81818100D01*
X54544000Y-83818100D01*
X54044000Y-83818100D01*
X54044000Y-81818100D01*
X53594028Y-81818100D01*
X53594012Y-81818101D01*
X53491302Y-81828594D01*
X53324880Y-81883741D01*
X53324875Y-81883743D01*
X53175654Y-81975784D01*
X53051684Y-82099754D01*
X52959643Y-82248975D01*
X52959641Y-82248980D01*
X52904494Y-82415402D01*
X52904493Y-82415409D01*
X52894000Y-82518113D01*
X47647800Y-82518113D01*
X47647800Y-70482935D01*
X48528900Y-70482935D01*
X48528900Y-74578670D01*
X48528901Y-74578676D01*
X48535308Y-74638283D01*
X48585602Y-74773128D01*
X48585606Y-74773135D01*
X48671852Y-74888344D01*
X48671855Y-74888347D01*
X48787064Y-74974593D01*
X48787071Y-74974597D01*
X48921917Y-75024891D01*
X48921916Y-75024891D01*
X48928844Y-75025635D01*
X48981527Y-75031300D01*
X51077272Y-75031299D01*
X51136883Y-75024891D01*
X51271731Y-74974596D01*
X51386946Y-74888346D01*
X51473196Y-74773131D01*
X51523491Y-74638283D01*
X51529900Y-74578673D01*
X51529899Y-70482928D01*
X51524552Y-70433191D01*
X51536958Y-70364434D01*
X51560158Y-70332261D01*
X52113502Y-69778919D01*
X52174825Y-69745434D01*
X52201183Y-69742600D01*
X59521331Y-69742600D01*
X59588370Y-69762285D01*
X59634125Y-69815089D01*
X59644069Y-69884247D01*
X59639039Y-69905592D01*
X59626888Y-69942266D01*
X59611300Y-69989306D01*
X59600800Y-70092083D01*
X59600800Y-70792101D01*
X59600801Y-70792119D01*
X59611300Y-70894896D01*
X59611301Y-70894899D01*
X59655573Y-71028500D01*
X59666486Y-71061434D01*
X59758587Y-71210755D01*
X59758589Y-71210757D01*
X59762095Y-71215191D01*
X59788234Y-71279987D01*
X59775192Y-71348629D01*
X59762095Y-71369009D01*
X59758589Y-71373442D01*
X59666487Y-71522763D01*
X59666486Y-71522766D01*
X59611301Y-71689303D01*
X59611301Y-71689304D01*
X59611300Y-71689304D01*
X59600800Y-71792083D01*
X59600800Y-72492101D01*
X59600801Y-72492119D01*
X59611300Y-72594896D01*
X59611301Y-72594899D01*
X59631482Y-72655799D01*
X59666486Y-72761434D01*
X59758588Y-72910756D01*
X59882644Y-73034812D01*
X60031966Y-73126914D01*
X60198503Y-73182099D01*
X60301291Y-73192600D01*
X61276800Y-73192599D01*
X61343839Y-73212283D01*
X61389594Y-73265087D01*
X61400800Y-73316599D01*
X61400800Y-74144116D01*
X61381115Y-74211155D01*
X61364481Y-74231797D01*
X60560412Y-75035865D01*
X60499089Y-75069350D01*
X60429397Y-75064366D01*
X60373464Y-75022494D01*
X60349373Y-74960785D01*
X60344206Y-74910203D01*
X60289058Y-74743780D01*
X60289056Y-74743775D01*
X60197015Y-74594554D01*
X60073045Y-74470584D01*
X59923824Y-74378543D01*
X59923819Y-74378541D01*
X59757397Y-74323394D01*
X59757390Y-74323393D01*
X59654686Y-74312900D01*
X59404700Y-74312900D01*
X59404700Y-75288900D01*
X59385015Y-75355939D01*
X59332211Y-75401694D01*
X59280700Y-75412900D01*
X59154700Y-75412900D01*
X59154700Y-75538900D01*
X59135015Y-75605939D01*
X59082211Y-75651694D01*
X59030700Y-75662900D01*
X57954701Y-75662900D01*
X57954701Y-75812886D01*
X57965194Y-75915597D01*
X58020341Y-76082019D01*
X58020343Y-76082024D01*
X58112384Y-76231245D01*
X58206004Y-76324865D01*
X58239489Y-76386188D01*
X58234505Y-76455880D01*
X58206005Y-76500227D01*
X58111987Y-76594245D01*
X58019887Y-76743563D01*
X58019885Y-76743568D01*
X57992049Y-76827570D01*
X57964701Y-76910103D01*
X57964701Y-76910104D01*
X57964700Y-76910104D01*
X57954200Y-77012883D01*
X57954200Y-77812901D01*
X57954201Y-77812919D01*
X57964700Y-77915696D01*
X57980910Y-77964611D01*
X57983312Y-78034440D01*
X57947581Y-78094482D01*
X57885061Y-78125675D01*
X57824201Y-78121322D01*
X57715799Y-78085401D01*
X57715795Y-78085400D01*
X57613016Y-78074900D01*
X57613009Y-78074900D01*
X57140656Y-78074900D01*
X57116466Y-78072518D01*
X57091741Y-78067600D01*
X57091740Y-78067600D01*
X55818499Y-78067600D01*
X55751460Y-78047915D01*
X55705705Y-77995111D01*
X55694499Y-77943600D01*
X55694499Y-77518098D01*
X55694498Y-77518081D01*
X55683999Y-77415303D01*
X55683998Y-77415300D01*
X55664857Y-77357536D01*
X55628814Y-77248766D01*
X55536712Y-77099444D01*
X55412656Y-76975388D01*
X55263334Y-76883286D01*
X55096797Y-76828101D01*
X55096795Y-76828100D01*
X54994016Y-76817600D01*
X54994009Y-76817600D01*
X54653900Y-76817600D01*
X54586861Y-76797915D01*
X54541106Y-76745111D01*
X54529900Y-76693600D01*
X54529900Y-75147776D01*
X54549585Y-75080737D01*
X54602389Y-75034982D01*
X54629535Y-75027536D01*
X54629332Y-75026676D01*
X54636879Y-75024892D01*
X54636881Y-75024891D01*
X54636883Y-75024891D01*
X54668998Y-75012913D01*
X57954700Y-75012913D01*
X57954700Y-75162900D01*
X58904700Y-75162900D01*
X58904700Y-74312900D01*
X58654729Y-74312900D01*
X58654712Y-74312901D01*
X58552002Y-74323394D01*
X58385580Y-74378541D01*
X58385575Y-74378543D01*
X58236354Y-74470584D01*
X58112384Y-74594554D01*
X58020343Y-74743775D01*
X58020341Y-74743780D01*
X57965194Y-74910202D01*
X57965193Y-74910209D01*
X57954700Y-75012913D01*
X54668998Y-75012913D01*
X54771731Y-74974596D01*
X54886946Y-74888346D01*
X54973196Y-74773131D01*
X55023491Y-74638283D01*
X55029900Y-74578673D01*
X55029899Y-70482928D01*
X55023491Y-70423317D01*
X55009471Y-70385728D01*
X54973197Y-70288471D01*
X54973193Y-70288464D01*
X54886947Y-70173255D01*
X54886944Y-70173252D01*
X54771735Y-70087006D01*
X54771728Y-70087002D01*
X54636882Y-70036708D01*
X54636883Y-70036708D01*
X54577283Y-70030301D01*
X54577281Y-70030300D01*
X54577273Y-70030300D01*
X54577264Y-70030300D01*
X52481529Y-70030300D01*
X52481523Y-70030301D01*
X52421916Y-70036708D01*
X52287071Y-70087002D01*
X52287064Y-70087006D01*
X52171855Y-70173252D01*
X52171852Y-70173255D01*
X52085606Y-70288464D01*
X52085602Y-70288471D01*
X52035308Y-70423317D01*
X52033273Y-70442250D01*
X52028901Y-70482923D01*
X52028900Y-70482935D01*
X52028900Y-74578670D01*
X52028901Y-74578676D01*
X52035308Y-74638283D01*
X52085602Y-74773128D01*
X52085606Y-74773135D01*
X52171852Y-74888344D01*
X52171855Y-74888347D01*
X52287064Y-74974593D01*
X52287071Y-74974597D01*
X52421917Y-75024891D01*
X52429462Y-75026674D01*
X52428923Y-75028951D01*
X52482687Y-75051208D01*
X52522547Y-75108593D01*
X52528900Y-75147775D01*
X52528900Y-78402042D01*
X52541422Y-78464990D01*
X52541422Y-78464992D01*
X52567347Y-78595329D01*
X52567350Y-78595339D01*
X52581611Y-78629767D01*
X52581612Y-78629769D01*
X52642769Y-78777417D01*
X52752259Y-78941280D01*
X52752260Y-78941281D01*
X52752261Y-78941282D01*
X52857182Y-79046203D01*
X52890666Y-79107524D01*
X52893500Y-79133883D01*
X52893500Y-80618101D01*
X52893501Y-80618108D01*
X52904000Y-80720896D01*
X52904001Y-80720899D01*
X52959185Y-80887431D01*
X52959187Y-80887436D01*
X52993634Y-80943284D01*
X53051288Y-81036756D01*
X53175344Y-81160812D01*
X53324666Y-81252914D01*
X53491203Y-81308099D01*
X53593991Y-81318600D01*
X54994008Y-81318599D01*
X55096797Y-81308099D01*
X55263334Y-81252914D01*
X55412656Y-81160812D01*
X55536712Y-81036756D01*
X55628814Y-80887434D01*
X55628815Y-80887431D01*
X55632605Y-80881287D01*
X55635212Y-80882895D01*
X55672261Y-80840794D01*
X55739449Y-80821624D01*
X55806336Y-80841821D01*
X55851685Y-80894973D01*
X55862500Y-80945620D01*
X55862501Y-81625400D01*
X55862501Y-81625408D01*
X55873000Y-81728196D01*
X55873001Y-81728199D01*
X55928185Y-81894731D01*
X55928187Y-81894736D01*
X55954784Y-81937856D01*
X56020288Y-82044056D01*
X56144344Y-82168112D01*
X56293666Y-82260214D01*
X56460203Y-82315399D01*
X56562991Y-82325900D01*
X57613008Y-82325899D01*
X57613016Y-82325898D01*
X57613019Y-82325898D01*
X57669302Y-82320148D01*
X57715797Y-82315399D01*
X57791196Y-82290413D01*
X57861024Y-82288012D01*
X57921066Y-82323743D01*
X57952259Y-82386264D01*
X57954200Y-82408120D01*
X57954200Y-82918301D01*
X57954201Y-82918319D01*
X57964700Y-83021096D01*
X57964701Y-83021099D01*
X58019885Y-83187631D01*
X58019887Y-83187636D01*
X58025964Y-83197488D01*
X58095513Y-83310246D01*
X58111989Y-83336957D01*
X58143281Y-83368249D01*
X58176766Y-83429572D01*
X58179600Y-83455930D01*
X58179600Y-84660670D01*
X58159915Y-84727709D01*
X58143281Y-84748351D01*
X58137389Y-84754242D01*
X58045287Y-84903563D01*
X58045285Y-84903568D01*
X58036355Y-84930518D01*
X57990101Y-85070103D01*
X57990101Y-85070104D01*
X57990100Y-85070104D01*
X57979600Y-85172883D01*
X57979600Y-85972901D01*
X57979601Y-85972919D01*
X57990100Y-86075696D01*
X57990101Y-86075699D01*
X58045285Y-86242231D01*
X58045287Y-86242236D01*
X58137389Y-86391557D01*
X58231051Y-86485219D01*
X58264536Y-86546542D01*
X58259552Y-86616234D01*
X58231051Y-86660581D01*
X58137389Y-86754242D01*
X58045287Y-86903563D01*
X58045285Y-86903568D01*
X58019025Y-86982815D01*
X57990101Y-87070103D01*
X57990101Y-87070104D01*
X57990100Y-87070104D01*
X57979600Y-87172883D01*
X57979600Y-87972901D01*
X57979601Y-87972919D01*
X57990100Y-88075696D01*
X57990101Y-88075699D01*
X58045285Y-88242231D01*
X58045287Y-88242236D01*
X58056731Y-88260790D01*
X58137388Y-88391556D01*
X58261444Y-88515612D01*
X58410766Y-88607714D01*
X58577303Y-88662899D01*
X58680091Y-88673400D01*
X59680108Y-88673399D01*
X59680116Y-88673398D01*
X59680119Y-88673398D01*
X59736402Y-88667648D01*
X59782897Y-88662899D01*
X59949434Y-88607714D01*
X59975136Y-88591860D01*
X60040232Y-88573400D01*
X60449601Y-88573400D01*
X60516640Y-88593085D01*
X60562395Y-88645889D01*
X60573601Y-88697400D01*
X60573601Y-89149718D01*
X60584100Y-89252496D01*
X60584101Y-89252499D01*
X60639285Y-89419031D01*
X60639286Y-89419034D01*
X60731388Y-89568356D01*
X60855444Y-89692412D01*
X61004766Y-89784514D01*
X61171303Y-89839699D01*
X61274091Y-89850200D01*
X62674108Y-89850199D01*
X62776897Y-89839699D01*
X62943434Y-89784514D01*
X63092756Y-89692412D01*
X63216812Y-89568356D01*
X63308914Y-89419034D01*
X63364099Y-89252497D01*
X63374600Y-89149709D01*
X63374600Y-88724200D01*
X63394285Y-88657161D01*
X63447089Y-88611406D01*
X63498600Y-88600200D01*
X69156118Y-88600200D01*
X69223157Y-88619885D01*
X69243799Y-88636519D01*
X71520253Y-90912973D01*
X71553738Y-90974296D01*
X71550279Y-91039654D01*
X71543902Y-91058897D01*
X71543900Y-91058909D01*
X71533400Y-91161683D01*
X71533400Y-93261701D01*
X71533401Y-93261718D01*
X71543900Y-93364496D01*
X71543901Y-93364499D01*
X71592923Y-93512436D01*
X71599086Y-93531034D01*
X71691188Y-93680356D01*
X71815244Y-93804412D01*
X71964566Y-93896514D01*
X72131103Y-93951699D01*
X72233891Y-93962200D01*
X73870500Y-93962199D01*
X73937539Y-93981884D01*
X73983294Y-94034687D01*
X73994500Y-94086199D01*
X73994500Y-97255958D01*
X73974815Y-97322997D01*
X73922011Y-97368752D01*
X73913847Y-97372134D01*
X73902669Y-97376304D01*
X73902664Y-97376306D01*
X73787455Y-97462552D01*
X73787452Y-97462555D01*
X73701206Y-97577764D01*
X73701204Y-97577768D01*
X73701204Y-97577769D01*
X73697039Y-97588934D01*
X73655171Y-97644866D01*
X73589707Y-97669284D01*
X73580859Y-97669600D01*
X71355955Y-97669600D01*
X71259312Y-97688824D01*
X71162667Y-97708047D01*
X71162661Y-97708049D01*
X71109334Y-97730137D01*
X71109334Y-97730138D01*
X71063815Y-97748992D01*
X70980589Y-97783466D01*
X70980579Y-97783471D01*
X70816718Y-97892960D01*
X70816714Y-97892963D01*
X67006339Y-101703339D01*
X66945016Y-101736824D01*
X66886565Y-101735433D01*
X66685887Y-101681661D01*
X66445389Y-101650000D01*
X66445388Y-101650000D01*
X66202812Y-101650000D01*
X66202811Y-101650000D01*
X65962314Y-101681661D01*
X65727995Y-101744447D01*
X65503894Y-101837273D01*
X65503885Y-101837277D01*
X65293806Y-101958567D01*
X65101363Y-102106233D01*
X65101356Y-102106239D01*
X64929839Y-102277756D01*
X64929833Y-102277763D01*
X64782167Y-102470206D01*
X64660877Y-102680285D01*
X64660873Y-102680294D01*
X64568047Y-102904395D01*
X64505261Y-103138714D01*
X64473600Y-103379211D01*
X64473600Y-104221788D01*
X64505261Y-104462285D01*
X64568047Y-104696604D01*
X64579924Y-104725277D01*
X64660876Y-104920712D01*
X64782164Y-105130789D01*
X64782166Y-105130792D01*
X64782167Y-105130793D01*
X64929833Y-105323236D01*
X64929839Y-105323243D01*
X65101356Y-105494760D01*
X65101363Y-105494766D01*
X65139312Y-105523885D01*
X65275087Y-105628068D01*
X65316289Y-105684494D01*
X65323600Y-105726443D01*
X65323600Y-107374555D01*
X65303915Y-107441594D01*
X65275087Y-107472931D01*
X65101356Y-107606239D01*
X64929839Y-107777756D01*
X64929833Y-107777763D01*
X64782167Y-107970206D01*
X64660877Y-108180285D01*
X64660873Y-108180294D01*
X64568047Y-108404395D01*
X64505261Y-108638714D01*
X64473600Y-108879211D01*
X64473600Y-109721788D01*
X64505261Y-109962285D01*
X64568047Y-110196604D01*
X64660779Y-110420478D01*
X64660876Y-110420712D01*
X64782164Y-110630789D01*
X64782166Y-110630792D01*
X64782167Y-110630793D01*
X64929833Y-110823236D01*
X64929839Y-110823243D01*
X65101356Y-110994760D01*
X65101362Y-110994765D01*
X65293811Y-111142436D01*
X65503888Y-111263724D01*
X65728000Y-111356554D01*
X65962311Y-111419338D01*
X66142686Y-111443084D01*
X66202811Y-111451000D01*
X66202812Y-111451000D01*
X66445389Y-111451000D01*
X66493488Y-111444667D01*
X66685889Y-111419338D01*
X66920200Y-111356554D01*
X67144312Y-111263724D01*
X67354389Y-111142436D01*
X67546838Y-110994765D01*
X67718365Y-110823238D01*
X67866036Y-110630789D01*
X67987324Y-110420712D01*
X68080154Y-110196600D01*
X68142938Y-109962289D01*
X68174600Y-109721788D01*
X68174600Y-108879212D01*
X68142938Y-108638711D01*
X68080154Y-108404400D01*
X67987324Y-108180288D01*
X67866036Y-107970211D01*
X67718620Y-107778094D01*
X67718366Y-107777763D01*
X67718360Y-107777756D01*
X67546843Y-107606239D01*
X67373113Y-107472931D01*
X67331911Y-107416503D01*
X67324600Y-107374555D01*
X67324600Y-105726443D01*
X67344285Y-105659404D01*
X67373111Y-105628069D01*
X67546838Y-105494765D01*
X67718365Y-105323238D01*
X67866036Y-105130789D01*
X67987324Y-104920712D01*
X68016117Y-104851199D01*
X72456522Y-104851199D01*
X72456522Y-104851200D01*
X72476819Y-105238487D01*
X72537486Y-105621523D01*
X72537487Y-105621530D01*
X72637862Y-105996136D01*
X72776844Y-106358194D01*
X72952910Y-106703743D01*
X73164123Y-107028983D01*
X73164125Y-107028985D01*
X73372696Y-107286548D01*
X74867347Y-105791897D01*
X74941188Y-105893530D01*
X75119270Y-106071612D01*
X75220901Y-106145451D01*
X73726250Y-107640102D01*
X73983814Y-107848675D01*
X73983816Y-107848676D01*
X74309056Y-108059889D01*
X74654605Y-108235955D01*
X75016663Y-108374937D01*
X75391269Y-108475312D01*
X75391276Y-108475313D01*
X75774312Y-108535980D01*
X76161599Y-108556278D01*
X76161601Y-108556278D01*
X76548887Y-108535980D01*
X76931923Y-108475313D01*
X76931930Y-108475312D01*
X77306536Y-108374937D01*
X77668594Y-108235955D01*
X78014143Y-108059889D01*
X78339371Y-107848684D01*
X78339384Y-107848674D01*
X78596948Y-107640102D01*
X77102298Y-106145452D01*
X77203930Y-106071612D01*
X77382012Y-105893530D01*
X77455852Y-105791898D01*
X78950502Y-107286548D01*
X79159074Y-107028984D01*
X79159084Y-107028971D01*
X79370289Y-106703743D01*
X79546355Y-106358194D01*
X79685337Y-105996136D01*
X79785712Y-105621530D01*
X79785713Y-105621523D01*
X79846380Y-105238487D01*
X79866678Y-104851200D01*
X79866678Y-104851199D01*
X79846380Y-104463912D01*
X79785713Y-104080876D01*
X79785712Y-104080869D01*
X79685337Y-103706263D01*
X79546355Y-103344205D01*
X79370289Y-102998656D01*
X79159076Y-102673416D01*
X79159075Y-102673414D01*
X78950502Y-102415850D01*
X77455851Y-103910501D01*
X77382012Y-103808870D01*
X77203930Y-103630788D01*
X77102297Y-103556947D01*
X78596948Y-102062296D01*
X78339385Y-101853725D01*
X78339383Y-101853723D01*
X78014143Y-101642510D01*
X77668594Y-101466444D01*
X77306536Y-101327462D01*
X76931930Y-101227087D01*
X76931923Y-101227086D01*
X76548887Y-101166419D01*
X76161601Y-101146122D01*
X76161599Y-101146122D01*
X75774312Y-101166419D01*
X75391276Y-101227086D01*
X75391269Y-101227087D01*
X75016663Y-101327462D01*
X74654605Y-101466444D01*
X74309056Y-101642510D01*
X73983806Y-101853731D01*
X73726249Y-102062295D01*
X73726249Y-102062296D01*
X75220901Y-103556948D01*
X75119270Y-103630788D01*
X74941188Y-103808870D01*
X74867348Y-103910501D01*
X73372696Y-102415849D01*
X73372695Y-102415849D01*
X73164131Y-102673406D01*
X72952910Y-102998656D01*
X72776844Y-103344205D01*
X72637862Y-103706263D01*
X72537487Y-104080869D01*
X72537486Y-104080876D01*
X72476819Y-104463912D01*
X72456522Y-104851199D01*
X68016117Y-104851199D01*
X68080154Y-104696600D01*
X68142938Y-104462289D01*
X68174600Y-104221788D01*
X68174600Y-103416281D01*
X68194285Y-103349242D01*
X68210919Y-103328600D01*
X71832602Y-99706919D01*
X71893925Y-99673434D01*
X71920283Y-99670600D01*
X73580859Y-99670600D01*
X73647898Y-99690285D01*
X73693653Y-99743089D01*
X73697030Y-99751240D01*
X73701204Y-99762431D01*
X73701205Y-99762432D01*
X73701206Y-99762435D01*
X73787452Y-99877644D01*
X73787455Y-99877647D01*
X73902664Y-99963893D01*
X73902671Y-99963897D01*
X74037517Y-100014191D01*
X74037516Y-100014191D01*
X74044444Y-100014935D01*
X74097127Y-100020600D01*
X75892872Y-100020599D01*
X75952483Y-100014191D01*
X76087331Y-99963896D01*
X76202546Y-99877646D01*
X76288796Y-99762431D01*
X76339091Y-99627583D01*
X76345500Y-99567973D01*
X76345499Y-97772228D01*
X76339091Y-97712617D01*
X76337387Y-97708049D01*
X76288797Y-97577771D01*
X76288793Y-97577764D01*
X76202547Y-97462555D01*
X76202544Y-97462552D01*
X76087335Y-97376306D01*
X76087332Y-97376305D01*
X76087331Y-97376304D01*
X76076161Y-97372138D01*
X76020231Y-97330266D01*
X75995816Y-97264801D01*
X75995500Y-97255958D01*
X75995500Y-94086199D01*
X76015185Y-94019160D01*
X76067989Y-93973405D01*
X76119500Y-93962199D01*
X76233902Y-93962199D01*
X76233908Y-93962199D01*
X76336697Y-93951699D01*
X76503234Y-93896514D01*
X76652556Y-93804412D01*
X76765671Y-93691297D01*
X81178734Y-93691297D01*
X81178734Y-93691302D01*
X81198558Y-93917899D01*
X81198560Y-93917910D01*
X81257430Y-94137617D01*
X81257435Y-94137631D01*
X81353563Y-94343778D01*
X81404674Y-94416772D01*
X82083700Y-93737746D01*
X82083700Y-93743961D01*
X82110959Y-93845694D01*
X82163620Y-93936906D01*
X82238094Y-94011380D01*
X82329306Y-94064041D01*
X82431039Y-94091300D01*
X82437253Y-94091300D01*
X81758226Y-94770325D01*
X81831213Y-94821432D01*
X81831221Y-94821436D01*
X82037368Y-94917564D01*
X82037382Y-94917569D01*
X82257089Y-94976439D01*
X82257100Y-94976441D01*
X82483698Y-94996266D01*
X82483702Y-94996266D01*
X82710299Y-94976441D01*
X82710310Y-94976439D01*
X82930017Y-94917569D01*
X82930031Y-94917564D01*
X83136178Y-94821436D01*
X83209171Y-94770324D01*
X82530147Y-94091300D01*
X82536361Y-94091300D01*
X82638094Y-94064041D01*
X82729306Y-94011380D01*
X82803780Y-93936906D01*
X82856441Y-93845694D01*
X82883700Y-93743961D01*
X82883700Y-93737747D01*
X83562724Y-94416771D01*
X83613836Y-94343778D01*
X83709964Y-94137631D01*
X83709969Y-94137617D01*
X83768839Y-93917910D01*
X83768841Y-93917899D01*
X83788666Y-93691302D01*
X83788666Y-93691297D01*
X83768841Y-93464700D01*
X83768839Y-93464689D01*
X83709969Y-93244982D01*
X83709964Y-93244968D01*
X83613836Y-93038821D01*
X83613832Y-93038813D01*
X83562725Y-92965826D01*
X82883700Y-93644851D01*
X82883700Y-93638639D01*
X82856441Y-93536906D01*
X82803780Y-93445694D01*
X82729306Y-93371220D01*
X82638094Y-93318559D01*
X82536361Y-93291300D01*
X82530145Y-93291300D01*
X83209172Y-92612274D01*
X83192908Y-92600886D01*
X85138401Y-92600886D01*
X85148894Y-92703597D01*
X85204041Y-92870019D01*
X85204043Y-92870024D01*
X85296084Y-93019245D01*
X85420054Y-93143215D01*
X85569275Y-93235256D01*
X85569280Y-93235258D01*
X85735702Y-93290405D01*
X85735709Y-93290406D01*
X85838419Y-93300899D01*
X87588399Y-93300899D01*
X88088400Y-93300899D01*
X89838372Y-93300899D01*
X89838386Y-93300898D01*
X89941097Y-93290405D01*
X90107519Y-93235258D01*
X90107524Y-93235256D01*
X90256745Y-93143215D01*
X90380715Y-93019245D01*
X90472756Y-92870024D01*
X90472758Y-92870019D01*
X90527905Y-92703597D01*
X90527906Y-92703590D01*
X90538399Y-92600886D01*
X90538400Y-92600873D01*
X90538400Y-91800900D01*
X88088400Y-91800900D01*
X88088400Y-93300899D01*
X87588399Y-93300899D01*
X87588400Y-93300898D01*
X87588400Y-91800900D01*
X85138401Y-91800900D01*
X85138401Y-92600886D01*
X83192908Y-92600886D01*
X83136178Y-92561163D01*
X82930031Y-92465035D01*
X82930017Y-92465030D01*
X82710310Y-92406160D01*
X82710299Y-92406158D01*
X82483702Y-92386334D01*
X82483698Y-92386334D01*
X82257100Y-92406158D01*
X82257089Y-92406160D01*
X82037382Y-92465030D01*
X82037373Y-92465034D01*
X81831216Y-92561166D01*
X81831212Y-92561168D01*
X81758226Y-92612273D01*
X81758226Y-92612274D01*
X82437253Y-93291300D01*
X82431039Y-93291300D01*
X82329306Y-93318559D01*
X82238094Y-93371220D01*
X82163620Y-93445694D01*
X82110959Y-93536906D01*
X82083700Y-93638639D01*
X82083700Y-93644852D01*
X81404674Y-92965826D01*
X81404673Y-92965826D01*
X81353568Y-93038812D01*
X81353566Y-93038816D01*
X81257434Y-93244973D01*
X81257430Y-93244982D01*
X81198560Y-93464689D01*
X81198558Y-93464700D01*
X81178734Y-93691297D01*
X76765671Y-93691297D01*
X76776612Y-93680356D01*
X76868714Y-93531034D01*
X76923899Y-93364497D01*
X76934400Y-93261709D01*
X76934399Y-91161692D01*
X76923899Y-91058903D01*
X76923898Y-91058902D01*
X76923211Y-91052168D01*
X76925826Y-91051900D01*
X76930137Y-90994100D01*
X76972178Y-90938293D01*
X77037716Y-90914075D01*
X77085192Y-90920080D01*
X77094303Y-90923099D01*
X77197091Y-90933600D01*
X78247108Y-90933599D01*
X78247116Y-90933598D01*
X78247119Y-90933598D01*
X78303402Y-90927848D01*
X78349897Y-90923099D01*
X78516434Y-90867914D01*
X78665756Y-90775812D01*
X78789812Y-90651756D01*
X78881914Y-90502434D01*
X78882418Y-90500913D01*
X85138400Y-90500913D01*
X85138400Y-91300900D01*
X87588400Y-91300900D01*
X88088400Y-91300900D01*
X90538399Y-91300900D01*
X90538399Y-90500928D01*
X90538398Y-90500913D01*
X90527905Y-90398202D01*
X90472758Y-90231780D01*
X90472756Y-90231775D01*
X90380715Y-90082554D01*
X90256745Y-89958584D01*
X90107524Y-89866543D01*
X90107519Y-89866541D01*
X89941097Y-89811394D01*
X89941090Y-89811393D01*
X89838386Y-89800900D01*
X88088400Y-89800900D01*
X88088400Y-91300900D01*
X87588400Y-91300900D01*
X87588400Y-89800900D01*
X85838428Y-89800900D01*
X85838412Y-89800901D01*
X85735702Y-89811394D01*
X85569280Y-89866541D01*
X85569275Y-89866543D01*
X85420054Y-89958584D01*
X85296084Y-90082554D01*
X85204043Y-90231775D01*
X85204041Y-90231780D01*
X85148894Y-90398202D01*
X85148893Y-90398209D01*
X85138400Y-90500913D01*
X78882418Y-90500913D01*
X78937099Y-90335897D01*
X78947600Y-90233109D01*
X78947599Y-89458092D01*
X78943609Y-89419036D01*
X78937099Y-89355303D01*
X78937098Y-89355300D01*
X78930551Y-89335543D01*
X78881914Y-89188766D01*
X78789812Y-89039444D01*
X78665756Y-88915388D01*
X78662442Y-88913343D01*
X78660646Y-88911348D01*
X78660089Y-88910907D01*
X78660164Y-88910811D01*
X78615718Y-88861397D01*
X78604497Y-88792434D01*
X78632340Y-88728352D01*
X78662448Y-88702265D01*
X78665442Y-88700418D01*
X78789415Y-88576445D01*
X78881456Y-88427224D01*
X78881458Y-88427219D01*
X78936605Y-88260797D01*
X78936606Y-88260790D01*
X78947099Y-88158086D01*
X78947100Y-88158073D01*
X78947100Y-88020600D01*
X76497101Y-88020600D01*
X76497101Y-88158086D01*
X76507594Y-88260797D01*
X76562741Y-88427219D01*
X76562743Y-88427224D01*
X76654784Y-88576445D01*
X76711758Y-88633419D01*
X76745243Y-88694742D01*
X76740259Y-88764434D01*
X76698387Y-88820367D01*
X76632923Y-88844784D01*
X76624077Y-88845100D01*
X76501454Y-88845100D01*
X76469391Y-88851476D01*
X76469392Y-88851477D01*
X76308170Y-88883546D01*
X76308164Y-88883548D01*
X76231297Y-88915388D01*
X76126088Y-88958966D01*
X76126079Y-88958971D01*
X76005646Y-89039443D01*
X75962216Y-89068461D01*
X75962213Y-89068464D01*
X74605798Y-90424881D01*
X74544475Y-90458366D01*
X74518117Y-90461200D01*
X73949682Y-90461200D01*
X73882643Y-90441515D01*
X73862001Y-90424881D01*
X70820233Y-87383113D01*
X76497100Y-87383113D01*
X76497100Y-87520600D01*
X77472100Y-87520600D01*
X77472100Y-86683100D01*
X77972100Y-86683100D01*
X77972100Y-87520600D01*
X78943056Y-87520600D01*
X79010095Y-87540285D01*
X79048595Y-87579503D01*
X79049785Y-87581433D01*
X79049786Y-87581434D01*
X79141888Y-87730756D01*
X79265944Y-87854812D01*
X79415266Y-87946914D01*
X79581803Y-88002099D01*
X79684591Y-88012600D01*
X80684608Y-88012599D01*
X80684616Y-88012598D01*
X80684619Y-88012598D01*
X80740902Y-88006848D01*
X80787397Y-88002099D01*
X80953934Y-87946914D01*
X80979636Y-87931060D01*
X81044732Y-87912600D01*
X81454101Y-87912600D01*
X81521140Y-87932285D01*
X81566895Y-87985089D01*
X81578101Y-88036600D01*
X81578101Y-88488918D01*
X81588600Y-88591696D01*
X81588601Y-88591699D01*
X81630621Y-88718506D01*
X81643786Y-88758234D01*
X81735888Y-88907556D01*
X81859944Y-89031612D01*
X82009266Y-89123714D01*
X82175803Y-89178899D01*
X82278591Y-89189400D01*
X83678608Y-89189399D01*
X83781397Y-89178899D01*
X83947934Y-89123714D01*
X84097256Y-89031612D01*
X84221312Y-88907556D01*
X84313414Y-88758234D01*
X84368599Y-88591697D01*
X84379100Y-88488909D01*
X84379100Y-88063400D01*
X84398785Y-87996361D01*
X84451589Y-87950606D01*
X84503100Y-87939400D01*
X90160618Y-87939400D01*
X90227657Y-87959085D01*
X90248299Y-87975719D01*
X92524753Y-90252173D01*
X92558238Y-90313496D01*
X92554779Y-90378854D01*
X92548402Y-90398097D01*
X92548400Y-90398109D01*
X92537900Y-90500883D01*
X92537900Y-92600901D01*
X92537901Y-92600918D01*
X92548400Y-92703696D01*
X92548401Y-92703699D01*
X92590318Y-92830195D01*
X92603586Y-92870234D01*
X92695688Y-93019556D01*
X92819744Y-93143612D01*
X92969066Y-93235714D01*
X93135603Y-93290899D01*
X93238391Y-93301400D01*
X94979916Y-93301399D01*
X95046955Y-93321084D01*
X95092710Y-93373887D01*
X95102654Y-93443046D01*
X95073629Y-93506602D01*
X95067597Y-93513080D01*
X89510480Y-99070199D01*
X87732720Y-100847959D01*
X87732718Y-100847961D01*
X87663038Y-100917640D01*
X87593359Y-100987319D01*
X87483871Y-101151179D01*
X87483864Y-101151192D01*
X87408450Y-101333260D01*
X87408447Y-101333270D01*
X87369999Y-101526556D01*
X87369403Y-101532619D01*
X87368094Y-101532490D01*
X87350315Y-101593039D01*
X87297511Y-101638794D01*
X87246000Y-101650000D01*
X87220484Y-101650000D01*
X87117704Y-101660500D01*
X87117703Y-101660501D01*
X86951164Y-101715686D01*
X86951162Y-101715687D01*
X86801848Y-101807786D01*
X86801844Y-101807789D01*
X86677789Y-101931844D01*
X86677786Y-101931848D01*
X86585687Y-102081162D01*
X86585686Y-102081164D01*
X86530501Y-102247703D01*
X86530500Y-102247704D01*
X86520000Y-102350484D01*
X86520000Y-105250515D01*
X86530500Y-105353295D01*
X86530501Y-105353296D01*
X86585686Y-105519835D01*
X86585687Y-105519837D01*
X86677786Y-105669151D01*
X86677789Y-105669155D01*
X86801844Y-105793210D01*
X86801848Y-105793213D01*
X86951162Y-105885312D01*
X86951164Y-105885313D01*
X86951166Y-105885314D01*
X87117703Y-105940499D01*
X87220492Y-105951000D01*
X87246000Y-105951000D01*
X87313039Y-105970685D01*
X87358794Y-106023489D01*
X87370000Y-106075000D01*
X87370000Y-107374555D01*
X87350315Y-107441594D01*
X87321487Y-107472931D01*
X87147756Y-107606239D01*
X86976239Y-107777756D01*
X86976233Y-107777763D01*
X86828567Y-107970206D01*
X86707277Y-108180285D01*
X86707273Y-108180294D01*
X86614447Y-108404395D01*
X86551661Y-108638714D01*
X86520000Y-108879211D01*
X86520000Y-109721788D01*
X86551661Y-109962285D01*
X86614447Y-110196604D01*
X86707179Y-110420478D01*
X86707276Y-110420712D01*
X86828564Y-110630789D01*
X86828566Y-110630792D01*
X86828567Y-110630793D01*
X86976233Y-110823236D01*
X86976239Y-110823243D01*
X87147756Y-110994760D01*
X87147762Y-110994765D01*
X87340211Y-111142436D01*
X87550288Y-111263724D01*
X87774400Y-111356554D01*
X88008711Y-111419338D01*
X88189086Y-111443084D01*
X88249211Y-111451000D01*
X88249212Y-111451000D01*
X88491789Y-111451000D01*
X88539888Y-111444667D01*
X88732289Y-111419338D01*
X88966600Y-111356554D01*
X89190712Y-111263724D01*
X89400789Y-111142436D01*
X89593238Y-110994765D01*
X89764765Y-110823238D01*
X89912436Y-110630789D01*
X90033724Y-110420712D01*
X90126554Y-110196600D01*
X90189338Y-109962289D01*
X90221000Y-109721788D01*
X90221000Y-108879251D01*
X90720500Y-108879251D01*
X90720500Y-109050500D01*
X91916379Y-109050500D01*
X91897401Y-109096318D01*
X91870500Y-109231556D01*
X91870500Y-109369444D01*
X91897401Y-109504682D01*
X91916379Y-109550500D01*
X90720500Y-109550500D01*
X90720500Y-109721748D01*
X90720501Y-109721764D01*
X90752153Y-109962187D01*
X90814921Y-110196439D01*
X90907720Y-110420478D01*
X90907727Y-110420493D01*
X91028980Y-110630509D01*
X91176610Y-110822905D01*
X91176616Y-110822912D01*
X91348087Y-110994383D01*
X91348094Y-110994389D01*
X91540490Y-111142019D01*
X91750506Y-111263272D01*
X91750521Y-111263279D01*
X91974560Y-111356078D01*
X92208812Y-111418846D01*
X92320500Y-111433549D01*
X92320500Y-109954620D01*
X92366318Y-109973599D01*
X92501556Y-110000500D01*
X92639444Y-110000500D01*
X92774682Y-109973599D01*
X92820500Y-109954620D01*
X92820500Y-111433548D01*
X92932187Y-111418846D01*
X93166439Y-111356078D01*
X93390478Y-111263279D01*
X93390493Y-111263272D01*
X93600509Y-111142019D01*
X93792905Y-110994389D01*
X93792912Y-110994383D01*
X93964383Y-110822912D01*
X93964389Y-110822905D01*
X94112019Y-110630509D01*
X94233272Y-110420493D01*
X94233279Y-110420478D01*
X94326078Y-110196439D01*
X94388846Y-109962187D01*
X94420498Y-109721764D01*
X94420500Y-109721748D01*
X94420500Y-109550500D01*
X93224621Y-109550500D01*
X93243599Y-109504682D01*
X93270500Y-109369444D01*
X93270500Y-109231556D01*
X93243599Y-109096318D01*
X93224621Y-109050500D01*
X94420500Y-109050500D01*
X94420500Y-108879251D01*
X94420498Y-108879235D01*
X94388846Y-108638812D01*
X94326078Y-108404560D01*
X94233279Y-108180521D01*
X94233272Y-108180506D01*
X94112019Y-107970490D01*
X93964389Y-107778094D01*
X93964383Y-107778087D01*
X93792912Y-107606616D01*
X93792905Y-107606610D01*
X93600509Y-107458980D01*
X93390493Y-107337727D01*
X93390478Y-107337720D01*
X93166439Y-107244921D01*
X92932187Y-107182153D01*
X92820500Y-107167448D01*
X92820500Y-108646379D01*
X92774682Y-108627401D01*
X92639444Y-108600500D01*
X92501556Y-108600500D01*
X92366318Y-108627401D01*
X92320500Y-108646379D01*
X92320500Y-107167448D01*
X92320499Y-107167448D01*
X92208812Y-107182153D01*
X91974560Y-107244921D01*
X91750521Y-107337720D01*
X91750506Y-107337727D01*
X91540490Y-107458980D01*
X91348094Y-107606610D01*
X91348087Y-107606616D01*
X91176616Y-107778087D01*
X91176610Y-107778094D01*
X91028980Y-107970490D01*
X90907727Y-108180506D01*
X90907720Y-108180521D01*
X90814921Y-108404560D01*
X90752153Y-108638812D01*
X90720501Y-108879235D01*
X90720500Y-108879251D01*
X90221000Y-108879251D01*
X90221000Y-108879212D01*
X90189338Y-108638711D01*
X90126554Y-108404400D01*
X90033724Y-108180288D01*
X89912436Y-107970211D01*
X89765020Y-107778094D01*
X89764766Y-107777763D01*
X89764760Y-107777756D01*
X89593243Y-107606239D01*
X89419513Y-107472931D01*
X89378311Y-107416503D01*
X89371000Y-107374555D01*
X89371000Y-106075000D01*
X89390685Y-106007961D01*
X89443489Y-105962206D01*
X89495000Y-105951000D01*
X89520503Y-105951000D01*
X89520508Y-105951000D01*
X89623297Y-105940499D01*
X89789834Y-105885314D01*
X89939155Y-105793211D01*
X90063211Y-105669155D01*
X90155314Y-105519834D01*
X90210499Y-105353297D01*
X90221000Y-105250508D01*
X90221000Y-103379251D01*
X90720500Y-103379251D01*
X90720500Y-103550500D01*
X91916379Y-103550500D01*
X91897401Y-103596318D01*
X91870500Y-103731556D01*
X91870500Y-103869444D01*
X91897401Y-104004682D01*
X91916379Y-104050500D01*
X90720500Y-104050500D01*
X90720500Y-104221748D01*
X90720501Y-104221764D01*
X90752153Y-104462187D01*
X90814921Y-104696439D01*
X90907720Y-104920478D01*
X90907727Y-104920493D01*
X91028980Y-105130509D01*
X91176610Y-105322905D01*
X91176616Y-105322912D01*
X91348087Y-105494383D01*
X91348094Y-105494389D01*
X91540490Y-105642019D01*
X91750506Y-105763272D01*
X91750521Y-105763279D01*
X91974560Y-105856078D01*
X92208812Y-105918846D01*
X92320500Y-105933549D01*
X92320500Y-104454620D01*
X92366318Y-104473599D01*
X92501556Y-104500500D01*
X92639444Y-104500500D01*
X92774682Y-104473599D01*
X92820500Y-104454620D01*
X92820500Y-105933548D01*
X92932187Y-105918846D01*
X93166439Y-105856078D01*
X93390478Y-105763279D01*
X93390493Y-105763272D01*
X93600509Y-105642019D01*
X93792905Y-105494389D01*
X93792912Y-105494383D01*
X93964383Y-105322912D01*
X93964389Y-105322905D01*
X94112019Y-105130509D01*
X94233272Y-104920493D01*
X94233279Y-104920478D01*
X94326078Y-104696439D01*
X94332252Y-104673399D01*
X101222322Y-104673399D01*
X101222322Y-104673400D01*
X101242619Y-105060687D01*
X101303286Y-105443723D01*
X101303287Y-105443730D01*
X101403662Y-105818336D01*
X101542644Y-106180394D01*
X101718710Y-106525943D01*
X101929923Y-106851183D01*
X101929925Y-106851185D01*
X102138496Y-107108748D01*
X103633147Y-105614097D01*
X103706988Y-105715730D01*
X103885070Y-105893812D01*
X103986701Y-105967651D01*
X102492050Y-107462302D01*
X102749614Y-107670875D01*
X102749616Y-107670876D01*
X103074856Y-107882089D01*
X103420405Y-108058155D01*
X103782463Y-108197137D01*
X104157069Y-108297512D01*
X104157076Y-108297513D01*
X104540112Y-108358180D01*
X104927399Y-108378478D01*
X104927401Y-108378478D01*
X105314687Y-108358180D01*
X105697723Y-108297513D01*
X105697730Y-108297512D01*
X106072336Y-108197137D01*
X106434394Y-108058155D01*
X106779943Y-107882089D01*
X107105171Y-107670884D01*
X107105184Y-107670874D01*
X107362748Y-107462302D01*
X105868098Y-105967652D01*
X105969730Y-105893812D01*
X106147812Y-105715730D01*
X106221652Y-105614098D01*
X107716302Y-107108748D01*
X107924874Y-106851184D01*
X107924884Y-106851171D01*
X108136089Y-106525943D01*
X108312155Y-106180394D01*
X108451137Y-105818336D01*
X108551512Y-105443730D01*
X108551513Y-105443723D01*
X108612180Y-105060687D01*
X108632478Y-104673400D01*
X108632478Y-104673399D01*
X108612180Y-104286112D01*
X108551513Y-103903076D01*
X108551512Y-103903069D01*
X108451137Y-103528463D01*
X108312155Y-103166405D01*
X108136089Y-102820856D01*
X107924876Y-102495616D01*
X107924875Y-102495614D01*
X107807374Y-102350514D01*
X113309300Y-102350514D01*
X113309300Y-103550500D01*
X114505179Y-103550500D01*
X114486201Y-103596318D01*
X114459300Y-103731556D01*
X114459300Y-103869444D01*
X114486201Y-104004682D01*
X114505179Y-104050500D01*
X113309300Y-104050500D01*
X113309300Y-105250485D01*
X113319793Y-105353189D01*
X113319794Y-105353196D01*
X113374941Y-105519618D01*
X113374943Y-105519623D01*
X113466984Y-105668844D01*
X113590955Y-105792815D01*
X113740176Y-105884856D01*
X113740181Y-105884858D01*
X113906603Y-105940005D01*
X113906610Y-105940006D01*
X114009314Y-105950499D01*
X114009327Y-105950500D01*
X114909300Y-105950500D01*
X114909300Y-104454620D01*
X114955118Y-104473599D01*
X115090356Y-104500500D01*
X115228244Y-104500500D01*
X115363482Y-104473599D01*
X115409300Y-104454620D01*
X115409300Y-105950500D01*
X116309273Y-105950500D01*
X116309285Y-105950499D01*
X116411989Y-105940006D01*
X116411996Y-105940005D01*
X116578418Y-105884858D01*
X116578423Y-105884856D01*
X116727644Y-105792815D01*
X116851615Y-105668844D01*
X116943656Y-105519623D01*
X116943658Y-105519618D01*
X116998805Y-105353196D01*
X116998806Y-105353189D01*
X117009299Y-105250485D01*
X117009300Y-105250472D01*
X117009300Y-104050500D01*
X115813421Y-104050500D01*
X115832399Y-104004682D01*
X115859300Y-103869444D01*
X115859300Y-103731556D01*
X115832399Y-103596318D01*
X115813421Y-103550500D01*
X117009300Y-103550500D01*
X117009300Y-102350527D01*
X117009299Y-102350514D01*
X116998806Y-102247810D01*
X116998805Y-102247803D01*
X116943658Y-102081381D01*
X116943656Y-102081376D01*
X116851615Y-101932155D01*
X116727644Y-101808184D01*
X116578423Y-101716143D01*
X116578418Y-101716141D01*
X116411996Y-101660994D01*
X116411989Y-101660993D01*
X116309285Y-101650500D01*
X115409300Y-101650500D01*
X115409300Y-103146379D01*
X115363482Y-103127401D01*
X115228244Y-103100500D01*
X115090356Y-103100500D01*
X114955118Y-103127401D01*
X114909300Y-103146379D01*
X114909300Y-101650500D01*
X114009314Y-101650500D01*
X113906610Y-101660993D01*
X113906603Y-101660994D01*
X113740181Y-101716141D01*
X113740176Y-101716143D01*
X113590955Y-101808184D01*
X113466984Y-101932155D01*
X113374943Y-102081376D01*
X113374941Y-102081381D01*
X113319794Y-102247803D01*
X113319793Y-102247810D01*
X113309300Y-102350514D01*
X107807374Y-102350514D01*
X107716302Y-102238050D01*
X106221651Y-103732701D01*
X106147812Y-103631070D01*
X105969730Y-103452988D01*
X105868097Y-103379147D01*
X107362748Y-101884496D01*
X107105185Y-101675925D01*
X107105183Y-101675923D01*
X106779943Y-101464710D01*
X106434394Y-101288644D01*
X106072336Y-101149662D01*
X105697730Y-101049287D01*
X105697723Y-101049286D01*
X105314687Y-100988619D01*
X104927401Y-100968322D01*
X104927399Y-100968322D01*
X104540112Y-100988619D01*
X104157076Y-101049286D01*
X104157069Y-101049287D01*
X103782463Y-101149662D01*
X103420405Y-101288644D01*
X103074856Y-101464710D01*
X102749606Y-101675931D01*
X102492049Y-101884495D01*
X102492049Y-101884496D01*
X103986701Y-103379148D01*
X103885070Y-103452988D01*
X103706988Y-103631070D01*
X103633148Y-103732701D01*
X102138496Y-102238049D01*
X102138495Y-102238049D01*
X101929931Y-102495606D01*
X101718710Y-102820856D01*
X101542644Y-103166405D01*
X101403662Y-103528463D01*
X101303287Y-103903069D01*
X101303286Y-103903076D01*
X101242619Y-104286112D01*
X101222322Y-104673399D01*
X94332252Y-104673399D01*
X94388846Y-104462187D01*
X94420498Y-104221764D01*
X94420500Y-104221748D01*
X94420500Y-104050500D01*
X93224621Y-104050500D01*
X93243599Y-104004682D01*
X93270500Y-103869444D01*
X93270500Y-103731556D01*
X93243599Y-103596318D01*
X93224621Y-103550500D01*
X94420500Y-103550500D01*
X94420500Y-103379251D01*
X94420498Y-103379235D01*
X94388846Y-103138812D01*
X94326078Y-102904560D01*
X94233279Y-102680521D01*
X94233272Y-102680506D01*
X94112019Y-102470490D01*
X93964389Y-102278094D01*
X93964383Y-102278087D01*
X93792912Y-102106616D01*
X93792905Y-102106610D01*
X93600509Y-101958980D01*
X93390493Y-101837727D01*
X93390478Y-101837720D01*
X93166439Y-101744921D01*
X92932187Y-101682153D01*
X92820500Y-101667448D01*
X92820500Y-103146379D01*
X92774682Y-103127401D01*
X92639444Y-103100500D01*
X92501556Y-103100500D01*
X92366318Y-103127401D01*
X92320500Y-103146379D01*
X92320500Y-101667448D01*
X92320499Y-101667448D01*
X92208812Y-101682153D01*
X91974560Y-101744921D01*
X91750521Y-101837720D01*
X91750506Y-101837727D01*
X91540490Y-101958980D01*
X91348094Y-102106610D01*
X91348087Y-102106616D01*
X91176616Y-102278087D01*
X91176610Y-102278094D01*
X91028980Y-102470490D01*
X90907727Y-102680506D01*
X90907720Y-102680521D01*
X90814921Y-102904560D01*
X90752153Y-103138812D01*
X90720501Y-103379235D01*
X90720500Y-103379251D01*
X90221000Y-103379251D01*
X90221000Y-102350492D01*
X90210499Y-102247703D01*
X90155314Y-102081166D01*
X90143674Y-102062295D01*
X90063213Y-101931848D01*
X90063210Y-101931844D01*
X89939155Y-101807789D01*
X89939151Y-101807786D01*
X89864550Y-101761771D01*
X89817825Y-101709823D01*
X89806604Y-101640860D01*
X89834447Y-101576778D01*
X89841954Y-101568564D01*
X96682402Y-94728119D01*
X96743725Y-94694634D01*
X96770083Y-94691800D01*
X98754112Y-94691800D01*
X98821151Y-94711485D01*
X98825223Y-94714217D01*
X98978966Y-94821868D01*
X99185204Y-94918039D01*
X99405008Y-94976935D01*
X99566930Y-94991101D01*
X99631698Y-94996768D01*
X99631700Y-94996768D01*
X99631702Y-94996768D01*
X99688373Y-94991809D01*
X99858392Y-94976935D01*
X100078196Y-94918039D01*
X100284434Y-94821868D01*
X100470839Y-94691347D01*
X100485441Y-94676745D01*
X102123937Y-94676745D01*
X102123937Y-94676754D01*
X102143760Y-94941285D01*
X102143761Y-94941290D01*
X102202790Y-95199916D01*
X102202796Y-95199935D01*
X102299714Y-95446878D01*
X102299713Y-95446878D01*
X102432356Y-95676621D01*
X102482541Y-95739553D01*
X103415937Y-94806158D01*
X103432975Y-94869743D01*
X103498801Y-94983757D01*
X103591893Y-95076849D01*
X103705907Y-95142675D01*
X103769491Y-95159712D01*
X102835338Y-96093863D01*
X103011418Y-96213912D01*
X103011426Y-96213917D01*
X103250430Y-96329014D01*
X103250428Y-96329014D01*
X103503925Y-96407208D01*
X103503931Y-96407209D01*
X103766251Y-96446749D01*
X103766258Y-96446750D01*
X104031542Y-96446750D01*
X104031548Y-96446749D01*
X104293868Y-96407209D01*
X104293874Y-96407208D01*
X104547370Y-96329014D01*
X104786374Y-96213917D01*
X104786384Y-96213910D01*
X104962460Y-96093863D01*
X104028308Y-95159712D01*
X104091893Y-95142675D01*
X104205907Y-95076849D01*
X104298999Y-94983757D01*
X104364825Y-94869743D01*
X104381862Y-94806158D01*
X105315257Y-95739553D01*
X105365442Y-95676621D01*
X105498085Y-95446878D01*
X105595003Y-95199935D01*
X105595009Y-95199916D01*
X105654038Y-94941290D01*
X105654039Y-94941285D01*
X105673863Y-94676754D01*
X105673863Y-94676745D01*
X105654039Y-94412214D01*
X105654038Y-94412209D01*
X105595009Y-94153583D01*
X105595003Y-94153564D01*
X105498085Y-93906621D01*
X105498086Y-93906621D01*
X105365443Y-93676878D01*
X105315256Y-93613946D01*
X104381862Y-94547340D01*
X104364825Y-94483757D01*
X104298999Y-94369743D01*
X104205907Y-94276651D01*
X104091893Y-94210825D01*
X104028309Y-94193787D01*
X104962460Y-93259635D01*
X104786375Y-93139583D01*
X104786374Y-93139582D01*
X104547369Y-93024485D01*
X104547371Y-93024485D01*
X104293874Y-92946291D01*
X104293868Y-92946290D01*
X104031548Y-92906750D01*
X103766251Y-92906750D01*
X103503931Y-92946290D01*
X103503925Y-92946291D01*
X103250429Y-93024485D01*
X103011424Y-93139584D01*
X103011411Y-93139591D01*
X102835338Y-93259634D01*
X103769491Y-94193787D01*
X103705907Y-94210825D01*
X103591893Y-94276651D01*
X103498801Y-94369743D01*
X103432975Y-94483757D01*
X103415937Y-94547341D01*
X102482542Y-93613946D01*
X102432357Y-93676877D01*
X102299714Y-93906621D01*
X102202796Y-94153564D01*
X102202790Y-94153583D01*
X102143761Y-94412209D01*
X102143760Y-94412214D01*
X102123937Y-94676745D01*
X100485441Y-94676745D01*
X100631747Y-94530439D01*
X100762268Y-94344034D01*
X100858439Y-94137796D01*
X100917335Y-93917992D01*
X100937168Y-93691300D01*
X100935881Y-93676595D01*
X100923660Y-93536906D01*
X100917335Y-93464608D01*
X100862967Y-93261701D01*
X100858441Y-93244811D01*
X100858438Y-93244802D01*
X100853987Y-93235256D01*
X100762268Y-93038566D01*
X100631747Y-92852161D01*
X100631745Y-92852158D01*
X100470841Y-92691254D01*
X100284434Y-92560732D01*
X100284432Y-92560731D01*
X100078197Y-92464561D01*
X100078188Y-92464558D01*
X99881424Y-92411836D01*
X107735101Y-92411836D01*
X107745594Y-92514547D01*
X107800741Y-92680969D01*
X107800743Y-92680974D01*
X107892784Y-92830195D01*
X108016754Y-92954165D01*
X108165975Y-93046206D01*
X108165980Y-93046208D01*
X108332402Y-93101355D01*
X108332409Y-93101356D01*
X108435119Y-93111849D01*
X110185099Y-93111849D01*
X110685100Y-93111849D01*
X112435072Y-93111849D01*
X112435086Y-93111848D01*
X112537797Y-93101355D01*
X112704219Y-93046208D01*
X112704224Y-93046206D01*
X112853445Y-92954165D01*
X112977415Y-92830195D01*
X113069456Y-92680974D01*
X113069458Y-92680969D01*
X113124605Y-92514547D01*
X113124606Y-92514540D01*
X113135099Y-92411836D01*
X113135100Y-92411823D01*
X113135100Y-91611850D01*
X110685100Y-91611850D01*
X110685100Y-93111849D01*
X110185099Y-93111849D01*
X110185100Y-93111848D01*
X110185100Y-91611850D01*
X107735101Y-91611850D01*
X107735101Y-92411836D01*
X99881424Y-92411836D01*
X99858397Y-92405666D01*
X99858394Y-92405665D01*
X99858392Y-92405665D01*
X99840289Y-92404081D01*
X99775221Y-92378627D01*
X99734244Y-92322035D01*
X99727100Y-92280553D01*
X99727100Y-90311863D01*
X107735100Y-90311863D01*
X107735100Y-91111850D01*
X110185100Y-91111850D01*
X110685100Y-91111850D01*
X113135099Y-91111850D01*
X113135099Y-90311878D01*
X113135098Y-90311863D01*
X113124605Y-90209152D01*
X113069458Y-90042730D01*
X113069456Y-90042725D01*
X112977415Y-89893504D01*
X112853445Y-89769534D01*
X112704224Y-89677493D01*
X112704219Y-89677491D01*
X112537797Y-89622344D01*
X112537790Y-89622343D01*
X112435086Y-89611850D01*
X110685100Y-89611850D01*
X110685100Y-91111850D01*
X110185100Y-91111850D01*
X110185100Y-89611850D01*
X108435128Y-89611850D01*
X108435112Y-89611851D01*
X108332402Y-89622344D01*
X108165980Y-89677491D01*
X108165975Y-89677493D01*
X108016754Y-89769534D01*
X107892784Y-89893504D01*
X107800743Y-90042725D01*
X107800741Y-90042730D01*
X107745594Y-90209152D01*
X107745593Y-90209159D01*
X107735100Y-90311863D01*
X99727100Y-90311863D01*
X99727100Y-90109530D01*
X99746785Y-90042491D01*
X99763419Y-90021849D01*
X99771129Y-90014139D01*
X99794312Y-89990956D01*
X99886414Y-89841634D01*
X99941599Y-89675097D01*
X99952100Y-89572309D01*
X99952099Y-88797292D01*
X99948109Y-88758236D01*
X99941599Y-88694503D01*
X99941598Y-88694500D01*
X99922385Y-88636519D01*
X99886414Y-88527966D01*
X99794312Y-88378644D01*
X99670256Y-88254588D01*
X99666942Y-88252543D01*
X99665146Y-88250548D01*
X99664589Y-88250107D01*
X99664664Y-88250011D01*
X99620218Y-88200597D01*
X99608997Y-88131634D01*
X99636840Y-88067552D01*
X99666948Y-88041465D01*
X99669942Y-88039618D01*
X99793915Y-87915645D01*
X99885956Y-87766424D01*
X99885958Y-87766419D01*
X99941105Y-87599997D01*
X99941106Y-87599990D01*
X99951599Y-87497286D01*
X99951600Y-87497273D01*
X99951600Y-87359800D01*
X97501601Y-87359800D01*
X97501601Y-87497286D01*
X97512094Y-87599997D01*
X97567241Y-87766419D01*
X97567243Y-87766424D01*
X97659284Y-87915645D01*
X97783255Y-88039616D01*
X97783259Y-88039619D01*
X97786256Y-88041468D01*
X97787879Y-88043272D01*
X97788923Y-88044098D01*
X97788781Y-88044276D01*
X97832981Y-88093416D01*
X97844202Y-88162379D01*
X97816359Y-88226461D01*
X97786261Y-88252541D01*
X97782949Y-88254583D01*
X97782943Y-88254588D01*
X97658889Y-88378642D01*
X97566787Y-88527963D01*
X97566785Y-88527968D01*
X97545668Y-88591695D01*
X97511601Y-88694503D01*
X97511601Y-88694504D01*
X97511600Y-88694504D01*
X97501100Y-88797283D01*
X97501100Y-89572301D01*
X97501101Y-89572319D01*
X97512289Y-89681832D01*
X97509681Y-89682098D01*
X97505344Y-89739948D01*
X97463279Y-89795737D01*
X97397731Y-89819928D01*
X97350311Y-89813921D01*
X97341197Y-89810901D01*
X97341195Y-89810900D01*
X97238416Y-89800400D01*
X97238409Y-89800400D01*
X94954182Y-89800400D01*
X94887143Y-89780715D01*
X94866501Y-89764081D01*
X91824733Y-86722313D01*
X97501600Y-86722313D01*
X97501600Y-86859800D01*
X98476600Y-86859800D01*
X98976600Y-86859800D01*
X99951599Y-86859800D01*
X99951599Y-86722328D01*
X99951598Y-86722313D01*
X99941105Y-86619602D01*
X99885958Y-86453180D01*
X99885956Y-86453175D01*
X99793915Y-86303954D01*
X99669945Y-86179984D01*
X99520724Y-86087943D01*
X99520719Y-86087941D01*
X99354297Y-86032794D01*
X99354290Y-86032793D01*
X99251586Y-86022300D01*
X98976600Y-86022300D01*
X98976600Y-86859800D01*
X98476600Y-86859800D01*
X98476600Y-86022300D01*
X98201629Y-86022300D01*
X98201612Y-86022301D01*
X98098902Y-86032794D01*
X97932480Y-86087941D01*
X97932475Y-86087943D01*
X97783254Y-86179984D01*
X97659284Y-86303954D01*
X97567243Y-86453175D01*
X97567241Y-86453180D01*
X97512094Y-86619602D01*
X97512093Y-86619609D01*
X97501600Y-86722313D01*
X91824733Y-86722313D01*
X91407879Y-86305459D01*
X91407859Y-86305437D01*
X91264185Y-86161763D01*
X91264181Y-86161760D01*
X91100320Y-86052271D01*
X91100311Y-86052266D01*
X91027715Y-86022196D01*
X90971565Y-85998938D01*
X90918236Y-85976849D01*
X90918232Y-85976848D01*
X90918228Y-85976846D01*
X90821588Y-85957624D01*
X90724944Y-85938400D01*
X90724941Y-85938400D01*
X84503099Y-85938400D01*
X84436060Y-85918715D01*
X84390305Y-85865911D01*
X84379099Y-85814400D01*
X84379099Y-85388898D01*
X84379098Y-85388881D01*
X84368599Y-85286103D01*
X84368598Y-85286100D01*
X84340015Y-85199842D01*
X84313414Y-85119566D01*
X84221312Y-84970244D01*
X84097256Y-84846188D01*
X83979755Y-84773713D01*
X83947936Y-84754087D01*
X83947931Y-84754085D01*
X83930627Y-84748351D01*
X83781397Y-84698901D01*
X83781395Y-84698900D01*
X83678610Y-84688400D01*
X82278598Y-84688400D01*
X82278581Y-84688401D01*
X82175803Y-84698900D01*
X82175800Y-84698901D01*
X82009268Y-84754085D01*
X82009263Y-84754087D01*
X81859942Y-84846189D01*
X81735889Y-84970242D01*
X81643787Y-85119563D01*
X81643784Y-85119571D01*
X81626804Y-85170812D01*
X81587031Y-85228256D01*
X81522515Y-85255078D01*
X81453739Y-85242762D01*
X81402540Y-85195219D01*
X81385099Y-85131808D01*
X81385099Y-84512092D01*
X81383797Y-84499351D01*
X81374599Y-84409303D01*
X81374598Y-84409300D01*
X81346015Y-84323042D01*
X81319414Y-84242766D01*
X81227312Y-84093444D01*
X81221419Y-84087551D01*
X81187934Y-84026228D01*
X81185100Y-83999870D01*
X81185100Y-82738578D01*
X81203560Y-82673483D01*
X81294014Y-82526834D01*
X81336395Y-82398934D01*
X81376166Y-82341492D01*
X81440682Y-82314668D01*
X81509458Y-82326983D01*
X81560658Y-82374525D01*
X81578100Y-82437940D01*
X81578100Y-83488901D01*
X81578101Y-83488918D01*
X81588600Y-83591696D01*
X81588601Y-83591699D01*
X81643785Y-83758231D01*
X81643787Y-83758236D01*
X81647449Y-83764173D01*
X81735888Y-83907556D01*
X81859944Y-84031612D01*
X82009266Y-84123714D01*
X82175803Y-84178899D01*
X82278591Y-84189400D01*
X83678608Y-84189399D01*
X83781397Y-84178899D01*
X83947934Y-84123714D01*
X84097256Y-84031612D01*
X84221312Y-83907556D01*
X84313414Y-83758234D01*
X84368599Y-83591697D01*
X84379100Y-83488909D01*
X84379100Y-83453577D01*
X84398785Y-83386538D01*
X84451589Y-83340783D01*
X84520747Y-83330839D01*
X84584303Y-83359864D01*
X84602363Y-83379262D01*
X84627654Y-83413046D01*
X84631495Y-83415921D01*
X84742864Y-83499293D01*
X84742871Y-83499297D01*
X84877717Y-83549591D01*
X84877716Y-83549591D01*
X84884644Y-83550335D01*
X84937327Y-83556000D01*
X89033072Y-83555999D01*
X89092683Y-83549591D01*
X89227531Y-83499296D01*
X89342746Y-83413046D01*
X89428996Y-83297831D01*
X89479291Y-83162983D01*
X89485700Y-83103373D01*
X89485699Y-81007628D01*
X89479291Y-80948017D01*
X89478874Y-80946900D01*
X89428997Y-80813171D01*
X89428993Y-80813164D01*
X89342747Y-80697955D01*
X89342744Y-80697952D01*
X89227535Y-80611706D01*
X89227528Y-80611702D01*
X89092682Y-80561408D01*
X89092683Y-80561408D01*
X89033083Y-80555001D01*
X89033081Y-80555000D01*
X89033073Y-80555000D01*
X89033064Y-80555000D01*
X84937329Y-80555000D01*
X84937323Y-80555001D01*
X84877716Y-80561408D01*
X84742871Y-80611702D01*
X84742864Y-80611706D01*
X84627655Y-80697952D01*
X84627652Y-80697955D01*
X84602365Y-80731735D01*
X84546431Y-80773606D01*
X84476740Y-80778590D01*
X84415417Y-80745104D01*
X84381933Y-80683781D01*
X84379099Y-80657424D01*
X84379099Y-80388898D01*
X84379098Y-80388881D01*
X84368599Y-80286103D01*
X84368598Y-80286100D01*
X84359124Y-80257509D01*
X84313414Y-80119566D01*
X84312628Y-80118292D01*
X84244512Y-80007857D01*
X84226072Y-79940465D01*
X84246995Y-79873801D01*
X84300637Y-79829032D01*
X84311360Y-79825607D01*
X84311169Y-79825029D01*
X84326620Y-79819909D01*
X84427200Y-79786579D01*
X84497024Y-79784178D01*
X84557066Y-79819909D01*
X84565458Y-79829963D01*
X84627654Y-79913046D01*
X84627655Y-79913046D01*
X84627656Y-79913048D01*
X84742864Y-79999293D01*
X84742871Y-79999297D01*
X84877717Y-80049591D01*
X84877716Y-80049591D01*
X84884644Y-80050335D01*
X84937327Y-80056000D01*
X89033072Y-80055999D01*
X89092683Y-80049591D01*
X89227531Y-79999296D01*
X89342746Y-79913046D01*
X89428996Y-79797831D01*
X89479291Y-79662983D01*
X89485700Y-79603373D01*
X89485700Y-79603344D01*
X92985200Y-79603344D01*
X92991601Y-79662872D01*
X92991603Y-79662879D01*
X93041845Y-79797586D01*
X93041849Y-79797593D01*
X93128009Y-79912687D01*
X93128012Y-79912690D01*
X93243106Y-79998850D01*
X93243113Y-79998854D01*
X93377820Y-80049096D01*
X93377827Y-80049098D01*
X93437355Y-80055499D01*
X93437372Y-80055500D01*
X95235200Y-80055500D01*
X95235200Y-78805500D01*
X92985200Y-78805500D01*
X92985200Y-79603344D01*
X89485700Y-79603344D01*
X89485699Y-77507655D01*
X92985200Y-77507655D01*
X92985200Y-78305500D01*
X95235200Y-78305500D01*
X95235200Y-77055500D01*
X93437355Y-77055500D01*
X93377827Y-77061901D01*
X93377820Y-77061903D01*
X93243113Y-77112145D01*
X93243106Y-77112149D01*
X93128012Y-77198309D01*
X93128009Y-77198312D01*
X93041849Y-77313406D01*
X93041845Y-77313413D01*
X92991603Y-77448120D01*
X92991601Y-77448127D01*
X92985200Y-77507655D01*
X89485699Y-77507655D01*
X89485699Y-77507628D01*
X89479291Y-77448017D01*
X89469376Y-77421434D01*
X89428997Y-77313171D01*
X89428993Y-77313164D01*
X89342747Y-77197955D01*
X89342744Y-77197952D01*
X89227535Y-77111706D01*
X89227528Y-77111702D01*
X89092682Y-77061408D01*
X89092683Y-77061408D01*
X89033083Y-77055001D01*
X89033081Y-77055000D01*
X89033073Y-77055000D01*
X89033065Y-77055000D01*
X88109700Y-77055000D01*
X88042661Y-77035315D01*
X87996906Y-76982511D01*
X87985700Y-76931000D01*
X87985700Y-74467681D01*
X88005385Y-74400642D01*
X88022015Y-74380004D01*
X88383901Y-74018117D01*
X88445224Y-73984633D01*
X88471582Y-73981799D01*
X92905785Y-73981799D01*
X92905791Y-73981800D01*
X97055808Y-73981799D01*
X97158597Y-73971299D01*
X97325134Y-73916114D01*
X97474456Y-73824012D01*
X97598512Y-73699956D01*
X97690614Y-73550634D01*
X97745799Y-73384097D01*
X97756300Y-73281309D01*
X97756300Y-70861966D01*
X97756299Y-67731314D01*
X97756300Y-67731309D01*
X97756299Y-62881292D01*
X97745799Y-62778503D01*
X97690614Y-62611966D01*
X97598512Y-62462644D01*
X97474456Y-62338588D01*
X97325134Y-62246486D01*
X97158597Y-62191301D01*
X97158595Y-62191300D01*
X97055816Y-62180800D01*
X97055809Y-62180800D01*
X97055807Y-62180800D01*
X92205814Y-62180800D01*
X92205809Y-62180800D01*
X88055798Y-62180800D01*
X88055781Y-62180801D01*
X87953003Y-62191300D01*
X87953000Y-62191301D01*
X87786468Y-62246485D01*
X87786463Y-62246487D01*
X87637142Y-62338589D01*
X87513089Y-62462642D01*
X87420983Y-62611970D01*
X87394385Y-62692243D01*
X87394385Y-62692244D01*
X87365801Y-62778504D01*
X87365800Y-62778505D01*
X87355300Y-62881285D01*
X87355300Y-66956800D01*
X87335615Y-67023839D01*
X87282811Y-67069594D01*
X87231300Y-67080800D01*
X86285769Y-67080800D01*
X86218730Y-67061115D01*
X86172975Y-67008311D01*
X86163031Y-66939153D01*
X86168060Y-66917807D01*
X86195799Y-66834097D01*
X86206300Y-66731309D01*
X86206299Y-66031292D01*
X86202244Y-65991600D01*
X86195799Y-65928503D01*
X86195798Y-65928500D01*
X86167215Y-65842242D01*
X86140614Y-65761966D01*
X86048512Y-65612644D01*
X86048510Y-65612642D01*
X86044684Y-65607803D01*
X86018545Y-65543007D01*
X86031587Y-65474365D01*
X86044686Y-65453983D01*
X86048114Y-65449646D01*
X86140156Y-65300424D01*
X86140158Y-65300419D01*
X86195305Y-65133997D01*
X86195306Y-65133990D01*
X86205799Y-65031286D01*
X86205800Y-65031273D01*
X86205800Y-64931300D01*
X80605801Y-64931300D01*
X80605801Y-65031286D01*
X80616294Y-65133997D01*
X80671441Y-65300419D01*
X80671443Y-65300424D01*
X80763484Y-65449646D01*
X80766914Y-65453983D01*
X80793054Y-65518779D01*
X80780013Y-65587421D01*
X80766926Y-65607787D01*
X80763097Y-65612630D01*
X80670987Y-65761963D01*
X80670986Y-65761966D01*
X80615801Y-65928503D01*
X80615801Y-65928504D01*
X80615800Y-65928504D01*
X80605300Y-66031283D01*
X80605300Y-66731301D01*
X80605301Y-66731319D01*
X80615800Y-66834096D01*
X80615801Y-66834099D01*
X80650558Y-66938986D01*
X80670986Y-67000634D01*
X80744092Y-67119159D01*
X80763089Y-67149957D01*
X80766595Y-67154391D01*
X80792734Y-67219187D01*
X80779692Y-67287829D01*
X80766595Y-67308209D01*
X80763089Y-67312642D01*
X80670987Y-67461963D01*
X80670986Y-67461966D01*
X80615801Y-67628503D01*
X80615801Y-67628504D01*
X80615800Y-67628504D01*
X80605300Y-67731283D01*
X80605300Y-68431301D01*
X80605301Y-68431319D01*
X80615800Y-68534096D01*
X80615801Y-68534099D01*
X80657821Y-68660906D01*
X80670986Y-68700634D01*
X80744092Y-68819159D01*
X80763089Y-68849957D01*
X80766595Y-68854391D01*
X80792734Y-68919187D01*
X80779692Y-68987829D01*
X80766595Y-69008209D01*
X80763089Y-69012642D01*
X80670987Y-69161963D01*
X80670986Y-69161966D01*
X80615801Y-69328503D01*
X80615801Y-69328504D01*
X80615800Y-69328504D01*
X80605300Y-69431283D01*
X80605300Y-70131301D01*
X80605301Y-70131319D01*
X80615800Y-70234096D01*
X80615801Y-70234099D01*
X80648328Y-70332258D01*
X80670986Y-70400634D01*
X80763087Y-70549955D01*
X80763089Y-70549957D01*
X80766595Y-70554391D01*
X80792734Y-70619187D01*
X80779692Y-70687829D01*
X80766595Y-70708209D01*
X80763089Y-70712642D01*
X80670987Y-70861963D01*
X80670986Y-70861966D01*
X80615801Y-71028503D01*
X80615801Y-71028504D01*
X80615800Y-71028504D01*
X80605300Y-71131283D01*
X80605300Y-71831301D01*
X80605301Y-71831319D01*
X80615800Y-71934096D01*
X80615801Y-71934099D01*
X80657821Y-72060906D01*
X80670986Y-72100634D01*
X80763088Y-72249956D01*
X80887144Y-72374012D01*
X81036466Y-72466114D01*
X81203003Y-72521299D01*
X81305791Y-72531800D01*
X82281300Y-72531799D01*
X82348339Y-72551483D01*
X82394094Y-72604287D01*
X82405300Y-72655799D01*
X82405300Y-73739716D01*
X82385615Y-73806755D01*
X82368981Y-73827397D01*
X81570880Y-74625498D01*
X81509557Y-74658983D01*
X81439865Y-74653999D01*
X81383932Y-74612127D01*
X81359515Y-74546663D01*
X81359199Y-74537817D01*
X81359199Y-74352128D01*
X81359198Y-74352113D01*
X81348705Y-74249402D01*
X81293558Y-74082980D01*
X81293556Y-74082975D01*
X81201515Y-73933754D01*
X81077545Y-73809784D01*
X80928324Y-73717743D01*
X80928319Y-73717741D01*
X80761897Y-73662594D01*
X80761890Y-73662593D01*
X80659186Y-73652100D01*
X80409200Y-73652100D01*
X80409200Y-74628100D01*
X80389515Y-74695139D01*
X80336711Y-74740894D01*
X80285200Y-74752100D01*
X80159200Y-74752100D01*
X80159200Y-74878100D01*
X80139515Y-74945139D01*
X80086711Y-74990894D01*
X80035200Y-75002100D01*
X78959201Y-75002100D01*
X78959201Y-75152086D01*
X78969694Y-75254797D01*
X79024841Y-75421219D01*
X79024843Y-75421224D01*
X79116884Y-75570445D01*
X79210504Y-75664065D01*
X79243989Y-75725388D01*
X79239005Y-75795080D01*
X79210505Y-75839427D01*
X79116487Y-75933445D01*
X79024387Y-76082763D01*
X79024385Y-76082768D01*
X79005394Y-76140080D01*
X78969201Y-76249303D01*
X78969201Y-76249304D01*
X78969200Y-76249304D01*
X78958700Y-76352083D01*
X78958700Y-77152101D01*
X78958701Y-77152119D01*
X78969200Y-77254896D01*
X78969201Y-77254899D01*
X79024385Y-77421431D01*
X79024387Y-77421436D01*
X79057598Y-77475280D01*
X79095868Y-77537326D01*
X79116489Y-77570757D01*
X79122381Y-77576649D01*
X79155866Y-77637972D01*
X79158700Y-77664330D01*
X79158700Y-78945270D01*
X79139015Y-79012309D01*
X79122381Y-79032951D01*
X79116489Y-79038842D01*
X79024387Y-79188163D01*
X79024385Y-79188168D01*
X79009710Y-79232456D01*
X78969201Y-79354703D01*
X78969201Y-79354704D01*
X78969200Y-79354704D01*
X78958700Y-79457483D01*
X78958700Y-80257501D01*
X78958701Y-80257519D01*
X78969200Y-80360296D01*
X78969201Y-80360299D01*
X79024385Y-80526831D01*
X79024387Y-80526836D01*
X79053162Y-80573487D01*
X79106580Y-80660093D01*
X79116489Y-80676157D01*
X79210151Y-80769819D01*
X79243636Y-80831142D01*
X79238652Y-80900834D01*
X79210151Y-80945181D01*
X79116489Y-81038842D01*
X79024387Y-81188163D01*
X79024385Y-81188168D01*
X79013105Y-81222209D01*
X78969201Y-81354703D01*
X78969201Y-81354704D01*
X78969200Y-81354704D01*
X78958700Y-81457483D01*
X78958700Y-82257501D01*
X78958701Y-82257519D01*
X78969200Y-82360296D01*
X78969201Y-82360299D01*
X79024385Y-82526831D01*
X79024387Y-82526836D01*
X79116489Y-82676157D01*
X79147781Y-82707449D01*
X79181266Y-82768772D01*
X79184100Y-82795130D01*
X79184100Y-83999870D01*
X79164415Y-84066909D01*
X79147781Y-84087551D01*
X79141889Y-84093442D01*
X79049787Y-84242763D01*
X79049785Y-84242768D01*
X79024823Y-84318100D01*
X78994601Y-84409303D01*
X78994601Y-84409304D01*
X78994600Y-84409304D01*
X78984100Y-84512083D01*
X78984100Y-85312101D01*
X78984101Y-85312119D01*
X78994600Y-85414896D01*
X78994601Y-85414899D01*
X79049785Y-85581431D01*
X79049787Y-85581436D01*
X79083053Y-85635369D01*
X79135745Y-85720797D01*
X79141889Y-85730757D01*
X79235551Y-85824419D01*
X79269036Y-85885742D01*
X79264052Y-85955434D01*
X79235551Y-85999781D01*
X79141889Y-86093442D01*
X79049787Y-86242763D01*
X79049785Y-86242768D01*
X79028836Y-86305988D01*
X78994601Y-86409303D01*
X78994601Y-86409304D01*
X78994600Y-86409304D01*
X78984100Y-86512083D01*
X78984100Y-86860077D01*
X78964415Y-86927116D01*
X78911611Y-86972871D01*
X78842453Y-86982815D01*
X78778897Y-86953790D01*
X78772419Y-86947758D01*
X78665445Y-86840784D01*
X78516224Y-86748743D01*
X78516219Y-86748741D01*
X78349797Y-86693594D01*
X78349790Y-86693593D01*
X78247086Y-86683100D01*
X77972100Y-86683100D01*
X77472100Y-86683100D01*
X77197129Y-86683100D01*
X77197112Y-86683101D01*
X77094402Y-86693594D01*
X76927980Y-86748741D01*
X76927975Y-86748743D01*
X76778754Y-86840784D01*
X76654784Y-86964754D01*
X76562743Y-87113975D01*
X76562741Y-87113980D01*
X76507594Y-87280402D01*
X76507593Y-87280409D01*
X76497100Y-87383113D01*
X70820233Y-87383113D01*
X70403379Y-86966259D01*
X70403359Y-86966237D01*
X70259685Y-86822563D01*
X70259681Y-86822560D01*
X70095820Y-86713071D01*
X70095807Y-86713064D01*
X69946716Y-86651310D01*
X69913734Y-86637648D01*
X69913729Y-86637646D01*
X69817088Y-86618424D01*
X69720444Y-86599200D01*
X69720441Y-86599200D01*
X63498599Y-86599200D01*
X63431560Y-86579515D01*
X63385805Y-86526711D01*
X63374599Y-86475200D01*
X63374599Y-86049698D01*
X63374598Y-86049681D01*
X63364099Y-85946903D01*
X63364098Y-85946900D01*
X63344323Y-85887224D01*
X63308914Y-85780366D01*
X63216812Y-85631044D01*
X63092756Y-85506988D01*
X62943452Y-85414897D01*
X62943436Y-85414887D01*
X62943431Y-85414885D01*
X62932310Y-85411200D01*
X62776897Y-85359701D01*
X62776895Y-85359700D01*
X62674110Y-85349200D01*
X61274098Y-85349200D01*
X61274081Y-85349201D01*
X61171303Y-85359700D01*
X61171300Y-85359701D01*
X61004768Y-85414885D01*
X61004763Y-85414887D01*
X60855442Y-85506989D01*
X60731389Y-85631042D01*
X60639287Y-85780363D01*
X60639284Y-85780371D01*
X60622304Y-85831612D01*
X60582531Y-85889056D01*
X60518015Y-85915878D01*
X60449239Y-85903562D01*
X60398040Y-85856019D01*
X60380599Y-85792608D01*
X60380599Y-85172892D01*
X60375508Y-85123058D01*
X60370099Y-85070103D01*
X60370098Y-85070100D01*
X60368749Y-85066028D01*
X60314914Y-84903566D01*
X60222812Y-84754244D01*
X60216919Y-84748351D01*
X60183434Y-84687028D01*
X60180600Y-84660670D01*
X60180600Y-83399378D01*
X60199060Y-83334283D01*
X60289514Y-83187634D01*
X60331895Y-83059734D01*
X60371666Y-83002292D01*
X60436182Y-82975468D01*
X60504958Y-82987783D01*
X60556158Y-83035325D01*
X60573600Y-83098740D01*
X60573600Y-84149701D01*
X60573601Y-84149718D01*
X60584100Y-84252496D01*
X60584101Y-84252499D01*
X60607473Y-84323030D01*
X60639286Y-84419034D01*
X60731388Y-84568356D01*
X60855444Y-84692412D01*
X61004766Y-84784514D01*
X61171303Y-84839699D01*
X61274091Y-84850200D01*
X62674108Y-84850199D01*
X62776897Y-84839699D01*
X62943434Y-84784514D01*
X63092756Y-84692412D01*
X63216812Y-84568356D01*
X63308914Y-84419034D01*
X63364099Y-84252497D01*
X63374600Y-84149709D01*
X63374600Y-84114377D01*
X63394285Y-84047338D01*
X63447089Y-84001583D01*
X63516247Y-83991639D01*
X63579803Y-84020664D01*
X63597863Y-84040062D01*
X63623154Y-84073846D01*
X63649331Y-84093442D01*
X63738364Y-84160093D01*
X63738371Y-84160097D01*
X63873217Y-84210391D01*
X63873216Y-84210391D01*
X63880144Y-84211135D01*
X63932827Y-84216800D01*
X68028572Y-84216799D01*
X68088183Y-84210391D01*
X68223031Y-84160096D01*
X68338246Y-84073846D01*
X68424496Y-83958631D01*
X68474791Y-83823783D01*
X68481200Y-83764173D01*
X68481199Y-81668428D01*
X68474791Y-81608817D01*
X68473733Y-81605981D01*
X68424497Y-81473971D01*
X68424493Y-81473964D01*
X68338247Y-81358755D01*
X68338244Y-81358752D01*
X68223035Y-81272506D01*
X68223028Y-81272502D01*
X68088182Y-81222208D01*
X68088183Y-81222208D01*
X68028583Y-81215801D01*
X68028581Y-81215800D01*
X68028573Y-81215800D01*
X68028564Y-81215800D01*
X63932829Y-81215800D01*
X63932823Y-81215801D01*
X63873216Y-81222208D01*
X63738371Y-81272502D01*
X63738364Y-81272506D01*
X63623155Y-81358752D01*
X63623152Y-81358755D01*
X63597865Y-81392535D01*
X63541931Y-81434406D01*
X63472240Y-81439390D01*
X63410917Y-81405904D01*
X63377433Y-81344581D01*
X63374599Y-81318224D01*
X63374599Y-81049698D01*
X63374598Y-81049681D01*
X63364099Y-80946903D01*
X63364098Y-80946900D01*
X63351550Y-80909034D01*
X63308914Y-80780366D01*
X63304744Y-80773606D01*
X63240012Y-80668657D01*
X63221572Y-80601265D01*
X63242495Y-80534601D01*
X63296137Y-80489832D01*
X63306860Y-80486407D01*
X63306669Y-80485829D01*
X63322120Y-80480709D01*
X63422700Y-80447379D01*
X63492524Y-80444978D01*
X63552566Y-80480709D01*
X63560958Y-80490763D01*
X63623154Y-80573846D01*
X63623155Y-80573846D01*
X63623156Y-80573848D01*
X63738364Y-80660093D01*
X63738371Y-80660097D01*
X63873217Y-80710391D01*
X63873216Y-80710391D01*
X63880144Y-80711135D01*
X63932827Y-80716800D01*
X68028572Y-80716799D01*
X68088183Y-80710391D01*
X68223031Y-80660096D01*
X68338246Y-80573846D01*
X68424496Y-80458631D01*
X68474791Y-80323783D01*
X68481200Y-80264173D01*
X68481200Y-80264144D01*
X71980700Y-80264144D01*
X71987101Y-80323672D01*
X71987103Y-80323679D01*
X72037345Y-80458386D01*
X72037349Y-80458393D01*
X72123509Y-80573487D01*
X72123512Y-80573490D01*
X72238606Y-80659650D01*
X72238613Y-80659654D01*
X72373320Y-80709896D01*
X72373327Y-80709898D01*
X72432855Y-80716299D01*
X72432872Y-80716300D01*
X74230700Y-80716300D01*
X74230700Y-79466300D01*
X71980700Y-79466300D01*
X71980700Y-80264144D01*
X68481200Y-80264144D01*
X68481199Y-78168455D01*
X71980700Y-78168455D01*
X71980700Y-78966300D01*
X74230700Y-78966300D01*
X74230700Y-77716300D01*
X72432855Y-77716300D01*
X72373327Y-77722701D01*
X72373320Y-77722703D01*
X72238613Y-77772945D01*
X72238606Y-77772949D01*
X72123512Y-77859109D01*
X72123509Y-77859112D01*
X72037349Y-77974206D01*
X72037345Y-77974213D01*
X71987103Y-78108920D01*
X71987101Y-78108927D01*
X71980700Y-78168455D01*
X68481199Y-78168455D01*
X68481199Y-78168428D01*
X68474791Y-78108817D01*
X68469444Y-78094482D01*
X68424497Y-77973971D01*
X68424493Y-77973964D01*
X68338247Y-77858755D01*
X68338244Y-77858752D01*
X68223035Y-77772506D01*
X68223028Y-77772502D01*
X68088182Y-77722208D01*
X68088183Y-77722208D01*
X68028583Y-77715801D01*
X68028581Y-77715800D01*
X68028573Y-77715800D01*
X68028565Y-77715800D01*
X67105200Y-77715800D01*
X67038161Y-77696115D01*
X66992406Y-77643311D01*
X66981200Y-77591800D01*
X66981200Y-75128481D01*
X67000885Y-75061442D01*
X67017515Y-75040804D01*
X67379401Y-74678917D01*
X67440724Y-74645433D01*
X67467082Y-74642599D01*
X71901285Y-74642599D01*
X71901291Y-74642600D01*
X76051308Y-74642599D01*
X76154097Y-74632099D01*
X76320634Y-74576914D01*
X76469956Y-74484812D01*
X76473919Y-74480849D01*
X76535242Y-74447364D01*
X76604934Y-74452348D01*
X76660867Y-74494220D01*
X76685284Y-74559684D01*
X76685600Y-74568530D01*
X76685600Y-77595140D01*
X76665915Y-77662179D01*
X76613111Y-77707934D01*
X76548348Y-77718430D01*
X76528535Y-77716300D01*
X74730700Y-77716300D01*
X74730700Y-80716300D01*
X76528528Y-80716300D01*
X76528531Y-80716299D01*
X76540337Y-80715030D01*
X76609097Y-80727432D01*
X76660237Y-80775040D01*
X76677519Y-80842739D01*
X76655458Y-80909034D01*
X76641279Y-80926000D01*
X76387798Y-81179481D01*
X76326475Y-81212966D01*
X76300117Y-81215800D01*
X72432829Y-81215800D01*
X72432823Y-81215801D01*
X72373216Y-81222208D01*
X72238371Y-81272502D01*
X72238364Y-81272506D01*
X72123155Y-81358752D01*
X72123152Y-81358755D01*
X72036906Y-81473964D01*
X72036902Y-81473971D01*
X71986608Y-81608817D01*
X71980201Y-81668416D01*
X71980201Y-81668423D01*
X71980200Y-81668435D01*
X71980200Y-83764170D01*
X71980201Y-83764176D01*
X71986608Y-83823783D01*
X72036902Y-83958628D01*
X72036906Y-83958635D01*
X72123152Y-84073844D01*
X72123155Y-84073847D01*
X72238364Y-84160093D01*
X72238371Y-84160097D01*
X72373217Y-84210391D01*
X72373216Y-84210391D01*
X72380144Y-84211135D01*
X72432827Y-84216800D01*
X76528572Y-84216799D01*
X76588183Y-84210391D01*
X76723031Y-84160096D01*
X76838246Y-84073846D01*
X76924496Y-83958631D01*
X76974791Y-83823783D01*
X76981200Y-83764173D01*
X76981199Y-83467283D01*
X77000883Y-83400245D01*
X77017516Y-83379604D01*
X77043039Y-83354082D01*
X77043040Y-83354080D01*
X77050101Y-83347019D01*
X77050107Y-83347011D01*
X78323878Y-82073241D01*
X78323882Y-82073239D01*
X78463239Y-81933882D01*
X78572732Y-81770014D01*
X78632629Y-81625408D01*
X78648151Y-81587936D01*
X78669551Y-81480351D01*
X78670820Y-81473971D01*
X78686600Y-81394643D01*
X78686600Y-74352113D01*
X78959200Y-74352113D01*
X78959200Y-74502100D01*
X79909200Y-74502100D01*
X79909200Y-73652100D01*
X79659229Y-73652100D01*
X79659212Y-73652101D01*
X79556502Y-73662594D01*
X79390080Y-73717741D01*
X79390075Y-73717743D01*
X79240854Y-73809784D01*
X79116884Y-73933754D01*
X79024843Y-74082975D01*
X79024841Y-74082980D01*
X78969694Y-74249402D01*
X78969693Y-74249409D01*
X78959200Y-74352113D01*
X78686600Y-74352113D01*
X78686600Y-64331313D01*
X80605800Y-64331313D01*
X80605800Y-64431300D01*
X83155800Y-64431300D01*
X83655800Y-64431300D01*
X86205799Y-64431300D01*
X86205799Y-64331328D01*
X86205798Y-64331313D01*
X86195305Y-64228602D01*
X86140158Y-64062180D01*
X86140156Y-64062175D01*
X86048115Y-63912954D01*
X85924145Y-63788984D01*
X85774924Y-63696943D01*
X85774919Y-63696941D01*
X85608497Y-63641794D01*
X85608490Y-63641793D01*
X85505786Y-63631300D01*
X83655800Y-63631300D01*
X83655800Y-64431300D01*
X83155800Y-64431300D01*
X83155800Y-63631300D01*
X81305828Y-63631300D01*
X81305812Y-63631301D01*
X81203102Y-63641794D01*
X81036680Y-63696941D01*
X81036675Y-63696943D01*
X80887454Y-63788984D01*
X80763484Y-63912954D01*
X80671443Y-64062175D01*
X80671441Y-64062180D01*
X80616294Y-64228602D01*
X80616293Y-64228609D01*
X80605800Y-64331313D01*
X78686600Y-64331313D01*
X78686600Y-60424858D01*
X78686599Y-60424857D01*
X78679573Y-60389531D01*
X78648152Y-60231565D01*
X78578793Y-60064118D01*
X78572733Y-60049488D01*
X78572728Y-60049479D01*
X78463240Y-59885619D01*
X78463237Y-59885615D01*
X77244107Y-58666486D01*
X82598401Y-58666486D01*
X82608894Y-58769197D01*
X82664041Y-58935619D01*
X82664043Y-58935624D01*
X82756084Y-59084845D01*
X82880054Y-59208815D01*
X83029275Y-59300856D01*
X83029280Y-59300858D01*
X83195702Y-59356005D01*
X83195709Y-59356006D01*
X83298419Y-59366499D01*
X85048399Y-59366499D01*
X85548400Y-59366499D01*
X87298372Y-59366499D01*
X87298386Y-59366498D01*
X87401097Y-59356005D01*
X87567519Y-59300858D01*
X87567524Y-59300856D01*
X87716745Y-59208815D01*
X87840715Y-59084845D01*
X87932756Y-58935624D01*
X87932758Y-58935619D01*
X87987905Y-58769197D01*
X87987906Y-58769190D01*
X87998399Y-58666486D01*
X87998400Y-58666473D01*
X87998400Y-57866500D01*
X85548400Y-57866500D01*
X85548400Y-59366499D01*
X85048399Y-59366499D01*
X85048400Y-59366498D01*
X85048400Y-57866500D01*
X82598401Y-57866500D01*
X82598401Y-58666486D01*
X77244107Y-58666486D01*
X77123401Y-58545780D01*
X77089916Y-58484457D01*
X77094900Y-58414765D01*
X77123401Y-58370418D01*
X78921737Y-56572084D01*
X78921737Y-56572083D01*
X78921740Y-56572081D01*
X78925460Y-56566513D01*
X82598400Y-56566513D01*
X82598400Y-57366500D01*
X85048400Y-57366500D01*
X85548400Y-57366500D01*
X87998399Y-57366500D01*
X87998399Y-56566528D01*
X87998398Y-56566513D01*
X87998395Y-56566483D01*
X89997900Y-56566483D01*
X89997900Y-58666501D01*
X89997901Y-58666518D01*
X90008400Y-58769296D01*
X90008401Y-58769299D01*
X90040153Y-58865118D01*
X90063586Y-58935834D01*
X90155688Y-59085156D01*
X90279744Y-59209212D01*
X90429066Y-59301314D01*
X90595603Y-59356499D01*
X90698391Y-59367000D01*
X94698408Y-59366999D01*
X94801197Y-59356499D01*
X94967734Y-59301314D01*
X95117056Y-59209212D01*
X95241112Y-59085156D01*
X95333214Y-58935834D01*
X95388399Y-58769297D01*
X95392577Y-58728396D01*
X95418973Y-58663707D01*
X95476153Y-58623555D01*
X95515935Y-58617000D01*
X96179643Y-58617000D01*
X96283883Y-58596264D01*
X96336005Y-58585897D01*
X96372936Y-58578551D01*
X96463956Y-58540849D01*
X96463957Y-58540849D01*
X96484746Y-58532238D01*
X96532198Y-58522799D01*
X96702717Y-58522799D01*
X96769756Y-58542484D01*
X96790398Y-58559118D01*
X98112281Y-59881001D01*
X98145766Y-59942324D01*
X98148600Y-59968682D01*
X98148600Y-77234798D01*
X98128915Y-77301837D01*
X98076111Y-77347592D01*
X98006953Y-77357536D01*
X97943397Y-77328511D01*
X97925334Y-77309110D01*
X97842387Y-77198309D01*
X97727293Y-77112149D01*
X97727286Y-77112145D01*
X97592579Y-77061903D01*
X97592572Y-77061901D01*
X97533044Y-77055500D01*
X95735200Y-77055500D01*
X95735200Y-80055500D01*
X97533028Y-80055500D01*
X97533044Y-80055499D01*
X97592572Y-80049098D01*
X97592576Y-80049097D01*
X97652744Y-80026656D01*
X97722436Y-80021672D01*
X97783759Y-80055156D01*
X97817244Y-80116479D01*
X97812260Y-80186171D01*
X97783759Y-80230519D01*
X97495597Y-80518681D01*
X97434274Y-80552166D01*
X97407916Y-80555000D01*
X93437329Y-80555000D01*
X93437323Y-80555001D01*
X93377716Y-80561408D01*
X93242871Y-80611702D01*
X93242864Y-80611706D01*
X93127655Y-80697952D01*
X93127652Y-80697955D01*
X93041406Y-80813164D01*
X93041402Y-80813171D01*
X92991108Y-80948017D01*
X92986833Y-80987785D01*
X92984701Y-81007623D01*
X92984700Y-81007635D01*
X92984700Y-83103370D01*
X92984701Y-83103376D01*
X92991108Y-83162983D01*
X93041402Y-83297828D01*
X93041406Y-83297835D01*
X93127652Y-83413044D01*
X93127655Y-83413047D01*
X93242864Y-83499293D01*
X93242871Y-83499297D01*
X93377717Y-83549591D01*
X93377716Y-83549591D01*
X93384644Y-83550335D01*
X93437327Y-83556000D01*
X97533072Y-83555999D01*
X97592683Y-83549591D01*
X97727531Y-83499296D01*
X97842746Y-83413046D01*
X97928996Y-83297831D01*
X97979291Y-83162983D01*
X97985700Y-83103373D01*
X97985699Y-82909783D01*
X98005383Y-82842744D01*
X98022009Y-82822111D01*
X98150839Y-82693282D01*
X98150840Y-82693279D01*
X99926240Y-80917881D01*
X99971734Y-80849794D01*
X100035732Y-80754014D01*
X100092026Y-80618108D01*
X100111151Y-80571936D01*
X100139037Y-80431744D01*
X100139037Y-80431742D01*
X100149600Y-80378643D01*
X100149600Y-76163033D01*
X101555400Y-76163033D01*
X101555400Y-76963051D01*
X101555401Y-76963069D01*
X101565900Y-77065846D01*
X101565901Y-77065849D01*
X101621085Y-77232381D01*
X101621087Y-77232386D01*
X101631190Y-77248766D01*
X101711930Y-77379667D01*
X101713189Y-77381707D01*
X101719081Y-77387599D01*
X101752566Y-77448922D01*
X101755400Y-77475280D01*
X101755400Y-78756220D01*
X101735715Y-78823259D01*
X101719081Y-78843901D01*
X101713189Y-78849792D01*
X101621087Y-78999113D01*
X101621085Y-78999118D01*
X101594072Y-79080639D01*
X101565901Y-79165653D01*
X101565901Y-79165654D01*
X101565900Y-79165654D01*
X101555400Y-79268433D01*
X101555400Y-80068451D01*
X101555401Y-80068469D01*
X101565900Y-80171246D01*
X101565901Y-80171249D01*
X101621085Y-80337781D01*
X101621087Y-80337786D01*
X101634971Y-80360296D01*
X101712400Y-80485829D01*
X101713189Y-80487107D01*
X101806851Y-80580769D01*
X101840336Y-80642092D01*
X101835352Y-80711784D01*
X101806851Y-80756131D01*
X101713189Y-80849792D01*
X101621087Y-80999113D01*
X101621085Y-80999118D01*
X101608613Y-81036756D01*
X101565901Y-81165653D01*
X101565901Y-81165654D01*
X101565900Y-81165654D01*
X101555400Y-81268433D01*
X101555400Y-82068451D01*
X101555401Y-82068469D01*
X101565900Y-82171246D01*
X101565901Y-82171249D01*
X101621085Y-82337781D01*
X101621087Y-82337786D01*
X101655969Y-82394338D01*
X101682862Y-82437940D01*
X101713189Y-82487107D01*
X101744481Y-82518399D01*
X101777966Y-82579722D01*
X101780800Y-82606080D01*
X101780800Y-83810820D01*
X101761115Y-83877859D01*
X101744481Y-83898501D01*
X101738589Y-83904392D01*
X101646487Y-84053713D01*
X101646485Y-84053718D01*
X101635274Y-84087551D01*
X101591301Y-84220253D01*
X101591301Y-84220254D01*
X101591300Y-84220254D01*
X101580800Y-84323033D01*
X101580800Y-85123051D01*
X101580801Y-85123069D01*
X101591300Y-85225846D01*
X101591301Y-85225849D01*
X101646485Y-85392381D01*
X101646487Y-85392386D01*
X101738589Y-85541707D01*
X101832251Y-85635369D01*
X101865736Y-85696692D01*
X101860752Y-85766384D01*
X101832251Y-85810731D01*
X101738589Y-85904392D01*
X101646487Y-86053713D01*
X101646485Y-86053718D01*
X101624869Y-86118952D01*
X101591301Y-86220253D01*
X101591301Y-86220254D01*
X101591300Y-86220254D01*
X101580800Y-86323033D01*
X101580800Y-87123051D01*
X101580801Y-87123069D01*
X101591300Y-87225846D01*
X101591301Y-87225849D01*
X101618602Y-87308236D01*
X101646486Y-87392384D01*
X101738588Y-87541706D01*
X101862644Y-87665762D01*
X102011966Y-87757864D01*
X102178503Y-87813049D01*
X102281291Y-87823550D01*
X103281308Y-87823549D01*
X103281316Y-87823548D01*
X103281319Y-87823548D01*
X103337602Y-87817798D01*
X103384097Y-87813049D01*
X103550634Y-87757864D01*
X103576336Y-87742010D01*
X103641432Y-87723550D01*
X104050801Y-87723550D01*
X104117840Y-87743235D01*
X104163595Y-87796039D01*
X104174801Y-87847550D01*
X104174801Y-88299868D01*
X104185300Y-88402646D01*
X104185301Y-88402649D01*
X104240485Y-88569181D01*
X104240487Y-88569186D01*
X104254371Y-88591695D01*
X104332588Y-88718506D01*
X104456644Y-88842562D01*
X104605966Y-88934664D01*
X104772503Y-88989849D01*
X104875291Y-89000350D01*
X106275308Y-89000349D01*
X106378097Y-88989849D01*
X106544634Y-88934664D01*
X106693956Y-88842562D01*
X106818012Y-88718506D01*
X106910114Y-88569184D01*
X106965299Y-88402647D01*
X106975800Y-88299859D01*
X106975800Y-87874350D01*
X106995485Y-87807311D01*
X107048289Y-87761556D01*
X107099800Y-87750350D01*
X112757318Y-87750350D01*
X112824357Y-87770035D01*
X112844999Y-87786669D01*
X115121453Y-90063123D01*
X115154938Y-90124446D01*
X115151479Y-90189804D01*
X115145102Y-90209047D01*
X115145100Y-90209059D01*
X115134600Y-90311833D01*
X115134600Y-92411851D01*
X115134601Y-92411868D01*
X115145100Y-92514646D01*
X115145101Y-92514649D01*
X115200285Y-92681181D01*
X115200287Y-92681186D01*
X115206497Y-92691254D01*
X115292388Y-92830506D01*
X115416444Y-92954562D01*
X115565766Y-93046664D01*
X115732303Y-93101849D01*
X115835091Y-93112350D01*
X118699016Y-93112349D01*
X118766055Y-93132034D01*
X118786697Y-93148668D01*
X119898385Y-94260355D01*
X119931870Y-94321678D01*
X119931596Y-94375626D01*
X119923264Y-94412134D01*
X119903435Y-94676745D01*
X119903435Y-94676754D01*
X119923263Y-94941359D01*
X119923264Y-94941364D01*
X119982310Y-95200063D01*
X119982312Y-95200072D01*
X119982314Y-95200077D01*
X120079261Y-95447095D01*
X120211942Y-95676905D01*
X120377392Y-95884373D01*
X120571916Y-96064864D01*
X120614450Y-96093863D01*
X120624251Y-96100545D01*
X120668553Y-96154574D01*
X120678400Y-96202999D01*
X120678400Y-103334717D01*
X120658715Y-103401756D01*
X120642081Y-103422398D01*
X116502051Y-107562427D01*
X116440728Y-107595912D01*
X116371036Y-107590928D01*
X116338884Y-107573122D01*
X116189593Y-107458567D01*
X116189592Y-107458566D01*
X116189589Y-107458564D01*
X115979512Y-107337276D01*
X115979505Y-107337273D01*
X115755404Y-107244447D01*
X115521085Y-107181661D01*
X115280589Y-107150000D01*
X115280588Y-107150000D01*
X115038012Y-107150000D01*
X115038011Y-107150000D01*
X114797514Y-107181661D01*
X114563195Y-107244447D01*
X114339094Y-107337273D01*
X114339085Y-107337277D01*
X114129006Y-107458567D01*
X113936563Y-107606233D01*
X113936556Y-107606239D01*
X113765039Y-107777756D01*
X113765033Y-107777763D01*
X113617367Y-107970206D01*
X113496077Y-108180285D01*
X113496073Y-108180294D01*
X113403247Y-108404395D01*
X113340461Y-108638714D01*
X113308800Y-108879211D01*
X113308800Y-109721788D01*
X113340461Y-109962285D01*
X113403247Y-110196604D01*
X113495979Y-110420478D01*
X113496076Y-110420712D01*
X113617364Y-110630789D01*
X113617366Y-110630792D01*
X113617367Y-110630793D01*
X113765033Y-110823236D01*
X113765039Y-110823243D01*
X113936556Y-110994760D01*
X113936562Y-110994765D01*
X114129011Y-111142436D01*
X114339088Y-111263724D01*
X114563200Y-111356554D01*
X114797511Y-111419338D01*
X114977886Y-111443084D01*
X115038011Y-111451000D01*
X115038012Y-111451000D01*
X115280589Y-111451000D01*
X115328688Y-111444667D01*
X115521089Y-111419338D01*
X115755400Y-111356554D01*
X115979512Y-111263724D01*
X116189589Y-111142436D01*
X116382038Y-110994765D01*
X116553565Y-110823238D01*
X116701236Y-110630789D01*
X116822524Y-110420712D01*
X116915354Y-110196600D01*
X116978138Y-109962289D01*
X116979634Y-109950923D01*
X117007899Y-109887027D01*
X117014880Y-109879438D01*
X122456040Y-104438281D01*
X122565532Y-104274414D01*
X122640952Y-104092335D01*
X122679401Y-103899040D01*
X122679401Y-103701959D01*
X122679401Y-103696849D01*
X122679400Y-103696823D01*
X122679400Y-96202999D01*
X122699085Y-96135960D01*
X122733547Y-96100546D01*
X122785884Y-96064864D01*
X122980408Y-95884373D01*
X123145858Y-95676905D01*
X123278539Y-95447095D01*
X123375486Y-95200077D01*
X123434535Y-94941369D01*
X123434541Y-94941290D01*
X123454365Y-94676754D01*
X123454365Y-94676745D01*
X123434536Y-94412140D01*
X123434535Y-94412135D01*
X123434535Y-94412134D01*
X123434535Y-94412131D01*
X123375486Y-94153423D01*
X123278539Y-93906405D01*
X123145858Y-93676595D01*
X122980408Y-93469127D01*
X122785884Y-93288636D01*
X122746388Y-93261708D01*
X122566636Y-93139154D01*
X122566635Y-93139153D01*
X122566633Y-93139152D01*
X122566629Y-93139150D01*
X122393998Y-93056015D01*
X122342139Y-93009192D01*
X122323800Y-92944295D01*
X122323800Y-89920480D01*
X122343485Y-89853441D01*
X122360119Y-89832799D01*
X122372990Y-89819928D01*
X122391012Y-89801906D01*
X122483114Y-89652584D01*
X122538299Y-89486047D01*
X122548800Y-89383259D01*
X122548799Y-88608242D01*
X122544809Y-88569186D01*
X122538299Y-88505453D01*
X122538298Y-88505450D01*
X122532817Y-88488909D01*
X122483114Y-88338916D01*
X122391012Y-88189594D01*
X122266956Y-88065538D01*
X122263642Y-88063493D01*
X122261846Y-88061498D01*
X122261289Y-88061057D01*
X122261364Y-88060961D01*
X122216918Y-88011547D01*
X122205697Y-87942584D01*
X122233540Y-87878502D01*
X122263648Y-87852415D01*
X122266642Y-87850568D01*
X122390615Y-87726595D01*
X122482656Y-87577374D01*
X122482658Y-87577369D01*
X122537805Y-87410947D01*
X122537806Y-87410940D01*
X122548299Y-87308236D01*
X122548300Y-87308223D01*
X122548300Y-87170750D01*
X120098301Y-87170750D01*
X120098301Y-87308236D01*
X120108794Y-87410947D01*
X120163941Y-87577369D01*
X120163943Y-87577374D01*
X120255984Y-87726595D01*
X120379955Y-87850566D01*
X120379959Y-87850569D01*
X120382956Y-87852418D01*
X120384579Y-87854222D01*
X120385623Y-87855048D01*
X120385481Y-87855226D01*
X120429681Y-87904366D01*
X120440902Y-87973329D01*
X120413059Y-88037411D01*
X120382961Y-88063491D01*
X120379649Y-88065533D01*
X120379643Y-88065538D01*
X120255589Y-88189592D01*
X120163487Y-88338913D01*
X120163486Y-88338916D01*
X120108301Y-88505453D01*
X120108301Y-88505454D01*
X120108300Y-88505454D01*
X120097800Y-88608233D01*
X120097800Y-89383251D01*
X120097801Y-89383269D01*
X120108989Y-89492782D01*
X120106381Y-89493048D01*
X120102044Y-89550898D01*
X120059979Y-89606687D01*
X119994431Y-89630878D01*
X119947011Y-89624871D01*
X119937897Y-89621851D01*
X119937895Y-89621850D01*
X119835116Y-89611350D01*
X119835109Y-89611350D01*
X117550882Y-89611350D01*
X117483843Y-89591665D01*
X117463201Y-89575031D01*
X114421433Y-86533263D01*
X120098300Y-86533263D01*
X120098300Y-86670750D01*
X121073300Y-86670750D01*
X121573300Y-86670750D01*
X122548299Y-86670750D01*
X122548299Y-86533278D01*
X122548298Y-86533263D01*
X122537805Y-86430552D01*
X122482658Y-86264130D01*
X122482656Y-86264125D01*
X122390615Y-86114904D01*
X122266645Y-85990934D01*
X122117424Y-85898893D01*
X122117419Y-85898891D01*
X121950997Y-85843744D01*
X121950990Y-85843743D01*
X121848286Y-85833250D01*
X121573300Y-85833250D01*
X121573300Y-86670750D01*
X121073300Y-86670750D01*
X121073300Y-85833250D01*
X120798329Y-85833250D01*
X120798312Y-85833251D01*
X120695602Y-85843744D01*
X120529180Y-85898891D01*
X120529175Y-85898893D01*
X120379954Y-85990934D01*
X120255984Y-86114904D01*
X120163943Y-86264125D01*
X120163941Y-86264130D01*
X120108794Y-86430552D01*
X120108793Y-86430559D01*
X120098300Y-86533263D01*
X114421433Y-86533263D01*
X114004579Y-86116409D01*
X114004559Y-86116387D01*
X113860885Y-85972713D01*
X113860881Y-85972710D01*
X113697020Y-85863221D01*
X113697007Y-85863214D01*
X113541331Y-85798732D01*
X113514937Y-85787799D01*
X113514929Y-85787797D01*
X113418288Y-85768574D01*
X113321644Y-85749350D01*
X113321641Y-85749350D01*
X107099799Y-85749350D01*
X107032760Y-85729665D01*
X106987005Y-85676861D01*
X106975799Y-85625350D01*
X106975799Y-85199848D01*
X106975798Y-85199831D01*
X106965299Y-85097053D01*
X106965298Y-85097050D01*
X106946130Y-85039206D01*
X106910114Y-84930516D01*
X106818012Y-84781194D01*
X106693956Y-84657138D01*
X106601188Y-84599919D01*
X106544636Y-84565037D01*
X106544631Y-84565035D01*
X106543162Y-84564548D01*
X106378097Y-84509851D01*
X106378095Y-84509850D01*
X106275310Y-84499350D01*
X104875298Y-84499350D01*
X104875281Y-84499351D01*
X104772503Y-84509850D01*
X104772500Y-84509851D01*
X104605968Y-84565035D01*
X104605963Y-84565037D01*
X104456642Y-84657139D01*
X104332589Y-84781192D01*
X104240487Y-84930513D01*
X104240484Y-84930521D01*
X104223504Y-84981762D01*
X104183731Y-85039206D01*
X104119215Y-85066028D01*
X104050439Y-85053712D01*
X103999240Y-85006169D01*
X103981799Y-84942758D01*
X103981799Y-84323042D01*
X103971299Y-84220253D01*
X103916114Y-84053716D01*
X103824012Y-83904394D01*
X103818119Y-83898501D01*
X103784634Y-83837178D01*
X103781800Y-83810820D01*
X103781800Y-82549528D01*
X103800260Y-82484433D01*
X103890714Y-82337784D01*
X103933095Y-82209884D01*
X103972866Y-82152442D01*
X104037382Y-82125618D01*
X104106158Y-82137933D01*
X104157358Y-82185475D01*
X104174800Y-82248890D01*
X104174800Y-83299851D01*
X104174801Y-83299868D01*
X104185300Y-83402646D01*
X104185301Y-83402649D01*
X104236117Y-83555998D01*
X104240486Y-83569184D01*
X104332588Y-83718506D01*
X104456644Y-83842562D01*
X104605966Y-83934664D01*
X104772503Y-83989849D01*
X104875291Y-84000350D01*
X106275308Y-84000349D01*
X106378097Y-83989849D01*
X106544634Y-83934664D01*
X106693956Y-83842562D01*
X106818012Y-83718506D01*
X106910114Y-83569184D01*
X106965299Y-83402647D01*
X106975800Y-83299859D01*
X106975800Y-83264527D01*
X106995485Y-83197488D01*
X107048289Y-83151733D01*
X107117447Y-83141789D01*
X107181003Y-83170814D01*
X107199063Y-83190212D01*
X107224354Y-83223996D01*
X107270543Y-83258573D01*
X107339564Y-83310243D01*
X107339571Y-83310247D01*
X107474417Y-83360541D01*
X107474416Y-83360541D01*
X107481344Y-83361285D01*
X107534027Y-83366950D01*
X111629772Y-83366949D01*
X111689383Y-83360541D01*
X111824231Y-83310246D01*
X111939446Y-83223996D01*
X112025696Y-83108781D01*
X112075991Y-82973933D01*
X112082400Y-82914323D01*
X112082399Y-80818578D01*
X112075991Y-80758967D01*
X112074933Y-80756131D01*
X112025697Y-80624121D01*
X112025693Y-80624114D01*
X111939447Y-80508905D01*
X111939444Y-80508902D01*
X111824235Y-80422656D01*
X111824228Y-80422652D01*
X111689382Y-80372358D01*
X111689383Y-80372358D01*
X111629783Y-80365951D01*
X111629781Y-80365950D01*
X111629773Y-80365950D01*
X111629764Y-80365950D01*
X107534029Y-80365950D01*
X107534023Y-80365951D01*
X107474416Y-80372358D01*
X107339571Y-80422652D01*
X107339564Y-80422656D01*
X107224355Y-80508902D01*
X107224352Y-80508905D01*
X107199065Y-80542685D01*
X107143131Y-80584556D01*
X107073440Y-80589540D01*
X107012117Y-80556054D01*
X106978633Y-80494731D01*
X106975799Y-80468374D01*
X106975799Y-80199848D01*
X106975798Y-80199831D01*
X106965299Y-80097053D01*
X106965298Y-80097050D01*
X106956882Y-80071653D01*
X106910114Y-79930516D01*
X106899338Y-79913046D01*
X106841212Y-79818807D01*
X106822772Y-79751415D01*
X106843695Y-79684751D01*
X106897337Y-79639982D01*
X106908060Y-79636557D01*
X106907869Y-79635979D01*
X106923320Y-79630859D01*
X107023900Y-79597529D01*
X107093724Y-79595128D01*
X107153766Y-79630859D01*
X107162158Y-79640913D01*
X107224354Y-79723996D01*
X107224355Y-79723996D01*
X107224356Y-79723998D01*
X107339564Y-79810243D01*
X107339571Y-79810247D01*
X107474417Y-79860541D01*
X107474416Y-79860541D01*
X107481344Y-79861285D01*
X107534027Y-79866950D01*
X111629772Y-79866949D01*
X111689383Y-79860541D01*
X111824231Y-79810246D01*
X111939446Y-79723996D01*
X112025696Y-79608781D01*
X112075991Y-79473933D01*
X112082400Y-79414323D01*
X112082400Y-79414294D01*
X115581900Y-79414294D01*
X115588301Y-79473822D01*
X115588303Y-79473829D01*
X115638545Y-79608536D01*
X115638549Y-79608543D01*
X115724709Y-79723637D01*
X115724712Y-79723640D01*
X115839806Y-79809800D01*
X115839813Y-79809804D01*
X115974520Y-79860046D01*
X115974527Y-79860048D01*
X116034055Y-79866449D01*
X116034072Y-79866450D01*
X117831900Y-79866450D01*
X117831900Y-78616450D01*
X115581900Y-78616450D01*
X115581900Y-79414294D01*
X112082400Y-79414294D01*
X112082399Y-77318605D01*
X115581900Y-77318605D01*
X115581900Y-78116450D01*
X117831900Y-78116450D01*
X117831900Y-76866450D01*
X116034055Y-76866450D01*
X115974527Y-76872851D01*
X115974520Y-76872853D01*
X115839813Y-76923095D01*
X115839806Y-76923099D01*
X115724712Y-77009259D01*
X115724709Y-77009262D01*
X115638549Y-77124356D01*
X115638545Y-77124363D01*
X115588303Y-77259070D01*
X115588301Y-77259077D01*
X115581900Y-77318605D01*
X112082399Y-77318605D01*
X112082399Y-77318578D01*
X112075991Y-77258967D01*
X112072186Y-77248766D01*
X112025697Y-77124121D01*
X112025693Y-77124114D01*
X111939447Y-77008905D01*
X111939444Y-77008902D01*
X111824235Y-76922656D01*
X111824228Y-76922652D01*
X111689382Y-76872358D01*
X111689383Y-76872358D01*
X111629783Y-76865951D01*
X111629781Y-76865950D01*
X111629773Y-76865950D01*
X111629765Y-76865950D01*
X110706400Y-76865950D01*
X110639361Y-76846265D01*
X110593606Y-76793461D01*
X110582400Y-76741950D01*
X110582400Y-74278631D01*
X110602085Y-74211592D01*
X110618715Y-74190954D01*
X110980601Y-73829067D01*
X111041924Y-73795583D01*
X111068282Y-73792749D01*
X115502485Y-73792749D01*
X115502491Y-73792750D01*
X119652508Y-73792749D01*
X119755297Y-73782249D01*
X119921834Y-73727064D01*
X120032105Y-73659048D01*
X120099496Y-73640609D01*
X120166159Y-73661532D01*
X120210929Y-73715174D01*
X120221200Y-73764588D01*
X120221200Y-76742450D01*
X120201515Y-76809489D01*
X120148711Y-76855244D01*
X120097200Y-76866450D01*
X118331900Y-76866450D01*
X118331900Y-79866450D01*
X119946467Y-79866450D01*
X120013506Y-79886135D01*
X120059261Y-79938939D01*
X120069205Y-80008097D01*
X120040180Y-80071653D01*
X120034148Y-80078131D01*
X119782647Y-80329631D01*
X119721324Y-80363116D01*
X119694966Y-80365950D01*
X116034029Y-80365950D01*
X116034023Y-80365951D01*
X115974416Y-80372358D01*
X115839571Y-80422652D01*
X115839564Y-80422656D01*
X115724355Y-80508902D01*
X115724352Y-80508905D01*
X115638106Y-80624114D01*
X115638102Y-80624121D01*
X115587808Y-80758967D01*
X115581982Y-80813164D01*
X115581401Y-80818573D01*
X115581400Y-80818585D01*
X115581400Y-82914320D01*
X115581401Y-82914326D01*
X115587808Y-82973933D01*
X115638102Y-83108778D01*
X115638106Y-83108785D01*
X115724352Y-83223994D01*
X115724355Y-83223997D01*
X115839564Y-83310243D01*
X115839571Y-83310247D01*
X115974417Y-83360541D01*
X115974416Y-83360541D01*
X115981344Y-83361285D01*
X116034027Y-83366950D01*
X120129772Y-83366949D01*
X120189383Y-83360541D01*
X120324231Y-83310246D01*
X120439446Y-83223996D01*
X120525696Y-83108781D01*
X120575991Y-82973933D01*
X120582400Y-82914323D01*
X120582399Y-82411080D01*
X120602083Y-82344042D01*
X120618713Y-82323405D01*
X121998840Y-80943281D01*
X122108332Y-80779414D01*
X122183752Y-80597335D01*
X122205677Y-80487106D01*
X122221119Y-80409476D01*
X122221119Y-80409472D01*
X122221120Y-80409469D01*
X122222200Y-80404041D01*
X122222200Y-58261359D01*
X122188197Y-58090414D01*
X122183751Y-58068064D01*
X122154340Y-57997060D01*
X122154340Y-57997059D01*
X122108335Y-57885992D01*
X122108328Y-57885979D01*
X121998839Y-57722118D01*
X121998836Y-57722114D01*
X121856386Y-57579664D01*
X121856355Y-57579635D01*
X121252825Y-56976105D01*
X121219340Y-56914782D01*
X121224324Y-56845090D01*
X121252821Y-56800748D01*
X122210001Y-55843567D01*
X122271324Y-55810083D01*
X122297682Y-55807249D01*
X122996771Y-55807249D01*
X122996772Y-55807249D01*
X123056383Y-55800841D01*
X123191231Y-55750546D01*
X123306446Y-55664296D01*
X123392696Y-55549081D01*
X123442991Y-55414233D01*
X123449400Y-55354623D01*
X123449399Y-52718878D01*
X123442991Y-52659267D01*
X123428209Y-52619635D01*
X123392697Y-52524421D01*
X123392693Y-52524414D01*
X123306447Y-52409205D01*
X123306444Y-52409202D01*
X123191235Y-52322956D01*
X123191228Y-52322952D01*
X123056382Y-52272658D01*
X123056383Y-52272658D01*
X122996783Y-52266251D01*
X122996781Y-52266250D01*
X122996773Y-52266250D01*
X122996764Y-52266250D01*
X120361029Y-52266250D01*
X120361023Y-52266251D01*
X120301416Y-52272658D01*
X120166571Y-52322952D01*
X120166564Y-52322956D01*
X120051355Y-52409202D01*
X120051352Y-52409205D01*
X119965106Y-52524414D01*
X119965102Y-52524421D01*
X119914808Y-52659267D01*
X119912288Y-52682712D01*
X119908401Y-52718873D01*
X119908400Y-52718885D01*
X119908400Y-54083865D01*
X119888715Y-54150904D01*
X119835911Y-54196659D01*
X119766753Y-54206603D01*
X119719304Y-54189404D01*
X119653628Y-54148896D01*
X119653619Y-54148891D01*
X119487197Y-54093744D01*
X119487190Y-54093743D01*
X119384486Y-54083250D01*
X119109500Y-54083250D01*
X119109500Y-55046750D01*
X119089815Y-55113789D01*
X119037011Y-55159544D01*
X118985500Y-55170750D01*
X118859500Y-55170750D01*
X118859500Y-55296750D01*
X118839815Y-55363789D01*
X118787011Y-55409544D01*
X118735500Y-55420750D01*
X117634501Y-55420750D01*
X117634501Y-55558221D01*
X117634502Y-55558241D01*
X117636987Y-55582570D01*
X117624217Y-55651262D01*
X117576335Y-55702146D01*
X117508545Y-55719066D01*
X117474626Y-55712876D01*
X117397899Y-55687451D01*
X117397895Y-55687450D01*
X117295110Y-55676950D01*
X113295098Y-55676950D01*
X113295081Y-55676951D01*
X113192303Y-55687450D01*
X113192300Y-55687451D01*
X113025768Y-55742635D01*
X113025763Y-55742637D01*
X112876442Y-55834739D01*
X112752389Y-55958792D01*
X112660287Y-56108113D01*
X112660285Y-56108118D01*
X112640359Y-56168251D01*
X112605101Y-56274653D01*
X112605101Y-56274654D01*
X112605100Y-56274654D01*
X112594600Y-56377433D01*
X112594600Y-58477451D01*
X112594601Y-58477468D01*
X112605100Y-58580246D01*
X112605101Y-58580249D01*
X112633685Y-58666508D01*
X112660286Y-58746784D01*
X112752388Y-58896106D01*
X112876444Y-59020162D01*
X113025766Y-59112264D01*
X113192303Y-59167449D01*
X113295091Y-59177950D01*
X117295108Y-59177949D01*
X117397897Y-59167449D01*
X117564434Y-59112264D01*
X117713756Y-59020162D01*
X117837812Y-58896106D01*
X117929914Y-58746784D01*
X117985099Y-58580247D01*
X117989277Y-58539346D01*
X118015673Y-58474657D01*
X118072853Y-58434505D01*
X118112635Y-58427950D01*
X118776342Y-58427950D01*
X118795670Y-58424105D01*
X118872988Y-58408725D01*
X118969636Y-58389501D01*
X119036586Y-58361769D01*
X119081444Y-58343187D01*
X119128897Y-58333749D01*
X119384502Y-58333749D01*
X119384508Y-58333749D01*
X119487297Y-58323249D01*
X119627136Y-58276910D01*
X119696958Y-58274509D01*
X119753816Y-58306936D01*
X120184881Y-58738001D01*
X120218366Y-58799324D01*
X120221200Y-58825682D01*
X120221200Y-62019911D01*
X120201515Y-62086950D01*
X120148711Y-62132705D01*
X120079553Y-62142649D01*
X120032104Y-62125450D01*
X119921840Y-62057439D01*
X119921835Y-62057437D01*
X119921834Y-62057436D01*
X119755297Y-62002251D01*
X119755295Y-62002250D01*
X119652516Y-61991750D01*
X119652509Y-61991750D01*
X119652507Y-61991750D01*
X114802514Y-61991750D01*
X114802509Y-61991750D01*
X110652498Y-61991750D01*
X110652481Y-61991751D01*
X110549703Y-62002250D01*
X110549700Y-62002251D01*
X110383168Y-62057435D01*
X110383163Y-62057437D01*
X110233842Y-62149539D01*
X110109789Y-62273592D01*
X110017687Y-62422913D01*
X110017685Y-62422918D01*
X109963450Y-62586590D01*
X109962502Y-62589448D01*
X109962500Y-62589459D01*
X109952000Y-62692233D01*
X109952000Y-66767750D01*
X109932315Y-66834789D01*
X109879511Y-66880544D01*
X109828000Y-66891750D01*
X108882469Y-66891750D01*
X108815430Y-66872065D01*
X108769675Y-66819261D01*
X108759731Y-66750103D01*
X108764760Y-66728757D01*
X108792499Y-66645047D01*
X108803000Y-66542259D01*
X108802999Y-65842242D01*
X108798152Y-65794797D01*
X108792499Y-65739453D01*
X108792498Y-65739450D01*
X108776799Y-65692073D01*
X108737314Y-65572916D01*
X108645212Y-65423594D01*
X108645210Y-65423592D01*
X108641384Y-65418753D01*
X108615245Y-65353957D01*
X108628287Y-65285315D01*
X108641386Y-65264933D01*
X108644814Y-65260596D01*
X108736856Y-65111374D01*
X108736858Y-65111369D01*
X108792005Y-64944947D01*
X108792006Y-64944940D01*
X108802499Y-64842236D01*
X108802500Y-64842223D01*
X108802500Y-64742250D01*
X103202501Y-64742250D01*
X103202501Y-64842236D01*
X103212994Y-64944947D01*
X103268141Y-65111369D01*
X103268143Y-65111374D01*
X103360184Y-65260596D01*
X103363614Y-65264933D01*
X103389754Y-65329729D01*
X103376713Y-65398371D01*
X103363626Y-65418737D01*
X103359797Y-65423580D01*
X103267687Y-65572913D01*
X103267685Y-65572918D01*
X103254526Y-65612630D01*
X103212501Y-65739453D01*
X103212501Y-65739454D01*
X103212500Y-65739454D01*
X103202000Y-65842233D01*
X103202000Y-66542251D01*
X103202001Y-66542269D01*
X103212500Y-66645046D01*
X103212501Y-66645049D01*
X103267685Y-66811581D01*
X103267687Y-66811586D01*
X103281571Y-66834096D01*
X103357255Y-66956800D01*
X103359789Y-66960907D01*
X103363295Y-66965341D01*
X103389434Y-67030137D01*
X103376392Y-67098779D01*
X103363295Y-67119159D01*
X103359789Y-67123592D01*
X103267687Y-67272913D01*
X103267686Y-67272916D01*
X103212501Y-67439453D01*
X103212501Y-67439454D01*
X103212500Y-67439454D01*
X103202000Y-67542233D01*
X103202000Y-68242251D01*
X103202001Y-68242269D01*
X103212500Y-68345046D01*
X103212501Y-68345049D01*
X103267685Y-68511581D01*
X103267687Y-68511586D01*
X103359789Y-68660907D01*
X103363295Y-68665341D01*
X103389434Y-68730137D01*
X103376392Y-68798779D01*
X103363295Y-68819159D01*
X103359789Y-68823592D01*
X103267687Y-68972913D01*
X103267686Y-68972916D01*
X103212501Y-69139453D01*
X103212501Y-69139454D01*
X103212500Y-69139454D01*
X103202000Y-69242233D01*
X103202000Y-69942251D01*
X103202001Y-69942269D01*
X103212500Y-70045046D01*
X103212501Y-70045049D01*
X103254984Y-70173252D01*
X103267686Y-70211584D01*
X103359787Y-70360905D01*
X103359789Y-70360907D01*
X103363295Y-70365341D01*
X103389434Y-70430137D01*
X103376392Y-70498779D01*
X103363295Y-70519159D01*
X103359789Y-70523592D01*
X103267687Y-70672913D01*
X103267686Y-70672916D01*
X103212501Y-70839453D01*
X103212501Y-70839454D01*
X103212500Y-70839454D01*
X103202000Y-70942233D01*
X103202000Y-71642251D01*
X103202001Y-71642269D01*
X103212500Y-71745046D01*
X103212501Y-71745049D01*
X103267685Y-71911581D01*
X103267686Y-71911584D01*
X103359788Y-72060906D01*
X103483844Y-72184962D01*
X103633166Y-72277064D01*
X103799703Y-72332249D01*
X103902491Y-72342750D01*
X104878000Y-72342749D01*
X104945039Y-72362433D01*
X104990794Y-72415237D01*
X105002000Y-72466749D01*
X105002000Y-73550666D01*
X104982315Y-73617705D01*
X104965681Y-73638347D01*
X104167580Y-74436448D01*
X104106257Y-74469933D01*
X104036565Y-74464949D01*
X103980632Y-74423077D01*
X103956215Y-74357613D01*
X103955899Y-74348767D01*
X103955899Y-74163078D01*
X103955898Y-74163063D01*
X103945405Y-74060352D01*
X103890258Y-73893930D01*
X103890256Y-73893925D01*
X103798215Y-73744704D01*
X103674245Y-73620734D01*
X103525024Y-73528693D01*
X103525019Y-73528691D01*
X103358597Y-73473544D01*
X103358590Y-73473543D01*
X103255886Y-73463050D01*
X103005900Y-73463050D01*
X103005900Y-74439050D01*
X102986215Y-74506089D01*
X102933411Y-74551844D01*
X102881900Y-74563050D01*
X102755900Y-74563050D01*
X102755900Y-74689050D01*
X102736215Y-74756089D01*
X102683411Y-74801844D01*
X102631900Y-74813050D01*
X101555901Y-74813050D01*
X101555901Y-74963036D01*
X101566394Y-75065747D01*
X101621541Y-75232169D01*
X101621543Y-75232174D01*
X101713584Y-75381395D01*
X101807204Y-75475015D01*
X101840689Y-75536338D01*
X101835705Y-75606030D01*
X101807205Y-75650377D01*
X101713187Y-75744395D01*
X101621087Y-75893713D01*
X101621086Y-75893716D01*
X101565901Y-76060253D01*
X101565901Y-76060254D01*
X101565900Y-76060254D01*
X101555400Y-76163033D01*
X100149600Y-76163033D01*
X100149600Y-74163063D01*
X101555900Y-74163063D01*
X101555900Y-74313050D01*
X102505900Y-74313050D01*
X102505900Y-73463050D01*
X102255929Y-73463050D01*
X102255912Y-73463051D01*
X102153202Y-73473544D01*
X101986780Y-73528691D01*
X101986775Y-73528693D01*
X101837554Y-73620734D01*
X101713584Y-73744704D01*
X101621543Y-73893925D01*
X101621541Y-73893930D01*
X101566394Y-74060352D01*
X101566393Y-74060359D01*
X101555900Y-74163063D01*
X100149600Y-74163063D01*
X100149600Y-64142263D01*
X103202500Y-64142263D01*
X103202500Y-64242250D01*
X105752500Y-64242250D01*
X106252500Y-64242250D01*
X108802499Y-64242250D01*
X108802499Y-64142278D01*
X108802498Y-64142263D01*
X108792005Y-64039552D01*
X108736858Y-63873130D01*
X108736856Y-63873125D01*
X108644815Y-63723904D01*
X108520845Y-63599934D01*
X108371624Y-63507893D01*
X108371619Y-63507891D01*
X108205197Y-63452744D01*
X108205190Y-63452743D01*
X108102486Y-63442250D01*
X106252500Y-63442250D01*
X106252500Y-64242250D01*
X105752500Y-64242250D01*
X105752500Y-63442250D01*
X103902528Y-63442250D01*
X103902512Y-63442251D01*
X103799802Y-63452744D01*
X103633380Y-63507891D01*
X103633375Y-63507893D01*
X103484154Y-63599934D01*
X103360184Y-63723904D01*
X103268143Y-63873125D01*
X103268141Y-63873130D01*
X103212994Y-64039552D01*
X103212993Y-64039559D01*
X103202500Y-64142263D01*
X100149600Y-64142263D01*
X100149600Y-59404356D01*
X100118206Y-59246531D01*
X100118206Y-59246530D01*
X100111152Y-59211071D01*
X100111151Y-59211064D01*
X100072567Y-59117914D01*
X100058999Y-59085157D01*
X100035735Y-59028992D01*
X100035728Y-59028979D01*
X99926239Y-58865118D01*
X99926236Y-58865114D01*
X99783786Y-58722664D01*
X99783755Y-58722635D01*
X99538556Y-58477436D01*
X105195101Y-58477436D01*
X105205594Y-58580147D01*
X105260741Y-58746569D01*
X105260743Y-58746574D01*
X105352784Y-58895795D01*
X105476754Y-59019765D01*
X105625975Y-59111806D01*
X105625980Y-59111808D01*
X105792402Y-59166955D01*
X105792409Y-59166956D01*
X105895119Y-59177449D01*
X107645099Y-59177449D01*
X108145100Y-59177449D01*
X109895072Y-59177449D01*
X109895086Y-59177448D01*
X109997797Y-59166955D01*
X110164219Y-59111808D01*
X110164224Y-59111806D01*
X110313445Y-59019765D01*
X110437415Y-58895795D01*
X110529456Y-58746574D01*
X110529458Y-58746569D01*
X110584605Y-58580147D01*
X110584606Y-58580140D01*
X110595099Y-58477436D01*
X110595100Y-58477423D01*
X110595100Y-57677450D01*
X108145100Y-57677450D01*
X108145100Y-59177449D01*
X107645099Y-59177449D01*
X107645100Y-59177448D01*
X107645100Y-57677450D01*
X105195101Y-57677450D01*
X105195101Y-58477436D01*
X99538556Y-58477436D01*
X98583601Y-57522481D01*
X98550116Y-57461158D01*
X98555100Y-57391466D01*
X98583601Y-57347119D01*
X99457971Y-56472750D01*
X99553258Y-56377463D01*
X105195100Y-56377463D01*
X105195100Y-57177450D01*
X107645100Y-57177450D01*
X108145100Y-57177450D01*
X110595099Y-57177450D01*
X110595099Y-56377478D01*
X110595098Y-56377463D01*
X110584605Y-56274752D01*
X110529458Y-56108330D01*
X110529456Y-56108325D01*
X110437415Y-55959104D01*
X110313445Y-55835134D01*
X110164224Y-55743093D01*
X110164219Y-55743091D01*
X109997797Y-55687944D01*
X109997790Y-55687943D01*
X109895086Y-55677450D01*
X108145100Y-55677450D01*
X108145100Y-57177450D01*
X107645100Y-57177450D01*
X107645100Y-55677450D01*
X105895128Y-55677450D01*
X105895112Y-55677451D01*
X105792402Y-55687944D01*
X105625980Y-55743091D01*
X105625975Y-55743093D01*
X105476754Y-55835134D01*
X105352784Y-55959104D01*
X105260743Y-56108325D01*
X105260741Y-56108330D01*
X105205594Y-56274752D01*
X105205593Y-56274759D01*
X105195100Y-56377463D01*
X99553258Y-56377463D01*
X100408840Y-55521881D01*
X100518332Y-55358014D01*
X100593752Y-55175935D01*
X100613181Y-55078257D01*
X100633218Y-55031336D01*
X100762268Y-54847034D01*
X100858439Y-54640796D01*
X100917335Y-54420992D01*
X100937168Y-54194300D01*
X100923384Y-54036745D01*
X102123937Y-54036745D01*
X102123937Y-54036754D01*
X102143760Y-54301285D01*
X102143761Y-54301290D01*
X102202790Y-54559916D01*
X102202796Y-54559935D01*
X102299714Y-54806878D01*
X102299713Y-54806878D01*
X102432356Y-55036621D01*
X102482541Y-55099553D01*
X103415937Y-54166158D01*
X103432975Y-54229743D01*
X103498801Y-54343757D01*
X103591893Y-54436849D01*
X103705907Y-54502675D01*
X103769491Y-54519712D01*
X102835338Y-55453863D01*
X103011418Y-55573912D01*
X103011426Y-55573917D01*
X103250430Y-55689014D01*
X103250428Y-55689014D01*
X103503925Y-55767208D01*
X103503931Y-55767209D01*
X103766251Y-55806749D01*
X103766258Y-55806750D01*
X104031542Y-55806750D01*
X104031548Y-55806749D01*
X104293868Y-55767209D01*
X104293874Y-55767208D01*
X104547370Y-55689014D01*
X104786374Y-55573917D01*
X104786384Y-55573910D01*
X104962460Y-55453863D01*
X104028308Y-54519712D01*
X104091893Y-54502675D01*
X104205907Y-54436849D01*
X104298999Y-54343757D01*
X104364825Y-54229743D01*
X104381862Y-54166158D01*
X105315257Y-55099553D01*
X105365442Y-55036621D01*
X105498085Y-54806878D01*
X105507353Y-54783263D01*
X117634500Y-54783263D01*
X117634500Y-54920750D01*
X118609500Y-54920750D01*
X118609500Y-54083250D01*
X118334529Y-54083250D01*
X118334512Y-54083251D01*
X118231802Y-54093744D01*
X118065380Y-54148891D01*
X118065375Y-54148893D01*
X117916154Y-54240934D01*
X117792184Y-54364904D01*
X117700143Y-54514125D01*
X117700141Y-54514130D01*
X117644994Y-54680552D01*
X117644993Y-54680559D01*
X117634500Y-54783263D01*
X105507353Y-54783263D01*
X105595003Y-54559935D01*
X105595009Y-54559916D01*
X105654038Y-54301290D01*
X105654039Y-54301285D01*
X105673863Y-54036754D01*
X105673863Y-54036745D01*
X105654039Y-53772214D01*
X105654038Y-53772209D01*
X105595009Y-53513583D01*
X105595003Y-53513564D01*
X105498085Y-53266621D01*
X105498086Y-53266621D01*
X105365443Y-53036878D01*
X105315256Y-52973946D01*
X104381862Y-53907340D01*
X104364825Y-53843757D01*
X104298999Y-53729743D01*
X104205907Y-53636651D01*
X104091893Y-53570825D01*
X104028309Y-53553787D01*
X104962460Y-52619635D01*
X104786375Y-52499583D01*
X104786374Y-52499582D01*
X104547369Y-52384485D01*
X104547371Y-52384485D01*
X104293874Y-52306291D01*
X104293868Y-52306290D01*
X104031548Y-52266750D01*
X103766251Y-52266750D01*
X103503931Y-52306290D01*
X103503925Y-52306291D01*
X103250429Y-52384485D01*
X103011424Y-52499584D01*
X103011411Y-52499591D01*
X102835338Y-52619634D01*
X103769491Y-53553787D01*
X103705907Y-53570825D01*
X103591893Y-53636651D01*
X103498801Y-53729743D01*
X103432975Y-53843757D01*
X103415937Y-53907341D01*
X102482542Y-52973946D01*
X102432357Y-53036877D01*
X102299714Y-53266621D01*
X102202796Y-53513564D01*
X102202790Y-53513583D01*
X102143761Y-53772209D01*
X102143760Y-53772214D01*
X102123937Y-54036745D01*
X100923384Y-54036745D01*
X100917335Y-53967608D01*
X100858439Y-53747804D01*
X100762268Y-53541566D01*
X100631747Y-53355161D01*
X100631745Y-53355158D01*
X100470841Y-53194254D01*
X100284434Y-53063732D01*
X100284432Y-53063731D01*
X100078197Y-52967561D01*
X100078188Y-52967558D01*
X99858397Y-52908666D01*
X99858393Y-52908665D01*
X99858392Y-52908665D01*
X99858391Y-52908664D01*
X99858386Y-52908664D01*
X99631702Y-52888832D01*
X99631698Y-52888832D01*
X99405013Y-52908664D01*
X99405002Y-52908666D01*
X99185211Y-52967558D01*
X99185202Y-52967561D01*
X98978967Y-53063731D01*
X98978965Y-53063732D01*
X98792558Y-53194254D01*
X98631654Y-53355158D01*
X98501132Y-53541565D01*
X98501131Y-53541567D01*
X98404961Y-53747802D01*
X98404958Y-53747811D01*
X98346066Y-53967602D01*
X98346064Y-53967613D01*
X98326232Y-54194298D01*
X98326232Y-54194301D01*
X98346064Y-54420986D01*
X98346066Y-54420997D01*
X98398080Y-54615117D01*
X98396417Y-54684967D01*
X98365986Y-54734891D01*
X97527396Y-55573481D01*
X97466073Y-55606966D01*
X97439715Y-55609800D01*
X95037801Y-55609800D01*
X95037801Y-55747271D01*
X95037802Y-55747291D01*
X95040287Y-55771620D01*
X95027517Y-55840312D01*
X94979635Y-55891196D01*
X94911845Y-55908116D01*
X94877926Y-55901926D01*
X94801199Y-55876501D01*
X94801195Y-55876500D01*
X94698410Y-55866000D01*
X90698398Y-55866000D01*
X90698381Y-55866001D01*
X90595603Y-55876500D01*
X90595600Y-55876501D01*
X90429068Y-55931685D01*
X90429063Y-55931687D01*
X90279742Y-56023789D01*
X90155689Y-56147842D01*
X90063587Y-56297163D01*
X90063585Y-56297168D01*
X90043659Y-56357301D01*
X90008401Y-56463703D01*
X90008401Y-56463704D01*
X90008400Y-56463704D01*
X89997900Y-56566483D01*
X87998395Y-56566483D01*
X87987905Y-56463802D01*
X87932758Y-56297380D01*
X87932756Y-56297375D01*
X87840715Y-56148154D01*
X87716745Y-56024184D01*
X87567524Y-55932143D01*
X87567519Y-55932141D01*
X87401097Y-55876994D01*
X87401090Y-55876993D01*
X87298386Y-55866500D01*
X85548400Y-55866500D01*
X85548400Y-57366500D01*
X85048400Y-57366500D01*
X85048400Y-55866500D01*
X83298428Y-55866500D01*
X83298412Y-55866501D01*
X83195702Y-55876994D01*
X83029280Y-55932141D01*
X83029275Y-55932143D01*
X82880054Y-56024184D01*
X82756084Y-56148154D01*
X82664043Y-56297375D01*
X82664041Y-56297380D01*
X82608894Y-56463802D01*
X82608893Y-56463809D01*
X82598400Y-56566513D01*
X78925460Y-56566513D01*
X78988111Y-56472749D01*
X79031232Y-56408214D01*
X79086554Y-56274653D01*
X79106651Y-56226136D01*
X79145100Y-56032840D01*
X79145100Y-55835760D01*
X79145100Y-55481841D01*
X79164785Y-55414802D01*
X79217589Y-55369047D01*
X79225749Y-55365666D01*
X79236931Y-55361496D01*
X79241575Y-55358020D01*
X79323420Y-55296750D01*
X79352146Y-55275246D01*
X79438396Y-55160031D01*
X79488691Y-55025183D01*
X79495100Y-54965573D01*
X79495100Y-54194297D01*
X81178734Y-54194297D01*
X81178734Y-54194302D01*
X81198558Y-54420899D01*
X81198560Y-54420910D01*
X81257430Y-54640617D01*
X81257435Y-54640631D01*
X81353563Y-54846778D01*
X81404674Y-54919772D01*
X82083700Y-54240746D01*
X82083700Y-54246961D01*
X82110959Y-54348694D01*
X82163620Y-54439906D01*
X82238094Y-54514380D01*
X82329306Y-54567041D01*
X82431039Y-54594300D01*
X82437253Y-54594300D01*
X81758226Y-55273325D01*
X81831213Y-55324432D01*
X81831221Y-55324436D01*
X82037368Y-55420564D01*
X82037382Y-55420569D01*
X82257089Y-55479439D01*
X82257100Y-55479441D01*
X82483698Y-55499266D01*
X82483702Y-55499266D01*
X82710299Y-55479441D01*
X82710310Y-55479439D01*
X82930017Y-55420569D01*
X82930031Y-55420564D01*
X83136178Y-55324436D01*
X83209171Y-55273324D01*
X82908160Y-54972313D01*
X95037800Y-54972313D01*
X95037800Y-55109800D01*
X96012800Y-55109800D01*
X96512800Y-55109800D01*
X97487799Y-55109800D01*
X97487799Y-54972328D01*
X97487798Y-54972313D01*
X97477305Y-54869602D01*
X97422158Y-54703180D01*
X97422156Y-54703175D01*
X97330115Y-54553954D01*
X97206145Y-54429984D01*
X97056924Y-54337943D01*
X97056919Y-54337941D01*
X96890497Y-54282794D01*
X96890490Y-54282793D01*
X96787786Y-54272300D01*
X96512800Y-54272300D01*
X96512800Y-55109800D01*
X96012800Y-55109800D01*
X96012800Y-54272300D01*
X95737829Y-54272300D01*
X95737812Y-54272301D01*
X95635102Y-54282794D01*
X95468680Y-54337941D01*
X95468675Y-54337943D01*
X95319454Y-54429984D01*
X95195484Y-54553954D01*
X95103443Y-54703175D01*
X95103441Y-54703180D01*
X95048294Y-54869602D01*
X95048293Y-54869609D01*
X95037800Y-54972313D01*
X82908160Y-54972313D01*
X82530147Y-54594300D01*
X82536361Y-54594300D01*
X82638094Y-54567041D01*
X82729306Y-54514380D01*
X82803780Y-54439906D01*
X82856441Y-54348694D01*
X82883700Y-54246961D01*
X82883700Y-54240747D01*
X83562724Y-54919771D01*
X83613836Y-54846778D01*
X83709964Y-54640631D01*
X83709969Y-54640617D01*
X83768839Y-54420910D01*
X83768841Y-54420899D01*
X83788666Y-54194302D01*
X83788666Y-54194297D01*
X83768841Y-53967700D01*
X83768839Y-53967689D01*
X83709969Y-53747982D01*
X83709964Y-53747968D01*
X83613836Y-53541821D01*
X83613832Y-53541813D01*
X83562725Y-53468826D01*
X82883700Y-54147851D01*
X82883700Y-54141639D01*
X82856441Y-54039906D01*
X82803780Y-53948694D01*
X82729306Y-53874220D01*
X82638094Y-53821559D01*
X82536361Y-53794300D01*
X82530145Y-53794300D01*
X83209172Y-53115274D01*
X83136178Y-53064163D01*
X82930031Y-52968035D01*
X82930017Y-52968030D01*
X82710310Y-52909160D01*
X82710299Y-52909158D01*
X82483702Y-52889334D01*
X82483698Y-52889334D01*
X82257100Y-52909158D01*
X82257089Y-52909160D01*
X82037382Y-52968030D01*
X82037373Y-52968034D01*
X81831216Y-53064166D01*
X81831212Y-53064168D01*
X81758226Y-53115273D01*
X81758226Y-53115274D01*
X82437253Y-53794300D01*
X82431039Y-53794300D01*
X82329306Y-53821559D01*
X82238094Y-53874220D01*
X82163620Y-53948694D01*
X82110959Y-54039906D01*
X82083700Y-54141639D01*
X82083700Y-54147852D01*
X81404674Y-53468826D01*
X81404673Y-53468826D01*
X81353568Y-53541812D01*
X81353566Y-53541816D01*
X81257434Y-53747973D01*
X81257430Y-53747982D01*
X81198560Y-53967689D01*
X81198558Y-53967700D01*
X81178734Y-54194297D01*
X79495100Y-54194297D01*
X79495099Y-53169828D01*
X79488691Y-53110217D01*
X79471353Y-53063732D01*
X79438397Y-52975371D01*
X79438393Y-52975364D01*
X79352147Y-52860155D01*
X79352144Y-52860152D01*
X79236935Y-52773906D01*
X79236928Y-52773902D01*
X79102082Y-52723608D01*
X79102083Y-52723608D01*
X79042483Y-52717201D01*
X79042481Y-52717200D01*
X79042473Y-52717200D01*
X79042464Y-52717200D01*
X77246729Y-52717200D01*
X77246723Y-52717201D01*
X77187116Y-52723608D01*
X77052271Y-52773902D01*
X77052264Y-52773906D01*
X76937055Y-52860152D01*
X76937052Y-52860155D01*
X76850806Y-52975364D01*
X76850802Y-52975371D01*
X76800508Y-53110217D01*
X76794101Y-53169816D01*
X76794101Y-53169823D01*
X76794100Y-53169835D01*
X76794100Y-54965570D01*
X76794101Y-54965576D01*
X76800508Y-55025183D01*
X76850802Y-55160028D01*
X76850806Y-55160035D01*
X76937052Y-55275244D01*
X76937055Y-55275247D01*
X77052266Y-55361494D01*
X77052269Y-55361496D01*
X77053729Y-55362041D01*
X77054975Y-55362974D01*
X77060052Y-55365746D01*
X77059653Y-55366475D01*
X77109662Y-55403912D01*
X77134078Y-55469377D01*
X77119226Y-55537650D01*
X77098075Y-55565903D01*
X76694980Y-55968998D01*
X76633657Y-56002483D01*
X76563965Y-55997499D01*
X76508032Y-55955627D01*
X76483615Y-55890163D01*
X76483299Y-55881317D01*
X76483299Y-55633128D01*
X76483298Y-55633113D01*
X76472805Y-55530402D01*
X76417658Y-55363980D01*
X76417656Y-55363975D01*
X76325615Y-55214754D01*
X76201645Y-55090784D01*
X76052424Y-54998743D01*
X76052419Y-54998741D01*
X75885997Y-54943594D01*
X75885990Y-54943593D01*
X75783286Y-54933100D01*
X75508300Y-54933100D01*
X75508300Y-55896600D01*
X75488615Y-55963639D01*
X75435811Y-56009394D01*
X75384300Y-56020600D01*
X75258300Y-56020600D01*
X75258300Y-56146600D01*
X75238615Y-56213639D01*
X75185811Y-56259394D01*
X75134300Y-56270600D01*
X74033301Y-56270600D01*
X74033301Y-56408071D01*
X74033302Y-56408091D01*
X74035787Y-56432420D01*
X74023017Y-56501112D01*
X73975135Y-56551996D01*
X73907345Y-56568916D01*
X73873426Y-56562726D01*
X73796699Y-56537301D01*
X73796695Y-56537300D01*
X73693910Y-56526800D01*
X69693898Y-56526800D01*
X69693881Y-56526801D01*
X69591103Y-56537300D01*
X69591100Y-56537301D01*
X69424568Y-56592485D01*
X69424563Y-56592487D01*
X69275242Y-56684589D01*
X69151189Y-56808642D01*
X69059087Y-56957963D01*
X69059085Y-56957968D01*
X69039159Y-57018101D01*
X69003901Y-57124503D01*
X69003901Y-57124504D01*
X69003900Y-57124504D01*
X68993400Y-57227283D01*
X68993400Y-59327301D01*
X68993401Y-59327318D01*
X69003900Y-59430096D01*
X69003901Y-59430099D01*
X69059015Y-59596419D01*
X69059086Y-59596634D01*
X69150996Y-59745645D01*
X69151189Y-59745957D01*
X69275244Y-59870012D01*
X69378112Y-59933461D01*
X69424837Y-59985409D01*
X69436060Y-60054371D01*
X69408217Y-60118454D01*
X69400697Y-60126681D01*
X68978099Y-60549281D01*
X68916776Y-60582766D01*
X68890418Y-60585600D01*
X55875555Y-60585600D01*
X55778912Y-60604824D01*
X55682267Y-60624047D01*
X55682261Y-60624049D01*
X55628934Y-60646137D01*
X55628934Y-60646138D01*
X55583415Y-60664992D01*
X55500189Y-60699466D01*
X55500179Y-60699471D01*
X55336319Y-60808959D01*
X55266640Y-60878638D01*
X55196961Y-60948318D01*
X55196958Y-60948321D01*
X54651297Y-61493981D01*
X54589974Y-61527466D01*
X54563616Y-61530300D01*
X52481529Y-61530300D01*
X52481523Y-61530301D01*
X52421916Y-61536708D01*
X52287071Y-61587002D01*
X52287064Y-61587006D01*
X52171855Y-61673252D01*
X52171852Y-61673255D01*
X52085606Y-61788464D01*
X52085602Y-61788471D01*
X52035308Y-61923317D01*
X52028901Y-61982916D01*
X52028901Y-61982923D01*
X52028900Y-61982935D01*
X52028900Y-66078670D01*
X52028901Y-66078676D01*
X52035308Y-66138283D01*
X52085602Y-66273128D01*
X52085606Y-66273135D01*
X52171852Y-66388344D01*
X52171855Y-66388347D01*
X52287064Y-66474593D01*
X52287071Y-66474597D01*
X52421917Y-66524891D01*
X52421916Y-66524891D01*
X52428844Y-66525635D01*
X52481527Y-66531300D01*
X54577272Y-66531299D01*
X54636883Y-66524891D01*
X54771731Y-66474596D01*
X54886946Y-66388346D01*
X54973196Y-66273131D01*
X55023491Y-66138283D01*
X55029900Y-66078673D01*
X55029899Y-64992113D01*
X59601300Y-64992113D01*
X59601300Y-65092100D01*
X62151300Y-65092100D01*
X62651300Y-65092100D01*
X65201299Y-65092100D01*
X65201299Y-64992128D01*
X65201298Y-64992113D01*
X65190805Y-64889402D01*
X65135658Y-64722980D01*
X65135656Y-64722975D01*
X65043615Y-64573754D01*
X64919645Y-64449784D01*
X64770424Y-64357743D01*
X64770419Y-64357741D01*
X64603997Y-64302594D01*
X64603990Y-64302593D01*
X64501286Y-64292100D01*
X62651300Y-64292100D01*
X62651300Y-65092100D01*
X62151300Y-65092100D01*
X62151300Y-64292100D01*
X60301328Y-64292100D01*
X60301312Y-64292101D01*
X60198602Y-64302594D01*
X60032180Y-64357741D01*
X60032175Y-64357743D01*
X59882954Y-64449784D01*
X59758984Y-64573754D01*
X59666943Y-64722975D01*
X59666941Y-64722980D01*
X59611794Y-64889402D01*
X59611793Y-64889409D01*
X59601300Y-64992113D01*
X55029899Y-64992113D01*
X55029899Y-63996581D01*
X55049584Y-63929543D01*
X55066218Y-63908901D01*
X56352201Y-62622919D01*
X56413524Y-62589434D01*
X56439882Y-62586600D01*
X69454742Y-62586600D01*
X69474070Y-62582755D01*
X69551388Y-62567375D01*
X69648036Y-62548151D01*
X69701365Y-62526061D01*
X69830114Y-62472732D01*
X69993982Y-62363239D01*
X70133339Y-62223882D01*
X70133340Y-62223879D01*
X70140406Y-62216814D01*
X70140409Y-62216810D01*
X72293101Y-60064118D01*
X72354424Y-60030633D01*
X72380782Y-60027799D01*
X73693902Y-60027799D01*
X73693908Y-60027799D01*
X73796697Y-60017299D01*
X73963234Y-59962114D01*
X74112556Y-59870012D01*
X74236612Y-59745956D01*
X74328714Y-59596634D01*
X74383899Y-59430097D01*
X74388077Y-59389196D01*
X74414473Y-59324507D01*
X74471653Y-59284355D01*
X74511435Y-59277800D01*
X74974218Y-59277800D01*
X75041257Y-59297485D01*
X75061899Y-59314119D01*
X76649281Y-60901501D01*
X76682766Y-60962824D01*
X76685600Y-60989182D01*
X76685600Y-62915670D01*
X76665915Y-62982709D01*
X76613111Y-63028464D01*
X76543953Y-63038408D01*
X76480397Y-63009383D01*
X76473919Y-63003351D01*
X76469957Y-62999389D01*
X76469956Y-62999388D01*
X76320634Y-62907286D01*
X76154097Y-62852101D01*
X76154095Y-62852100D01*
X76051316Y-62841600D01*
X76051309Y-62841600D01*
X76051307Y-62841600D01*
X71201314Y-62841600D01*
X71201309Y-62841600D01*
X67051298Y-62841600D01*
X67051281Y-62841601D01*
X66948503Y-62852100D01*
X66948500Y-62852101D01*
X66781968Y-62907285D01*
X66781963Y-62907287D01*
X66632642Y-62999389D01*
X66508589Y-63123442D01*
X66416487Y-63272763D01*
X66416485Y-63272768D01*
X66376639Y-63393017D01*
X66361302Y-63439299D01*
X66361300Y-63439310D01*
X66350800Y-63542083D01*
X66350800Y-67617600D01*
X66331115Y-67684639D01*
X66278311Y-67730394D01*
X66226800Y-67741600D01*
X65281269Y-67741600D01*
X65214230Y-67721915D01*
X65168475Y-67669111D01*
X65158531Y-67599953D01*
X65163560Y-67578607D01*
X65191299Y-67494897D01*
X65201800Y-67392109D01*
X65201799Y-66692092D01*
X65191299Y-66589303D01*
X65136114Y-66422766D01*
X65044012Y-66273444D01*
X65044010Y-66273442D01*
X65040184Y-66268603D01*
X65014045Y-66203807D01*
X65027087Y-66135165D01*
X65040186Y-66114783D01*
X65043614Y-66110446D01*
X65135656Y-65961224D01*
X65135658Y-65961219D01*
X65190805Y-65794797D01*
X65190806Y-65794790D01*
X65201299Y-65692086D01*
X65201300Y-65692073D01*
X65201300Y-65592100D01*
X59601301Y-65592100D01*
X59601301Y-65692086D01*
X59611794Y-65794797D01*
X59666941Y-65961219D01*
X59666943Y-65961224D01*
X59758984Y-66110446D01*
X59762414Y-66114783D01*
X59788554Y-66179579D01*
X59775513Y-66248221D01*
X59762426Y-66268587D01*
X59758597Y-66273430D01*
X59666487Y-66422763D01*
X59666486Y-66422766D01*
X59611301Y-66589303D01*
X59611301Y-66589304D01*
X59611300Y-66589304D01*
X59600800Y-66692083D01*
X59600800Y-67392101D01*
X59600801Y-67392119D01*
X59611300Y-67494896D01*
X59611301Y-67494899D01*
X59639036Y-67578596D01*
X59641438Y-67648424D01*
X59605706Y-67708466D01*
X59543186Y-67739659D01*
X59521330Y-67741600D01*
X51636856Y-67741600D01*
X51443571Y-67780047D01*
X51443563Y-67780049D01*
X51403882Y-67796486D01*
X51403881Y-67796486D01*
X51261488Y-67855466D01*
X51142739Y-67934812D01*
X51142738Y-67934812D01*
X51097622Y-67964957D01*
X51097614Y-67964963D01*
X49817775Y-69244804D01*
X49391620Y-69670959D01*
X49391618Y-69670961D01*
X49321938Y-69740640D01*
X49252259Y-69810319D01*
X49142096Y-69975191D01*
X49088484Y-70019996D01*
X49038996Y-70030300D01*
X48981530Y-70030300D01*
X48981523Y-70030301D01*
X48921916Y-70036708D01*
X48787071Y-70087002D01*
X48787064Y-70087006D01*
X48671855Y-70173252D01*
X48671852Y-70173255D01*
X48585606Y-70288464D01*
X48585602Y-70288471D01*
X48535308Y-70423317D01*
X48533273Y-70442250D01*
X48528901Y-70482923D01*
X48528900Y-70482935D01*
X47647800Y-70482935D01*
X47647800Y-67878681D01*
X47667485Y-67811642D01*
X47684114Y-67791005D01*
X48907502Y-66567616D01*
X48968823Y-66534133D01*
X48995171Y-66531299D01*
X51077272Y-66531299D01*
X51136883Y-66524891D01*
X51271731Y-66474596D01*
X51386946Y-66388346D01*
X51473196Y-66273131D01*
X51523491Y-66138283D01*
X51529900Y-66078673D01*
X51529899Y-61982928D01*
X51523491Y-61923317D01*
X51473196Y-61788469D01*
X51473195Y-61788468D01*
X51473193Y-61788464D01*
X51386947Y-61673255D01*
X51386944Y-61673252D01*
X51271735Y-61587006D01*
X51271728Y-61587002D01*
X51136882Y-61536708D01*
X51136883Y-61536708D01*
X51077283Y-61530301D01*
X51077281Y-61530300D01*
X51077273Y-61530300D01*
X51077264Y-61530300D01*
X48981529Y-61530300D01*
X48981523Y-61530301D01*
X48921916Y-61536708D01*
X48787071Y-61587002D01*
X48787064Y-61587006D01*
X48671855Y-61673252D01*
X48671852Y-61673255D01*
X48585606Y-61788464D01*
X48585602Y-61788471D01*
X48535308Y-61923317D01*
X48528901Y-61982916D01*
X48528901Y-61982923D01*
X48528900Y-61982935D01*
X48528900Y-64065016D01*
X48509215Y-64132055D01*
X48492580Y-64152697D01*
X46009520Y-66635759D01*
X46009518Y-66635761D01*
X45953199Y-66692080D01*
X45870159Y-66775119D01*
X45760671Y-66938979D01*
X45760664Y-66938992D01*
X45685250Y-67121060D01*
X45685247Y-67121070D01*
X45646800Y-67314356D01*
X45646800Y-67314359D01*
X45646800Y-89335541D01*
X45646800Y-89335543D01*
X45646799Y-89335543D01*
X44772700Y-89335543D01*
X44772700Y-59327286D01*
X61593901Y-59327286D01*
X61604394Y-59429997D01*
X61659541Y-59596419D01*
X61659543Y-59596424D01*
X61751584Y-59745645D01*
X61875554Y-59869615D01*
X62024775Y-59961656D01*
X62024780Y-59961658D01*
X62191202Y-60016805D01*
X62191209Y-60016806D01*
X62293919Y-60027299D01*
X64043899Y-60027299D01*
X64543900Y-60027299D01*
X66293872Y-60027299D01*
X66293886Y-60027298D01*
X66396597Y-60016805D01*
X66563019Y-59961658D01*
X66563024Y-59961656D01*
X66712245Y-59869615D01*
X66836215Y-59745645D01*
X66928256Y-59596424D01*
X66928258Y-59596419D01*
X66983405Y-59429997D01*
X66983406Y-59429990D01*
X66993899Y-59327286D01*
X66993900Y-59327273D01*
X66993900Y-58527300D01*
X64543900Y-58527300D01*
X64543900Y-60027299D01*
X64043899Y-60027299D01*
X64043900Y-60027298D01*
X64043900Y-58527300D01*
X61593901Y-58527300D01*
X61593901Y-59327286D01*
X44772700Y-59327286D01*
X44772700Y-57227313D01*
X61593900Y-57227313D01*
X61593900Y-58027300D01*
X64043900Y-58027300D01*
X64543900Y-58027300D01*
X66993899Y-58027300D01*
X66993899Y-57227328D01*
X66993898Y-57227313D01*
X66983405Y-57124602D01*
X66928258Y-56958180D01*
X66928256Y-56958175D01*
X66836215Y-56808954D01*
X66712245Y-56684984D01*
X66563024Y-56592943D01*
X66563019Y-56592941D01*
X66396597Y-56537794D01*
X66396590Y-56537793D01*
X66293886Y-56527300D01*
X64543900Y-56527300D01*
X64543900Y-58027300D01*
X64043900Y-58027300D01*
X64043900Y-56527300D01*
X62293928Y-56527300D01*
X62293912Y-56527301D01*
X62191202Y-56537794D01*
X62024780Y-56592941D01*
X62024775Y-56592943D01*
X61875554Y-56684984D01*
X61751584Y-56808954D01*
X61659543Y-56958175D01*
X61659541Y-56958180D01*
X61604394Y-57124602D01*
X61604393Y-57124609D01*
X61593900Y-57227313D01*
X44772700Y-57227313D01*
X44772700Y-55633113D01*
X74033300Y-55633113D01*
X74033300Y-55770600D01*
X75008300Y-55770600D01*
X75008300Y-54933100D01*
X74733329Y-54933100D01*
X74733312Y-54933101D01*
X74630602Y-54943594D01*
X74464180Y-54998741D01*
X74464175Y-54998743D01*
X74314954Y-55090784D01*
X74190984Y-55214754D01*
X74098943Y-55363975D01*
X74098941Y-55363980D01*
X74043794Y-55530402D01*
X74043793Y-55530409D01*
X74033300Y-55633113D01*
X44772700Y-55633113D01*
X44772700Y-52992055D01*
X47635400Y-52992055D01*
X47635400Y-53639900D01*
X48552388Y-53639900D01*
X48519475Y-53696907D01*
X48485400Y-53824074D01*
X48485400Y-53955726D01*
X48519475Y-54082893D01*
X48552388Y-54139900D01*
X47635400Y-54139900D01*
X47635400Y-54787744D01*
X47641801Y-54847272D01*
X47641803Y-54847279D01*
X47692045Y-54981986D01*
X47692049Y-54981993D01*
X47778209Y-55097087D01*
X47778212Y-55097090D01*
X47893306Y-55183250D01*
X47893313Y-55183254D01*
X48028020Y-55233496D01*
X48028027Y-55233498D01*
X48087555Y-55239899D01*
X48087572Y-55239900D01*
X48735400Y-55239900D01*
X48735400Y-54322912D01*
X48792407Y-54355825D01*
X48919574Y-54389900D01*
X49051226Y-54389900D01*
X49178393Y-54355825D01*
X49235400Y-54322912D01*
X49235400Y-55239900D01*
X49883228Y-55239900D01*
X49883244Y-55239899D01*
X49942772Y-55233498D01*
X49942779Y-55233496D01*
X50077486Y-55183254D01*
X50077493Y-55183250D01*
X50192587Y-55097090D01*
X50192590Y-55097087D01*
X50278750Y-54981993D01*
X50278754Y-54981986D01*
X50328996Y-54847279D01*
X50328998Y-54847272D01*
X50335399Y-54787744D01*
X50335400Y-54787727D01*
X50335400Y-54139900D01*
X49418412Y-54139900D01*
X49451325Y-54082893D01*
X49485400Y-53955726D01*
X49485400Y-53824074D01*
X49451325Y-53696907D01*
X49418412Y-53639900D01*
X50335400Y-53639900D01*
X50335400Y-52992072D01*
X50335399Y-52992055D01*
X50328998Y-52932527D01*
X50328996Y-52932520D01*
X50278754Y-52797813D01*
X50278750Y-52797806D01*
X50192590Y-52682712D01*
X50192587Y-52682709D01*
X50077493Y-52596549D01*
X50077486Y-52596545D01*
X49942779Y-52546303D01*
X49942772Y-52546301D01*
X49883244Y-52539900D01*
X49235400Y-52539900D01*
X49235400Y-53456888D01*
X49178393Y-53423975D01*
X49051226Y-53389900D01*
X48919574Y-53389900D01*
X48792407Y-53423975D01*
X48735400Y-53456888D01*
X48735400Y-52539900D01*
X48087555Y-52539900D01*
X48028027Y-52546301D01*
X48028020Y-52546303D01*
X47893313Y-52596545D01*
X47893306Y-52596549D01*
X47778212Y-52682709D01*
X47778209Y-52682712D01*
X47692049Y-52797806D01*
X47692045Y-52797813D01*
X47641803Y-52932520D01*
X47641801Y-52932527D01*
X47635400Y-52992055D01*
X44772700Y-52992055D01*
X44772700Y-45537455D01*
X48623666Y-45537455D01*
X48623666Y-45537456D01*
X48643963Y-45924743D01*
X48704630Y-46307779D01*
X48704631Y-46307786D01*
X48805006Y-46682392D01*
X48943988Y-47044450D01*
X49120054Y-47389999D01*
X49331267Y-47715239D01*
X49331269Y-47715241D01*
X49539840Y-47972804D01*
X51034491Y-46478153D01*
X51108332Y-46579786D01*
X51286414Y-46757868D01*
X51388045Y-46831707D01*
X49893394Y-48326358D01*
X50150958Y-48534931D01*
X50150960Y-48534932D01*
X50476200Y-48746145D01*
X50821749Y-48922211D01*
X51183807Y-49061193D01*
X51558413Y-49161568D01*
X51558420Y-49161569D01*
X51941456Y-49222236D01*
X52328743Y-49242534D01*
X52328745Y-49242534D01*
X52716031Y-49222236D01*
X53099067Y-49161569D01*
X53099074Y-49161568D01*
X53473680Y-49061193D01*
X53835738Y-48922211D01*
X54181287Y-48746145D01*
X54506515Y-48534940D01*
X54506528Y-48534930D01*
X54764092Y-48326358D01*
X53269442Y-46831708D01*
X53371074Y-46757868D01*
X53549156Y-46579786D01*
X53622996Y-46478154D01*
X55117646Y-47972804D01*
X55326218Y-47715240D01*
X55326228Y-47715227D01*
X55537433Y-47389999D01*
X55713499Y-47044450D01*
X55773382Y-46888451D01*
X83464300Y-46888451D01*
X83464300Y-47059700D01*
X84660179Y-47059700D01*
X84641201Y-47105518D01*
X84614300Y-47240756D01*
X84614300Y-47378644D01*
X84641201Y-47513882D01*
X84660179Y-47559700D01*
X83464300Y-47559700D01*
X83464300Y-47730948D01*
X83464301Y-47730964D01*
X83495953Y-47971387D01*
X83558721Y-48205639D01*
X83651520Y-48429678D01*
X83651527Y-48429693D01*
X83772780Y-48639709D01*
X83920410Y-48832105D01*
X83920416Y-48832112D01*
X84091887Y-49003583D01*
X84091894Y-49003589D01*
X84284290Y-49151219D01*
X84494306Y-49272472D01*
X84494321Y-49272479D01*
X84718360Y-49365278D01*
X84952612Y-49428046D01*
X85064300Y-49442749D01*
X85064300Y-47963820D01*
X85110118Y-47982799D01*
X85245356Y-48009700D01*
X85383244Y-48009700D01*
X85518482Y-47982799D01*
X85564300Y-47963820D01*
X85564300Y-49442748D01*
X85675987Y-49428046D01*
X85910239Y-49365278D01*
X86134278Y-49272479D01*
X86134293Y-49272472D01*
X86344309Y-49151219D01*
X86536705Y-49003589D01*
X86536712Y-49003583D01*
X86708183Y-48832112D01*
X86708189Y-48832105D01*
X86855819Y-48639709D01*
X86977072Y-48429693D01*
X86977079Y-48429678D01*
X87069878Y-48205639D01*
X87132646Y-47971387D01*
X87164298Y-47730964D01*
X87164300Y-47730948D01*
X87164300Y-47559700D01*
X85968421Y-47559700D01*
X85987399Y-47513882D01*
X86014300Y-47378644D01*
X86014300Y-47240756D01*
X85987399Y-47105518D01*
X85968421Y-47059700D01*
X87164300Y-47059700D01*
X87164300Y-46888451D01*
X87164298Y-46888435D01*
X87132646Y-46648012D01*
X87069878Y-46413760D01*
X86977079Y-46189721D01*
X86977072Y-46189706D01*
X86855819Y-45979690D01*
X86763736Y-45859684D01*
X87663800Y-45859684D01*
X87663800Y-48759715D01*
X87674300Y-48862495D01*
X87674301Y-48862496D01*
X87729486Y-49029035D01*
X87729487Y-49029037D01*
X87821586Y-49178351D01*
X87821589Y-49178355D01*
X87945644Y-49302410D01*
X87945648Y-49302413D01*
X88094962Y-49394512D01*
X88094964Y-49394513D01*
X88094966Y-49394514D01*
X88261503Y-49449699D01*
X88364292Y-49460200D01*
X88364297Y-49460200D01*
X90664303Y-49460200D01*
X90664308Y-49460200D01*
X90767097Y-49449699D01*
X90933634Y-49394514D01*
X91082955Y-49302411D01*
X91207011Y-49178355D01*
X91299114Y-49029034D01*
X91354299Y-48862497D01*
X91364800Y-48759708D01*
X91364800Y-45859692D01*
X91354299Y-45756903D01*
X91299114Y-45590366D01*
X91281481Y-45561779D01*
X91207013Y-45441048D01*
X91207010Y-45441044D01*
X91201821Y-45435855D01*
X111361666Y-45435855D01*
X111361666Y-45435856D01*
X111381963Y-45823143D01*
X111442630Y-46206179D01*
X111442631Y-46206186D01*
X111543006Y-46580792D01*
X111681988Y-46942850D01*
X111858054Y-47288399D01*
X112069267Y-47613639D01*
X112069269Y-47613641D01*
X112277840Y-47871204D01*
X113772491Y-46376553D01*
X113846332Y-46478186D01*
X114024414Y-46656268D01*
X114126045Y-46730107D01*
X112631394Y-48224758D01*
X112888951Y-48433325D01*
X112888960Y-48433332D01*
X113214200Y-48644545D01*
X113559749Y-48820611D01*
X113921807Y-48959593D01*
X114296413Y-49059968D01*
X114296420Y-49059969D01*
X114679456Y-49120636D01*
X115066743Y-49140934D01*
X115066745Y-49140934D01*
X115454031Y-49120636D01*
X115837067Y-49059969D01*
X115837074Y-49059968D01*
X116211680Y-48959593D01*
X116573738Y-48820611D01*
X116919287Y-48644545D01*
X117244515Y-48433340D01*
X117244528Y-48433330D01*
X117502092Y-48224758D01*
X116007442Y-46730108D01*
X116109074Y-46656268D01*
X116287156Y-46478186D01*
X116360996Y-46376554D01*
X117855646Y-47871204D01*
X118064218Y-47613640D01*
X118064228Y-47613627D01*
X118275433Y-47288399D01*
X118451499Y-46942850D01*
X118590481Y-46580792D01*
X118690856Y-46206186D01*
X118690857Y-46206179D01*
X118751524Y-45823143D01*
X118771822Y-45435856D01*
X118771822Y-45435855D01*
X118751524Y-45048568D01*
X118690857Y-44665532D01*
X118690856Y-44665525D01*
X118590481Y-44290919D01*
X118451499Y-43928861D01*
X118275433Y-43583312D01*
X118064220Y-43258072D01*
X118064219Y-43258070D01*
X117855646Y-43000506D01*
X116360995Y-44495157D01*
X116287156Y-44393526D01*
X116109074Y-44215444D01*
X116007442Y-44141604D01*
X117502093Y-42646952D01*
X117244529Y-42438381D01*
X117244527Y-42438379D01*
X116919287Y-42227166D01*
X116573738Y-42051100D01*
X116211680Y-41912118D01*
X115938400Y-41838893D01*
X118927400Y-41838893D01*
X118927400Y-41838906D01*
X118946564Y-42070197D01*
X118946566Y-42070208D01*
X119003542Y-42295200D01*
X119096775Y-42507748D01*
X119223716Y-42702047D01*
X119223719Y-42702051D01*
X119223721Y-42702053D01*
X119380916Y-42872813D01*
X119380919Y-42872815D01*
X119380922Y-42872818D01*
X119564065Y-43015364D01*
X119564071Y-43015368D01*
X119564074Y-43015370D01*
X119768197Y-43125836D01*
X119882187Y-43164968D01*
X119987715Y-43201197D01*
X119987717Y-43201197D01*
X119987719Y-43201198D01*
X120216651Y-43239400D01*
X120216652Y-43239400D01*
X120448748Y-43239400D01*
X120448749Y-43239400D01*
X120677681Y-43201198D01*
X120897203Y-43125836D01*
X121101326Y-43015370D01*
X121120424Y-43000506D01*
X121211404Y-42929693D01*
X121284484Y-42872813D01*
X121441679Y-42702053D01*
X121568624Y-42507749D01*
X121661857Y-42295200D01*
X121718834Y-42070205D01*
X121718835Y-42070197D01*
X121738000Y-41838906D01*
X121738000Y-41838893D01*
X121718835Y-41607602D01*
X121718833Y-41607591D01*
X121661857Y-41382599D01*
X121568624Y-41170051D01*
X121441683Y-40975752D01*
X121441680Y-40975749D01*
X121441679Y-40975747D01*
X121284484Y-40804987D01*
X121284479Y-40804983D01*
X121284477Y-40804981D01*
X121101334Y-40662435D01*
X121101328Y-40662431D01*
X120897204Y-40551964D01*
X120897195Y-40551961D01*
X120677684Y-40476602D01*
X120505982Y-40447950D01*
X120448749Y-40438400D01*
X120216651Y-40438400D01*
X120170864Y-40446040D01*
X119987715Y-40476602D01*
X119768204Y-40551961D01*
X119768195Y-40551964D01*
X119564071Y-40662431D01*
X119564065Y-40662435D01*
X119380922Y-40804981D01*
X119380919Y-40804984D01*
X119223716Y-40975752D01*
X119096775Y-41170051D01*
X119003542Y-41382599D01*
X118946566Y-41607591D01*
X118946564Y-41607602D01*
X118927400Y-41838893D01*
X115938400Y-41838893D01*
X115837074Y-41811743D01*
X115837067Y-41811742D01*
X115454031Y-41751075D01*
X115066745Y-41730778D01*
X115066743Y-41730778D01*
X114679456Y-41751075D01*
X114296420Y-41811742D01*
X114296413Y-41811743D01*
X113921807Y-41912118D01*
X113559749Y-42051100D01*
X113214200Y-42227166D01*
X112888950Y-42438387D01*
X112631393Y-42646951D01*
X112631393Y-42646952D01*
X114126045Y-44141604D01*
X114024414Y-44215444D01*
X113846332Y-44393526D01*
X113772492Y-44495157D01*
X112277840Y-43000505D01*
X112277839Y-43000505D01*
X112069275Y-43258062D01*
X111858054Y-43583312D01*
X111681988Y-43928861D01*
X111543006Y-44290919D01*
X111442631Y-44665525D01*
X111442630Y-44665532D01*
X111381963Y-45048568D01*
X111361666Y-45435855D01*
X91201821Y-45435855D01*
X91082955Y-45316989D01*
X91082951Y-45316986D01*
X90933637Y-45224887D01*
X90933635Y-45224886D01*
X90832438Y-45191353D01*
X90767097Y-45169701D01*
X90767095Y-45169700D01*
X90664315Y-45159200D01*
X90664308Y-45159200D01*
X88364292Y-45159200D01*
X88364284Y-45159200D01*
X88261504Y-45169700D01*
X88261503Y-45169701D01*
X88094964Y-45224886D01*
X88094962Y-45224887D01*
X87945648Y-45316986D01*
X87945644Y-45316989D01*
X87821589Y-45441044D01*
X87821586Y-45441048D01*
X87729487Y-45590362D01*
X87729486Y-45590364D01*
X87674301Y-45756903D01*
X87674300Y-45756904D01*
X87663800Y-45859684D01*
X86763736Y-45859684D01*
X86708189Y-45787294D01*
X86708183Y-45787287D01*
X86536712Y-45615816D01*
X86536705Y-45615810D01*
X86344309Y-45468180D01*
X86134293Y-45346927D01*
X86134278Y-45346920D01*
X85910239Y-45254121D01*
X85675987Y-45191353D01*
X85564300Y-45176648D01*
X85564300Y-46655579D01*
X85518482Y-46636601D01*
X85383244Y-46609700D01*
X85245356Y-46609700D01*
X85110118Y-46636601D01*
X85064300Y-46655579D01*
X85064300Y-45176648D01*
X85064299Y-45176648D01*
X84952612Y-45191353D01*
X84718360Y-45254121D01*
X84494321Y-45346920D01*
X84494306Y-45346927D01*
X84284290Y-45468180D01*
X84091894Y-45615810D01*
X84091887Y-45615816D01*
X83920416Y-45787287D01*
X83920410Y-45787294D01*
X83772780Y-45979690D01*
X83651527Y-46189706D01*
X83651520Y-46189721D01*
X83558721Y-46413760D01*
X83495953Y-46648012D01*
X83464301Y-46888435D01*
X83464300Y-46888451D01*
X55773382Y-46888451D01*
X55852481Y-46682392D01*
X55952856Y-46307786D01*
X55952857Y-46307779D01*
X56013524Y-45924743D01*
X56033822Y-45537456D01*
X56033822Y-45537455D01*
X56013524Y-45150168D01*
X55952857Y-44767132D01*
X55952856Y-44767125D01*
X55852481Y-44392519D01*
X55713499Y-44030461D01*
X55537433Y-43684912D01*
X55326220Y-43359672D01*
X55326219Y-43359670D01*
X55117646Y-43102106D01*
X53622995Y-44596757D01*
X53549156Y-44495126D01*
X53371074Y-44317044D01*
X53269442Y-44243204D01*
X54764093Y-42748552D01*
X54506529Y-42539981D01*
X54506527Y-42539979D01*
X54181287Y-42328766D01*
X53835738Y-42152700D01*
X53473680Y-42013718D01*
X53099074Y-41913343D01*
X53099067Y-41913342D01*
X52716031Y-41852675D01*
X52328745Y-41832378D01*
X52328743Y-41832378D01*
X51941456Y-41852675D01*
X51558420Y-41913342D01*
X51558413Y-41913343D01*
X51183807Y-42013718D01*
X50821749Y-42152700D01*
X50476200Y-42328766D01*
X50150950Y-42539987D01*
X49893393Y-42748551D01*
X49893393Y-42748552D01*
X51388045Y-44243204D01*
X51286414Y-44317044D01*
X51108332Y-44495126D01*
X51034492Y-44596757D01*
X49539840Y-43102105D01*
X49539839Y-43102105D01*
X49331275Y-43359662D01*
X49120054Y-43684912D01*
X48943988Y-44030461D01*
X48805006Y-44392519D01*
X48704631Y-44767125D01*
X48704630Y-44767132D01*
X48643963Y-45150168D01*
X48623666Y-45537455D01*
X44772700Y-45537455D01*
X44772700Y-41388451D01*
X83464300Y-41388451D01*
X83464300Y-41559700D01*
X84660179Y-41559700D01*
X84641201Y-41605518D01*
X84614300Y-41740756D01*
X84614300Y-41878644D01*
X84641201Y-42013882D01*
X84660179Y-42059700D01*
X83464300Y-42059700D01*
X83464300Y-42230948D01*
X83464301Y-42230964D01*
X83495953Y-42471387D01*
X83558721Y-42705639D01*
X83651520Y-42929678D01*
X83651527Y-42929693D01*
X83772780Y-43139709D01*
X83920410Y-43332105D01*
X83920416Y-43332112D01*
X84091887Y-43503583D01*
X84091894Y-43503589D01*
X84284290Y-43651219D01*
X84494306Y-43772472D01*
X84494321Y-43772479D01*
X84718360Y-43865278D01*
X84952612Y-43928046D01*
X85064300Y-43942749D01*
X85064300Y-42463820D01*
X85110118Y-42482799D01*
X85245356Y-42509700D01*
X85383244Y-42509700D01*
X85518482Y-42482799D01*
X85564300Y-42463820D01*
X85564300Y-43942748D01*
X85675987Y-43928046D01*
X85910239Y-43865278D01*
X86134278Y-43772479D01*
X86134293Y-43772472D01*
X86344309Y-43651219D01*
X86536705Y-43503589D01*
X86536712Y-43503583D01*
X86708183Y-43332112D01*
X86708189Y-43332105D01*
X86855819Y-43139709D01*
X86977072Y-42929693D01*
X86977079Y-42929678D01*
X87069878Y-42705639D01*
X87132646Y-42471387D01*
X87164298Y-42230964D01*
X87164300Y-42230948D01*
X87164300Y-42059700D01*
X85968421Y-42059700D01*
X85987399Y-42013882D01*
X86014300Y-41878644D01*
X86014300Y-41740756D01*
X85987399Y-41605518D01*
X85968421Y-41559700D01*
X87164300Y-41559700D01*
X87164300Y-41388451D01*
X87164298Y-41388435D01*
X87164295Y-41388411D01*
X87663800Y-41388411D01*
X87663800Y-42230988D01*
X87695461Y-42471485D01*
X87758247Y-42705804D01*
X87827427Y-42872818D01*
X87851076Y-42929912D01*
X87972364Y-43139989D01*
X87972366Y-43139992D01*
X87972367Y-43139993D01*
X88120033Y-43332436D01*
X88120039Y-43332443D01*
X88291556Y-43503960D01*
X88291562Y-43503965D01*
X88484011Y-43651636D01*
X88694088Y-43772924D01*
X88918200Y-43865754D01*
X89152511Y-43928538D01*
X89332886Y-43952284D01*
X89393011Y-43960200D01*
X89393012Y-43960200D01*
X89635589Y-43960200D01*
X89683688Y-43953867D01*
X89876089Y-43928538D01*
X90110400Y-43865754D01*
X90334512Y-43772924D01*
X90544589Y-43651636D01*
X90737038Y-43503965D01*
X90908565Y-43332438D01*
X91056236Y-43139989D01*
X91177524Y-42929912D01*
X91270354Y-42705800D01*
X91333138Y-42471489D01*
X91364800Y-42230988D01*
X91364800Y-41388412D01*
X91333138Y-41147911D01*
X91270354Y-40913600D01*
X91177524Y-40689488D01*
X91056236Y-40479411D01*
X90908820Y-40287294D01*
X90908566Y-40286963D01*
X90908560Y-40286956D01*
X90737043Y-40115439D01*
X90737036Y-40115433D01*
X90544593Y-39967767D01*
X90544592Y-39967766D01*
X90544589Y-39967764D01*
X90334512Y-39846476D01*
X90334505Y-39846473D01*
X90110404Y-39753647D01*
X89876085Y-39690861D01*
X89635589Y-39659200D01*
X89635588Y-39659200D01*
X89393012Y-39659200D01*
X89393011Y-39659200D01*
X89152514Y-39690861D01*
X88918195Y-39753647D01*
X88694094Y-39846473D01*
X88694085Y-39846477D01*
X88484006Y-39967767D01*
X88291563Y-40115433D01*
X88291556Y-40115439D01*
X88120039Y-40286956D01*
X88120033Y-40286963D01*
X87972367Y-40479406D01*
X87851077Y-40689485D01*
X87851073Y-40689494D01*
X87758247Y-40913595D01*
X87695461Y-41147914D01*
X87663800Y-41388411D01*
X87164295Y-41388411D01*
X87132646Y-41148012D01*
X87069878Y-40913760D01*
X86977079Y-40689721D01*
X86977072Y-40689706D01*
X86855819Y-40479690D01*
X86708189Y-40287294D01*
X86708183Y-40287287D01*
X86536712Y-40115816D01*
X86536705Y-40115810D01*
X86344309Y-39968180D01*
X86134293Y-39846927D01*
X86134278Y-39846920D01*
X85910239Y-39754121D01*
X85675987Y-39691353D01*
X85564300Y-39676648D01*
X85564300Y-41155579D01*
X85518482Y-41136601D01*
X85383244Y-41109700D01*
X85245356Y-41109700D01*
X85110118Y-41136601D01*
X85064300Y-41155579D01*
X85064300Y-39676648D01*
X85064299Y-39676648D01*
X84952612Y-39691353D01*
X84718360Y-39754121D01*
X84494321Y-39846920D01*
X84494306Y-39846927D01*
X84284290Y-39968180D01*
X84091894Y-40115810D01*
X84091887Y-40115816D01*
X83920416Y-40287287D01*
X83920410Y-40287294D01*
X83772780Y-40479690D01*
X83651527Y-40689706D01*
X83651520Y-40689721D01*
X83558721Y-40913760D01*
X83495953Y-41148012D01*
X83464301Y-41388435D01*
X83464300Y-41388451D01*
X44772700Y-41388451D01*
X44772700Y-38394300D01*
X44792385Y-38327261D01*
X44845189Y-38281506D01*
X44896700Y-38270300D01*
X123647700Y-38270300D01*
X123714739Y-38289985D01*
G37*
%TD.AperFunction*%
%TD*%
M02*
