%TF.GenerationSoftware,KiCad,Pcbnew,8.0.9-8.0.9-0~ubuntu20.04.1*%
%TF.CreationDate,2025-11-03T12:08:38-03:00*%
%TF.ProjectId,Alimenta__o,416c696d-656e-4746-91e7-e36f2e6b6963,rev?*%
%TF.SameCoordinates,Original*%
%TF.FileFunction,Legend,Top*%
%TF.FilePolarity,Positive*%
%FSLAX46Y46*%
G04 Gerber Fmt 4.6, Leading zero omitted, Abs format (unit mm)*
G04 Created by KiCad (PCBNEW 8.0.9-8.0.9-0~ubuntu20.04.1) date 2025-11-03 12:08:38*
%MOMM*%
%LPD*%
G01*
G04 APERTURE LIST*
%ADD10C,0.150000*%
%ADD11C,0.100000*%
%ADD12C,0.120000*%
%ADD13C,0.000000*%
G04 APERTURE END LIST*
D10*
X120844680Y-58254516D02*
X120892300Y-58302135D01*
X120892300Y-58302135D02*
X120939919Y-58444992D01*
X120939919Y-58444992D02*
X120939919Y-58540230D01*
X120939919Y-58540230D02*
X120892300Y-58683087D01*
X120892300Y-58683087D02*
X120797061Y-58778325D01*
X120797061Y-58778325D02*
X120701823Y-58825944D01*
X120701823Y-58825944D02*
X120511347Y-58873563D01*
X120511347Y-58873563D02*
X120368490Y-58873563D01*
X120368490Y-58873563D02*
X120178014Y-58825944D01*
X120178014Y-58825944D02*
X120082776Y-58778325D01*
X120082776Y-58778325D02*
X119987538Y-58683087D01*
X119987538Y-58683087D02*
X119939919Y-58540230D01*
X119939919Y-58540230D02*
X119939919Y-58444992D01*
X119939919Y-58444992D02*
X119987538Y-58302135D01*
X119987538Y-58302135D02*
X120035157Y-58254516D01*
X120035157Y-57873563D02*
X119987538Y-57825944D01*
X119987538Y-57825944D02*
X119939919Y-57730706D01*
X119939919Y-57730706D02*
X119939919Y-57492611D01*
X119939919Y-57492611D02*
X119987538Y-57397373D01*
X119987538Y-57397373D02*
X120035157Y-57349754D01*
X120035157Y-57349754D02*
X120130395Y-57302135D01*
X120130395Y-57302135D02*
X120225633Y-57302135D01*
X120225633Y-57302135D02*
X120368490Y-57349754D01*
X120368490Y-57349754D02*
X120939919Y-57921182D01*
X120939919Y-57921182D02*
X120939919Y-57302135D01*
X62958080Y-75639757D02*
X63005700Y-75687376D01*
X63005700Y-75687376D02*
X63053319Y-75830233D01*
X63053319Y-75830233D02*
X63053319Y-75925471D01*
X63053319Y-75925471D02*
X63005700Y-76068328D01*
X63005700Y-76068328D02*
X62910461Y-76163566D01*
X62910461Y-76163566D02*
X62815223Y-76211185D01*
X62815223Y-76211185D02*
X62624747Y-76258804D01*
X62624747Y-76258804D02*
X62481890Y-76258804D01*
X62481890Y-76258804D02*
X62291414Y-76211185D01*
X62291414Y-76211185D02*
X62196176Y-76163566D01*
X62196176Y-76163566D02*
X62100938Y-76068328D01*
X62100938Y-76068328D02*
X62053319Y-75925471D01*
X62053319Y-75925471D02*
X62053319Y-75830233D01*
X62053319Y-75830233D02*
X62100938Y-75687376D01*
X62100938Y-75687376D02*
X62148557Y-75639757D01*
X63053319Y-74687376D02*
X63053319Y-75258804D01*
X63053319Y-74973090D02*
X62053319Y-74973090D01*
X62053319Y-74973090D02*
X62196176Y-75068328D01*
X62196176Y-75068328D02*
X62291414Y-75163566D01*
X62291414Y-75163566D02*
X62339033Y-75258804D01*
X62053319Y-73830233D02*
X62053319Y-74020709D01*
X62053319Y-74020709D02*
X62100938Y-74115947D01*
X62100938Y-74115947D02*
X62148557Y-74163566D01*
X62148557Y-74163566D02*
X62291414Y-74258804D01*
X62291414Y-74258804D02*
X62481890Y-74306423D01*
X62481890Y-74306423D02*
X62862842Y-74306423D01*
X62862842Y-74306423D02*
X62958080Y-74258804D01*
X62958080Y-74258804D02*
X63005700Y-74211185D01*
X63005700Y-74211185D02*
X63053319Y-74115947D01*
X63053319Y-74115947D02*
X63053319Y-73925471D01*
X63053319Y-73925471D02*
X63005700Y-73830233D01*
X63005700Y-73830233D02*
X62958080Y-73782614D01*
X62958080Y-73782614D02*
X62862842Y-73734995D01*
X62862842Y-73734995D02*
X62624747Y-73734995D01*
X62624747Y-73734995D02*
X62529509Y-73782614D01*
X62529509Y-73782614D02*
X62481890Y-73830233D01*
X62481890Y-73830233D02*
X62434271Y-73925471D01*
X62434271Y-73925471D02*
X62434271Y-74115947D01*
X62434271Y-74115947D02*
X62481890Y-74211185D01*
X62481890Y-74211185D02*
X62529509Y-74258804D01*
X62529509Y-74258804D02*
X62624747Y-74306423D01*
X82240505Y-90318519D02*
X82240505Y-89318519D01*
X82240505Y-89318519D02*
X82478600Y-89318519D01*
X82478600Y-89318519D02*
X82621457Y-89366138D01*
X82621457Y-89366138D02*
X82716695Y-89461376D01*
X82716695Y-89461376D02*
X82764314Y-89556614D01*
X82764314Y-89556614D02*
X82811933Y-89747090D01*
X82811933Y-89747090D02*
X82811933Y-89889947D01*
X82811933Y-89889947D02*
X82764314Y-90080423D01*
X82764314Y-90080423D02*
X82716695Y-90175661D01*
X82716695Y-90175661D02*
X82621457Y-90270900D01*
X82621457Y-90270900D02*
X82478600Y-90318519D01*
X82478600Y-90318519D02*
X82240505Y-90318519D01*
X83145267Y-89318519D02*
X83764314Y-89318519D01*
X83764314Y-89318519D02*
X83430981Y-89699471D01*
X83430981Y-89699471D02*
X83573838Y-89699471D01*
X83573838Y-89699471D02*
X83669076Y-89747090D01*
X83669076Y-89747090D02*
X83716695Y-89794709D01*
X83716695Y-89794709D02*
X83764314Y-89889947D01*
X83764314Y-89889947D02*
X83764314Y-90128042D01*
X83764314Y-90128042D02*
X83716695Y-90223280D01*
X83716695Y-90223280D02*
X83669076Y-90270900D01*
X83669076Y-90270900D02*
X83573838Y-90318519D01*
X83573838Y-90318519D02*
X83288124Y-90318519D01*
X83288124Y-90318519D02*
X83192886Y-90270900D01*
X83192886Y-90270900D02*
X83145267Y-90223280D01*
X120143119Y-65504554D02*
X120952642Y-65504554D01*
X120952642Y-65504554D02*
X121047880Y-65456935D01*
X121047880Y-65456935D02*
X121095500Y-65409316D01*
X121095500Y-65409316D02*
X121143119Y-65314078D01*
X121143119Y-65314078D02*
X121143119Y-65123602D01*
X121143119Y-65123602D02*
X121095500Y-65028364D01*
X121095500Y-65028364D02*
X121047880Y-64980745D01*
X121047880Y-64980745D02*
X120952642Y-64933126D01*
X120952642Y-64933126D02*
X120143119Y-64933126D01*
X120143119Y-64552173D02*
X120143119Y-63933126D01*
X120143119Y-63933126D02*
X120524071Y-64266459D01*
X120524071Y-64266459D02*
X120524071Y-64123602D01*
X120524071Y-64123602D02*
X120571690Y-64028364D01*
X120571690Y-64028364D02*
X120619309Y-63980745D01*
X120619309Y-63980745D02*
X120714547Y-63933126D01*
X120714547Y-63933126D02*
X120952642Y-63933126D01*
X120952642Y-63933126D02*
X121047880Y-63980745D01*
X121047880Y-63980745D02*
X121095500Y-64028364D01*
X121095500Y-64028364D02*
X121143119Y-64123602D01*
X121143119Y-64123602D02*
X121143119Y-64409316D01*
X121143119Y-64409316D02*
X121095500Y-64504554D01*
X121095500Y-64504554D02*
X121047880Y-64552173D01*
X57344680Y-77246366D02*
X57392300Y-77293985D01*
X57392300Y-77293985D02*
X57439919Y-77436842D01*
X57439919Y-77436842D02*
X57439919Y-77532080D01*
X57439919Y-77532080D02*
X57392300Y-77674937D01*
X57392300Y-77674937D02*
X57297061Y-77770175D01*
X57297061Y-77770175D02*
X57201823Y-77817794D01*
X57201823Y-77817794D02*
X57011347Y-77865413D01*
X57011347Y-77865413D02*
X56868490Y-77865413D01*
X56868490Y-77865413D02*
X56678014Y-77817794D01*
X56678014Y-77817794D02*
X56582776Y-77770175D01*
X56582776Y-77770175D02*
X56487538Y-77674937D01*
X56487538Y-77674937D02*
X56439919Y-77532080D01*
X56439919Y-77532080D02*
X56439919Y-77436842D01*
X56439919Y-77436842D02*
X56487538Y-77293985D01*
X56487538Y-77293985D02*
X56535157Y-77246366D01*
X56773252Y-76389223D02*
X57439919Y-76389223D01*
X56392300Y-76627318D02*
X57106585Y-76865413D01*
X57106585Y-76865413D02*
X57106585Y-76246366D01*
X52182119Y-85640994D02*
X51182119Y-85640994D01*
X51182119Y-85640994D02*
X51182119Y-85402899D01*
X51182119Y-85402899D02*
X51229738Y-85260042D01*
X51229738Y-85260042D02*
X51324976Y-85164804D01*
X51324976Y-85164804D02*
X51420214Y-85117185D01*
X51420214Y-85117185D02*
X51610690Y-85069566D01*
X51610690Y-85069566D02*
X51753547Y-85069566D01*
X51753547Y-85069566D02*
X51944023Y-85117185D01*
X51944023Y-85117185D02*
X52039261Y-85164804D01*
X52039261Y-85164804D02*
X52134500Y-85260042D01*
X52134500Y-85260042D02*
X52182119Y-85402899D01*
X52182119Y-85402899D02*
X52182119Y-85640994D01*
X52182119Y-84117185D02*
X52182119Y-84688613D01*
X52182119Y-84402899D02*
X51182119Y-84402899D01*
X51182119Y-84402899D02*
X51324976Y-84498137D01*
X51324976Y-84498137D02*
X51420214Y-84593375D01*
X51420214Y-84593375D02*
X51467833Y-84688613D01*
X83989280Y-75030157D02*
X84036900Y-75077776D01*
X84036900Y-75077776D02*
X84084519Y-75220633D01*
X84084519Y-75220633D02*
X84084519Y-75315871D01*
X84084519Y-75315871D02*
X84036900Y-75458728D01*
X84036900Y-75458728D02*
X83941661Y-75553966D01*
X83941661Y-75553966D02*
X83846423Y-75601585D01*
X83846423Y-75601585D02*
X83655947Y-75649204D01*
X83655947Y-75649204D02*
X83513090Y-75649204D01*
X83513090Y-75649204D02*
X83322614Y-75601585D01*
X83322614Y-75601585D02*
X83227376Y-75553966D01*
X83227376Y-75553966D02*
X83132138Y-75458728D01*
X83132138Y-75458728D02*
X83084519Y-75315871D01*
X83084519Y-75315871D02*
X83084519Y-75220633D01*
X83084519Y-75220633D02*
X83132138Y-75077776D01*
X83132138Y-75077776D02*
X83179757Y-75030157D01*
X84084519Y-74077776D02*
X84084519Y-74649204D01*
X84084519Y-74363490D02*
X83084519Y-74363490D01*
X83084519Y-74363490D02*
X83227376Y-74458728D01*
X83227376Y-74458728D02*
X83322614Y-74553966D01*
X83322614Y-74553966D02*
X83370233Y-74649204D01*
X84084519Y-73125395D02*
X84084519Y-73696823D01*
X84084519Y-73411109D02*
X83084519Y-73411109D01*
X83084519Y-73411109D02*
X83227376Y-73506347D01*
X83227376Y-73506347D02*
X83322614Y-73601585D01*
X83322614Y-73601585D02*
X83370233Y-73696823D01*
X104837205Y-90129469D02*
X104837205Y-89129469D01*
X104837205Y-89129469D02*
X105075300Y-89129469D01*
X105075300Y-89129469D02*
X105218157Y-89177088D01*
X105218157Y-89177088D02*
X105313395Y-89272326D01*
X105313395Y-89272326D02*
X105361014Y-89367564D01*
X105361014Y-89367564D02*
X105408633Y-89558040D01*
X105408633Y-89558040D02*
X105408633Y-89700897D01*
X105408633Y-89700897D02*
X105361014Y-89891373D01*
X105361014Y-89891373D02*
X105313395Y-89986611D01*
X105313395Y-89986611D02*
X105218157Y-90081850D01*
X105218157Y-90081850D02*
X105075300Y-90129469D01*
X105075300Y-90129469D02*
X104837205Y-90129469D01*
X105789586Y-89224707D02*
X105837205Y-89177088D01*
X105837205Y-89177088D02*
X105932443Y-89129469D01*
X105932443Y-89129469D02*
X106170538Y-89129469D01*
X106170538Y-89129469D02*
X106265776Y-89177088D01*
X106265776Y-89177088D02*
X106313395Y-89224707D01*
X106313395Y-89224707D02*
X106361014Y-89319945D01*
X106361014Y-89319945D02*
X106361014Y-89415183D01*
X106361014Y-89415183D02*
X106313395Y-89558040D01*
X106313395Y-89558040D02*
X105741967Y-90129469D01*
X105741967Y-90129469D02*
X106361014Y-90129469D01*
X78096480Y-85926757D02*
X78144100Y-85974376D01*
X78144100Y-85974376D02*
X78191719Y-86117233D01*
X78191719Y-86117233D02*
X78191719Y-86212471D01*
X78191719Y-86212471D02*
X78144100Y-86355328D01*
X78144100Y-86355328D02*
X78048861Y-86450566D01*
X78048861Y-86450566D02*
X77953623Y-86498185D01*
X77953623Y-86498185D02*
X77763147Y-86545804D01*
X77763147Y-86545804D02*
X77620290Y-86545804D01*
X77620290Y-86545804D02*
X77429814Y-86498185D01*
X77429814Y-86498185D02*
X77334576Y-86450566D01*
X77334576Y-86450566D02*
X77239338Y-86355328D01*
X77239338Y-86355328D02*
X77191719Y-86212471D01*
X77191719Y-86212471D02*
X77191719Y-86117233D01*
X77191719Y-86117233D02*
X77239338Y-85974376D01*
X77239338Y-85974376D02*
X77286957Y-85926757D01*
X78191719Y-84974376D02*
X78191719Y-85545804D01*
X78191719Y-85260090D02*
X77191719Y-85260090D01*
X77191719Y-85260090D02*
X77334576Y-85355328D01*
X77334576Y-85355328D02*
X77429814Y-85450566D01*
X77429814Y-85450566D02*
X77477433Y-85545804D01*
X77191719Y-84641042D02*
X77191719Y-83974376D01*
X77191719Y-83974376D02*
X78191719Y-84402947D01*
X102665433Y-88778069D02*
X102332100Y-88301878D01*
X102094005Y-88778069D02*
X102094005Y-87778069D01*
X102094005Y-87778069D02*
X102474957Y-87778069D01*
X102474957Y-87778069D02*
X102570195Y-87825688D01*
X102570195Y-87825688D02*
X102617814Y-87873307D01*
X102617814Y-87873307D02*
X102665433Y-87968545D01*
X102665433Y-87968545D02*
X102665433Y-88111402D01*
X102665433Y-88111402D02*
X102617814Y-88206640D01*
X102617814Y-88206640D02*
X102570195Y-88254259D01*
X102570195Y-88254259D02*
X102474957Y-88301878D01*
X102474957Y-88301878D02*
X102094005Y-88301878D01*
X103617814Y-88778069D02*
X103046386Y-88778069D01*
X103332100Y-88778069D02*
X103332100Y-87778069D01*
X103332100Y-87778069D02*
X103236862Y-87920926D01*
X103236862Y-87920926D02*
X103141624Y-88016164D01*
X103141624Y-88016164D02*
X103046386Y-88063783D01*
X90132195Y-50905919D02*
X90132195Y-51715442D01*
X90132195Y-51715442D02*
X90179814Y-51810680D01*
X90179814Y-51810680D02*
X90227433Y-51858300D01*
X90227433Y-51858300D02*
X90322671Y-51905919D01*
X90322671Y-51905919D02*
X90513147Y-51905919D01*
X90513147Y-51905919D02*
X90608385Y-51858300D01*
X90608385Y-51858300D02*
X90656004Y-51810680D01*
X90656004Y-51810680D02*
X90703623Y-51715442D01*
X90703623Y-51715442D02*
X90703623Y-50905919D01*
X91132195Y-51001157D02*
X91179814Y-50953538D01*
X91179814Y-50953538D02*
X91275052Y-50905919D01*
X91275052Y-50905919D02*
X91513147Y-50905919D01*
X91513147Y-50905919D02*
X91608385Y-50953538D01*
X91608385Y-50953538D02*
X91656004Y-51001157D01*
X91656004Y-51001157D02*
X91703623Y-51096395D01*
X91703623Y-51096395D02*
X91703623Y-51191633D01*
X91703623Y-51191633D02*
X91656004Y-51334490D01*
X91656004Y-51334490D02*
X91084576Y-51905919D01*
X91084576Y-51905919D02*
X91703623Y-51905919D01*
X99872080Y-96517252D02*
X99872080Y-96707728D01*
X99872080Y-96707728D02*
X99824461Y-96802966D01*
X99824461Y-96802966D02*
X99729223Y-96898204D01*
X99729223Y-96898204D02*
X99538747Y-96945823D01*
X99538747Y-96945823D02*
X99205414Y-96945823D01*
X99205414Y-96945823D02*
X99014938Y-96898204D01*
X99014938Y-96898204D02*
X98919700Y-96802966D01*
X98919700Y-96802966D02*
X98872080Y-96707728D01*
X98872080Y-96707728D02*
X98872080Y-96517252D01*
X98872080Y-96517252D02*
X98919700Y-96422014D01*
X98919700Y-96422014D02*
X99014938Y-96326776D01*
X99014938Y-96326776D02*
X99205414Y-96279157D01*
X99205414Y-96279157D02*
X99538747Y-96279157D01*
X99538747Y-96279157D02*
X99729223Y-96326776D01*
X99729223Y-96326776D02*
X99824461Y-96422014D01*
X99824461Y-96422014D02*
X99872080Y-96517252D01*
X99872080Y-97374395D02*
X99062557Y-97374395D01*
X99062557Y-97374395D02*
X98967319Y-97422014D01*
X98967319Y-97422014D02*
X98919700Y-97469633D01*
X98919700Y-97469633D02*
X98872080Y-97564871D01*
X98872080Y-97564871D02*
X98872080Y-97755347D01*
X98872080Y-97755347D02*
X98919700Y-97850585D01*
X98919700Y-97850585D02*
X98967319Y-97898204D01*
X98967319Y-97898204D02*
X99062557Y-97945823D01*
X99062557Y-97945823D02*
X99872080Y-97945823D01*
X99872080Y-98279157D02*
X99872080Y-98850585D01*
X98872080Y-98564871D02*
X99872080Y-98564871D01*
X99253033Y-99183919D02*
X99253033Y-99945824D01*
X98872080Y-99564871D02*
X99633985Y-99564871D01*
X99329280Y-49724043D02*
X100329280Y-49724043D01*
X99329280Y-50200233D02*
X100329280Y-50200233D01*
X100329280Y-50200233D02*
X99329280Y-50771661D01*
X99329280Y-50771661D02*
X100329280Y-50771661D01*
X99710233Y-51247852D02*
X99710233Y-52009757D01*
X99329280Y-51628804D02*
X100091185Y-51628804D01*
X80584080Y-49749443D02*
X81584080Y-49749443D01*
X80584080Y-50225633D02*
X81584080Y-50225633D01*
X81584080Y-50225633D02*
X80584080Y-50797061D01*
X80584080Y-50797061D02*
X81584080Y-50797061D01*
X80965033Y-51273252D02*
X80965033Y-52035157D01*
X82422280Y-96415652D02*
X82422280Y-96606128D01*
X82422280Y-96606128D02*
X82374661Y-96701366D01*
X82374661Y-96701366D02*
X82279423Y-96796604D01*
X82279423Y-96796604D02*
X82088947Y-96844223D01*
X82088947Y-96844223D02*
X81755614Y-96844223D01*
X81755614Y-96844223D02*
X81565138Y-96796604D01*
X81565138Y-96796604D02*
X81469900Y-96701366D01*
X81469900Y-96701366D02*
X81422280Y-96606128D01*
X81422280Y-96606128D02*
X81422280Y-96415652D01*
X81422280Y-96415652D02*
X81469900Y-96320414D01*
X81469900Y-96320414D02*
X81565138Y-96225176D01*
X81565138Y-96225176D02*
X81755614Y-96177557D01*
X81755614Y-96177557D02*
X82088947Y-96177557D01*
X82088947Y-96177557D02*
X82279423Y-96225176D01*
X82279423Y-96225176D02*
X82374661Y-96320414D01*
X82374661Y-96320414D02*
X82422280Y-96415652D01*
X82422280Y-97272795D02*
X81612757Y-97272795D01*
X81612757Y-97272795D02*
X81517519Y-97320414D01*
X81517519Y-97320414D02*
X81469900Y-97368033D01*
X81469900Y-97368033D02*
X81422280Y-97463271D01*
X81422280Y-97463271D02*
X81422280Y-97653747D01*
X81422280Y-97653747D02*
X81469900Y-97748985D01*
X81469900Y-97748985D02*
X81517519Y-97796604D01*
X81517519Y-97796604D02*
X81612757Y-97844223D01*
X81612757Y-97844223D02*
X82422280Y-97844223D01*
X82422280Y-98177557D02*
X82422280Y-98748985D01*
X81422280Y-98463271D02*
X82422280Y-98463271D01*
X81803233Y-99082319D02*
X81803233Y-99844224D01*
X104165495Y-100928219D02*
X104165495Y-99928219D01*
X104165495Y-100404409D02*
X104736923Y-100404409D01*
X104736923Y-100928219D02*
X104736923Y-99928219D01*
X105641685Y-100261552D02*
X105641685Y-100928219D01*
X105403590Y-99880600D02*
X105165495Y-100594885D01*
X105165495Y-100594885D02*
X105784542Y-100594885D01*
D11*
X50890180Y-75440233D02*
X50890180Y-74964043D01*
X50890180Y-74964043D02*
X51890180Y-74964043D01*
X51794942Y-75725948D02*
X51842561Y-75773567D01*
X51842561Y-75773567D02*
X51890180Y-75868805D01*
X51890180Y-75868805D02*
X51890180Y-76106900D01*
X51890180Y-76106900D02*
X51842561Y-76202138D01*
X51842561Y-76202138D02*
X51794942Y-76249757D01*
X51794942Y-76249757D02*
X51699704Y-76297376D01*
X51699704Y-76297376D02*
X51604466Y-76297376D01*
X51604466Y-76297376D02*
X51461609Y-76249757D01*
X51461609Y-76249757D02*
X50890180Y-75678329D01*
X50890180Y-75678329D02*
X50890180Y-76297376D01*
X120621680Y-75324383D02*
X120621680Y-74848193D01*
X120621680Y-74848193D02*
X121621680Y-74848193D01*
X120621680Y-76181526D02*
X120621680Y-75610098D01*
X120621680Y-75895812D02*
X121621680Y-75895812D01*
X121621680Y-75895812D02*
X121478823Y-75800574D01*
X121478823Y-75800574D02*
X121383585Y-75705336D01*
X121383585Y-75705336D02*
X121335966Y-75610098D01*
D10*
X58844580Y-95102966D02*
X58892200Y-95150585D01*
X58892200Y-95150585D02*
X58939819Y-95293442D01*
X58939819Y-95293442D02*
X58939819Y-95388680D01*
X58939819Y-95388680D02*
X58892200Y-95531537D01*
X58892200Y-95531537D02*
X58796961Y-95626775D01*
X58796961Y-95626775D02*
X58701723Y-95674394D01*
X58701723Y-95674394D02*
X58511247Y-95722013D01*
X58511247Y-95722013D02*
X58368390Y-95722013D01*
X58368390Y-95722013D02*
X58177914Y-95674394D01*
X58177914Y-95674394D02*
X58082676Y-95626775D01*
X58082676Y-95626775D02*
X57987438Y-95531537D01*
X57987438Y-95531537D02*
X57939819Y-95388680D01*
X57939819Y-95388680D02*
X57939819Y-95293442D01*
X57939819Y-95293442D02*
X57987438Y-95150585D01*
X57987438Y-95150585D02*
X58035057Y-95102966D01*
X57939819Y-94769632D02*
X57939819Y-94102966D01*
X57939819Y-94102966D02*
X58939819Y-94531537D01*
X92761919Y-44291433D02*
X93476204Y-44291433D01*
X93476204Y-44291433D02*
X93619061Y-44339052D01*
X93619061Y-44339052D02*
X93714300Y-44434290D01*
X93714300Y-44434290D02*
X93761919Y-44577147D01*
X93761919Y-44577147D02*
X93761919Y-44672385D01*
X93761919Y-43291433D02*
X93761919Y-43862861D01*
X93761919Y-43577147D02*
X92761919Y-43577147D01*
X92761919Y-43577147D02*
X92904776Y-43672385D01*
X92904776Y-43672385D02*
X93000014Y-43767623D01*
X93000014Y-43767623D02*
X93047633Y-43862861D01*
X73575280Y-55929357D02*
X73622900Y-55976976D01*
X73622900Y-55976976D02*
X73670519Y-56119833D01*
X73670519Y-56119833D02*
X73670519Y-56215071D01*
X73670519Y-56215071D02*
X73622900Y-56357928D01*
X73622900Y-56357928D02*
X73527661Y-56453166D01*
X73527661Y-56453166D02*
X73432423Y-56500785D01*
X73432423Y-56500785D02*
X73241947Y-56548404D01*
X73241947Y-56548404D02*
X73099090Y-56548404D01*
X73099090Y-56548404D02*
X72908614Y-56500785D01*
X72908614Y-56500785D02*
X72813376Y-56453166D01*
X72813376Y-56453166D02*
X72718138Y-56357928D01*
X72718138Y-56357928D02*
X72670519Y-56215071D01*
X72670519Y-56215071D02*
X72670519Y-56119833D01*
X72670519Y-56119833D02*
X72718138Y-55976976D01*
X72718138Y-55976976D02*
X72765757Y-55929357D01*
X73670519Y-54976976D02*
X73670519Y-55548404D01*
X73670519Y-55262690D02*
X72670519Y-55262690D01*
X72670519Y-55262690D02*
X72813376Y-55357928D01*
X72813376Y-55357928D02*
X72908614Y-55453166D01*
X72908614Y-55453166D02*
X72956233Y-55548404D01*
X73003852Y-54119833D02*
X73670519Y-54119833D01*
X72622900Y-54357928D02*
X73337185Y-54596023D01*
X73337185Y-54596023D02*
X73337185Y-53976976D01*
X114304839Y-41690675D02*
X114304839Y-40690675D01*
X114304839Y-41166865D02*
X114876267Y-41166865D01*
X114876267Y-41690675D02*
X114876267Y-40690675D01*
X115304839Y-40785913D02*
X115352458Y-40738294D01*
X115352458Y-40738294D02*
X115447696Y-40690675D01*
X115447696Y-40690675D02*
X115685791Y-40690675D01*
X115685791Y-40690675D02*
X115781029Y-40738294D01*
X115781029Y-40738294D02*
X115828648Y-40785913D01*
X115828648Y-40785913D02*
X115876267Y-40881151D01*
X115876267Y-40881151D02*
X115876267Y-40976389D01*
X115876267Y-40976389D02*
X115828648Y-41119246D01*
X115828648Y-41119246D02*
X115257220Y-41690675D01*
X115257220Y-41690675D02*
X115876267Y-41690675D01*
X79992533Y-78823119D02*
X79659200Y-78346928D01*
X79421105Y-78823119D02*
X79421105Y-77823119D01*
X79421105Y-77823119D02*
X79802057Y-77823119D01*
X79802057Y-77823119D02*
X79897295Y-77870738D01*
X79897295Y-77870738D02*
X79944914Y-77918357D01*
X79944914Y-77918357D02*
X79992533Y-78013595D01*
X79992533Y-78013595D02*
X79992533Y-78156452D01*
X79992533Y-78156452D02*
X79944914Y-78251690D01*
X79944914Y-78251690D02*
X79897295Y-78299309D01*
X79897295Y-78299309D02*
X79802057Y-78346928D01*
X79802057Y-78346928D02*
X79421105Y-78346928D01*
X80849676Y-77823119D02*
X80659200Y-77823119D01*
X80659200Y-77823119D02*
X80563962Y-77870738D01*
X80563962Y-77870738D02*
X80516343Y-77918357D01*
X80516343Y-77918357D02*
X80421105Y-78061214D01*
X80421105Y-78061214D02*
X80373486Y-78251690D01*
X80373486Y-78251690D02*
X80373486Y-78632642D01*
X80373486Y-78632642D02*
X80421105Y-78727880D01*
X80421105Y-78727880D02*
X80468724Y-78775500D01*
X80468724Y-78775500D02*
X80563962Y-78823119D01*
X80563962Y-78823119D02*
X80754438Y-78823119D01*
X80754438Y-78823119D02*
X80849676Y-78775500D01*
X80849676Y-78775500D02*
X80897295Y-78727880D01*
X80897295Y-78727880D02*
X80944914Y-78632642D01*
X80944914Y-78632642D02*
X80944914Y-78394547D01*
X80944914Y-78394547D02*
X80897295Y-78299309D01*
X80897295Y-78299309D02*
X80849676Y-78251690D01*
X80849676Y-78251690D02*
X80754438Y-78204071D01*
X80754438Y-78204071D02*
X80563962Y-78204071D01*
X80563962Y-78204071D02*
X80468724Y-78251690D01*
X80468724Y-78251690D02*
X80421105Y-78299309D01*
X80421105Y-78299309D02*
X80373486Y-78394547D01*
D11*
X77020480Y-76174233D02*
X77020480Y-75698043D01*
X77020480Y-75698043D02*
X78020480Y-75698043D01*
X77687147Y-76936138D02*
X77020480Y-76936138D01*
X78068100Y-76698043D02*
X77353814Y-76459948D01*
X77353814Y-76459948D02*
X77353814Y-77078995D01*
D10*
X75399695Y-101106019D02*
X75399695Y-100106019D01*
X75399695Y-100582209D02*
X75971123Y-100582209D01*
X75971123Y-101106019D02*
X75971123Y-100106019D01*
X76352076Y-100106019D02*
X76971123Y-100106019D01*
X76971123Y-100106019D02*
X76637790Y-100486971D01*
X76637790Y-100486971D02*
X76780647Y-100486971D01*
X76780647Y-100486971D02*
X76875885Y-100534590D01*
X76875885Y-100534590D02*
X76923504Y-100582209D01*
X76923504Y-100582209D02*
X76971123Y-100677447D01*
X76971123Y-100677447D02*
X76971123Y-100915542D01*
X76971123Y-100915542D02*
X76923504Y-101010780D01*
X76923504Y-101010780D02*
X76875885Y-101058400D01*
X76875885Y-101058400D02*
X76780647Y-101106019D01*
X76780647Y-101106019D02*
X76494933Y-101106019D01*
X76494933Y-101106019D02*
X76399695Y-101058400D01*
X76399695Y-101058400D02*
X76352076Y-101010780D01*
X76089880Y-89736757D02*
X76137500Y-89784376D01*
X76137500Y-89784376D02*
X76185119Y-89927233D01*
X76185119Y-89927233D02*
X76185119Y-90022471D01*
X76185119Y-90022471D02*
X76137500Y-90165328D01*
X76137500Y-90165328D02*
X76042261Y-90260566D01*
X76042261Y-90260566D02*
X75947023Y-90308185D01*
X75947023Y-90308185D02*
X75756547Y-90355804D01*
X75756547Y-90355804D02*
X75613690Y-90355804D01*
X75613690Y-90355804D02*
X75423214Y-90308185D01*
X75423214Y-90308185D02*
X75327976Y-90260566D01*
X75327976Y-90260566D02*
X75232738Y-90165328D01*
X75232738Y-90165328D02*
X75185119Y-90022471D01*
X75185119Y-90022471D02*
X75185119Y-89927233D01*
X75185119Y-89927233D02*
X75232738Y-89784376D01*
X75232738Y-89784376D02*
X75280357Y-89736757D01*
X76185119Y-88784376D02*
X76185119Y-89355804D01*
X76185119Y-89070090D02*
X75185119Y-89070090D01*
X75185119Y-89070090D02*
X75327976Y-89165328D01*
X75327976Y-89165328D02*
X75423214Y-89260566D01*
X75423214Y-89260566D02*
X75470833Y-89355804D01*
X75613690Y-88212947D02*
X75566071Y-88308185D01*
X75566071Y-88308185D02*
X75518452Y-88355804D01*
X75518452Y-88355804D02*
X75423214Y-88403423D01*
X75423214Y-88403423D02*
X75375595Y-88403423D01*
X75375595Y-88403423D02*
X75280357Y-88355804D01*
X75280357Y-88355804D02*
X75232738Y-88308185D01*
X75232738Y-88308185D02*
X75185119Y-88212947D01*
X75185119Y-88212947D02*
X75185119Y-88022471D01*
X75185119Y-88022471D02*
X75232738Y-87927233D01*
X75232738Y-87927233D02*
X75280357Y-87879614D01*
X75280357Y-87879614D02*
X75375595Y-87831995D01*
X75375595Y-87831995D02*
X75423214Y-87831995D01*
X75423214Y-87831995D02*
X75518452Y-87879614D01*
X75518452Y-87879614D02*
X75566071Y-87927233D01*
X75566071Y-87927233D02*
X75613690Y-88022471D01*
X75613690Y-88022471D02*
X75613690Y-88212947D01*
X75613690Y-88212947D02*
X75661309Y-88308185D01*
X75661309Y-88308185D02*
X75708928Y-88355804D01*
X75708928Y-88355804D02*
X75804166Y-88403423D01*
X75804166Y-88403423D02*
X75994642Y-88403423D01*
X75994642Y-88403423D02*
X76089880Y-88355804D01*
X76089880Y-88355804D02*
X76137500Y-88308185D01*
X76137500Y-88308185D02*
X76185119Y-88212947D01*
X76185119Y-88212947D02*
X76185119Y-88022471D01*
X76185119Y-88022471D02*
X76137500Y-87927233D01*
X76137500Y-87927233D02*
X76089880Y-87879614D01*
X76089880Y-87879614D02*
X75994642Y-87831995D01*
X75994642Y-87831995D02*
X75804166Y-87831995D01*
X75804166Y-87831995D02*
X75708928Y-87879614D01*
X75708928Y-87879614D02*
X75661309Y-87927233D01*
X75661309Y-87927233D02*
X75613690Y-88022471D01*
X111070295Y-50824569D02*
X111070295Y-51634092D01*
X111070295Y-51634092D02*
X111117914Y-51729330D01*
X111117914Y-51729330D02*
X111165533Y-51776950D01*
X111165533Y-51776950D02*
X111260771Y-51824569D01*
X111260771Y-51824569D02*
X111451247Y-51824569D01*
X111451247Y-51824569D02*
X111546485Y-51776950D01*
X111546485Y-51776950D02*
X111594104Y-51729330D01*
X111594104Y-51729330D02*
X111641723Y-51634092D01*
X111641723Y-51634092D02*
X111641723Y-50824569D01*
X112641723Y-51824569D02*
X112070295Y-51824569D01*
X112356009Y-51824569D02*
X112356009Y-50824569D01*
X112356009Y-50824569D02*
X112260771Y-50967426D01*
X112260771Y-50967426D02*
X112165533Y-51062664D01*
X112165533Y-51062664D02*
X112070295Y-51110283D01*
X80068733Y-88967119D02*
X79735400Y-88490928D01*
X79497305Y-88967119D02*
X79497305Y-87967119D01*
X79497305Y-87967119D02*
X79878257Y-87967119D01*
X79878257Y-87967119D02*
X79973495Y-88014738D01*
X79973495Y-88014738D02*
X80021114Y-88062357D01*
X80021114Y-88062357D02*
X80068733Y-88157595D01*
X80068733Y-88157595D02*
X80068733Y-88300452D01*
X80068733Y-88300452D02*
X80021114Y-88395690D01*
X80021114Y-88395690D02*
X79973495Y-88443309D01*
X79973495Y-88443309D02*
X79878257Y-88490928D01*
X79878257Y-88490928D02*
X79497305Y-88490928D01*
X80925876Y-88300452D02*
X80925876Y-88967119D01*
X80687781Y-87919500D02*
X80449686Y-88633785D01*
X80449686Y-88633785D02*
X81068733Y-88633785D01*
X58988033Y-79483919D02*
X58654700Y-79007728D01*
X58416605Y-79483919D02*
X58416605Y-78483919D01*
X58416605Y-78483919D02*
X58797557Y-78483919D01*
X58797557Y-78483919D02*
X58892795Y-78531538D01*
X58892795Y-78531538D02*
X58940414Y-78579157D01*
X58940414Y-78579157D02*
X58988033Y-78674395D01*
X58988033Y-78674395D02*
X58988033Y-78817252D01*
X58988033Y-78817252D02*
X58940414Y-78912490D01*
X58940414Y-78912490D02*
X58892795Y-78960109D01*
X58892795Y-78960109D02*
X58797557Y-79007728D01*
X58797557Y-79007728D02*
X58416605Y-79007728D01*
X59464224Y-79483919D02*
X59654700Y-79483919D01*
X59654700Y-79483919D02*
X59749938Y-79436300D01*
X59749938Y-79436300D02*
X59797557Y-79388680D01*
X59797557Y-79388680D02*
X59892795Y-79245823D01*
X59892795Y-79245823D02*
X59940414Y-79055347D01*
X59940414Y-79055347D02*
X59940414Y-78674395D01*
X59940414Y-78674395D02*
X59892795Y-78579157D01*
X59892795Y-78579157D02*
X59845176Y-78531538D01*
X59845176Y-78531538D02*
X59749938Y-78483919D01*
X59749938Y-78483919D02*
X59559462Y-78483919D01*
X59559462Y-78483919D02*
X59464224Y-78531538D01*
X59464224Y-78531538D02*
X59416605Y-78579157D01*
X59416605Y-78579157D02*
X59368986Y-78674395D01*
X59368986Y-78674395D02*
X59368986Y-78912490D01*
X59368986Y-78912490D02*
X59416605Y-79007728D01*
X59416605Y-79007728D02*
X59464224Y-79055347D01*
X59464224Y-79055347D02*
X59559462Y-79102966D01*
X59559462Y-79102966D02*
X59749938Y-79102966D01*
X59749938Y-79102966D02*
X59845176Y-79055347D01*
X59845176Y-79055347D02*
X59892795Y-79007728D01*
X59892795Y-79007728D02*
X59940414Y-78912490D01*
X106646080Y-74764516D02*
X106693700Y-74812135D01*
X106693700Y-74812135D02*
X106741319Y-74954992D01*
X106741319Y-74954992D02*
X106741319Y-75050230D01*
X106741319Y-75050230D02*
X106693700Y-75193087D01*
X106693700Y-75193087D02*
X106598461Y-75288325D01*
X106598461Y-75288325D02*
X106503223Y-75335944D01*
X106503223Y-75335944D02*
X106312747Y-75383563D01*
X106312747Y-75383563D02*
X106169890Y-75383563D01*
X106169890Y-75383563D02*
X105979414Y-75335944D01*
X105979414Y-75335944D02*
X105884176Y-75288325D01*
X105884176Y-75288325D02*
X105788938Y-75193087D01*
X105788938Y-75193087D02*
X105741319Y-75050230D01*
X105741319Y-75050230D02*
X105741319Y-74954992D01*
X105741319Y-74954992D02*
X105788938Y-74812135D01*
X105788938Y-74812135D02*
X105836557Y-74764516D01*
X105741319Y-74431182D02*
X105741319Y-73812135D01*
X105741319Y-73812135D02*
X106122271Y-74145468D01*
X106122271Y-74145468D02*
X106122271Y-74002611D01*
X106122271Y-74002611D02*
X106169890Y-73907373D01*
X106169890Y-73907373D02*
X106217509Y-73859754D01*
X106217509Y-73859754D02*
X106312747Y-73812135D01*
X106312747Y-73812135D02*
X106550842Y-73812135D01*
X106550842Y-73812135D02*
X106646080Y-73859754D01*
X106646080Y-73859754D02*
X106693700Y-73907373D01*
X106693700Y-73907373D02*
X106741319Y-74002611D01*
X106741319Y-74002611D02*
X106741319Y-74288325D01*
X106741319Y-74288325D02*
X106693700Y-74383563D01*
X106693700Y-74383563D02*
X106646080Y-74431182D01*
X76541919Y-66354404D02*
X77351442Y-66354404D01*
X77351442Y-66354404D02*
X77446680Y-66306785D01*
X77446680Y-66306785D02*
X77494300Y-66259166D01*
X77494300Y-66259166D02*
X77541919Y-66163928D01*
X77541919Y-66163928D02*
X77541919Y-65973452D01*
X77541919Y-65973452D02*
X77494300Y-65878214D01*
X77494300Y-65878214D02*
X77446680Y-65830595D01*
X77446680Y-65830595D02*
X77351442Y-65782976D01*
X77351442Y-65782976D02*
X76541919Y-65782976D01*
X76541919Y-64830595D02*
X76541919Y-65306785D01*
X76541919Y-65306785D02*
X77018109Y-65354404D01*
X77018109Y-65354404D02*
X76970490Y-65306785D01*
X76970490Y-65306785D02*
X76922871Y-65211547D01*
X76922871Y-65211547D02*
X76922871Y-64973452D01*
X76922871Y-64973452D02*
X76970490Y-64878214D01*
X76970490Y-64878214D02*
X77018109Y-64830595D01*
X77018109Y-64830595D02*
X77113347Y-64782976D01*
X77113347Y-64782976D02*
X77351442Y-64782976D01*
X77351442Y-64782976D02*
X77446680Y-64830595D01*
X77446680Y-64830595D02*
X77494300Y-64878214D01*
X77494300Y-64878214D02*
X77541919Y-64973452D01*
X77541919Y-64973452D02*
X77541919Y-65211547D01*
X77541919Y-65211547D02*
X77494300Y-65306785D01*
X77494300Y-65306785D02*
X77446680Y-65354404D01*
X79963533Y-83877719D02*
X79630200Y-83401528D01*
X79392105Y-83877719D02*
X79392105Y-82877719D01*
X79392105Y-82877719D02*
X79773057Y-82877719D01*
X79773057Y-82877719D02*
X79868295Y-82925338D01*
X79868295Y-82925338D02*
X79915914Y-82972957D01*
X79915914Y-82972957D02*
X79963533Y-83068195D01*
X79963533Y-83068195D02*
X79963533Y-83211052D01*
X79963533Y-83211052D02*
X79915914Y-83306290D01*
X79915914Y-83306290D02*
X79868295Y-83353909D01*
X79868295Y-83353909D02*
X79773057Y-83401528D01*
X79773057Y-83401528D02*
X79392105Y-83401528D01*
X80868295Y-82877719D02*
X80392105Y-82877719D01*
X80392105Y-82877719D02*
X80344486Y-83353909D01*
X80344486Y-83353909D02*
X80392105Y-83306290D01*
X80392105Y-83306290D02*
X80487343Y-83258671D01*
X80487343Y-83258671D02*
X80725438Y-83258671D01*
X80725438Y-83258671D02*
X80820676Y-83306290D01*
X80820676Y-83306290D02*
X80868295Y-83353909D01*
X80868295Y-83353909D02*
X80915914Y-83449147D01*
X80915914Y-83449147D02*
X80915914Y-83687242D01*
X80915914Y-83687242D02*
X80868295Y-83782480D01*
X80868295Y-83782480D02*
X80820676Y-83830100D01*
X80820676Y-83830100D02*
X80725438Y-83877719D01*
X80725438Y-83877719D02*
X80487343Y-83877719D01*
X80487343Y-83877719D02*
X80392105Y-83830100D01*
X80392105Y-83830100D02*
X80344486Y-83782480D01*
X51566839Y-41792275D02*
X51566839Y-40792275D01*
X51566839Y-41268465D02*
X52138267Y-41268465D01*
X52138267Y-41792275D02*
X52138267Y-40792275D01*
X53138267Y-41792275D02*
X52566839Y-41792275D01*
X52852553Y-41792275D02*
X52852553Y-40792275D01*
X52852553Y-40792275D02*
X52757315Y-40935132D01*
X52757315Y-40935132D02*
X52662077Y-41030370D01*
X52662077Y-41030370D02*
X52566839Y-41077989D01*
D11*
X98024980Y-75513433D02*
X98024980Y-75037243D01*
X98024980Y-75037243D02*
X99024980Y-75037243D01*
X99024980Y-75751529D02*
X99024980Y-76370576D01*
X99024980Y-76370576D02*
X98644028Y-76037243D01*
X98644028Y-76037243D02*
X98644028Y-76180100D01*
X98644028Y-76180100D02*
X98596409Y-76275338D01*
X98596409Y-76275338D02*
X98548790Y-76322957D01*
X98548790Y-76322957D02*
X98453552Y-76370576D01*
X98453552Y-76370576D02*
X98215457Y-76370576D01*
X98215457Y-76370576D02*
X98120219Y-76322957D01*
X98120219Y-76322957D02*
X98072600Y-76275338D01*
X98072600Y-76275338D02*
X98024980Y-76180100D01*
X98024980Y-76180100D02*
X98024980Y-75894386D01*
X98024980Y-75894386D02*
X98072600Y-75799148D01*
X98072600Y-75799148D02*
X98120219Y-75751529D01*
D10*
X97546419Y-65693604D02*
X98355942Y-65693604D01*
X98355942Y-65693604D02*
X98451180Y-65645985D01*
X98451180Y-65645985D02*
X98498800Y-65598366D01*
X98498800Y-65598366D02*
X98546419Y-65503128D01*
X98546419Y-65503128D02*
X98546419Y-65312652D01*
X98546419Y-65312652D02*
X98498800Y-65217414D01*
X98498800Y-65217414D02*
X98451180Y-65169795D01*
X98451180Y-65169795D02*
X98355942Y-65122176D01*
X98355942Y-65122176D02*
X97546419Y-65122176D01*
X97879752Y-64217414D02*
X98546419Y-64217414D01*
X97498800Y-64455509D02*
X98213085Y-64693604D01*
X98213085Y-64693604D02*
X98213085Y-64074557D01*
X98247980Y-58919757D02*
X98295600Y-58967376D01*
X98295600Y-58967376D02*
X98343219Y-59110233D01*
X98343219Y-59110233D02*
X98343219Y-59205471D01*
X98343219Y-59205471D02*
X98295600Y-59348328D01*
X98295600Y-59348328D02*
X98200361Y-59443566D01*
X98200361Y-59443566D02*
X98105123Y-59491185D01*
X98105123Y-59491185D02*
X97914647Y-59538804D01*
X97914647Y-59538804D02*
X97771790Y-59538804D01*
X97771790Y-59538804D02*
X97581314Y-59491185D01*
X97581314Y-59491185D02*
X97486076Y-59443566D01*
X97486076Y-59443566D02*
X97390838Y-59348328D01*
X97390838Y-59348328D02*
X97343219Y-59205471D01*
X97343219Y-59205471D02*
X97343219Y-59110233D01*
X97343219Y-59110233D02*
X97390838Y-58967376D01*
X97390838Y-58967376D02*
X97438457Y-58919757D01*
X98343219Y-57967376D02*
X98343219Y-58538804D01*
X98343219Y-58253090D02*
X97343219Y-58253090D01*
X97343219Y-58253090D02*
X97486076Y-58348328D01*
X97486076Y-58348328D02*
X97581314Y-58443566D01*
X97581314Y-58443566D02*
X97628933Y-58538804D01*
X97343219Y-57348328D02*
X97343219Y-57253090D01*
X97343219Y-57253090D02*
X97390838Y-57157852D01*
X97390838Y-57157852D02*
X97438457Y-57110233D01*
X97438457Y-57110233D02*
X97533695Y-57062614D01*
X97533695Y-57062614D02*
X97724171Y-57014995D01*
X97724171Y-57014995D02*
X97962266Y-57014995D01*
X97962266Y-57014995D02*
X98152742Y-57062614D01*
X98152742Y-57062614D02*
X98247980Y-57110233D01*
X98247980Y-57110233D02*
X98295600Y-57157852D01*
X98295600Y-57157852D02*
X98343219Y-57253090D01*
X98343219Y-57253090D02*
X98343219Y-57348328D01*
X98343219Y-57348328D02*
X98295600Y-57443566D01*
X98295600Y-57443566D02*
X98247980Y-57491185D01*
X98247980Y-57491185D02*
X98152742Y-57538804D01*
X98152742Y-57538804D02*
X97962266Y-57586423D01*
X97962266Y-57586423D02*
X97724171Y-57586423D01*
X97724171Y-57586423D02*
X97533695Y-57538804D01*
X97533695Y-57538804D02*
X97438457Y-57491185D01*
X97438457Y-57491185D02*
X97390838Y-57443566D01*
X97390838Y-57443566D02*
X97343219Y-57348328D01*
X121708280Y-85127716D02*
X121755900Y-85175335D01*
X121755900Y-85175335D02*
X121803519Y-85318192D01*
X121803519Y-85318192D02*
X121803519Y-85413430D01*
X121803519Y-85413430D02*
X121755900Y-85556287D01*
X121755900Y-85556287D02*
X121660661Y-85651525D01*
X121660661Y-85651525D02*
X121565423Y-85699144D01*
X121565423Y-85699144D02*
X121374947Y-85746763D01*
X121374947Y-85746763D02*
X121232090Y-85746763D01*
X121232090Y-85746763D02*
X121041614Y-85699144D01*
X121041614Y-85699144D02*
X120946376Y-85651525D01*
X120946376Y-85651525D02*
X120851138Y-85556287D01*
X120851138Y-85556287D02*
X120803519Y-85413430D01*
X120803519Y-85413430D02*
X120803519Y-85318192D01*
X120803519Y-85318192D02*
X120851138Y-85175335D01*
X120851138Y-85175335D02*
X120898757Y-85127716D01*
X120803519Y-84270573D02*
X120803519Y-84461049D01*
X120803519Y-84461049D02*
X120851138Y-84556287D01*
X120851138Y-84556287D02*
X120898757Y-84603906D01*
X120898757Y-84603906D02*
X121041614Y-84699144D01*
X121041614Y-84699144D02*
X121232090Y-84746763D01*
X121232090Y-84746763D02*
X121613042Y-84746763D01*
X121613042Y-84746763D02*
X121708280Y-84699144D01*
X121708280Y-84699144D02*
X121755900Y-84651525D01*
X121755900Y-84651525D02*
X121803519Y-84556287D01*
X121803519Y-84556287D02*
X121803519Y-84365811D01*
X121803519Y-84365811D02*
X121755900Y-84270573D01*
X121755900Y-84270573D02*
X121708280Y-84222954D01*
X121708280Y-84222954D02*
X121613042Y-84175335D01*
X121613042Y-84175335D02*
X121374947Y-84175335D01*
X121374947Y-84175335D02*
X121279709Y-84222954D01*
X121279709Y-84222954D02*
X121232090Y-84270573D01*
X121232090Y-84270573D02*
X121184471Y-84365811D01*
X121184471Y-84365811D02*
X121184471Y-84556287D01*
X121184471Y-84556287D02*
X121232090Y-84651525D01*
X121232090Y-84651525D02*
X121279709Y-84699144D01*
X121279709Y-84699144D02*
X121374947Y-84746763D01*
X61236005Y-90979319D02*
X61236005Y-89979319D01*
X61236005Y-89979319D02*
X61474100Y-89979319D01*
X61474100Y-89979319D02*
X61616957Y-90026938D01*
X61616957Y-90026938D02*
X61712195Y-90122176D01*
X61712195Y-90122176D02*
X61759814Y-90217414D01*
X61759814Y-90217414D02*
X61807433Y-90407890D01*
X61807433Y-90407890D02*
X61807433Y-90550747D01*
X61807433Y-90550747D02*
X61759814Y-90741223D01*
X61759814Y-90741223D02*
X61712195Y-90836461D01*
X61712195Y-90836461D02*
X61616957Y-90931700D01*
X61616957Y-90931700D02*
X61474100Y-90979319D01*
X61474100Y-90979319D02*
X61236005Y-90979319D01*
X62664576Y-90312652D02*
X62664576Y-90979319D01*
X62426481Y-89931700D02*
X62188386Y-90645985D01*
X62188386Y-90645985D02*
X62807433Y-90645985D01*
X69808519Y-106240833D02*
X70522804Y-106240833D01*
X70522804Y-106240833D02*
X70665661Y-106288452D01*
X70665661Y-106288452D02*
X70760900Y-106383690D01*
X70760900Y-106383690D02*
X70808519Y-106526547D01*
X70808519Y-106526547D02*
X70808519Y-106621785D01*
X69903757Y-105812261D02*
X69856138Y-105764642D01*
X69856138Y-105764642D02*
X69808519Y-105669404D01*
X69808519Y-105669404D02*
X69808519Y-105431309D01*
X69808519Y-105431309D02*
X69856138Y-105336071D01*
X69856138Y-105336071D02*
X69903757Y-105288452D01*
X69903757Y-105288452D02*
X69998995Y-105240833D01*
X69998995Y-105240833D02*
X70094233Y-105240833D01*
X70094233Y-105240833D02*
X70237090Y-105288452D01*
X70237090Y-105288452D02*
X70808519Y-105859880D01*
X70808519Y-105859880D02*
X70808519Y-105240833D01*
X77243480Y-59580557D02*
X77291100Y-59628176D01*
X77291100Y-59628176D02*
X77338719Y-59771033D01*
X77338719Y-59771033D02*
X77338719Y-59866271D01*
X77338719Y-59866271D02*
X77291100Y-60009128D01*
X77291100Y-60009128D02*
X77195861Y-60104366D01*
X77195861Y-60104366D02*
X77100623Y-60151985D01*
X77100623Y-60151985D02*
X76910147Y-60199604D01*
X76910147Y-60199604D02*
X76767290Y-60199604D01*
X76767290Y-60199604D02*
X76576814Y-60151985D01*
X76576814Y-60151985D02*
X76481576Y-60104366D01*
X76481576Y-60104366D02*
X76386338Y-60009128D01*
X76386338Y-60009128D02*
X76338719Y-59866271D01*
X76338719Y-59866271D02*
X76338719Y-59771033D01*
X76338719Y-59771033D02*
X76386338Y-59628176D01*
X76386338Y-59628176D02*
X76433957Y-59580557D01*
X77338719Y-58628176D02*
X77338719Y-59199604D01*
X77338719Y-58913890D02*
X76338719Y-58913890D01*
X76338719Y-58913890D02*
X76481576Y-59009128D01*
X76481576Y-59009128D02*
X76576814Y-59104366D01*
X76576814Y-59104366D02*
X76624433Y-59199604D01*
X76338719Y-57723414D02*
X76338719Y-58199604D01*
X76338719Y-58199604D02*
X76814909Y-58247223D01*
X76814909Y-58247223D02*
X76767290Y-58199604D01*
X76767290Y-58199604D02*
X76719671Y-58104366D01*
X76719671Y-58104366D02*
X76719671Y-57866271D01*
X76719671Y-57866271D02*
X76767290Y-57771033D01*
X76767290Y-57771033D02*
X76814909Y-57723414D01*
X76814909Y-57723414D02*
X76910147Y-57675795D01*
X76910147Y-57675795D02*
X77148242Y-57675795D01*
X77148242Y-57675795D02*
X77243480Y-57723414D01*
X77243480Y-57723414D02*
X77291100Y-57771033D01*
X77291100Y-57771033D02*
X77338719Y-57866271D01*
X77338719Y-57866271D02*
X77338719Y-58104366D01*
X77338719Y-58104366D02*
X77291100Y-58199604D01*
X77291100Y-58199604D02*
X77243480Y-58247223D01*
X59064233Y-89627919D02*
X58730900Y-89151728D01*
X58492805Y-89627919D02*
X58492805Y-88627919D01*
X58492805Y-88627919D02*
X58873757Y-88627919D01*
X58873757Y-88627919D02*
X58968995Y-88675538D01*
X58968995Y-88675538D02*
X59016614Y-88723157D01*
X59016614Y-88723157D02*
X59064233Y-88818395D01*
X59064233Y-88818395D02*
X59064233Y-88961252D01*
X59064233Y-88961252D02*
X59016614Y-89056490D01*
X59016614Y-89056490D02*
X58968995Y-89104109D01*
X58968995Y-89104109D02*
X58873757Y-89151728D01*
X58873757Y-89151728D02*
X58492805Y-89151728D01*
X59397567Y-88627919D02*
X60064233Y-88627919D01*
X60064233Y-88627919D02*
X59635662Y-89627919D01*
X119735480Y-88988516D02*
X119783100Y-89036135D01*
X119783100Y-89036135D02*
X119830719Y-89178992D01*
X119830719Y-89178992D02*
X119830719Y-89274230D01*
X119830719Y-89274230D02*
X119783100Y-89417087D01*
X119783100Y-89417087D02*
X119687861Y-89512325D01*
X119687861Y-89512325D02*
X119592623Y-89559944D01*
X119592623Y-89559944D02*
X119402147Y-89607563D01*
X119402147Y-89607563D02*
X119259290Y-89607563D01*
X119259290Y-89607563D02*
X119068814Y-89559944D01*
X119068814Y-89559944D02*
X118973576Y-89512325D01*
X118973576Y-89512325D02*
X118878338Y-89417087D01*
X118878338Y-89417087D02*
X118830719Y-89274230D01*
X118830719Y-89274230D02*
X118830719Y-89178992D01*
X118830719Y-89178992D02*
X118878338Y-89036135D01*
X118878338Y-89036135D02*
X118925957Y-88988516D01*
X119259290Y-88417087D02*
X119211671Y-88512325D01*
X119211671Y-88512325D02*
X119164052Y-88559944D01*
X119164052Y-88559944D02*
X119068814Y-88607563D01*
X119068814Y-88607563D02*
X119021195Y-88607563D01*
X119021195Y-88607563D02*
X118925957Y-88559944D01*
X118925957Y-88559944D02*
X118878338Y-88512325D01*
X118878338Y-88512325D02*
X118830719Y-88417087D01*
X118830719Y-88417087D02*
X118830719Y-88226611D01*
X118830719Y-88226611D02*
X118878338Y-88131373D01*
X118878338Y-88131373D02*
X118925957Y-88083754D01*
X118925957Y-88083754D02*
X119021195Y-88036135D01*
X119021195Y-88036135D02*
X119068814Y-88036135D01*
X119068814Y-88036135D02*
X119164052Y-88083754D01*
X119164052Y-88083754D02*
X119211671Y-88131373D01*
X119211671Y-88131373D02*
X119259290Y-88226611D01*
X119259290Y-88226611D02*
X119259290Y-88417087D01*
X119259290Y-88417087D02*
X119306909Y-88512325D01*
X119306909Y-88512325D02*
X119354528Y-88559944D01*
X119354528Y-88559944D02*
X119449766Y-88607563D01*
X119449766Y-88607563D02*
X119640242Y-88607563D01*
X119640242Y-88607563D02*
X119735480Y-88559944D01*
X119735480Y-88559944D02*
X119783100Y-88512325D01*
X119783100Y-88512325D02*
X119830719Y-88417087D01*
X119830719Y-88417087D02*
X119830719Y-88226611D01*
X119830719Y-88226611D02*
X119783100Y-88131373D01*
X119783100Y-88131373D02*
X119735480Y-88083754D01*
X119735480Y-88083754D02*
X119640242Y-88036135D01*
X119640242Y-88036135D02*
X119449766Y-88036135D01*
X119449766Y-88036135D02*
X119354528Y-88083754D01*
X119354528Y-88083754D02*
X119306909Y-88131373D01*
X119306909Y-88131373D02*
X119259290Y-88226611D01*
X58959033Y-84538519D02*
X58625700Y-84062328D01*
X58387605Y-84538519D02*
X58387605Y-83538519D01*
X58387605Y-83538519D02*
X58768557Y-83538519D01*
X58768557Y-83538519D02*
X58863795Y-83586138D01*
X58863795Y-83586138D02*
X58911414Y-83633757D01*
X58911414Y-83633757D02*
X58959033Y-83728995D01*
X58959033Y-83728995D02*
X58959033Y-83871852D01*
X58959033Y-83871852D02*
X58911414Y-83967090D01*
X58911414Y-83967090D02*
X58863795Y-84014709D01*
X58863795Y-84014709D02*
X58768557Y-84062328D01*
X58768557Y-84062328D02*
X58387605Y-84062328D01*
X59530462Y-83967090D02*
X59435224Y-83919471D01*
X59435224Y-83919471D02*
X59387605Y-83871852D01*
X59387605Y-83871852D02*
X59339986Y-83776614D01*
X59339986Y-83776614D02*
X59339986Y-83728995D01*
X59339986Y-83728995D02*
X59387605Y-83633757D01*
X59387605Y-83633757D02*
X59435224Y-83586138D01*
X59435224Y-83586138D02*
X59530462Y-83538519D01*
X59530462Y-83538519D02*
X59720938Y-83538519D01*
X59720938Y-83538519D02*
X59816176Y-83586138D01*
X59816176Y-83586138D02*
X59863795Y-83633757D01*
X59863795Y-83633757D02*
X59911414Y-83728995D01*
X59911414Y-83728995D02*
X59911414Y-83776614D01*
X59911414Y-83776614D02*
X59863795Y-83871852D01*
X59863795Y-83871852D02*
X59816176Y-83919471D01*
X59816176Y-83919471D02*
X59720938Y-83967090D01*
X59720938Y-83967090D02*
X59530462Y-83967090D01*
X59530462Y-83967090D02*
X59435224Y-84014709D01*
X59435224Y-84014709D02*
X59387605Y-84062328D01*
X59387605Y-84062328D02*
X59339986Y-84157566D01*
X59339986Y-84157566D02*
X59339986Y-84348042D01*
X59339986Y-84348042D02*
X59387605Y-84443280D01*
X59387605Y-84443280D02*
X59435224Y-84490900D01*
X59435224Y-84490900D02*
X59530462Y-84538519D01*
X59530462Y-84538519D02*
X59720938Y-84538519D01*
X59720938Y-84538519D02*
X59816176Y-84490900D01*
X59816176Y-84490900D02*
X59863795Y-84443280D01*
X59863795Y-84443280D02*
X59911414Y-84348042D01*
X59911414Y-84348042D02*
X59911414Y-84157566D01*
X59911414Y-84157566D02*
X59863795Y-84062328D01*
X59863795Y-84062328D02*
X59816176Y-84014709D01*
X59816176Y-84014709D02*
X59720938Y-83967090D01*
X102560233Y-83688669D02*
X102226900Y-83212478D01*
X101988805Y-83688669D02*
X101988805Y-82688669D01*
X101988805Y-82688669D02*
X102369757Y-82688669D01*
X102369757Y-82688669D02*
X102464995Y-82736288D01*
X102464995Y-82736288D02*
X102512614Y-82783907D01*
X102512614Y-82783907D02*
X102560233Y-82879145D01*
X102560233Y-82879145D02*
X102560233Y-83022002D01*
X102560233Y-83022002D02*
X102512614Y-83117240D01*
X102512614Y-83117240D02*
X102464995Y-83164859D01*
X102464995Y-83164859D02*
X102369757Y-83212478D01*
X102369757Y-83212478D02*
X101988805Y-83212478D01*
X102941186Y-82783907D02*
X102988805Y-82736288D01*
X102988805Y-82736288D02*
X103084043Y-82688669D01*
X103084043Y-82688669D02*
X103322138Y-82688669D01*
X103322138Y-82688669D02*
X103417376Y-82736288D01*
X103417376Y-82736288D02*
X103464995Y-82783907D01*
X103464995Y-82783907D02*
X103512614Y-82879145D01*
X103512614Y-82879145D02*
X103512614Y-82974383D01*
X103512614Y-82974383D02*
X103464995Y-83117240D01*
X103464995Y-83117240D02*
X102893567Y-83688669D01*
X102893567Y-83688669D02*
X103512614Y-83688669D01*
X117161680Y-55079516D02*
X117209300Y-55127135D01*
X117209300Y-55127135D02*
X117256919Y-55269992D01*
X117256919Y-55269992D02*
X117256919Y-55365230D01*
X117256919Y-55365230D02*
X117209300Y-55508087D01*
X117209300Y-55508087D02*
X117114061Y-55603325D01*
X117114061Y-55603325D02*
X117018823Y-55650944D01*
X117018823Y-55650944D02*
X116828347Y-55698563D01*
X116828347Y-55698563D02*
X116685490Y-55698563D01*
X116685490Y-55698563D02*
X116495014Y-55650944D01*
X116495014Y-55650944D02*
X116399776Y-55603325D01*
X116399776Y-55603325D02*
X116304538Y-55508087D01*
X116304538Y-55508087D02*
X116256919Y-55365230D01*
X116256919Y-55365230D02*
X116256919Y-55269992D01*
X116256919Y-55269992D02*
X116304538Y-55127135D01*
X116304538Y-55127135D02*
X116352157Y-55079516D01*
X117256919Y-54127135D02*
X117256919Y-54698563D01*
X117256919Y-54412849D02*
X116256919Y-54412849D01*
X116256919Y-54412849D02*
X116399776Y-54508087D01*
X116399776Y-54508087D02*
X116495014Y-54603325D01*
X116495014Y-54603325D02*
X116542633Y-54698563D01*
X99102280Y-85266357D02*
X99149900Y-85313976D01*
X99149900Y-85313976D02*
X99197519Y-85456833D01*
X99197519Y-85456833D02*
X99197519Y-85552071D01*
X99197519Y-85552071D02*
X99149900Y-85694928D01*
X99149900Y-85694928D02*
X99054661Y-85790166D01*
X99054661Y-85790166D02*
X98959423Y-85837785D01*
X98959423Y-85837785D02*
X98768947Y-85885404D01*
X98768947Y-85885404D02*
X98626090Y-85885404D01*
X98626090Y-85885404D02*
X98435614Y-85837785D01*
X98435614Y-85837785D02*
X98340376Y-85790166D01*
X98340376Y-85790166D02*
X98245138Y-85694928D01*
X98245138Y-85694928D02*
X98197519Y-85552071D01*
X98197519Y-85552071D02*
X98197519Y-85456833D01*
X98197519Y-85456833D02*
X98245138Y-85313976D01*
X98245138Y-85313976D02*
X98292757Y-85266357D01*
X99197519Y-84313976D02*
X99197519Y-84885404D01*
X99197519Y-84599690D02*
X98197519Y-84599690D01*
X98197519Y-84599690D02*
X98340376Y-84694928D01*
X98340376Y-84694928D02*
X98435614Y-84790166D01*
X98435614Y-84790166D02*
X98483233Y-84885404D01*
X98292757Y-83933023D02*
X98245138Y-83885404D01*
X98245138Y-83885404D02*
X98197519Y-83790166D01*
X98197519Y-83790166D02*
X98197519Y-83552071D01*
X98197519Y-83552071D02*
X98245138Y-83456833D01*
X98245138Y-83456833D02*
X98292757Y-83409214D01*
X98292757Y-83409214D02*
X98387995Y-83361595D01*
X98387995Y-83361595D02*
X98483233Y-83361595D01*
X98483233Y-83361595D02*
X98626090Y-83409214D01*
X98626090Y-83409214D02*
X99197519Y-83980642D01*
X99197519Y-83980642D02*
X99197519Y-83361595D01*
X102589233Y-78634069D02*
X102255900Y-78157878D01*
X102017805Y-78634069D02*
X102017805Y-77634069D01*
X102017805Y-77634069D02*
X102398757Y-77634069D01*
X102398757Y-77634069D02*
X102493995Y-77681688D01*
X102493995Y-77681688D02*
X102541614Y-77729307D01*
X102541614Y-77729307D02*
X102589233Y-77824545D01*
X102589233Y-77824545D02*
X102589233Y-77967402D01*
X102589233Y-77967402D02*
X102541614Y-78062640D01*
X102541614Y-78062640D02*
X102493995Y-78110259D01*
X102493995Y-78110259D02*
X102398757Y-78157878D01*
X102398757Y-78157878D02*
X102017805Y-78157878D01*
X102922567Y-77634069D02*
X103541614Y-77634069D01*
X103541614Y-77634069D02*
X103208281Y-78015021D01*
X103208281Y-78015021D02*
X103351138Y-78015021D01*
X103351138Y-78015021D02*
X103446376Y-78062640D01*
X103446376Y-78062640D02*
X103493995Y-78110259D01*
X103493995Y-78110259D02*
X103541614Y-78205497D01*
X103541614Y-78205497D02*
X103541614Y-78443592D01*
X103541614Y-78443592D02*
X103493995Y-78538830D01*
X103493995Y-78538830D02*
X103446376Y-78586450D01*
X103446376Y-78586450D02*
X103351138Y-78634069D01*
X103351138Y-78634069D02*
X103065424Y-78634069D01*
X103065424Y-78634069D02*
X102970186Y-78586450D01*
X102970186Y-78586450D02*
X102922567Y-78538830D01*
X97095680Y-89279557D02*
X97143300Y-89327176D01*
X97143300Y-89327176D02*
X97190919Y-89470033D01*
X97190919Y-89470033D02*
X97190919Y-89565271D01*
X97190919Y-89565271D02*
X97143300Y-89708128D01*
X97143300Y-89708128D02*
X97048061Y-89803366D01*
X97048061Y-89803366D02*
X96952823Y-89850985D01*
X96952823Y-89850985D02*
X96762347Y-89898604D01*
X96762347Y-89898604D02*
X96619490Y-89898604D01*
X96619490Y-89898604D02*
X96429014Y-89850985D01*
X96429014Y-89850985D02*
X96333776Y-89803366D01*
X96333776Y-89803366D02*
X96238538Y-89708128D01*
X96238538Y-89708128D02*
X96190919Y-89565271D01*
X96190919Y-89565271D02*
X96190919Y-89470033D01*
X96190919Y-89470033D02*
X96238538Y-89327176D01*
X96238538Y-89327176D02*
X96286157Y-89279557D01*
X97190919Y-88327176D02*
X97190919Y-88898604D01*
X97190919Y-88612890D02*
X96190919Y-88612890D01*
X96190919Y-88612890D02*
X96333776Y-88708128D01*
X96333776Y-88708128D02*
X96429014Y-88803366D01*
X96429014Y-88803366D02*
X96476633Y-88898604D01*
X96190919Y-87993842D02*
X96190919Y-87374795D01*
X96190919Y-87374795D02*
X96571871Y-87708128D01*
X96571871Y-87708128D02*
X96571871Y-87565271D01*
X96571871Y-87565271D02*
X96619490Y-87470033D01*
X96619490Y-87470033D02*
X96667109Y-87422414D01*
X96667109Y-87422414D02*
X96762347Y-87374795D01*
X96762347Y-87374795D02*
X97000442Y-87374795D01*
X97000442Y-87374795D02*
X97095680Y-87422414D01*
X97095680Y-87422414D02*
X97143300Y-87470033D01*
X97143300Y-87470033D02*
X97190919Y-87565271D01*
X97190919Y-87565271D02*
X97190919Y-87850985D01*
X97190919Y-87850985D02*
X97143300Y-87946223D01*
X97143300Y-87946223D02*
X97095680Y-87993842D01*
X94564980Y-55268566D02*
X94612600Y-55316185D01*
X94612600Y-55316185D02*
X94660219Y-55459042D01*
X94660219Y-55459042D02*
X94660219Y-55554280D01*
X94660219Y-55554280D02*
X94612600Y-55697137D01*
X94612600Y-55697137D02*
X94517361Y-55792375D01*
X94517361Y-55792375D02*
X94422123Y-55839994D01*
X94422123Y-55839994D02*
X94231647Y-55887613D01*
X94231647Y-55887613D02*
X94088790Y-55887613D01*
X94088790Y-55887613D02*
X93898314Y-55839994D01*
X93898314Y-55839994D02*
X93803076Y-55792375D01*
X93803076Y-55792375D02*
X93707838Y-55697137D01*
X93707838Y-55697137D02*
X93660219Y-55554280D01*
X93660219Y-55554280D02*
X93660219Y-55459042D01*
X93660219Y-55459042D02*
X93707838Y-55316185D01*
X93707838Y-55316185D02*
X93755457Y-55268566D01*
X94660219Y-54792375D02*
X94660219Y-54601899D01*
X94660219Y-54601899D02*
X94612600Y-54506661D01*
X94612600Y-54506661D02*
X94564980Y-54459042D01*
X94564980Y-54459042D02*
X94422123Y-54363804D01*
X94422123Y-54363804D02*
X94231647Y-54316185D01*
X94231647Y-54316185D02*
X93850695Y-54316185D01*
X93850695Y-54316185D02*
X93755457Y-54363804D01*
X93755457Y-54363804D02*
X93707838Y-54411423D01*
X93707838Y-54411423D02*
X93660219Y-54506661D01*
X93660219Y-54506661D02*
X93660219Y-54697137D01*
X93660219Y-54697137D02*
X93707838Y-54792375D01*
X93707838Y-54792375D02*
X93755457Y-54839994D01*
X93755457Y-54839994D02*
X93850695Y-54887613D01*
X93850695Y-54887613D02*
X94088790Y-54887613D01*
X94088790Y-54887613D02*
X94184028Y-54839994D01*
X94184028Y-54839994D02*
X94231647Y-54792375D01*
X94231647Y-54792375D02*
X94279266Y-54697137D01*
X94279266Y-54697137D02*
X94279266Y-54506661D01*
X94279266Y-54506661D02*
X94231647Y-54411423D01*
X94231647Y-54411423D02*
X94184028Y-54363804D01*
X94184028Y-54363804D02*
X94088790Y-54316185D01*
X114825966Y-99805319D02*
X114825966Y-100519604D01*
X114825966Y-100519604D02*
X114778347Y-100662461D01*
X114778347Y-100662461D02*
X114683109Y-100757700D01*
X114683109Y-100757700D02*
X114540252Y-100805319D01*
X114540252Y-100805319D02*
X114445014Y-100805319D01*
X115730728Y-100138652D02*
X115730728Y-100805319D01*
X115492633Y-99757700D02*
X115254538Y-100471985D01*
X115254538Y-100471985D02*
X115873585Y-100471985D01*
X48557580Y-83415066D02*
X48605200Y-83462685D01*
X48605200Y-83462685D02*
X48652819Y-83605542D01*
X48652819Y-83605542D02*
X48652819Y-83700780D01*
X48652819Y-83700780D02*
X48605200Y-83843637D01*
X48605200Y-83843637D02*
X48509961Y-83938875D01*
X48509961Y-83938875D02*
X48414723Y-83986494D01*
X48414723Y-83986494D02*
X48224247Y-84034113D01*
X48224247Y-84034113D02*
X48081390Y-84034113D01*
X48081390Y-84034113D02*
X47890914Y-83986494D01*
X47890914Y-83986494D02*
X47795676Y-83938875D01*
X47795676Y-83938875D02*
X47700438Y-83843637D01*
X47700438Y-83843637D02*
X47652819Y-83700780D01*
X47652819Y-83700780D02*
X47652819Y-83605542D01*
X47652819Y-83605542D02*
X47700438Y-83462685D01*
X47700438Y-83462685D02*
X47748057Y-83415066D01*
X47652819Y-82510304D02*
X47652819Y-82986494D01*
X47652819Y-82986494D02*
X48129009Y-83034113D01*
X48129009Y-83034113D02*
X48081390Y-82986494D01*
X48081390Y-82986494D02*
X48033771Y-82891256D01*
X48033771Y-82891256D02*
X48033771Y-82653161D01*
X48033771Y-82653161D02*
X48081390Y-82557923D01*
X48081390Y-82557923D02*
X48129009Y-82510304D01*
X48129009Y-82510304D02*
X48224247Y-82462685D01*
X48224247Y-82462685D02*
X48462342Y-82462685D01*
X48462342Y-82462685D02*
X48557580Y-82510304D01*
X48557580Y-82510304D02*
X48605200Y-82557923D01*
X48605200Y-82557923D02*
X48652819Y-82653161D01*
X48652819Y-82653161D02*
X48652819Y-82891256D01*
X48652819Y-82891256D02*
X48605200Y-82986494D01*
X48605200Y-82986494D02*
X48557580Y-83034113D01*
D12*
%TO.C,C2*%
X118124500Y-56469502D02*
X118124500Y-55946998D01*
X119594500Y-56469502D02*
X119594500Y-55946998D01*
%TO.C,C16*%
X61950300Y-78107448D02*
X61950300Y-78629952D01*
X63420300Y-78107448D02*
X63420300Y-78629952D01*
%TO.C,D3*%
X81328600Y-88948900D02*
X81328600Y-81938900D01*
X81328600Y-88948900D02*
X84628600Y-88948900D01*
X84628600Y-88948900D02*
X84628600Y-81938900D01*
%TO.C,U3*%
X108827500Y-62692250D02*
X108827500Y-63642250D01*
X108827500Y-73092250D02*
X108827500Y-72142250D01*
X110192500Y-62692250D02*
X108827500Y-62692250D01*
X110192500Y-73092250D02*
X108827500Y-73092250D01*
X106002500Y-63682250D02*
X105662500Y-63212250D01*
X106342500Y-63212250D01*
X106002500Y-63682250D01*
G36*
X106002500Y-63682250D02*
G01*
X105662500Y-63212250D01*
X106342500Y-63212250D01*
X106002500Y-63682250D01*
G37*
%TO.C,C4*%
X56353000Y-80461652D02*
X56353000Y-79939148D01*
X57823000Y-80461652D02*
X57823000Y-79939148D01*
%TO.C,D1*%
X52644000Y-86078100D02*
X52644000Y-79068100D01*
X52644000Y-86078100D02*
X55944000Y-86078100D01*
X55944000Y-86078100D02*
X55944000Y-79068100D01*
%TO.C,C11*%
X82954800Y-77446648D02*
X82954800Y-77969152D01*
X84424800Y-77446648D02*
X84424800Y-77969152D01*
%TO.C,D2*%
X103925300Y-88759850D02*
X103925300Y-81749850D01*
X103925300Y-88759850D02*
X107225300Y-88759850D01*
X107225300Y-88759850D02*
X107225300Y-81749850D01*
%TO.C,C17*%
X76987100Y-89069352D02*
X76987100Y-88546848D01*
X78457100Y-89069352D02*
X78457100Y-88546848D01*
%TO.C,R1*%
X102046300Y-85950114D02*
X102046300Y-85495986D01*
X103516300Y-85950114D02*
X103516300Y-85495986D01*
D13*
%TO.C,G\u002A\u002A\u002A*%
G36*
X70750142Y-44328504D02*
G01*
X70751867Y-44343368D01*
X70751797Y-44355128D01*
X70750086Y-44375482D01*
X70740364Y-44386489D01*
X70715746Y-44390773D01*
X70669347Y-44390963D01*
X70658360Y-44390768D01*
X70603683Y-44388625D01*
X70557664Y-44384845D01*
X70535022Y-44381256D01*
X70531321Y-44374287D01*
X70555915Y-44363235D01*
X70607559Y-44348631D01*
X70617247Y-44346243D01*
X70680408Y-44330958D01*
X70719932Y-44322663D01*
X70741337Y-44321724D01*
X70750142Y-44328504D01*
G37*
G36*
X71477147Y-49502651D02*
G01*
X71469772Y-49533901D01*
X71455786Y-49576129D01*
X71438194Y-49621271D01*
X71420002Y-49661263D01*
X71404216Y-49688043D01*
X71399331Y-49693188D01*
X71373129Y-49709884D01*
X71358149Y-49707764D01*
X71351375Y-49683152D01*
X71349796Y-49632771D01*
X71350905Y-49585179D01*
X71357821Y-49557287D01*
X71375929Y-49538901D01*
X71409000Y-49520646D01*
X71446179Y-49502379D01*
X71470694Y-49491639D01*
X71474904Y-49490442D01*
X71477147Y-49502651D01*
G37*
G36*
X70502468Y-45931780D02*
G01*
X70500417Y-45955354D01*
X70503213Y-45998356D01*
X70524362Y-46017764D01*
X70563816Y-46013556D01*
X70590788Y-46002396D01*
X70631597Y-45986573D01*
X70648823Y-45988649D01*
X70641514Y-46006978D01*
X70611252Y-46037706D01*
X70559276Y-46072892D01*
X70515733Y-46080097D01*
X70485687Y-46063909D01*
X70472569Y-46034944D01*
X70468281Y-45992358D01*
X70472691Y-45949885D01*
X70485664Y-45921257D01*
X70487085Y-45919962D01*
X70499419Y-45914898D01*
X70502468Y-45931780D01*
G37*
G36*
X74183334Y-46364719D02*
G01*
X74242067Y-46399597D01*
X74280595Y-46445112D01*
X74305916Y-46510991D01*
X74305537Y-46576101D01*
X74283428Y-46635967D01*
X74243557Y-46686116D01*
X74189895Y-46722075D01*
X74126412Y-46739371D01*
X74057075Y-46733528D01*
X74032096Y-46725163D01*
X74002485Y-46705734D01*
X73968401Y-46673497D01*
X73961084Y-46665164D01*
X73930448Y-46607531D01*
X73920461Y-46538992D01*
X73931911Y-46470993D01*
X73945642Y-46441244D01*
X73991683Y-46389548D01*
X74051243Y-46359615D01*
X74117426Y-46351365D01*
X74183334Y-46364719D01*
G37*
G36*
X64578395Y-46360419D02*
G01*
X64634702Y-46390116D01*
X64677923Y-46439340D01*
X64706807Y-46504238D01*
X64710054Y-46568425D01*
X64691738Y-46627825D01*
X64655933Y-46678365D01*
X64606712Y-46715971D01*
X64548148Y-46736571D01*
X64484316Y-46736089D01*
X64419289Y-46710453D01*
X64411701Y-46705562D01*
X64359620Y-46658767D01*
X64331496Y-46601471D01*
X64323530Y-46532327D01*
X64326693Y-46489519D01*
X64340397Y-46456228D01*
X64370439Y-46420088D01*
X64381351Y-46408990D01*
X64420180Y-46373882D01*
X64453023Y-46356582D01*
X64492246Y-46351293D01*
X64504688Y-46351169D01*
X64578395Y-46360419D01*
G37*
G36*
X69256246Y-45404420D02*
G01*
X69262255Y-45409697D01*
X69270169Y-45427041D01*
X69256800Y-45435797D01*
X69232977Y-45450795D01*
X69199507Y-45479076D01*
X69185787Y-45492233D01*
X69150747Y-45536059D01*
X69137905Y-45579307D01*
X69137528Y-45590743D01*
X69145817Y-45641338D01*
X69166556Y-45702477D01*
X69194360Y-45760707D01*
X69221221Y-45799784D01*
X69233852Y-45822883D01*
X69229537Y-45833545D01*
X69212794Y-45828206D01*
X69187211Y-45804454D01*
X69175473Y-45790173D01*
X69122877Y-45705279D01*
X69096164Y-45624434D01*
X69095153Y-45550387D01*
X69119666Y-45485887D01*
X69169522Y-45433681D01*
X69200038Y-45415005D01*
X69234985Y-45400850D01*
X69256246Y-45404420D01*
G37*
G36*
X72227201Y-41242533D02*
G01*
X72256004Y-41259447D01*
X72290487Y-41294039D01*
X72307473Y-41313859D01*
X72345726Y-41356329D01*
X72373480Y-41377900D01*
X72396603Y-41382698D01*
X72403623Y-41381456D01*
X72441784Y-41383272D01*
X72463998Y-41393499D01*
X72480225Y-41408076D01*
X72476144Y-41419776D01*
X72448528Y-41436059D01*
X72444733Y-41438027D01*
X72392320Y-41459121D01*
X72349310Y-41459448D01*
X72308352Y-41436980D01*
X72262100Y-41389690D01*
X72259814Y-41386990D01*
X72223083Y-41345850D01*
X72196778Y-41324446D01*
X72173869Y-41318239D01*
X72156657Y-41320380D01*
X72115903Y-41319190D01*
X72098964Y-41307345D01*
X72094595Y-41284345D01*
X72113398Y-41262063D01*
X72148896Y-41245103D01*
X72194616Y-41238068D01*
X72196403Y-41238059D01*
X72227201Y-41242533D01*
G37*
G36*
X73038535Y-48357193D02*
G01*
X73049942Y-48374176D01*
X73080477Y-48404103D01*
X73125276Y-48443199D01*
X73179476Y-48487694D01*
X73238211Y-48533815D01*
X73296620Y-48577788D01*
X73349836Y-48615841D01*
X73392997Y-48644202D01*
X73421239Y-48659098D01*
X73428970Y-48660022D01*
X73441056Y-48663310D01*
X73442230Y-48671049D01*
X73434103Y-48692138D01*
X73414487Y-48721112D01*
X73389246Y-48751454D01*
X73364241Y-48776649D01*
X73345336Y-48790181D01*
X73338364Y-48786498D01*
X73326776Y-48769049D01*
X73295552Y-48738580D01*
X73249729Y-48698960D01*
X73194346Y-48654055D01*
X73134439Y-48607734D01*
X73075046Y-48563866D01*
X73021206Y-48526317D01*
X72977955Y-48498956D01*
X72950333Y-48485651D01*
X72945675Y-48484990D01*
X72929933Y-48480753D01*
X72932909Y-48462800D01*
X72955690Y-48428800D01*
X72992643Y-48384145D01*
X73021224Y-48354391D01*
X73035662Y-48348362D01*
X73038535Y-48357193D01*
G37*
G36*
X64544330Y-44008811D02*
G01*
X64542104Y-44015485D01*
X64550802Y-44026639D01*
X64582581Y-44043275D01*
X64631551Y-44063486D01*
X64691821Y-44085363D01*
X64757500Y-44106999D01*
X64822698Y-44126486D01*
X64881523Y-44141918D01*
X64928085Y-44151385D01*
X64956492Y-44152982D01*
X64961216Y-44151201D01*
X64977519Y-44145435D01*
X64980652Y-44165232D01*
X64970565Y-44209290D01*
X64964118Y-44229559D01*
X64945656Y-44275944D01*
X64930361Y-44296704D01*
X64919591Y-44290064D01*
X64919050Y-44288553D01*
X64902660Y-44276275D01*
X64863771Y-44258991D01*
X64808665Y-44238605D01*
X64743624Y-44217023D01*
X64674930Y-44196149D01*
X64608864Y-44177888D01*
X64551708Y-44164145D01*
X64509745Y-44156824D01*
X64489256Y-44157831D01*
X64488917Y-44158125D01*
X64476628Y-44166012D01*
X64474373Y-44153301D01*
X64482300Y-44117198D01*
X64493146Y-44079325D01*
X64508903Y-44038264D01*
X64525785Y-44011241D01*
X64532375Y-44006373D01*
X64544330Y-44008811D01*
G37*
G36*
X66384792Y-41513188D02*
G01*
X66380761Y-41530203D01*
X66386311Y-41548667D01*
X66406349Y-41585113D01*
X66437113Y-41634188D01*
X66474835Y-41690540D01*
X66515751Y-41748817D01*
X66556096Y-41803667D01*
X66592105Y-41849736D01*
X66620012Y-41881671D01*
X66636053Y-41894122D01*
X66636746Y-41894111D01*
X66657828Y-41894029D01*
X66655951Y-41905200D01*
X66630129Y-41929372D01*
X66606227Y-41948182D01*
X66562684Y-41980690D01*
X66537712Y-41996116D01*
X66526490Y-41996004D01*
X66524199Y-41981900D01*
X66524587Y-41974345D01*
X66516894Y-41951018D01*
X66494582Y-41911649D01*
X66461563Y-41861418D01*
X66421750Y-41805506D01*
X66379054Y-41749095D01*
X66337390Y-41697364D01*
X66300668Y-41655495D01*
X66272802Y-41628669D01*
X66258313Y-41621742D01*
X66238553Y-41625197D01*
X66240193Y-41613827D01*
X66260900Y-41590993D01*
X66298340Y-41560055D01*
X66304135Y-41555746D01*
X66349962Y-41523515D01*
X66375881Y-41509652D01*
X66384792Y-41513188D01*
G37*
G36*
X70425856Y-50098485D02*
G01*
X70429987Y-50102767D01*
X70427404Y-50118862D01*
X70423695Y-50120802D01*
X70421945Y-50136132D01*
X70426467Y-50174433D01*
X70435941Y-50229752D01*
X70449049Y-50296139D01*
X70464474Y-50367644D01*
X70480896Y-50438314D01*
X70496996Y-50502200D01*
X70511458Y-50553350D01*
X70522961Y-50585813D01*
X70528591Y-50594249D01*
X70543202Y-50606033D01*
X70531375Y-50618843D01*
X70496332Y-50629937D01*
X70484004Y-50632172D01*
X70439309Y-50640728D01*
X70404313Y-50649796D01*
X70400054Y-50651294D01*
X70382380Y-50653740D01*
X70382658Y-50636117D01*
X70384870Y-50628696D01*
X70385585Y-50601474D01*
X70379648Y-50552684D01*
X70368534Y-50488813D01*
X70353715Y-50416350D01*
X70336666Y-50341780D01*
X70318858Y-50271591D01*
X70301767Y-50212271D01*
X70286864Y-50170307D01*
X70276824Y-50152962D01*
X70268523Y-50140762D01*
X70281081Y-50130568D01*
X70318754Y-50119029D01*
X70320473Y-50118587D01*
X70364249Y-50107067D01*
X70396892Y-50097947D01*
X70403731Y-50095831D01*
X70425856Y-50098485D01*
G37*
G36*
X70557447Y-45287486D02*
G01*
X70545152Y-45303748D01*
X70529446Y-45311323D01*
X70510981Y-45330753D01*
X70497236Y-45368774D01*
X70490104Y-45414210D01*
X70491481Y-45455887D01*
X70500839Y-45480113D01*
X70505937Y-45494867D01*
X70486265Y-45497192D01*
X70441182Y-45486971D01*
X70370047Y-45464088D01*
X70325723Y-45448303D01*
X70261517Y-45424182D01*
X70203319Y-45401014D01*
X70160159Y-45382448D01*
X70147881Y-45376477D01*
X70146652Y-45375829D01*
X70250093Y-45375829D01*
X70264956Y-45383329D01*
X70298368Y-45398177D01*
X70341164Y-45416502D01*
X70384179Y-45434430D01*
X70418247Y-45448088D01*
X70434110Y-45453596D01*
X70436507Y-45440609D01*
X70437783Y-45407940D01*
X70437847Y-45397528D01*
X70437847Y-45341105D01*
X70341179Y-45355676D01*
X70293073Y-45363814D01*
X70260333Y-45371074D01*
X70250093Y-45375829D01*
X70146652Y-45375829D01*
X70104589Y-45353656D01*
X70200206Y-45342923D01*
X70262988Y-45334378D01*
X70337361Y-45322048D01*
X70413202Y-45307837D01*
X70480387Y-45293650D01*
X70528790Y-45281392D01*
X70531285Y-45280633D01*
X70552914Y-45280504D01*
X70557447Y-45287486D01*
G37*
G36*
X64849659Y-43371271D02*
G01*
X64919706Y-43452137D01*
X64985751Y-43526116D01*
X65044727Y-43589953D01*
X65093568Y-43640396D01*
X65129209Y-43674188D01*
X65147938Y-43687865D01*
X65162140Y-43695817D01*
X65164632Y-43710213D01*
X65155025Y-43739110D01*
X65144225Y-43764604D01*
X65115082Y-43831879D01*
X64846270Y-43831879D01*
X64760357Y-43831256D01*
X64685807Y-43829528D01*
X64627341Y-43826901D01*
X64589678Y-43823583D01*
X64577459Y-43820070D01*
X64583746Y-43800651D01*
X64599622Y-43765321D01*
X64608570Y-43747279D01*
X64630669Y-43710090D01*
X64647163Y-43698408D01*
X64656410Y-43703025D01*
X64675663Y-43708849D01*
X64716158Y-43713656D01*
X64770842Y-43717289D01*
X64832660Y-43719591D01*
X64894557Y-43720405D01*
X64949478Y-43719572D01*
X64990369Y-43716936D01*
X65010176Y-43712339D01*
X65011008Y-43710936D01*
X65001224Y-43694699D01*
X64975286Y-43662923D01*
X64938322Y-43621079D01*
X64895454Y-43574634D01*
X64851809Y-43529057D01*
X64812511Y-43489816D01*
X64782685Y-43462381D01*
X64768818Y-43452502D01*
X64754452Y-43444489D01*
X64752203Y-43430040D01*
X64762450Y-43400951D01*
X64772225Y-43378692D01*
X64801049Y-43314313D01*
X64849659Y-43371271D01*
G37*
G36*
X72615100Y-41804996D02*
G01*
X72693373Y-41834133D01*
X72767892Y-41887650D01*
X72799491Y-41920052D01*
X72856086Y-42001351D01*
X72884615Y-42082483D01*
X72885208Y-42160767D01*
X72857997Y-42233523D01*
X72803112Y-42298070D01*
X72780222Y-42316194D01*
X72705924Y-42353196D01*
X72626827Y-42361221D01*
X72545324Y-42340315D01*
X72491421Y-42310719D01*
X72419921Y-42251148D01*
X72364996Y-42181548D01*
X72330924Y-42108480D01*
X72321654Y-42050845D01*
X72429601Y-42050845D01*
X72435732Y-42116368D01*
X72464480Y-42174785D01*
X72512320Y-42220675D01*
X72575728Y-42248618D01*
X72625776Y-42254601D01*
X72669989Y-42249006D01*
X72707671Y-42227944D01*
X72734163Y-42203827D01*
X72772508Y-42153903D01*
X72784344Y-42102745D01*
X72771464Y-42041678D01*
X72769047Y-42035118D01*
X72733867Y-41975165D01*
X72684286Y-41932837D01*
X72626456Y-41909127D01*
X72566527Y-41905024D01*
X72510652Y-41921521D01*
X72464980Y-41959609D01*
X72449611Y-41983637D01*
X72429601Y-42050845D01*
X72321654Y-42050845D01*
X72321544Y-42050160D01*
X72326502Y-41990734D01*
X72344664Y-41941649D01*
X72380957Y-41891732D01*
X72401300Y-41869406D01*
X72464709Y-41822079D01*
X72537427Y-41800793D01*
X72615100Y-41804996D01*
G37*
G36*
X74228479Y-45223696D02*
G01*
X74280142Y-45248388D01*
X74334356Y-45291829D01*
X74369040Y-45338781D01*
X74388551Y-45397787D01*
X74397247Y-45477391D01*
X74397280Y-45478052D01*
X74393670Y-45587293D01*
X74370699Y-45673862D01*
X74328419Y-45737689D01*
X74266884Y-45778703D01*
X74186146Y-45796833D01*
X74159131Y-45797800D01*
X74093990Y-45792832D01*
X74044496Y-45775766D01*
X74025122Y-45764111D01*
X73967286Y-45710582D01*
X73929911Y-45640064D01*
X73911061Y-45548748D01*
X73910066Y-45537652D01*
X73910640Y-45509270D01*
X73995996Y-45509270D01*
X74007474Y-45578301D01*
X74038245Y-45633475D01*
X74083038Y-45671738D01*
X74136585Y-45690036D01*
X74193612Y-45685314D01*
X74247945Y-45655286D01*
X74296223Y-45597221D01*
X74318108Y-45530157D01*
X74313120Y-45460013D01*
X74280778Y-45392711D01*
X74270347Y-45379351D01*
X74220261Y-45338522D01*
X74165144Y-45323270D01*
X74110261Y-45331103D01*
X74060879Y-45359526D01*
X74022263Y-45406046D01*
X73999678Y-45468169D01*
X73995996Y-45509270D01*
X73910640Y-45509270D01*
X73912168Y-45433798D01*
X73935711Y-45348162D01*
X73979473Y-45282341D01*
X74042231Y-45237930D01*
X74122765Y-45216522D01*
X74157437Y-45214751D01*
X74228479Y-45223696D01*
G37*
G36*
X65601613Y-48439009D02*
G01*
X65685981Y-48474539D01*
X65763032Y-48538098D01*
X65831844Y-48629005D01*
X65869337Y-48697510D01*
X65895466Y-48754171D01*
X65905597Y-48789544D01*
X65898033Y-48808599D01*
X65871075Y-48816307D01*
X65828296Y-48817650D01*
X65796196Y-48814748D01*
X65782928Y-48799995D01*
X65779852Y-48766340D01*
X65767950Y-48714175D01*
X65738717Y-48655827D01*
X65699001Y-48602699D01*
X65661930Y-48570036D01*
X65597107Y-48542246D01*
X65532475Y-48539402D01*
X65473153Y-48558037D01*
X65424258Y-48594685D01*
X65390910Y-48645881D01*
X65378226Y-48708158D01*
X65384722Y-48757761D01*
X65405874Y-48809979D01*
X65436284Y-48858748D01*
X65439356Y-48862519D01*
X65476768Y-48898099D01*
X65522817Y-48929878D01*
X65568772Y-48953030D01*
X65605905Y-48962731D01*
X65617931Y-48961231D01*
X65634493Y-48964559D01*
X65637165Y-48988817D01*
X65625838Y-49028398D01*
X65619545Y-49042737D01*
X65601532Y-49080906D01*
X65533488Y-49042737D01*
X65456947Y-48996697D01*
X65401384Y-48954671D01*
X65359708Y-48910363D01*
X65324853Y-48857523D01*
X65284744Y-48771215D01*
X65269981Y-48694352D01*
X65279910Y-48621618D01*
X65291836Y-48589770D01*
X65339929Y-48514611D01*
X65406354Y-48462343D01*
X65488391Y-48434921D01*
X65510848Y-48432192D01*
X65601613Y-48439009D01*
G37*
G36*
X69251389Y-50238171D02*
G01*
X69310778Y-50260265D01*
X69384020Y-50306693D01*
X69431380Y-50362541D01*
X69456624Y-50433373D01*
X69462681Y-50484615D01*
X69459049Y-50563235D01*
X69435618Y-50625657D01*
X69388616Y-50679134D01*
X69344439Y-50712004D01*
X69305255Y-50734791D01*
X69266388Y-50748066D01*
X69216746Y-50754651D01*
X69168193Y-50756832D01*
X69105199Y-50756373D01*
X69047210Y-50752211D01*
X69006398Y-50745234D01*
X69005280Y-50744904D01*
X68950689Y-50717171D01*
X68896481Y-50671327D01*
X68850726Y-50616099D01*
X68821494Y-50560214D01*
X68816407Y-50540679D01*
X68816240Y-50490510D01*
X68925231Y-50490510D01*
X68934738Y-50544053D01*
X68963359Y-50592005D01*
X69007594Y-50631115D01*
X69063946Y-50658132D01*
X69128916Y-50669806D01*
X69199005Y-50662886D01*
X69258526Y-50640709D01*
X69316079Y-50597571D01*
X69348404Y-50543201D01*
X69354777Y-50483149D01*
X69334470Y-50422966D01*
X69293444Y-50373855D01*
X69224489Y-50331130D01*
X69148806Y-50314210D01*
X69072970Y-50322974D01*
X69003550Y-50357301D01*
X68977551Y-50379650D01*
X68938336Y-50434625D01*
X68925231Y-50490510D01*
X68816240Y-50490510D01*
X68816122Y-50455220D01*
X68842990Y-50376460D01*
X68894345Y-50308895D01*
X68967523Y-50257023D01*
X68990958Y-50246174D01*
X69070694Y-50226014D01*
X69161662Y-50223529D01*
X69251389Y-50238171D01*
G37*
G36*
X66169351Y-49022499D02*
G01*
X66219353Y-49043606D01*
X66236632Y-49052486D01*
X66315970Y-49107365D01*
X66379050Y-49177393D01*
X66422418Y-49256711D01*
X66442618Y-49339461D01*
X66440767Y-49398561D01*
X66418410Y-49465078D01*
X66377643Y-49527288D01*
X66326256Y-49574319D01*
X66306993Y-49585281D01*
X66236062Y-49605286D01*
X66154274Y-49607347D01*
X66074550Y-49591650D01*
X66048519Y-49581541D01*
X65965783Y-49531219D01*
X65899715Y-49465591D01*
X65852713Y-49389683D01*
X65827177Y-49308519D01*
X65826621Y-49281429D01*
X65930879Y-49281429D01*
X65943462Y-49347204D01*
X65977761Y-49407365D01*
X66029841Y-49456965D01*
X66095763Y-49491054D01*
X66171589Y-49504684D01*
X66174518Y-49504732D01*
X66223995Y-49500221D01*
X66261526Y-49480864D01*
X66284703Y-49459895D01*
X66311038Y-49430624D01*
X66323485Y-49403766D01*
X66325713Y-49367245D01*
X66323408Y-49332489D01*
X66314514Y-49274515D01*
X66296009Y-49232685D01*
X66273023Y-49204221D01*
X66210926Y-49153762D01*
X66144154Y-49125566D01*
X66078084Y-49119455D01*
X66018092Y-49135256D01*
X65969555Y-49172791D01*
X65943950Y-49214987D01*
X65930879Y-49281429D01*
X65826621Y-49281429D01*
X65825506Y-49227123D01*
X65846286Y-49158035D01*
X65892058Y-49087732D01*
X65951258Y-49042275D01*
X66028232Y-49018822D01*
X66064981Y-49014965D01*
X66123223Y-49014116D01*
X66169351Y-49022499D01*
G37*
G36*
X72276247Y-49230561D02*
G01*
X72276898Y-49247379D01*
X72280736Y-49293484D01*
X72286734Y-49324616D01*
X72290436Y-49350232D01*
X72277016Y-49354956D01*
X72262906Y-49351865D01*
X72209115Y-49351619D01*
X72148525Y-49372539D01*
X72088658Y-49409544D01*
X72037041Y-49457555D01*
X72001197Y-49511491D01*
X71992781Y-49534231D01*
X71986096Y-49576037D01*
X71993957Y-49615807D01*
X72008098Y-49648457D01*
X72034734Y-49690321D01*
X72065691Y-49721295D01*
X72075793Y-49727343D01*
X72139008Y-49742820D01*
X72208538Y-49739776D01*
X72259872Y-49723135D01*
X72307317Y-49690370D01*
X72352402Y-49645538D01*
X72388483Y-49596830D01*
X72408920Y-49552439D01*
X72411244Y-49536452D01*
X72411244Y-49492848D01*
X72470783Y-49516235D01*
X72530322Y-49539623D01*
X72498048Y-49597049D01*
X72429129Y-49697736D01*
X72350183Y-49774053D01*
X72263540Y-49824357D01*
X72171529Y-49847006D01*
X72142144Y-49848154D01*
X72090121Y-49845523D01*
X72046699Y-49839669D01*
X72030019Y-49835148D01*
X71986950Y-49807368D01*
X71942002Y-49762800D01*
X71905147Y-49712108D01*
X71893377Y-49689010D01*
X71875297Y-49610273D01*
X71884636Y-49530092D01*
X71919324Y-49451969D01*
X71977292Y-49379406D01*
X72056469Y-49315905D01*
X72140350Y-49271037D01*
X72189879Y-49249036D01*
X72231171Y-49229919D01*
X72250531Y-49220303D01*
X72269366Y-49214733D01*
X72276247Y-49230561D01*
G37*
G36*
X66699509Y-49416349D02*
G01*
X66730101Y-49432353D01*
X66779134Y-49462727D01*
X66807807Y-49486569D01*
X66813798Y-49501487D01*
X66801016Y-49505392D01*
X66787232Y-49517004D01*
X66761945Y-49548198D01*
X66728786Y-49593511D01*
X66691388Y-49647478D01*
X66653381Y-49704637D01*
X66618399Y-49759525D01*
X66590073Y-49806677D01*
X66572036Y-49840632D01*
X66567918Y-49855924D01*
X66567959Y-49855965D01*
X66595160Y-49876351D01*
X66638836Y-49904119D01*
X66692631Y-49935785D01*
X66750192Y-49967860D01*
X66805162Y-49996859D01*
X66851188Y-50019297D01*
X66881914Y-50031686D01*
X66890381Y-50032838D01*
X66900574Y-50034238D01*
X66894659Y-50054327D01*
X66877771Y-50086053D01*
X66852681Y-50127126D01*
X66835373Y-50144676D01*
X66820380Y-50141987D01*
X66807173Y-50128429D01*
X66789292Y-50114030D01*
X66750666Y-50087213D01*
X66696062Y-50051152D01*
X66630248Y-50009022D01*
X66588568Y-49982899D01*
X66519983Y-49939595D01*
X66461364Y-49901335D01*
X66417006Y-49871024D01*
X66391203Y-49851564D01*
X66386405Y-49846206D01*
X66397208Y-49840423D01*
X66405198Y-49842441D01*
X66418942Y-49832934D01*
X66444167Y-49802495D01*
X66477644Y-49756224D01*
X66516141Y-49699219D01*
X66556431Y-49636581D01*
X66595282Y-49573408D01*
X66629466Y-49514799D01*
X66655752Y-49465855D01*
X66670912Y-49431673D01*
X66673188Y-49419325D01*
X66677282Y-49409751D01*
X66699509Y-49416349D01*
G37*
G36*
X73477242Y-47764690D02*
G01*
X73494566Y-47799660D01*
X73509901Y-47835222D01*
X73517437Y-47858725D01*
X73517541Y-47860153D01*
X73507591Y-47872506D01*
X73503363Y-47872108D01*
X73476421Y-47878113D01*
X73439454Y-47902373D01*
X73399902Y-47938875D01*
X73365204Y-47981602D01*
X73362052Y-47986349D01*
X73329920Y-48058579D01*
X73324766Y-48129676D01*
X73345170Y-48194511D01*
X73389714Y-48247957D01*
X73443263Y-48279690D01*
X73502880Y-48289327D01*
X73566045Y-48274743D01*
X73623549Y-48238758D01*
X73643386Y-48218431D01*
X73673643Y-48171984D01*
X73698185Y-48115332D01*
X73714422Y-48057525D01*
X73719762Y-48007609D01*
X73712721Y-47976269D01*
X73701064Y-47951568D01*
X73708559Y-47939319D01*
X73739230Y-47936743D01*
X73767489Y-47938447D01*
X73826198Y-47943120D01*
X73807798Y-48051789D01*
X73779530Y-48156111D01*
X73734599Y-48244789D01*
X73676233Y-48315511D01*
X73607662Y-48365966D01*
X73532117Y-48393842D01*
X73452828Y-48396828D01*
X73373024Y-48372612D01*
X73365107Y-48368588D01*
X73319865Y-48337041D01*
X73276757Y-48295287D01*
X73268184Y-48284782D01*
X73235419Y-48218571D01*
X73224023Y-48138643D01*
X73234129Y-48052326D01*
X73262585Y-47973460D01*
X73283640Y-47938563D01*
X73315224Y-47895229D01*
X73352565Y-47848928D01*
X73390890Y-47805126D01*
X73425428Y-47769294D01*
X73451406Y-47746899D01*
X73463735Y-47742962D01*
X73477242Y-47764690D01*
G37*
G36*
X74295174Y-44585305D02*
G01*
X74303281Y-44609151D01*
X74312704Y-44656762D01*
X74316981Y-44681589D01*
X74321610Y-44718080D01*
X74317007Y-44732211D01*
X74300766Y-44730732D01*
X74299599Y-44730367D01*
X74277510Y-44729989D01*
X74233959Y-44733812D01*
X74176184Y-44740766D01*
X74111426Y-44749781D01*
X74046923Y-44759790D01*
X73989916Y-44769721D01*
X73947644Y-44778505D01*
X73927346Y-44785074D01*
X73926943Y-44785416D01*
X73926136Y-44802586D01*
X73930540Y-44841130D01*
X73938723Y-44893272D01*
X73949254Y-44951233D01*
X73960701Y-45007236D01*
X73971633Y-45053503D01*
X73980618Y-45082257D01*
X73982154Y-45085394D01*
X73992224Y-45107921D01*
X73986046Y-45121246D01*
X73958490Y-45130116D01*
X73928012Y-45135528D01*
X73891546Y-45139453D01*
X73878119Y-45134046D01*
X73879566Y-45123261D01*
X73880136Y-45101365D01*
X73876038Y-45056022D01*
X73867977Y-44993193D01*
X73856656Y-44918845D01*
X73852344Y-44892911D01*
X73837340Y-44804697D01*
X73826967Y-44741922D01*
X73821089Y-44700508D01*
X73819570Y-44676375D01*
X73822276Y-44665446D01*
X73829070Y-44663642D01*
X73839818Y-44666884D01*
X73844891Y-44668585D01*
X73873458Y-44670426D01*
X73922790Y-44666675D01*
X73986026Y-44658556D01*
X74056302Y-44647295D01*
X74126755Y-44634115D01*
X74190523Y-44620241D01*
X74240741Y-44606898D01*
X74270548Y-44595310D01*
X74274918Y-44591858D01*
X74286385Y-44580961D01*
X74295174Y-44585305D01*
G37*
G36*
X69786030Y-50209451D02*
G01*
X69790356Y-50216382D01*
X69785222Y-50224289D01*
X69778562Y-50241439D01*
X69776471Y-50273850D01*
X69779057Y-50325696D01*
X69786430Y-50401152D01*
X69790848Y-50439766D01*
X69799638Y-50512356D01*
X69807488Y-50573343D01*
X69813634Y-50617054D01*
X69817310Y-50637816D01*
X69817669Y-50638701D01*
X69835459Y-50641043D01*
X69875322Y-50638708D01*
X69929986Y-50632767D01*
X69992182Y-50624290D01*
X70054639Y-50614347D01*
X70110087Y-50604008D01*
X70151256Y-50594344D01*
X70170511Y-50586767D01*
X70187728Y-50575850D01*
X70197519Y-50586074D01*
X70204148Y-50613029D01*
X70212839Y-50670456D01*
X70210364Y-50701764D01*
X70196532Y-50708646D01*
X70193441Y-50707667D01*
X70172432Y-50706799D01*
X70127739Y-50709304D01*
X70065310Y-50714572D01*
X69991096Y-50721992D01*
X69911045Y-50730957D01*
X69831106Y-50740855D01*
X69757230Y-50751077D01*
X69731461Y-50755002D01*
X69693325Y-50757457D01*
X69675824Y-50750817D01*
X69675399Y-50748800D01*
X69686916Y-50730207D01*
X69690039Y-50728798D01*
X69694419Y-50712756D01*
X69694296Y-50673399D01*
X69690456Y-50616838D01*
X69683684Y-50549186D01*
X69674764Y-50476557D01*
X69664483Y-50405063D01*
X69653625Y-50340817D01*
X69642975Y-50289932D01*
X69633319Y-50258520D01*
X69628767Y-50251790D01*
X69615587Y-50239450D01*
X69623670Y-50229801D01*
X69655911Y-50221541D01*
X69713540Y-50213557D01*
X69762072Y-50208757D01*
X69786030Y-50209451D01*
G37*
G36*
X67627253Y-41059553D02*
G01*
X67686822Y-41115420D01*
X67742127Y-41165539D01*
X67788003Y-41205352D01*
X67819283Y-41230299D01*
X67825340Y-41234382D01*
X67853681Y-41254150D01*
X67866401Y-41267930D01*
X67866453Y-41268413D01*
X67854049Y-41280582D01*
X67823898Y-41297397D01*
X67786591Y-41313966D01*
X67752718Y-41325397D01*
X67737988Y-41327758D01*
X67722212Y-41321372D01*
X67723085Y-41314982D01*
X67718711Y-41297308D01*
X67697588Y-41270937D01*
X67693867Y-41267338D01*
X67656753Y-41232471D01*
X67548566Y-41276406D01*
X67493787Y-41299581D01*
X67461001Y-41317350D01*
X67444154Y-41334676D01*
X67437192Y-41356517D01*
X67435694Y-41368900D01*
X67436726Y-41402322D01*
X67445835Y-41417353D01*
X67446906Y-41417458D01*
X67462986Y-41423353D01*
X67455189Y-41438367D01*
X67426501Y-41458491D01*
X67409971Y-41467014D01*
X67364550Y-41486518D01*
X67340199Y-41489240D01*
X67332324Y-41473738D01*
X67335419Y-41443621D01*
X67338710Y-41411365D01*
X67341907Y-41356082D01*
X67344707Y-41284647D01*
X67346343Y-41221677D01*
X67447853Y-41221677D01*
X67515128Y-41196743D01*
X67554366Y-41180325D01*
X67578609Y-41166569D01*
X67582403Y-41161885D01*
X67571749Y-41147811D01*
X67544168Y-41121608D01*
X67515128Y-41096834D01*
X67447853Y-41041707D01*
X67447853Y-41131692D01*
X67447853Y-41221677D01*
X67346343Y-41221677D01*
X67346804Y-41203931D01*
X67347309Y-41175199D01*
X67347976Y-41131692D01*
X67350679Y-40955364D01*
X67410478Y-40932580D01*
X67470278Y-40909797D01*
X67627253Y-41059553D01*
G37*
G36*
X71069488Y-49890023D02*
G01*
X71084716Y-49928158D01*
X71086548Y-49933492D01*
X71102230Y-49980275D01*
X71108785Y-50004378D01*
X71106796Y-50011403D01*
X71096850Y-50006948D01*
X71094034Y-50005220D01*
X71071892Y-50003886D01*
X71031025Y-50010733D01*
X70988765Y-50021842D01*
X70938789Y-50038884D01*
X70913459Y-50053332D01*
X70908049Y-50068185D01*
X70909253Y-50072308D01*
X70917549Y-50095144D01*
X70933302Y-50139772D01*
X70954240Y-50199713D01*
X70977670Y-50267282D01*
X71001862Y-50334434D01*
X71024072Y-50390948D01*
X71041855Y-50430921D01*
X71052763Y-50448455D01*
X71052831Y-50448498D01*
X71049427Y-50458213D01*
X71023560Y-50472573D01*
X70997320Y-50482695D01*
X70951408Y-50498258D01*
X70927155Y-50504624D01*
X70917718Y-50501639D01*
X70916258Y-50489149D01*
X70916378Y-50480878D01*
X70911679Y-50457341D01*
X70898757Y-50411983D01*
X70879528Y-50351113D01*
X70855912Y-50281036D01*
X70853343Y-50273651D01*
X70790176Y-50092587D01*
X70703712Y-50121786D01*
X70658241Y-50139185D01*
X70626921Y-50155075D01*
X70617247Y-50164564D01*
X70612148Y-50180164D01*
X70599841Y-50172913D01*
X70584810Y-50147481D01*
X70574764Y-50120344D01*
X70562245Y-50076667D01*
X70559297Y-50054604D01*
X70566763Y-50047171D01*
X70583610Y-50047252D01*
X70609367Y-50043113D01*
X70655979Y-50030336D01*
X70717250Y-50011114D01*
X70786980Y-49987644D01*
X70858972Y-49962122D01*
X70927029Y-49936743D01*
X70984952Y-49913703D01*
X71026543Y-49895198D01*
X71045436Y-49883639D01*
X71057506Y-49876531D01*
X71069488Y-49890023D01*
G37*
G36*
X67015254Y-41189246D02*
G01*
X67079063Y-41219812D01*
X67132422Y-41269101D01*
X67171987Y-41331642D01*
X67194413Y-41401966D01*
X67196357Y-41474602D01*
X67174475Y-41544082D01*
X67170033Y-41552042D01*
X67137298Y-41589094D01*
X67076787Y-41636080D01*
X66988336Y-41693125D01*
X66984404Y-41695504D01*
X66901249Y-41744257D01*
X66841966Y-41775667D01*
X66806186Y-41789896D01*
X66793539Y-41787100D01*
X66797768Y-41775872D01*
X66794364Y-41757365D01*
X66777719Y-41719551D01*
X66751134Y-41668026D01*
X66717910Y-41608389D01*
X66681349Y-41546238D01*
X66644753Y-41487172D01*
X66611422Y-41436787D01*
X66584659Y-41400683D01*
X66567765Y-41384458D01*
X66566746Y-41384145D01*
X66566447Y-41377964D01*
X66715473Y-41377964D01*
X66763006Y-41461249D01*
X66794232Y-41516287D01*
X66824673Y-41570463D01*
X66841409Y-41600588D01*
X66858686Y-41629735D01*
X66874831Y-41644534D01*
X66896077Y-41644540D01*
X66928655Y-41629306D01*
X66978797Y-41598387D01*
X66992237Y-41589799D01*
X67051671Y-41546723D01*
X67084980Y-41507059D01*
X67094356Y-41464628D01*
X67081993Y-41413248D01*
X67066922Y-41379343D01*
X67032779Y-41322345D01*
X66996135Y-41289008D01*
X66981593Y-41281744D01*
X66956361Y-41273112D01*
X66932931Y-41272272D01*
X66903553Y-41281120D01*
X66860477Y-41301554D01*
X66824969Y-41320094D01*
X66715473Y-41377964D01*
X66566447Y-41377964D01*
X66566343Y-41375825D01*
X66588094Y-41357759D01*
X66626960Y-41332631D01*
X66677901Y-41303127D01*
X66735880Y-41271935D01*
X66795856Y-41241738D01*
X66852792Y-41215224D01*
X66901649Y-41195079D01*
X66937388Y-41183987D01*
X66944339Y-41182872D01*
X67015254Y-41189246D01*
G37*
G36*
X74072164Y-43813285D02*
G01*
X74086948Y-43837677D01*
X74099544Y-43872991D01*
X74111605Y-43925485D01*
X74110824Y-43954281D01*
X74096776Y-43962880D01*
X74088802Y-43961802D01*
X74061509Y-43963984D01*
X74015263Y-43975488D01*
X73958390Y-43993389D01*
X73899212Y-44014759D01*
X73846055Y-44036672D01*
X73807241Y-44056203D01*
X73794671Y-44065201D01*
X73772451Y-44105222D01*
X73767703Y-44158783D01*
X73778306Y-44216837D01*
X73802139Y-44270339D01*
X73837083Y-44310240D01*
X73854578Y-44320775D01*
X73877803Y-44327265D01*
X73908605Y-44326411D01*
X73953536Y-44317280D01*
X74019147Y-44298936D01*
X74029521Y-44295830D01*
X74091334Y-44275513D01*
X74143076Y-44255327D01*
X74177371Y-44238306D01*
X74186081Y-44231444D01*
X74200440Y-44219130D01*
X74211659Y-44230049D01*
X74219599Y-44248924D01*
X74239421Y-44305823D01*
X74246137Y-44340261D01*
X74239973Y-44356543D01*
X74225342Y-44359357D01*
X74199978Y-44363127D01*
X74153792Y-44374569D01*
X74094265Y-44391715D01*
X74051824Y-44405030D01*
X73983604Y-44427112D01*
X73937427Y-44441155D01*
X73906774Y-44447962D01*
X73885128Y-44448339D01*
X73865971Y-44443093D01*
X73842782Y-44433028D01*
X73838966Y-44431335D01*
X73798458Y-44407996D01*
X73768524Y-44382786D01*
X73730404Y-44324681D01*
X73699539Y-44249113D01*
X73680275Y-44168378D01*
X73676066Y-44121225D01*
X73678170Y-44062535D01*
X73689656Y-44017741D01*
X73714626Y-43982714D01*
X73757182Y-43953326D01*
X73821424Y-43925450D01*
X73895953Y-43899923D01*
X73966052Y-43875633D01*
X74018622Y-43853998D01*
X74049412Y-43836907D01*
X74055740Y-43828910D01*
X74060485Y-43809078D01*
X74072164Y-43813285D01*
G37*
G36*
X68295271Y-40716482D02*
G01*
X68359639Y-40762736D01*
X68404857Y-40824345D01*
X68430313Y-40895265D01*
X68435394Y-40969453D01*
X68419490Y-41040866D01*
X68381986Y-41103460D01*
X68338335Y-41141631D01*
X68312897Y-41152823D01*
X68265869Y-41169037D01*
X68204691Y-41188137D01*
X68136804Y-41207988D01*
X68069648Y-41226455D01*
X68010664Y-41241402D01*
X67967291Y-41250694D01*
X67951407Y-41252681D01*
X67945239Y-41241307D01*
X67948169Y-41224710D01*
X67948390Y-41197992D01*
X67941354Y-41150242D01*
X67928789Y-41088230D01*
X67912421Y-41018728D01*
X67893978Y-40948506D01*
X67875189Y-40884335D01*
X67859031Y-40836676D01*
X67986052Y-40836676D01*
X67989473Y-40856569D01*
X67998393Y-40897104D01*
X68010802Y-40949979D01*
X68024688Y-41006894D01*
X68038039Y-41059549D01*
X68048844Y-41099644D01*
X68053438Y-41114721D01*
X68057933Y-41125942D01*
X68066003Y-41131245D01*
X68084054Y-41130328D01*
X68118490Y-41122891D01*
X68174021Y-41109059D01*
X68251326Y-41081954D01*
X68301522Y-41045501D01*
X68326383Y-40998075D01*
X68329902Y-40966463D01*
X68319686Y-40903651D01*
X68292877Y-40844442D01*
X68255232Y-40800951D01*
X68249175Y-40796641D01*
X68227524Y-40784324D01*
X68205525Y-40779149D01*
X68174844Y-40781111D01*
X68127145Y-40790200D01*
X68098426Y-40796498D01*
X68045193Y-40810164D01*
X68005589Y-40823804D01*
X67986717Y-40834878D01*
X67986052Y-40836676D01*
X67859031Y-40836676D01*
X67857780Y-40832987D01*
X67843479Y-40801232D01*
X67838578Y-40795182D01*
X67835100Y-40786989D01*
X67848141Y-40777519D01*
X67880888Y-40765620D01*
X67936527Y-40750135D01*
X68018244Y-40729912D01*
X68019627Y-40729580D01*
X68223265Y-40680780D01*
X68295271Y-40716482D01*
G37*
G36*
X71520824Y-40959550D02*
G01*
X71606121Y-40989060D01*
X71612732Y-40992167D01*
X71664026Y-41021555D01*
X71723305Y-41062552D01*
X71773861Y-41103026D01*
X71858929Y-41177467D01*
X71794975Y-41223877D01*
X71757616Y-41249727D01*
X71737451Y-41258705D01*
X71728248Y-41252525D01*
X71725537Y-41242961D01*
X71701460Y-41189514D01*
X71654703Y-41137335D01*
X71592115Y-41092372D01*
X71520548Y-41060575D01*
X71512866Y-41058263D01*
X71467222Y-41053317D01*
X71430248Y-41063449D01*
X71410734Y-41085638D01*
X71409596Y-41093763D01*
X71422227Y-41120085D01*
X71456816Y-41155097D01*
X71508403Y-41194472D01*
X71566570Y-41230804D01*
X71647922Y-41286356D01*
X71700773Y-41343893D01*
X71724789Y-41402560D01*
X71719635Y-41461505D01*
X71684977Y-41519871D01*
X71681545Y-41523793D01*
X71647632Y-41554849D01*
X71609627Y-41570433D01*
X71565682Y-41576107D01*
X71509066Y-41575043D01*
X71454707Y-41566059D01*
X71438678Y-41561030D01*
X71332268Y-41512920D01*
X71245997Y-41456462D01*
X71194663Y-41411018D01*
X71126863Y-41344178D01*
X71186004Y-41297337D01*
X71222409Y-41271099D01*
X71241002Y-41264970D01*
X71245146Y-41273657D01*
X71256416Y-41303332D01*
X71285534Y-41342094D01*
X71325460Y-41382456D01*
X71369157Y-41416932D01*
X71393230Y-41431168D01*
X71461250Y-41459381D01*
X71518772Y-41472042D01*
X71561579Y-41469088D01*
X71585456Y-41450460D01*
X71588995Y-41434007D01*
X71580082Y-41407001D01*
X71551548Y-41375520D01*
X71500698Y-41337176D01*
X71428730Y-41291895D01*
X71357004Y-41244538D01*
X71310049Y-41201135D01*
X71284038Y-41156916D01*
X71275145Y-41107110D01*
X71275046Y-41100343D01*
X71287415Y-41037804D01*
X71321986Y-40991236D01*
X71374949Y-40961858D01*
X71442498Y-40950889D01*
X71520824Y-40959550D01*
G37*
G36*
X66111740Y-41801473D02*
G01*
X66117077Y-41831097D01*
X66122349Y-41859465D01*
X66127376Y-41874805D01*
X66130067Y-41893472D01*
X66112190Y-41891355D01*
X66111591Y-41891126D01*
X66072747Y-41890229D01*
X66023639Y-41907836D01*
X65971944Y-41938534D01*
X65925340Y-41976908D01*
X65891503Y-42017545D01*
X65878113Y-42055031D01*
X65878106Y-42055765D01*
X65886506Y-42083086D01*
X65912278Y-42088459D01*
X65956283Y-42071759D01*
X66014891Y-42035924D01*
X66088445Y-41989907D01*
X66152083Y-41957715D01*
X66200499Y-41941901D01*
X66212854Y-41940707D01*
X66237581Y-41949773D01*
X66271745Y-41972268D01*
X66280609Y-41979411D01*
X66318065Y-42028295D01*
X66328781Y-42087078D01*
X66312738Y-42152250D01*
X66281700Y-42205179D01*
X66247923Y-42246658D01*
X66210664Y-42280962D01*
X66162400Y-42313809D01*
X66095610Y-42350912D01*
X66077624Y-42360244D01*
X66000568Y-42399894D01*
X65977104Y-42340163D01*
X65962206Y-42291802D01*
X65964210Y-42266509D01*
X65982901Y-42265091D01*
X65995498Y-42271697D01*
X66027257Y-42275547D01*
X66070863Y-42260967D01*
X66119621Y-42232985D01*
X66166840Y-42196629D01*
X66205826Y-42156926D01*
X66229886Y-42118906D01*
X66233813Y-42092666D01*
X66219475Y-42069063D01*
X66188696Y-42066467D01*
X66140176Y-42085158D01*
X66072616Y-42125412D01*
X66068721Y-42127991D01*
X66010809Y-42162976D01*
X65955819Y-42190138D01*
X65913424Y-42204791D01*
X65908233Y-42205692D01*
X65869455Y-42207152D01*
X65841511Y-42194506D01*
X65813514Y-42165418D01*
X65788031Y-42128746D01*
X65774252Y-42096485D01*
X65773457Y-42090033D01*
X65787340Y-42026267D01*
X65826283Y-41960480D01*
X65886225Y-41897431D01*
X65963104Y-41841880D01*
X66004251Y-41819558D01*
X66059244Y-41795702D01*
X66093767Y-41789540D01*
X66111740Y-41801473D01*
G37*
G36*
X69698253Y-40570316D02*
G01*
X69773613Y-40578326D01*
X69808817Y-40582303D01*
X69901614Y-40595844D01*
X69970307Y-40613899D01*
X70020630Y-40639038D01*
X70058316Y-40673831D01*
X70079129Y-40703461D01*
X70102171Y-40765165D01*
X70108823Y-40839802D01*
X70099023Y-40915257D01*
X70080471Y-40965817D01*
X70047274Y-41015260D01*
X70003836Y-41049883D01*
X69946300Y-41070707D01*
X69870807Y-41078752D01*
X69773500Y-41075036D01*
X69697824Y-41066936D01*
X69626218Y-41057966D01*
X69579602Y-41051702D01*
X69553341Y-41046810D01*
X69542799Y-41041960D01*
X69543340Y-41035818D01*
X69550329Y-41027052D01*
X69551971Y-41025022D01*
X69559256Y-41002992D01*
X69566196Y-40965405D01*
X69678329Y-40965405D01*
X69686084Y-40978155D01*
X69711047Y-40984566D01*
X69752878Y-40988433D01*
X69840742Y-40991649D01*
X69904491Y-40985134D01*
X69948509Y-40968199D01*
X69965034Y-40955068D01*
X69986803Y-40918984D01*
X69998947Y-40861288D01*
X70000988Y-40838728D01*
X70000248Y-40775786D01*
X69984976Y-40731240D01*
X69951263Y-40701361D01*
X69895195Y-40682420D01*
X69826106Y-40672035D01*
X69773048Y-40667513D01*
X69733108Y-40666268D01*
X69714120Y-40668513D01*
X69713641Y-40668991D01*
X69710025Y-40686965D01*
X69705007Y-40726720D01*
X69699579Y-40780237D01*
X69698736Y-40789560D01*
X69692787Y-40850430D01*
X69686550Y-40904541D01*
X69681323Y-40940690D01*
X69681082Y-40941980D01*
X69678329Y-40965405D01*
X69566196Y-40965405D01*
X69567542Y-40958116D01*
X69576099Y-40897398D01*
X69584200Y-40827841D01*
X69591117Y-40756451D01*
X69596123Y-40690230D01*
X69598490Y-40636183D01*
X69597490Y-40601313D01*
X69596539Y-40596058D01*
X69594161Y-40581232D01*
X69598957Y-40571517D01*
X69615112Y-40566640D01*
X69646815Y-40566330D01*
X69698253Y-40570316D01*
G37*
G36*
X65194034Y-47822700D02*
G01*
X65250574Y-47848762D01*
X65306171Y-47895626D01*
X65356571Y-47959229D01*
X65397521Y-48035507D01*
X65415157Y-48083599D01*
X65431696Y-48137558D01*
X65445551Y-48182726D01*
X65453464Y-48208482D01*
X65454290Y-48223872D01*
X65440314Y-48231749D01*
X65405270Y-48234471D01*
X65383934Y-48234645D01*
X65339597Y-48233554D01*
X65319978Y-48228991D01*
X65319935Y-48219019D01*
X65324822Y-48212384D01*
X65336113Y-48177751D01*
X65331452Y-48128380D01*
X65314224Y-48072340D01*
X65287810Y-48017699D01*
X65255595Y-47972527D01*
X65220961Y-47944893D01*
X65211195Y-47941374D01*
X65171119Y-47939161D01*
X65152437Y-47957644D01*
X65155429Y-47996341D01*
X65164285Y-48021089D01*
X65182889Y-48065528D01*
X65207203Y-48123559D01*
X65227535Y-48172059D01*
X65252802Y-48246081D01*
X65257758Y-48303455D01*
X65242070Y-48349777D01*
X65215076Y-48382037D01*
X65160105Y-48414524D01*
X65096669Y-48421568D01*
X65048105Y-48408743D01*
X64997115Y-48374074D01*
X64944904Y-48319154D01*
X64896966Y-48252273D01*
X64858796Y-48181721D01*
X64835888Y-48115789D01*
X64831755Y-48082290D01*
X64826539Y-48049114D01*
X64816415Y-48032670D01*
X64805691Y-48017321D01*
X64819875Y-48004130D01*
X64853994Y-47996333D01*
X64873603Y-47995446D01*
X64907879Y-47996916D01*
X64924246Y-48006822D01*
X64929964Y-48033402D01*
X64931310Y-48060944D01*
X64941514Y-48122126D01*
X64964793Y-48183303D01*
X64996987Y-48238250D01*
X65033940Y-48280747D01*
X65071494Y-48304570D01*
X65095637Y-48306858D01*
X65120255Y-48291174D01*
X65125267Y-48256486D01*
X65110566Y-48201670D01*
X65079147Y-48131711D01*
X65039920Y-48038821D01*
X65024664Y-47963202D01*
X65033350Y-47904286D01*
X65065762Y-47861656D01*
X65104644Y-47836721D01*
X65140802Y-47821502D01*
X65194034Y-47822700D01*
G37*
G36*
X72814645Y-48641649D02*
G01*
X72828656Y-48660671D01*
X72859140Y-48694032D01*
X72901783Y-48737634D01*
X72952273Y-48787379D01*
X73006294Y-48839166D01*
X73059536Y-48888898D01*
X73107683Y-48932475D01*
X73146423Y-48965800D01*
X73171442Y-48984772D01*
X73178448Y-48987354D01*
X73187306Y-48989632D01*
X73188642Y-48999144D01*
X73179616Y-49021314D01*
X73157189Y-49049831D01*
X73128342Y-49078258D01*
X73100056Y-49100155D01*
X73079308Y-49109084D01*
X73073361Y-49105481D01*
X73061988Y-49097859D01*
X73032226Y-49092424D01*
X72980995Y-49088935D01*
X72905217Y-49087153D01*
X72832685Y-49086793D01*
X72598820Y-49086793D01*
X72717934Y-49206610D01*
X72767009Y-49253792D01*
X72809778Y-49290890D01*
X72841305Y-49313872D01*
X72855870Y-49319204D01*
X72873221Y-49317641D01*
X72869178Y-49333091D01*
X72844964Y-49363004D01*
X72825394Y-49382860D01*
X72786809Y-49417332D01*
X72764325Y-49429494D01*
X72755469Y-49420466D01*
X72755093Y-49414666D01*
X72744801Y-49399366D01*
X72716919Y-49368263D01*
X72675937Y-49325717D01*
X72626345Y-49276086D01*
X72572635Y-49223727D01*
X72519296Y-49172999D01*
X72470819Y-49128261D01*
X72431695Y-49093870D01*
X72406413Y-49074185D01*
X72401557Y-49071535D01*
X72396810Y-49059572D01*
X72413832Y-49033713D01*
X72448296Y-48997410D01*
X72482666Y-48966204D01*
X72507005Y-48948929D01*
X72515893Y-48949131D01*
X72524609Y-48956558D01*
X72552671Y-48961842D01*
X72602952Y-48965212D01*
X72678328Y-48966895D01*
X72743506Y-48967193D01*
X72971119Y-48967193D01*
X72859743Y-48855069D01*
X72808271Y-48806016D01*
X72763549Y-48768568D01*
X72730691Y-48746793D01*
X72718796Y-48742944D01*
X72705184Y-48739691D01*
X72708504Y-48727028D01*
X72730868Y-48700597D01*
X72747992Y-48682761D01*
X72786401Y-48647733D01*
X72809142Y-48637234D01*
X72814645Y-48641649D01*
G37*
G36*
X73846144Y-43339991D02*
G01*
X73865090Y-43357027D01*
X73887227Y-43396508D01*
X73888512Y-43399142D01*
X73909821Y-43444011D01*
X73918876Y-43468368D01*
X73916751Y-43478464D01*
X73904521Y-43480554D01*
X73902503Y-43480564D01*
X73888011Y-43491721D01*
X73859465Y-43521970D01*
X73820756Y-43566482D01*
X73775772Y-43620431D01*
X73728403Y-43678989D01*
X73682538Y-43737331D01*
X73642068Y-43790629D01*
X73610882Y-43834055D01*
X73592869Y-43862784D01*
X73590744Y-43867458D01*
X73581413Y-43873600D01*
X73565372Y-43855475D01*
X73541905Y-43813191D01*
X73521078Y-43766739D01*
X73515250Y-43740009D01*
X73520064Y-43734704D01*
X73542952Y-43725229D01*
X73571676Y-43703103D01*
X73605314Y-43671503D01*
X73550674Y-43561079D01*
X73522881Y-43506566D01*
X73502560Y-43473726D01*
X73484591Y-43457107D01*
X73476014Y-43454688D01*
X73613175Y-43454688D01*
X73614797Y-43470624D01*
X73625491Y-43502408D01*
X73640753Y-43539247D01*
X73656078Y-43570348D01*
X73666960Y-43584920D01*
X73667587Y-43585052D01*
X73679952Y-43574092D01*
X73704370Y-43545318D01*
X73733131Y-43508156D01*
X73790653Y-43431107D01*
X73704848Y-43439963D01*
X73657536Y-43445687D01*
X73623955Y-43451327D01*
X73613175Y-43454688D01*
X73476014Y-43454688D01*
X73463860Y-43451260D01*
X73446988Y-43450654D01*
X73413728Y-43454641D01*
X73398110Y-43464365D01*
X73397942Y-43465604D01*
X73392553Y-43481461D01*
X73379150Y-43473741D01*
X73361871Y-43446187D01*
X73352432Y-43424492D01*
X73337897Y-43387278D01*
X73328335Y-43363686D01*
X73327113Y-43360954D01*
X73339914Y-43358239D01*
X73377668Y-43355589D01*
X73435431Y-43353228D01*
X73508256Y-43351375D01*
X73558108Y-43350589D01*
X73641156Y-43349101D01*
X73715496Y-43346901D01*
X73775134Y-43344234D01*
X73814073Y-43341342D01*
X73824320Y-43339789D01*
X73846144Y-43339991D01*
G37*
G36*
X72178331Y-41437966D02*
G01*
X72211101Y-41457365D01*
X72242580Y-41481216D01*
X72256293Y-41494514D01*
X72270594Y-41523225D01*
X72263407Y-41546838D01*
X72255513Y-41571416D01*
X72244761Y-41618680D01*
X72232343Y-41681691D01*
X72219453Y-41753509D01*
X72207281Y-41827198D01*
X72197021Y-41895817D01*
X72189864Y-41952429D01*
X72187003Y-41990094D01*
X72186994Y-41991530D01*
X72183059Y-42021837D01*
X72168331Y-42027305D01*
X72138425Y-42009170D01*
X72134669Y-42006292D01*
X72098604Y-41978994D01*
X72076609Y-41962848D01*
X72057403Y-41945252D01*
X72062681Y-41928948D01*
X72072871Y-41918145D01*
X72095792Y-41884495D01*
X72094608Y-41850586D01*
X72067995Y-41813386D01*
X72014626Y-41769860D01*
X72005268Y-41763311D01*
X71956811Y-41730961D01*
X71924613Y-41713805D01*
X71900935Y-41709205D01*
X71878035Y-41714520D01*
X71870718Y-41717422D01*
X71837521Y-41740617D01*
X71828195Y-41764091D01*
X71825966Y-41779811D01*
X71815234Y-41780836D01*
X71789929Y-41765837D01*
X71768714Y-41751065D01*
X71726441Y-41717825D01*
X71709472Y-41696121D01*
X71718430Y-41686844D01*
X71723563Y-41686558D01*
X71743031Y-41679165D01*
X71781474Y-41659133D01*
X71792336Y-41652998D01*
X72005998Y-41652998D01*
X72021748Y-41671565D01*
X72047997Y-41690640D01*
X72090956Y-41718482D01*
X72115272Y-41728886D01*
X72125666Y-41723070D01*
X72127194Y-41711069D01*
X72129132Y-41684874D01*
X72134040Y-41641771D01*
X72137072Y-41618665D01*
X72146950Y-41546599D01*
X72088484Y-41581509D01*
X72037458Y-41613113D01*
X72010599Y-41635228D01*
X72005998Y-41652998D01*
X71792336Y-41652998D01*
X71833616Y-41629683D01*
X71894183Y-41594036D01*
X71957898Y-41555412D01*
X72019487Y-41517032D01*
X72073674Y-41482116D01*
X72115183Y-41453886D01*
X72138740Y-41435561D01*
X72142144Y-41431010D01*
X72152575Y-41427640D01*
X72178331Y-41437966D01*
G37*
G36*
X64194622Y-45183513D02*
G01*
X64215029Y-45188929D01*
X64259318Y-45194116D01*
X64321475Y-45198561D01*
X64395483Y-45201754D01*
X64415764Y-45202312D01*
X64512133Y-45205974D01*
X64583725Y-45212809D01*
X64635636Y-45224634D01*
X64672958Y-45243265D01*
X64700785Y-45270520D01*
X64724210Y-45308214D01*
X64726837Y-45313270D01*
X64739301Y-45355944D01*
X64746495Y-45418628D01*
X64748546Y-45491921D01*
X64745578Y-45566425D01*
X64737718Y-45632739D01*
X64725092Y-45681463D01*
X64721804Y-45688662D01*
X64699184Y-45728036D01*
X64674838Y-45756666D01*
X64643750Y-45776240D01*
X64600901Y-45788445D01*
X64541277Y-45794969D01*
X64459860Y-45797498D01*
X64397289Y-45797800D01*
X64304149Y-45798558D01*
X64237797Y-45800999D01*
X64195156Y-45805375D01*
X64173150Y-45811938D01*
X64168761Y-45816487D01*
X64164947Y-45812387D01*
X64161870Y-45784258D01*
X64160132Y-45737972D01*
X64160040Y-45731272D01*
X64160508Y-45676728D01*
X64163984Y-45648071D01*
X64171236Y-45641373D01*
X64176800Y-45645310D01*
X64200815Y-45654224D01*
X64247507Y-45660394D01*
X64309787Y-45663900D01*
X64380566Y-45664822D01*
X64452754Y-45663242D01*
X64519262Y-45659240D01*
X64573001Y-45652896D01*
X64606882Y-45644292D01*
X64613179Y-45640344D01*
X64636648Y-45599728D01*
X64649266Y-45542293D01*
X64651231Y-45477776D01*
X64642741Y-45415911D01*
X64623994Y-45366436D01*
X64607184Y-45346153D01*
X64588832Y-45334780D01*
X64563228Y-45327085D01*
X64524776Y-45322401D01*
X64467881Y-45320063D01*
X64386947Y-45319402D01*
X64382699Y-45319401D01*
X64296362Y-45320327D01*
X64236763Y-45323302D01*
X64200794Y-45328619D01*
X64185346Y-45336571D01*
X64184577Y-45338088D01*
X64174811Y-45354349D01*
X64167846Y-45345631D01*
X64164640Y-45316798D01*
X64166153Y-45272712D01*
X64168027Y-45254127D01*
X64176006Y-45204655D01*
X64185470Y-45182769D01*
X64194622Y-45183513D01*
G37*
G36*
X67405249Y-49813907D02*
G01*
X67454716Y-49834030D01*
X67457324Y-49835147D01*
X67499087Y-49855620D01*
X67513967Y-49870275D01*
X67508821Y-49878420D01*
X67501377Y-49888321D01*
X67496624Y-49909761D01*
X67494423Y-49946725D01*
X67494635Y-50003197D01*
X67497121Y-50083165D01*
X67499596Y-50142926D01*
X67504071Y-50228350D01*
X67509446Y-50304583D01*
X67515221Y-50366057D01*
X67520893Y-50407202D01*
X67524614Y-50421078D01*
X67530107Y-50441174D01*
X67515744Y-50446077D01*
X67479601Y-50435621D01*
X67425971Y-50412530D01*
X67383448Y-50389762D01*
X67366896Y-50373213D01*
X67369909Y-50366990D01*
X67381813Y-50345847D01*
X67387709Y-50308271D01*
X67387852Y-50300596D01*
X67386627Y-50272991D01*
X67379482Y-50253588D01*
X67360852Y-50237280D01*
X67325172Y-50218960D01*
X67274921Y-50196977D01*
X67162191Y-50148538D01*
X67117742Y-50181401D01*
X67090563Y-50207529D01*
X67080092Y-50230169D01*
X67080704Y-50233577D01*
X67080933Y-50249712D01*
X67061535Y-50249807D01*
X67020118Y-50233671D01*
X67007336Y-50227697D01*
X66972141Y-50207195D01*
X66954586Y-50189514D01*
X66958392Y-50179192D01*
X66966740Y-50178141D01*
X66984228Y-50168635D01*
X67018597Y-50142774D01*
X67065364Y-50104539D01*
X67084453Y-50088263D01*
X67220298Y-50088263D01*
X67285488Y-50117196D01*
X67337793Y-50139116D01*
X67368055Y-50145254D01*
X67381224Y-50132693D01*
X67382251Y-50098514D01*
X67378633Y-50062279D01*
X67373167Y-50015698D01*
X67368974Y-49983513D01*
X67367290Y-49973915D01*
X67355820Y-49981192D01*
X67327558Y-50002545D01*
X67292963Y-50029889D01*
X67220298Y-50088263D01*
X67084453Y-50088263D01*
X67120047Y-50057915D01*
X67178163Y-50006883D01*
X67235232Y-49955426D01*
X67286769Y-49907528D01*
X67328294Y-49867172D01*
X67355324Y-49838339D01*
X67363552Y-49825536D01*
X67365036Y-49810210D01*
X67377145Y-49806150D01*
X67405249Y-49813907D01*
G37*
G36*
X73438107Y-42490630D02*
G01*
X73463167Y-42522995D01*
X73498672Y-42571793D01*
X73541531Y-42632814D01*
X73569116Y-42672992D01*
X73621579Y-42751248D01*
X73658907Y-42810475D01*
X73683728Y-42855693D01*
X73698672Y-42891925D01*
X73706368Y-42924190D01*
X73708142Y-42938496D01*
X73710151Y-42985296D01*
X73701950Y-43016442D01*
X73679258Y-43045584D01*
X73672335Y-43052642D01*
X73613137Y-43100176D01*
X73556726Y-43119301D01*
X73499192Y-43110752D01*
X73461615Y-43092102D01*
X73429496Y-43065582D01*
X73389014Y-43022568D01*
X73348118Y-42971625D01*
X73342015Y-42963239D01*
X73306408Y-42913542D01*
X73275928Y-42871017D01*
X73256080Y-42843347D01*
X73253590Y-42839880D01*
X73241734Y-42828942D01*
X73224982Y-42829620D01*
X73196980Y-42844043D01*
X73151965Y-42873935D01*
X73105353Y-42909646D01*
X73079254Y-42937700D01*
X73075336Y-42952142D01*
X73079559Y-42972427D01*
X73069688Y-42970966D01*
X73048825Y-42950473D01*
X73020071Y-42913663D01*
X73002843Y-42888693D01*
X72974611Y-42843971D01*
X72963425Y-42819550D01*
X72968032Y-42812082D01*
X72974564Y-42813253D01*
X72996728Y-42808058D01*
X73037010Y-42787931D01*
X73090462Y-42756314D01*
X73091904Y-42755387D01*
X73325834Y-42755387D01*
X73394195Y-42852609D01*
X73428421Y-42901072D01*
X73457145Y-42941361D01*
X73475080Y-42966068D01*
X73476929Y-42968518D01*
X73505385Y-42984535D01*
X73543341Y-42984634D01*
X73574351Y-42969265D01*
X73588410Y-42947680D01*
X73588978Y-42920317D01*
X73574517Y-42882391D01*
X73543489Y-42829115D01*
X73515791Y-42787069D01*
X73439292Y-42673832D01*
X73382563Y-42714610D01*
X73325834Y-42755387D01*
X73091904Y-42755387D01*
X73152136Y-42716654D01*
X73217084Y-42672396D01*
X73280359Y-42626983D01*
X73337013Y-42583863D01*
X73382098Y-42546478D01*
X73410667Y-42518275D01*
X73418290Y-42504298D01*
X73421510Y-42482609D01*
X73426583Y-42478906D01*
X73438107Y-42490630D01*
G37*
G36*
X74202072Y-47233959D02*
G01*
X74202001Y-47234139D01*
X74176471Y-47298706D01*
X74158499Y-47340415D01*
X74143875Y-47363893D01*
X74128389Y-47373768D01*
X74107831Y-47374668D01*
X74077989Y-47371221D01*
X74077351Y-47371149D01*
X74010961Y-47363666D01*
X73973962Y-47447328D01*
X73945203Y-47515301D01*
X73929402Y-47562901D01*
X73925830Y-47596336D01*
X73933755Y-47621817D01*
X73950854Y-47643869D01*
X73982841Y-47667732D01*
X74007602Y-47670346D01*
X74023549Y-47668858D01*
X74020405Y-47687653D01*
X74019432Y-47690113D01*
X74005472Y-47726190D01*
X73992949Y-47759983D01*
X73979429Y-47788810D01*
X73968316Y-47799594D01*
X73955523Y-47788610D01*
X73926082Y-47759072D01*
X73883438Y-47714570D01*
X73831037Y-47658690D01*
X73781689Y-47605244D01*
X73715679Y-47534999D01*
X73659090Y-47478199D01*
X73614735Y-47437494D01*
X73585427Y-47415531D01*
X73576956Y-47412396D01*
X73561923Y-47410653D01*
X73557516Y-47400992D01*
X73562518Y-47382497D01*
X73710111Y-47382497D01*
X73773141Y-47457246D01*
X73806716Y-47495452D01*
X73832988Y-47522396D01*
X73845778Y-47531996D01*
X73856360Y-47519358D01*
X73870966Y-47487849D01*
X73875450Y-47475934D01*
X73890118Y-47435136D01*
X73901032Y-47405097D01*
X73902478Y-47401184D01*
X73897810Y-47390610D01*
X73871502Y-47384646D01*
X73819777Y-47382529D01*
X73809775Y-47382497D01*
X73710111Y-47382497D01*
X73562518Y-47382497D01*
X73564067Y-47376769D01*
X73580866Y-47333909D01*
X73601848Y-47283008D01*
X73615153Y-47255694D01*
X73624149Y-47247767D01*
X73632202Y-47255029D01*
X73637234Y-47263594D01*
X73644600Y-47271760D01*
X73658690Y-47276779D01*
X73683825Y-47278616D01*
X73724327Y-47277236D01*
X73784515Y-47272602D01*
X73868711Y-47264681D01*
X73901475Y-47261442D01*
X73986903Y-47252427D01*
X74063418Y-47243395D01*
X74125403Y-47235083D01*
X74167241Y-47228229D01*
X74181673Y-47224636D01*
X74202309Y-47220029D01*
X74202072Y-47233959D01*
G37*
G36*
X68211408Y-50099141D02*
G01*
X68267645Y-50108518D01*
X68333935Y-50120871D01*
X68403924Y-50134933D01*
X68471256Y-50149436D01*
X68529574Y-50163112D01*
X68572523Y-50174693D01*
X68591526Y-50181586D01*
X68648477Y-50219883D01*
X68679550Y-50266036D01*
X68688701Y-50323922D01*
X68683634Y-50374399D01*
X68664130Y-50412241D01*
X68645001Y-50433441D01*
X68610974Y-50461641D01*
X68574884Y-50474212D01*
X68529139Y-50476615D01*
X68474215Y-50472945D01*
X68407422Y-50464010D01*
X68359802Y-50455152D01*
X68309196Y-50445952D01*
X68270877Y-50442155D01*
X68253460Y-50444465D01*
X68243729Y-50466697D01*
X68234485Y-50505346D01*
X68227260Y-50550080D01*
X68223589Y-50590570D01*
X68225006Y-50616485D01*
X68227324Y-50620446D01*
X68238995Y-50636661D01*
X68237091Y-50652278D01*
X68228989Y-50654773D01*
X68208922Y-50651000D01*
X68170063Y-50643320D01*
X68143027Y-50637882D01*
X68092440Y-50626915D01*
X68067164Y-50618201D01*
X68063063Y-50608797D01*
X68076005Y-50595759D01*
X68079761Y-50592848D01*
X68093854Y-50568738D01*
X68110499Y-50515816D01*
X68129790Y-50433740D01*
X68147171Y-50346964D01*
X68148955Y-50337347D01*
X68269731Y-50337347D01*
X68385778Y-50360569D01*
X68440713Y-50371665D01*
X68482913Y-50380384D01*
X68505015Y-50385198D01*
X68506547Y-50385616D01*
X68521724Y-50380952D01*
X68540184Y-50371965D01*
X68563003Y-50345878D01*
X68567883Y-50310446D01*
X68554461Y-50279072D01*
X68542939Y-50270147D01*
X68517155Y-50261295D01*
X68474074Y-50250757D01*
X68422204Y-50240099D01*
X68370053Y-50230893D01*
X68326130Y-50224707D01*
X68298945Y-50223110D01*
X68294427Y-50224319D01*
X68288453Y-50241718D01*
X68280734Y-50276595D01*
X68279374Y-50283906D01*
X68269731Y-50337347D01*
X68148955Y-50337347D01*
X68163453Y-50259205D01*
X68173949Y-50196447D01*
X68179041Y-50154437D01*
X68179109Y-50128920D01*
X68174533Y-50115641D01*
X68168276Y-50111150D01*
X68153352Y-50099702D01*
X68154518Y-50094392D01*
X68171580Y-50094010D01*
X68211408Y-50099141D01*
G37*
G36*
X65630298Y-42262158D02*
G01*
X65654562Y-42269899D01*
X65702830Y-42304824D01*
X65732342Y-42357143D01*
X65738378Y-42417848D01*
X65736960Y-42427160D01*
X65727716Y-42476431D01*
X65825047Y-42486854D01*
X65878883Y-42490989D01*
X65922727Y-42491435D01*
X65945092Y-42488561D01*
X65964857Y-42486752D01*
X65963147Y-42503974D01*
X65940399Y-42538915D01*
X65919809Y-42564348D01*
X65891225Y-42598250D01*
X65871774Y-42621700D01*
X65867330Y-42627315D01*
X65856041Y-42622742D01*
X65844315Y-42610156D01*
X65815442Y-42593456D01*
X65762243Y-42582334D01*
X65739134Y-42580060D01*
X65689826Y-42577282D01*
X65659238Y-42581303D01*
X65636287Y-42596512D01*
X65609892Y-42627295D01*
X65605353Y-42633020D01*
X65558218Y-42692532D01*
X65617250Y-42742471D01*
X65654441Y-42771106D01*
X65684460Y-42789280D01*
X65694969Y-42792633D01*
X65710212Y-42796138D01*
X65709729Y-42809464D01*
X65692017Y-42837639D01*
X65674507Y-42861128D01*
X65641329Y-42898869D01*
X65618952Y-42911716D01*
X65608819Y-42898957D01*
X65608402Y-42893768D01*
X65597172Y-42878533D01*
X65567336Y-42849354D01*
X65524009Y-42810488D01*
X65472308Y-42766192D01*
X65417347Y-42720722D01*
X65364243Y-42678335D01*
X65318112Y-42643288D01*
X65284069Y-42619838D01*
X65270715Y-42612783D01*
X65262896Y-42603741D01*
X65269642Y-42584079D01*
X65286040Y-42560088D01*
X65396701Y-42560088D01*
X65437224Y-42594945D01*
X65467463Y-42616948D01*
X65489020Y-42625647D01*
X65490977Y-42625366D01*
X65506425Y-42612323D01*
X65534548Y-42582216D01*
X65569433Y-42541397D01*
X65571558Y-42538812D01*
X65616060Y-42477226D01*
X65636207Y-42429649D01*
X65632661Y-42393719D01*
X65617438Y-42375050D01*
X65593329Y-42365554D01*
X65563817Y-42375594D01*
X65525881Y-42407160D01*
X65476505Y-42462242D01*
X65466175Y-42474800D01*
X65396701Y-42560088D01*
X65286040Y-42560088D01*
X65293048Y-42549836D01*
X65326139Y-42508104D01*
X65401814Y-42417771D01*
X65463581Y-42350013D01*
X65514378Y-42302702D01*
X65557139Y-42273709D01*
X65594801Y-42260904D01*
X65630298Y-42262158D01*
G37*
G36*
X69013438Y-40562234D02*
G01*
X69017589Y-40610106D01*
X69017600Y-40613534D01*
X69014124Y-40652195D01*
X69003926Y-40662850D01*
X69001358Y-40661686D01*
X68980126Y-40658373D01*
X68936639Y-40657810D01*
X68878415Y-40659973D01*
X68844383Y-40662199D01*
X68703651Y-40672750D01*
X68703651Y-40730075D01*
X68703651Y-40787399D01*
X68789613Y-40778968D01*
X68841225Y-40772194D01*
X68883085Y-40763681D01*
X68900244Y-40757897D01*
X68924504Y-40757161D01*
X68938980Y-40783438D01*
X68942847Y-40824420D01*
X68940198Y-40841802D01*
X68927890Y-40852070D01*
X68899371Y-40857609D01*
X68848087Y-40860802D01*
X68842201Y-40861052D01*
X68789191Y-40865061D01*
X68748078Y-40871462D01*
X68728207Y-40878623D01*
X68722550Y-40899059D01*
X68723613Y-40933126D01*
X68729664Y-40968745D01*
X68738972Y-40993838D01*
X68745441Y-40998817D01*
X68783425Y-40996383D01*
X68836487Y-40990175D01*
X68896490Y-40981508D01*
X68955302Y-40971691D01*
X69004786Y-40962037D01*
X69036810Y-40953858D01*
X69043763Y-40950706D01*
X69058786Y-40945479D01*
X69062654Y-40963391D01*
X69066788Y-41001953D01*
X69071176Y-41022356D01*
X69072984Y-41034601D01*
X69067912Y-41043730D01*
X69051624Y-41050807D01*
X69019781Y-41056896D01*
X68968046Y-41063061D01*
X68892082Y-41070365D01*
X68865565Y-41072787D01*
X68787346Y-41080323D01*
X68718834Y-41087709D01*
X68666020Y-41094243D01*
X68634891Y-41099219D01*
X68630198Y-41100473D01*
X68615431Y-41099880D01*
X68617943Y-41084769D01*
X68619336Y-41062831D01*
X68617622Y-41017998D01*
X68613443Y-40957035D01*
X68607440Y-40886712D01*
X68600255Y-40813795D01*
X68592529Y-40745053D01*
X68584904Y-40687252D01*
X68578021Y-40647162D01*
X68575539Y-40637341D01*
X68573188Y-40627498D01*
X68575739Y-40619838D01*
X68587133Y-40613463D01*
X68611313Y-40607474D01*
X68652220Y-40600974D01*
X68713798Y-40593065D01*
X68799987Y-40582847D01*
X68830178Y-40579321D01*
X68891725Y-40570864D01*
X68942523Y-40561535D01*
X68974771Y-40552866D01*
X68981053Y-40549673D01*
X69001434Y-40542394D01*
X69013438Y-40562234D01*
G37*
G36*
X64431336Y-44403429D02*
G01*
X64452171Y-44411335D01*
X64495636Y-44422631D01*
X64554838Y-44435964D01*
X64622885Y-44449980D01*
X64692885Y-44463325D01*
X64757946Y-44474646D01*
X64811177Y-44482588D01*
X64845684Y-44485799D01*
X64850296Y-44485723D01*
X64868635Y-44489160D01*
X64875474Y-44506546D01*
X64871998Y-44543828D01*
X64867115Y-44570033D01*
X64855171Y-44602284D01*
X64838971Y-44616699D01*
X64838021Y-44616752D01*
X64818862Y-44624376D01*
X64779642Y-44645328D01*
X64725424Y-44676732D01*
X64661273Y-44715710D01*
X64635324Y-44731922D01*
X64560100Y-44778966D01*
X64509735Y-44812163D01*
X64484648Y-44834893D01*
X64485255Y-44850532D01*
X64511976Y-44862458D01*
X64565227Y-44874048D01*
X64645428Y-44888681D01*
X64654942Y-44890441D01*
X64720060Y-44900909D01*
X64761469Y-44903210D01*
X64784171Y-44897518D01*
X64787293Y-44895078D01*
X64797098Y-44891510D01*
X64798763Y-44910108D01*
X64794234Y-44945651D01*
X64783015Y-44999566D01*
X64770015Y-45025680D01*
X64753980Y-45026088D01*
X64748636Y-45021749D01*
X64727470Y-45012611D01*
X64683581Y-45000473D01*
X64623835Y-44986650D01*
X64555096Y-44972455D01*
X64484229Y-44959202D01*
X64418099Y-44948206D01*
X64363571Y-44940781D01*
X64327509Y-44938242D01*
X64318184Y-44939343D01*
X64302841Y-44944508D01*
X64295727Y-44940968D01*
X64296228Y-44922808D01*
X64303730Y-44884114D01*
X64309598Y-44856687D01*
X64324570Y-44806385D01*
X64341723Y-44782739D01*
X64347510Y-44781202D01*
X64367079Y-44773620D01*
X64405423Y-44753387D01*
X64456328Y-44724270D01*
X64513579Y-44690036D01*
X64570964Y-44654453D01*
X64622267Y-44621289D01*
X64661276Y-44594311D01*
X64678791Y-44580343D01*
X64681745Y-44570863D01*
X64666577Y-44561725D01*
X64629634Y-44551659D01*
X64567267Y-44539394D01*
X64554384Y-44537090D01*
X64491260Y-44527155D01*
X64438689Y-44521198D01*
X64403925Y-44519923D01*
X64394713Y-44521645D01*
X64385281Y-44517420D01*
X64384950Y-44486477D01*
X64387052Y-44468306D01*
X64395535Y-44419743D01*
X64405922Y-44397114D01*
X64420914Y-44396465D01*
X64431336Y-44403429D01*
G37*
G36*
X64971563Y-47144904D02*
G01*
X64978466Y-47160159D01*
X64994277Y-47198130D01*
X65016912Y-47253726D01*
X65044287Y-47321857D01*
X65056132Y-47351565D01*
X65086789Y-47425789D01*
X65116103Y-47491693D01*
X65141299Y-47543389D01*
X65159606Y-47574987D01*
X65163719Y-47580057D01*
X65178877Y-47597504D01*
X65177468Y-47609914D01*
X65155408Y-47623635D01*
X65127375Y-47636573D01*
X65063333Y-47665390D01*
X65058941Y-47632331D01*
X65051694Y-47605217D01*
X65035547Y-47557827D01*
X65013095Y-47497484D01*
X64993593Y-47447917D01*
X64932638Y-47296563D01*
X64877003Y-47320323D01*
X64821368Y-47344082D01*
X64857272Y-47434302D01*
X64880513Y-47485561D01*
X64904725Y-47527844D01*
X64921660Y-47548912D01*
X64936190Y-47563553D01*
X64935030Y-47574833D01*
X64914005Y-47587686D01*
X64874402Y-47604779D01*
X64831513Y-47621664D01*
X64810388Y-47626516D01*
X64805673Y-47619894D01*
X64808075Y-47611719D01*
X64807488Y-47586429D01*
X64797142Y-47542750D01*
X64779223Y-47489703D01*
X64777248Y-47484610D01*
X64754211Y-47429402D01*
X64734593Y-47399061D01*
X64711731Y-47390304D01*
X64678961Y-47399849D01*
X64642025Y-47417997D01*
X64609417Y-47434821D01*
X64670235Y-47584321D01*
X64697445Y-47648550D01*
X64723039Y-47704286D01*
X64743645Y-47744434D01*
X64753614Y-47759834D01*
X64765496Y-47777679D01*
X64758892Y-47790559D01*
X64729313Y-47805401D01*
X64722146Y-47808422D01*
X64672399Y-47826463D01*
X64645896Y-47829562D01*
X64643839Y-47817605D01*
X64644917Y-47815749D01*
X64642703Y-47797393D01*
X64630485Y-47756559D01*
X64609993Y-47698269D01*
X64582956Y-47627548D01*
X64563575Y-47579442D01*
X64532785Y-47503835D01*
X64506469Y-47438036D01*
X64486554Y-47386956D01*
X64474966Y-47355511D01*
X64472809Y-47348014D01*
X64484827Y-47338552D01*
X64493092Y-47337647D01*
X64514107Y-47332142D01*
X64556553Y-47317251D01*
X64614397Y-47295408D01*
X64681604Y-47269050D01*
X64752142Y-47240612D01*
X64819977Y-47212528D01*
X64879076Y-47187235D01*
X64923405Y-47167167D01*
X64946933Y-47154759D01*
X64947832Y-47154095D01*
X64966762Y-47143982D01*
X64971563Y-47144904D01*
G37*
G36*
X65118444Y-42781504D02*
G01*
X65149792Y-42798627D01*
X65157296Y-42803281D01*
X65191719Y-42825206D01*
X65205394Y-42837018D01*
X65202828Y-42844610D01*
X65193557Y-42850709D01*
X65177920Y-42867823D01*
X65151400Y-42904176D01*
X65118526Y-42953391D01*
X65101199Y-42980708D01*
X65066933Y-43036191D01*
X65046753Y-43072153D01*
X65038920Y-43094440D01*
X65041697Y-43108901D01*
X65053344Y-43121384D01*
X65058160Y-43125492D01*
X65087405Y-43145146D01*
X65106699Y-43151655D01*
X65121960Y-43139798D01*
X65145428Y-43109945D01*
X65171601Y-43070674D01*
X65194977Y-43030561D01*
X65210056Y-42998183D01*
X65212833Y-42986183D01*
X65219296Y-42973600D01*
X65241657Y-42976974D01*
X65281065Y-42995175D01*
X65326560Y-43018701D01*
X65295289Y-43051541D01*
X65268180Y-43085016D01*
X65237462Y-43129839D01*
X65227238Y-43146455D01*
X65190457Y-43208530D01*
X65244641Y-43240500D01*
X65278561Y-43259207D01*
X65299316Y-43268171D01*
X65301904Y-43268125D01*
X65326668Y-43230650D01*
X65356595Y-43181762D01*
X65387733Y-43128421D01*
X65416129Y-43077588D01*
X65437833Y-43036223D01*
X65448890Y-43011287D01*
X65449541Y-43008115D01*
X65458521Y-42989588D01*
X65484281Y-42994276D01*
X65519307Y-43017328D01*
X65542758Y-43042158D01*
X65541036Y-43058108D01*
X65527591Y-43074702D01*
X65502450Y-43111599D01*
X65469174Y-43163388D01*
X65431326Y-43224658D01*
X65430267Y-43226405D01*
X65382184Y-43304901D01*
X65346860Y-43360196D01*
X65322224Y-43395047D01*
X65306204Y-43412214D01*
X65296728Y-43414456D01*
X65293055Y-43409112D01*
X65278473Y-43395288D01*
X65243911Y-43370708D01*
X65194878Y-43338679D01*
X65136881Y-43302508D01*
X65075430Y-43265502D01*
X65016032Y-43230968D01*
X64964196Y-43202214D01*
X64925430Y-43182546D01*
X64905241Y-43175272D01*
X64904011Y-43175530D01*
X64893471Y-43178663D01*
X64894334Y-43166903D01*
X64907736Y-43137930D01*
X64934810Y-43089424D01*
X64976691Y-43019064D01*
X64996058Y-42987205D01*
X65034716Y-42922516D01*
X65066928Y-42866052D01*
X65089772Y-42823128D01*
X65100326Y-42799062D01*
X65100708Y-42796817D01*
X65104122Y-42781133D01*
X65118444Y-42781504D01*
G37*
G36*
X70358455Y-40658469D02*
G01*
X70398445Y-40667899D01*
X70455625Y-40681880D01*
X70524107Y-40698991D01*
X70527547Y-40699860D01*
X70599782Y-40717359D01*
X70664393Y-40731663D01*
X70714237Y-40741278D01*
X70741858Y-40744710D01*
X70764558Y-40746629D01*
X70772238Y-40757818D01*
X70767822Y-40786422D01*
X70763339Y-40804509D01*
X70751047Y-40841664D01*
X70738569Y-40862606D01*
X70735028Y-40864309D01*
X70722045Y-40853249D01*
X70721897Y-40851301D01*
X70708436Y-40842070D01*
X70673210Y-40829741D01*
X70623954Y-40816091D01*
X70568400Y-40802900D01*
X70514285Y-40791946D01*
X70469341Y-40785009D01*
X70441304Y-40783866D01*
X70436340Y-40785632D01*
X70425974Y-40808178D01*
X70420453Y-40833287D01*
X70420778Y-40855599D01*
X70433978Y-40870270D01*
X70466766Y-40882668D01*
X70490172Y-40889061D01*
X70540785Y-40900587D01*
X70584653Y-40907747D01*
X70599748Y-40908871D01*
X70622789Y-40912269D01*
X70628971Y-40927817D01*
X70624152Y-40957747D01*
X70611862Y-41004653D01*
X70600597Y-41023693D01*
X70589216Y-41016844D01*
X70570309Y-41004754D01*
X70532834Y-40990865D01*
X70486426Y-40977660D01*
X70440721Y-40967619D01*
X70405355Y-40963222D01*
X70390665Y-40965728D01*
X70381283Y-40986505D01*
X70371815Y-41023346D01*
X70370694Y-41029181D01*
X70361014Y-41081928D01*
X70504528Y-41114502D01*
X70568277Y-41127622D01*
X70622560Y-41136315D01*
X70659830Y-41139497D01*
X70670779Y-41138352D01*
X70685626Y-41137476D01*
X70686762Y-41155974D01*
X70683264Y-41172630D01*
X70669651Y-41219411D01*
X70655568Y-41240904D01*
X70637580Y-41241579D01*
X70632193Y-41239082D01*
X70609913Y-41231280D01*
X70564667Y-41218223D01*
X70502570Y-41201590D01*
X70429741Y-41183061D01*
X70412515Y-41178805D01*
X70333053Y-41158829D01*
X70278770Y-41143717D01*
X70245650Y-41131867D01*
X70229680Y-41121679D01*
X70226845Y-41111552D01*
X70229265Y-41105715D01*
X70238779Y-41080583D01*
X70252825Y-41033371D01*
X70269633Y-40971226D01*
X70287434Y-40901296D01*
X70304459Y-40830730D01*
X70318938Y-40766676D01*
X70329103Y-40716282D01*
X70333185Y-40686695D01*
X70333198Y-40685784D01*
X70336617Y-40660987D01*
X70341547Y-40655010D01*
X70358455Y-40658469D01*
G37*
G36*
X71655123Y-49588273D02*
G01*
X71675096Y-49616897D01*
X71683401Y-49632974D01*
X71701585Y-49672597D01*
X71706449Y-49692287D01*
X71697726Y-49699013D01*
X71680845Y-49699742D01*
X71659327Y-49706037D01*
X71619671Y-49722743D01*
X71568374Y-49746595D01*
X71511936Y-49774326D01*
X71456856Y-49802670D01*
X71409633Y-49828361D01*
X71376765Y-49848132D01*
X71364746Y-49858610D01*
X71370933Y-49875402D01*
X71385986Y-49906734D01*
X71387552Y-49909780D01*
X71410359Y-49953883D01*
X71515211Y-49901080D01*
X71563279Y-49874815D01*
X71597476Y-49852129D01*
X71611952Y-49837035D01*
X71611761Y-49834843D01*
X71612922Y-49816263D01*
X71616031Y-49813637D01*
X71629053Y-49821245D01*
X71648562Y-49849217D01*
X71661124Y-49872804D01*
X71682996Y-49919421D01*
X71691622Y-49944370D01*
X71687599Y-49952485D01*
X71671525Y-49948599D01*
X71670450Y-49948190D01*
X71649462Y-49950847D01*
X71610668Y-49963391D01*
X71562918Y-49982159D01*
X71515060Y-50003491D01*
X71475944Y-50023725D01*
X71457140Y-50036439D01*
X71460424Y-50050948D01*
X71474208Y-50082854D01*
X71483605Y-50101940D01*
X71514851Y-50163187D01*
X71652835Y-50094335D01*
X71714729Y-50062143D01*
X71769435Y-50031323D01*
X71809381Y-50006262D01*
X71823353Y-49995594D01*
X71855886Y-49965704D01*
X71887194Y-50027073D01*
X71905088Y-50064499D01*
X71908932Y-50082640D01*
X71899436Y-50088214D01*
X71893679Y-50088441D01*
X71872508Y-50095148D01*
X71830103Y-50113674D01*
X71771537Y-50141628D01*
X71701882Y-50176617D01*
X71655237Y-50200856D01*
X71575502Y-50241614D01*
X71510177Y-50272587D01*
X71462629Y-50292309D01*
X71436225Y-50299312D01*
X71432200Y-50298031D01*
X71428800Y-50283867D01*
X71431253Y-50282791D01*
X71428413Y-50270501D01*
X71414242Y-50237252D01*
X71391461Y-50188479D01*
X71362792Y-50129614D01*
X71330957Y-50066090D01*
X71298679Y-50003341D01*
X71268678Y-49946800D01*
X71243678Y-49901900D01*
X71226733Y-49874543D01*
X71208310Y-49845422D01*
X71201981Y-49828913D01*
X71202403Y-49828118D01*
X71216872Y-49820156D01*
X71253382Y-49801033D01*
X71307318Y-49773140D01*
X71374066Y-49738867D01*
X71420808Y-49714978D01*
X71492930Y-49677407D01*
X71554607Y-49643797D01*
X71601343Y-49616717D01*
X71628646Y-49598736D01*
X71633845Y-49593216D01*
X71639901Y-49579198D01*
X71655123Y-49588273D01*
G37*
G36*
X69467557Y-42009794D02*
G01*
X69597145Y-42014034D01*
X69713795Y-42022248D01*
X69825939Y-42035204D01*
X69942008Y-42053669D01*
X70061533Y-42076595D01*
X70371274Y-42154712D01*
X70673718Y-42261039D01*
X70966496Y-42394291D01*
X71247235Y-42553186D01*
X71513565Y-42736442D01*
X71763115Y-42942775D01*
X71895693Y-43068968D01*
X72116024Y-43310178D01*
X72311506Y-43566558D01*
X72481856Y-43836327D01*
X72626792Y-44117704D01*
X72746030Y-44408905D01*
X72839286Y-44708151D01*
X72906279Y-45013657D01*
X72946724Y-45323643D01*
X72960339Y-45636327D01*
X72946840Y-45949927D01*
X72905945Y-46262660D01*
X72837369Y-46572746D01*
X72740831Y-46878402D01*
X72616047Y-47177847D01*
X72565098Y-47281933D01*
X72487254Y-47423443D01*
X72393346Y-47575762D01*
X72289552Y-47729717D01*
X72182052Y-47876134D01*
X72079529Y-48002920D01*
X71856906Y-48239885D01*
X71614738Y-48454818D01*
X71354605Y-48646844D01*
X71078089Y-48815088D01*
X70786772Y-48958676D01*
X70482236Y-49076733D01*
X70166062Y-49168383D01*
X69862274Y-49229263D01*
X69802415Y-49236443D01*
X69719911Y-49243118D01*
X69621081Y-49249081D01*
X69512246Y-49254122D01*
X69399725Y-49258033D01*
X69289838Y-49260603D01*
X69188905Y-49261624D01*
X69103246Y-49260888D01*
X69039181Y-49258184D01*
X69025075Y-49256954D01*
X68691173Y-49209681D01*
X68374528Y-49138755D01*
X68073068Y-49043331D01*
X67784721Y-48922567D01*
X67507414Y-48775621D01*
X67239075Y-48601649D01*
X67036729Y-48448315D01*
X66941325Y-48366854D01*
X66836385Y-48269604D01*
X66729142Y-48163832D01*
X66626830Y-48056802D01*
X66536680Y-47955782D01*
X66489208Y-47898271D01*
X66294064Y-47628350D01*
X66125553Y-47345071D01*
X65984082Y-47049440D01*
X65870059Y-46742462D01*
X65783892Y-46425142D01*
X65725990Y-46098485D01*
X65712823Y-45985552D01*
X65705474Y-45881127D01*
X65701857Y-45756215D01*
X65701777Y-45633350D01*
X65781895Y-45633350D01*
X65783472Y-45794411D01*
X65788843Y-45933770D01*
X65798965Y-46059491D01*
X65814795Y-46179638D01*
X65837293Y-46302274D01*
X65867414Y-46435464D01*
X65886024Y-46510066D01*
X65980890Y-46821977D01*
X66102558Y-47121152D01*
X66250280Y-47406482D01*
X66423309Y-47676855D01*
X66620898Y-47931160D01*
X66842301Y-48168285D01*
X67086771Y-48387121D01*
X67215812Y-48488128D01*
X67479485Y-48666896D01*
X67759104Y-48820806D01*
X68053195Y-48949307D01*
X68360286Y-49051845D01*
X68678905Y-49127865D01*
X69007579Y-49176816D01*
X69062450Y-49182232D01*
X69123482Y-49185335D01*
X69207398Y-49186141D01*
X69307290Y-49184903D01*
X69416252Y-49181875D01*
X69527375Y-49177311D01*
X69633753Y-49171464D01*
X69728478Y-49164588D01*
X69804644Y-49156937D01*
X69824887Y-49154233D01*
X70130755Y-49095307D01*
X70432522Y-49009099D01*
X70726551Y-48897222D01*
X71009206Y-48761287D01*
X71276851Y-48602907D01*
X71525849Y-48423693D01*
X71588995Y-48372289D01*
X71833959Y-48148589D01*
X72054874Y-47907388D01*
X72251224Y-47649631D01*
X72422494Y-47376263D01*
X72568167Y-47088228D01*
X72687726Y-46786471D01*
X72780655Y-46471938D01*
X72846439Y-46145574D01*
X72860937Y-46044474D01*
X72871552Y-45931294D01*
X72877502Y-45797019D01*
X72878917Y-45650063D01*
X72875932Y-45498843D01*
X72868679Y-45351776D01*
X72857291Y-45217278D01*
X72846543Y-45132526D01*
X72783251Y-44810084D01*
X72692802Y-44498820D01*
X72576262Y-44200048D01*
X72434699Y-43915081D01*
X72269180Y-43645232D01*
X72080774Y-43391814D01*
X71870547Y-43156141D01*
X71639568Y-42939527D01*
X71388903Y-42743284D01*
X71119621Y-42568725D01*
X70832789Y-42417165D01*
X70538623Y-42293301D01*
X70258333Y-42204100D01*
X69964635Y-42138729D01*
X69662798Y-42097670D01*
X69358092Y-42081404D01*
X69055788Y-42090415D01*
X68761156Y-42125183D01*
X68740035Y-42128753D01*
X68437786Y-42195452D01*
X68138334Y-42289908D01*
X67845995Y-42410170D01*
X67565084Y-42554286D01*
X67299917Y-42720305D01*
X67096529Y-42872002D01*
X66858553Y-43083169D01*
X66640211Y-43315743D01*
X66443040Y-43567330D01*
X66268575Y-43835536D01*
X66118355Y-44117966D01*
X65993915Y-44412225D01*
X65896793Y-44715921D01*
X65885534Y-44758777D01*
X65851275Y-44899914D01*
X65825105Y-45026690D01*
X65806070Y-45147142D01*
X65793219Y-45269303D01*
X65785599Y-45401211D01*
X65782258Y-45550900D01*
X65781895Y-45633350D01*
X65701777Y-45633350D01*
X65701768Y-45618903D01*
X65705002Y-45477276D01*
X65711354Y-45339422D01*
X65720620Y-45213428D01*
X65732595Y-45107380D01*
X65735549Y-45087676D01*
X65801271Y-44765774D01*
X65893961Y-44454839D01*
X66012401Y-44156200D01*
X66155372Y-43871189D01*
X66321656Y-43601135D01*
X66510035Y-43347369D01*
X66719288Y-43111221D01*
X66948198Y-42894022D01*
X67195546Y-42697101D01*
X67460113Y-42521790D01*
X67740680Y-42369418D01*
X68036029Y-42241315D01*
X68344941Y-42138813D01*
X68466481Y-42106641D01*
X68613446Y-42072670D01*
X68747750Y-42047082D01*
X68877993Y-42028885D01*
X69012777Y-42017090D01*
X69160703Y-42010706D01*
X69316600Y-42008759D01*
X69467557Y-42009794D01*
G37*
G36*
X69450259Y-41695734D02*
G01*
X69590460Y-41699678D01*
X69717690Y-41706665D01*
X69824914Y-41716697D01*
X69859361Y-41721370D01*
X70208902Y-41788215D01*
X70542816Y-41880503D01*
X70861529Y-41998452D01*
X71165468Y-42142279D01*
X71455058Y-42312202D01*
X71730727Y-42508439D01*
X71992901Y-42731207D01*
X72164803Y-42899106D01*
X72392575Y-43155054D01*
X72595346Y-43426555D01*
X72772634Y-43712058D01*
X72923961Y-44010007D01*
X73048847Y-44318851D01*
X73146813Y-44637036D01*
X73217377Y-44963008D01*
X73260062Y-45295215D01*
X73274387Y-45632103D01*
X73259872Y-45972118D01*
X73217196Y-46306920D01*
X73147136Y-46631087D01*
X73048809Y-46948689D01*
X72923536Y-47257481D01*
X72772639Y-47555214D01*
X72597437Y-47839642D01*
X72399250Y-48108518D01*
X72179400Y-48359595D01*
X71939207Y-48590626D01*
X71812238Y-48697645D01*
X71531661Y-48905076D01*
X71238608Y-49085335D01*
X70933118Y-49238406D01*
X70615227Y-49364271D01*
X70284975Y-49462914D01*
X69942398Y-49534319D01*
X69877901Y-49544508D01*
X69804271Y-49552937D01*
X69707417Y-49560150D01*
X69593997Y-49566003D01*
X69470666Y-49570350D01*
X69344082Y-49573047D01*
X69220901Y-49573947D01*
X69107781Y-49572906D01*
X69011379Y-49569778D01*
X68942850Y-49564900D01*
X68600651Y-49514776D01*
X68267436Y-49436449D01*
X67944481Y-49330525D01*
X67633066Y-49197610D01*
X67334466Y-49038309D01*
X67049959Y-48853229D01*
X66780822Y-48642976D01*
X66549762Y-48429701D01*
X66313012Y-48173635D01*
X66103013Y-47904504D01*
X65919530Y-47621851D01*
X65762333Y-47325219D01*
X65631189Y-47014150D01*
X65525866Y-46688187D01*
X65446133Y-46346873D01*
X65421405Y-46206279D01*
X65408371Y-46101873D01*
X65398419Y-45975266D01*
X65391673Y-45834010D01*
X65388251Y-45685657D01*
X65388260Y-45633350D01*
X65571844Y-45633350D01*
X65572627Y-45783850D01*
X65575666Y-45911411D01*
X65581726Y-46022956D01*
X65591571Y-46125407D01*
X65605964Y-46225688D01*
X65625668Y-46330723D01*
X65651449Y-46447433D01*
X65670449Y-46527170D01*
X65761408Y-46840191D01*
X65878662Y-47141522D01*
X66020730Y-47429840D01*
X66186132Y-47703820D01*
X66373389Y-47962136D01*
X66581021Y-48203464D01*
X66807547Y-48426479D01*
X67051489Y-48629857D01*
X67311365Y-48812271D01*
X67585697Y-48972399D01*
X67873003Y-49108914D01*
X68171806Y-49220492D01*
X68480623Y-49305808D01*
X68797976Y-49363537D01*
X68845676Y-49369669D01*
X68911762Y-49377774D01*
X68971534Y-49385221D01*
X69015114Y-49390775D01*
X69025075Y-49392091D01*
X69071853Y-49395496D01*
X69142648Y-49396976D01*
X69231652Y-49396726D01*
X69333058Y-49394938D01*
X69441058Y-49391807D01*
X69549843Y-49387526D01*
X69653607Y-49382289D01*
X69746541Y-49376290D01*
X69822839Y-49369722D01*
X69869749Y-49363919D01*
X70197891Y-49298243D01*
X70518292Y-49205046D01*
X70828494Y-49085406D01*
X71126036Y-48940400D01*
X71408459Y-48771105D01*
X71673305Y-48578598D01*
X71686170Y-48568280D01*
X71784244Y-48484338D01*
X71893020Y-48382922D01*
X72006172Y-48270569D01*
X72117376Y-48153822D01*
X72220304Y-48039220D01*
X72308633Y-47933303D01*
X72341778Y-47890422D01*
X72527212Y-47618392D01*
X72688684Y-47329688D01*
X72825156Y-47026831D01*
X72935592Y-46712343D01*
X73018956Y-46388745D01*
X73064155Y-46134174D01*
X73075673Y-46028864D01*
X73083805Y-45902522D01*
X73088553Y-45762594D01*
X73089917Y-45616525D01*
X73087899Y-45471760D01*
X73082498Y-45335746D01*
X73073715Y-45215927D01*
X73064060Y-45135438D01*
X72998440Y-44793043D01*
X72907372Y-44466280D01*
X72790670Y-44154787D01*
X72648150Y-43858204D01*
X72479627Y-43576169D01*
X72284915Y-43308321D01*
X72063830Y-43054298D01*
X71927502Y-42917055D01*
X71676365Y-42695893D01*
X71409983Y-42499892D01*
X71129938Y-42329500D01*
X70837809Y-42185161D01*
X70535177Y-42067321D01*
X70223621Y-41976424D01*
X69904723Y-41912915D01*
X69580061Y-41877240D01*
X69251217Y-41869844D01*
X68919769Y-41891172D01*
X68587299Y-41941669D01*
X68516776Y-41956177D01*
X68249590Y-42026498D01*
X67978210Y-42122337D01*
X67708260Y-42240969D01*
X67445364Y-42379670D01*
X67195144Y-42535715D01*
X66963224Y-42706380D01*
X66955275Y-42712771D01*
X66714568Y-42925825D01*
X66492163Y-43160992D01*
X66289786Y-43415547D01*
X66109166Y-43686766D01*
X65952032Y-43971926D01*
X65820111Y-44268301D01*
X65715132Y-44573168D01*
X65671020Y-44737207D01*
X65641132Y-44864633D01*
X65617776Y-44976392D01*
X65600187Y-45079404D01*
X65587597Y-45180587D01*
X65579242Y-45286862D01*
X65574356Y-45405148D01*
X65572173Y-45542363D01*
X65571844Y-45633350D01*
X65388260Y-45633350D01*
X65388277Y-45537760D01*
X65391871Y-45397869D01*
X65399154Y-45273538D01*
X65405401Y-45209070D01*
X65460228Y-44862164D01*
X65542357Y-44526834D01*
X65651441Y-44203804D01*
X65787132Y-43893795D01*
X65949085Y-43597530D01*
X66136951Y-43315731D01*
X66350383Y-43049120D01*
X66542106Y-42844457D01*
X66797525Y-42610493D01*
X67068695Y-42401874D01*
X67355096Y-42218857D01*
X67656209Y-42061700D01*
X67971516Y-41930662D01*
X68300498Y-41825999D01*
X68642634Y-41747970D01*
X68800826Y-41721605D01*
X68900393Y-41710357D01*
X69022154Y-41702144D01*
X69159073Y-41696969D01*
X69304119Y-41694831D01*
X69450259Y-41695734D01*
G37*
G36*
X69767512Y-42370895D02*
G01*
X70017409Y-42410901D01*
X70064098Y-42421700D01*
X70133749Y-42440642D01*
X70208739Y-42464344D01*
X70283315Y-42490580D01*
X70351720Y-42517129D01*
X70408202Y-42541766D01*
X70447004Y-42562267D01*
X70462121Y-42575508D01*
X70457845Y-42594836D01*
X70441261Y-42634164D01*
X70415274Y-42687748D01*
X70382787Y-42749846D01*
X70346706Y-42814715D01*
X70309934Y-42876614D01*
X70309412Y-42877458D01*
X70289440Y-42909736D01*
X70180507Y-42867337D01*
X70125178Y-42846435D01*
X70090222Y-42836000D01*
X70068368Y-42835108D01*
X70052345Y-42842835D01*
X70043880Y-42849974D01*
X70017936Y-42880366D01*
X69993252Y-42919606D01*
X69977063Y-42955326D01*
X69974398Y-42968783D01*
X69987406Y-42980078D01*
X70020935Y-42995537D01*
X70052886Y-43006911D01*
X70112068Y-43026804D01*
X70146761Y-43042570D01*
X70161191Y-43058402D01*
X70159589Y-43078494D01*
X70148799Y-43102018D01*
X70126029Y-43146048D01*
X70248301Y-43206878D01*
X70399865Y-43293434D01*
X70525293Y-43390193D01*
X70627406Y-43499896D01*
X70709023Y-43625286D01*
X70737699Y-43682918D01*
X70771186Y-43763614D01*
X70797049Y-43845582D01*
X70816907Y-43936099D01*
X70832379Y-44042445D01*
X70844246Y-44161883D01*
X70862033Y-44372287D01*
X70922030Y-44415414D01*
X71023782Y-44492012D01*
X71116345Y-44568374D01*
X71194554Y-44639968D01*
X71253246Y-44702265D01*
X71263824Y-44715291D01*
X71305715Y-44762993D01*
X71340343Y-44790709D01*
X71357074Y-44796235D01*
X71417264Y-44804727D01*
X71479473Y-44826379D01*
X71529541Y-44855906D01*
X71538580Y-44863977D01*
X71567965Y-44911569D01*
X71573403Y-44965160D01*
X71554808Y-45014964D01*
X71540032Y-45032193D01*
X71502907Y-45055248D01*
X71441167Y-45080235D01*
X71359938Y-45106018D01*
X71264348Y-45131459D01*
X71159523Y-45155422D01*
X71050589Y-45176769D01*
X70942675Y-45194364D01*
X70840905Y-45207069D01*
X70750408Y-45213747D01*
X70718159Y-45214477D01*
X70678870Y-45216060D01*
X70656281Y-45223815D01*
X70649093Y-45242811D01*
X70656012Y-45278114D01*
X70675739Y-45334791D01*
X70682645Y-45353226D01*
X70733199Y-45474003D01*
X70794368Y-45593288D01*
X70871681Y-45721827D01*
X70874829Y-45726754D01*
X70911937Y-45789995D01*
X70940227Y-45848493D01*
X70955550Y-45893474D01*
X70956648Y-45899734D01*
X70958566Y-45939994D01*
X70946659Y-45968031D01*
X70917391Y-45996367D01*
X70867770Y-46028204D01*
X70807576Y-46053473D01*
X70751618Y-46066262D01*
X70740929Y-46066816D01*
X70719996Y-46078243D01*
X70699599Y-46101983D01*
X70688082Y-46123463D01*
X70685435Y-46145879D01*
X70692393Y-46178100D01*
X70709690Y-46229001D01*
X70710244Y-46230543D01*
X70743878Y-46324019D01*
X70700357Y-46361455D01*
X70672876Y-46388615D01*
X70666526Y-46408867D01*
X70674416Y-46427041D01*
X70690531Y-46471128D01*
X70681876Y-46516628D01*
X70647276Y-46568425D01*
X70637767Y-46579275D01*
X70608167Y-46613473D01*
X70593065Y-46639789D01*
X70589262Y-46669715D01*
X70593558Y-46714742D01*
X70595640Y-46730587D01*
X70605411Y-46823078D01*
X70606312Y-46891804D01*
X70597889Y-46941690D01*
X70579687Y-46977661D01*
X70572036Y-46986707D01*
X70546487Y-47010001D01*
X70516637Y-47027463D01*
X70478172Y-47039770D01*
X70426780Y-47047601D01*
X70358146Y-47051636D01*
X70267957Y-47052552D01*
X70161998Y-47051220D01*
X69887364Y-47046122D01*
X69846436Y-47083497D01*
X69823104Y-47112473D01*
X69792333Y-47161291D01*
X69758642Y-47222386D01*
X69734809Y-47270372D01*
X69697266Y-47349854D01*
X69671770Y-47406451D01*
X69657979Y-47444490D01*
X69655550Y-47468297D01*
X69664141Y-47482200D01*
X69683410Y-47490526D01*
X69713015Y-47497602D01*
X69716769Y-47498462D01*
X69869971Y-47546198D01*
X70011530Y-47614577D01*
X70045260Y-47635305D01*
X70088016Y-47661910D01*
X70122935Y-47679096D01*
X70159162Y-47689330D01*
X70205841Y-47695082D01*
X70272119Y-47698817D01*
X70282280Y-47699267D01*
X70358390Y-47703946D01*
X70414035Y-47711427D01*
X70458635Y-47723640D01*
X70501611Y-47742511D01*
X70506966Y-47745242D01*
X70594432Y-47804067D01*
X70666998Y-47883411D01*
X70725366Y-47984745D01*
X70770239Y-48109542D01*
X70802321Y-48259272D01*
X70819346Y-48399095D01*
X70823679Y-48458268D01*
X70822857Y-48496808D01*
X70815493Y-48523741D01*
X70800199Y-48548096D01*
X70795523Y-48554143D01*
X70737767Y-48604214D01*
X70662978Y-48631839D01*
X70574650Y-48636310D01*
X70479849Y-48618010D01*
X70432860Y-48606526D01*
X70400533Y-48607208D01*
X70375797Y-48616929D01*
X70309517Y-48646611D01*
X70220477Y-48679222D01*
X70115428Y-48712869D01*
X70001120Y-48745661D01*
X69884302Y-48775704D01*
X69771724Y-48801107D01*
X69670135Y-48819977D01*
X69631422Y-48825623D01*
X69582371Y-48834900D01*
X69544371Y-48847240D01*
X69531075Y-48855232D01*
X69498369Y-48872518D01*
X69442039Y-48886469D01*
X69368203Y-48896783D01*
X69282983Y-48903160D01*
X69192499Y-48905298D01*
X69102872Y-48902896D01*
X69020222Y-48895653D01*
X68952492Y-48883713D01*
X68812110Y-48834633D01*
X68681872Y-48758885D01*
X68566307Y-48659166D01*
X68554217Y-48646342D01*
X68457144Y-48543061D01*
X68356700Y-48439633D01*
X68256671Y-48339715D01*
X68160845Y-48246964D01*
X68073008Y-48165037D01*
X67996949Y-48097591D01*
X67936454Y-48048282D01*
X67929266Y-48042904D01*
X67857175Y-47993594D01*
X67774035Y-47942515D01*
X67694585Y-47898582D01*
X67672331Y-47887481D01*
X67539458Y-47823521D01*
X67538505Y-47739826D01*
X67538263Y-47718582D01*
X67584117Y-47718582D01*
X67591098Y-47750606D01*
X67617752Y-47784030D01*
X67660667Y-47812631D01*
X67666737Y-47815439D01*
X67727377Y-47846535D01*
X67803333Y-47891845D01*
X67887019Y-47946357D01*
X67970853Y-48005059D01*
X68047251Y-48062939D01*
X68073372Y-48084189D01*
X68111114Y-48117482D01*
X68165525Y-48167957D01*
X68232294Y-48231489D01*
X68307113Y-48303956D01*
X68385672Y-48381233D01*
X68432171Y-48427553D01*
X68519664Y-48514498D01*
X68590175Y-48582808D01*
X68647279Y-48635559D01*
X68694551Y-48675829D01*
X68735567Y-48706694D01*
X68773902Y-48731229D01*
X68804948Y-48748320D01*
X68925152Y-48801222D01*
X69044602Y-48832887D01*
X69170900Y-48844461D01*
X69311645Y-48837090D01*
X69356630Y-48831520D01*
X69413365Y-48822506D01*
X69458419Y-48813092D01*
X69483687Y-48805029D01*
X69485803Y-48803594D01*
X69491265Y-48780667D01*
X69487678Y-48737345D01*
X69476736Y-48681138D01*
X69460136Y-48619554D01*
X69439571Y-48560102D01*
X69421715Y-48519733D01*
X69395003Y-48475169D01*
X69476562Y-48475169D01*
X69484113Y-48513091D01*
X69503146Y-48568708D01*
X69522426Y-48627292D01*
X69536018Y-48682645D01*
X69540849Y-48720860D01*
X69541286Y-48745870D01*
X69545902Y-48761812D01*
X69559658Y-48769518D01*
X69587513Y-48769815D01*
X69634426Y-48763534D01*
X69705357Y-48751505D01*
X69714553Y-48749916D01*
X69907395Y-48709103D01*
X70097706Y-48652685D01*
X70210200Y-48612157D01*
X70275203Y-48587426D01*
X70315856Y-48568376D01*
X70335063Y-48548392D01*
X70335728Y-48520858D01*
X70320756Y-48479159D01*
X70294534Y-48420040D01*
X70258825Y-48339295D01*
X70180149Y-48339554D01*
X70061542Y-48344917D01*
X69927133Y-48359230D01*
X69789096Y-48380884D01*
X69659602Y-48408266D01*
X69658232Y-48408603D01*
X69591941Y-48425460D01*
X69535871Y-48440732D01*
X69496767Y-48452520D01*
X69482241Y-48458158D01*
X69476562Y-48475169D01*
X69395003Y-48475169D01*
X69352579Y-48404391D01*
X69259411Y-48281926D01*
X69145999Y-48156179D01*
X69095151Y-48107162D01*
X69198797Y-48107162D01*
X69218985Y-48140484D01*
X69259806Y-48191972D01*
X69268948Y-48202687D01*
X69312505Y-48254928D01*
X69351459Y-48304536D01*
X69379290Y-48343114D01*
X69385126Y-48352338D01*
X69405943Y-48383078D01*
X69421676Y-48398628D01*
X69423462Y-48399095D01*
X69441383Y-48395563D01*
X69482082Y-48385962D01*
X69539409Y-48371781D01*
X69603376Y-48355501D01*
X69764822Y-48320465D01*
X69940671Y-48293733D01*
X70116064Y-48277475D01*
X70150286Y-48275647D01*
X70229000Y-48272020D01*
X70158408Y-48156255D01*
X70122453Y-48099451D01*
X70095339Y-48063593D01*
X70071807Y-48043263D01*
X70046598Y-48033040D01*
X70036831Y-48030925D01*
X69980722Y-48025168D01*
X69901340Y-48023486D01*
X69804967Y-48025412D01*
X69697883Y-48030480D01*
X69586369Y-48038225D01*
X69476705Y-48048179D01*
X69375173Y-48059877D01*
X69288052Y-48072852D01*
X69221625Y-48086637D01*
X69199908Y-48093066D01*
X69198797Y-48107162D01*
X69095151Y-48107162D01*
X69016131Y-48030988D01*
X68873592Y-47910194D01*
X68722170Y-47797635D01*
X68683584Y-47771374D01*
X68587749Y-47711780D01*
X68477593Y-47650455D01*
X68362282Y-47592000D01*
X68250978Y-47541018D01*
X68152845Y-47502109D01*
X68135552Y-47496163D01*
X68023427Y-47458845D01*
X67974687Y-47545590D01*
X67925947Y-47632335D01*
X67825187Y-47641438D01*
X67735509Y-47653033D01*
X67660913Y-47669609D01*
X67608074Y-47689602D01*
X67600224Y-47694180D01*
X67584117Y-47718582D01*
X67538263Y-47718582D01*
X67537553Y-47656132D01*
X67601091Y-47630727D01*
X67647985Y-47615852D01*
X67711352Y-47600707D01*
X67777958Y-47588431D01*
X67781840Y-47587844D01*
X67840752Y-47578418D01*
X67877671Y-47569187D01*
X67900230Y-47556305D01*
X67916060Y-47535926D01*
X67927602Y-47514401D01*
X67947459Y-47474491D01*
X67953416Y-47453514D01*
X67944677Y-47443523D01*
X67920442Y-47436575D01*
X67919770Y-47436406D01*
X67878310Y-47412348D01*
X67843295Y-47367899D01*
X67820948Y-47312572D01*
X67816249Y-47278401D01*
X67866453Y-47278401D01*
X67876595Y-47308608D01*
X67901845Y-47344774D01*
X67910905Y-47354499D01*
X67944661Y-47383258D01*
X67974686Y-47392651D01*
X68004906Y-47389655D01*
X68039541Y-47388097D01*
X68081644Y-47397261D01*
X68138708Y-47419105D01*
X68168844Y-47432488D01*
X68283232Y-47484616D01*
X68288822Y-47459165D01*
X68345604Y-47459165D01*
X68352419Y-47498183D01*
X68388520Y-47537337D01*
X68434551Y-47566361D01*
X68583304Y-47650763D01*
X68733146Y-47745450D01*
X68875937Y-47844861D01*
X69003533Y-47943435D01*
X69069925Y-48000326D01*
X69106514Y-48029305D01*
X69136313Y-48046040D01*
X69148044Y-48047803D01*
X69169528Y-48042461D01*
X69213498Y-48032869D01*
X69273092Y-48020490D01*
X69327444Y-48009555D01*
X69457813Y-47989402D01*
X69616581Y-47974976D01*
X69757547Y-47967832D01*
X70026569Y-47958070D01*
X69936946Y-47884780D01*
X69860575Y-47829355D01*
X69776375Y-47779746D01*
X69693854Y-47740963D01*
X69622518Y-47718018D01*
X69619337Y-47717360D01*
X69583142Y-47715006D01*
X69570788Y-47728954D01*
X69580820Y-47761612D01*
X69586225Y-47772179D01*
X69593955Y-47794694D01*
X69580886Y-47801077D01*
X69579276Y-47801096D01*
X69552549Y-47787381D01*
X69533797Y-47750329D01*
X69525968Y-47696075D01*
X69525899Y-47690017D01*
X69531710Y-47656672D01*
X69534050Y-47648675D01*
X69573326Y-47648675D01*
X69677847Y-47682283D01*
X69817559Y-47742131D01*
X69946361Y-47828523D01*
X70064684Y-47941903D01*
X70172960Y-48082715D01*
X70271620Y-48251404D01*
X70312068Y-48334511D01*
X70340959Y-48396945D01*
X70366051Y-48450705D01*
X70384195Y-48489073D01*
X70391369Y-48503744D01*
X70411387Y-48521375D01*
X70449697Y-48541698D01*
X70476489Y-48552482D01*
X70549021Y-48570312D01*
X70621765Y-48574322D01*
X70686118Y-48565016D01*
X70733479Y-48542898D01*
X70740074Y-48537062D01*
X70760694Y-48499725D01*
X70768979Y-48440225D01*
X70764954Y-48356938D01*
X70748649Y-48248239D01*
X70745233Y-48230096D01*
X70717249Y-48110726D01*
X70682717Y-48014928D01*
X70638882Y-47936616D01*
X70582988Y-47869707D01*
X70581311Y-47868025D01*
X70506659Y-47808061D01*
X70420786Y-47768191D01*
X70318512Y-47746611D01*
X70217660Y-47741296D01*
X70158027Y-47739779D01*
X70115531Y-47732829D01*
X70077463Y-47716851D01*
X70031766Y-47688674D01*
X69970887Y-47653251D01*
X69897836Y-47617817D01*
X69820884Y-47585672D01*
X69748298Y-47560118D01*
X69688349Y-47544455D01*
X69662259Y-47541189D01*
X69627799Y-47543379D01*
X69608078Y-47558482D01*
X69592535Y-47594073D01*
X69573326Y-47648675D01*
X69534050Y-47648675D01*
X69548121Y-47600576D01*
X69573600Y-47526304D01*
X69606615Y-47438434D01*
X69628848Y-47382464D01*
X69677084Y-47264816D01*
X69718090Y-47172238D01*
X69755538Y-47101955D01*
X69793099Y-47051196D01*
X69834443Y-47017187D01*
X69883241Y-46997155D01*
X69943165Y-46988326D01*
X70017885Y-46987929D01*
X70111072Y-46993190D01*
X70141344Y-46995326D01*
X70255361Y-47001953D01*
X70344178Y-47003160D01*
X70412098Y-46998403D01*
X70463420Y-46987142D01*
X70502445Y-46968834D01*
X70530123Y-46946372D01*
X70548768Y-46922645D01*
X70554569Y-46895150D01*
X70549733Y-46852001D01*
X70548729Y-46846248D01*
X70541338Y-46789027D01*
X70536576Y-46722626D01*
X70535729Y-46692579D01*
X70537808Y-46638800D01*
X70548385Y-46600166D01*
X70572311Y-46562144D01*
X70584415Y-46546691D01*
X70610410Y-46509322D01*
X70623819Y-46479734D01*
X70623702Y-46468898D01*
X70596566Y-46446786D01*
X70549629Y-46427547D01*
X70492991Y-46414501D01*
X70446685Y-46410748D01*
X70404610Y-46408100D01*
X70376703Y-46401424D01*
X70371825Y-46397825D01*
X70380848Y-46390228D01*
X70411119Y-46382617D01*
X70454004Y-46376023D01*
X70500869Y-46371474D01*
X70543080Y-46370001D01*
X70572003Y-46372634D01*
X70575031Y-46373584D01*
X70598664Y-46369203D01*
X70628137Y-46347672D01*
X70631364Y-46344360D01*
X70666471Y-46306991D01*
X70639920Y-46222579D01*
X70625570Y-46173178D01*
X70621103Y-46140593D01*
X70626280Y-46113504D01*
X70637099Y-46088405D01*
X70653727Y-46060562D01*
X70676948Y-46040676D01*
X70714689Y-46023729D01*
X70764379Y-46007804D01*
X70818311Y-45989503D01*
X70861870Y-45970646D01*
X70885983Y-45955184D01*
X70886474Y-45954621D01*
X70898683Y-45916754D01*
X70887006Y-45862191D01*
X70851712Y-45791857D01*
X70828873Y-45756305D01*
X70750781Y-45627128D01*
X70678896Y-45481279D01*
X70624543Y-45345563D01*
X70583470Y-45229701D01*
X70364897Y-45229611D01*
X70273919Y-45228874D01*
X70181258Y-45226921D01*
X70096924Y-45224038D01*
X70030927Y-45220507D01*
X70022986Y-45219920D01*
X69962130Y-45215818D01*
X69925214Y-45215638D01*
X69906449Y-45220115D01*
X69900046Y-45229982D01*
X69899649Y-45235556D01*
X69891735Y-45268125D01*
X69871058Y-45315871D01*
X69842208Y-45369625D01*
X69809781Y-45420219D01*
X69801481Y-45431525D01*
X69768615Y-45486386D01*
X69754597Y-45536502D01*
X69761063Y-45575108D01*
X69765260Y-45581219D01*
X69798028Y-45599758D01*
X69843786Y-45601320D01*
X69887096Y-45587217D01*
X69908511Y-45578405D01*
X69911246Y-45590026D01*
X69906982Y-45605904D01*
X69875775Y-45674480D01*
X69830904Y-45716498D01*
X69771956Y-45732200D01*
X69707025Y-45724163D01*
X69659220Y-45713959D01*
X69636519Y-45716363D01*
X69636159Y-45733148D01*
X69651294Y-45759958D01*
X69676088Y-45786372D01*
X69711274Y-45796813D01*
X69735544Y-45797800D01*
X69772870Y-45800623D01*
X69793539Y-45807671D01*
X69794999Y-45810456D01*
X69785379Y-45827651D01*
X69760836Y-45857497D01*
X69742643Y-45877022D01*
X69690287Y-45930931D01*
X69727669Y-45986016D01*
X69772694Y-46076228D01*
X69790532Y-46171554D01*
X69787373Y-46230089D01*
X69775670Y-46286411D01*
X69756345Y-46335530D01*
X69724801Y-46386205D01*
X69676442Y-46447193D01*
X69668552Y-46456486D01*
X69621118Y-46522254D01*
X69601011Y-46576350D01*
X69608265Y-46618657D01*
X69618589Y-46632008D01*
X69654118Y-46648845D01*
X69698190Y-46637283D01*
X69725708Y-46618963D01*
X69765099Y-46587978D01*
X69765099Y-46649605D01*
X69753142Y-46726591D01*
X69718959Y-46788623D01*
X69683886Y-46819835D01*
X69662882Y-46836018D01*
X69652748Y-46855025D01*
X69651157Y-46886040D01*
X69655220Y-46932919D01*
X69655466Y-47006003D01*
X69636794Y-47066147D01*
X69595746Y-47120147D01*
X69534045Y-47171110D01*
X69493148Y-47203568D01*
X69461653Y-47234107D01*
X69450834Y-47248535D01*
X69441456Y-47291487D01*
X69452834Y-47334314D01*
X69479518Y-47368903D01*
X69516060Y-47387142D01*
X69543303Y-47386187D01*
X69562410Y-47382600D01*
X69565675Y-47390509D01*
X69553908Y-47416500D01*
X69548365Y-47427268D01*
X69501349Y-47495730D01*
X69446552Y-47535702D01*
X69385218Y-47546844D01*
X69318588Y-47528819D01*
X69273993Y-47502003D01*
X69237500Y-47477027D01*
X69218742Y-47469371D01*
X69212299Y-47477438D01*
X69211950Y-47483726D01*
X69220251Y-47515955D01*
X69235223Y-47543620D01*
X69248417Y-47564857D01*
X69244302Y-47574319D01*
X69217662Y-47576766D01*
X69198821Y-47576846D01*
X69113289Y-47565359D01*
X69041752Y-47529353D01*
X69013863Y-47505823D01*
X68987278Y-47481958D01*
X68975567Y-47478114D01*
X68972770Y-47492862D01*
X68972750Y-47495973D01*
X68981150Y-47530510D01*
X68996023Y-47558570D01*
X69008717Y-47578821D01*
X69005700Y-47588524D01*
X68981674Y-47591559D01*
X68950693Y-47591796D01*
X68866860Y-47581398D01*
X68790506Y-47548062D01*
X68721464Y-47495429D01*
X68686597Y-47465156D01*
X68667124Y-47453449D01*
X68656935Y-47458099D01*
X68651934Y-47470280D01*
X68648326Y-47507419D01*
X68652343Y-47538200D01*
X68653809Y-47566211D01*
X68637837Y-47576749D01*
X68601653Y-47570274D01*
X68557956Y-47553851D01*
X68487635Y-47515072D01*
X68435688Y-47462062D01*
X68419361Y-47437727D01*
X68400399Y-47410461D01*
X68386259Y-47406244D01*
X68368364Y-47420919D01*
X68345604Y-47459165D01*
X68288822Y-47459165D01*
X68293043Y-47439944D01*
X68312973Y-47402267D01*
X68349589Y-47366692D01*
X68391572Y-47342662D01*
X68415560Y-47337703D01*
X68433069Y-47349864D01*
X68455181Y-47380475D01*
X68463286Y-47395163D01*
X68494329Y-47441313D01*
X68532826Y-47478730D01*
X68570304Y-47499878D01*
X68583525Y-47502096D01*
X68595625Y-47489429D01*
X68599057Y-47468459D01*
X68606765Y-47433648D01*
X68625648Y-47391589D01*
X68629671Y-47384698D01*
X68660230Y-47334574D01*
X68714708Y-47404499D01*
X68760473Y-47453826D01*
X68812284Y-47495294D01*
X68861803Y-47523014D01*
X68894263Y-47531336D01*
X68907929Y-47518584D01*
X68912950Y-47486164D01*
X68920873Y-47434689D01*
X68940431Y-47385606D01*
X68950037Y-47371106D01*
X68961247Y-47378862D01*
X68987850Y-47402950D01*
X69024316Y-47438343D01*
X69028101Y-47442118D01*
X69081057Y-47489853D01*
X69119866Y-47513312D01*
X69143805Y-47512240D01*
X69152147Y-47486383D01*
X69152150Y-47485668D01*
X69158470Y-47451411D01*
X69173965Y-47408521D01*
X69176763Y-47402423D01*
X69201375Y-47350555D01*
X69270200Y-47417262D01*
X69323796Y-47464847D01*
X69365211Y-47489758D01*
X69399544Y-47493726D01*
X69431891Y-47478480D01*
X69437628Y-47474046D01*
X69473124Y-47445303D01*
X69437785Y-47416687D01*
X69413105Y-47387079D01*
X69399224Y-47342644D01*
X69394950Y-47310061D01*
X69387455Y-47232051D01*
X69494052Y-47130208D01*
X69543623Y-47081771D01*
X69574975Y-47047092D01*
X69592198Y-47020018D01*
X69599381Y-46994399D01*
X69600649Y-46969870D01*
X69596841Y-46916489D01*
X69587589Y-46865947D01*
X69586735Y-46862858D01*
X69579811Y-46827985D01*
X69588068Y-46808635D01*
X69605422Y-46797551D01*
X69640546Y-46775647D01*
X69671397Y-46750161D01*
X69693952Y-46725933D01*
X69704190Y-46707808D01*
X69698087Y-46700627D01*
X69682841Y-46704354D01*
X69636193Y-46707859D01*
X69593405Y-46685718D01*
X69562103Y-46641948D01*
X69561441Y-46640392D01*
X69546991Y-46583795D01*
X69554642Y-46529462D01*
X69586080Y-46471505D01*
X69622672Y-46426152D01*
X69687546Y-46336665D01*
X69724180Y-46247105D01*
X69732329Y-46159270D01*
X69711746Y-46074958D01*
X69678638Y-46016946D01*
X69647494Y-45980197D01*
X69618156Y-45955705D01*
X69605943Y-45950455D01*
X69548556Y-45938880D01*
X69507075Y-45921844D01*
X69467516Y-45893157D01*
X69458018Y-45884961D01*
X69409548Y-45836922D01*
X69375805Y-45787718D01*
X69354406Y-45730558D01*
X69342966Y-45658654D01*
X69341487Y-45622903D01*
X69394192Y-45622903D01*
X69406757Y-45704742D01*
X69433769Y-45770780D01*
X69476881Y-45826991D01*
X69480727Y-45830895D01*
X69520410Y-45866135D01*
X69554859Y-45883031D01*
X69596323Y-45887496D01*
X69598008Y-45887499D01*
X69638336Y-45884208D01*
X69664415Y-45876004D01*
X69667694Y-45872922D01*
X69663267Y-45854943D01*
X69641361Y-45827378D01*
X69630374Y-45816859D01*
X69600753Y-45784218D01*
X69583208Y-45745435D01*
X69572424Y-45689412D01*
X69567063Y-45643438D01*
X69565059Y-45612245D01*
X69566273Y-45603450D01*
X69581502Y-45609643D01*
X69614992Y-45625607D01*
X69645499Y-45640825D01*
X69695141Y-45662146D01*
X69741031Y-45675599D01*
X69760864Y-45678034D01*
X69802474Y-45677868D01*
X69753886Y-45639576D01*
X69715800Y-45595208D01*
X69703518Y-45541263D01*
X69717062Y-45475948D01*
X69756458Y-45397467D01*
X69757109Y-45396404D01*
X69788360Y-45342692D01*
X69816157Y-45290232D01*
X69831032Y-45258321D01*
X69853146Y-45204717D01*
X69702531Y-45178355D01*
X69632334Y-45166754D01*
X69585932Y-45161187D01*
X69557879Y-45161447D01*
X69542728Y-45167330D01*
X69538393Y-45172160D01*
X69484124Y-45255586D01*
X69445588Y-45322266D01*
X69419996Y-45378923D01*
X69404557Y-45432283D01*
X69396484Y-45489071D01*
X69394418Y-45519290D01*
X69394192Y-45622903D01*
X69341487Y-45622903D01*
X69339100Y-45565214D01*
X69339025Y-45546099D01*
X69338760Y-45472686D01*
X69337117Y-45422927D01*
X69332821Y-45390578D01*
X69324597Y-45369394D01*
X69311172Y-45353130D01*
X69297079Y-45340537D01*
X69241310Y-45310121D01*
X69179509Y-45308495D01*
X69113654Y-45335641D01*
X69103458Y-45342254D01*
X69041950Y-45399759D01*
X69007246Y-45469570D01*
X68999661Y-45550121D01*
X69019509Y-45639848D01*
X69035633Y-45678889D01*
X69055691Y-45718051D01*
X69081610Y-45760402D01*
X69116576Y-45810423D01*
X69163774Y-45872599D01*
X69226390Y-45951413D01*
X69250250Y-45980937D01*
X69278143Y-46003408D01*
X69307899Y-46000413D01*
X69343450Y-45970976D01*
X69358040Y-45954184D01*
X69386082Y-45922903D01*
X69403751Y-45912863D01*
X69417721Y-45920739D01*
X69419966Y-45923328D01*
X69427125Y-45952380D01*
X69413190Y-45987758D01*
X69384034Y-46022881D01*
X69345534Y-46051167D01*
X69303565Y-46066036D01*
X69291789Y-46066899D01*
X69269721Y-46071538D01*
X69252146Y-46087068D01*
X69238830Y-46115909D01*
X69229540Y-46160483D01*
X69224042Y-46223209D01*
X69222103Y-46306509D01*
X69223491Y-46412803D01*
X69227971Y-46544512D01*
X69233655Y-46670400D01*
X69238152Y-46765498D01*
X69240865Y-46834661D01*
X69241556Y-46881816D01*
X69239985Y-46910886D01*
X69235915Y-46925799D01*
X69229105Y-46930480D01*
X69219318Y-46928854D01*
X69217951Y-46928427D01*
X69158471Y-46914374D01*
X69073344Y-46901194D01*
X68966815Y-46889277D01*
X68843133Y-46879015D01*
X68706547Y-46870799D01*
X68561302Y-46865021D01*
X68516776Y-46863824D01*
X68157977Y-46855257D01*
X68130794Y-46916913D01*
X68102758Y-46962110D01*
X68057644Y-47014788D01*
X68013422Y-47057013D01*
X67944719Y-47125090D01*
X67895969Y-47191251D01*
X67870007Y-47251226D01*
X67866453Y-47278401D01*
X67816249Y-47278401D01*
X67816209Y-47278112D01*
X67814212Y-47249548D01*
X67806360Y-47229008D01*
X67787159Y-47211023D01*
X67751113Y-47190122D01*
X67703961Y-47166393D01*
X67593205Y-47111589D01*
X67601328Y-46993067D01*
X67603445Y-46931614D01*
X67603283Y-46850656D01*
X67600994Y-46760486D01*
X67596732Y-46671400D01*
X67596461Y-46667026D01*
X67583788Y-46514353D01*
X67564807Y-46375158D01*
X67537696Y-46242382D01*
X67500633Y-46108963D01*
X67451794Y-45967841D01*
X67389359Y-45811954D01*
X67355373Y-45732892D01*
X67287192Y-45573140D01*
X67231928Y-45433984D01*
X67187990Y-45309873D01*
X67153788Y-45195260D01*
X67127730Y-45084595D01*
X67108226Y-44972329D01*
X67093686Y-44852913D01*
X67089076Y-44803881D01*
X67084303Y-44631702D01*
X67142873Y-44631702D01*
X67148631Y-44806959D01*
X67166656Y-44971385D01*
X67198574Y-45131896D01*
X67246007Y-45295412D01*
X67310579Y-45468851D01*
X67373494Y-45614605D01*
X67448331Y-45785271D01*
X67508732Y-45936945D01*
X67556226Y-46075914D01*
X67592342Y-46208465D01*
X67618611Y-46340885D01*
X67636562Y-46479463D01*
X67647724Y-46630486D01*
X67652743Y-46762543D01*
X67660964Y-47076962D01*
X67745021Y-47124239D01*
X67792850Y-47148849D01*
X67825833Y-47157218D01*
X67847443Y-47146340D01*
X67861153Y-47113209D01*
X67870436Y-47054818D01*
X67874817Y-47011863D01*
X67878608Y-46943547D01*
X67879476Y-46860020D01*
X67877365Y-46775834D01*
X67875839Y-46747778D01*
X67860860Y-46585186D01*
X67836320Y-46425208D01*
X67800856Y-46262448D01*
X67753107Y-46091509D01*
X67691709Y-45906996D01*
X67615299Y-45703513D01*
X67606479Y-45681154D01*
X67543829Y-45519258D01*
X67492906Y-45378333D01*
X67452127Y-45252575D01*
X67419910Y-45136180D01*
X67394674Y-45023344D01*
X67374836Y-44908263D01*
X67358815Y-44785133D01*
X67356456Y-44763894D01*
X67349453Y-44582601D01*
X67349486Y-44582200D01*
X67407218Y-44582200D01*
X67408518Y-44706452D01*
X67417505Y-44833176D01*
X67433282Y-44954635D01*
X67457227Y-45076071D01*
X67490715Y-45202726D01*
X67535122Y-45339840D01*
X67591825Y-45492656D01*
X67657763Y-45655775D01*
X67724942Y-45820751D01*
X67779675Y-45964608D01*
X67823265Y-46092781D01*
X67857013Y-46210702D01*
X67882222Y-46323806D01*
X67900194Y-46437525D01*
X67912231Y-46557294D01*
X67919635Y-46688545D01*
X67921950Y-46758085D01*
X67930058Y-47053096D01*
X67988027Y-47007183D01*
X68027507Y-46973026D01*
X68059623Y-46940298D01*
X68068349Y-46929357D01*
X68088255Y-46890563D01*
X68084386Y-46866541D01*
X68060802Y-46859248D01*
X68045433Y-46856567D01*
X68036456Y-46844368D01*
X68032186Y-46816416D01*
X68030939Y-46766479D01*
X68030902Y-46748608D01*
X68027991Y-46664621D01*
X68018853Y-46572666D01*
X68002881Y-46470147D01*
X67979469Y-46354469D01*
X67948009Y-46223034D01*
X67907896Y-46073246D01*
X67858522Y-45902510D01*
X67799280Y-45708228D01*
X67754555Y-45566075D01*
X67688124Y-45351221D01*
X67633521Y-45160807D01*
X67590381Y-44991968D01*
X67558338Y-44841844D01*
X67537029Y-44707571D01*
X67526089Y-44586287D01*
X67525716Y-44542002D01*
X67590220Y-44542002D01*
X67590548Y-44619599D01*
X67592265Y-44689157D01*
X67596126Y-44754111D01*
X67602887Y-44817898D01*
X67613303Y-44883953D01*
X67628129Y-44955712D01*
X67648121Y-45036611D01*
X67674034Y-45130086D01*
X67706623Y-45239572D01*
X67746643Y-45368505D01*
X67794850Y-45520322D01*
X67828101Y-45624083D01*
X67886125Y-45807880D01*
X67934472Y-45968549D01*
X67974263Y-46110848D01*
X68006617Y-46239533D01*
X68032653Y-46359361D01*
X68053488Y-46475088D01*
X68070243Y-46591472D01*
X68083822Y-46711134D01*
X68092266Y-46794746D01*
X68439071Y-46805505D01*
X68548894Y-46809578D01*
X68658707Y-46814845D01*
X68761596Y-46820887D01*
X68850646Y-46827285D01*
X68918943Y-46833621D01*
X68935375Y-46835579D01*
X69006352Y-46844211D01*
X69072824Y-46851357D01*
X69124858Y-46855988D01*
X69143134Y-46857070D01*
X69201393Y-46859248D01*
X69191337Y-46713485D01*
X69182014Y-46573784D01*
X69175274Y-46460210D01*
X69171097Y-46369107D01*
X69169461Y-46296817D01*
X69170344Y-46239682D01*
X69173724Y-46194045D01*
X69179581Y-46156246D01*
X69187849Y-46122777D01*
X69212660Y-46037431D01*
X69172943Y-45977415D01*
X69147635Y-45942334D01*
X69128011Y-45920720D01*
X69122206Y-45917399D01*
X69112081Y-45930423D01*
X69098443Y-45963655D01*
X69090556Y-45988412D01*
X69083468Y-46021422D01*
X69078362Y-46066945D01*
X69075103Y-46128618D01*
X69073554Y-46210076D01*
X69073579Y-46314955D01*
X69074591Y-46414486D01*
X69075711Y-46513932D01*
X69076350Y-46602624D01*
X69076509Y-46676457D01*
X69076188Y-46731325D01*
X69075387Y-46763123D01*
X69074591Y-46769479D01*
X69058925Y-46767394D01*
X69019208Y-46761726D01*
X68960966Y-46753273D01*
X68889724Y-46742833D01*
X68868101Y-46739648D01*
X68701358Y-46720552D01*
X68521886Y-46711126D01*
X68415864Y-46709817D01*
X68165452Y-46709748D01*
X68165392Y-46608836D01*
X68160672Y-46516232D01*
X68147623Y-46405422D01*
X68127766Y-46286431D01*
X68102622Y-46169284D01*
X68092778Y-46130287D01*
X68080237Y-46077646D01*
X68077124Y-46059869D01*
X68137852Y-46059869D01*
X68138449Y-46075708D01*
X68144758Y-46113092D01*
X68155473Y-46164499D01*
X68157671Y-46174233D01*
X68168738Y-46228483D01*
X68181256Y-46298916D01*
X68194064Y-46377812D01*
X68206000Y-46457453D01*
X68215903Y-46530119D01*
X68222612Y-46588091D01*
X68224960Y-46621472D01*
X68228597Y-46630260D01*
X68241865Y-46637088D01*
X68268660Y-46642459D01*
X68312879Y-46646875D01*
X68378420Y-46650838D01*
X68469181Y-46654849D01*
X68490614Y-46655698D01*
X68624459Y-46662175D01*
X68739083Y-46670828D01*
X68845145Y-46682740D01*
X68953304Y-46698994D01*
X69005202Y-46707959D01*
X69008246Y-46694211D01*
X69011415Y-46654643D01*
X69014526Y-46593336D01*
X69017394Y-46514367D01*
X69019835Y-46421817D01*
X69021134Y-46354686D01*
X69023485Y-46235389D01*
X69026299Y-46141899D01*
X69029882Y-46070124D01*
X69034538Y-46015973D01*
X69040573Y-45975353D01*
X69048293Y-45944172D01*
X69052723Y-45931259D01*
X69078407Y-45862894D01*
X69025419Y-45774899D01*
X68978820Y-45686406D01*
X68950733Y-45607828D01*
X68942934Y-45553471D01*
X68938515Y-45542325D01*
X68922755Y-45547215D01*
X68891730Y-45570070D01*
X68866916Y-45590845D01*
X68713281Y-45714175D01*
X68554874Y-45826437D01*
X68399905Y-45922010D01*
X68322427Y-45963743D01*
X68256166Y-45997590D01*
X68200159Y-46026503D01*
X68159467Y-46047849D01*
X68139148Y-46058992D01*
X68137852Y-46059869D01*
X68077124Y-46059869D01*
X68073207Y-46037498D01*
X68072940Y-46017312D01*
X68073685Y-46016388D01*
X68092808Y-46008864D01*
X68129062Y-45996550D01*
X68143027Y-45992058D01*
X68223108Y-45959859D01*
X68318475Y-45910587D01*
X68423937Y-45847953D01*
X68534299Y-45775664D01*
X68644370Y-45697430D01*
X68748957Y-45616958D01*
X68842867Y-45537959D01*
X68920906Y-45464140D01*
X68977884Y-45399210D01*
X68983218Y-45391972D01*
X69015152Y-45350544D01*
X69043508Y-45318886D01*
X69058064Y-45306608D01*
X69072654Y-45294872D01*
X69059979Y-45286016D01*
X69059409Y-45285796D01*
X69040442Y-45292429D01*
X69002079Y-45317563D01*
X68946825Y-45359345D01*
X68877182Y-45415917D01*
X68829786Y-45455971D01*
X68752108Y-45521388D01*
X68671431Y-45587491D01*
X68594723Y-45648694D01*
X68528950Y-45699410D01*
X68495140Y-45724264D01*
X68417265Y-45776491D01*
X68335087Y-45826049D01*
X68254482Y-45869896D01*
X68181326Y-45904989D01*
X68121495Y-45928288D01*
X68085077Y-45936579D01*
X68042077Y-45939824D01*
X67931054Y-45595975D01*
X67869033Y-45400414D01*
X67817433Y-45229448D01*
X67775584Y-45079903D01*
X67742815Y-44948608D01*
X67718457Y-44832390D01*
X67701838Y-44728076D01*
X67692290Y-44632495D01*
X67689142Y-44542473D01*
X67690310Y-44499503D01*
X67748077Y-44499503D01*
X67750323Y-44583370D01*
X67751306Y-44609016D01*
X67754821Y-44682188D01*
X67759774Y-44748437D01*
X67767092Y-44811762D01*
X67777697Y-44876159D01*
X67792513Y-44945625D01*
X67812465Y-45024157D01*
X67838476Y-45115752D01*
X67871470Y-45224406D01*
X67912372Y-45354117D01*
X67952334Y-45478603D01*
X68083227Y-45884480D01*
X68135519Y-45862780D01*
X68175929Y-45844069D01*
X68229949Y-45816583D01*
X68281281Y-45788808D01*
X68332282Y-45759489D01*
X68360976Y-45739270D01*
X68371443Y-45723196D01*
X68367769Y-45706313D01*
X68360106Y-45693150D01*
X68343838Y-45680981D01*
X68310463Y-45673876D01*
X68254650Y-45670937D01*
X68227008Y-45670725D01*
X68164964Y-45669668D01*
X68124368Y-45665224D01*
X68096806Y-45655477D01*
X68073863Y-45638516D01*
X68070112Y-45635056D01*
X68038753Y-45592888D01*
X68023232Y-45537738D01*
X68023237Y-45510535D01*
X68077512Y-45510535D01*
X68089887Y-45568155D01*
X68099415Y-45585731D01*
X68115662Y-45603992D01*
X68137499Y-45613748D01*
X68173351Y-45617093D01*
X68222752Y-45616411D01*
X68299859Y-45616899D01*
X68352912Y-45624938D01*
X68387113Y-45641900D01*
X68405378Y-45664608D01*
X68414587Y-45679500D01*
X68425521Y-45684847D01*
X68443650Y-45678659D01*
X68474440Y-45658945D01*
X68523360Y-45623713D01*
X68528989Y-45619603D01*
X68576229Y-45578222D01*
X68597193Y-45538044D01*
X68594082Y-45491154D01*
X68577116Y-45446475D01*
X68563177Y-45419716D01*
X68556655Y-45419241D01*
X68555136Y-45431525D01*
X68547326Y-45473152D01*
X68526456Y-45489197D01*
X68488367Y-45482189D01*
X68478308Y-45478240D01*
X68448293Y-45467726D01*
X68421603Y-45465997D01*
X68388258Y-45474224D01*
X68338278Y-45493580D01*
X68334502Y-45495133D01*
X68284268Y-45515040D01*
X68252600Y-45523894D01*
X68230656Y-45522591D01*
X68209593Y-45512027D01*
X68203927Y-45508371D01*
X68165891Y-45468303D01*
X68151806Y-45419056D01*
X68160884Y-45368246D01*
X68192336Y-45323487D01*
X68225412Y-45300736D01*
X68254151Y-45283690D01*
X68255393Y-45274426D01*
X68228440Y-45272234D01*
X68199089Y-45273966D01*
X68173130Y-45269374D01*
X68165496Y-45244636D01*
X68165452Y-45241103D01*
X68156362Y-45200289D01*
X68143502Y-45176496D01*
X68130113Y-45161315D01*
X68123549Y-45165352D01*
X68121248Y-45192947D01*
X68120916Y-45214751D01*
X68115778Y-45271790D01*
X68103644Y-45334754D01*
X68098015Y-45355414D01*
X68080207Y-45437224D01*
X68077512Y-45510535D01*
X68023237Y-45510535D01*
X68023244Y-45465710D01*
X68038487Y-45372905D01*
X68046842Y-45336916D01*
X68062281Y-45271941D01*
X68070546Y-45227725D01*
X68072005Y-45196096D01*
X68067026Y-45168881D01*
X68055975Y-45137906D01*
X68055811Y-45137491D01*
X68042239Y-45098804D01*
X68036409Y-45073510D01*
X68037029Y-45069091D01*
X68053651Y-45069019D01*
X68088393Y-45075783D01*
X68103596Y-45079647D01*
X68159385Y-45105109D01*
X68196907Y-45143606D01*
X68210302Y-45188177D01*
X68222361Y-45210770D01*
X68238186Y-45214751D01*
X68279567Y-45227672D01*
X68318095Y-45260072D01*
X68343728Y-45302409D01*
X68347999Y-45319118D01*
X68351504Y-45350598D01*
X68350811Y-45364235D01*
X68350711Y-45364251D01*
X68335511Y-45359582D01*
X68310264Y-45350360D01*
X68267099Y-45347427D01*
X68231076Y-45367581D01*
X68211546Y-45404506D01*
X68210302Y-45417892D01*
X68219603Y-45452225D01*
X68247726Y-45463853D01*
X68294997Y-45452836D01*
X68324493Y-45439570D01*
X68397535Y-45414058D01*
X68451434Y-45411847D01*
X68511413Y-45417567D01*
X68502205Y-45368484D01*
X68497518Y-45333703D01*
X68504832Y-45321746D01*
X68529631Y-45329518D01*
X68551685Y-45340550D01*
X68600577Y-45382514D01*
X68633335Y-45449551D01*
X68641607Y-45481812D01*
X68651326Y-45528484D01*
X68823251Y-45385429D01*
X68883255Y-45334813D01*
X68934006Y-45290689D01*
X68971514Y-45256631D01*
X68978619Y-45249476D01*
X69272161Y-45249476D01*
X69320543Y-45283705D01*
X69352069Y-45305524D01*
X69371088Y-45317768D01*
X69372988Y-45318668D01*
X69382416Y-45307458D01*
X69403602Y-45277167D01*
X69432268Y-45233947D01*
X69437239Y-45226279D01*
X69497426Y-45133157D01*
X69448126Y-45115292D01*
X69407725Y-45101405D01*
X69385956Y-45099844D01*
X69373174Y-45113212D01*
X69362061Y-45138524D01*
X69337291Y-45181233D01*
X69308128Y-45215687D01*
X69272161Y-45249476D01*
X68978619Y-45249476D01*
X68991789Y-45236213D01*
X68994228Y-45232300D01*
X68987955Y-45213451D01*
X68973453Y-45178682D01*
X68967832Y-45166085D01*
X68950843Y-45121173D01*
X68932449Y-45061285D01*
X68919214Y-45010037D01*
X68901635Y-44940415D01*
X68885678Y-44894648D01*
X68868451Y-44867030D01*
X68847064Y-44851860D01*
X68837145Y-44848142D01*
X68800071Y-44850894D01*
X68763234Y-44878642D01*
X68732100Y-44926940D01*
X68727640Y-44937186D01*
X68709641Y-44981297D01*
X68677410Y-44929146D01*
X68646772Y-44860450D01*
X68636810Y-44792494D01*
X68637329Y-44788677D01*
X68688701Y-44788677D01*
X68693359Y-44828378D01*
X68707195Y-44839799D01*
X68730001Y-44822789D01*
X68732334Y-44820043D01*
X68770165Y-44795248D01*
X68820538Y-44787867D01*
X68858806Y-44795460D01*
X68895057Y-44817734D01*
X68924723Y-44856766D01*
X68950174Y-44916871D01*
X68973781Y-45002366D01*
X68974800Y-45006717D01*
X68999044Y-45098362D01*
X69023540Y-45163658D01*
X69049973Y-45206120D01*
X69080031Y-45229267D01*
X69081920Y-45230090D01*
X69133449Y-45238197D01*
X69192649Y-45227768D01*
X69237139Y-45206840D01*
X69266005Y-45179002D01*
X69294605Y-45138142D01*
X69300325Y-45127648D01*
X69329285Y-45070882D01*
X69251930Y-45025054D01*
X69203813Y-44998177D01*
X69160984Y-44977007D01*
X69157498Y-44975613D01*
X69301586Y-44975613D01*
X69313483Y-44990946D01*
X69345782Y-45008605D01*
X69401815Y-45032089D01*
X69423443Y-45040671D01*
X69595572Y-45096495D01*
X69790989Y-45137823D01*
X70006693Y-45164398D01*
X70239681Y-45175966D01*
X70486951Y-45172271D01*
X70744322Y-45153177D01*
X70856068Y-45139830D01*
X70972001Y-45122635D01*
X71087217Y-45102628D01*
X71196812Y-45080844D01*
X71295882Y-45058318D01*
X71379525Y-45036086D01*
X71442835Y-45015183D01*
X71478742Y-44998125D01*
X71508583Y-44966965D01*
X71511103Y-44933820D01*
X71488345Y-44902342D01*
X71442354Y-44876183D01*
X71403967Y-44864446D01*
X71374728Y-44859859D01*
X71367498Y-44868030D01*
X71371437Y-44881355D01*
X71381615Y-44910476D01*
X71384541Y-44921231D01*
X71372791Y-44931948D01*
X71339335Y-44948375D01*
X71290986Y-44967242D01*
X71282521Y-44970200D01*
X71074515Y-45027492D01*
X70846653Y-45063238D01*
X70599795Y-45077451D01*
X70334802Y-45070144D01*
X70052538Y-45041327D01*
X69753862Y-44991015D01*
X69544825Y-44945245D01*
X69361926Y-44901684D01*
X69325685Y-44937926D01*
X69306763Y-44959106D01*
X69301586Y-44975613D01*
X69157498Y-44975613D01*
X69139906Y-44968579D01*
X69097818Y-44941423D01*
X69067526Y-44895063D01*
X69051803Y-44838800D01*
X69052482Y-44814961D01*
X69107300Y-44814961D01*
X69119247Y-44867752D01*
X69150275Y-44905996D01*
X69193161Y-44926203D01*
X69240683Y-44924889D01*
X69283881Y-44900219D01*
X69299366Y-44875864D01*
X69488524Y-44875864D01*
X69563274Y-44895853D01*
X69633440Y-44912607D01*
X69724693Y-44931506D01*
X69828443Y-44951041D01*
X69936103Y-44969700D01*
X70039082Y-44985973D01*
X70128793Y-44998352D01*
X70176223Y-45003622D01*
X70417696Y-45017129D01*
X70660751Y-45013148D01*
X70775923Y-45004734D01*
X70842414Y-44997222D01*
X70919948Y-44986441D01*
X71002858Y-44973418D01*
X71085478Y-44959181D01*
X71162139Y-44944757D01*
X71227175Y-44931174D01*
X71274919Y-44919460D01*
X71299703Y-44910642D01*
X71301256Y-44909474D01*
X71300835Y-44890355D01*
X71284318Y-44854447D01*
X71255185Y-44807561D01*
X71216916Y-44755509D01*
X71188748Y-44721608D01*
X71152693Y-44685131D01*
X71099105Y-44636882D01*
X71034664Y-44582626D01*
X70966054Y-44528126D01*
X70952038Y-44517414D01*
X70884351Y-44465597D01*
X70837335Y-44427872D01*
X70807555Y-44400646D01*
X70791573Y-44380326D01*
X70785952Y-44363317D01*
X70787256Y-44346027D01*
X70787404Y-44345281D01*
X70790535Y-44302224D01*
X70788612Y-44237491D01*
X70782458Y-44158724D01*
X70772900Y-44073562D01*
X70760763Y-43989646D01*
X70746872Y-43914616D01*
X70736002Y-43869498D01*
X70677084Y-43709931D01*
X70594255Y-43566244D01*
X70489384Y-43440788D01*
X70364344Y-43335913D01*
X70262435Y-43274238D01*
X70207422Y-43246445D01*
X70161857Y-43224954D01*
X70132599Y-43212933D01*
X70126461Y-43211455D01*
X70125222Y-43223427D01*
X70136194Y-43254986D01*
X70157047Y-43299591D01*
X70159781Y-43304892D01*
X70191949Y-43374615D01*
X70219647Y-43449267D01*
X70240718Y-43521286D01*
X70253005Y-43583109D01*
X70254350Y-43627174D01*
X70253262Y-43632645D01*
X70235517Y-43662715D01*
X70202295Y-43695089D01*
X70190629Y-43703627D01*
X70137038Y-43728173D01*
X70090521Y-43723992D01*
X70050006Y-43690755D01*
X70026293Y-43653243D01*
X70003789Y-43616108D01*
X69983361Y-43592281D01*
X69977705Y-43588798D01*
X69961624Y-43588411D01*
X69964789Y-43605147D01*
X69987867Y-43640371D01*
X70026994Y-43689960D01*
X70063937Y-43737450D01*
X70094833Y-43781751D01*
X70112375Y-43812079D01*
X70130212Y-43852078D01*
X70186898Y-43800866D01*
X70236277Y-43763833D01*
X70279841Y-43751314D01*
X70326239Y-43761654D01*
X70345153Y-43770577D01*
X70384386Y-43798225D01*
X70433941Y-43843326D01*
X70487223Y-43898679D01*
X70537639Y-43957082D01*
X70578594Y-44011333D01*
X70602253Y-44051392D01*
X70624507Y-44104421D01*
X70630410Y-44138280D01*
X70616518Y-44158679D01*
X70579382Y-44171330D01*
X70524239Y-44180664D01*
X70461952Y-44188423D01*
X70423325Y-44187196D01*
X70402740Y-44174062D01*
X70394579Y-44146098D01*
X70393227Y-44112535D01*
X70383488Y-44067928D01*
X70355156Y-44039498D01*
X70327366Y-44023779D01*
X70313014Y-44020378D01*
X70312940Y-44020466D01*
X70302422Y-44035330D01*
X70281638Y-44065221D01*
X70274653Y-44075321D01*
X70240742Y-44124414D01*
X70357982Y-44253678D01*
X70414162Y-44313753D01*
X70467070Y-44365376D01*
X70523161Y-44413999D01*
X70588892Y-44465074D01*
X70670719Y-44524052D01*
X70713707Y-44554064D01*
X70750684Y-44581566D01*
X70773706Y-44602343D01*
X70777947Y-44610535D01*
X70760898Y-44616242D01*
X70721897Y-44625132D01*
X70668495Y-44635528D01*
X70652968Y-44638308D01*
X70594206Y-44648267D01*
X70557338Y-44652253D01*
X70534822Y-44649531D01*
X70519115Y-44639366D01*
X70505122Y-44623901D01*
X70470575Y-44594370D01*
X70425990Y-44569012D01*
X70421018Y-44566917D01*
X70382031Y-44545495D01*
X70332762Y-44510693D01*
X70285880Y-44471787D01*
X70227565Y-44423370D01*
X70160042Y-44373592D01*
X70111942Y-44341996D01*
X70018937Y-44285499D01*
X69955555Y-44308192D01*
X69899779Y-44324387D01*
X69836715Y-44337519D01*
X69817424Y-44340378D01*
X69745897Y-44351407D01*
X69684864Y-44364461D01*
X69640082Y-44378002D01*
X69617307Y-44390494D01*
X69615599Y-44394257D01*
X69609795Y-44412717D01*
X69594163Y-44451835D01*
X69571373Y-44505108D01*
X69554263Y-44543630D01*
X69523143Y-44616774D01*
X69504004Y-44674060D01*
X69494091Y-44725648D01*
X69490726Y-44777856D01*
X69488524Y-44875864D01*
X69299366Y-44875864D01*
X69312172Y-44855724D01*
X69316168Y-44804603D01*
X69296284Y-44756997D01*
X69277209Y-44737437D01*
X69242354Y-44715823D01*
X69212639Y-44706462D01*
X69211950Y-44706452D01*
X69169386Y-44719621D01*
X69132219Y-44752566D01*
X69109940Y-44795445D01*
X69107300Y-44814961D01*
X69052482Y-44814961D01*
X69053423Y-44781937D01*
X69071388Y-44738800D01*
X69084371Y-44716442D01*
X69086397Y-44694498D01*
X69076742Y-44662618D01*
X69063913Y-44631789D01*
X69038567Y-44545216D01*
X69034711Y-44489276D01*
X69088435Y-44489276D01*
X69094246Y-44527052D01*
X69108624Y-44591051D01*
X69123486Y-44630935D01*
X69143048Y-44652252D01*
X69171524Y-44660555D01*
X69196426Y-44661602D01*
X69230078Y-44659782D01*
X69252233Y-44649959D01*
X69270925Y-44625583D01*
X69292728Y-44583115D01*
X69324426Y-44500956D01*
X69339297Y-44423688D01*
X69338458Y-44355126D01*
X69323021Y-44299084D01*
X69294100Y-44259378D01*
X69252810Y-44239822D01*
X69200265Y-44244231D01*
X69194338Y-44246171D01*
X69143434Y-44278911D01*
X69107672Y-44333553D01*
X69088767Y-44405280D01*
X69088435Y-44489276D01*
X69034711Y-44489276D01*
X69032297Y-44454264D01*
X69043960Y-44366153D01*
X69072411Y-44288102D01*
X69116507Y-44227330D01*
X69129863Y-44215665D01*
X69180545Y-44191460D01*
X69242426Y-44182956D01*
X69300819Y-44191490D01*
X69317428Y-44198596D01*
X69353569Y-44233730D01*
X69378000Y-44289885D01*
X69390322Y-44360403D01*
X69390132Y-44438628D01*
X69377031Y-44517902D01*
X69350617Y-44591566D01*
X69342074Y-44607990D01*
X69302529Y-44678745D01*
X69332568Y-44710989D01*
X69358098Y-44748431D01*
X69370752Y-44780904D01*
X69381573Y-44825561D01*
X69391498Y-44847998D01*
X69404468Y-44855500D01*
X69411339Y-44855952D01*
X69423657Y-44846724D01*
X69432408Y-44816372D01*
X69438635Y-44760891D01*
X69439592Y-44747564D01*
X69447239Y-44681085D01*
X69462581Y-44618443D01*
X69488876Y-44548064D01*
X69507930Y-44504627D01*
X69551872Y-44400381D01*
X69578983Y-44316043D01*
X69589618Y-44247056D01*
X69584132Y-44188858D01*
X69562879Y-44136893D01*
X69539211Y-44102291D01*
X69480137Y-44049768D01*
X69403651Y-44014456D01*
X69317760Y-43997823D01*
X69230471Y-44001335D01*
X69149791Y-44026459D01*
X69143260Y-44029760D01*
X69064331Y-44086789D01*
X68996636Y-44166288D01*
X68944132Y-44261730D01*
X68910779Y-44366582D01*
X68901861Y-44427960D01*
X68900203Y-44488107D01*
X68907369Y-44543722D01*
X68925451Y-44608383D01*
X68933147Y-44631088D01*
X68950711Y-44683793D01*
X68962778Y-44724334D01*
X68967281Y-44745620D01*
X68966980Y-44747106D01*
X68952033Y-44743908D01*
X68918139Y-44730699D01*
X68881486Y-44714392D01*
X68833410Y-44693958D01*
X68793183Y-44680260D01*
X68774663Y-44676698D01*
X68736787Y-44689986D01*
X68706330Y-44724543D01*
X68689911Y-44771750D01*
X68688701Y-44788677D01*
X68637329Y-44788677D01*
X68645311Y-44729999D01*
X68670062Y-44677682D01*
X68708849Y-44640264D01*
X68759460Y-44622463D01*
X68818369Y-44628590D01*
X68868981Y-44644124D01*
X68859901Y-44589325D01*
X68851934Y-44546102D01*
X68841681Y-44515963D01*
X68823580Y-44491099D01*
X68792071Y-44463705D01*
X68745699Y-44428995D01*
X68697997Y-44392592D01*
X68670313Y-44366536D01*
X68657817Y-44344547D01*
X68655676Y-44320343D01*
X68656239Y-44312694D01*
X68663404Y-44260577D01*
X68676492Y-44229475D01*
X68700861Y-44210506D01*
X68723567Y-44201096D01*
X68769114Y-44177490D01*
X68807123Y-44147081D01*
X68828505Y-44113379D01*
X68841167Y-44072729D01*
X68843499Y-44035335D01*
X68833885Y-44011400D01*
X68829023Y-44008566D01*
X68811012Y-44015015D01*
X68776425Y-44037197D01*
X68731158Y-44071123D01*
X68704236Y-44093015D01*
X68652233Y-44133915D01*
X68604174Y-44167250D01*
X68567518Y-44188022D01*
X68556439Y-44192006D01*
X68519243Y-44200762D01*
X68497213Y-44206743D01*
X68459561Y-44207708D01*
X68406281Y-44196122D01*
X68347228Y-44175075D01*
X68292255Y-44147660D01*
X68276243Y-44137435D01*
X68235840Y-44102860D01*
X68195540Y-44057516D01*
X68165953Y-44015956D01*
X68240202Y-44015956D01*
X68251062Y-44034775D01*
X68278070Y-44063034D01*
X68312862Y-44093044D01*
X68347077Y-44117117D01*
X68355081Y-44121576D01*
X68403595Y-44135150D01*
X68464899Y-44137700D01*
X68525254Y-44129829D01*
X68570921Y-44112139D01*
X68570962Y-44112112D01*
X68602196Y-44089665D01*
X68647032Y-44055440D01*
X68695995Y-44016674D01*
X68698037Y-44015025D01*
X68767283Y-43967199D01*
X68824533Y-43944573D01*
X68868560Y-43946957D01*
X68898131Y-43974160D01*
X68912019Y-44025990D01*
X68912950Y-44048413D01*
X68899263Y-44113350D01*
X68862247Y-44176005D01*
X68807972Y-44228643D01*
X68744763Y-44262748D01*
X68721775Y-44282227D01*
X68723301Y-44312722D01*
X68748143Y-44349987D01*
X68776815Y-44376296D01*
X68817576Y-44407235D01*
X68840653Y-44419721D01*
X68850894Y-44414956D01*
X68853151Y-44395216D01*
X68864020Y-44325537D01*
X68893472Y-44245485D01*
X68936771Y-44163402D01*
X68989184Y-44087633D01*
X69045975Y-44026520D01*
X69075483Y-44003425D01*
X69167664Y-43957931D01*
X69266422Y-43938045D01*
X69365614Y-43943684D01*
X69459093Y-43974767D01*
X69514829Y-44009296D01*
X69583820Y-44071696D01*
X69626013Y-44134974D01*
X69644250Y-44203934D01*
X69645499Y-44230264D01*
X69647359Y-44272184D01*
X69652101Y-44298383D01*
X69655546Y-44302803D01*
X69694648Y-44299000D01*
X69750027Y-44289026D01*
X69812849Y-44275032D01*
X69874279Y-44259169D01*
X69925482Y-44243588D01*
X69957624Y-44230440D01*
X69960701Y-44228501D01*
X69999328Y-44200933D01*
X70132625Y-44283228D01*
X70198058Y-44325860D01*
X70262304Y-44371515D01*
X70315495Y-44413031D01*
X70335049Y-44430172D01*
X70383894Y-44469197D01*
X70435992Y-44500717D01*
X70466743Y-44513568D01*
X70508915Y-44531220D01*
X70538789Y-44552723D01*
X70543905Y-44559583D01*
X70562985Y-44576061D01*
X70591920Y-44585926D01*
X70618864Y-44587020D01*
X70631971Y-44577186D01*
X70632066Y-44575640D01*
X70620345Y-44562605D01*
X70589619Y-44538835D01*
X70546335Y-44509286D01*
X70542709Y-44506941D01*
X70498876Y-44474084D01*
X70442128Y-44424894D01*
X70379228Y-44365550D01*
X70316934Y-44302236D01*
X70305631Y-44290166D01*
X70157780Y-44130878D01*
X70223658Y-44033703D01*
X70256807Y-43988545D01*
X70285651Y-43955911D01*
X70304996Y-43941512D01*
X70307630Y-43941399D01*
X70330170Y-43951787D01*
X70367196Y-43972746D01*
X70389233Y-43986249D01*
X70428609Y-44014307D01*
X70447520Y-44039479D01*
X70452741Y-44071208D01*
X70452771Y-44074816D01*
X70455760Y-44108271D01*
X70470684Y-44121335D01*
X70499516Y-44123403D01*
X70530885Y-44121177D01*
X70541057Y-44108397D01*
X70537067Y-44075910D01*
X70536856Y-44074816D01*
X70521364Y-44038035D01*
X70485905Y-43990304D01*
X70428335Y-43928807D01*
X70417273Y-43917841D01*
X70369493Y-43872616D01*
X70328068Y-43836643D01*
X70298383Y-43814420D01*
X70287485Y-43809454D01*
X70267974Y-43819586D01*
X70235302Y-43846205D01*
X70196392Y-43883648D01*
X70194739Y-43885358D01*
X70155973Y-43921943D01*
X70123089Y-43946505D01*
X70102866Y-43954027D01*
X70102201Y-43953826D01*
X70086766Y-43935379D01*
X70074215Y-43899836D01*
X70072915Y-43893572D01*
X70058187Y-43854251D01*
X70029725Y-43804574D01*
X69998553Y-43761566D01*
X69960958Y-43712746D01*
X69927956Y-43665357D01*
X69909400Y-43634534D01*
X69895183Y-43594305D01*
X69886571Y-43545646D01*
X69884552Y-43499621D01*
X69890113Y-43467289D01*
X69893937Y-43461349D01*
X69910688Y-43463652D01*
X69942348Y-43480873D01*
X69981821Y-43507687D01*
X70022011Y-43538770D01*
X70055820Y-43568798D01*
X70076153Y-43592445D01*
X70079048Y-43600240D01*
X70087502Y-43631018D01*
X70100268Y-43653359D01*
X70115794Y-43671496D01*
X70130114Y-43671504D01*
X70153626Y-43652169D01*
X70159769Y-43646416D01*
X70186546Y-43612997D01*
X70190515Y-43579437D01*
X70188985Y-43571666D01*
X70155280Y-43461326D01*
X70107303Y-43348678D01*
X70071545Y-43282153D01*
X70018701Y-43193444D01*
X70048875Y-43144622D01*
X70068310Y-43111293D01*
X70078571Y-43090025D01*
X70079048Y-43087844D01*
X70065543Y-43077652D01*
X70030744Y-43067453D01*
X69983224Y-43058643D01*
X69931554Y-43052618D01*
X69884308Y-43050771D01*
X69860931Y-43052346D01*
X69773833Y-43076090D01*
X69682213Y-43121808D01*
X69595183Y-43184859D01*
X69587568Y-43191508D01*
X69522162Y-43249569D01*
X69562667Y-43297706D01*
X69603171Y-43345843D01*
X69670875Y-43278140D01*
X69737578Y-43223395D01*
X69801528Y-43193600D01*
X69858064Y-43168503D01*
X69888843Y-43134309D01*
X69912096Y-43100685D01*
X69926828Y-43095712D01*
X69933047Y-43119397D01*
X69931888Y-43159130D01*
X69926314Y-43201388D01*
X69915764Y-43221299D01*
X69896147Y-43226402D01*
X69895388Y-43226405D01*
X69848374Y-43236487D01*
X69791528Y-43262892D01*
X69735172Y-43299861D01*
X69690380Y-43340778D01*
X69644248Y-43393320D01*
X69698395Y-43453255D01*
X69739045Y-43501902D01*
X69776639Y-43553239D01*
X69807222Y-43601033D01*
X69826835Y-43639052D01*
X69831523Y-43661066D01*
X69831022Y-43662141D01*
X69814886Y-43674065D01*
X69794884Y-43659918D01*
X69776458Y-43632604D01*
X69756957Y-43605797D01*
X69721641Y-43562963D01*
X69675307Y-43509728D01*
X69622755Y-43451721D01*
X69615935Y-43444358D01*
X69562977Y-43385816D01*
X69515807Y-43330881D01*
X69479203Y-43285307D01*
X69457943Y-43254851D01*
X69456634Y-43252456D01*
X69438498Y-43186546D01*
X69445373Y-43114126D01*
X69475997Y-43042965D01*
X69494976Y-43016142D01*
X69542258Y-42957305D01*
X69503196Y-42957305D01*
X69459224Y-42964320D01*
X69431479Y-42975047D01*
X69396702Y-42986257D01*
X69347805Y-42993492D01*
X69327886Y-42994605D01*
X69271821Y-43001582D01*
X69230385Y-43022359D01*
X69215761Y-43034737D01*
X69176366Y-43063567D01*
X69136021Y-43082075D01*
X69133082Y-43082835D01*
X69080853Y-43106952D01*
X69045121Y-43146868D01*
X69032696Y-43192767D01*
X69039084Y-43229766D01*
X69055254Y-43279263D01*
X69067863Y-43309086D01*
X69087389Y-43352875D01*
X69094781Y-43380912D01*
X69090693Y-43404475D01*
X69075774Y-43434842D01*
X69075192Y-43435928D01*
X69052977Y-43487443D01*
X69052110Y-43527998D01*
X69074208Y-43567571D01*
X69101301Y-43597145D01*
X69132705Y-43630389D01*
X69146166Y-43654417D01*
X69145455Y-43680570D01*
X69138076Y-43707775D01*
X69121544Y-43747302D01*
X69100267Y-43763335D01*
X69089002Y-43764604D01*
X69060646Y-43775566D01*
X69020803Y-43805163D01*
X68986331Y-43837873D01*
X68915708Y-43911143D01*
X68873217Y-43866439D01*
X68805575Y-43809672D01*
X68738623Y-43782710D01*
X68671979Y-43785573D01*
X68605261Y-43818282D01*
X68538087Y-43880857D01*
X68534866Y-43884587D01*
X68462316Y-43950948D01*
X68381969Y-43991338D01*
X68304316Y-44003803D01*
X68265297Y-44006330D01*
X68242570Y-44012689D01*
X68240202Y-44015956D01*
X68165953Y-44015956D01*
X68161521Y-44009730D01*
X68139960Y-43967824D01*
X68135552Y-43947845D01*
X68149824Y-43939085D01*
X68191707Y-43937682D01*
X68223918Y-43939901D01*
X68289990Y-43943458D01*
X68340952Y-43937942D01*
X68386065Y-43919944D01*
X68434588Y-43886055D01*
X68482797Y-43844571D01*
X68556819Y-43783420D01*
X68619501Y-43744199D01*
X68676234Y-43724056D01*
X68718863Y-43719754D01*
X68775657Y-43730111D01*
X68837756Y-43757183D01*
X68886469Y-43790860D01*
X68903571Y-43802041D01*
X68921346Y-43799737D01*
X68947572Y-43781082D01*
X68972474Y-43759157D01*
X69010186Y-43728607D01*
X69042006Y-43708889D01*
X69055018Y-43704804D01*
X69074999Y-43696443D01*
X69070245Y-43671432D01*
X69040784Y-43629876D01*
X69032550Y-43620295D01*
X68996675Y-43561459D01*
X68989260Y-43497347D01*
X69008467Y-43428229D01*
X69017835Y-43386154D01*
X69012611Y-43347291D01*
X68995319Y-43321386D01*
X68979421Y-43316105D01*
X68947271Y-43320505D01*
X68893467Y-43332442D01*
X68824727Y-43350015D01*
X68747770Y-43371327D01*
X68669315Y-43394479D01*
X68596079Y-43417572D01*
X68534782Y-43438708D01*
X68505903Y-43449919D01*
X68328716Y-43538435D01*
X68172467Y-43647238D01*
X68038209Y-43775143D01*
X67926995Y-43920961D01*
X67839876Y-44083507D01*
X67777906Y-44261592D01*
X67774448Y-44274962D01*
X67761403Y-44331053D01*
X67753043Y-44381642D01*
X67748792Y-44435026D01*
X67748077Y-44499503D01*
X67690310Y-44499503D01*
X67691348Y-44461349D01*
X67703457Y-44341387D01*
X67727560Y-44230800D01*
X67766640Y-44118768D01*
X67815352Y-44011278D01*
X67911021Y-43849739D01*
X68030554Y-43705505D01*
X68172950Y-43579277D01*
X68337210Y-43471757D01*
X68522330Y-43383647D01*
X68727310Y-43315646D01*
X68849800Y-43286734D01*
X68912618Y-43273055D01*
X68951090Y-43261891D01*
X68970387Y-43250984D01*
X68975680Y-43238076D01*
X68975067Y-43232019D01*
X68968459Y-43206118D01*
X68964947Y-43198843D01*
X68947195Y-43198095D01*
X68906723Y-43203968D01*
X68849623Y-43215091D01*
X68781987Y-43230095D01*
X68709908Y-43247608D01*
X68639478Y-43266262D01*
X68576788Y-43284685D01*
X68561626Y-43289558D01*
X68356663Y-43370059D01*
X68175141Y-43469026D01*
X68016787Y-43586716D01*
X67881325Y-43723387D01*
X67768480Y-43879297D01*
X67677978Y-44054705D01*
X67639190Y-44155048D01*
X67621109Y-44208421D01*
X67608165Y-44252300D01*
X67599492Y-44293528D01*
X67594224Y-44338949D01*
X67591494Y-44395408D01*
X67590437Y-44469748D01*
X67590220Y-44542002D01*
X67525716Y-44542002D01*
X67525152Y-44475130D01*
X67533856Y-44371237D01*
X67551834Y-44271746D01*
X67577650Y-44177182D01*
X67653232Y-43983900D01*
X67752068Y-43809279D01*
X67873854Y-43653565D01*
X68018286Y-43517004D01*
X68185062Y-43399843D01*
X68373877Y-43302329D01*
X68584429Y-43224708D01*
X68816414Y-43167227D01*
X68822329Y-43166080D01*
X68887326Y-43152141D01*
X68940502Y-43138060D01*
X68975519Y-43125683D01*
X68986171Y-43118346D01*
X69008801Y-43084419D01*
X69047605Y-43050545D01*
X69090529Y-43026632D01*
X69102275Y-43022914D01*
X69143822Y-43005785D01*
X69185313Y-42978805D01*
X69186228Y-42978051D01*
X69229944Y-42951686D01*
X69281879Y-42933813D01*
X69329568Y-42927947D01*
X69350878Y-42931623D01*
X69377454Y-42930487D01*
X69407053Y-42918846D01*
X69460453Y-42902253D01*
X69526193Y-42899460D01*
X69590185Y-42910280D01*
X69618944Y-42921660D01*
X69665654Y-42945815D01*
X69602801Y-42998024D01*
X69549352Y-43050681D01*
X69512307Y-43104175D01*
X69496299Y-43151573D01*
X69495999Y-43157788D01*
X69506633Y-43162065D01*
X69538255Y-43145683D01*
X69590451Y-43108862D01*
X69593218Y-43106772D01*
X69672795Y-43054981D01*
X69755758Y-43015539D01*
X69833354Y-42992113D01*
X69878475Y-42987205D01*
X69908003Y-42976197D01*
X69927539Y-42941694D01*
X69948178Y-42896123D01*
X69974284Y-42852816D01*
X70005164Y-42809450D01*
X69948669Y-42793410D01*
X69810698Y-42762434D01*
X69654869Y-42743246D01*
X69477520Y-42735511D01*
X69332506Y-42736900D01*
X69229492Y-42740381D01*
X69148530Y-42744860D01*
X69081771Y-42751278D01*
X69021368Y-42760578D01*
X68959471Y-42773702D01*
X68897831Y-42789085D01*
X68665446Y-42860800D01*
X68455336Y-42949924D01*
X68264245Y-43058309D01*
X68088916Y-43187805D01*
X67926092Y-43340264D01*
X67923985Y-43342466D01*
X67775805Y-43518576D01*
X67650846Y-43711125D01*
X67550307Y-43916937D01*
X67475390Y-44132838D01*
X67427293Y-44355650D01*
X67407218Y-44582200D01*
X67349486Y-44582200D01*
X67365213Y-44390204D01*
X67402226Y-44193056D01*
X67458981Y-43997511D01*
X67533967Y-43809923D01*
X67623726Y-43639862D01*
X67760994Y-43440295D01*
X67918449Y-43262737D01*
X68095893Y-43107326D01*
X68293128Y-42974194D01*
X68509958Y-42863479D01*
X68746185Y-42775313D01*
X68972750Y-42715886D01*
X69033547Y-42703724D01*
X69090839Y-42694772D01*
X69151072Y-42688551D01*
X69220693Y-42684581D01*
X69306149Y-42682383D01*
X69413886Y-42681476D01*
X69436199Y-42681413D01*
X69541635Y-42681402D01*
X69623293Y-42682266D01*
X69687295Y-42684550D01*
X69739762Y-42688802D01*
X69786815Y-42695569D01*
X69834574Y-42705397D01*
X69889161Y-42718834D01*
X69907124Y-42723478D01*
X69985700Y-42744949D01*
X70065083Y-42768402D01*
X70133989Y-42790422D01*
X70167663Y-42802294D01*
X70221729Y-42821037D01*
X70254631Y-42827882D01*
X70272218Y-42823748D01*
X70276196Y-42819346D01*
X70289387Y-42797504D01*
X70312437Y-42757846D01*
X70340554Y-42708622D01*
X70342901Y-42704478D01*
X70367774Y-42659593D01*
X70381027Y-42627177D01*
X70379679Y-42603254D01*
X70360745Y-42583849D01*
X70321243Y-42564988D01*
X70258189Y-42542696D01*
X70209356Y-42526530D01*
X70101328Y-42492492D01*
X70006110Y-42466934D01*
X69915983Y-42448728D01*
X69823230Y-42436745D01*
X69720132Y-42429857D01*
X69598970Y-42426936D01*
X69525899Y-42426610D01*
X69270820Y-42435982D01*
X69033619Y-42464927D01*
X68808491Y-42514767D01*
X68589633Y-42586824D01*
X68371238Y-42682421D01*
X68344449Y-42695707D01*
X68124542Y-42822217D01*
X67923602Y-42970540D01*
X67742841Y-43138723D01*
X67583469Y-43324814D01*
X67446699Y-43526860D01*
X67333742Y-43742911D01*
X67245810Y-43971012D01*
X67184114Y-44209213D01*
X67149866Y-44455561D01*
X67142873Y-44631702D01*
X67084303Y-44631702D01*
X67083084Y-44587725D01*
X67100853Y-44362878D01*
X67140949Y-44136745D01*
X67201937Y-43916733D01*
X67282381Y-43710247D01*
X67313625Y-43645004D01*
X67403385Y-43487763D01*
X67513457Y-43328522D01*
X67636837Y-43176251D01*
X67766521Y-43039920D01*
X67834221Y-42978222D01*
X68040557Y-42819363D01*
X68263183Y-42682655D01*
X68499000Y-42568872D01*
X68744911Y-42478787D01*
X68997816Y-42413174D01*
X69254617Y-42372805D01*
X69512215Y-42358454D01*
X69767512Y-42370895D01*
G37*
D12*
%TO.C,C7*%
X47703400Y-89683100D02*
X48703400Y-89683100D01*
X48203400Y-89183100D02*
X48203400Y-90183100D01*
X48943400Y-88897537D02*
X48943400Y-90683100D01*
X48943400Y-88897537D02*
X50007837Y-87833100D01*
X48943400Y-95488663D02*
X48943400Y-93703100D01*
X48943400Y-95488663D02*
X50007837Y-96553100D01*
X50007837Y-87833100D02*
X57663400Y-87833100D01*
X50007837Y-96553100D02*
X57663400Y-96553100D01*
X57663400Y-87833100D02*
X57663400Y-90683100D01*
X57663400Y-96553100D02*
X57663400Y-93703100D01*
%TO.C,J1*%
X82504300Y-39849700D02*
X85604300Y-39849700D01*
X82504300Y-49669700D02*
X82504300Y-39849700D01*
X85604300Y-38449700D02*
X87414300Y-38449700D01*
X85604300Y-39849700D02*
X85604300Y-38449700D01*
X87414300Y-49669700D02*
X82504300Y-49669700D01*
X87414300Y-49669700D02*
X92324300Y-49669700D01*
X89224300Y-38449700D02*
X87414300Y-38449700D01*
X89224300Y-39849700D02*
X89224300Y-38449700D01*
X89714300Y-49909700D02*
X92564300Y-49909700D01*
X92324300Y-39849700D02*
X89224300Y-39849700D01*
X92324300Y-49669700D02*
X92324300Y-39849700D01*
X92564300Y-49909700D02*
X92564300Y-47059700D01*
%TO.C,J17*%
X73665000Y-97340100D02*
X73665000Y-100000100D01*
X73725000Y-97340100D02*
X73665000Y-97340100D01*
X73725000Y-97340100D02*
X73725000Y-100000100D01*
X73725000Y-100000100D02*
X73665000Y-100000100D01*
X74995000Y-97340100D02*
X76325000Y-97340100D01*
X76325000Y-97340100D02*
X76325000Y-98670100D01*
%TO.C,C14*%
X63633900Y-53917300D02*
X63633900Y-56767300D01*
X63633900Y-62637300D02*
X63633900Y-59787300D01*
X71289463Y-53917300D02*
X63633900Y-53917300D01*
X71289463Y-62637300D02*
X63633900Y-62637300D01*
X72353900Y-54981737D02*
X71289463Y-53917300D01*
X72353900Y-54981737D02*
X72353900Y-56767300D01*
X72353900Y-61572863D02*
X71289463Y-62637300D01*
X72353900Y-61572863D02*
X72353900Y-59787300D01*
X73093900Y-61287300D02*
X73093900Y-60287300D01*
X73593900Y-60787300D02*
X72593900Y-60787300D01*
%TO.C,R6*%
X79424200Y-75979164D02*
X79424200Y-75525036D01*
X80894200Y-75979164D02*
X80894200Y-75525036D01*
%TO.C,C18*%
X66173900Y-87851700D02*
X66173900Y-90701700D01*
X66173900Y-96571700D02*
X66173900Y-93721700D01*
X73829463Y-87851700D02*
X66173900Y-87851700D01*
X73829463Y-96571700D02*
X66173900Y-96571700D01*
X74893900Y-88916137D02*
X73829463Y-87851700D01*
X74893900Y-88916137D02*
X74893900Y-90701700D01*
X74893900Y-95507263D02*
X73829463Y-96571700D01*
X74893900Y-95507263D02*
X74893900Y-93721700D01*
X75633900Y-95221700D02*
X75633900Y-94221700D01*
X76133900Y-94721700D02*
X75133900Y-94721700D01*
%TO.C,J16*%
X60685600Y-97340100D02*
X60685600Y-100000100D01*
X60745600Y-97340100D02*
X60685600Y-97340100D01*
X60745600Y-97340100D02*
X60745600Y-100000100D01*
X60745600Y-100000100D02*
X60685600Y-100000100D01*
X62015600Y-97340100D02*
X63345600Y-97340100D01*
X63345600Y-97340100D02*
X63345600Y-98670100D01*
%TO.C,R4*%
X79449600Y-86139164D02*
X79449600Y-85685036D01*
X80919600Y-86139164D02*
X80919600Y-85685036D01*
%TO.C,R9*%
X58419700Y-76639964D02*
X58419700Y-76185836D01*
X59889700Y-76639964D02*
X59889700Y-76185836D01*
%TO.C,C3*%
X105551500Y-77257598D02*
X105551500Y-77780102D01*
X107021500Y-77257598D02*
X107021500Y-77780102D01*
%TO.C,U5*%
X65226300Y-63542100D02*
X65226300Y-64492100D01*
X65226300Y-73942100D02*
X65226300Y-72992100D01*
X66591300Y-63542100D02*
X65226300Y-63542100D01*
X66591300Y-73942100D02*
X65226300Y-73942100D01*
X62401300Y-64532100D02*
X62061300Y-64062100D01*
X62741300Y-64062100D01*
X62401300Y-64532100D01*
G36*
X62401300Y-64532100D02*
G01*
X62061300Y-64062100D01*
X62741300Y-64062100D01*
X62401300Y-64532100D01*
G37*
%TO.C,R5*%
X79424200Y-81084564D02*
X79424200Y-80630436D01*
X80894200Y-81084564D02*
X80894200Y-80630436D01*
%TO.C,J3*%
X85320500Y-101200500D02*
X85320500Y-104050500D01*
X85560500Y-101440500D02*
X85560500Y-111260500D01*
X85560500Y-111260500D02*
X88660500Y-111260500D01*
X88170500Y-101200500D02*
X85320500Y-101200500D01*
X88660500Y-111260500D02*
X88660500Y-112660500D01*
X88660500Y-112660500D02*
X90470500Y-112660500D01*
X90470500Y-101440500D02*
X85560500Y-101440500D01*
X90470500Y-101440500D02*
X95380500Y-101440500D01*
X92280500Y-111260500D02*
X92280500Y-112660500D01*
X92280500Y-112660500D02*
X90470500Y-112660500D01*
X95380500Y-101440500D02*
X95380500Y-111260500D01*
X95380500Y-111260500D02*
X92280500Y-111260500D01*
%TO.C,U4*%
X86230800Y-62881300D02*
X86230800Y-63831300D01*
X86230800Y-73281300D02*
X86230800Y-72331300D01*
X87595800Y-62881300D02*
X86230800Y-62881300D01*
X87595800Y-73281300D02*
X86230800Y-73281300D01*
X83405800Y-63871300D02*
X83065800Y-63401300D01*
X83745800Y-63401300D01*
X83405800Y-63871300D01*
G36*
X83405800Y-63871300D02*
G01*
X83065800Y-63401300D01*
X83745800Y-63401300D01*
X83405800Y-63871300D01*
G37*
%TO.C,C10*%
X95527800Y-56658552D02*
X95527800Y-56136048D01*
X96997800Y-56658552D02*
X96997800Y-56136048D01*
%TO.C,C6*%
X120588300Y-88219502D02*
X120588300Y-87696998D01*
X122058300Y-88219502D02*
X122058300Y-87696998D01*
%TO.C,D4*%
X60324100Y-89609700D02*
X60324100Y-82599700D01*
X60324100Y-89609700D02*
X63624100Y-89609700D01*
X63624100Y-89609700D02*
X63624100Y-82599700D01*
%TO.C,J2*%
X54874100Y-101200500D02*
X54874100Y-104050500D01*
X55114100Y-101440500D02*
X55114100Y-111260500D01*
X55114100Y-111260500D02*
X60314100Y-111260500D01*
X57724100Y-101200500D02*
X54874100Y-101200500D01*
X60314100Y-111260500D02*
X60314100Y-112660500D01*
X60314100Y-112660500D02*
X62124100Y-112660500D01*
X62124100Y-101440500D02*
X55114100Y-101440500D01*
X62124100Y-101440500D02*
X69134100Y-101440500D01*
X63934100Y-111260500D02*
X63934100Y-112660500D01*
X63934100Y-112660500D02*
X62124100Y-112660500D01*
X69134100Y-101440500D02*
X69134100Y-111260500D01*
X69134100Y-111260500D02*
X63934100Y-111260500D01*
%TO.C,C15*%
X74523300Y-57319352D02*
X74523300Y-56796848D01*
X75993300Y-57319352D02*
X75993300Y-56796848D01*
%TO.C,R7*%
X58445100Y-86799964D02*
X58445100Y-86345836D01*
X59915100Y-86799964D02*
X59915100Y-86345836D01*
%TO.C,C8*%
X109775100Y-87001850D02*
X109775100Y-89851850D01*
X109775100Y-95721850D02*
X109775100Y-92871850D01*
X117430663Y-87001850D02*
X109775100Y-87001850D01*
X117430663Y-95721850D02*
X109775100Y-95721850D01*
X118495100Y-88066287D02*
X117430663Y-87001850D01*
X118495100Y-88066287D02*
X118495100Y-89851850D01*
X118495100Y-94657413D02*
X117430663Y-95721850D01*
X118495100Y-94657413D02*
X118495100Y-92871850D01*
X119235100Y-94371850D02*
X119235100Y-93371850D01*
X119735100Y-93871850D02*
X118735100Y-93871850D01*
%TO.C,J13*%
X76814600Y-52737700D02*
X76814600Y-55397700D01*
X76874600Y-52737700D02*
X76814600Y-52737700D01*
X76874600Y-52737700D02*
X76874600Y-55397700D01*
X76874600Y-55397700D02*
X76814600Y-55397700D01*
X78144600Y-52737700D02*
X79474600Y-52737700D01*
X79474600Y-52737700D02*
X79474600Y-54067700D01*
%TO.C,R8*%
X58419700Y-81745364D02*
X58419700Y-81291236D01*
X59889700Y-81745364D02*
X59889700Y-81291236D01*
%TO.C,R2*%
X102020900Y-80895514D02*
X102020900Y-80441386D01*
X103490900Y-80895514D02*
X103490900Y-80441386D01*
%TO.C,C1*%
X107235100Y-53067450D02*
X107235100Y-55917450D01*
X107235100Y-61787450D02*
X107235100Y-58937450D01*
X114890663Y-53067450D02*
X107235100Y-53067450D01*
X114890663Y-61787450D02*
X107235100Y-61787450D01*
X115955100Y-54131887D02*
X114890663Y-53067450D01*
X115955100Y-54131887D02*
X115955100Y-55917450D01*
X115955100Y-60723013D02*
X114890663Y-61787450D01*
X115955100Y-60723013D02*
X115955100Y-58937450D01*
X116695100Y-60437450D02*
X116695100Y-59437450D01*
X117195100Y-59937450D02*
X116195100Y-59937450D01*
%TO.C,C12*%
X97991600Y-88408552D02*
X97991600Y-87886048D01*
X99461600Y-88408552D02*
X99461600Y-87886048D01*
%TO.C,J14*%
X47655400Y-52559900D02*
X47655400Y-55219900D01*
X47715400Y-52559900D02*
X47655400Y-52559900D01*
X47715400Y-52559900D02*
X47715400Y-55219900D01*
X47715400Y-55219900D02*
X47655400Y-55219900D01*
X48985400Y-52559900D02*
X50315400Y-52559900D01*
X50315400Y-52559900D02*
X50315400Y-53889900D01*
%TO.C,R3*%
X102020900Y-75790114D02*
X102020900Y-75335986D01*
X103490900Y-75790114D02*
X103490900Y-75335986D01*
%TO.C,C13*%
X87178400Y-87190900D02*
X87178400Y-90040900D01*
X87178400Y-95910900D02*
X87178400Y-93060900D01*
X94833963Y-87190900D02*
X87178400Y-87190900D01*
X94833963Y-95910900D02*
X87178400Y-95910900D01*
X95898400Y-88255337D02*
X94833963Y-87190900D01*
X95898400Y-88255337D02*
X95898400Y-90040900D01*
X95898400Y-94846463D02*
X94833963Y-95910900D01*
X95898400Y-94846463D02*
X95898400Y-93060900D01*
X96638400Y-94560900D02*
X96638400Y-93560900D01*
X97138400Y-94060900D02*
X96138400Y-94060900D01*
%TO.C,C9*%
X84638400Y-53256500D02*
X84638400Y-56106500D01*
X84638400Y-61976500D02*
X84638400Y-59126500D01*
X92293963Y-53256500D02*
X84638400Y-53256500D01*
X92293963Y-61976500D02*
X84638400Y-61976500D01*
X93358400Y-54320937D02*
X92293963Y-53256500D01*
X93358400Y-54320937D02*
X93358400Y-56106500D01*
X93358400Y-60912063D02*
X92293963Y-61976500D01*
X93358400Y-60912063D02*
X93358400Y-59126500D01*
X94098400Y-60626500D02*
X94098400Y-59626500D01*
X94598400Y-60126500D02*
X93598400Y-60126500D01*
%TO.C,J15*%
X47706200Y-97340100D02*
X47706200Y-100000100D01*
X47766200Y-97340100D02*
X47706200Y-97340100D01*
X47766200Y-97340100D02*
X47766200Y-100000100D01*
X47766200Y-100000100D02*
X47706200Y-100000100D01*
X49036200Y-97340100D02*
X50366200Y-97340100D01*
X50366200Y-97340100D02*
X50366200Y-98670100D01*
%TO.C,J4*%
X112109300Y-101200500D02*
X112109300Y-104050500D01*
X112349300Y-101440500D02*
X112349300Y-111260500D01*
X112349300Y-111260500D02*
X113349300Y-111260500D01*
X113349300Y-111260500D02*
X113349300Y-112660500D01*
X113349300Y-112660500D02*
X115159300Y-112660500D01*
X114959300Y-101200500D02*
X112109300Y-101200500D01*
X115159300Y-101440500D02*
X112349300Y-101440500D01*
X115159300Y-101440500D02*
X117969300Y-101440500D01*
X116969300Y-111260500D02*
X116969300Y-112660500D01*
X116969300Y-112660500D02*
X115159300Y-112660500D01*
X117969300Y-101440500D02*
X117969300Y-111260500D01*
X117969300Y-111260500D02*
X116969300Y-111260500D01*
%TO.C,C5*%
X47463000Y-86459952D02*
X47463000Y-85937448D01*
X48933000Y-86459952D02*
X48933000Y-85937448D01*
%TD*%
M02*
